<?xml version="1.0" encoding="utf-8" ?><svg version="1.1" xmlns = 'http://www.w3.org/2000/svg'><defs><font id='web' horiz-adv-x="1000">
<font-face font-family="web" descent="-473" cap-height="1307" units-per-em="2048" bbox="-172,-492,2134,1913" x-height="928" ascent="1458" />
<missing-glyph horiz-adv-x="463" d="" /><glyph horiz-adv-x="463" d="" unicode=" " />
<glyph horiz-adv-x="586" d="M 467 1307 L 426 393 L 170 446 L 129 1307 L 467 1307 Z M 473 141 C 473 127 466 110 454 91 C 441 71 426 53 408 35 C 390 17 372 2 353 -10 C 333 -22 317 -29 303 -29 C 289 -29 272 -22 253 -10 C 233 2 215 17 197 35 C 179 53 164 71 152 91 C 139 110 133 127 133 141 C 133 154 139 170 152 190 C 164 209 179 227 197 245 C 215 263 233 278 253 290 C 272 302 289 309 303 309 C 317 309 333 302 353 290 C 372 278 390 263 408 245 C 426 227 441 209 454 190 C 466 170 473 154 473 141 Z" unicode="!" />
<glyph horiz-adv-x="748" d="M 674 1307 L 629 731 L 483 731 L 440 1307 L 674 1307 Z M 307 1307 L 262 731 L 117 731 L 74 1307 L 307 1307 Z" unicode="&#x22;" />
<glyph horiz-adv-x="831" d="M 817 750 L 684 750 L 641 557 L 752 557 L 752 397 L 602 397 L 510 0 L 336 0 L 426 397 L 283 397 L 190 0 L 16 0 L 106 397 L 14 397 L 14 557 L 145 557 L 190 750 L 78 750 L 78 909 L 227 909 L 319 1307 L 494 1307 L 403 909 L 547 909 L 639 1307 L 813 1307 L 723 909 L 817 909 L 817 750 Z M 510 750 L 365 750 L 322 557 L 465 557 L 510 750 Z" unicode="#" />
<glyph horiz-adv-x="1004" d="M 938 381 C 938 321 929 268 912 222 C 894 175 869 135 837 101 C 805 67 765 39 719 18 C 673 -2 621 -17 563 -25 L 563 -199 L 406 -199 L 406 -29 C 343 -24 282 -13 224 4 C 165 21 113 44 68 72 L 123 311 C 143 298 164 286 188 274 C 211 262 236 251 262 242 C 288 232 316 225 345 219 C 373 213 403 211 434 211 C 464 211 492 214 518 221 C 543 228 565 238 583 252 C 601 265 614 281 624 299 C 634 317 639 338 639 362 C 639 402 622 436 590 465 C 558 493 512 516 453 532 C 389 550 334 572 286 600 C 238 628 198 659 166 695 C 134 730 110 769 94 811 C 78 853 70 898 70 946 C 70 998 78 1045 94 1088 C 110 1130 132 1168 162 1201 C 192 1233 227 1260 269 1282 C 310 1304 356 1319 406 1329 L 406 1509 L 563 1509 L 563 1337 C 619 1333 672 1326 720 1314 C 768 1302 810 1287 846 1270 L 793 1034 C 757 1050 716 1064 672 1076 C 628 1088 584 1094 541 1094 C 483 1094 437 1081 405 1057 C 372 1033 356 1001 356 963 C 356 944 360 927 368 913 C 376 898 388 885 404 873 C 419 861 437 850 459 840 C 481 830 505 821 532 813 C 595 793 652 770 702 743 C 752 715 795 684 830 648 C 865 612 892 571 910 527 C 928 482 938 433 938 381 Z" unicode="$" />
<glyph horiz-adv-x="1456" d="M 1399 276 C 1399 230 1391 189 1375 151 C 1359 113 1337 81 1309 54 C 1281 27 1248 6 1210 -8 C 1172 -23 1132 -31 1090 -31 C 1046 -31 1005 -23 967 -8 C 929 6 896 27 868 54 C 840 81 818 113 802 151 C 786 189 778 230 778 276 C 778 320 786 361 802 399 C 818 437 840 469 868 496 C 896 523 929 544 967 559 C 1005 574 1046 582 1090 582 C 1132 582 1172 574 1210 559 C 1248 544 1281 523 1309 496 C 1337 469 1359 437 1375 399 C 1391 361 1399 320 1399 276 Z M 1198 276 C 1198 294 1195 310 1189 325 C 1183 339 1176 352 1166 362 C 1156 372 1144 380 1131 386 C 1118 392 1104 395 1090 395 C 1074 395 1060 392 1047 386 C 1033 380 1022 372 1012 362 C 1002 352 994 339 988 325 C 982 310 979 294 979 276 C 979 258 982 241 988 227 C 994 212 1002 199 1012 188 C 1022 177 1033 169 1047 163 C 1060 157 1074 154 1090 154 C 1104 154 1117 157 1130 163 C 1143 169 1155 177 1165 188 C 1175 199 1183 212 1189 227 C 1195 241 1198 258 1198 276 Z M 1307 1245 L 272 -37 L 145 63 L 1182 1346 L 1307 1245 Z M 676 1034 C 676 988 668 947 652 909 C 636 871 614 839 586 812 C 558 785 525 764 487 749 C 449 734 409 727 367 727 C 323 727 283 734 245 749 C 207 764 174 785 146 812 C 118 839 95 871 79 909 C 63 947 55 988 55 1034 C 55 1078 63 1119 79 1157 C 95 1194 118 1226 146 1253 C 174 1280 207 1301 245 1316 C 283 1331 323 1339 367 1339 C 409 1339 449 1331 487 1316 C 525 1301 558 1280 586 1253 C 614 1226 636 1194 652 1157 C 668 1119 676 1078 676 1034 Z M 475 1034 C 475 1052 472 1068 466 1083 C 460 1097 453 1110 443 1120 C 433 1130 421 1138 408 1144 C 395 1150 381 1153 367 1153 C 351 1153 337 1150 324 1144 C 310 1138 299 1130 289 1120 C 279 1110 271 1097 265 1083 C 259 1068 256 1052 256 1034 C 256 1016 259 999 265 984 C 271 969 279 956 289 945 C 299 934 310 926 324 920 C 337 914 351 911 367 911 C 381 911 394 914 407 920 C 420 926 432 934 442 945 C 452 956 460 969 466 984 C 472 999 475 1016 475 1034 Z" unicode="%" />
<glyph horiz-adv-x="1364" d="M 1352 0 L 969 0 L 901 66 C 847 34 788 11 725 -5 C 662 -21 594 -29 522 -29 C 452 -29 388 -19 332 0 C 276 18 228 44 189 78 C 149 111 119 150 98 196 C 76 242 66 292 66 346 C 66 422 83 488 118 542 C 152 596 205 646 276 690 C 228 741 195 790 175 837 C 155 883 145 931 145 981 C 145 1035 155 1084 176 1128 C 197 1172 225 1210 261 1241 C 296 1272 337 1296 385 1313 C 432 1330 482 1339 535 1339 C 588 1339 639 1330 689 1313 C 738 1296 782 1272 820 1241 C 858 1209 888 1171 911 1127 C 934 1082 946 1032 946 977 C 946 905 926 841 887 785 C 847 729 791 678 719 633 L 915 434 C 948 473 978 515 1005 560 C 1031 604 1054 650 1073 696 L 1268 502 C 1248 454 1226 407 1200 363 C 1174 319 1145 278 1112 240 L 1352 0 Z M 670 977 C 670 993 667 1008 661 1023 C 655 1038 647 1051 636 1063 C 625 1075 612 1084 596 1091 C 580 1098 563 1102 543 1102 C 525 1102 508 1098 493 1092 C 478 1086 465 1077 455 1067 C 445 1056 437 1044 431 1030 C 425 1016 422 1001 422 987 C 422 959 431 931 451 905 C 470 879 496 850 528 819 C 622 869 670 922 670 977 Z M 707 262 L 461 508 C 425 487 399 465 383 441 C 366 417 358 389 358 356 C 358 335 362 316 370 299 C 378 282 390 267 405 255 C 420 243 438 233 458 227 C 478 220 500 217 524 217 C 555 217 586 220 617 228 C 647 236 677 247 707 262 Z" unicode="&#x26;" />
<glyph horiz-adv-x="381" d="M 307 1307 L 262 731 L 117 731 L 74 1307 L 307 1307 Z" unicode="'" />
<glyph horiz-adv-x="594" d="M 582 1421 C 548 1354 518 1283 492 1209 C 465 1134 442 1057 424 977 C 406 897 392 816 382 733 C 372 649 367 566 367 483 C 367 394 371 309 379 227 C 387 145 399 64 416 -14 C 433 -93 455 -171 481 -249 C 507 -326 539 -404 575 -483 L 270 -420 C 236 -348 207 -276 182 -205 C 156 -134 135 -61 118 13 C 100 87 87 166 79 248 C 70 330 66 418 66 512 C 66 607 70 698 79 784 C 88 870 101 954 119 1034 C 137 1114 159 1191 185 1265 C 211 1339 242 1412 276 1483 L 582 1421 Z" unicode="(" />
<glyph horiz-adv-x="594" d="M 528 479 C 528 383 523 292 514 206 C 505 120 492 37 474 -43 C 456 -123 434 -200 408 -274 C 382 -348 351 -421 317 -492 L 14 -430 C 47 -363 77 -292 103 -218 C 129 -144 152 -67 170 12 C 188 92 202 173 212 256 C 222 339 227 422 227 506 C 227 594 223 680 215 762 C 207 844 194 925 177 1005 C 160 1084 139 1162 113 1240 C 87 1317 56 1395 20 1475 L 326 1411 C 359 1339 388 1267 413 1196 C 438 1125 459 1052 476 978 C 493 903 506 825 515 743 C 523 661 528 573 528 479 Z" unicode=")" />
<glyph horiz-adv-x="905" d="M 891 1053 L 600 975 L 766 774 L 616 612 L 453 866 L 317 649 L 117 743 L 311 975 L 61 1040 L 86 1255 L 360 1143 L 346 1399 L 563 1448 L 545 1145 L 776 1243 L 891 1053 Z" unicode="*" />
<glyph horiz-adv-x="926" d="M 858 451 L 588 451 L 588 186 L 338 186 L 338 451 L 68 451 L 68 680 L 338 680 L 338 944 L 588 944 L 588 680 L 858 680 L 858 451 Z" unicode="+" />
<glyph horiz-adv-x="455" d="M 397 141 C 397 109 389 72 375 32 C 361 -8 342 -49 319 -90 C 296 -131 270 -171 241 -209 C 211 -247 182 -279 152 -307 L 57 -291 C 74 -271 90 -249 106 -225 C 121 -201 134 -176 146 -151 C 158 -125 168 -100 176 -75 C 184 -49 189 -25 193 -2 C 179 0 165 7 149 18 C 133 29 119 42 105 56 C 91 70 80 85 71 101 C 61 116 57 129 57 141 C 57 155 63 172 76 192 C 88 212 104 230 122 247 C 140 264 158 279 178 291 C 197 303 213 309 227 309 C 239 309 254 303 273 291 C 292 279 311 265 329 248 C 347 231 363 213 377 194 C 390 174 397 157 397 141 Z" unicode="," />
<glyph horiz-adv-x="672" d="M 604 451 L 68 451 L 68 680 L 604 680 L 604 451 Z" unicode="-" />
<glyph horiz-adv-x="455" d="M 397 141 C 397 127 390 110 378 91 C 366 71 351 53 333 35 C 315 17 296 2 277 -10 C 257 -22 241 -29 227 -29 C 213 -29 196 -22 177 -10 C 157 2 139 17 121 35 C 103 53 88 71 76 91 C 63 110 57 127 57 141 C 57 154 63 170 76 190 C 88 209 103 227 121 245 C 139 263 157 278 177 290 C 196 302 213 309 227 309 C 241 309 257 302 277 290 C 296 278 315 263 333 245 C 351 227 366 209 378 190 C 390 170 397 154 397 141 Z" unicode="." />
<glyph horiz-adv-x="1032" d="M 967 1309 L 115 -356 L -86 -250 L 766 1415 L 967 1309 Z" unicode="/" />
<glyph horiz-adv-x="1071" d="M 1006 655 C 1006 537 993 436 968 350 C 943 264 909 192 867 136 C 825 79 775 37 718 10 C 661 -17 601 -31 537 -31 C 472 -31 411 -17 354 10 C 297 37 247 79 205 136 C 162 192 128 264 103 350 C 78 436 66 537 66 655 C 66 771 78 873 103 959 C 128 1045 162 1116 205 1172 C 247 1228 297 1270 354 1298 C 411 1325 472 1339 537 1339 C 601 1339 661 1325 718 1298 C 775 1270 825 1228 867 1172 C 909 1116 943 1045 968 959 C 993 873 1006 771 1006 655 Z M 709 655 C 709 726 704 788 695 842 C 685 895 673 939 657 975 C 641 1010 623 1036 602 1054 C 581 1072 559 1081 537 1081 C 513 1081 491 1072 471 1054 C 450 1036 432 1009 416 974 C 400 938 388 894 379 841 C 369 787 365 725 365 655 C 365 583 369 521 379 468 C 388 414 400 370 416 335 C 432 299 450 273 471 255 C 491 237 513 229 537 229 C 559 229 581 237 602 255 C 623 272 641 298 657 334 C 673 369 685 413 695 467 C 704 520 709 583 709 655 Z" unicode="0" />
<glyph horiz-adv-x="635" d="M 528 0 L 233 0 L 233 1044 L 14 1024 L 72 1288 L 528 1329 L 528 0 Z" unicode="1" />
<glyph horiz-adv-x="965" d="M 899 0 L 63 0 L 63 80 C 125 151 185 223 241 297 C 297 371 346 442 388 512 C 430 581 464 646 489 708 C 513 770 526 824 526 872 C 526 904 521 932 512 957 C 503 982 491 1003 475 1021 C 459 1038 440 1051 418 1061 C 396 1070 372 1075 346 1075 C 304 1075 264 1069 226 1058 C 188 1046 155 1031 125 1012 L 66 1262 C 104 1284 149 1303 203 1317 C 256 1331 316 1339 383 1339 C 447 1339 507 1329 562 1311 C 616 1292 664 1264 704 1227 C 744 1190 775 1144 797 1089 C 819 1034 831 971 831 899 C 831 846 822 793 804 739 C 786 685 763 630 733 576 C 703 522 669 467 629 413 C 589 359 548 305 504 252 L 899 252 L 899 0 Z" unicode="2" />
<glyph horiz-adv-x="926" d="M 860 406 C 860 338 848 277 824 223 C 800 169 766 124 722 88 C 678 51 625 23 564 4 C 502 -15 434 -25 360 -25 C 341 -25 321 -24 299 -22 C 277 -20 255 -17 233 -13 C 211 -9 189 -4 169 1 C 148 6 129 12 113 20 L 86 283 C 118 265 152 251 189 241 C 226 230 265 225 305 225 C 335 225 363 228 391 236 C 419 244 443 255 464 271 C 484 286 501 305 513 329 C 525 352 532 380 532 412 C 532 436 526 459 516 481 C 505 503 490 521 472 537 C 454 553 432 565 408 574 C 383 583 357 588 330 588 C 323 588 317 587 312 587 C 307 586 300 585 291 584 L 242 803 C 270 808 296 816 321 826 C 345 836 367 847 386 861 C 404 875 419 890 430 907 C 440 923 446 941 446 961 C 446 993 434 1019 410 1039 C 386 1059 355 1069 317 1069 C 281 1069 248 1064 218 1055 C 188 1045 159 1032 131 1016 L 74 1268 C 108 1286 150 1302 200 1314 C 250 1326 302 1333 358 1333 C 418 1333 473 1325 523 1310 C 572 1295 614 1274 649 1247 C 684 1219 711 1186 730 1148 C 748 1109 758 1066 758 1020 C 758 986 752 955 741 927 C 729 899 715 874 697 853 C 679 831 659 814 637 800 C 615 786 593 776 571 770 C 605 762 640 748 675 729 C 709 709 740 684 768 654 C 795 623 817 587 834 545 C 851 503 860 457 860 406 Z" unicode="3" />
<glyph horiz-adv-x="1055" d="M 989 307 L 850 307 L 850 0 L 561 0 L 561 307 L 63 307 L 14 528 L 594 1307 L 850 1307 L 850 553 L 989 553 L 989 307 Z M 567 903 L 563 907 C 551 884 538 862 525 841 C 511 820 497 800 483 782 L 307 551 L 563 551 L 563 784 C 563 802 563 822 563 842 C 563 862 565 882 567 903 Z" unicode="4" />
<glyph horiz-adv-x="963" d="M 897 422 C 897 354 886 293 864 238 C 842 182 809 135 767 96 C 725 56 673 26 611 4 C 549 -18 477 -29 397 -29 C 373 -29 349 -27 325 -25 C 300 -23 276 -20 253 -16 C 230 -12 209 -7 189 -1 C 169 4 151 10 137 18 L 109 291 C 145 270 183 253 225 241 C 267 229 312 223 360 223 C 390 223 419 227 446 237 C 473 246 497 259 517 276 C 537 292 552 312 564 335 C 576 358 582 384 582 412 C 582 441 576 468 564 492 C 552 516 536 537 516 554 C 496 571 472 584 444 594 C 416 603 386 608 354 608 C 308 608 268 605 236 600 C 203 594 173 586 145 575 L 164 1307 L 817 1307 L 760 1057 L 451 1057 L 444 846 C 450 847 459 848 469 848 C 479 848 487 848 494 848 C 544 848 593 838 641 819 C 689 800 732 773 770 737 C 808 701 838 656 862 603 C 885 550 897 490 897 422 Z" unicode="5" />
<glyph horiz-adv-x="1067" d="M 1012 422 C 1012 353 999 291 975 235 C 950 179 916 132 873 93 C 830 54 780 24 722 3 C 664 -18 603 -29 537 -29 C 472 -29 411 -18 354 3 C 297 25 247 57 205 99 C 162 141 128 192 103 254 C 78 315 66 385 66 465 C 66 552 79 639 107 725 C 135 811 173 893 222 971 C 271 1049 329 1121 397 1187 C 464 1253 538 1310 618 1358 L 924 1262 C 814 1203 718 1136 638 1062 C 558 988 495 906 449 817 C 470 827 493 835 519 841 C 545 847 573 850 604 850 C 652 850 701 840 750 821 C 798 802 842 774 881 738 C 919 702 951 657 975 604 C 999 551 1012 490 1012 422 Z M 727 406 C 727 433 722 458 713 482 C 703 505 690 525 674 542 C 658 559 638 572 616 582 C 594 591 569 596 543 596 C 523 596 504 593 485 589 C 466 585 448 577 432 567 C 415 557 400 543 387 527 C 373 511 363 491 356 467 L 356 424 C 356 394 361 366 372 341 C 382 315 397 293 415 275 C 433 257 453 242 476 232 C 499 222 523 217 549 217 C 571 217 593 221 615 230 C 637 239 656 252 672 268 C 688 284 702 304 712 328 C 722 351 727 377 727 406 Z" unicode="6" />
<glyph horiz-adv-x="950" d="M 930 1307 L 393 0 L 82 0 L 526 1057 L 14 1057 L 14 1307 L 930 1307 Z" unicode="7" />
<glyph horiz-adv-x="1079" d="M 1014 379 C 1014 315 1002 258 979 208 C 955 158 923 115 881 79 C 839 43 788 16 730 -2 C 672 -21 608 -31 539 -31 C 469 -31 405 -21 347 -2 C 289 16 239 43 197 79 C 155 114 123 157 100 208 C 77 258 66 315 66 379 C 66 421 73 459 87 495 C 101 531 120 562 142 590 C 164 617 187 640 213 659 C 239 678 263 692 287 702 C 264 712 242 727 221 746 C 200 764 182 786 166 811 C 150 835 137 862 127 891 C 117 920 113 951 113 983 C 113 1035 123 1082 144 1126 C 164 1170 193 1207 230 1239 C 267 1271 312 1295 364 1313 C 416 1330 473 1339 537 1339 C 599 1339 657 1330 709 1312 C 761 1294 806 1270 844 1238 C 881 1206 910 1168 931 1124 C 952 1080 963 1031 963 977 C 963 947 957 919 947 891 C 937 863 923 837 907 813 C 891 789 872 769 851 751 C 830 733 809 719 788 709 C 811 699 836 685 862 665 C 888 645 913 621 936 593 C 958 565 977 533 992 497 C 1006 461 1014 421 1014 379 Z M 694 967 C 694 986 690 1004 682 1021 C 674 1037 664 1052 650 1064 C 636 1076 620 1086 602 1093 C 583 1100 563 1104 541 1104 C 519 1104 499 1100 481 1094 C 463 1087 447 1077 433 1065 C 419 1053 409 1038 401 1022 C 393 1005 389 987 389 967 C 389 931 403 899 432 871 C 460 842 499 821 549 809 C 595 821 630 842 656 871 C 681 899 694 931 694 967 Z M 719 379 C 719 403 712 426 700 446 C 688 466 672 485 653 501 C 634 517 613 530 590 542 C 567 553 545 561 524 567 C 504 561 483 553 462 542 C 440 530 421 517 404 501 C 386 485 372 466 361 446 C 349 426 344 403 344 379 C 344 355 349 333 359 313 C 369 293 383 275 400 260 C 417 245 437 233 459 225 C 481 217 505 213 530 213 C 555 213 579 217 602 225 C 624 233 644 245 662 260 C 679 274 693 292 703 312 C 713 332 719 355 719 379 Z" unicode="8" />
<glyph horiz-adv-x="1067" d="M 1001 846 C 1001 758 987 671 959 585 C 931 499 893 417 844 339 C 795 261 737 189 670 123 C 602 57 529 0 449 -47 L 143 49 C 255 109 351 175 431 249 C 511 322 574 404 621 494 C 599 483 576 474 550 468 C 524 462 495 459 463 459 C 414 459 365 468 317 487 C 268 506 224 534 186 571 C 147 607 115 652 91 706 C 67 759 55 820 55 889 C 55 957 67 1019 92 1075 C 116 1130 150 1177 193 1216 C 236 1255 286 1285 344 1307 C 402 1328 464 1339 530 1339 C 594 1339 655 1328 712 1306 C 769 1284 819 1253 862 1211 C 904 1169 938 1118 963 1057 C 988 995 1001 925 1001 846 Z M 711 831 L 711 874 C 711 904 705 931 695 957 C 684 982 670 1004 652 1022 C 634 1040 613 1055 590 1065 C 566 1075 542 1081 518 1081 C 494 1081 472 1076 451 1068 C 429 1059 410 1046 394 1030 C 378 1014 365 994 355 971 C 345 947 340 921 340 893 C 340 865 344 839 354 816 C 363 792 376 772 392 755 C 408 738 428 725 450 716 C 472 706 497 702 524 702 C 542 702 561 704 581 708 C 600 712 618 720 635 730 C 651 740 666 754 680 770 C 693 786 703 807 711 831 Z" unicode="9" />
<glyph horiz-adv-x="455" d="M 397 788 C 397 774 390 758 378 739 C 366 720 351 702 333 684 C 315 666 296 651 277 639 C 257 627 241 621 227 621 C 213 621 196 627 177 639 C 157 651 139 666 121 684 C 103 701 88 719 76 738 C 63 757 57 774 57 788 C 57 801 63 817 76 837 C 88 856 103 875 121 893 C 139 911 157 926 177 939 C 196 951 213 958 227 958 C 241 958 257 951 277 939 C 296 927 315 912 333 894 C 351 876 366 857 378 838 C 390 818 397 802 397 788 Z M 397 141 C 397 127 390 110 378 91 C 366 71 351 53 333 35 C 315 17 296 2 277 -10 C 257 -22 241 -29 227 -29 C 213 -29 196 -22 177 -10 C 157 2 139 17 121 35 C 103 53 88 71 76 91 C 63 110 57 127 57 141 C 57 154 63 170 76 190 C 88 209 103 227 121 245 C 139 263 157 278 177 290 C 196 302 213 309 227 309 C 241 309 257 302 277 290 C 296 278 315 263 333 245 C 351 227 366 209 378 190 C 390 170 397 154 397 141 Z" unicode=":" />
<glyph horiz-adv-x="455" d="M 397 788 C 397 774 390 758 378 739 C 366 720 351 702 333 684 C 315 666 296 651 277 639 C 257 627 241 621 227 621 C 213 621 196 627 177 639 C 157 651 139 666 121 684 C 103 701 88 719 76 738 C 63 757 57 774 57 788 C 57 801 63 817 76 837 C 88 856 103 875 121 893 C 139 911 157 926 177 939 C 196 951 213 958 227 958 C 241 958 257 951 277 939 C 296 927 315 912 333 894 C 351 876 366 857 378 838 C 390 818 397 802 397 788 Z M 397 141 C 397 109 389 72 375 32 C 361 -8 342 -49 319 -90 C 296 -131 270 -171 241 -209 C 211 -247 182 -279 152 -307 L 57 -291 C 74 -271 90 -249 106 -225 C 121 -201 134 -176 146 -151 C 158 -125 168 -100 176 -75 C 184 -49 189 -25 193 -2 C 179 0 165 7 149 18 C 133 29 119 42 105 56 C 91 70 80 85 71 101 C 61 116 57 129 57 141 C 57 155 63 172 76 192 C 88 212 104 230 122 247 C 140 264 158 279 178 291 C 197 303 213 309 227 309 C 239 309 254 303 273 291 C 292 279 311 265 329 248 C 347 231 363 213 377 194 C 390 174 397 157 397 141 Z" unicode=";" />
<glyph horiz-adv-x="926" d="M 858 145 L 68 406 L 68 727 L 858 997 L 858 760 L 260 567 L 858 383 L 858 145 Z" unicode="&#x3C;" />
<glyph horiz-adv-x="926" d="M 858 643 L 68 643 L 68 872 L 858 872 L 858 643 Z M 858 260 L 68 260 L 68 489 L 858 489 L 858 260 Z" unicode="=" />
<glyph horiz-adv-x="926" d="M 858 406 L 68 145 L 68 383 L 666 567 L 68 760 L 68 997 L 858 727 L 858 406 Z" unicode="&#x3E;" />
<glyph horiz-adv-x="823" d="M 762 993 C 762 962 758 933 752 905 C 745 877 734 849 720 821 C 706 793 688 764 666 735 C 644 706 618 675 588 643 C 562 614 544 587 533 561 C 521 535 516 509 516 481 C 516 467 516 451 517 435 C 518 419 520 404 524 391 L 266 442 C 260 462 257 481 255 497 C 253 513 252 530 252 547 C 252 602 262 653 283 699 C 303 745 333 789 371 829 C 397 857 417 882 431 905 C 444 927 451 953 451 983 C 451 993 448 1004 443 1015 C 438 1026 431 1036 421 1045 C 411 1053 400 1060 386 1066 C 372 1072 356 1075 338 1075 C 300 1075 265 1069 232 1057 C 198 1045 164 1028 129 1008 L 68 1262 C 106 1285 149 1304 198 1318 C 247 1332 301 1339 360 1339 C 420 1339 475 1330 525 1314 C 574 1297 616 1273 651 1243 C 686 1213 713 1176 733 1134 C 752 1092 762 1045 762 993 Z M 571 141 C 571 127 564 110 552 91 C 540 71 525 53 507 35 C 489 17 471 2 452 -10 C 432 -22 415 -29 401 -29 C 387 -29 370 -22 351 -10 C 331 2 313 17 295 35 C 277 53 262 71 250 91 C 237 110 231 127 231 141 C 231 154 237 170 250 190 C 262 209 277 227 295 245 C 313 263 331 278 351 290 C 370 302 387 309 401 309 C 415 309 431 302 451 290 C 470 278 489 263 507 245 C 525 227 540 209 552 190 C 564 170 571 154 571 141 Z" unicode="?" />
<glyph horiz-adv-x="1550" d="M 1487 690 C 1487 634 1478 581 1462 531 C 1445 481 1421 437 1390 399 C 1358 361 1320 330 1276 308 C 1231 285 1180 274 1124 274 C 1102 274 1082 276 1062 282 C 1042 287 1025 295 1009 306 C 993 316 979 329 967 345 C 955 361 948 379 944 401 C 932 377 919 357 903 341 C 887 325 869 313 850 304 C 830 294 809 288 787 284 C 765 280 742 279 719 279 C 687 279 657 284 628 294 C 598 304 572 320 549 340 C 526 360 508 384 494 413 C 480 442 473 475 473 512 C 473 544 479 573 491 599 C 503 625 519 648 541 668 C 563 688 588 704 618 716 C 647 728 679 735 715 739 L 860 754 L 860 772 C 860 790 851 806 835 819 C 818 831 792 838 756 838 C 738 838 720 836 702 833 C 684 830 666 826 648 820 C 630 814 612 808 595 801 C 577 793 561 786 547 778 L 506 950 C 522 960 541 970 563 979 C 585 988 608 996 632 1003 C 656 1009 680 1014 705 1018 C 730 1022 754 1024 778 1024 C 825 1024 868 1018 908 1007 C 947 995 981 978 1009 956 C 1037 934 1058 906 1074 873 C 1090 839 1098 801 1098 758 L 1098 500 C 1098 480 1102 466 1110 458 C 1118 450 1128 446 1141 446 C 1161 446 1181 451 1199 463 C 1217 474 1234 490 1248 511 C 1262 531 1273 556 1281 586 C 1289 616 1294 649 1294 686 C 1294 757 1280 822 1252 880 C 1224 938 1187 988 1140 1030 C 1092 1072 1037 1104 975 1127 C 913 1149 847 1161 778 1161 C 708 1161 642 1149 579 1126 C 516 1103 461 1070 413 1026 C 365 982 326 929 298 866 C 270 803 256 732 256 653 C 256 577 269 508 295 446 C 321 384 357 332 402 288 C 447 244 500 211 560 187 C 620 163 684 152 752 152 C 828 152 892 160 946 176 L 928 0 C 906 -7 881 -12 852 -15 C 822 -18 788 -20 750 -20 C 657 -20 569 -4 486 27 C 402 58 329 103 266 162 C 203 220 153 292 116 376 C 79 460 61 554 61 659 C 61 728 70 793 88 854 C 106 915 132 971 165 1021 C 197 1071 236 1116 281 1156 C 325 1195 374 1228 427 1255 C 480 1282 536 1303 596 1317 C 656 1331 716 1339 778 1339 C 840 1339 900 1332 959 1318 C 1018 1304 1074 1284 1126 1258 C 1178 1232 1227 1200 1271 1162 C 1315 1124 1353 1082 1385 1034 C 1417 986 1442 933 1460 875 C 1478 817 1487 756 1487 690 Z M 860 547 L 860 602 L 782 594 C 758 592 739 584 724 570 C 709 556 702 537 702 514 C 702 497 707 482 719 470 C 731 457 746 451 766 451 C 778 451 790 453 802 458 C 813 463 823 470 832 478 C 840 486 847 496 852 508 C 857 520 860 533 860 547 Z" unicode="@" />
<glyph horiz-adv-x="1288" d="M 1268 0 L 952 0 L 844 295 L 428 295 L 319 0 L 20 0 L 535 1317 L 754 1317 L 1268 0 Z M 764 543 L 676 784 C 670 801 663 820 656 841 C 648 862 642 883 637 905 L 633 905 C 627 883 621 862 615 841 C 608 819 602 800 596 784 L 508 543 L 764 543 Z" unicode="A" />
<glyph horiz-adv-x="1102" d="M 1036 408 C 1036 344 1024 287 1001 237 C 977 186 945 143 905 108 C 865 73 817 46 763 28 C 709 9 651 0 590 0 L 106 0 L 106 1307 L 535 1307 C 585 1307 634 1299 680 1283 C 726 1267 766 1244 802 1214 C 837 1184 865 1147 886 1105 C 907 1062 918 1014 918 961 C 918 941 915 921 911 900 C 906 878 899 858 890 838 C 880 818 869 800 855 784 C 841 768 826 755 809 745 C 837 735 865 720 893 700 C 920 679 944 654 965 625 C 986 595 1003 562 1016 525 C 1029 488 1036 449 1036 408 Z M 631 936 C 631 960 627 980 619 997 C 611 1014 600 1028 586 1039 C 572 1050 557 1058 539 1063 C 521 1068 503 1071 485 1071 L 391 1071 L 391 803 L 485 803 C 503 803 521 805 539 810 C 557 815 572 823 586 834 C 600 844 611 858 619 875 C 627 892 631 912 631 936 Z M 731 401 C 731 430 725 455 714 477 C 703 499 689 517 671 531 C 653 545 632 555 609 562 C 585 569 561 573 537 573 L 391 573 L 391 231 L 537 231 C 561 231 584 234 608 241 C 631 247 652 258 670 272 C 688 286 702 303 714 325 C 725 346 731 371 731 401 Z" unicode="B" />
<glyph horiz-adv-x="1198" d="M 1133 1247 L 1073 979 C 1042 997 1003 1013 955 1027 C 907 1040 857 1047 803 1047 C 745 1047 690 1037 640 1019 C 589 1000 545 973 507 939 C 469 904 439 862 417 813 C 395 764 385 709 385 649 C 385 589 395 534 417 485 C 439 436 469 394 508 359 C 546 324 592 297 645 278 C 697 259 755 250 817 250 C 871 250 922 254 969 264 C 1015 274 1056 288 1090 307 L 1063 31 C 1027 14 986 2 938 -6 C 890 -14 832 -18 766 -18 C 709 -18 652 -11 596 1 C 540 13 486 32 434 57 C 382 82 334 113 289 151 C 244 189 205 232 172 282 C 139 332 113 388 94 450 C 75 512 66 579 66 653 C 66 727 75 795 94 857 C 113 919 139 975 173 1025 C 206 1075 245 1118 290 1156 C 334 1194 383 1225 435 1251 C 487 1276 541 1295 597 1308 C 653 1320 710 1327 766 1327 C 847 1327 919 1319 981 1304 C 1043 1288 1093 1269 1133 1247 Z" unicode="C" />
<glyph horiz-adv-x="1313" d="M 1247 653 C 1247 585 1238 522 1221 464 C 1204 405 1180 351 1149 303 C 1118 255 1081 212 1038 174 C 995 136 948 105 896 79 C 844 53 788 33 729 20 C 670 6 609 0 547 0 L 106 0 L 106 1307 L 547 1307 C 609 1307 670 1300 729 1287 C 787 1273 843 1254 895 1228 C 947 1202 994 1170 1037 1133 C 1080 1095 1117 1052 1148 1004 C 1179 955 1203 901 1221 843 C 1238 784 1247 721 1247 653 Z M 928 651 C 928 716 917 773 895 823 C 873 873 844 914 807 947 C 769 980 726 1005 676 1022 C 626 1038 572 1047 516 1047 L 414 1047 L 414 258 L 516 258 C 572 258 625 266 675 282 C 725 298 768 323 806 356 C 844 388 873 429 895 479 C 917 528 928 585 928 651 Z" unicode="D" />
<glyph horiz-adv-x="930" d="M 918 0 L 106 0 L 106 1307 L 856 1307 L 856 1047 L 418 1047 L 418 788 L 778 788 L 778 522 L 418 522 L 418 260 L 918 260 L 918 0 Z" unicode="E" />
<glyph horiz-adv-x="879" d="M 866 1047 L 418 1047 L 418 788 L 788 788 L 788 522 L 418 522 L 418 0 L 106 0 L 106 1307 L 866 1307 L 866 1047 Z" unicode="F" />
<glyph horiz-adv-x="1364" d="M 1274 104 C 1218 60 1150 26 1071 3 C 991 -19 898 -31 791 -31 C 731 -31 671 -24 612 -11 C 552 1 496 20 442 46 C 388 72 339 104 293 143 C 247 181 207 226 173 277 C 139 327 113 384 94 447 C 75 509 66 578 66 653 C 66 728 75 797 95 860 C 114 923 141 980 175 1031 C 209 1082 249 1127 295 1165 C 341 1203 390 1235 444 1261 C 497 1287 553 1306 611 1319 C 669 1332 726 1339 784 1339 C 829 1339 872 1336 914 1330 C 956 1324 995 1317 1031 1307 C 1067 1297 1100 1285 1130 1272 C 1160 1259 1186 1245 1208 1231 L 1149 969 C 1109 995 1059 1017 1001 1035 C 943 1052 881 1061 817 1061 C 757 1061 701 1051 649 1032 C 596 1012 550 985 510 949 C 470 913 439 869 416 817 C 392 765 381 707 381 643 C 381 581 392 526 414 476 C 436 426 466 384 504 349 C 542 313 587 286 639 267 C 690 247 745 238 805 238 C 879 238 939 250 983 276 L 983 483 L 756 483 L 756 727 L 1274 727 L 1274 104 Z" unicode="G" />
<glyph horiz-adv-x="1352" d="M 1245 0 L 928 0 L 928 518 L 424 518 L 424 0 L 106 0 L 106 1307 L 424 1307 L 424 793 L 928 793 L 928 1307 L 1245 1307 L 1245 0 Z" unicode="H" />
<glyph horiz-adv-x="569" d="M 444 0 L 127 0 L 127 1307 L 444 1307 L 444 0 Z" unicode="I" />
<glyph horiz-adv-x="582" d="M 455 274 C 455 184 441 105 415 35 C 389 -35 355 -95 314 -145 C 273 -195 227 -236 177 -267 C 127 -297 77 -318 29 -330 L -172 -127 C -128 -117 -87 -101 -49 -79 C -11 -57 21 -29 49 5 C 77 39 99 81 115 129 C 131 177 139 233 139 297 L 139 1307 L 457 1307 L 455 274 Z" unicode="J" />
<glyph horiz-adv-x="1198" d="M 1186 0 L 807 0 L 426 532 L 424 532 L 424 0 L 106 0 L 106 1307 L 424 1307 L 424 752 L 426 752 L 821 1307 L 1165 1307 L 709 664 L 1186 0 Z" unicode="K" />
<glyph horiz-adv-x="930" d="M 915 0 L 106 0 L 106 1307 L 424 1307 L 424 260 L 915 260 L 915 0 Z" unicode="L" />
<glyph horiz-adv-x="1694" d="M 1628 0 L 1319 0 L 1276 481 C 1272 517 1269 555 1267 597 C 1265 639 1264 681 1264 723 L 1260 723 C 1244 681 1227 639 1207 597 C 1187 554 1167 514 1149 477 L 903 -4 L 776 -4 L 526 477 C 506 514 487 553 469 595 C 450 637 432 679 416 721 L 412 721 C 412 679 411 637 409 596 C 407 554 404 516 401 481 L 360 0 L 66 0 L 178 1307 L 440 1307 L 725 758 C 735 738 745 716 757 692 C 769 668 780 644 792 620 C 804 596 815 571 826 547 C 837 523 847 500 856 479 L 858 479 C 866 500 875 522 885 546 C 895 570 906 594 917 618 C 928 642 939 666 951 690 C 963 714 974 736 985 758 L 1268 1307 L 1513 1307 L 1628 0 Z" unicode="M" />
<glyph horiz-adv-x="1438" d="M 1333 -14 L 1171 -14 L 657 547 C 615 593 572 641 528 691 C 484 741 445 789 410 834 L 406 831 C 408 785 409 738 410 691 C 411 643 412 599 412 557 L 412 0 L 106 0 L 106 1307 L 362 1307 L 813 817 C 829 799 846 780 865 759 C 884 738 903 717 923 695 C 943 673 962 651 980 629 C 998 607 1015 586 1030 567 L 1034 569 C 1032 609 1030 649 1028 690 C 1026 730 1026 771 1026 813 L 1026 1307 L 1333 1307 L 1333 -14 Z" unicode="N" />
<glyph horiz-adv-x="1538" d="M 1473 655 C 1473 585 1464 519 1446 458 C 1428 397 1403 341 1371 291 C 1339 240 1302 195 1258 155 C 1214 115 1165 81 1113 53 C 1061 25 1006 4 948 -9 C 890 -23 830 -31 770 -31 C 710 -31 651 -23 593 -9 C 535 4 479 25 427 53 C 375 80 327 113 283 153 C 239 193 200 238 168 289 C 136 340 111 396 93 458 C 75 519 66 585 66 655 C 66 724 75 789 93 850 C 111 911 136 967 168 1018 C 200 1068 238 1113 282 1153 C 326 1193 374 1226 426 1254 C 478 1282 534 1303 592 1317 C 650 1331 710 1339 770 1339 C 830 1339 889 1331 947 1317 C 1005 1303 1060 1282 1112 1255 C 1164 1227 1212 1194 1256 1154 C 1300 1114 1339 1069 1371 1019 C 1403 968 1428 912 1446 851 C 1464 790 1473 725 1473 655 Z M 1151 651 C 1151 711 1140 767 1119 817 C 1097 867 1069 909 1033 944 C 997 979 957 1006 911 1026 C 865 1045 818 1055 770 1055 C 720 1055 673 1045 627 1026 C 581 1006 541 979 506 944 C 470 909 442 867 421 817 C 399 767 389 711 389 651 C 389 590 399 535 421 485 C 442 435 470 393 506 358 C 541 323 581 296 627 277 C 673 257 720 248 770 248 C 818 248 865 257 911 277 C 957 296 997 323 1033 358 C 1069 393 1097 435 1119 485 C 1140 535 1151 590 1151 651 Z" unicode="O" />
<glyph horiz-adv-x="1081" d="M 1026 911 C 1026 849 1014 794 991 745 C 968 696 937 654 899 620 C 860 586 815 559 764 541 C 713 523 660 514 604 514 L 412 514 L 412 0 L 106 0 L 106 1307 L 604 1307 C 660 1307 713 1297 764 1279 C 814 1261 859 1235 898 1201 C 937 1167 968 1125 991 1076 C 1014 1027 1026 972 1026 911 Z M 721 903 C 721 927 716 949 707 967 C 697 985 685 1001 670 1013 C 655 1025 638 1035 619 1041 C 599 1047 579 1051 559 1051 L 412 1051 L 412 758 L 559 758 C 579 758 599 760 619 766 C 638 772 655 781 670 793 C 685 805 697 820 707 838 C 716 856 721 877 721 903 Z" unicode="P" />
<glyph horiz-adv-x="1538" d="M 1556 -53 L 1393 -301 C 1385 -303 1378 -304 1370 -304 C 1362 -304 1354 -305 1346 -305 C 1281 -305 1220 -296 1163 -279 C 1106 -262 1048 -236 989 -201 C 959 -183 930 -166 901 -149 C 872 -132 844 -116 818 -101 C 791 -85 766 -71 742 -58 C 718 -45 696 -34 678 -25 C 598 -15 522 7 448 43 C 374 78 309 125 253 183 C 196 241 151 309 117 389 C 83 468 66 557 66 655 C 66 724 75 789 93 850 C 111 911 136 967 168 1018 C 200 1068 238 1113 282 1153 C 326 1193 374 1226 426 1254 C 478 1282 534 1303 592 1317 C 650 1331 710 1339 770 1339 C 830 1339 889 1331 947 1317 C 1005 1303 1060 1282 1112 1255 C 1164 1227 1212 1194 1256 1154 C 1300 1114 1339 1069 1371 1019 C 1403 968 1428 912 1446 851 C 1464 790 1473 725 1473 655 C 1473 575 1460 500 1434 432 C 1408 364 1373 303 1331 251 C 1289 198 1241 155 1187 121 C 1133 87 1078 64 1022 53 L 1022 49 C 1035 47 1048 44 1061 41 C 1073 37 1087 33 1101 28 C 1115 22 1131 16 1148 8 C 1165 0 1185 -8 1208 -20 C 1247 -39 1286 -53 1324 -62 C 1362 -71 1396 -76 1425 -76 C 1450 -76 1472 -74 1492 -71 C 1512 -68 1533 -62 1556 -53 Z M 1151 651 C 1151 711 1140 767 1119 817 C 1097 867 1069 909 1033 944 C 997 979 957 1006 911 1026 C 865 1045 818 1055 770 1055 C 720 1055 673 1045 627 1026 C 581 1006 541 979 506 944 C 470 909 442 867 421 817 C 399 767 389 711 389 651 C 389 590 399 535 421 485 C 442 435 470 393 506 358 C 541 323 581 296 627 277 C 673 257 720 248 770 248 C 818 248 865 257 911 277 C 957 296 997 323 1033 358 C 1069 393 1097 435 1119 485 C 1140 535 1151 590 1151 651 Z" unicode="Q" />
<glyph horiz-adv-x="1159" d="M 1221 0 L 846 0 L 496 514 L 412 514 L 412 0 L 106 0 L 106 1307 L 584 1307 C 640 1307 693 1297 744 1279 C 794 1261 839 1235 878 1201 C 917 1167 948 1125 971 1076 C 994 1027 1006 972 1006 911 C 1006 873 1000 837 990 803 C 979 769 964 738 946 710 C 928 682 906 657 882 635 C 858 613 832 596 805 584 L 1221 0 Z M 700 903 C 700 927 695 949 686 967 C 676 985 664 1001 649 1013 C 633 1025 616 1035 596 1041 C 576 1047 557 1051 537 1051 L 412 1051 L 412 758 L 537 758 C 557 758 576 760 596 766 C 616 772 633 781 649 793 C 664 805 676 820 686 838 C 695 856 700 877 700 903 Z" unicode="R" />
<glyph horiz-adv-x="1024" d="M 958 393 C 958 329 947 272 927 222 C 907 171 876 128 836 93 C 796 57 746 30 686 11 C 626 -8 556 -18 477 -18 C 440 -18 404 -15 368 -10 C 332 -5 299 1 267 9 C 235 17 206 27 180 38 C 153 48 130 60 111 72 L 80 369 C 133 331 193 301 259 278 C 325 255 391 244 457 244 C 513 244 557 255 591 279 C 624 303 641 335 641 375 C 641 413 628 443 602 467 C 576 490 533 510 473 526 C 344 561 249 613 189 682 C 128 751 98 836 98 936 C 98 990 107 1040 127 1088 C 147 1136 176 1177 214 1213 C 252 1248 298 1276 354 1296 C 409 1316 472 1327 543 1327 C 580 1327 615 1324 649 1320 C 683 1315 714 1309 742 1302 C 770 1294 795 1286 817 1278 C 839 1269 856 1261 870 1253 L 813 997 C 799 1005 783 1013 764 1021 C 745 1029 725 1036 703 1042 C 681 1048 658 1054 634 1058 C 610 1062 587 1065 565 1065 C 509 1065 468 1054 442 1032 C 416 1010 403 984 403 952 C 403 919 416 893 443 874 C 470 854 509 837 559 823 C 621 805 677 784 727 759 C 776 734 818 704 852 669 C 886 634 913 594 931 548 C 949 502 958 451 958 393 Z" unicode="S" />
<glyph horiz-adv-x="1096" d="M 1081 1047 L 707 1047 L 707 0 L 389 0 L 389 1047 L 14 1047 L 14 1307 L 1081 1307 L 1081 1047 Z" unicode="T" />
<glyph horiz-adv-x="1343" d="M 1239 469 C 1239 391 1224 321 1194 259 C 1164 197 1124 145 1073 103 C 1021 60 961 27 892 5 C 823 -17 750 -29 672 -29 C 594 -29 520 -17 452 4 C 383 26 323 59 272 102 C 220 144 180 196 150 258 C 120 320 106 390 106 469 L 106 1307 L 424 1307 L 424 492 C 424 452 430 417 442 387 C 454 357 471 331 493 310 C 515 289 541 273 572 262 C 603 251 638 246 676 246 C 713 246 747 251 778 262 C 809 273 836 289 858 310 C 880 331 897 357 909 387 C 921 417 928 452 928 492 L 928 1307 L 1239 1307 L 1239 469 Z" unicode="U" />
<glyph horiz-adv-x="1251" d="M 1231 1307 L 758 -8 L 498 -8 L 20 1307 L 346 1307 L 551 731 C 566 687 581 640 596 590 C 610 540 624 490 637 440 L 641 440 C 653 488 667 538 682 589 C 696 639 711 687 727 731 L 932 1307 L 1231 1307 Z" unicode="V" />
<glyph horiz-adv-x="1872" d="M 1851 1307 L 1415 -8 L 1212 -8 L 1022 569 C 1007 612 993 657 979 703 C 965 749 951 802 936 860 L 932 860 C 917 803 902 751 888 703 C 874 655 860 611 846 569 L 655 -8 L 457 -8 L 20 1307 L 330 1307 L 500 778 C 512 738 524 696 537 654 C 549 611 561 565 571 516 L 575 516 C 584 565 595 611 607 653 C 619 695 631 736 645 778 L 817 1307 L 1090 1307 L 1260 780 C 1272 743 1284 702 1296 656 C 1308 610 1319 564 1329 516 L 1333 516 C 1341 563 1352 609 1365 655 C 1377 700 1390 741 1403 778 L 1577 1307 L 1851 1307 Z" unicode="W" />
<glyph horiz-adv-x="1325" d="M 1260 0 L 913 0 L 739 285 C 727 305 713 328 699 353 C 685 378 671 403 659 428 L 655 428 C 643 404 630 380 615 355 C 600 329 586 306 573 285 L 393 0 L 66 0 L 485 664 L 86 1307 L 432 1307 L 596 1042 C 608 1022 621 1001 634 978 C 647 954 659 932 670 911 L 674 911 C 684 931 695 953 709 977 C 722 1001 735 1022 748 1042 L 911 1307 L 1239 1307 L 842 672 L 1260 0 Z" unicode="X" />
<glyph horiz-adv-x="1323" d="M 1303 1307 L 817 584 L 817 0 L 510 0 L 510 578 L 20 1307 L 360 1307 L 575 993 C 590 971 606 946 623 918 C 639 890 655 862 670 836 L 674 836 C 680 848 688 862 696 876 C 704 890 712 904 721 918 C 729 932 738 945 746 958 C 754 971 762 983 770 993 L 985 1307 L 1303 1307 Z" unicode="Y" />
<glyph horiz-adv-x="1116" d="M 1051 0 L 66 0 L 66 78 L 432 737 C 446 761 460 787 476 814 C 491 840 507 867 523 894 C 539 920 555 946 571 972 C 587 997 602 1021 616 1044 L 614 1047 L 98 1047 L 98 1307 L 1028 1307 L 1028 1231 L 659 569 C 645 543 630 517 614 490 C 598 463 583 436 567 410 C 551 383 536 357 521 332 C 505 307 491 284 477 262 L 479 260 L 1051 260 L 1051 0 Z" unicode="Z" />
<glyph horiz-adv-x="655" d="M 641 -459 L 106 -459 L 106 1446 L 641 1446 L 641 1198 L 401 1198 L 401 -211 L 641 -211 L 641 -459 Z" unicode="[" />
<glyph horiz-adv-x="1030" d="M 1118 -250 L 918 -356 L 66 1309 L 266 1415 L 1118 -250 Z" unicode="\" />
<glyph horiz-adv-x="655" d="M 549 -459 L 14 -459 L 14 -211 L 254 -211 L 254 1198 L 14 1198 L 14 1446 L 549 1446 L 549 -459 Z" unicode="]" />
<glyph horiz-adv-x="1024" d="M 883 1092 L 733 1028 C 693 1051 653 1076 614 1102 C 574 1128 538 1156 504 1186 C 470 1156 434 1129 397 1104 C 360 1079 321 1054 281 1030 L 143 1090 C 167 1108 193 1128 219 1152 C 245 1175 272 1200 298 1227 C 324 1253 349 1281 373 1310 C 397 1338 419 1367 440 1397 C 449 1410 460 1421 473 1429 C 486 1437 499 1442 512 1442 C 523 1442 535 1437 548 1429 C 561 1421 573 1410 584 1397 C 604 1367 627 1338 651 1310 C 675 1281 701 1254 727 1228 C 753 1202 779 1177 806 1154 C 832 1130 858 1110 883 1092 Z" unicode="^" />
<glyph horiz-adv-x="1126" d="M 1130 -473 L 0 -473 L 0 -244 L 1130 -244 L 1130 -473 Z" unicode="_" />
<glyph horiz-adv-x="1024" d="M 664 1092 L 514 1028 C 456 1062 402 1097 353 1133 C 304 1169 257 1211 211 1260 C 199 1271 190 1282 184 1294 C 177 1305 174 1315 174 1325 C 174 1334 178 1345 187 1359 C 195 1372 206 1385 219 1397 C 231 1409 244 1420 258 1429 C 271 1437 283 1442 293 1442 C 302 1442 314 1438 328 1430 C 342 1422 354 1411 365 1397 C 385 1367 407 1338 432 1310 C 456 1281 482 1254 508 1228 C 534 1202 560 1177 587 1154 C 613 1130 639 1110 664 1092 Z" unicode="`" />
<glyph horiz-adv-x="967" d="M 956 127 L 748 -41 C 734 -38 719 -33 705 -26 C 691 -19 677 -10 664 0 C 651 9 639 21 629 35 C 618 49 610 64 604 82 C 583 44 552 15 510 -3 C 468 -21 418 -31 362 -31 C 321 -31 282 -24 245 -10 C 207 4 174 24 146 50 C 118 76 95 109 78 147 C 61 185 53 228 53 276 C 53 318 60 357 76 392 C 92 427 114 458 142 484 C 170 510 204 532 243 548 C 282 564 325 575 371 580 L 555 598 L 555 629 C 555 657 543 679 520 696 C 496 712 460 721 410 721 C 364 721 318 714 272 701 C 226 687 186 670 152 649 L 98 877 C 116 889 138 900 163 910 C 188 920 215 928 243 935 C 271 942 301 948 332 952 C 362 956 393 958 424 958 C 485 958 541 951 593 937 C 645 923 689 902 726 874 C 763 846 792 811 813 769 C 833 727 844 679 844 623 L 844 319 C 844 265 853 222 873 192 C 892 162 920 140 956 127 Z M 555 324 L 555 406 L 442 395 C 403 391 375 378 357 355 C 339 332 330 307 330 279 C 330 253 338 232 355 214 C 372 196 395 188 424 188 C 442 188 459 191 475 198 C 491 204 504 214 516 226 C 528 238 537 252 544 269 C 551 285 555 304 555 324 Z" unicode="a" />
<glyph horiz-adv-x="1145" d="M 1090 481 C 1090 409 1078 343 1055 281 C 1032 219 998 165 953 119 C 907 73 851 38 783 12 C 715 -14 635 -27 545 -27 C 495 -27 448 -23 404 -15 C 360 -7 319 2 281 15 C 243 28 208 43 178 60 C 147 76 120 93 98 111 L 98 1458 L 389 1458 L 389 895 C 399 903 412 910 428 918 C 444 925 463 931 484 937 C 504 943 527 947 551 951 C 575 954 599 956 623 956 C 687 956 747 945 804 923 C 860 901 910 869 952 828 C 994 787 1028 737 1053 679 C 1077 620 1090 554 1090 481 Z M 791 461 C 791 493 785 523 774 551 C 763 579 748 604 729 625 C 709 645 686 662 659 674 C 631 686 601 692 569 692 C 547 692 527 689 509 685 C 490 680 473 674 458 667 C 442 660 429 652 417 644 C 405 636 396 628 389 621 L 389 266 C 397 260 406 255 418 250 C 429 244 441 239 455 235 C 468 231 482 227 497 225 C 511 222 526 221 541 221 C 579 221 613 227 644 239 C 675 251 701 268 723 290 C 745 312 761 337 773 366 C 785 395 791 427 791 461 Z" unicode="b" />
<glyph horiz-adv-x="911" d="M 856 879 L 801 629 C 769 648 738 663 706 673 C 674 683 639 688 602 688 C 569 688 538 682 510 671 C 481 659 456 644 435 624 C 414 604 397 580 385 552 C 373 524 367 493 367 459 C 367 425 373 395 385 367 C 397 339 414 314 436 294 C 457 273 482 257 512 246 C 542 234 574 229 608 229 C 647 229 682 233 714 242 C 745 250 777 263 811 281 L 784 25 C 753 10 718 0 680 -8 C 641 -16 600 -20 557 -20 C 491 -20 428 -8 368 13 C 308 35 254 67 208 109 C 162 151 125 201 97 261 C 69 321 55 388 55 463 C 55 539 69 607 97 667 C 125 727 162 777 208 819 C 254 861 307 893 367 915 C 426 937 487 948 551 948 C 613 948 669 942 719 930 C 769 918 814 901 856 879 Z" unicode="c" />
<glyph horiz-adv-x="1151" d="M 1055 0 L 791 0 L 791 115 L 788 115 C 762 67 724 31 674 8 C 624 -15 566 -27 502 -27 C 444 -27 389 -16 335 5 C 281 26 234 57 193 99 C 151 140 118 191 93 252 C 67 313 55 383 55 463 C 55 537 67 605 92 666 C 117 726 151 778 194 821 C 236 864 286 897 343 921 C 400 944 461 956 526 956 C 550 956 575 954 599 950 C 623 946 646 942 667 936 C 688 930 707 923 723 916 C 739 908 752 901 762 893 L 762 1458 L 1055 1458 L 1055 0 Z M 762 317 L 762 608 C 754 618 745 628 734 638 C 722 648 709 657 694 665 C 679 673 662 679 643 684 C 623 689 602 692 580 692 C 547 692 517 686 490 674 C 462 662 439 645 419 624 C 399 603 383 578 372 550 C 361 521 356 490 356 457 C 356 423 361 392 372 364 C 383 335 399 310 419 289 C 439 267 462 251 490 239 C 517 227 547 221 580 221 C 602 221 622 223 641 229 C 659 234 676 241 691 250 C 706 259 720 269 732 281 C 744 293 754 305 762 317 Z" unicode="d" />
<glyph horiz-adv-x="1004" d="M 952 588 C 952 576 951 564 949 550 C 947 536 946 525 944 516 L 811 381 L 356 381 C 360 361 369 342 383 323 C 397 304 416 287 440 271 C 463 255 491 243 523 233 C 555 223 591 219 631 219 C 655 219 679 220 703 224 C 727 227 750 232 772 238 C 794 244 814 252 834 261 C 854 269 871 279 887 289 L 858 31 C 822 12 779 -2 729 -14 C 678 -25 623 -31 563 -31 C 492 -31 426 -19 364 4 C 302 28 248 61 202 105 C 156 149 119 201 93 263 C 66 324 53 393 53 469 C 53 543 65 611 91 671 C 116 731 151 783 195 825 C 239 867 290 900 349 923 C 407 946 470 958 537 958 C 601 958 659 947 711 927 C 762 906 805 879 841 845 C 877 811 904 771 923 727 C 942 682 952 636 952 588 Z M 672 602 C 672 618 668 633 662 649 C 655 665 646 679 634 691 C 622 703 607 713 591 721 C 575 729 557 733 537 733 C 515 733 494 729 474 721 C 454 713 437 702 421 689 C 405 675 391 659 380 641 C 368 622 360 602 356 582 L 670 582 C 670 585 670 588 671 591 C 671 594 672 598 672 602 Z" unicode="e" />
<glyph horiz-adv-x="731" d="M 793 1427 L 737 1190 C 719 1197 699 1203 677 1207 C 655 1211 634 1214 616 1214 C 504 1214 449 1148 449 1016 L 449 928 L 715 928 L 655 682 L 449 682 L 449 0 L 158 0 L 158 682 L 16 682 L 16 928 L 158 928 L 158 1036 C 158 1106 168 1168 190 1221 C 211 1274 240 1318 278 1353 C 315 1388 359 1414 410 1432 C 460 1449 515 1458 573 1458 C 616 1458 657 1455 697 1450 C 737 1445 769 1437 793 1427 Z" unicode="f" />
<glyph horiz-adv-x="985" d="M 948 -139 C 948 -187 937 -231 916 -272 C 895 -312 865 -347 827 -377 C 788 -407 741 -430 687 -447 C 632 -464 571 -473 504 -473 C 436 -473 374 -464 319 -446 C 263 -428 216 -403 177 -372 C 137 -340 107 -303 85 -261 C 63 -219 53 -173 53 -125 C 53 -89 58 -58 69 -30 C 79 -2 94 22 112 43 C 130 64 150 81 173 95 C 196 109 220 119 244 125 L 125 244 C 129 274 142 300 164 324 C 186 348 210 365 238 377 C 220 387 203 401 187 417 C 171 433 156 452 144 473 C 131 494 121 517 113 543 C 105 568 102 595 102 625 C 102 673 110 718 128 759 C 145 800 170 835 203 865 C 235 894 275 917 323 933 C 371 949 425 958 485 958 C 513 958 538 956 560 953 C 582 949 603 945 623 940 C 643 934 665 930 687 928 C 709 925 732 924 756 924 C 781 924 806 926 832 932 C 857 937 880 944 901 954 L 956 725 C 942 717 924 709 904 703 C 883 697 862 694 842 696 C 847 686 852 672 857 654 C 861 636 864 618 864 602 C 864 562 856 525 842 491 C 827 456 806 425 780 398 C 753 371 721 349 684 332 C 646 315 605 305 561 303 C 542 301 527 298 516 294 C 505 289 500 280 500 268 C 500 262 502 257 506 252 C 510 247 516 243 524 240 L 668 188 C 713 172 753 153 788 133 C 823 113 852 90 876 64 C 900 38 918 8 930 -25 C 942 -58 948 -96 948 -139 Z M 604 629 C 604 643 601 657 595 671 C 589 684 580 696 570 706 C 560 716 547 724 533 730 C 518 736 502 739 485 739 C 468 739 452 736 438 730 C 424 724 411 716 401 706 C 390 696 382 684 376 671 C 370 657 367 643 367 629 C 367 613 370 599 376 585 C 382 571 390 560 401 550 C 411 540 424 532 438 526 C 452 520 468 518 485 518 C 501 518 517 520 531 526 C 545 532 558 540 569 550 C 579 560 588 571 594 585 C 600 599 604 613 604 629 Z M 659 -141 C 659 -119 651 -99 635 -79 C 619 -59 597 -45 567 -37 L 457 -6 C 439 -6 422 -10 407 -16 C 391 -22 378 -31 367 -42 C 356 -52 347 -65 341 -80 C 335 -94 332 -110 332 -127 C 332 -143 335 -158 342 -172 C 349 -186 359 -198 373 -209 C 387 -219 404 -228 424 -234 C 444 -240 468 -244 496 -244 C 522 -244 546 -241 566 -235 C 586 -229 603 -222 617 -213 C 631 -203 641 -192 648 -180 C 655 -167 659 -154 659 -141 Z" unicode="g" />
<glyph horiz-adv-x="1075" d="M 985 0 L 684 0 L 684 569 C 684 585 681 601 675 617 C 669 633 660 646 649 658 C 637 669 623 678 605 685 C 587 692 567 696 545 696 C 499 696 464 683 438 658 C 412 633 399 602 399 565 L 399 0 L 98 0 L 98 1458 L 395 1458 L 395 842 L 397 842 C 420 878 453 906 497 926 C 540 946 594 956 659 956 C 710 956 756 949 796 935 C 836 921 871 900 899 874 C 927 848 948 815 963 777 C 977 738 985 694 985 645 L 985 0 Z" unicode="h" />
<glyph horiz-adv-x="504" d="M 414 1217 C 414 1203 408 1187 396 1169 C 384 1150 369 1132 352 1115 C 335 1098 317 1084 299 1072 C 281 1060 265 1055 252 1055 C 238 1055 222 1060 204 1072 C 186 1084 168 1098 151 1115 C 134 1132 120 1150 108 1169 C 96 1187 90 1203 90 1217 C 90 1230 96 1246 108 1264 C 120 1282 134 1300 151 1316 C 168 1332 186 1346 204 1358 C 222 1370 238 1376 252 1376 C 265 1376 281 1370 299 1358 C 317 1346 335 1332 352 1316 C 369 1300 384 1282 396 1264 C 408 1246 414 1230 414 1217 Z M 403 0 L 100 0 L 100 928 L 403 928 L 403 0 Z" unicode="i" />
<glyph horiz-adv-x="504" d="M 414 1217 C 414 1203 408 1187 396 1169 C 384 1150 369 1132 352 1115 C 335 1098 317 1084 299 1072 C 281 1060 265 1055 252 1055 C 238 1055 222 1060 204 1072 C 186 1084 168 1098 151 1115 C 134 1132 120 1150 108 1169 C 96 1187 90 1203 90 1217 C 90 1230 96 1246 108 1264 C 120 1282 134 1300 151 1316 C 168 1332 186 1346 204 1358 C 222 1370 238 1376 252 1376 C 265 1376 281 1370 299 1358 C 317 1346 335 1332 352 1316 C 369 1300 384 1282 396 1264 C 408 1246 414 1230 414 1217 Z M 403 -45 C 403 -103 394 -156 377 -204 C 359 -252 336 -294 308 -330 C 279 -366 246 -397 208 -422 C 170 -447 130 -466 90 -479 L -88 -301 C -60 -291 -34 -279 -11 -265 C 12 -250 32 -232 48 -210 C 64 -188 77 -163 86 -133 C 95 -103 100 -69 100 -29 L 100 928 L 403 928 L 403 -45 Z" unicode="j" />
<glyph horiz-adv-x="1024" d="M 1022 0 L 672 0 L 397 375 L 395 375 L 395 0 L 98 0 L 98 1458 L 395 1458 L 395 551 L 397 551 L 676 928 L 1004 928 L 678 477 L 1022 0 Z" unicode="k" />
<glyph horiz-adv-x="551" d="M 520 207 L 416 -37 C 368 -35 324 -27 285 -13 C 246 0 213 20 185 47 C 157 74 136 108 121 148 C 105 188 98 237 98 293 L 98 1458 L 395 1458 L 395 330 C 395 254 436 213 520 207 Z" unicode="l" />
<glyph horiz-adv-x="1624" d="M 1534 0 L 1233 0 L 1233 569 C 1233 585 1230 601 1226 617 C 1222 633 1214 646 1204 658 C 1194 669 1180 678 1164 685 C 1147 692 1126 696 1102 696 C 1054 696 1018 683 996 658 C 974 633 963 602 963 565 L 963 0 L 662 0 L 662 569 C 662 585 659 601 655 617 C 651 633 643 646 633 658 C 623 669 609 678 592 685 C 575 692 554 696 530 696 C 482 696 446 683 424 658 C 402 633 391 602 391 565 L 391 0 L 90 0 L 90 928 L 369 928 L 369 803 L 371 803 C 389 852 421 890 467 916 C 513 942 572 956 645 956 C 711 956 769 943 817 917 C 865 891 899 854 920 805 C 939 850 974 886 1025 914 C 1075 942 1136 956 1206 956 C 1312 956 1393 929 1449 875 C 1505 821 1534 744 1534 645 L 1534 0 Z" unicode="m" />
<glyph horiz-adv-x="1067" d="M 977 0 L 676 0 L 676 569 C 676 585 673 601 667 617 C 661 633 653 646 642 658 C 630 669 616 678 599 685 C 581 692 561 696 539 696 C 516 696 496 692 478 686 C 460 679 444 670 431 658 C 418 646 408 633 401 617 C 394 601 391 583 391 565 L 391 0 L 90 0 L 90 928 L 367 928 L 367 803 L 369 803 C 387 852 420 890 468 916 C 515 942 576 956 651 956 C 701 956 747 949 787 935 C 827 921 862 900 890 874 C 918 848 939 815 954 777 C 969 738 977 694 977 645 L 977 0 Z" unicode="n" />
<glyph horiz-adv-x="1122" d="M 1067 465 C 1067 391 1053 323 1027 263 C 1000 202 964 150 918 107 C 872 63 819 30 758 6 C 696 -17 631 -29 561 -29 C 491 -29 425 -17 364 6 C 302 30 249 63 203 107 C 157 150 120 202 94 263 C 68 323 55 391 55 465 C 55 539 68 606 94 666 C 120 726 157 778 203 822 C 249 865 302 898 364 922 C 425 946 491 958 561 958 C 631 958 696 946 758 922 C 819 898 872 865 918 822 C 964 778 1000 726 1027 666 C 1053 606 1067 539 1067 465 Z M 770 461 C 770 495 764 526 753 555 C 741 584 726 609 707 630 C 687 650 665 666 640 678 C 615 690 589 696 561 696 C 533 696 506 690 481 678 C 455 666 433 650 414 630 C 395 609 380 584 369 555 C 357 526 352 495 352 461 C 352 427 357 395 369 366 C 380 337 395 312 414 291 C 433 270 455 254 481 242 C 506 230 533 225 561 225 C 589 225 615 230 640 242 C 665 254 687 270 707 291 C 726 312 741 337 753 366 C 764 395 770 427 770 461 Z" unicode="o" />
<glyph horiz-adv-x="1145" d="M 1090 465 C 1090 390 1077 322 1052 262 C 1027 201 993 149 951 107 C 908 64 858 31 801 8 C 743 -15 682 -27 618 -27 C 593 -27 569 -25 545 -21 C 521 -17 498 -13 477 -7 C 456 -1 437 4 421 12 C 405 19 392 27 383 35 L 383 -473 L 90 -473 L 90 928 L 354 928 L 354 813 L 356 813 C 382 860 420 895 470 919 C 520 942 578 954 643 954 C 699 954 754 943 808 922 C 862 900 909 869 951 828 C 993 786 1026 735 1052 675 C 1077 614 1090 544 1090 465 Z M 788 457 C 788 490 782 521 771 550 C 760 578 745 603 725 624 C 705 645 682 662 655 674 C 627 686 597 692 565 692 C 543 692 522 689 504 684 C 485 678 468 671 453 662 C 438 653 425 643 413 631 C 401 619 391 608 383 596 L 383 305 C 390 295 399 285 411 275 C 422 265 435 257 450 249 C 465 241 482 235 501 230 C 520 225 541 223 565 223 C 597 223 627 229 655 241 C 682 253 705 269 725 290 C 745 311 760 336 771 364 C 782 392 788 423 788 457 Z" unicode="p" />
<glyph horiz-adv-x="1139" d="M 1049 -473 L 756 -473 L 756 35 C 746 27 733 19 717 12 C 701 5 684 0 664 -6 C 644 -12 623 -16 600 -20 C 577 -23 554 -25 530 -25 C 460 -25 397 -12 339 11 C 281 35 231 69 189 112 C 147 155 114 206 90 265 C 66 324 55 389 55 459 C 55 529 67 595 91 655 C 115 715 149 768 194 812 C 239 856 294 891 359 916 C 423 941 496 954 578 954 C 607 954 636 951 664 947 C 692 942 718 936 743 929 C 767 922 789 914 809 906 C 829 897 845 889 858 881 L 958 954 L 1049 954 L 1049 -473 Z M 756 295 L 756 639 C 748 645 738 652 726 659 C 714 665 702 671 688 676 C 674 681 659 685 644 689 C 628 692 614 694 600 694 C 564 694 531 687 501 675 C 471 663 446 646 424 625 C 402 603 386 578 374 549 C 362 520 356 489 356 455 C 356 423 361 392 373 364 C 384 336 400 311 420 290 C 440 269 463 253 491 241 C 519 229 549 223 582 223 C 603 223 623 225 641 230 C 659 234 676 240 690 247 C 704 254 717 262 728 270 C 739 278 748 287 756 295 Z" unicode="q" />
<glyph horiz-adv-x="750" d="M 739 932 L 666 608 C 656 613 643 618 625 623 C 607 628 590 631 575 631 C 551 631 527 627 505 620 C 483 613 463 602 446 587 C 429 571 416 551 406 525 C 396 499 391 468 391 432 L 391 0 L 90 0 L 90 928 L 387 928 L 387 721 L 389 721 C 397 757 409 789 426 817 C 442 845 462 868 486 887 C 509 905 535 919 563 929 C 591 939 621 944 653 944 C 667 944 682 943 698 941 C 714 939 727 936 739 932 Z" unicode="r" />
<glyph horiz-adv-x="811" d="M 758 281 C 758 241 750 203 736 167 C 721 131 699 99 669 71 C 639 43 601 21 555 5 C 509 -11 455 -20 393 -20 C 329 -20 273 -14 226 -2 C 178 10 136 25 98 45 L 72 311 C 113 282 159 258 209 239 C 259 220 310 211 362 211 C 390 211 412 217 428 229 C 444 241 453 256 453 274 C 453 293 445 308 431 318 C 416 328 395 338 369 346 C 324 358 284 374 249 392 C 213 410 183 431 159 456 C 135 480 116 508 103 540 C 90 572 84 608 84 649 C 84 694 92 735 110 772 C 127 809 151 841 182 867 C 213 893 250 913 293 927 C 335 941 382 948 432 948 C 460 948 488 946 516 943 C 544 939 570 935 594 930 C 618 924 640 918 660 912 C 679 905 695 899 707 893 L 655 672 C 632 684 604 695 570 706 C 536 717 500 723 463 723 C 438 723 418 717 403 707 C 388 696 381 682 381 664 C 381 646 387 632 400 622 C 413 612 434 603 463 596 C 567 568 643 528 689 476 C 735 423 758 358 758 281 Z" unicode="s" />
<glyph horiz-adv-x="780" d="M 770 928 L 713 682 L 471 682 L 471 338 C 471 298 481 269 502 251 C 523 233 554 225 594 225 C 611 225 625 225 637 227 C 649 229 660 232 672 238 L 645 10 C 630 2 611 -3 587 -7 C 563 -11 536 -14 506 -14 C 454 -14 407 -7 366 6 C 324 19 289 38 261 64 C 232 89 210 120 195 157 C 179 193 172 235 172 281 L 172 682 L 16 682 L 16 928 L 172 928 L 172 1126 L 471 1235 L 471 928 L 770 928 Z" unicode="t" />
<glyph horiz-adv-x="1067" d="M 977 0 L 702 0 L 702 127 L 700 127 C 682 77 648 39 600 13 C 552 -13 490 -27 416 -27 C 365 -27 319 -20 279 -6 C 239 7 205 27 177 54 C 149 80 127 113 112 151 C 97 189 90 233 90 283 L 90 928 L 391 928 L 391 358 C 391 341 394 325 400 310 C 406 294 414 281 426 269 C 437 257 451 248 469 241 C 486 234 506 231 530 231 C 552 231 573 234 591 241 C 609 248 624 258 637 270 C 649 282 659 296 666 312 C 672 328 676 346 676 365 L 676 928 L 977 928 L 977 0 Z" unicode="u" />
<glyph horiz-adv-x="981" d="M 961 928 L 602 -8 L 377 -8 L 20 928 L 311 928 L 442 573 C 451 548 460 520 469 488 C 478 456 486 424 494 393 L 498 393 C 505 423 513 454 523 487 C 532 519 541 548 551 573 L 682 928 L 961 928 Z" unicode="v" />
<glyph horiz-adv-x="1458" d="M 1438 928 L 1114 -8 L 907 -8 L 782 360 C 772 389 763 420 754 452 C 745 484 736 517 727 553 L 723 553 C 715 517 707 483 699 451 C 690 419 681 389 672 362 L 547 -8 L 350 -8 L 27 928 L 301 928 L 416 575 C 424 548 432 519 440 488 C 448 457 455 427 461 397 L 465 397 C 470 426 476 456 484 488 C 492 519 500 548 510 575 L 627 928 L 854 928 L 971 578 C 980 548 988 518 994 488 C 1000 457 1007 427 1014 397 L 1018 397 C 1024 427 1031 457 1039 489 C 1047 520 1055 550 1065 578 L 1182 928 L 1438 928 Z" unicode="w" />
<glyph horiz-adv-x="989" d="M 934 0 L 627 0 L 532 172 C 524 184 517 199 510 215 C 502 231 495 246 489 262 L 485 262 C 479 246 471 231 463 215 C 455 199 447 184 440 172 L 346 0 L 55 0 L 322 465 L 66 928 L 371 928 L 459 772 C 466 760 472 747 478 734 C 484 721 490 707 498 692 L 502 692 C 508 706 514 720 521 733 C 528 745 535 758 543 772 L 631 928 L 922 928 L 670 481 L 934 0 Z" unicode="x" />
<glyph horiz-adv-x="997" d="M 977 928 L 662 92 C 626 -1 590 -80 554 -146 C 518 -211 480 -266 442 -310 C 404 -354 364 -390 324 -417 C 284 -444 242 -466 199 -483 L 14 -299 C 88 -270 154 -227 212 -170 C 269 -112 316 -35 354 63 L 20 928 L 311 928 L 446 567 C 456 540 466 511 476 481 C 486 450 494 418 502 385 L 506 385 C 515 417 525 448 535 480 C 545 511 555 540 565 567 L 700 928 L 977 928 Z" unicode="y" />
<glyph horiz-adv-x="887" d="M 831 0 L 55 0 L 55 57 L 287 473 C 306 507 326 542 347 578 C 368 614 389 648 410 680 L 408 682 L 92 682 L 92 928 L 801 928 L 801 870 L 569 455 C 549 421 530 386 510 352 C 490 318 469 284 446 250 L 449 246 L 831 246 L 831 0 Z" unicode="z" />
<glyph horiz-adv-x="729" d="M 715 -219 L 678 -461 C 600 -461 531 -448 471 -423 C 411 -397 360 -361 319 -314 C 277 -267 246 -210 225 -143 C 203 -75 193 0 193 84 C 193 130 189 174 183 214 C 177 254 167 291 153 325 C 139 359 120 390 98 418 C 75 446 47 470 14 492 C 47 513 75 538 98 566 C 120 594 139 625 153 659 C 167 693 177 730 183 770 C 189 810 193 854 193 901 C 193 984 203 1059 225 1127 C 246 1194 277 1251 318 1299 C 359 1346 410 1382 470 1408 C 530 1433 600 1446 678 1446 L 715 1204 C 674 1204 639 1197 611 1183 C 582 1169 558 1149 540 1125 C 522 1100 508 1071 500 1037 C 491 1003 487 967 487 928 C 487 822 474 734 449 664 C 423 594 384 536 330 492 C 384 448 423 392 449 322 C 474 252 487 163 487 57 C 487 17 491 -18 500 -52 C 508 -86 522 -115 540 -140 C 558 -164 582 -184 611 -198 C 639 -212 674 -219 715 -219 Z" unicode="{" />
<glyph horiz-adv-x="440" d="M 336 -473 L 106 -473 L 106 1458 L 336 1458 L 336 -473 Z" unicode="|" />
<glyph horiz-adv-x="729" d="M 715 492 C 681 470 653 446 631 418 C 608 390 590 360 576 326 C 562 292 552 254 546 214 C 540 174 537 130 537 84 C 537 0 526 -75 505 -143 C 483 -210 452 -267 411 -314 C 370 -361 319 -397 259 -423 C 199 -448 129 -461 51 -461 L 14 -219 C 54 -219 89 -212 118 -198 C 146 -184 170 -164 188 -140 C 206 -115 220 -86 229 -52 C 237 -18 242 17 242 57 C 242 162 254 250 280 320 C 305 390 345 447 399 492 C 345 536 305 593 280 663 C 254 733 242 821 242 928 C 242 967 237 1003 229 1037 C 220 1071 206 1100 188 1125 C 170 1149 146 1169 118 1183 C 89 1197 54 1204 14 1204 L 51 1446 C 129 1446 198 1433 258 1408 C 318 1382 369 1346 411 1299 C 452 1252 483 1195 505 1128 C 526 1060 537 985 537 901 C 537 854 540 810 546 770 C 552 730 562 693 576 659 C 590 625 608 594 631 566 C 653 538 681 513 715 492 Z" unicode="}" />
<glyph horiz-adv-x="821" d="M 756 668 C 748 655 739 640 728 623 C 716 605 704 587 690 569 C 676 551 661 532 645 514 C 629 496 614 479 598 465 C 582 451 567 439 552 431 C 537 422 524 418 512 418 C 496 418 480 422 462 431 C 444 440 426 450 408 461 C 390 472 374 482 358 492 C 342 501 329 506 319 506 C 310 506 300 502 289 494 C 278 486 267 477 256 465 C 244 453 233 441 222 428 C 211 414 201 402 193 391 L 68 446 C 75 458 84 473 96 491 C 107 508 119 526 133 544 C 147 562 161 581 177 599 C 192 617 207 634 223 648 C 239 662 254 674 269 683 C 283 691 297 696 309 696 C 324 696 341 691 359 682 C 377 672 394 662 412 651 C 430 640 446 630 462 621 C 478 612 491 608 502 608 C 510 608 520 611 531 619 C 542 627 553 636 565 648 C 577 659 588 671 599 684 C 610 697 620 709 629 721 L 756 668 Z" unicode="~" />
<glyph horiz-adv-x="231" d="" unicode="" />
<glyph horiz-adv-x="551" d="M 436 1167 C 436 1153 429 1137 417 1118 C 405 1099 390 1081 372 1063 C 354 1045 335 1030 316 1018 C 296 1005 280 999 266 999 C 252 999 235 1005 216 1018 C 196 1030 178 1045 160 1063 C 142 1081 127 1099 115 1118 C 102 1137 96 1153 96 1167 C 96 1181 102 1197 115 1217 C 127 1236 142 1255 160 1273 C 178 1291 196 1306 216 1318 C 235 1330 252 1337 266 1337 C 280 1337 296 1330 316 1318 C 335 1306 354 1291 372 1273 C 390 1255 405 1236 417 1217 C 429 1197 436 1181 436 1167 Z M 438 0 L 100 0 L 141 913 L 399 860 L 438 0 Z" unicode="" />
<glyph horiz-adv-x="911" d="M 637 0 L 481 0 L 481 174 C 423 182 369 198 318 224 C 266 250 221 283 182 324 C 143 365 112 413 89 468 C 66 522 55 583 55 651 C 55 719 66 780 90 836 C 113 892 144 940 183 981 C 222 1022 267 1055 319 1081 C 371 1106 425 1122 481 1130 L 481 1307 L 637 1307 L 637 1130 C 721 1122 794 1100 856 1065 L 801 817 C 769 836 738 850 706 860 C 674 869 639 874 602 874 C 569 874 538 868 510 857 C 481 846 456 831 435 811 C 414 791 397 767 385 739 C 373 711 367 681 367 647 C 367 613 373 583 385 555 C 397 527 414 502 436 482 C 458 462 483 446 513 435 C 543 423 575 418 610 418 C 649 418 684 422 715 430 C 745 438 777 450 811 467 L 784 213 C 763 203 740 194 716 187 C 691 180 665 175 637 172 L 637 0 Z" unicode="" />
<glyph horiz-adv-x="942" d="M 877 213 L 825 -29 C 790 -13 744 0 688 11 C 632 23 570 29 502 29 C 468 29 436 27 405 24 C 374 21 345 17 317 12 C 289 6 264 0 240 -6 C 216 -13 196 -21 178 -29 L 57 147 C 72 168 86 191 99 215 C 111 239 122 265 131 294 C 139 322 146 354 151 388 C 155 422 158 461 158 504 L 158 575 L 16 575 L 16 733 L 158 733 L 158 893 C 158 967 169 1031 191 1086 C 213 1141 244 1187 283 1223 C 322 1259 368 1287 422 1305 C 476 1323 534 1333 598 1333 C 643 1333 686 1330 726 1324 C 766 1318 798 1310 823 1300 L 772 1063 C 753 1071 731 1077 706 1082 C 680 1087 657 1090 637 1090 C 577 1090 531 1072 501 1037 C 470 1002 455 949 455 879 L 455 733 L 680 733 L 645 575 L 455 575 L 455 502 C 455 476 453 451 450 426 C 446 400 442 376 436 354 C 430 331 422 310 414 291 C 406 272 397 256 387 244 C 397 247 410 250 424 253 C 438 255 454 258 470 260 C 486 262 502 263 519 264 C 536 265 553 266 569 266 C 623 266 677 261 732 252 C 787 242 835 229 877 213 Z" unicode="" />
<glyph horiz-adv-x="1152" d="M 1056 392 L 940 284 L 740 500 C 692 468 636 452 572 452 C 510 452 456 468 408 500 L 208 284 L 92 392 L 300 608 C 281 634 268 660 262 686 C 255 711 252 742 252 780 C 252 812 255 842 262 870 C 268 898 281 925 300 952 L 92 1168 L 208 1276 L 408 1060 C 456 1092 510 1108 572 1108 C 636 1108 692 1092 740 1060 L 944 1276 L 1060 1156 L 852 952 C 870 925 883 898 890 872 C 896 845 900 814 900 780 C 900 716 882 658 848 608 L 1056 392 Z M 748 780 C 748 833 731 876 698 910 C 664 943 622 960 572 960 C 521 960 480 943 448 910 C 416 876 400 833 400 780 C 400 726 416 684 450 652 C 483 620 524 604 572 604 C 625 604 668 620 700 652 C 732 684 748 726 748 780 Z" unicode="" />
<glyph horiz-adv-x="1108" d="M 1087 1307 L 752 637 L 1004 637 L 1004 481 L 702 481 L 702 0 L 408 0 L 408 481 L 104 481 L 104 637 L 354 637 L 20 1307 L 328 1307 L 492 973 C 503 950 515 923 527 892 C 539 860 551 831 561 805 L 565 805 C 575 831 587 860 601 892 C 615 923 627 950 639 973 L 801 1307 L 1087 1307 Z" unicode="" />
<glyph horiz-adv-x="471" d="M 350 614 L 121 614 L 121 1458 L 350 1458 L 350 614 Z M 350 -473 L 121 -473 L 121 371 L 350 371 L 350 -473 Z" unicode="" />
<glyph horiz-adv-x="1026" d="M 920 -84 C 920 -138 910 -188 890 -236 C 870 -283 841 -324 803 -359 C 765 -393 718 -421 664 -441 C 610 -461 549 -471 481 -471 C 442 -471 406 -468 372 -464 C 338 -460 306 -454 278 -448 C 250 -441 224 -433 201 -425 C 177 -416 157 -407 141 -399 L 197 -143 C 231 -161 269 -177 313 -190 C 357 -202 405 -209 457 -209 C 485 -209 508 -206 528 -200 C 548 -194 564 -185 576 -175 C 588 -165 597 -153 603 -139 C 609 -125 612 -111 612 -96 C 612 -86 609 -74 604 -60 C 599 -45 592 -33 582 -23 L 121 424 L 186 717 C 159 751 139 788 126 827 C 112 866 106 906 106 948 C 106 1002 116 1052 136 1100 C 156 1147 185 1188 223 1223 C 261 1258 307 1286 361 1306 C 415 1326 477 1337 545 1337 C 583 1337 620 1334 654 1330 C 688 1326 719 1320 747 1313 C 775 1306 801 1298 824 1290 C 847 1281 867 1272 885 1264 L 829 1008 C 795 1026 756 1041 712 1055 C 668 1068 621 1075 569 1075 C 541 1075 517 1072 497 1066 C 477 1060 461 1051 449 1041 C 437 1030 428 1018 422 1004 C 416 990 414 976 414 961 C 414 951 416 939 421 925 C 426 911 434 899 444 889 L 905 440 L 838 147 C 864 112 885 75 899 36 C 913 -2 920 -42 920 -84 Z M 727 297 L 326 686 L 299 567 L 698 178 L 727 297 Z" unicode="" />
<glyph horiz-adv-x="1024" d="M 831 1159 C 831 1149 826 1136 816 1121 C 806 1105 794 1090 780 1076 C 766 1062 751 1049 736 1039 C 720 1029 707 1024 696 1024 C 685 1024 672 1029 656 1039 C 640 1049 625 1061 611 1075 C 597 1089 584 1104 574 1120 C 564 1135 559 1148 559 1159 C 559 1169 564 1182 574 1198 C 584 1214 596 1229 610 1243 C 624 1257 639 1270 655 1280 C 671 1290 684 1296 696 1296 C 706 1296 719 1291 735 1281 C 750 1271 765 1258 779 1244 C 793 1230 806 1215 816 1199 C 826 1183 831 1170 831 1159 Z M 465 1159 C 465 1149 460 1136 450 1121 C 440 1105 427 1090 413 1076 C 399 1062 384 1049 368 1039 C 352 1029 339 1024 328 1024 C 318 1024 305 1029 290 1039 C 274 1049 259 1061 245 1075 C 231 1089 218 1104 208 1120 C 198 1135 193 1148 193 1159 C 193 1169 198 1182 208 1198 C 218 1214 230 1229 244 1243 C 258 1257 273 1270 289 1280 C 304 1290 317 1296 328 1296 C 338 1296 351 1291 367 1281 C 383 1271 398 1258 412 1244 C 426 1230 439 1215 449 1199 C 459 1183 465 1170 465 1159 Z" unicode="" />
<glyph horiz-adv-x="1229" d="M 1163 512 C 1163 432 1148 359 1120 293 C 1092 227 1053 170 1004 122 C 954 74 896 36 829 9 C 762 -17 690 -31 614 -31 C 537 -31 465 -17 399 9 C 332 35 274 73 225 121 C 175 169 136 226 108 292 C 80 358 66 432 66 512 C 66 592 80 666 108 733 C 136 799 175 857 225 905 C 274 953 332 990 399 1017 C 465 1043 537 1057 614 1057 C 690 1057 762 1043 829 1017 C 896 990 954 953 1004 905 C 1053 857 1092 799 1120 733 C 1148 666 1163 592 1163 512 Z M 1018 512 C 1018 570 1008 624 988 674 C 968 724 941 767 905 804 C 869 841 827 870 777 892 C 727 913 673 924 614 924 C 554 924 499 913 450 892 C 400 871 358 842 323 805 C 287 768 260 724 240 674 C 220 624 211 570 211 512 C 211 454 220 400 240 350 C 259 300 286 257 322 220 C 357 183 399 154 449 133 C 499 112 554 102 614 102 C 673 102 727 112 777 133 C 827 154 869 183 905 220 C 941 257 968 300 988 350 C 1008 400 1018 454 1018 512 Z M 819 758 L 782 596 C 768 606 750 614 729 622 C 707 629 686 633 666 633 C 630 633 601 621 579 599 C 556 576 545 547 545 512 C 545 476 556 447 580 425 C 603 402 634 391 672 391 C 692 391 712 393 731 398 C 750 402 770 410 791 422 L 772 256 C 753 246 733 239 711 234 C 689 229 665 227 641 227 C 602 227 565 233 529 247 C 493 260 462 279 434 304 C 406 328 384 358 368 394 C 352 429 344 469 344 514 C 344 558 352 599 369 635 C 385 671 407 701 435 726 C 462 750 493 769 529 783 C 565 796 601 803 639 803 C 675 803 708 799 739 791 C 769 783 796 772 819 758 Z" unicode="" />
<glyph horiz-adv-x="801" d="M 784 682 L 612 543 C 589 548 567 558 545 573 C 523 587 507 607 496 633 C 478 605 453 584 420 571 C 387 557 349 551 305 551 C 271 551 239 556 209 568 C 179 579 152 595 129 617 C 105 638 87 664 73 695 C 59 725 53 760 53 799 C 53 833 59 864 72 892 C 85 920 103 945 126 966 C 149 986 176 1003 208 1016 C 240 1028 274 1036 311 1040 L 455 1055 L 455 1075 C 455 1095 446 1112 428 1125 C 410 1138 381 1145 342 1145 C 306 1145 269 1140 232 1130 C 194 1120 161 1105 133 1087 L 88 1274 C 104 1284 122 1293 142 1301 C 162 1309 184 1316 207 1322 C 230 1327 254 1331 278 1334 C 302 1337 327 1339 352 1339 C 402 1339 447 1333 489 1322 C 530 1310 565 1293 595 1271 C 625 1249 648 1221 665 1188 C 681 1154 690 1115 690 1071 L 690 831 C 690 789 698 756 714 733 C 730 710 753 693 784 682 Z M 455 836 L 455 897 L 360 889 C 334 887 315 876 302 858 C 289 840 283 820 283 799 C 283 779 288 762 300 748 C 311 734 327 727 348 727 C 360 727 373 729 386 734 C 398 739 410 746 420 756 C 430 766 439 777 445 791 C 451 804 455 819 455 836 Z M 541 293 C 541 282 535 269 525 253 C 515 237 502 221 488 206 C 473 191 458 178 442 168 C 426 157 412 152 401 152 C 390 152 377 157 361 168 C 345 178 329 191 314 206 C 299 221 286 237 276 253 C 265 269 260 282 260 293 C 260 304 265 318 276 334 C 286 350 299 365 314 380 C 329 395 345 408 361 418 C 377 428 390 434 401 434 C 412 434 426 428 442 418 C 458 408 473 395 488 380 C 502 365 515 350 525 334 C 535 318 541 304 541 293 Z" unicode="" />
<glyph horiz-adv-x="881" d="M 825 199 L 786 113 C 768 135 749 159 727 184 C 705 209 682 234 657 259 C 632 283 606 307 579 331 C 552 354 525 375 498 395 C 484 404 474 415 466 427 C 458 439 455 451 455 463 C 455 474 459 486 467 499 C 475 511 485 522 498 532 C 525 552 552 573 579 596 C 606 619 632 643 657 668 C 681 692 704 717 726 742 C 748 767 768 791 786 815 L 825 727 C 806 679 787 633 768 590 C 749 546 727 504 702 463 C 726 421 747 379 767 336 C 787 292 806 247 825 199 Z M 391 199 L 354 113 C 336 135 317 159 295 184 C 273 209 250 234 225 259 C 200 283 174 307 147 331 C 120 354 93 375 66 395 C 52 404 41 415 33 427 C 24 439 20 451 20 463 C 20 474 24 486 33 499 C 42 511 53 522 66 532 C 93 552 120 573 147 596 C 174 619 200 643 225 668 C 249 692 272 717 294 742 C 316 767 336 791 354 815 L 391 727 C 372 679 353 633 335 590 C 316 546 294 504 270 463 C 293 421 314 379 334 336 C 353 292 372 247 391 199 Z" unicode="" />
<glyph horiz-adv-x="1059" d="M 981 238 L 741 238 L 741 451 L 59 451 L 59 680 L 981 680 L 981 238 Z" unicode="" />
<glyph horiz-adv-x="672" d="M 604 451 L 68 451 L 68 680 L 604 680 L 604 451 Z" unicode="" />
<glyph horiz-adv-x="944" d="M 891 924 C 891 864 880 808 859 757 C 837 706 808 662 770 625 C 732 588 688 559 637 539 C 586 518 531 508 473 508 C 413 508 358 518 307 539 C 256 559 212 588 174 625 C 136 662 107 706 85 757 C 63 808 53 864 53 924 C 53 984 63 1039 85 1090 C 107 1140 136 1184 174 1221 C 212 1258 256 1287 307 1308 C 358 1328 413 1339 473 1339 C 531 1339 586 1328 637 1308 C 688 1287 732 1258 770 1221 C 808 1184 837 1140 859 1090 C 880 1039 891 984 891 924 Z M 793 924 C 793 970 784 1013 768 1053 C 752 1093 729 1127 701 1156 C 672 1184 638 1207 599 1223 C 560 1239 518 1247 473 1247 C 427 1247 384 1239 345 1223 C 305 1207 271 1184 242 1156 C 213 1127 190 1093 174 1053 C 158 1013 150 970 150 924 C 150 877 158 834 174 794 C 190 754 213 720 242 692 C 271 663 305 640 345 624 C 384 608 427 600 473 600 C 518 600 560 608 599 624 C 638 640 672 663 701 692 C 729 720 752 754 768 794 C 784 834 793 877 793 924 Z M 686 737 L 586 680 L 465 858 L 432 858 L 432 684 L 319 684 L 319 1163 L 475 1163 C 495 1163 516 1159 536 1153 C 556 1146 575 1136 591 1123 C 607 1110 620 1094 630 1075 C 640 1056 645 1034 645 1010 C 645 984 638 960 624 939 C 610 917 594 901 575 889 L 686 737 Z M 526 1010 C 526 1029 520 1043 508 1053 C 496 1062 481 1067 465 1067 L 432 1067 L 432 954 L 465 954 C 481 954 496 958 508 968 C 520 977 526 991 526 1010 Z" unicode="" />
<glyph horiz-adv-x="1024" d="M 731 1053 L 303 1053 L 303 1231 L 731 1231 L 731 1053 Z" unicode="" />
<glyph horiz-adv-x="627" d="M 571 1083 C 571 1048 564 1015 550 984 C 536 953 518 926 495 903 C 471 880 444 862 413 849 C 381 835 348 829 313 829 C 278 829 245 835 214 849 C 183 862 156 880 133 903 C 109 926 91 953 77 984 C 63 1014 57 1047 57 1083 C 57 1117 63 1150 77 1182 C 90 1213 108 1240 132 1263 C 155 1286 182 1304 213 1318 C 244 1332 277 1339 313 1339 C 347 1339 380 1332 412 1319 C 443 1305 470 1287 494 1264 C 518 1241 536 1214 550 1183 C 564 1151 571 1118 571 1083 Z M 399 1083 C 399 1111 391 1134 375 1152 C 359 1170 339 1180 313 1180 C 287 1180 267 1170 251 1152 C 235 1134 227 1111 227 1083 C 227 1055 235 1032 251 1015 C 267 997 287 989 313 989 C 339 989 359 997 375 1015 C 391 1032 399 1055 399 1083 Z" unicode="" />
<glyph horiz-adv-x="1536" d="M 672 352 L 672 764 L 200 764 L 200 936 L 672 936 L 672 1352 L 864 1352 L 864 936 L 1340 936 L 1340 764 L 864 764 L 864 352 L 672 352 Z M 204 24 L 204 216 L 1336 216 L 1336 24 L 204 24 Z" unicode="" />
<glyph horiz-adv-x="684" d="M 606 502 L 45 502 L 45 557 C 94 602 139 647 179 692 C 219 737 253 780 281 821 C 309 862 330 900 346 936 C 361 971 369 1002 369 1030 C 369 1070 356 1101 332 1125 C 308 1149 275 1161 233 1161 C 202 1161 174 1157 149 1149 C 124 1141 101 1130 80 1118 L 43 1278 C 66 1292 96 1304 134 1314 C 171 1324 212 1329 258 1329 C 306 1329 348 1322 386 1310 C 424 1297 456 1279 483 1255 C 509 1231 530 1201 544 1166 C 558 1131 565 1091 565 1047 C 565 988 546 926 510 862 C 474 798 422 732 356 664 L 606 664 L 606 502 Z" unicode="" />
<glyph horiz-adv-x="616" d="M 563 756 C 563 714 555 676 540 643 C 524 610 503 582 475 559 C 447 536 414 519 375 507 C 336 495 293 489 246 489 C 221 489 193 491 162 497 C 131 503 104 510 82 520 L 66 692 C 87 680 110 671 134 664 C 158 656 183 653 209 653 C 227 653 245 655 263 659 C 280 663 295 670 309 680 C 322 689 332 700 340 714 C 348 728 352 744 352 764 C 352 778 348 792 342 805 C 335 818 326 829 315 839 C 303 848 290 855 275 861 C 259 867 243 870 227 870 C 223 870 220 870 217 870 C 213 870 208 869 201 868 L 170 1008 C 188 1011 205 1016 221 1022 C 237 1028 250 1036 262 1044 C 273 1052 282 1061 289 1071 C 295 1081 299 1091 299 1102 C 299 1121 291 1137 276 1149 C 261 1161 242 1167 219 1167 C 197 1167 177 1164 159 1158 C 140 1152 120 1144 100 1133 L 63 1286 C 87 1298 114 1309 145 1317 C 175 1325 208 1329 244 1329 C 282 1329 316 1324 348 1314 C 380 1304 407 1291 429 1274 C 451 1257 469 1236 481 1212 C 493 1188 500 1161 500 1133 C 500 1113 496 1095 490 1079 C 483 1063 474 1048 464 1035 C 453 1022 441 1011 428 1002 C 414 992 401 985 387 981 C 409 974 430 964 451 951 C 472 937 491 921 508 902 C 524 883 538 861 548 837 C 558 812 563 785 563 756 Z" unicode="" />
<glyph horiz-adv-x="1024" d="M 848 1327 C 848 1319 845 1310 839 1299 C 833 1288 824 1277 813 1266 C 767 1217 718 1174 668 1137 C 617 1099 562 1063 504 1028 L 367 1087 C 391 1106 417 1128 444 1152 C 470 1176 496 1201 522 1228 C 548 1255 573 1283 597 1312 C 621 1340 643 1369 664 1399 C 674 1413 686 1423 700 1431 C 714 1438 725 1442 733 1442 C 742 1442 753 1437 766 1429 C 779 1420 792 1409 804 1397 C 816 1385 826 1372 835 1359 C 843 1346 848 1335 848 1327 Z" unicode="" />
<glyph horiz-adv-x="1408" d="M 252 -424 C 214 -424 186 -413 168 -392 C 149 -370 140 -333 140 -280 C 140 -226 141 -168 144 -106 C 146 -43 150 25 156 100 C 161 166 165 218 168 256 C 170 293 172 317 172 328 C 174 341 176 350 176 356 C 176 361 176 365 176 368 L 176 1176 L 368 1176 L 368 320 C 368 258 395 210 450 176 C 504 141 564 124 628 124 C 716 124 792 146 858 190 C 923 234 973 297 1008 380 L 1008 1176 L 1200 1176 L 1200 308 L 1220 0 L 1056 0 L 1020 176 C 974 104 913 50 836 14 C 758 -22 670 -40 572 -40 C 537 -40 494 -31 444 -14 C 393 3 353 28 324 60 C 324 1 333 -56 352 -112 C 370 -168 380 -218 380 -264 C 380 -370 337 -424 252 -424 Z" unicode="" />
<glyph horiz-adv-x="1032" d="M 1020 1067 L 862 1067 L 862 -49 C 862 -107 853 -160 836 -208 C 818 -255 795 -297 766 -333 C 736 -369 703 -400 665 -425 C 627 -449 587 -468 547 -481 L 360 -295 C 388 -287 414 -275 438 -261 C 462 -247 483 -229 501 -207 C 518 -185 532 -160 542 -132 C 552 -103 557 -70 557 -33 L 557 418 L 543 418 C 480 418 419 428 361 449 C 302 469 250 499 205 538 C 159 577 123 624 96 679 C 68 734 55 796 55 866 C 55 936 68 998 96 1054 C 123 1110 159 1157 205 1196 C 250 1235 302 1265 361 1286 C 419 1306 480 1317 543 1317 L 1020 1317 L 1020 1067 Z" unicode="" />
<glyph horiz-adv-x="455" d="M 397 555 C 397 541 390 524 378 505 C 366 485 351 467 333 449 C 315 431 296 416 277 404 C 257 391 241 385 227 385 C 213 385 196 391 177 404 C 157 416 139 431 121 449 C 103 467 88 485 76 505 C 63 524 57 541 57 555 C 57 568 63 584 76 603 C 88 622 103 640 121 658 C 139 676 157 691 177 704 C 196 716 213 723 227 723 C 241 723 257 716 277 704 C 296 691 315 676 333 658 C 351 640 366 622 378 603 C 390 584 397 568 397 555 Z" unicode="" />
<glyph horiz-adv-x="1024" d="M 674 -268 C 674 -304 667 -336 653 -364 C 639 -391 621 -414 599 -432 C 577 -450 551 -464 523 -473 C 495 -482 466 -487 436 -487 C 405 -487 375 -482 345 -473 C 315 -463 291 -452 272 -440 L 301 -311 C 317 -322 337 -331 360 -339 C 382 -346 405 -350 428 -350 C 452 -350 472 -342 488 -327 C 504 -312 512 -293 512 -270 C 512 -258 509 -247 505 -238 C 500 -228 494 -220 488 -214 C 481 -208 474 -203 466 -200 C 458 -196 450 -195 444 -195 C 415 -195 394 -186 380 -170 C 366 -154 362 -132 369 -104 L 393 0 L 487 0 L 475 -53 C 499 -54 523 -60 547 -71 C 571 -81 592 -96 611 -115 C 629 -134 644 -157 656 -183 C 668 -209 674 -237 674 -268 Z" unicode="" />
<glyph horiz-adv-x="508" d="M 387 502 L 195 502 L 195 1137 L 45 1124 L 86 1300 L 387 1329 L 387 502 Z" unicode="" />
<glyph horiz-adv-x="920" d="M 866 946 C 866 886 855 832 834 784 C 813 735 784 693 748 658 C 711 623 668 596 619 577 C 569 558 517 549 461 549 C 403 549 350 558 301 577 C 251 596 208 623 171 658 C 134 693 105 735 84 784 C 63 832 53 886 53 946 C 53 1005 63 1059 84 1107 C 105 1155 134 1197 171 1231 C 208 1265 251 1292 301 1311 C 350 1329 403 1339 461 1339 C 517 1339 569 1329 619 1311 C 668 1292 711 1265 748 1231 C 784 1197 813 1155 834 1107 C 855 1059 866 1005 866 946 Z M 612 942 C 612 967 608 990 600 1012 C 592 1034 581 1053 567 1069 C 553 1085 537 1097 519 1106 C 501 1115 481 1120 461 1120 C 440 1120 420 1115 402 1106 C 383 1097 367 1085 353 1069 C 339 1053 327 1034 319 1012 C 311 990 307 967 307 942 C 307 916 311 893 319 872 C 327 850 339 832 353 816 C 367 800 383 788 402 779 C 420 770 440 766 461 766 C 481 766 501 770 519 779 C 537 788 553 800 567 816 C 581 832 592 850 600 872 C 608 893 612 916 612 942 Z M 600 293 C 600 282 594 269 584 253 C 574 237 561 221 546 206 C 531 191 516 178 500 168 C 484 157 470 152 459 152 C 448 152 435 157 420 168 C 404 178 389 191 375 206 C 361 221 349 237 339 253 C 329 269 324 282 324 293 C 324 304 329 318 339 334 C 349 350 361 365 375 380 C 389 395 404 408 420 418 C 435 428 448 434 459 434 C 470 434 484 428 500 418 C 516 408 531 395 546 380 C 561 365 574 350 584 334 C 594 318 600 304 600 293 Z" unicode="" />
<glyph horiz-adv-x="881" d="M 860 463 C 860 451 856 439 848 427 C 840 415 830 404 817 395 C 789 375 762 354 735 331 C 708 308 682 284 657 260 C 632 235 609 210 587 185 C 565 160 545 136 528 113 L 489 199 C 506 247 525 292 545 336 C 565 379 587 421 612 463 C 587 504 565 546 546 590 C 526 633 507 679 489 727 L 528 815 C 545 791 565 767 587 743 C 609 718 632 693 657 669 C 682 644 708 620 735 597 C 762 573 789 552 817 532 C 829 522 840 511 848 499 C 856 486 860 474 860 463 Z M 428 463 C 428 451 423 439 415 427 C 407 415 396 404 383 395 C 355 375 327 354 300 331 C 273 308 247 284 223 260 C 198 235 175 210 153 185 C 131 160 111 136 94 113 L 57 199 C 74 247 92 292 112 336 C 131 379 153 421 178 463 C 153 504 131 546 113 590 C 94 633 75 679 57 727 L 94 815 C 111 791 131 767 153 743 C 175 718 198 693 223 669 C 247 644 273 620 300 597 C 327 573 355 552 383 532 C 395 522 406 511 415 499 C 423 486 428 474 428 463 Z" unicode="" />
<glyph horiz-adv-x="1503" d="M 1444 217 L 1348 217 L 1348 0 L 1153 0 L 1153 217 L 815 217 L 786 362 L 1151 813 L 1348 813 L 1348 367 L 1444 367 L 1444 217 Z M 1161 604 L 1157 606 C 1149 590 1141 576 1132 562 C 1123 548 1114 534 1104 522 L 979 367 L 1153 367 L 1153 524 C 1153 537 1153 550 1154 563 C 1155 575 1157 589 1161 604 Z M 1288 1245 L 258 -29 L 141 66 L 1171 1337 L 1288 1245 Z M 387 502 L 195 502 L 195 1137 L 45 1124 L 86 1300 L 387 1329 L 387 502 Z" unicode="" />
<glyph horiz-adv-x="1628" d="M 1563 0 L 1001 0 L 1001 55 C 1050 101 1095 146 1135 191 C 1175 235 1209 278 1237 319 C 1265 360 1286 398 1302 434 C 1317 469 1325 500 1325 528 C 1325 568 1312 599 1288 623 C 1263 647 1230 659 1188 659 C 1156 659 1128 655 1103 647 C 1078 639 1055 628 1034 616 L 999 776 C 1023 790 1053 802 1089 812 C 1125 822 1166 827 1212 827 C 1260 827 1303 820 1341 808 C 1379 795 1411 777 1437 753 C 1463 729 1484 699 1498 664 C 1512 629 1520 589 1520 545 C 1520 486 1502 424 1466 360 C 1430 296 1379 230 1313 162 L 1563 162 L 1563 0 Z M 1288 1245 L 258 -29 L 141 66 L 1171 1337 L 1288 1245 Z M 387 502 L 195 502 L 195 1137 L 45 1124 L 86 1300 L 387 1329 L 387 502 Z" unicode="" />
<glyph horiz-adv-x="1561" d="M 1495 201 L 1401 201 L 1401 0 L 1214 0 L 1214 201 L 895 201 L 860 350 L 1223 813 L 1401 813 L 1401 362 L 1495 362 L 1495 201 Z M 1221 575 L 1217 580 C 1209 566 1202 553 1194 540 C 1186 526 1177 514 1167 502 L 1055 360 L 1214 360 L 1214 504 C 1214 516 1214 527 1216 539 C 1217 551 1219 563 1221 575 Z M 1358 1245 L 330 -29 L 211 66 L 1243 1337 L 1358 1245 Z M 563 756 C 563 714 555 676 540 643 C 524 610 503 582 475 559 C 447 536 414 519 375 507 C 336 495 293 489 246 489 C 221 489 193 491 162 497 C 131 503 104 510 82 520 L 66 692 C 87 680 110 671 134 664 C 158 656 183 653 209 653 C 227 653 245 655 263 659 C 280 663 295 670 309 680 C 322 689 332 700 340 714 C 348 728 352 744 352 764 C 352 778 348 792 342 805 C 335 818 326 829 315 839 C 303 848 290 855 275 861 C 259 867 243 870 227 870 C 223 870 220 870 217 870 C 213 870 208 869 201 868 L 170 1008 C 188 1011 205 1016 221 1022 C 237 1028 250 1036 262 1044 C 273 1052 282 1061 289 1071 C 295 1081 299 1091 299 1102 C 299 1121 291 1137 276 1149 C 261 1161 242 1167 219 1167 C 197 1167 177 1164 159 1158 C 140 1152 120 1144 100 1133 L 63 1286 C 87 1298 114 1309 145 1317 C 175 1325 208 1329 244 1329 C 282 1329 316 1324 348 1314 C 380 1304 407 1291 429 1274 C 451 1257 469 1236 481 1212 C 493 1188 500 1161 500 1133 C 500 1113 496 1095 490 1079 C 483 1063 474 1048 464 1035 C 453 1022 441 1011 428 1002 C 414 992 401 985 387 981 C 409 974 430 964 451 951 C 472 937 491 921 508 902 C 524 883 538 861 548 837 C 558 812 563 785 563 756 Z" unicode="" />
<glyph horiz-adv-x="813" d="M 598 1169 C 598 1155 591 1139 579 1120 C 566 1101 551 1083 533 1065 C 515 1047 497 1032 478 1020 C 458 1007 442 1001 428 1001 C 414 1001 397 1007 378 1020 C 358 1032 340 1047 322 1065 C 304 1083 289 1101 277 1120 C 264 1139 258 1155 258 1169 C 258 1183 264 1199 276 1219 C 288 1238 303 1257 321 1275 C 339 1293 357 1308 377 1320 C 397 1332 414 1339 428 1339 C 442 1339 458 1332 478 1320 C 497 1308 515 1293 533 1275 C 551 1257 566 1238 579 1219 C 591 1199 598 1183 598 1169 Z M 762 47 C 724 23 680 5 631 -8 C 581 -22 527 -29 469 -29 C 408 -29 353 -20 304 -4 C 254 12 212 36 177 66 C 142 96 115 133 96 176 C 77 218 68 265 68 317 C 68 348 71 378 79 407 C 86 435 97 464 112 492 C 126 520 144 548 166 577 C 188 605 213 635 242 666 C 268 694 287 721 297 747 C 307 772 313 799 313 827 C 313 841 312 857 311 873 C 310 889 308 904 305 918 L 563 866 C 568 845 572 827 574 811 C 576 795 578 778 578 762 C 578 706 567 655 547 609 C 526 563 497 521 459 481 C 432 453 412 428 399 406 C 385 383 379 357 379 328 C 379 317 381 306 386 295 C 391 284 398 274 408 266 C 418 257 430 250 444 244 C 458 238 474 236 492 236 C 528 236 563 242 597 254 C 631 266 665 282 700 303 L 762 47 Z" unicode="" />
<glyph horiz-adv-x="1288" d="M 1268 0 L 952 0 L 844 295 L 428 295 L 319 0 L 20 0 L 535 1317 L 754 1317 L 1268 0 Z M 766 537 L 676 782 C 670 799 663 818 656 840 C 648 862 642 884 637 907 L 633 907 C 627 884 621 862 615 840 C 608 818 602 798 596 782 L 506 537 L 766 537 Z M 856 1501 L 707 1438 C 649 1471 596 1506 547 1542 C 497 1578 449 1621 403 1669 C 391 1680 382 1691 376 1703 C 370 1715 367 1725 367 1735 C 367 1744 371 1755 380 1769 C 388 1782 399 1795 411 1807 C 423 1819 436 1829 450 1838 C 463 1846 475 1851 485 1851 C 494 1851 506 1847 520 1839 C 534 1831 547 1820 557 1806 C 577 1776 600 1747 624 1719 C 648 1691 674 1663 700 1637 C 726 1611 753 1586 779 1563 C 805 1540 831 1519 856 1501 Z" unicode="" />
<glyph horiz-adv-x="1288" d="M 1268 0 L 952 0 L 844 295 L 428 295 L 319 0 L 20 0 L 535 1317 L 754 1317 L 1268 0 Z M 766 537 L 676 782 C 670 799 663 818 656 840 C 648 862 642 884 637 907 L 633 907 C 627 884 621 862 615 840 C 608 818 602 798 596 782 L 506 537 L 766 537 Z M 926 1737 C 926 1729 923 1720 917 1709 C 911 1697 902 1686 891 1675 C 845 1627 796 1584 746 1546 C 695 1508 640 1472 582 1438 L 444 1497 C 469 1516 495 1538 521 1562 C 547 1586 573 1611 599 1638 C 625 1664 650 1692 674 1721 C 698 1749 720 1778 741 1808 C 751 1822 764 1833 778 1840 C 792 1847 803 1851 811 1851 C 820 1851 831 1846 844 1838 C 857 1829 870 1819 882 1807 C 894 1795 904 1782 913 1769 C 921 1756 926 1745 926 1737 Z" unicode="" />
<glyph horiz-adv-x="1288" d="M 1268 0 L 952 0 L 844 295 L 428 295 L 319 0 L 20 0 L 535 1317 L 754 1317 L 1268 0 Z M 766 537 L 676 782 C 670 799 663 818 656 840 C 648 862 642 884 637 907 L 633 907 C 627 884 621 862 615 840 C 608 818 602 798 596 782 L 506 537 L 766 537 Z M 1014 1501 L 864 1438 C 824 1461 784 1486 745 1512 C 705 1538 669 1566 635 1595 C 601 1566 565 1539 529 1514 C 492 1489 453 1464 412 1440 L 274 1499 C 298 1517 324 1538 350 1562 C 376 1585 403 1610 429 1636 C 455 1662 480 1690 504 1719 C 528 1747 550 1776 571 1806 C 580 1819 591 1830 604 1838 C 617 1846 630 1851 643 1851 C 654 1851 666 1846 679 1838 C 692 1830 704 1819 715 1806 C 735 1776 758 1747 782 1719 C 806 1691 832 1663 858 1637 C 884 1611 910 1586 937 1563 C 963 1540 989 1519 1014 1501 Z" unicode="" />
<glyph horiz-adv-x="1288" d="M 1268 0 L 952 0 L 844 295 L 428 295 L 319 0 L 20 0 L 535 1317 L 754 1317 L 1268 0 Z M 766 537 L 676 782 C 670 799 663 818 656 840 C 648 862 642 884 637 907 L 633 907 C 627 884 621 862 615 840 C 608 818 602 798 596 782 L 506 537 L 766 537 Z M 1069 1759 C 1060 1744 1049 1726 1036 1706 C 1022 1686 1008 1665 992 1643 C 976 1621 958 1600 940 1579 C 922 1558 903 1539 885 1522 C 867 1505 849 1491 832 1481 C 814 1471 798 1466 784 1466 C 766 1466 746 1471 725 1482 C 703 1492 682 1504 662 1517 C 641 1530 621 1542 603 1553 C 585 1563 569 1569 557 1569 C 546 1569 534 1564 521 1555 C 508 1546 495 1535 482 1522 C 468 1508 455 1494 443 1479 C 431 1463 420 1449 410 1436 L 262 1501 C 270 1515 281 1533 295 1553 C 308 1573 323 1593 339 1615 C 355 1637 372 1658 390 1679 C 408 1700 427 1719 445 1736 C 463 1752 481 1766 499 1776 C 516 1786 532 1792 547 1792 C 565 1792 584 1786 605 1776 C 626 1765 647 1753 668 1741 C 688 1728 708 1716 727 1706 C 745 1695 761 1690 774 1690 C 784 1690 796 1694 809 1703 C 822 1711 835 1722 849 1736 C 862 1749 875 1763 888 1779 C 900 1795 912 1809 922 1823 L 1069 1759 Z" unicode="" />
<glyph horiz-adv-x="1288" d="M 1268 0 L 952 0 L 844 295 L 428 295 L 319 0 L 20 0 L 535 1317 L 754 1317 L 1268 0 Z M 766 537 L 676 782 C 670 799 663 818 656 840 C 648 862 642 884 637 907 L 633 907 C 627 884 621 862 615 840 C 608 818 602 798 596 782 L 506 537 L 766 537 Z M 963 1569 C 963 1559 958 1546 948 1531 C 938 1515 926 1500 912 1486 C 898 1472 883 1459 867 1449 C 851 1439 838 1434 827 1434 C 816 1434 803 1439 787 1449 C 771 1459 756 1471 742 1485 C 728 1499 715 1514 705 1530 C 695 1545 690 1558 690 1569 C 690 1579 695 1592 705 1608 C 715 1624 727 1639 741 1653 C 755 1667 770 1680 786 1690 C 802 1700 815 1706 827 1706 C 837 1706 850 1701 866 1691 C 882 1681 897 1668 911 1654 C 925 1640 938 1625 948 1609 C 958 1593 963 1580 963 1569 Z M 596 1569 C 596 1559 591 1546 581 1531 C 571 1515 558 1500 544 1486 C 530 1472 515 1459 499 1449 C 483 1439 470 1434 459 1434 C 449 1434 436 1439 421 1449 C 405 1459 390 1471 376 1485 C 362 1499 349 1514 339 1530 C 329 1545 324 1558 324 1569 C 324 1579 329 1592 339 1608 C 349 1624 361 1639 375 1653 C 389 1667 404 1680 420 1690 C 435 1700 448 1706 459 1706 C 469 1706 482 1701 498 1691 C 514 1681 529 1668 543 1654 C 557 1640 570 1625 580 1609 C 590 1593 596 1580 596 1569 Z" unicode="" />
<glyph horiz-adv-x="1288" d="M 1268 0 L 952 0 L 844 295 L 428 295 L 319 0 L 20 0 L 535 1317 L 754 1317 L 1268 0 Z M 766 537 L 676 782 C 670 799 663 818 656 840 C 648 862 642 884 637 907 L 633 907 C 627 884 621 862 615 840 C 608 818 602 798 596 782 L 506 537 L 766 537 Z M 903 1657 C 903 1622 896 1589 882 1558 C 868 1527 850 1500 827 1477 C 803 1454 776 1436 745 1423 C 713 1409 680 1403 645 1403 C 610 1403 577 1409 546 1423 C 515 1436 488 1454 465 1477 C 441 1500 423 1527 409 1558 C 395 1588 389 1621 389 1657 C 389 1691 395 1724 409 1755 C 422 1786 440 1813 464 1837 C 487 1860 514 1878 545 1892 C 576 1906 609 1913 645 1913 C 679 1913 712 1906 744 1893 C 775 1879 802 1861 826 1838 C 849 1814 868 1787 882 1756 C 896 1725 903 1692 903 1657 Z M 731 1657 C 731 1685 723 1708 707 1726 C 691 1744 670 1753 645 1753 C 619 1753 599 1744 583 1726 C 567 1708 559 1685 559 1657 C 559 1629 567 1606 583 1589 C 599 1571 619 1563 645 1563 C 670 1563 691 1571 707 1589 C 723 1606 731 1629 731 1657 Z" unicode="" />
<glyph horiz-adv-x="1669" d="M 1657 0 L 874 0 L 874 293 L 504 293 L 334 0 L 20 0 L 778 1307 L 1595 1307 L 1595 1047 L 1157 1047 L 1157 788 L 1518 788 L 1518 522 L 1157 522 L 1157 260 L 1657 260 L 1657 0 Z M 881 1044 L 877 1044 C 865 1014 853 984 840 956 C 826 927 813 899 799 872 L 621 543 L 874 543 L 874 877 C 874 893 874 907 875 921 C 875 935 876 948 877 961 C 877 974 878 987 879 1001 C 879 1014 880 1028 881 1044 Z" unicode="" />
<glyph horiz-adv-x="1198" d="M 1133 1247 L 1073 979 C 1042 997 1003 1013 955 1027 C 907 1040 857 1047 803 1047 C 745 1047 690 1037 640 1019 C 589 1000 545 973 507 939 C 469 904 439 862 417 813 C 395 764 385 709 385 649 C 385 589 395 534 417 485 C 439 436 469 394 508 359 C 546 324 592 297 645 278 C 697 259 755 250 817 250 C 871 250 922 254 969 264 C 1015 274 1056 288 1090 307 L 1063 31 C 997 0 905 -16 786 -18 L 778 -53 C 802 -54 827 -60 851 -71 C 875 -81 896 -96 915 -115 C 933 -134 948 -157 960 -183 C 971 -209 977 -237 977 -268 C 977 -304 970 -336 956 -364 C 942 -391 924 -414 902 -432 C 880 -450 854 -464 826 -473 C 798 -482 769 -487 739 -487 C 708 -487 678 -482 648 -473 C 618 -463 594 -452 575 -440 L 604 -311 C 620 -322 640 -331 663 -339 C 685 -346 708 -350 731 -350 C 755 -350 775 -342 791 -327 C 807 -312 815 -293 815 -270 C 815 -258 812 -247 808 -238 C 803 -228 797 -220 791 -214 C 784 -208 777 -203 769 -200 C 761 -196 754 -195 748 -195 C 718 -195 696 -186 682 -170 C 668 -154 664 -132 672 -104 L 694 -14 C 641 -9 589 1 538 17 C 486 33 437 54 391 81 C 344 107 301 139 261 177 C 221 214 187 257 158 305 C 129 353 106 406 90 464 C 74 522 66 585 66 653 C 66 727 75 795 94 857 C 113 919 139 975 173 1025 C 206 1075 245 1118 290 1156 C 334 1194 383 1225 435 1251 C 487 1276 541 1295 597 1308 C 653 1320 710 1327 766 1327 C 847 1327 919 1319 981 1304 C 1043 1288 1093 1269 1133 1247 Z" unicode="" />
<glyph horiz-adv-x="930" d="M 918 0 L 106 0 L 106 1307 L 856 1307 L 856 1047 L 418 1047 L 418 788 L 778 788 L 778 522 L 418 522 L 418 260 L 918 260 L 918 0 Z M 702 1501 L 553 1438 C 495 1471 442 1506 393 1542 C 343 1578 296 1621 250 1669 C 238 1680 229 1691 223 1703 C 216 1715 213 1725 213 1735 C 213 1744 217 1755 226 1769 C 234 1782 245 1795 258 1807 C 270 1819 283 1829 297 1838 C 310 1846 322 1851 332 1851 C 341 1851 353 1847 367 1839 C 381 1831 393 1820 403 1806 C 423 1776 446 1747 470 1719 C 494 1691 520 1663 546 1637 C 572 1611 599 1586 625 1563 C 651 1540 677 1519 702 1501 Z" unicode="" />
<glyph horiz-adv-x="930" d="M 918 0 L 106 0 L 106 1307 L 856 1307 L 856 1047 L 418 1047 L 418 788 L 778 788 L 778 522 L 418 522 L 418 260 L 918 260 L 918 0 Z M 807 1737 C 807 1729 804 1720 798 1709 C 792 1697 783 1686 772 1675 C 726 1627 677 1584 627 1546 C 576 1508 521 1472 463 1438 L 326 1497 C 350 1516 376 1538 403 1562 C 429 1586 455 1611 481 1638 C 507 1664 532 1692 556 1721 C 580 1749 602 1778 623 1808 C 633 1822 645 1833 659 1840 C 673 1847 684 1851 692 1851 C 701 1851 712 1846 725 1838 C 738 1829 751 1819 763 1807 C 775 1795 785 1782 794 1769 C 802 1756 807 1745 807 1737 Z" unicode="" />
<glyph horiz-adv-x="930" d="M 918 0 L 106 0 L 106 1307 L 856 1307 L 856 1047 L 418 1047 L 418 788 L 778 788 L 778 522 L 418 522 L 418 260 L 918 260 L 918 0 Z M 879 1501 L 729 1438 C 689 1461 649 1486 610 1512 C 570 1538 534 1566 500 1595 C 466 1566 430 1539 393 1514 C 356 1489 317 1464 276 1440 L 139 1499 C 163 1517 189 1538 215 1562 C 241 1585 268 1610 294 1636 C 320 1662 345 1690 369 1719 C 393 1747 415 1776 436 1806 C 445 1819 456 1830 469 1838 C 482 1846 495 1851 508 1851 C 519 1851 531 1846 544 1838 C 557 1830 569 1819 580 1806 C 600 1776 623 1747 647 1719 C 671 1691 697 1663 723 1637 C 749 1611 775 1586 802 1563 C 828 1540 854 1519 879 1501 Z" unicode="" />
<glyph horiz-adv-x="930" d="M 918 0 L 106 0 L 106 1307 L 856 1307 L 856 1047 L 418 1047 L 418 788 L 778 788 L 778 522 L 418 522 L 418 260 L 918 260 L 918 0 Z M 817 1569 C 817 1559 812 1546 802 1531 C 792 1515 780 1500 766 1486 C 752 1472 737 1459 722 1449 C 706 1439 693 1434 682 1434 C 671 1434 658 1439 642 1449 C 626 1459 611 1471 597 1485 C 583 1499 570 1514 560 1530 C 550 1545 545 1558 545 1569 C 545 1579 550 1592 560 1608 C 570 1624 582 1639 596 1653 C 610 1667 625 1680 641 1690 C 657 1700 670 1706 682 1706 C 692 1706 705 1701 721 1691 C 736 1681 751 1668 765 1654 C 779 1640 792 1625 802 1609 C 812 1593 817 1580 817 1569 Z M 451 1569 C 451 1559 446 1546 436 1531 C 426 1515 413 1500 399 1486 C 384 1472 369 1459 353 1449 C 337 1439 324 1434 313 1434 C 303 1434 290 1439 275 1449 C 259 1459 244 1471 230 1485 C 216 1499 203 1514 193 1530 C 183 1545 178 1558 178 1569 C 178 1579 183 1592 193 1608 C 203 1624 215 1639 229 1653 C 243 1667 258 1680 274 1690 C 289 1700 302 1706 313 1706 C 323 1706 336 1701 352 1691 C 368 1681 383 1668 398 1654 C 412 1640 425 1625 435 1609 C 445 1593 451 1580 451 1569 Z" unicode="" />
<glyph horiz-adv-x="569" d="M 444 0 L 127 0 L 127 1307 L 444 1307 L 444 0 Z M 483 1501 L 334 1438 C 276 1471 223 1506 174 1542 C 124 1578 77 1621 31 1669 C 19 1680 10 1691 4 1703 C -2 1715 -6 1725 -6 1735 C -6 1744 -1 1755 7 1769 C 15 1782 26 1795 39 1807 C 51 1819 64 1829 78 1838 C 91 1846 103 1851 113 1851 C 122 1851 134 1847 148 1839 C 162 1831 174 1820 184 1806 C 204 1776 227 1747 251 1719 C 275 1691 301 1663 327 1637 C 353 1611 380 1586 406 1563 C 432 1540 458 1519 483 1501 Z" unicode="" />
<glyph horiz-adv-x="569" d="M 444 0 L 127 0 L 127 1307 L 444 1307 L 444 0 Z M 573 1737 C 573 1729 570 1720 564 1709 C 558 1697 550 1686 539 1675 C 492 1627 443 1584 393 1546 C 342 1508 287 1472 229 1438 L 92 1497 C 117 1516 143 1538 169 1562 C 195 1586 221 1611 247 1638 C 273 1664 298 1692 322 1721 C 346 1749 368 1778 389 1808 C 399 1822 411 1833 425 1840 C 439 1847 450 1851 459 1851 C 468 1851 479 1846 492 1838 C 505 1829 518 1819 530 1807 C 542 1795 552 1782 560 1769 C 568 1756 573 1745 573 1737 Z" unicode="" />
<glyph horiz-adv-x="569" d="M 444 0 L 127 0 L 127 1307 L 444 1307 L 444 0 Z M 662 1501 L 512 1438 C 472 1461 432 1486 393 1512 C 353 1538 317 1566 283 1595 C 249 1566 213 1539 176 1514 C 139 1489 100 1464 59 1440 L -78 1499 C -53 1517 -27 1538 -1 1562 C 24 1585 50 1610 76 1636 C 102 1662 127 1690 151 1719 C 175 1747 198 1776 219 1806 C 228 1819 239 1830 252 1838 C 265 1846 278 1851 291 1851 C 302 1851 314 1846 327 1838 C 340 1830 352 1819 362 1806 C 382 1776 405 1747 429 1719 C 453 1691 479 1663 505 1637 C 531 1611 558 1586 585 1563 C 611 1540 637 1519 662 1501 Z" unicode="" />
<glyph horiz-adv-x="569" d="M 444 0 L 127 0 L 127 1307 L 444 1307 L 444 0 Z M 608 1569 C 608 1559 603 1546 593 1531 C 583 1515 571 1500 557 1486 C 543 1472 528 1459 513 1449 C 497 1439 484 1434 473 1434 C 462 1434 449 1439 433 1449 C 417 1459 402 1471 388 1485 C 374 1499 361 1514 351 1530 C 341 1545 336 1558 336 1569 C 336 1579 341 1592 351 1608 C 361 1624 373 1639 387 1653 C 401 1667 416 1680 432 1690 C 448 1700 461 1706 473 1706 C 483 1706 496 1701 512 1691 C 527 1681 542 1668 556 1654 C 570 1640 583 1625 593 1609 C 603 1593 608 1580 608 1569 Z M 242 1569 C 242 1559 237 1546 227 1531 C 217 1515 204 1500 190 1486 C 176 1472 161 1459 145 1449 C 129 1439 115 1434 104 1434 C 94 1434 81 1439 66 1449 C 50 1459 35 1471 21 1485 C 7 1499 -5 1514 -15 1530 C -25 1545 -31 1558 -31 1569 C -31 1579 -26 1592 -16 1608 C -6 1624 6 1639 20 1653 C 34 1667 49 1680 65 1690 C 80 1700 93 1706 104 1706 C 114 1706 127 1701 143 1691 C 159 1681 174 1668 189 1654 C 203 1640 216 1625 226 1609 C 236 1593 242 1580 242 1569 Z" unicode="" />
<glyph horiz-adv-x="1374" d="M 1309 653 C 1309 551 1290 460 1252 380 C 1214 299 1164 230 1100 174 C 1036 118 961 75 876 45 C 791 15 702 0 608 0 L 168 0 L 168 543 L 16 543 L 16 768 L 168 768 L 168 1307 L 608 1307 C 670 1307 731 1300 790 1287 C 849 1273 904 1254 956 1228 C 1008 1202 1055 1170 1099 1133 C 1142 1095 1179 1052 1210 1004 C 1241 955 1265 901 1283 843 C 1300 784 1309 721 1309 653 Z M 1001 651 C 1001 717 989 775 967 825 C 945 875 915 916 877 950 C 839 983 794 1008 743 1025 C 692 1042 638 1051 580 1051 L 475 1051 L 475 768 L 680 768 L 645 543 L 475 543 L 475 254 L 580 254 C 638 254 692 262 743 279 C 794 295 839 320 877 353 C 915 386 945 427 967 477 C 989 527 1001 585 1001 651 Z" unicode="" />
<glyph horiz-adv-x="1438" d="M 1333 -14 L 1171 -14 L 657 547 C 615 593 572 641 528 691 C 484 741 445 789 410 834 L 406 831 C 408 785 409 738 410 691 C 411 643 412 599 412 557 L 412 0 L 106 0 L 106 1307 L 362 1307 L 813 817 C 829 799 846 780 865 759 C 884 738 903 717 923 695 C 943 673 962 651 980 629 C 998 607 1015 586 1030 567 L 1034 569 C 1032 609 1030 649 1028 690 C 1026 730 1026 771 1026 813 L 1026 1307 L 1333 1307 L 1333 -14 Z M 1135 1759 C 1126 1744 1115 1726 1102 1706 C 1088 1686 1073 1665 1057 1643 C 1041 1621 1024 1600 1006 1579 C 988 1558 969 1539 951 1522 C 933 1505 915 1491 898 1481 C 880 1471 864 1466 850 1466 C 831 1466 811 1471 790 1482 C 769 1492 748 1504 728 1517 C 707 1530 687 1542 669 1553 C 651 1563 635 1569 623 1569 C 612 1569 600 1564 587 1555 C 574 1546 561 1535 547 1522 C 533 1508 520 1494 508 1479 C 496 1463 485 1449 475 1436 L 328 1501 C 336 1515 347 1533 361 1553 C 374 1573 389 1593 405 1615 C 421 1637 438 1658 456 1679 C 474 1700 492 1719 510 1736 C 528 1752 546 1766 564 1776 C 581 1786 597 1792 612 1792 C 630 1792 649 1786 670 1776 C 691 1765 712 1753 733 1741 C 754 1728 774 1716 792 1706 C 810 1695 826 1690 840 1690 C 850 1690 862 1694 875 1703 C 888 1711 901 1722 914 1736 C 927 1749 940 1763 953 1779 C 965 1795 977 1809 987 1823 L 1135 1759 Z" unicode="" />
<glyph horiz-adv-x="1538" d="M 1473 655 C 1473 585 1464 519 1446 458 C 1428 397 1403 341 1371 291 C 1339 240 1302 195 1258 155 C 1214 115 1165 81 1113 53 C 1061 25 1006 4 948 -9 C 890 -23 830 -31 770 -31 C 710 -31 651 -23 593 -9 C 535 4 479 25 427 53 C 375 80 327 113 283 153 C 239 193 200 238 168 289 C 136 340 111 396 93 458 C 75 519 66 585 66 655 C 66 724 75 789 93 850 C 111 911 136 967 168 1018 C 200 1068 238 1113 282 1153 C 326 1193 374 1226 426 1254 C 478 1282 534 1303 592 1317 C 650 1331 710 1339 770 1339 C 830 1339 889 1331 947 1317 C 1005 1303 1060 1282 1112 1255 C 1164 1227 1212 1194 1256 1154 C 1300 1114 1339 1069 1371 1019 C 1403 968 1428 912 1446 851 C 1464 790 1473 725 1473 655 Z M 1151 651 C 1151 711 1140 767 1119 817 C 1097 867 1069 909 1033 944 C 997 979 957 1006 911 1026 C 865 1045 818 1055 770 1055 C 720 1055 673 1045 627 1026 C 581 1006 541 979 506 944 C 470 909 442 867 421 817 C 399 767 389 711 389 651 C 389 590 399 535 421 485 C 442 435 470 393 506 358 C 541 323 581 296 627 277 C 673 257 720 248 770 248 C 818 248 865 257 911 277 C 957 296 997 323 1033 358 C 1069 393 1097 435 1119 485 C 1140 535 1151 590 1151 651 Z M 973 1501 L 823 1438 C 765 1471 712 1506 663 1542 C 613 1578 566 1621 520 1669 C 508 1680 499 1691 493 1703 C 486 1715 483 1725 483 1735 C 483 1744 487 1755 496 1769 C 504 1782 515 1795 528 1807 C 540 1819 553 1829 567 1838 C 580 1846 592 1851 602 1851 C 611 1851 623 1847 637 1839 C 651 1831 663 1820 674 1806 C 694 1776 717 1747 741 1719 C 765 1691 791 1663 817 1637 C 843 1611 869 1586 896 1563 C 922 1540 948 1519 973 1501 Z" unicode="" />
<glyph horiz-adv-x="1538" d="M 1473 655 C 1473 585 1464 519 1446 458 C 1428 397 1403 341 1371 291 C 1339 240 1302 195 1258 155 C 1214 115 1165 81 1113 53 C 1061 25 1006 4 948 -9 C 890 -23 830 -31 770 -31 C 710 -31 651 -23 593 -9 C 535 4 479 25 427 53 C 375 80 327 113 283 153 C 239 193 200 238 168 289 C 136 340 111 396 93 458 C 75 519 66 585 66 655 C 66 724 75 789 93 850 C 111 911 136 967 168 1018 C 200 1068 238 1113 282 1153 C 326 1193 374 1226 426 1254 C 478 1282 534 1303 592 1317 C 650 1331 710 1339 770 1339 C 830 1339 889 1331 947 1317 C 1005 1303 1060 1282 1112 1255 C 1164 1227 1212 1194 1256 1154 C 1300 1114 1339 1069 1371 1019 C 1403 968 1428 912 1446 851 C 1464 790 1473 725 1473 655 Z M 1151 651 C 1151 711 1140 767 1119 817 C 1097 867 1069 909 1033 944 C 997 979 957 1006 911 1026 C 865 1045 818 1055 770 1055 C 720 1055 673 1045 627 1026 C 581 1006 541 979 506 944 C 470 909 442 867 421 817 C 399 767 389 711 389 651 C 389 590 399 535 421 485 C 442 435 470 393 506 358 C 541 323 581 296 627 277 C 673 257 720 248 770 248 C 818 248 865 257 911 277 C 957 296 997 323 1033 358 C 1069 393 1097 435 1119 485 C 1140 535 1151 590 1151 651 Z M 1042 1737 C 1042 1729 1039 1720 1033 1709 C 1027 1697 1019 1686 1008 1675 C 961 1627 912 1584 862 1546 C 811 1508 756 1472 698 1438 L 561 1497 C 586 1516 612 1538 638 1562 C 664 1586 690 1611 716 1638 C 742 1664 767 1692 791 1721 C 815 1749 837 1778 858 1808 C 868 1822 880 1833 894 1840 C 908 1847 919 1851 928 1851 C 937 1851 948 1846 961 1838 C 974 1829 987 1819 999 1807 C 1011 1795 1021 1782 1029 1769 C 1037 1756 1042 1745 1042 1737 Z" unicode="" />
<glyph horiz-adv-x="1538" d="M 1473 655 C 1473 585 1464 519 1446 458 C 1428 397 1403 341 1371 291 C 1339 240 1302 195 1258 155 C 1214 115 1165 81 1113 53 C 1061 25 1006 4 948 -9 C 890 -23 830 -31 770 -31 C 710 -31 651 -23 593 -9 C 535 4 479 25 427 53 C 375 80 327 113 283 153 C 239 193 200 238 168 289 C 136 340 111 396 93 458 C 75 519 66 585 66 655 C 66 724 75 789 93 850 C 111 911 136 967 168 1018 C 200 1068 238 1113 282 1153 C 326 1193 374 1226 426 1254 C 478 1282 534 1303 592 1317 C 650 1331 710 1339 770 1339 C 830 1339 889 1331 947 1317 C 1005 1303 1060 1282 1112 1255 C 1164 1227 1212 1194 1256 1154 C 1300 1114 1339 1069 1371 1019 C 1403 968 1428 912 1446 851 C 1464 790 1473 725 1473 655 Z M 1151 651 C 1151 711 1140 767 1119 817 C 1097 867 1069 909 1033 944 C 997 979 957 1006 911 1026 C 865 1045 818 1055 770 1055 C 720 1055 673 1045 627 1026 C 581 1006 541 979 506 944 C 470 909 442 867 421 817 C 399 767 389 711 389 651 C 389 590 399 535 421 485 C 442 435 470 393 506 358 C 541 323 581 296 627 277 C 673 257 720 248 770 248 C 818 248 865 257 911 277 C 957 296 997 323 1033 358 C 1069 393 1097 435 1119 485 C 1140 535 1151 590 1151 651 Z M 1137 1501 L 987 1438 C 947 1461 907 1486 868 1512 C 828 1538 792 1566 758 1595 C 724 1566 688 1539 651 1514 C 614 1489 575 1464 535 1440 L 397 1499 C 421 1517 447 1538 473 1562 C 499 1585 526 1610 552 1636 C 578 1662 603 1690 627 1719 C 651 1747 673 1776 694 1806 C 703 1819 714 1830 727 1838 C 740 1846 753 1851 766 1851 C 777 1851 789 1846 802 1838 C 815 1830 827 1819 838 1806 C 858 1776 881 1747 905 1719 C 929 1691 955 1663 981 1637 C 1007 1611 1033 1586 1060 1563 C 1086 1540 1112 1519 1137 1501 Z" unicode="" />
<glyph horiz-adv-x="1538" d="M 1473 655 C 1473 585 1464 519 1446 458 C 1428 397 1403 341 1371 291 C 1339 240 1302 195 1258 155 C 1214 115 1165 81 1113 53 C 1061 25 1006 4 948 -9 C 890 -23 830 -31 770 -31 C 710 -31 651 -23 593 -9 C 535 4 479 25 427 53 C 375 80 327 113 283 153 C 239 193 200 238 168 289 C 136 340 111 396 93 458 C 75 519 66 585 66 655 C 66 724 75 789 93 850 C 111 911 136 967 168 1018 C 200 1068 238 1113 282 1153 C 326 1193 374 1226 426 1254 C 478 1282 534 1303 592 1317 C 650 1331 710 1339 770 1339 C 830 1339 889 1331 947 1317 C 1005 1303 1060 1282 1112 1255 C 1164 1227 1212 1194 1256 1154 C 1300 1114 1339 1069 1371 1019 C 1403 968 1428 912 1446 851 C 1464 790 1473 725 1473 655 Z M 1151 651 C 1151 711 1140 767 1119 817 C 1097 867 1069 909 1033 944 C 997 979 957 1006 911 1026 C 865 1045 818 1055 770 1055 C 720 1055 673 1045 627 1026 C 581 1006 541 979 506 944 C 470 909 442 867 421 817 C 399 767 389 711 389 651 C 389 590 399 535 421 485 C 442 435 470 393 506 358 C 541 323 581 296 627 277 C 673 257 720 248 770 248 C 818 248 865 257 911 277 C 957 296 997 323 1033 358 C 1069 393 1097 435 1119 485 C 1140 535 1151 590 1151 651 Z M 1186 1759 C 1177 1744 1166 1726 1153 1706 C 1139 1686 1125 1665 1109 1643 C 1093 1621 1075 1600 1057 1579 C 1039 1558 1020 1539 1002 1522 C 984 1505 966 1491 949 1481 C 931 1471 915 1466 901 1466 C 882 1466 862 1471 841 1482 C 820 1492 799 1504 779 1517 C 758 1530 738 1542 720 1553 C 702 1563 686 1569 674 1569 C 663 1569 651 1564 638 1555 C 625 1546 612 1535 598 1522 C 584 1508 571 1494 559 1479 C 547 1463 536 1449 526 1436 L 379 1501 C 387 1515 398 1533 412 1553 C 425 1573 440 1593 456 1615 C 472 1637 489 1658 507 1679 C 525 1700 543 1719 561 1736 C 579 1752 597 1766 615 1776 C 633 1786 649 1792 664 1792 C 682 1792 701 1786 722 1776 C 743 1765 764 1753 785 1741 C 805 1728 825 1716 844 1706 C 862 1695 878 1690 891 1690 C 901 1690 913 1694 926 1703 C 939 1711 952 1722 965 1736 C 978 1749 991 1763 1004 1779 C 1016 1795 1028 1809 1038 1823 L 1186 1759 Z" unicode="" />
<glyph horiz-adv-x="1538" d="M 1473 655 C 1473 585 1464 519 1446 458 C 1428 397 1403 341 1371 291 C 1339 240 1302 195 1258 155 C 1214 115 1165 81 1113 53 C 1061 25 1006 4 948 -9 C 890 -23 830 -31 770 -31 C 710 -31 651 -23 593 -9 C 535 4 479 25 427 53 C 375 80 327 113 283 153 C 239 193 200 238 168 289 C 136 340 111 396 93 458 C 75 519 66 585 66 655 C 66 724 75 789 93 850 C 111 911 136 967 168 1018 C 200 1068 238 1113 282 1153 C 326 1193 374 1226 426 1254 C 478 1282 534 1303 592 1317 C 650 1331 710 1339 770 1339 C 830 1339 889 1331 947 1317 C 1005 1303 1060 1282 1112 1255 C 1164 1227 1212 1194 1256 1154 C 1300 1114 1339 1069 1371 1019 C 1403 968 1428 912 1446 851 C 1464 790 1473 725 1473 655 Z M 1151 651 C 1151 711 1140 767 1119 817 C 1097 867 1069 909 1033 944 C 997 979 957 1006 911 1026 C 865 1045 818 1055 770 1055 C 720 1055 673 1045 627 1026 C 581 1006 541 979 506 944 C 470 909 442 867 421 817 C 399 767 389 711 389 651 C 389 590 399 535 421 485 C 442 435 470 393 506 358 C 541 323 581 296 627 277 C 673 257 720 248 770 248 C 818 248 865 257 911 277 C 957 296 997 323 1033 358 C 1069 393 1097 435 1119 485 C 1140 535 1151 590 1151 651 Z M 1087 1569 C 1087 1559 1082 1546 1072 1531 C 1062 1515 1050 1500 1036 1486 C 1022 1472 1007 1459 992 1449 C 976 1439 963 1434 952 1434 C 941 1434 928 1439 912 1449 C 896 1459 881 1471 867 1485 C 853 1499 840 1514 830 1530 C 820 1545 815 1558 815 1569 C 815 1579 820 1592 830 1608 C 840 1624 852 1639 866 1653 C 880 1667 895 1680 911 1690 C 927 1700 940 1706 952 1706 C 962 1706 975 1701 991 1691 C 1006 1681 1021 1668 1035 1654 C 1049 1640 1062 1625 1072 1609 C 1082 1593 1087 1580 1087 1569 Z M 721 1569 C 721 1559 716 1546 706 1531 C 696 1515 683 1500 669 1486 C 655 1472 640 1459 624 1449 C 608 1439 595 1434 584 1434 C 574 1434 561 1439 546 1449 C 530 1459 515 1471 501 1485 C 487 1499 474 1514 464 1530 C 454 1545 449 1558 449 1569 C 449 1579 454 1592 464 1608 C 474 1624 486 1639 500 1653 C 514 1667 529 1680 545 1690 C 560 1700 573 1706 584 1706 C 594 1706 607 1701 623 1691 C 639 1681 654 1668 668 1654 C 682 1640 695 1625 705 1609 C 715 1593 721 1580 721 1569 Z" unicode="" />
<glyph horiz-adv-x="899" d="M 813 354 L 657 199 L 453 403 L 246 199 L 90 354 L 295 559 L 90 766 L 248 922 L 453 717 L 657 922 L 813 766 L 608 561 L 813 354 Z" unicode="" />
<glyph horiz-adv-x="1538" d="M 1473 655 C 1473 584 1464 518 1446 457 C 1428 396 1403 340 1371 289 C 1339 238 1302 193 1258 153 C 1214 113 1165 80 1113 53 C 1061 25 1006 4 948 -9 C 890 -23 830 -31 770 -31 C 704 -31 639 -22 576 -5 C 512 11 453 36 397 70 L 289 -66 L 168 35 L 272 164 C 209 224 159 295 122 377 C 84 459 66 552 66 655 C 66 725 75 790 93 851 C 111 912 136 968 168 1019 C 200 1069 238 1114 282 1154 C 326 1194 374 1227 426 1255 C 478 1282 534 1303 592 1317 C 650 1331 710 1339 770 1339 C 836 1339 900 1330 963 1314 C 1025 1297 1085 1272 1141 1239 L 1251 1374 L 1370 1274 L 1266 1145 C 1328 1085 1378 1014 1416 932 C 1454 850 1473 758 1473 655 Z M 1176 651 C 1176 705 1168 754 1152 800 C 1136 845 1115 886 1087 922 L 565 276 C 628 239 696 221 770 221 C 822 221 872 231 921 252 C 970 272 1013 301 1051 339 C 1089 377 1119 422 1142 475 C 1164 527 1176 586 1176 651 Z M 969 1026 C 907 1062 841 1081 770 1081 C 717 1081 666 1070 617 1050 C 568 1029 525 1000 487 962 C 449 924 418 879 396 827 C 373 774 362 715 362 651 C 362 597 369 548 385 504 C 400 459 421 419 449 383 L 969 1026 Z" unicode="" />
<glyph horiz-adv-x="1343" d="M 1239 469 C 1239 391 1224 321 1194 259 C 1164 197 1124 145 1073 103 C 1021 60 961 27 892 5 C 823 -17 750 -29 672 -29 C 594 -29 520 -17 452 4 C 383 26 323 59 272 102 C 220 144 180 196 150 258 C 120 320 106 390 106 469 L 106 1307 L 424 1307 L 424 492 C 424 452 430 417 442 387 C 454 357 471 331 493 310 C 515 289 541 273 572 262 C 603 251 638 246 676 246 C 713 246 747 251 778 262 C 809 273 836 289 858 310 C 880 331 897 357 909 387 C 921 417 928 452 928 492 L 928 1307 L 1239 1307 L 1239 469 Z M 891 1501 L 741 1438 C 683 1471 630 1506 581 1542 C 531 1578 484 1621 438 1669 C 426 1680 417 1691 411 1703 C 404 1715 401 1725 401 1735 C 401 1744 405 1755 414 1769 C 422 1782 433 1795 446 1807 C 458 1819 471 1829 485 1838 C 498 1846 510 1851 520 1851 C 529 1851 541 1847 555 1839 C 569 1831 581 1820 592 1806 C 612 1776 635 1747 659 1719 C 683 1691 709 1663 735 1637 C 761 1611 788 1586 814 1563 C 840 1540 866 1519 891 1501 Z" unicode="" />
<glyph horiz-adv-x="1343" d="M 1239 469 C 1239 391 1224 321 1194 259 C 1164 197 1124 145 1073 103 C 1021 60 961 27 892 5 C 823 -17 750 -29 672 -29 C 594 -29 520 -17 452 4 C 383 26 323 59 272 102 C 220 144 180 196 150 258 C 120 320 106 390 106 469 L 106 1307 L 424 1307 L 424 492 C 424 452 430 417 442 387 C 454 357 471 331 493 310 C 515 289 541 273 572 262 C 603 251 638 246 676 246 C 713 246 747 251 778 262 C 809 273 836 289 858 310 C 880 331 897 357 909 387 C 921 417 928 452 928 492 L 928 1307 L 1239 1307 L 1239 469 Z M 958 1737 C 958 1729 955 1720 949 1709 C 943 1697 935 1686 924 1675 C 877 1627 828 1584 778 1546 C 727 1508 672 1472 614 1438 L 477 1497 C 502 1516 528 1538 554 1562 C 580 1586 606 1611 632 1638 C 658 1664 683 1692 707 1721 C 731 1749 753 1778 774 1808 C 784 1822 796 1833 810 1840 C 824 1847 835 1851 844 1851 C 853 1851 864 1846 877 1838 C 890 1829 903 1819 915 1807 C 927 1795 937 1782 945 1769 C 953 1756 958 1745 958 1737 Z" unicode="" />
<glyph horiz-adv-x="1343" d="M 1239 469 C 1239 391 1224 321 1194 259 C 1164 197 1124 145 1073 103 C 1021 60 961 27 892 5 C 823 -17 750 -29 672 -29 C 594 -29 520 -17 452 4 C 383 26 323 59 272 102 C 220 144 180 196 150 258 C 120 320 106 390 106 469 L 106 1307 L 424 1307 L 424 492 C 424 452 430 417 442 387 C 454 357 471 331 493 310 C 515 289 541 273 572 262 C 603 251 638 246 676 246 C 713 246 747 251 778 262 C 809 273 836 289 858 310 C 880 331 897 357 909 387 C 921 417 928 452 928 492 L 928 1307 L 1239 1307 L 1239 469 Z M 1053 1501 L 903 1438 C 863 1461 823 1486 784 1512 C 744 1538 708 1566 674 1595 C 640 1566 604 1539 567 1514 C 530 1489 491 1464 451 1440 L 313 1499 C 337 1517 363 1538 389 1562 C 415 1585 442 1610 468 1636 C 494 1662 519 1690 543 1719 C 567 1747 589 1776 610 1806 C 619 1819 630 1830 643 1838 C 656 1846 669 1851 682 1851 C 693 1851 705 1846 718 1838 C 731 1830 743 1819 754 1806 C 774 1776 797 1747 821 1719 C 845 1691 871 1663 897 1637 C 923 1611 949 1586 976 1563 C 1002 1540 1028 1519 1053 1501 Z" unicode="" />
<glyph horiz-adv-x="1343" d="M 1239 469 C 1239 391 1224 321 1194 259 C 1164 197 1124 145 1073 103 C 1021 60 961 27 892 5 C 823 -17 750 -29 672 -29 C 594 -29 520 -17 452 4 C 383 26 323 59 272 102 C 220 144 180 196 150 258 C 120 320 106 390 106 469 L 106 1307 L 424 1307 L 424 492 C 424 452 430 417 442 387 C 454 357 471 331 493 310 C 515 289 541 273 572 262 C 603 251 638 246 676 246 C 713 246 747 251 778 262 C 809 273 836 289 858 310 C 880 331 897 357 909 387 C 921 417 928 452 928 492 L 928 1307 L 1239 1307 L 1239 469 Z M 1008 1569 C 1008 1559 1003 1546 993 1531 C 983 1515 971 1500 957 1486 C 943 1472 928 1459 912 1449 C 896 1439 883 1434 872 1434 C 861 1434 848 1439 832 1449 C 816 1459 801 1471 787 1485 C 773 1499 760 1514 750 1530 C 740 1545 735 1558 735 1569 C 735 1579 740 1592 750 1608 C 760 1624 772 1639 786 1653 C 800 1667 815 1680 831 1690 C 847 1700 860 1706 872 1706 C 882 1706 895 1701 911 1691 C 927 1681 942 1668 956 1654 C 970 1640 983 1625 993 1609 C 1003 1593 1008 1580 1008 1569 Z M 641 1569 C 641 1559 636 1546 626 1531 C 616 1515 603 1500 589 1486 C 575 1472 560 1459 544 1449 C 528 1439 515 1434 504 1434 C 494 1434 481 1439 466 1449 C 450 1459 435 1471 421 1485 C 407 1499 394 1514 384 1530 C 374 1545 369 1558 369 1569 C 369 1579 374 1592 384 1608 C 394 1624 406 1639 420 1653 C 434 1667 449 1680 465 1690 C 480 1700 493 1706 504 1706 C 514 1706 527 1701 543 1691 C 559 1681 574 1668 588 1654 C 602 1640 615 1625 625 1609 C 635 1593 641 1580 641 1569 Z" unicode="" />
<glyph horiz-adv-x="1323" d="M 1303 1307 L 817 584 L 817 0 L 510 0 L 510 578 L 20 1307 L 360 1307 L 575 993 C 590 971 606 946 623 918 C 639 890 655 862 670 836 L 674 836 C 680 848 688 862 696 876 C 704 890 712 904 721 918 C 729 932 738 945 746 958 C 754 971 762 983 770 993 L 985 1307 L 1303 1307 Z M 981 1737 C 981 1729 978 1720 972 1709 C 966 1697 957 1686 946 1675 C 900 1627 851 1584 801 1546 C 750 1508 695 1472 637 1438 L 500 1497 C 524 1516 550 1538 577 1562 C 603 1586 629 1611 655 1638 C 681 1664 706 1692 730 1721 C 754 1749 776 1778 797 1808 C 807 1822 819 1833 833 1840 C 847 1847 858 1851 866 1851 C 875 1851 886 1846 899 1838 C 912 1829 925 1819 937 1807 C 949 1795 959 1782 968 1769 C 976 1756 981 1745 981 1737 Z" unicode="" />
<glyph horiz-adv-x="1063" d="M 1008 760 C 1008 698 996 643 973 594 C 950 544 919 502 881 468 C 842 434 797 407 746 389 C 695 371 642 362 586 362 L 412 362 L 412 0 L 106 0 L 106 1307 L 412 1307 L 412 1155 L 586 1155 C 642 1155 695 1146 746 1128 C 796 1110 841 1084 880 1050 C 919 1016 950 974 973 925 C 996 876 1008 821 1008 760 Z M 702 760 C 702 784 697 806 688 824 C 679 842 667 857 652 869 C 637 881 620 890 601 896 C 581 902 561 905 541 905 L 412 905 L 412 612 L 541 612 C 561 612 581 615 601 621 C 620 627 637 636 652 648 C 667 660 679 675 688 694 C 697 712 702 734 702 760 Z" unicode="" />
<glyph horiz-adv-x="1290" d="M 1235 274 C 1235 234 1227 195 1213 159 C 1198 123 1175 91 1145 63 C 1114 35 1075 12 1029 -4 C 983 -20 928 -29 866 -29 C 802 -29 745 -22 696 -10 C 647 2 604 20 567 43 L 567 283 C 606 257 649 237 695 221 C 741 205 790 197 840 197 C 870 197 894 203 912 217 C 929 230 938 246 938 266 C 938 287 930 304 915 318 C 900 331 878 342 848 352 C 802 366 762 382 726 400 C 690 418 659 440 635 465 C 610 489 591 518 578 550 C 565 582 559 618 559 659 C 559 696 565 730 578 762 C 590 794 607 822 629 846 C 650 870 675 889 703 905 C 731 921 761 932 793 938 C 795 949 796 961 798 973 C 800 985 801 996 801 1008 C 801 1034 796 1060 788 1085 C 780 1110 767 1132 751 1151 C 734 1170 713 1185 688 1197 C 663 1208 634 1214 602 1214 C 554 1214 517 1196 490 1161 C 462 1126 449 1076 449 1012 L 449 0 L 158 0 L 158 682 L 16 682 L 16 928 L 158 928 L 158 1036 C 158 1106 168 1168 190 1221 C 211 1274 240 1318 278 1353 C 316 1388 360 1414 412 1432 C 463 1449 519 1458 580 1458 C 660 1458 731 1447 795 1426 C 859 1404 913 1373 958 1331 C 1003 1289 1038 1236 1062 1174 C 1086 1111 1098 1038 1098 956 C 1098 943 1097 929 1096 913 C 1094 897 1092 881 1090 865 C 1088 848 1085 832 1082 816 C 1079 800 1076 786 1073 774 C 1040 773 1010 770 982 766 C 954 761 930 754 910 746 C 890 738 874 728 863 716 C 851 704 846 690 846 676 C 846 656 853 640 867 627 C 881 614 904 604 936 596 C 1040 567 1116 526 1164 473 C 1211 420 1235 354 1235 274 Z" unicode="" />
<glyph horiz-adv-x="967" d="M 956 127 L 748 -41 C 734 -38 719 -33 705 -26 C 691 -19 677 -10 664 0 C 651 9 639 21 629 35 C 618 49 610 64 604 82 C 583 44 552 15 510 -3 C 468 -21 418 -31 362 -31 C 321 -31 282 -24 245 -10 C 207 4 174 24 146 50 C 118 76 95 109 78 147 C 61 185 53 228 53 276 C 53 318 60 357 76 392 C 92 427 114 458 142 484 C 170 510 204 532 243 548 C 282 564 325 575 371 580 L 555 598 L 555 629 C 555 657 543 679 520 696 C 496 712 460 721 410 721 C 364 721 318 714 272 701 C 226 687 186 670 152 649 L 98 877 C 116 889 138 900 163 910 C 188 920 215 928 243 935 C 271 942 301 948 332 952 C 362 956 393 958 424 958 C 485 958 541 951 593 937 C 645 923 689 902 726 874 C 763 846 792 811 813 769 C 833 727 844 679 844 623 L 844 319 C 844 265 853 222 873 192 C 892 162 920 140 956 127 Z M 555 324 L 555 406 L 442 395 C 403 391 375 378 357 355 C 339 332 330 307 330 279 C 330 253 338 232 355 214 C 372 196 395 188 424 188 C 442 188 459 191 475 198 C 491 204 504 214 516 226 C 528 238 537 252 544 269 C 551 285 555 304 555 324 Z M 590 1116 L 463 1063 C 413 1091 368 1121 326 1152 C 284 1182 245 1218 207 1260 C 197 1269 189 1279 183 1289 C 177 1299 174 1307 174 1315 C 174 1323 177 1332 185 1343 C 192 1354 201 1365 212 1375 C 222 1385 233 1394 245 1402 C 257 1409 267 1413 276 1413 C 283 1413 293 1409 305 1403 C 317 1396 327 1387 336 1376 C 353 1350 372 1326 393 1302 C 414 1278 436 1254 458 1232 C 480 1210 503 1189 525 1169 C 547 1149 569 1132 590 1116 Z" unicode="" />
<glyph horiz-adv-x="967" d="M 956 127 L 748 -41 C 734 -38 719 -33 705 -26 C 691 -19 677 -10 664 0 C 651 9 639 21 629 35 C 618 49 610 64 604 82 C 583 44 552 15 510 -3 C 468 -21 418 -31 362 -31 C 321 -31 282 -24 245 -10 C 207 4 174 24 146 50 C 118 76 95 109 78 147 C 61 185 53 228 53 276 C 53 318 60 357 76 392 C 92 427 114 458 142 484 C 170 510 204 532 243 548 C 282 564 325 575 371 580 L 555 598 L 555 629 C 555 657 543 679 520 696 C 496 712 460 721 410 721 C 364 721 318 714 272 701 C 226 687 186 670 152 649 L 98 877 C 116 889 138 900 163 910 C 188 920 215 928 243 935 C 271 942 301 948 332 952 C 362 956 393 958 424 958 C 485 958 541 951 593 937 C 645 923 689 902 726 874 C 763 846 792 811 813 769 C 833 727 844 679 844 623 L 844 319 C 844 265 853 222 873 192 C 892 162 920 140 956 127 Z M 555 324 L 555 406 L 442 395 C 403 391 375 378 357 355 C 339 332 330 307 330 279 C 330 253 338 232 355 214 C 372 196 395 188 424 188 C 442 188 459 191 475 198 C 491 204 504 214 516 226 C 528 238 537 252 544 269 C 551 285 555 304 555 324 Z M 700 1317 C 700 1311 697 1303 692 1293 C 686 1283 679 1274 670 1264 C 630 1222 589 1186 547 1154 C 504 1122 458 1091 408 1063 L 291 1112 C 311 1128 333 1147 355 1167 C 377 1187 400 1209 422 1232 C 444 1254 465 1278 486 1302 C 506 1326 525 1351 543 1376 C 551 1388 561 1398 573 1404 C 585 1410 594 1413 602 1413 C 610 1413 619 1409 630 1402 C 641 1394 652 1386 662 1376 C 672 1366 681 1355 689 1344 C 696 1333 700 1324 700 1317 Z" unicode="" />
<glyph horiz-adv-x="967" d="M 956 127 L 748 -41 C 734 -38 719 -33 705 -26 C 691 -19 677 -10 664 0 C 651 9 639 21 629 35 C 618 49 610 64 604 82 C 583 44 552 15 510 -3 C 468 -21 418 -31 362 -31 C 321 -31 282 -24 245 -10 C 207 4 174 24 146 50 C 118 76 95 109 78 147 C 61 185 53 228 53 276 C 53 318 60 357 76 392 C 92 427 114 458 142 484 C 170 510 204 532 243 548 C 282 564 325 575 371 580 L 555 598 L 555 629 C 555 657 543 679 520 696 C 496 712 460 721 410 721 C 364 721 318 714 272 701 C 226 687 186 670 152 649 L 98 877 C 116 889 138 900 163 910 C 188 920 215 928 243 935 C 271 942 301 948 332 952 C 362 956 393 958 424 958 C 485 958 541 951 593 937 C 645 923 689 902 726 874 C 763 846 792 811 813 769 C 833 727 844 679 844 623 L 844 319 C 844 265 853 222 873 192 C 892 162 920 140 956 127 Z M 555 324 L 555 406 L 442 395 C 403 391 375 378 357 355 C 339 332 330 307 330 279 C 330 253 338 232 355 214 C 372 196 395 188 424 188 C 442 188 459 191 475 198 C 491 204 504 214 516 226 C 528 238 537 252 544 269 C 551 285 555 304 555 324 Z M 774 1116 L 647 1063 C 612 1083 578 1104 545 1126 C 512 1148 481 1171 451 1196 C 421 1171 391 1148 360 1127 C 328 1106 296 1085 262 1065 L 145 1114 C 165 1130 187 1148 210 1168 C 232 1188 255 1209 277 1232 C 299 1254 320 1278 340 1302 C 360 1326 379 1351 397 1376 C 405 1387 415 1396 426 1403 C 437 1409 448 1413 459 1413 C 469 1413 479 1409 491 1403 C 502 1396 512 1387 520 1376 C 537 1351 556 1327 577 1303 C 598 1279 620 1255 642 1233 C 664 1211 686 1190 708 1170 C 730 1150 752 1132 774 1116 Z" unicode="" />
<glyph horiz-adv-x="967" d="M 956 127 L 748 -41 C 734 -38 719 -33 705 -26 C 691 -19 677 -10 664 0 C 651 9 639 21 629 35 C 618 49 610 64 604 82 C 583 44 552 15 510 -3 C 468 -21 418 -31 362 -31 C 321 -31 282 -24 245 -10 C 207 4 174 24 146 50 C 118 76 95 109 78 147 C 61 185 53 228 53 276 C 53 318 60 357 76 392 C 92 427 114 458 142 484 C 170 510 204 532 243 548 C 282 564 325 575 371 580 L 555 598 L 555 629 C 555 657 543 679 520 696 C 496 712 460 721 410 721 C 364 721 318 714 272 701 C 226 687 186 670 152 649 L 98 877 C 116 889 138 900 163 910 C 188 920 215 928 243 935 C 271 942 301 948 332 952 C 362 956 393 958 424 958 C 485 958 541 951 593 937 C 645 923 689 902 726 874 C 763 846 792 811 813 769 C 833 727 844 679 844 623 L 844 319 C 844 265 853 222 873 192 C 892 162 920 140 956 127 Z M 555 324 L 555 406 L 442 395 C 403 391 375 378 357 355 C 339 332 330 307 330 279 C 330 253 338 232 355 214 C 372 196 395 188 424 188 C 442 188 459 191 475 198 C 491 204 504 214 516 226 C 528 238 537 252 544 269 C 551 285 555 304 555 324 Z M 815 1335 C 804 1316 789 1292 769 1264 C 749 1236 728 1208 705 1182 C 682 1156 659 1133 636 1115 C 612 1096 591 1087 573 1087 C 557 1087 541 1091 523 1100 C 505 1109 487 1119 470 1130 C 452 1141 436 1151 420 1160 C 404 1169 391 1174 381 1174 C 371 1174 361 1170 350 1162 C 339 1154 328 1145 317 1134 C 305 1122 294 1110 283 1097 C 272 1084 262 1072 254 1061 L 129 1116 C 136 1128 145 1143 157 1161 C 168 1178 180 1196 194 1214 C 208 1232 222 1250 238 1268 C 254 1286 269 1302 285 1316 C 300 1330 315 1342 330 1351 C 345 1359 359 1364 371 1364 C 387 1364 404 1359 422 1350 C 440 1340 457 1330 475 1319 C 493 1308 509 1298 525 1289 C 541 1280 554 1276 565 1276 C 573 1276 583 1279 594 1287 C 605 1294 616 1303 627 1315 C 638 1326 649 1338 660 1352 C 671 1365 681 1377 690 1389 L 815 1335 Z" unicode="" />
<glyph horiz-adv-x="967" d="M 956 127 L 748 -41 C 734 -38 719 -33 705 -26 C 691 -19 677 -10 664 0 C 651 9 639 21 629 35 C 618 49 610 64 604 82 C 583 44 552 15 510 -3 C 468 -21 418 -31 362 -31 C 321 -31 282 -24 245 -10 C 207 4 174 24 146 50 C 118 76 95 109 78 147 C 61 185 53 228 53 276 C 53 318 60 357 76 392 C 92 427 114 458 142 484 C 170 510 204 532 243 548 C 282 564 325 575 371 580 L 555 598 L 555 629 C 555 657 543 679 520 696 C 496 712 460 721 410 721 C 364 721 318 714 272 701 C 226 687 186 670 152 649 L 98 877 C 116 889 138 900 163 910 C 188 920 215 928 243 935 C 271 942 301 948 332 952 C 362 956 393 958 424 958 C 485 958 541 951 593 937 C 645 923 689 902 726 874 C 763 846 792 811 813 769 C 833 727 844 679 844 623 L 844 319 C 844 265 853 222 873 192 C 892 162 920 140 956 127 Z M 555 324 L 555 406 L 442 395 C 403 391 375 378 357 355 C 339 332 330 307 330 279 C 330 253 338 232 355 214 C 372 196 395 188 424 188 C 442 188 459 191 475 198 C 491 204 504 214 516 226 C 528 238 537 252 544 269 C 551 285 555 304 555 324 Z M 729 1174 C 729 1165 724 1154 716 1141 C 707 1128 697 1115 685 1103 C 673 1091 660 1080 647 1072 C 634 1063 623 1059 614 1059 C 604 1059 593 1063 580 1072 C 567 1080 554 1091 542 1103 C 530 1115 519 1128 511 1141 C 502 1154 498 1165 498 1174 C 498 1182 502 1193 511 1207 C 519 1220 530 1233 542 1245 C 554 1257 567 1268 580 1277 C 593 1285 604 1290 614 1290 C 623 1290 634 1285 647 1277 C 660 1268 673 1257 685 1245 C 697 1233 707 1220 716 1207 C 724 1193 729 1182 729 1174 Z M 418 1174 C 418 1165 413 1154 405 1141 C 396 1128 385 1115 373 1103 C 361 1091 348 1080 335 1072 C 321 1063 310 1059 301 1059 C 292 1059 281 1063 268 1072 C 255 1080 242 1091 230 1103 C 218 1115 207 1128 199 1141 C 190 1154 186 1165 186 1174 C 186 1182 190 1193 199 1207 C 207 1220 218 1233 230 1245 C 242 1257 255 1268 268 1277 C 281 1285 292 1290 301 1290 C 310 1290 321 1285 335 1277 C 348 1268 361 1257 373 1245 C 385 1233 396 1220 405 1207 C 413 1193 418 1182 418 1174 Z" unicode="" />
<glyph horiz-adv-x="967" d="M 956 127 L 748 -41 C 734 -38 719 -33 705 -26 C 691 -19 677 -10 664 0 C 651 9 639 21 629 35 C 618 49 610 64 604 82 C 583 44 552 15 510 -3 C 468 -21 418 -31 362 -31 C 321 -31 282 -24 245 -10 C 207 4 174 24 146 50 C 118 76 95 109 78 147 C 61 185 53 228 53 276 C 53 318 60 357 76 392 C 92 427 114 458 142 484 C 170 510 204 532 243 548 C 282 564 325 575 371 580 L 555 598 L 555 629 C 555 657 543 679 520 696 C 496 712 460 721 410 721 C 364 721 318 714 272 701 C 226 687 186 670 152 649 L 98 877 C 116 889 138 900 163 910 C 188 920 215 928 243 935 C 271 942 301 948 332 952 C 362 956 393 958 424 958 C 485 958 541 951 593 937 C 645 923 689 902 726 874 C 763 846 792 811 813 769 C 833 727 844 679 844 623 L 844 319 C 844 265 853 222 873 192 C 892 162 920 140 956 127 Z M 555 324 L 555 406 L 442 395 C 403 391 375 378 357 355 C 339 332 330 307 330 279 C 330 253 338 232 355 214 C 372 196 395 188 424 188 C 442 188 459 191 475 198 C 491 204 504 214 516 226 C 528 238 537 252 544 269 C 551 285 555 304 555 324 Z M 659 1249 C 659 1219 653 1190 642 1164 C 630 1137 615 1114 595 1095 C 575 1075 551 1060 525 1049 C 498 1037 470 1032 440 1032 C 410 1032 382 1037 356 1049 C 330 1060 307 1075 287 1095 C 267 1114 252 1137 240 1164 C 228 1190 223 1219 223 1249 C 223 1279 228 1307 240 1333 C 252 1359 267 1382 287 1402 C 307 1422 330 1437 356 1449 C 382 1460 410 1466 440 1466 C 470 1466 498 1460 525 1449 C 551 1437 575 1422 595 1402 C 615 1382 630 1359 642 1333 C 653 1307 659 1279 659 1249 Z M 514 1249 C 514 1272 507 1291 493 1307 C 479 1323 461 1331 440 1331 C 418 1331 401 1323 388 1307 C 375 1291 369 1272 369 1249 C 369 1224 375 1204 388 1190 C 401 1176 418 1169 440 1169 C 461 1169 479 1176 493 1190 C 507 1204 514 1224 514 1249 Z" unicode="" />
<glyph horiz-adv-x="1481" d="M 1430 588 C 1430 576 1429 564 1427 550 C 1425 536 1423 525 1421 516 L 1288 381 L 834 381 C 837 361 846 342 860 323 C 874 303 893 286 917 271 C 941 255 969 243 1001 233 C 1033 223 1068 219 1108 219 C 1157 219 1205 225 1251 238 C 1297 251 1335 268 1366 289 L 1337 31 C 1301 12 1257 -2 1206 -14 C 1155 -25 1100 -31 1040 -31 C 970 -31 904 -19 843 5 C 782 29 731 67 690 119 C 667 89 643 64 618 45 C 593 25 567 10 540 -1 C 512 -12 484 -20 454 -24 C 424 -28 394 -31 362 -31 C 321 -31 282 -24 245 -10 C 207 4 174 24 146 50 C 118 76 95 109 78 147 C 61 185 53 228 53 276 C 53 318 60 357 76 392 C 92 427 114 458 142 484 C 170 510 204 532 243 548 C 282 564 325 575 371 580 L 555 598 C 556 604 558 611 561 621 C 564 631 567 639 569 645 C 563 666 546 684 520 699 C 494 713 457 721 410 721 C 364 721 318 714 272 701 C 226 687 186 670 152 649 L 98 877 C 116 889 138 900 163 910 C 188 920 215 928 243 935 C 271 942 301 948 332 952 C 362 956 393 958 424 958 C 490 958 547 948 594 929 C 641 910 681 881 713 842 C 753 881 798 910 850 929 C 901 948 956 958 1014 958 C 1078 958 1136 947 1188 927 C 1239 906 1283 879 1319 845 C 1355 811 1382 771 1401 727 C 1420 682 1430 636 1430 588 Z M 1149 602 C 1149 618 1145 633 1139 649 C 1133 665 1124 679 1112 691 C 1100 703 1086 713 1070 721 C 1053 729 1034 733 1014 733 C 992 733 972 729 952 721 C 932 713 914 702 898 689 C 882 675 868 659 857 641 C 845 622 838 602 834 582 L 1147 582 C 1147 586 1147 589 1148 592 C 1148 594 1149 598 1149 602 Z M 573 293 C 567 310 562 328 559 346 C 555 364 553 383 551 403 L 442 395 C 403 391 375 378 357 355 C 339 332 330 307 330 279 C 330 253 339 232 358 214 C 377 196 401 188 430 188 C 460 188 488 196 514 213 C 540 230 559 257 573 293 Z" unicode="" />
<glyph horiz-adv-x="911" d="M 575 -20 L 569 -51 C 589 -52 610 -57 630 -67 C 650 -76 669 -89 685 -105 C 701 -121 714 -139 724 -161 C 734 -183 739 -207 739 -233 C 739 -263 733 -290 721 -314 C 709 -337 694 -356 675 -372 C 656 -388 634 -400 610 -408 C 586 -416 561 -420 537 -420 C 509 -420 483 -415 459 -407 C 434 -398 413 -389 397 -379 L 422 -270 C 436 -279 453 -287 472 -293 C 491 -299 510 -303 530 -303 C 550 -303 567 -296 580 -284 C 593 -271 600 -255 600 -236 C 600 -225 598 -215 594 -207 C 590 -199 585 -192 579 -187 C 573 -181 567 -177 561 -174 C 554 -171 548 -170 543 -170 C 518 -170 500 -163 488 -149 C 476 -135 473 -116 479 -94 L 498 -16 C 438 -10 382 5 328 30 C 274 54 227 87 187 128 C 146 169 114 218 90 274 C 66 330 55 393 55 463 C 55 539 69 607 97 667 C 125 727 162 777 208 819 C 254 861 307 893 367 915 C 426 937 487 948 551 948 C 613 948 669 942 719 930 C 769 918 814 901 856 879 L 801 629 C 769 648 738 663 706 673 C 674 683 639 688 602 688 C 569 688 538 682 510 671 C 481 659 456 644 435 624 C 414 604 397 580 385 552 C 373 524 367 493 367 459 C 367 425 373 395 385 367 C 397 339 414 314 436 294 C 457 273 482 257 512 246 C 542 234 574 229 608 229 C 647 229 682 233 714 242 C 745 250 777 263 811 281 L 784 25 C 755 11 723 1 688 -6 C 652 -14 615 -18 575 -20 Z" unicode="" />
<glyph horiz-adv-x="1004" d="M 952 588 C 952 576 951 564 949 550 C 947 536 946 525 944 516 L 811 381 L 356 381 C 360 361 369 342 383 323 C 397 304 416 287 440 271 C 463 255 491 243 523 233 C 555 223 591 219 631 219 C 655 219 679 220 703 224 C 727 227 750 232 772 238 C 794 244 814 252 834 261 C 854 269 871 279 887 289 L 858 31 C 822 12 779 -2 729 -14 C 678 -25 623 -31 563 -31 C 492 -31 426 -19 364 4 C 302 28 248 61 202 105 C 156 149 119 201 93 263 C 66 324 53 393 53 469 C 53 543 65 611 91 671 C 116 731 151 783 195 825 C 239 867 290 900 349 923 C 407 946 470 958 537 958 C 601 958 659 947 711 927 C 762 906 805 879 841 845 C 877 811 904 771 923 727 C 942 682 952 636 952 588 Z M 672 602 C 672 618 668 633 662 649 C 655 665 646 679 634 691 C 622 703 607 713 591 721 C 575 729 557 733 537 733 C 515 733 494 729 474 721 C 454 713 437 702 421 689 C 405 675 391 659 380 641 C 368 622 360 602 356 582 L 670 582 C 670 585 670 588 671 591 C 671 594 672 598 672 602 Z M 705 1116 L 578 1063 C 528 1091 482 1121 440 1152 C 398 1182 358 1218 319 1260 C 309 1269 302 1279 297 1289 C 291 1299 289 1307 289 1315 C 289 1323 292 1332 300 1343 C 307 1354 316 1365 326 1375 C 336 1385 347 1394 359 1402 C 371 1409 381 1413 389 1413 C 397 1413 408 1410 420 1404 C 432 1398 442 1388 451 1376 C 469 1351 488 1327 509 1303 C 529 1279 551 1255 573 1233 C 595 1211 617 1190 639 1170 C 661 1150 683 1132 705 1116 Z" unicode="" />
<glyph horiz-adv-x="1004" d="M 952 588 C 952 576 951 564 949 550 C 947 536 946 525 944 516 L 811 381 L 356 381 C 360 361 369 342 383 323 C 397 304 416 287 440 271 C 463 255 491 243 523 233 C 555 223 591 219 631 219 C 655 219 679 220 703 224 C 727 227 750 232 772 238 C 794 244 814 252 834 261 C 854 269 871 279 887 289 L 858 31 C 822 12 779 -2 729 -14 C 678 -25 623 -31 563 -31 C 492 -31 426 -19 364 4 C 302 28 248 61 202 105 C 156 149 119 201 93 263 C 66 324 53 393 53 469 C 53 543 65 611 91 671 C 116 731 151 783 195 825 C 239 867 290 900 349 923 C 407 946 470 958 537 958 C 601 958 659 947 711 927 C 762 906 805 879 841 845 C 877 811 904 771 923 727 C 942 682 952 636 952 588 Z M 672 602 C 672 618 668 633 662 649 C 655 665 646 679 634 691 C 622 703 607 713 591 721 C 575 729 557 733 537 733 C 515 733 494 729 474 721 C 454 713 437 702 421 689 C 405 675 391 659 380 641 C 368 622 360 602 356 582 L 670 582 C 670 585 670 588 671 591 C 671 594 672 598 672 602 Z M 782 1317 C 782 1301 772 1284 752 1264 C 712 1222 671 1186 629 1154 C 586 1122 539 1091 489 1061 L 373 1112 C 393 1128 415 1147 437 1167 C 459 1187 482 1209 504 1232 C 526 1254 547 1278 568 1302 C 588 1326 607 1351 625 1376 C 634 1388 644 1398 656 1404 C 667 1410 676 1413 684 1413 C 692 1413 701 1409 712 1402 C 723 1394 734 1386 744 1376 C 754 1366 763 1355 771 1344 C 778 1333 782 1324 782 1317 Z" unicode="" />
<glyph horiz-adv-x="1004" d="M 952 588 C 952 576 951 564 949 550 C 947 536 946 525 944 516 L 811 381 L 356 381 C 360 361 369 342 383 323 C 397 304 416 287 440 271 C 463 255 491 243 523 233 C 555 223 591 219 631 219 C 655 219 679 220 703 224 C 727 227 750 232 772 238 C 794 244 814 252 834 261 C 854 269 871 279 887 289 L 858 31 C 822 12 779 -2 729 -14 C 678 -25 623 -31 563 -31 C 492 -31 426 -19 364 4 C 302 28 248 61 202 105 C 156 149 119 201 93 263 C 66 324 53 393 53 469 C 53 543 65 611 91 671 C 116 731 151 783 195 825 C 239 867 290 900 349 923 C 407 946 470 958 537 958 C 601 958 659 947 711 927 C 762 906 805 879 841 845 C 877 811 904 771 923 727 C 942 682 952 636 952 588 Z M 672 602 C 672 618 668 633 662 649 C 655 665 646 679 634 691 C 622 703 607 713 591 721 C 575 729 557 733 537 733 C 515 733 494 729 474 721 C 454 713 437 702 421 689 C 405 675 391 659 380 641 C 368 622 360 602 356 582 L 670 582 C 670 585 670 588 671 591 C 671 594 672 598 672 602 Z M 848 1116 L 721 1063 C 687 1083 653 1104 620 1126 C 586 1148 555 1171 526 1196 C 497 1171 467 1148 436 1127 C 404 1106 371 1085 336 1065 L 219 1114 C 239 1130 261 1148 283 1168 C 305 1188 328 1209 350 1232 C 372 1254 393 1278 414 1302 C 435 1326 455 1351 473 1376 C 481 1387 490 1396 501 1403 C 512 1409 522 1413 532 1413 C 542 1413 553 1409 565 1403 C 576 1396 586 1387 594 1376 C 611 1351 630 1327 651 1303 C 672 1279 694 1255 716 1233 C 738 1211 761 1190 783 1170 C 805 1150 827 1132 848 1116 Z" unicode="" />
<glyph horiz-adv-x="1004" d="M 952 588 C 952 576 951 564 949 550 C 947 536 946 525 944 516 L 811 381 L 356 381 C 360 361 369 342 383 323 C 397 304 416 287 440 271 C 463 255 491 243 523 233 C 555 223 591 219 631 219 C 655 219 679 220 703 224 C 727 227 750 232 772 238 C 794 244 814 252 834 261 C 854 269 871 279 887 289 L 858 31 C 822 12 779 -2 729 -14 C 678 -25 623 -31 563 -31 C 492 -31 426 -19 364 4 C 302 28 248 61 202 105 C 156 149 119 201 93 263 C 66 324 53 393 53 469 C 53 543 65 611 91 671 C 116 731 151 783 195 825 C 239 867 290 900 349 923 C 407 946 470 958 537 958 C 601 958 659 947 711 927 C 762 906 805 879 841 845 C 877 811 904 771 923 727 C 942 682 952 636 952 588 Z M 672 602 C 672 618 668 633 662 649 C 655 665 646 679 634 691 C 622 703 607 713 591 721 C 575 729 557 733 537 733 C 515 733 494 729 474 721 C 454 713 437 702 421 689 C 405 675 391 659 380 641 C 368 622 360 602 356 582 L 670 582 C 670 585 670 588 671 591 C 671 594 672 598 672 602 Z M 791 1174 C 791 1165 786 1154 778 1141 C 770 1128 760 1115 748 1103 C 736 1091 723 1080 710 1072 C 697 1063 686 1059 676 1059 C 666 1059 655 1063 642 1072 C 628 1080 615 1091 603 1103 C 591 1115 580 1128 572 1141 C 563 1154 559 1165 559 1174 C 559 1182 563 1193 572 1207 C 580 1220 591 1233 603 1245 C 615 1257 628 1268 642 1277 C 655 1285 666 1290 676 1290 C 686 1290 697 1285 710 1277 C 723 1268 736 1257 748 1245 C 760 1233 770 1220 778 1207 C 786 1193 791 1182 791 1174 Z M 479 1174 C 479 1165 474 1154 466 1141 C 457 1128 447 1115 435 1103 C 423 1091 410 1080 397 1072 C 383 1063 372 1059 362 1059 C 353 1059 342 1063 329 1072 C 316 1080 304 1091 292 1103 C 280 1115 269 1128 261 1141 C 252 1154 248 1165 248 1174 C 248 1182 252 1193 261 1207 C 269 1220 280 1233 292 1245 C 304 1257 316 1268 329 1277 C 342 1285 353 1290 362 1290 C 372 1290 383 1285 397 1277 C 410 1268 423 1257 435 1245 C 447 1233 457 1220 466 1207 C 474 1193 479 1182 479 1174 Z" unicode="" />
<glyph horiz-adv-x="504" d="M 403 0 L 100 0 L 100 928 L 403 928 L 403 0 Z M 424 1116 L 297 1061 C 247 1091 202 1121 160 1152 C 118 1182 78 1218 39 1260 C 29 1269 22 1279 16 1289 C 10 1299 8 1307 8 1315 C 8 1323 11 1332 19 1343 C 26 1354 35 1365 46 1375 C 56 1385 67 1394 79 1402 C 91 1409 101 1413 109 1413 C 117 1413 127 1409 139 1403 C 151 1396 162 1386 170 1374 C 187 1349 206 1325 227 1301 C 248 1277 270 1253 292 1231 C 314 1209 336 1188 358 1168 C 380 1148 402 1131 424 1116 Z" unicode="" />
<glyph horiz-adv-x="504" d="M 403 0 L 100 0 L 100 928 L 403 928 L 403 0 Z M 500 1317 C 500 1309 497 1301 491 1292 C 485 1283 478 1274 469 1264 C 429 1222 388 1186 346 1154 C 303 1122 257 1091 207 1061 L 90 1112 C 110 1128 132 1147 154 1167 C 176 1187 199 1209 221 1232 C 243 1254 264 1278 285 1302 C 305 1326 324 1351 342 1376 C 350 1388 360 1398 372 1404 C 384 1410 393 1413 401 1413 C 409 1413 418 1409 429 1402 C 440 1394 451 1386 462 1376 C 472 1366 481 1355 489 1344 C 496 1333 500 1324 500 1317 Z" unicode="" />
<glyph horiz-adv-x="504" d="M 403 0 L 100 0 L 100 928 L 403 928 L 403 0 Z M 571 1116 L 444 1063 C 409 1083 375 1104 342 1126 C 309 1148 278 1171 250 1196 C 221 1171 191 1148 159 1127 C 127 1106 94 1085 59 1065 L -57 1114 C -36 1130 -14 1148 7 1168 C 29 1188 52 1209 74 1232 C 96 1254 117 1278 138 1302 C 158 1326 177 1351 195 1376 C 203 1387 212 1396 224 1403 C 235 1409 246 1413 256 1413 C 266 1413 276 1409 288 1403 C 299 1396 309 1387 317 1376 C 334 1351 353 1327 374 1303 C 395 1279 417 1255 439 1233 C 461 1211 483 1190 505 1170 C 527 1150 549 1132 571 1116 Z" unicode="" />
<glyph horiz-adv-x="504" d="M 403 0 L 100 0 L 100 928 L 403 928 L 403 0 Z M 524 1174 C 524 1165 519 1154 511 1141 C 502 1128 492 1115 480 1103 C 468 1091 455 1080 442 1072 C 429 1063 418 1059 410 1059 C 400 1059 389 1063 376 1072 C 362 1080 349 1091 337 1103 C 325 1115 314 1128 306 1141 C 297 1154 293 1165 293 1174 C 293 1182 297 1193 306 1207 C 314 1220 325 1233 337 1245 C 349 1257 362 1268 376 1277 C 389 1285 400 1290 410 1290 C 418 1290 429 1285 442 1277 C 455 1268 468 1257 480 1245 C 492 1233 502 1220 511 1207 C 519 1193 524 1182 524 1174 Z M 213 1174 C 213 1165 208 1154 200 1141 C 191 1128 180 1115 168 1103 C 156 1091 143 1080 130 1072 C 116 1063 105 1059 96 1059 C 86 1059 75 1063 62 1072 C 49 1080 37 1091 25 1103 C 13 1115 2 1128 -5 1141 C -13 1154 -18 1165 -18 1174 C -18 1182 -13 1193 -5 1207 C 2 1220 13 1233 25 1245 C 37 1257 49 1268 62 1277 C 75 1285 86 1290 96 1290 C 105 1290 116 1285 130 1277 C 143 1268 156 1257 168 1245 C 180 1233 191 1220 200 1207 C 208 1193 213 1182 213 1174 Z" unicode="" />
<glyph horiz-adv-x="1063" d="M 997 440 C 997 369 985 305 962 247 C 939 189 907 140 866 99 C 824 58 774 26 716 4 C 658 -17 594 -29 524 -29 C 453 -29 389 -17 331 5 C 273 28 224 60 183 100 C 142 140 110 188 88 242 C 66 296 55 355 55 418 C 55 466 61 512 75 554 C 88 596 106 633 130 667 C 153 701 180 730 212 756 C 244 782 278 803 315 819 C 344 831 378 844 417 857 C 455 869 493 880 530 889 L 463 1051 L 303 987 L 219 1194 L 375 1257 L 291 1458 L 610 1458 L 647 1366 L 774 1417 L 858 1210 L 735 1159 L 952 641 C 958 627 963 611 969 595 C 974 578 979 561 983 543 C 987 525 990 507 993 489 C 995 471 997 455 997 440 Z M 702 434 C 702 448 699 464 694 483 C 689 501 683 521 676 541 C 668 561 660 580 652 599 C 643 618 635 635 629 649 C 580 643 530 629 479 608 C 437 591 405 567 381 535 C 357 503 346 465 346 420 C 346 393 350 368 359 346 C 368 323 380 303 396 287 C 412 271 430 258 452 249 C 473 240 496 236 522 236 C 548 236 572 240 594 250 C 616 259 635 272 651 289 C 667 306 679 327 688 352 C 697 376 702 404 702 434 Z" unicode="" />
<glyph horiz-adv-x="1067" d="M 977 0 L 676 0 L 676 569 C 676 585 673 601 667 617 C 661 633 653 646 642 658 C 630 669 616 678 599 685 C 581 692 561 696 539 696 C 516 696 496 692 478 686 C 460 679 444 670 431 658 C 418 646 408 633 401 617 C 394 601 391 583 391 565 L 391 0 L 90 0 L 90 928 L 367 928 L 367 803 L 369 803 C 387 852 420 890 468 916 C 515 942 576 956 651 956 C 701 956 747 949 787 935 C 827 921 862 900 890 874 C 918 848 939 815 954 777 C 969 738 977 694 977 645 L 977 0 Z M 891 1335 C 880 1316 865 1292 845 1264 C 825 1236 804 1208 781 1182 C 758 1156 735 1133 712 1115 C 688 1096 667 1087 649 1087 C 633 1087 617 1091 599 1100 C 581 1109 563 1119 546 1130 C 528 1141 512 1151 496 1160 C 480 1169 467 1174 457 1174 C 447 1174 437 1170 426 1162 C 415 1154 404 1145 393 1134 C 381 1122 370 1110 359 1097 C 348 1084 338 1072 330 1061 L 205 1116 C 212 1128 221 1143 233 1161 C 244 1178 256 1196 270 1214 C 284 1232 298 1250 314 1268 C 329 1286 344 1302 360 1316 C 376 1330 391 1342 406 1351 C 420 1359 434 1364 446 1364 C 462 1364 479 1359 497 1350 C 515 1340 533 1330 551 1319 C 569 1308 585 1298 601 1289 C 617 1280 630 1276 641 1276 C 649 1276 659 1279 670 1287 C 681 1294 692 1303 703 1315 C 714 1326 725 1338 736 1352 C 747 1365 757 1377 766 1389 L 891 1335 Z" unicode="" />
<glyph horiz-adv-x="1122" d="M 1067 465 C 1067 391 1053 323 1027 263 C 1000 202 964 150 918 107 C 872 63 819 30 758 6 C 696 -17 631 -29 561 -29 C 491 -29 425 -17 364 6 C 302 30 249 63 203 107 C 157 150 120 202 94 263 C 68 323 55 391 55 465 C 55 539 68 606 94 666 C 120 726 157 778 203 822 C 249 865 302 898 364 922 C 425 946 491 958 561 958 C 631 958 696 946 758 922 C 819 898 872 865 918 822 C 964 778 1000 726 1027 666 C 1053 606 1067 539 1067 465 Z M 770 461 C 770 495 764 526 753 555 C 741 584 726 609 707 630 C 687 650 665 666 640 678 C 615 690 589 696 561 696 C 533 696 506 690 481 678 C 455 666 433 650 414 630 C 395 609 380 584 369 555 C 357 526 352 495 352 461 C 352 427 357 395 369 366 C 380 337 395 312 414 291 C 433 270 455 254 481 242 C 506 230 533 225 561 225 C 589 225 615 230 640 242 C 665 254 687 270 707 291 C 726 312 741 337 753 366 C 764 395 770 427 770 461 Z M 725 1116 L 598 1061 C 548 1091 503 1121 461 1152 C 419 1182 379 1218 340 1260 C 330 1269 323 1279 317 1289 C 311 1299 309 1307 309 1315 C 309 1323 312 1332 320 1343 C 327 1354 336 1365 347 1375 C 357 1385 368 1394 380 1402 C 392 1409 402 1413 410 1413 C 418 1413 428 1409 440 1403 C 452 1396 463 1386 471 1374 C 488 1349 507 1325 528 1301 C 549 1277 571 1253 593 1231 C 615 1209 637 1188 659 1168 C 681 1148 703 1131 725 1116 Z" unicode="" />
<glyph horiz-adv-x="1122" d="M 1067 465 C 1067 391 1053 323 1027 263 C 1000 202 964 150 918 107 C 872 63 819 30 758 6 C 696 -17 631 -29 561 -29 C 491 -29 425 -17 364 6 C 302 30 249 63 203 107 C 157 150 120 202 94 263 C 68 323 55 391 55 465 C 55 539 68 606 94 666 C 120 726 157 778 203 822 C 249 865 302 898 364 922 C 425 946 491 958 561 958 C 631 958 696 946 758 922 C 819 898 872 865 918 822 C 964 778 1000 726 1027 666 C 1053 606 1067 539 1067 465 Z M 770 461 C 770 495 764 526 753 555 C 741 584 726 609 707 630 C 687 650 665 666 640 678 C 615 690 589 696 561 696 C 533 696 506 690 481 678 C 455 666 433 650 414 630 C 395 609 380 584 369 555 C 357 526 352 495 352 461 C 352 427 357 395 369 366 C 380 337 395 312 414 291 C 433 270 455 254 481 242 C 506 230 533 225 561 225 C 589 225 615 230 640 242 C 665 254 687 270 707 291 C 726 312 741 337 753 366 C 764 395 770 427 770 461 Z M 809 1317 C 809 1302 799 1284 780 1264 C 740 1222 698 1186 655 1154 C 612 1122 566 1091 516 1061 L 401 1112 C 421 1128 443 1147 466 1167 C 488 1187 511 1209 533 1232 C 555 1254 576 1278 596 1302 C 616 1326 635 1351 653 1376 C 661 1388 672 1398 684 1404 C 696 1410 705 1413 713 1413 C 720 1413 729 1409 740 1402 C 751 1394 762 1386 772 1376 C 782 1366 790 1355 798 1344 C 805 1333 809 1324 809 1317 Z" unicode="" />
<glyph horiz-adv-x="1122" d="M 1067 465 C 1067 391 1053 323 1027 263 C 1000 202 964 150 918 107 C 872 63 819 30 758 6 C 696 -17 631 -29 561 -29 C 491 -29 425 -17 364 6 C 302 30 249 63 203 107 C 157 150 120 202 94 263 C 68 323 55 391 55 465 C 55 539 68 606 94 666 C 120 726 157 778 203 822 C 249 865 302 898 364 922 C 425 946 491 958 561 958 C 631 958 696 946 758 922 C 819 898 872 865 918 822 C 964 778 1000 726 1027 666 C 1053 606 1067 539 1067 465 Z M 770 461 C 770 495 764 526 753 555 C 741 584 726 609 707 630 C 687 650 665 666 640 678 C 615 690 589 696 561 696 C 533 696 506 690 481 678 C 455 666 433 650 414 630 C 395 609 380 584 369 555 C 357 526 352 495 352 461 C 352 427 357 395 369 366 C 380 337 395 312 414 291 C 433 270 455 254 481 242 C 506 230 533 225 561 225 C 589 225 615 230 640 242 C 665 254 687 270 707 291 C 726 312 741 337 753 366 C 764 395 770 427 770 461 Z M 877 1116 L 750 1063 C 714 1083 680 1104 647 1126 C 614 1148 583 1171 555 1196 C 526 1171 496 1148 464 1127 C 432 1106 399 1085 365 1065 L 248 1114 C 268 1130 290 1148 313 1168 C 335 1188 358 1209 380 1232 C 402 1254 423 1278 444 1302 C 465 1326 484 1351 502 1376 C 510 1387 519 1396 530 1403 C 540 1409 551 1413 561 1413 C 571 1413 582 1409 593 1403 C 604 1396 614 1387 623 1376 C 640 1351 659 1327 680 1303 C 700 1279 722 1255 744 1233 C 766 1211 789 1190 811 1170 C 833 1150 855 1132 877 1116 Z" unicode="" />
<glyph horiz-adv-x="1122" d="M 1067 465 C 1067 391 1053 323 1027 263 C 1000 202 964 150 918 107 C 872 63 819 30 758 6 C 696 -17 631 -29 561 -29 C 491 -29 425 -17 364 6 C 302 30 249 63 203 107 C 157 150 120 202 94 263 C 68 323 55 391 55 465 C 55 539 68 606 94 666 C 120 726 157 778 203 822 C 249 865 302 898 364 922 C 425 946 491 958 561 958 C 631 958 696 946 758 922 C 819 898 872 865 918 822 C 964 778 1000 726 1027 666 C 1053 606 1067 539 1067 465 Z M 770 461 C 770 495 764 526 753 555 C 741 584 726 609 707 630 C 687 650 665 666 640 678 C 615 690 589 696 561 696 C 533 696 506 690 481 678 C 455 666 433 650 414 630 C 395 609 380 584 369 555 C 357 526 352 495 352 461 C 352 427 357 395 369 366 C 380 337 395 312 414 291 C 433 270 455 254 481 242 C 506 230 533 225 561 225 C 589 225 615 230 640 242 C 665 254 687 270 707 291 C 726 312 741 337 753 366 C 764 395 770 427 770 461 Z M 911 1335 C 900 1316 885 1292 866 1264 C 846 1236 825 1208 802 1182 C 779 1156 756 1133 733 1115 C 709 1096 688 1087 670 1087 C 654 1087 638 1091 620 1100 C 602 1109 584 1119 566 1130 C 548 1141 532 1151 516 1160 C 500 1169 487 1174 477 1174 C 467 1174 457 1170 446 1162 C 435 1154 424 1145 413 1134 C 401 1122 390 1110 380 1097 C 369 1084 360 1072 352 1061 L 225 1116 C 232 1128 241 1143 253 1161 C 264 1178 276 1196 290 1214 C 304 1232 318 1250 334 1268 C 350 1286 365 1302 381 1316 C 397 1330 412 1342 427 1351 C 442 1359 456 1364 469 1364 C 484 1364 501 1359 519 1350 C 537 1340 554 1330 572 1319 C 589 1308 605 1298 621 1289 C 637 1280 650 1276 662 1276 C 670 1276 680 1279 691 1287 C 702 1294 713 1303 725 1315 C 736 1326 747 1338 758 1352 C 768 1365 778 1377 786 1389 L 911 1335 Z" unicode="" />
<glyph horiz-adv-x="1122" d="M 1067 465 C 1067 391 1053 323 1027 263 C 1000 202 964 150 918 107 C 872 63 819 30 758 6 C 696 -17 631 -29 561 -29 C 491 -29 425 -17 364 6 C 302 30 249 63 203 107 C 157 150 120 202 94 263 C 68 323 55 391 55 465 C 55 539 68 606 94 666 C 120 726 157 778 203 822 C 249 865 302 898 364 922 C 425 946 491 958 561 958 C 631 958 696 946 758 922 C 819 898 872 865 918 822 C 964 778 1000 726 1027 666 C 1053 606 1067 539 1067 465 Z M 770 461 C 770 495 764 526 753 555 C 741 584 726 609 707 630 C 687 650 665 666 640 678 C 615 690 589 696 561 696 C 533 696 506 690 481 678 C 455 666 433 650 414 630 C 395 609 380 584 369 555 C 357 526 352 495 352 461 C 352 427 357 395 369 366 C 380 337 395 312 414 291 C 433 270 455 254 481 242 C 506 230 533 225 561 225 C 589 225 615 230 640 242 C 665 254 687 270 707 291 C 726 312 741 337 753 366 C 764 395 770 427 770 461 Z M 829 1174 C 829 1165 824 1154 816 1141 C 808 1128 798 1115 786 1103 C 774 1091 762 1080 749 1072 C 736 1063 725 1059 715 1059 C 705 1059 694 1063 681 1072 C 667 1080 654 1091 642 1103 C 630 1115 619 1128 611 1141 C 602 1154 598 1165 598 1174 C 598 1182 602 1193 611 1207 C 619 1220 630 1233 642 1245 C 654 1257 667 1268 681 1277 C 694 1285 705 1290 715 1290 C 725 1290 736 1285 749 1277 C 762 1268 774 1257 786 1245 C 798 1233 808 1220 816 1207 C 824 1193 829 1182 829 1174 Z M 518 1174 C 518 1165 513 1154 505 1141 C 496 1128 486 1115 474 1103 C 462 1091 449 1080 436 1072 C 422 1063 411 1059 401 1059 C 392 1059 381 1063 368 1072 C 355 1080 343 1091 331 1103 C 319 1115 308 1128 300 1141 C 291 1154 287 1165 287 1174 C 287 1182 291 1193 300 1207 C 308 1220 319 1233 331 1245 C 343 1257 355 1268 368 1277 C 381 1285 392 1290 401 1290 C 411 1290 422 1285 436 1277 C 449 1268 462 1257 474 1245 C 486 1233 496 1220 505 1207 C 513 1193 518 1182 518 1174 Z" unicode="" />
<glyph horiz-adv-x="909" d="M 594 887 C 594 875 588 862 578 846 C 568 830 555 814 541 800 C 527 786 512 773 496 763 C 480 753 466 748 455 748 C 443 748 430 753 414 763 C 398 773 382 786 368 800 C 353 814 340 830 330 846 C 320 862 315 875 315 887 C 315 897 320 910 330 926 C 340 942 353 957 368 971 C 382 985 398 998 414 1008 C 430 1018 443 1024 455 1024 C 466 1024 480 1019 496 1009 C 512 999 527 986 541 972 C 555 958 568 943 578 927 C 588 911 594 898 594 887 Z M 850 451 L 59 451 L 59 680 L 850 680 L 850 451 Z M 594 246 C 594 234 588 221 578 205 C 568 189 555 173 541 159 C 527 144 512 131 496 121 C 480 111 466 106 455 106 C 443 106 430 111 414 121 C 398 131 382 144 368 159 C 353 173 340 189 330 205 C 320 221 315 234 315 246 C 315 256 320 270 330 286 C 340 302 353 317 368 332 C 382 346 398 359 414 369 C 430 379 443 385 455 385 C 466 385 480 379 496 369 C 512 359 527 346 541 332 C 555 318 568 303 578 287 C 588 271 594 257 594 246 Z" unicode="" />
<glyph horiz-adv-x="1122" d="M 1067 465 C 1067 391 1053 323 1027 263 C 1000 202 964 150 918 107 C 872 63 819 30 758 6 C 696 -17 631 -29 561 -29 C 513 -29 466 -23 422 -12 C 378 0 337 15 299 37 L 217 -66 L 115 18 L 193 117 C 149 160 115 211 91 269 C 67 327 55 393 55 465 C 55 539 68 606 94 666 C 120 726 157 778 203 822 C 249 865 302 898 364 922 C 425 946 491 958 561 958 C 608 958 653 952 697 941 C 740 929 781 913 819 893 L 901 993 L 1001 909 L 926 815 C 970 771 1004 720 1029 661 C 1054 602 1067 537 1067 465 Z M 807 459 C 807 489 803 517 795 543 C 787 569 777 592 764 614 L 444 217 C 480 196 519 186 561 186 C 593 186 624 192 654 206 C 684 220 710 239 733 263 C 755 287 773 316 787 350 C 800 383 807 419 807 459 Z M 670 707 C 636 725 599 735 561 735 C 527 735 496 728 466 714 C 436 700 410 680 388 656 C 365 631 347 602 334 568 C 321 534 315 498 315 459 C 315 431 318 404 325 380 C 331 356 340 333 352 313 L 670 707 Z" unicode="" />
<glyph horiz-adv-x="1067" d="M 977 0 L 702 0 L 702 127 L 700 127 C 682 77 648 39 600 13 C 552 -13 490 -27 416 -27 C 365 -27 319 -20 279 -6 C 239 7 205 27 177 54 C 149 80 127 113 112 151 C 97 189 90 233 90 283 L 90 928 L 391 928 L 391 358 C 391 341 394 325 400 310 C 406 294 414 281 426 269 C 437 257 451 248 469 241 C 486 234 506 231 530 231 C 552 231 573 234 591 241 C 609 248 624 258 637 270 C 649 282 659 296 666 312 C 672 328 676 346 676 365 L 676 928 L 977 928 L 977 0 Z M 705 1116 L 578 1061 C 528 1090 482 1120 440 1151 C 398 1182 357 1218 319 1260 C 309 1269 302 1279 297 1289 C 291 1299 289 1307 289 1315 C 289 1323 292 1332 300 1343 C 307 1354 316 1365 326 1375 C 336 1385 347 1394 359 1402 C 371 1409 381 1413 389 1413 C 397 1413 407 1409 419 1403 C 431 1396 441 1386 451 1374 C 467 1349 486 1325 507 1301 C 527 1277 549 1253 571 1231 C 593 1209 616 1188 639 1168 C 661 1148 683 1131 705 1116 Z" unicode="" />
<glyph horiz-adv-x="1067" d="M 977 0 L 702 0 L 702 127 L 700 127 C 682 77 648 39 600 13 C 552 -13 490 -27 416 -27 C 365 -27 319 -20 279 -6 C 239 7 205 27 177 54 C 149 80 127 113 112 151 C 97 189 90 233 90 283 L 90 928 L 391 928 L 391 358 C 391 341 394 325 400 310 C 406 294 414 281 426 269 C 437 257 451 248 469 241 C 486 234 506 231 530 231 C 552 231 573 234 591 241 C 609 248 624 258 637 270 C 649 282 659 296 666 312 C 672 328 676 346 676 365 L 676 928 L 977 928 L 977 0 Z M 782 1317 C 782 1309 779 1301 774 1292 C 768 1283 761 1274 752 1264 C 712 1222 671 1186 628 1154 C 585 1122 539 1091 489 1063 L 373 1112 C 393 1128 415 1147 437 1167 C 459 1187 482 1209 504 1232 C 526 1254 547 1278 568 1302 C 588 1326 607 1351 625 1376 C 633 1388 643 1398 655 1404 C 667 1410 676 1413 684 1413 C 692 1413 701 1409 712 1402 C 723 1394 734 1386 744 1376 C 754 1366 763 1355 771 1344 C 778 1333 782 1324 782 1317 Z" unicode="" />
<glyph horiz-adv-x="1067" d="M 977 0 L 702 0 L 702 127 L 700 127 C 682 77 648 39 600 13 C 552 -13 490 -27 416 -27 C 365 -27 319 -20 279 -6 C 239 7 205 27 177 54 C 149 80 127 113 112 151 C 97 189 90 233 90 283 L 90 928 L 391 928 L 391 358 C 391 341 394 325 400 310 C 406 294 414 281 426 269 C 437 257 451 248 469 241 C 486 234 506 231 530 231 C 552 231 573 234 591 241 C 609 248 624 258 637 270 C 649 282 659 296 666 312 C 672 328 676 346 676 365 L 676 928 L 977 928 L 977 0 Z M 850 1116 L 723 1063 C 689 1083 655 1104 622 1126 C 588 1148 557 1171 528 1196 C 499 1171 469 1148 438 1127 C 406 1106 373 1085 338 1065 L 223 1114 C 243 1130 265 1148 287 1168 C 309 1188 332 1209 354 1232 C 376 1254 397 1278 418 1302 C 438 1326 457 1351 475 1376 C 483 1387 493 1396 504 1403 C 515 1409 526 1413 537 1413 C 546 1413 556 1409 567 1403 C 578 1396 588 1387 596 1376 C 613 1351 632 1327 653 1303 C 674 1279 696 1255 718 1233 C 740 1211 763 1190 785 1170 C 807 1150 829 1132 850 1116 Z" unicode="" />
<glyph horiz-adv-x="1067" d="M 977 0 L 702 0 L 702 127 L 700 127 C 682 77 648 39 600 13 C 552 -13 490 -27 416 -27 C 365 -27 319 -20 279 -6 C 239 7 205 27 177 54 C 149 80 127 113 112 151 C 97 189 90 233 90 283 L 90 928 L 391 928 L 391 358 C 391 341 394 325 400 310 C 406 294 414 281 426 269 C 437 257 451 248 469 241 C 486 234 506 231 530 231 C 552 231 573 234 591 241 C 609 248 624 258 637 270 C 649 282 659 296 666 312 C 672 328 676 346 676 365 L 676 928 L 977 928 L 977 0 Z M 805 1174 C 805 1165 800 1154 792 1141 C 783 1128 773 1115 761 1103 C 749 1091 736 1080 723 1072 C 710 1063 699 1059 690 1059 C 680 1059 669 1063 656 1072 C 642 1080 629 1091 617 1103 C 605 1115 594 1128 586 1141 C 577 1154 573 1165 573 1174 C 573 1182 577 1193 586 1207 C 594 1220 605 1233 617 1245 C 629 1257 642 1268 656 1277 C 669 1285 680 1290 690 1290 C 699 1290 710 1285 723 1277 C 736 1268 749 1257 761 1245 C 773 1233 783 1220 792 1207 C 800 1193 805 1182 805 1174 Z M 494 1174 C 494 1165 489 1154 481 1141 C 472 1128 461 1115 449 1103 C 437 1091 424 1080 411 1072 C 397 1063 386 1059 377 1059 C 368 1059 357 1063 344 1072 C 331 1080 318 1091 306 1103 C 294 1115 283 1128 275 1141 C 266 1154 262 1165 262 1174 C 262 1182 266 1193 275 1207 C 283 1220 294 1233 306 1245 C 318 1257 331 1268 344 1277 C 357 1285 368 1290 377 1290 C 386 1290 397 1285 411 1277 C 424 1268 437 1257 449 1245 C 461 1233 472 1220 481 1207 C 489 1193 494 1182 494 1174 Z" unicode="" />
<glyph horiz-adv-x="997" d="M 977 928 L 662 92 C 626 -1 590 -80 554 -146 C 518 -211 480 -266 442 -310 C 404 -354 364 -390 324 -417 C 284 -444 242 -466 199 -483 L 14 -299 C 88 -270 154 -227 212 -170 C 269 -112 316 -35 354 63 L 20 928 L 311 928 L 446 567 C 456 540 466 511 476 481 C 486 450 494 418 502 385 L 506 385 C 515 417 525 448 535 480 C 545 511 555 540 565 567 L 700 928 L 977 928 Z M 770 1317 C 770 1302 760 1284 741 1264 C 701 1222 659 1186 617 1154 C 574 1122 527 1091 477 1061 L 360 1112 C 381 1128 403 1147 426 1167 C 448 1187 471 1209 493 1232 C 515 1254 536 1278 557 1302 C 577 1326 596 1351 614 1376 C 622 1388 633 1398 645 1404 C 657 1410 666 1413 674 1413 C 682 1413 691 1409 702 1402 C 713 1394 724 1386 734 1376 C 744 1366 752 1355 759 1344 C 766 1333 770 1324 770 1317 Z" unicode="" />
<glyph horiz-adv-x="1122" d="M 1063 477 C 1063 401 1050 332 1025 270 C 1000 208 966 154 922 110 C 878 66 826 31 766 7 C 706 -16 641 -29 571 -29 C 552 -29 533 -27 515 -25 C 497 -23 479 -19 463 -15 C 447 -11 432 -6 420 0 C 407 5 397 11 389 18 L 389 -473 L 98 -473 L 98 1458 L 389 1458 L 389 885 C 410 903 438 919 473 933 C 508 947 550 954 598 954 C 654 954 709 943 765 922 C 821 900 871 869 915 828 C 959 787 994 737 1022 678 C 1049 619 1063 552 1063 477 Z M 774 459 C 774 493 768 524 757 552 C 746 580 731 604 711 625 C 691 645 668 661 642 673 C 616 684 587 690 557 690 C 517 690 484 682 456 666 C 428 650 406 633 389 614 L 389 289 C 395 282 403 275 413 268 C 423 260 436 254 450 248 C 464 242 480 237 498 233 C 516 229 535 227 557 227 C 587 227 616 232 642 244 C 668 256 691 272 711 292 C 731 312 746 337 757 365 C 768 393 774 425 774 459 Z" unicode="" />
<glyph horiz-adv-x="997" d="M 977 928 L 662 92 C 626 -1 590 -80 554 -146 C 518 -211 480 -266 442 -310 C 404 -354 364 -390 324 -417 C 284 -444 242 -466 199 -483 L 14 -299 C 88 -270 154 -227 212 -170 C 269 -112 316 -35 354 63 L 20 928 L 311 928 L 446 567 C 456 540 466 511 476 481 C 486 450 494 418 502 385 L 506 385 C 515 417 525 448 535 480 C 545 511 555 540 565 567 L 700 928 L 977 928 Z M 784 1167 C 784 1157 779 1146 771 1133 C 763 1120 753 1108 741 1096 C 729 1084 716 1073 703 1065 C 690 1057 679 1053 670 1053 C 660 1053 649 1057 636 1065 C 622 1073 609 1084 597 1096 C 585 1108 574 1120 566 1133 C 557 1146 553 1157 553 1167 C 553 1176 557 1187 566 1201 C 574 1214 585 1227 597 1239 C 609 1251 622 1262 636 1271 C 649 1279 660 1284 670 1284 C 679 1284 690 1279 703 1271 C 716 1262 729 1251 741 1239 C 753 1227 763 1214 771 1201 C 779 1187 784 1176 784 1167 Z M 473 1167 C 473 1157 468 1146 460 1133 C 451 1120 440 1108 428 1096 C 416 1084 403 1073 390 1065 C 376 1057 365 1053 356 1053 C 346 1053 335 1057 322 1065 C 309 1073 297 1084 285 1096 C 273 1108 262 1120 254 1133 C 246 1146 242 1157 242 1167 C 242 1176 246 1187 254 1201 C 262 1214 273 1227 285 1239 C 297 1251 309 1262 322 1271 C 335 1279 346 1284 356 1284 C 365 1284 376 1279 390 1271 C 403 1262 416 1251 428 1239 C 440 1227 451 1214 460 1201 C 468 1187 473 1176 473 1167 Z" unicode="" />
<glyph horiz-adv-x="504" d="M 403 0 L 100 0 L 100 928 L 403 928 L 403 0 Z" unicode="" />
<glyph horiz-adv-x="934" d="M 922 0 L 111 0 L 111 430 L 16 375 L 16 635 L 111 690 L 111 1307 L 428 1307 L 428 872 L 692 1024 L 692 764 L 428 610 L 428 260 L 922 260 L 922 0 Z" unicode="" />
<glyph horiz-adv-x="580" d="M 549 764 L 408 682 L 408 330 C 408 292 418 262 440 242 C 462 222 493 210 535 207 L 430 -37 C 382 -35 339 -27 300 -13 C 260 0 227 20 199 47 C 171 74 149 108 134 148 C 118 188 111 237 111 293 L 111 510 L 16 457 L 16 717 L 111 772 L 111 1458 L 408 1458 L 408 942 L 549 1024 L 549 764 Z" unicode="" />
<glyph horiz-adv-x="1720" d="M 1706 0 L 963 0 C 935 -6 904 -10 870 -13 C 836 -16 801 -18 766 -18 C 709 -18 652 -11 596 1 C 540 13 486 32 434 57 C 382 82 334 113 289 151 C 244 189 205 232 172 282 C 139 332 113 388 94 450 C 75 512 66 579 66 653 C 66 727 75 795 94 857 C 113 919 139 975 173 1025 C 206 1075 245 1118 290 1156 C 334 1194 383 1225 435 1251 C 487 1276 541 1295 597 1308 C 653 1320 710 1327 766 1327 C 802 1327 836 1325 869 1321 C 902 1317 933 1313 963 1307 L 1647 1307 L 1647 1047 L 1206 1047 L 1206 788 L 1569 788 L 1569 522 L 1206 522 L 1206 260 L 1706 260 L 1706 0 Z M 905 250 L 905 1042 C 870 1049 836 1053 803 1053 C 745 1053 690 1043 640 1024 C 589 1004 545 977 507 942 C 469 906 439 864 417 814 C 395 764 385 709 385 649 C 385 589 395 534 417 484 C 439 434 469 392 508 356 C 546 320 592 293 645 273 C 697 253 755 244 817 244 C 847 244 877 246 905 250 Z" unicode="" />
<glyph horiz-adv-x="1714" d="M 1661 588 C 1661 576 1660 564 1659 550 C 1658 536 1657 525 1655 516 L 1522 381 L 1067 381 C 1070 361 1079 342 1094 323 C 1108 303 1127 286 1151 271 C 1175 255 1203 243 1235 233 C 1267 223 1302 219 1341 219 C 1391 219 1438 225 1483 238 C 1528 251 1566 268 1597 289 L 1569 31 C 1533 12 1489 -2 1439 -14 C 1389 -25 1334 -31 1274 -31 C 1243 -31 1211 -28 1177 -22 C 1143 -16 1110 -6 1078 6 C 1046 19 1016 36 988 58 C 960 79 936 105 918 135 C 896 103 870 76 841 55 C 812 34 782 17 750 4 C 718 -8 685 -17 651 -23 C 617 -28 585 -31 553 -31 C 483 -31 417 -18 357 5 C 296 29 243 64 199 108 C 154 152 119 204 93 265 C 67 325 55 392 55 465 C 55 537 67 604 93 664 C 119 724 154 776 199 820 C 243 864 296 898 357 922 C 417 946 483 958 553 958 C 587 958 621 954 656 948 C 690 942 723 932 755 919 C 787 905 816 889 843 869 C 869 849 891 825 909 799 C 923 824 943 846 967 866 C 991 886 1019 902 1050 916 C 1080 930 1113 940 1147 947 C 1181 954 1215 958 1249 958 C 1313 958 1370 947 1421 927 C 1472 906 1515 879 1551 845 C 1586 811 1613 771 1632 727 C 1651 682 1661 636 1661 588 Z M 1380 602 C 1380 618 1376 633 1370 649 C 1364 665 1355 679 1344 691 C 1332 703 1318 713 1302 721 C 1286 729 1267 733 1247 733 C 1225 733 1205 729 1185 721 C 1165 713 1147 702 1131 689 C 1115 675 1101 659 1090 641 C 1078 622 1071 602 1067 582 L 1378 582 C 1378 586 1378 589 1379 592 C 1379 594 1380 598 1380 602 Z M 772 461 C 772 495 766 526 755 555 C 743 584 728 609 709 630 C 689 650 667 666 642 678 C 617 690 591 696 563 696 C 535 696 508 690 483 678 C 457 666 435 650 416 630 C 397 609 382 584 371 555 C 359 526 354 495 354 461 C 354 427 359 395 371 366 C 382 337 397 312 416 291 C 435 270 457 254 483 242 C 508 230 535 225 563 225 C 591 225 617 230 642 242 C 667 254 689 270 709 291 C 728 312 743 337 755 366 C 766 395 772 427 772 461 Z" unicode="" />
<glyph horiz-adv-x="1024" d="M 958 393 C 958 329 947 272 927 222 C 907 171 876 128 836 93 C 796 57 746 30 686 11 C 626 -8 556 -18 477 -18 C 440 -18 404 -15 368 -10 C 332 -5 299 1 267 9 C 235 17 206 27 180 38 C 153 48 130 60 111 72 L 80 369 C 133 331 193 301 259 278 C 325 255 391 244 457 244 C 513 244 557 255 591 279 C 624 303 641 335 641 375 C 641 413 628 443 602 467 C 576 490 533 510 473 526 C 344 561 249 613 189 682 C 128 751 98 836 98 936 C 98 990 107 1040 127 1088 C 147 1136 176 1177 214 1213 C 252 1248 298 1276 354 1296 C 409 1316 472 1327 543 1327 C 580 1327 615 1324 649 1320 C 683 1315 714 1309 742 1302 C 770 1294 795 1286 817 1278 C 839 1269 856 1261 870 1253 L 813 997 C 799 1005 783 1013 764 1021 C 745 1029 725 1036 703 1042 C 681 1048 658 1054 634 1058 C 610 1062 587 1065 565 1065 C 509 1065 468 1054 442 1032 C 416 1010 403 984 403 952 C 403 919 416 893 443 874 C 470 854 509 837 559 823 C 621 805 677 784 727 759 C 776 734 818 704 852 669 C 886 634 913 594 931 548 C 949 502 958 451 958 393 Z M 854 1778 C 828 1758 803 1737 777 1714 C 751 1691 726 1666 701 1640 C 675 1614 651 1586 627 1557 C 603 1528 581 1498 561 1468 C 555 1458 547 1450 537 1444 C 527 1437 518 1434 508 1434 C 497 1434 487 1437 478 1443 C 468 1449 460 1458 453 1468 C 413 1530 367 1587 315 1641 C 263 1694 211 1740 160 1778 L 311 1843 C 349 1819 384 1795 417 1771 C 450 1746 481 1720 510 1692 C 538 1720 569 1745 601 1769 C 633 1792 669 1816 707 1841 L 854 1778 Z" unicode="" />
<glyph horiz-adv-x="805" d="M 758 281 C 758 241 750 203 736 167 C 721 131 699 99 669 71 C 639 43 601 21 555 5 C 509 -11 455 -20 393 -20 C 329 -20 273 -14 226 -2 C 178 10 136 25 98 45 L 72 311 C 113 282 159 258 209 239 C 259 220 310 211 362 211 C 390 211 412 217 428 229 C 444 241 453 256 453 274 C 453 293 445 308 431 318 C 416 328 395 338 369 346 C 324 358 284 374 249 392 C 213 410 183 431 159 456 C 135 480 116 508 103 540 C 90 572 84 608 84 649 C 84 694 92 735 110 772 C 127 809 151 841 182 867 C 213 893 250 913 293 927 C 335 941 382 948 432 948 C 460 948 488 946 516 943 C 544 939 570 935 594 930 C 618 924 640 918 660 912 C 679 905 695 899 707 893 L 655 672 C 632 684 604 695 570 706 C 536 717 500 723 463 723 C 438 723 418 717 403 707 C 388 696 381 682 381 664 C 381 646 387 632 400 622 C 413 612 434 603 463 596 C 567 568 643 528 689 476 C 735 423 758 358 758 281 Z M 688 1352 C 644 1318 601 1279 558 1234 C 514 1188 475 1139 440 1087 C 434 1079 428 1073 420 1067 C 412 1061 403 1059 395 1059 C 385 1059 377 1061 369 1067 C 361 1072 354 1079 348 1087 C 314 1139 274 1188 230 1234 C 185 1279 141 1318 98 1352 L 227 1407 C 260 1386 290 1365 318 1344 C 346 1323 372 1301 397 1278 C 420 1301 445 1323 473 1343 C 501 1363 531 1384 563 1405 L 688 1352 Z" unicode="" />
<glyph horiz-adv-x="1323" d="M 1303 1307 L 817 584 L 817 0 L 510 0 L 510 578 L 20 1307 L 360 1307 L 575 993 C 590 971 606 946 623 918 C 639 890 655 862 670 836 L 674 836 C 680 848 688 862 696 876 C 704 890 712 904 721 918 C 729 932 738 945 746 958 C 754 971 762 983 770 993 L 985 1307 L 1303 1307 Z M 979 1565 C 979 1555 974 1542 964 1527 C 954 1511 942 1496 928 1482 C 914 1468 899 1455 884 1445 C 868 1435 855 1430 844 1430 C 833 1430 820 1435 804 1445 C 788 1455 773 1467 759 1481 C 745 1495 732 1510 722 1526 C 712 1541 707 1554 707 1565 C 707 1575 712 1588 722 1604 C 732 1620 744 1635 758 1649 C 772 1663 787 1676 803 1686 C 819 1696 832 1702 844 1702 C 854 1702 867 1697 883 1687 C 898 1677 913 1664 927 1650 C 941 1636 954 1621 964 1605 C 974 1589 979 1576 979 1565 Z M 612 1565 C 612 1555 607 1542 597 1527 C 587 1511 574 1496 560 1482 C 546 1468 531 1455 515 1445 C 499 1435 486 1430 475 1430 C 465 1430 452 1435 437 1445 C 421 1455 406 1467 392 1481 C 378 1495 365 1510 355 1526 C 345 1541 340 1554 340 1565 C 340 1575 345 1588 355 1604 C 365 1620 377 1635 391 1649 C 405 1663 420 1676 436 1686 C 451 1696 464 1702 475 1702 C 485 1702 498 1697 514 1687 C 530 1677 545 1664 559 1650 C 573 1636 586 1621 596 1605 C 606 1589 612 1576 612 1565 Z" unicode="" />
<glyph horiz-adv-x="1116" d="M 1051 0 L 66 0 L 66 78 L 432 737 C 446 761 460 787 476 814 C 491 840 507 867 523 894 C 539 920 555 946 571 972 C 587 997 602 1021 616 1044 L 614 1047 L 98 1047 L 98 1307 L 1028 1307 L 1028 1231 L 659 569 C 645 543 630 517 614 490 C 598 463 583 436 567 410 C 551 383 536 357 521 332 C 505 307 491 284 477 262 L 479 260 L 1051 260 L 1051 0 Z M 903 1778 C 877 1758 852 1737 826 1714 C 800 1691 775 1666 750 1640 C 724 1614 700 1586 676 1557 C 652 1528 630 1498 610 1468 C 604 1458 596 1450 587 1444 C 577 1437 567 1434 557 1434 C 547 1434 537 1437 527 1443 C 517 1449 509 1458 502 1468 C 462 1530 416 1587 364 1641 C 312 1694 260 1740 209 1778 L 360 1843 C 398 1819 433 1795 466 1771 C 499 1746 530 1720 559 1692 C 587 1720 618 1745 650 1769 C 682 1792 718 1816 756 1841 L 903 1778 Z" unicode="" />
<glyph horiz-adv-x="887" d="M 831 0 L 55 0 L 55 57 L 287 473 C 306 507 326 542 347 578 C 368 614 389 648 410 680 L 408 682 L 92 682 L 92 928 L 801 928 L 801 870 L 569 455 C 549 421 530 386 510 352 C 490 318 469 284 446 250 L 449 246 L 831 246 L 831 0 Z M 743 1352 C 699 1318 656 1279 612 1234 C 568 1188 528 1139 494 1087 C 488 1079 482 1073 474 1067 C 466 1061 458 1059 449 1059 C 440 1059 431 1061 423 1067 C 415 1072 407 1079 401 1087 C 367 1139 328 1188 284 1234 C 240 1279 197 1318 154 1352 L 283 1407 C 315 1386 345 1365 373 1344 C 401 1323 427 1301 451 1278 C 475 1301 501 1323 529 1343 C 556 1363 586 1384 618 1405 L 743 1352 Z" unicode="" />
<glyph horiz-adv-x="932" d="M 942 1327 L 885 1071 C 871 1074 856 1077 839 1079 C 822 1081 806 1083 791 1083 C 680 1083 614 1019 592 891 L 545 637 L 748 637 L 711 481 L 518 481 L 426 -45 C 414 -111 395 -169 369 -219 C 343 -269 314 -311 280 -347 C 246 -382 209 -410 170 -432 C 130 -453 91 -469 53 -479 L -127 -299 C -95 -290 -65 -278 -37 -262 C -9 -246 16 -227 39 -204 C 62 -181 82 -154 98 -124 C 114 -93 126 -58 133 -20 L 221 481 L 80 481 L 80 637 L 248 637 L 299 915 C 311 985 333 1047 364 1100 C 394 1153 431 1197 475 1233 C 519 1268 568 1294 622 1312 C 676 1330 734 1339 795 1339 C 821 1339 847 1338 873 1336 C 898 1334 921 1331 942 1327 Z" unicode="" />
<glyph horiz-adv-x="1024" d="M 883 1092 L 733 1028 C 693 1051 653 1076 614 1102 C 574 1128 538 1156 504 1186 C 470 1156 434 1129 397 1104 C 360 1079 321 1054 281 1030 L 143 1090 C 167 1108 193 1128 219 1152 C 245 1175 272 1200 298 1227 C 324 1253 349 1281 373 1310 C 397 1338 419 1367 440 1397 C 449 1410 460 1421 473 1429 C 486 1437 499 1442 512 1442 C 523 1442 535 1437 548 1429 C 561 1421 573 1410 584 1397 C 604 1367 627 1338 651 1310 C 675 1281 701 1254 727 1228 C 753 1202 779 1177 806 1154 C 832 1130 858 1110 883 1092 Z" unicode="" />
<glyph horiz-adv-x="1024" d="M 860 1368 C 834 1348 809 1327 783 1304 C 757 1281 732 1257 707 1231 C 681 1205 657 1177 633 1148 C 609 1119 587 1089 567 1059 C 561 1049 553 1041 544 1034 C 534 1027 524 1024 514 1024 C 504 1024 494 1027 484 1033 C 474 1039 466 1048 459 1059 C 419 1121 373 1178 321 1231 C 269 1284 217 1330 166 1368 L 317 1434 C 355 1410 390 1385 423 1361 C 456 1336 487 1310 516 1282 C 544 1310 575 1335 607 1359 C 639 1382 675 1406 713 1432 L 860 1368 Z" unicode="" />
<glyph horiz-adv-x="1024" d="M 799 1130 C 773 1110 745 1092 715 1077 C 689 1063 658 1051 624 1040 C 589 1029 552 1024 512 1024 C 471 1024 433 1029 398 1040 C 363 1051 333 1063 307 1077 C 276 1092 248 1110 223 1130 L 342 1255 C 358 1245 375 1236 393 1229 C 408 1222 426 1216 447 1211 C 467 1206 489 1204 512 1204 C 534 1204 556 1206 576 1211 C 596 1216 614 1222 630 1229 C 648 1236 664 1245 680 1255 L 799 1130 Z" unicode="" />
<glyph horiz-adv-x="1024" d="M 649 1159 C 649 1149 644 1136 634 1121 C 624 1105 611 1090 597 1076 C 583 1062 568 1049 552 1039 C 536 1029 523 1024 512 1024 C 502 1024 489 1029 474 1039 C 458 1049 443 1061 429 1075 C 415 1089 402 1104 392 1120 C 382 1135 377 1148 377 1159 C 377 1169 382 1182 392 1198 C 402 1214 414 1229 428 1243 C 442 1257 457 1270 473 1280 C 488 1290 501 1296 512 1296 C 522 1296 535 1291 551 1281 C 567 1271 582 1258 596 1244 C 610 1230 623 1215 633 1199 C 643 1183 649 1170 649 1159 Z" unicode="" />
<glyph horiz-adv-x="1024" d="M 770 1247 C 770 1212 763 1179 749 1148 C 735 1117 717 1090 694 1067 C 670 1044 643 1026 612 1013 C 580 999 547 993 512 993 C 477 993 444 999 413 1013 C 382 1026 355 1044 332 1067 C 308 1090 290 1117 276 1148 C 262 1178 256 1211 256 1247 C 256 1281 262 1314 276 1345 C 289 1376 307 1403 331 1427 C 354 1450 381 1468 412 1482 C 443 1496 476 1503 512 1503 C 546 1503 579 1496 611 1483 C 642 1469 669 1451 693 1428 C 716 1405 735 1378 749 1347 C 763 1315 770 1282 770 1247 Z M 598 1247 C 598 1275 590 1298 574 1316 C 558 1334 537 1343 512 1343 C 486 1343 466 1334 450 1316 C 434 1298 426 1275 426 1247 C 426 1219 434 1196 450 1179 C 466 1161 486 1153 512 1153 C 537 1153 558 1161 574 1179 C 590 1196 598 1219 598 1247 Z" unicode="" />
<glyph horiz-adv-x="1024" d="M 723 -311 L 702 -453 C 686 -463 665 -471 640 -477 C 614 -483 585 -487 553 -487 C 520 -487 490 -482 462 -473 C 434 -463 410 -450 390 -432 C 370 -414 354 -393 343 -368 C 331 -343 326 -315 326 -283 C 326 -251 332 -220 344 -191 C 356 -162 371 -135 391 -111 C 411 -87 433 -65 458 -46 C 483 -27 509 -12 535 0 L 721 0 C 689 -15 659 -32 631 -52 C 603 -71 578 -92 557 -114 C 535 -136 518 -159 506 -184 C 493 -208 487 -234 487 -260 C 487 -284 496 -305 514 -321 C 532 -337 558 -346 590 -346 C 615 -346 639 -343 661 -338 C 683 -332 703 -323 723 -311 Z" unicode="" />
<glyph horiz-adv-x="1024" d="M 924 1350 C 915 1335 904 1317 891 1297 C 877 1277 862 1256 846 1234 C 830 1212 813 1191 795 1170 C 777 1149 758 1130 740 1113 C 722 1096 704 1082 687 1072 C 669 1062 653 1057 639 1057 C 620 1057 600 1062 579 1073 C 558 1083 537 1095 517 1108 C 496 1120 476 1132 458 1143 C 440 1153 424 1159 412 1159 C 401 1159 389 1154 376 1145 C 363 1136 350 1125 336 1112 C 322 1098 309 1084 297 1069 C 285 1053 274 1039 264 1026 L 117 1092 C 125 1106 136 1124 150 1144 C 163 1164 178 1184 194 1206 C 210 1228 227 1249 245 1270 C 263 1290 281 1309 299 1326 C 317 1342 335 1356 353 1366 C 370 1376 386 1382 401 1382 C 419 1382 438 1376 460 1366 C 481 1355 502 1343 523 1331 C 543 1318 563 1306 582 1296 C 600 1285 616 1280 629 1280 C 639 1280 651 1284 664 1293 C 677 1302 690 1313 703 1327 C 716 1340 729 1354 742 1370 C 754 1385 766 1399 776 1413 L 924 1350 Z" unicode="" />
<glyph horiz-adv-x="1024" d="M 967 1329 C 967 1321 964 1311 958 1299 C 952 1287 943 1275 932 1264 C 886 1215 838 1172 788 1136 C 738 1099 683 1064 625 1030 L 481 1092 C 505 1110 531 1131 558 1155 C 584 1178 611 1203 637 1229 C 663 1255 688 1283 712 1312 C 736 1340 759 1369 780 1399 C 790 1413 803 1424 817 1432 C 831 1440 842 1444 850 1444 C 859 1444 870 1439 884 1431 C 897 1422 910 1411 922 1399 C 934 1387 945 1374 954 1361 C 962 1348 967 1337 967 1329 Z M 569 1329 C 569 1321 566 1311 560 1299 C 554 1287 546 1275 535 1264 C 488 1215 440 1172 390 1136 C 340 1099 285 1064 227 1030 L 84 1092 C 108 1110 134 1131 160 1155 C 186 1178 213 1203 239 1229 C 265 1255 291 1283 315 1312 C 339 1340 362 1369 383 1399 C 393 1413 405 1424 419 1432 C 433 1440 444 1444 453 1444 C 461 1444 472 1439 486 1431 C 499 1422 512 1411 524 1399 C 536 1387 547 1374 556 1361 C 564 1348 569 1337 569 1329 Z" unicode="" />
<glyph horiz-adv-x="1024" d="M 731 1053 L 303 1053 L 303 1231 L 731 1231 L 731 1053 Z" unicode="" />
<glyph horiz-adv-x="1536" d="M 76 0 L 652 1536 L 884 1536 L 1456 0 L 76 0 Z M 352 148 L 1164 148 L 752 1256 L 352 148 Z" unicode="" />
<glyph horiz-adv-x="1664" d="M 832 1376 C 706 1376 599 1328 510 1234 C 420 1139 376 1006 376 836 C 376 673 405 538 464 432 C 522 325 609 241 724 180 L 724 0 L 88 0 L 88 196 L 536 196 C 456 225 378 295 304 406 C 229 516 192 664 192 848 C 192 1024 247 1184 358 1330 C 468 1475 626 1548 832 1548 C 1037 1548 1195 1478 1306 1338 C 1416 1198 1472 1034 1472 848 C 1472 664 1434 516 1360 406 C 1285 295 1208 225 1128 196 L 1576 196 L 1576 0 L 940 0 L 940 180 C 1054 241 1141 325 1200 432 C 1258 538 1288 673 1288 836 C 1288 974 1246 1099 1162 1210 C 1078 1320 968 1376 832 1376 Z" unicode="" />
<glyph horiz-adv-x="1408" d="M 252 -424 C 214 -424 186 -413 168 -392 C 149 -370 140 -333 140 -280 C 140 -226 141 -168 144 -106 C 146 -43 150 25 156 100 C 161 166 165 218 168 256 C 170 293 172 317 172 328 C 174 341 176 350 176 356 C 176 361 176 365 176 368 L 176 1176 L 368 1176 L 368 320 C 368 258 395 210 450 176 C 504 141 564 124 628 124 C 716 124 792 146 858 190 C 923 234 973 297 1008 380 L 1008 1176 L 1200 1176 L 1200 308 L 1220 0 L 1056 0 L 1020 176 C 974 104 913 50 836 14 C 758 -22 670 -40 572 -40 C 537 -40 494 -31 444 -14 C 393 3 353 28 324 60 C 324 1 333 -56 352 -112 C 370 -168 380 -218 380 -264 C 380 -370 337 -424 252 -424 Z" unicode="" />
<glyph horiz-adv-x="1408" d="M 296 0 L 296 1028 L 12 1028 L 12 1176 L 1316 1176 L 1316 1028 L 996 1028 L 996 344 C 996 266 1011 213 1042 184 C 1072 154 1109 140 1152 140 C 1184 140 1210 140 1232 142 C 1253 143 1274 148 1296 156 L 1296 28 C 1264 12 1234 0 1206 -6 C 1178 -12 1138 -16 1088 -16 C 1002 -16 935 10 886 64 C 836 117 812 208 812 336 L 812 1028 L 484 1028 L 484 0 L 296 0 Z" unicode="" />
<glyph horiz-adv-x="1024" d="M 1028 373 L 0 373 L 0 555 L 1028 555 L 1028 373 Z" unicode="" />
<glyph horiz-adv-x="2048" d="M 2052 373 L 0 373 L 0 555 L 2052 555 L 2052 373 Z" unicode="" />
<glyph horiz-adv-x="453" d="M 397 887 C 397 871 390 854 378 835 C 365 815 350 797 332 780 C 314 763 295 749 276 737 C 256 725 240 719 227 719 C 215 719 199 724 180 736 C 161 747 142 761 124 778 C 106 795 90 813 77 833 C 63 853 57 871 57 887 C 57 919 64 955 78 996 C 92 1036 111 1077 134 1118 C 157 1159 183 1199 213 1237 C 243 1275 273 1307 303 1335 L 397 1319 C 379 1299 363 1277 348 1253 C 332 1229 319 1204 307 1179 C 295 1153 284 1128 276 1102 C 268 1076 262 1052 260 1030 C 272 1027 287 1020 303 1009 C 319 998 334 985 348 971 C 362 957 373 942 383 927 C 392 911 397 898 397 887 Z" unicode="" />
<glyph horiz-adv-x="453" d="M 397 1171 C 397 1139 389 1102 375 1062 C 361 1022 342 981 319 940 C 296 899 270 860 241 822 C 211 784 182 751 152 723 L 57 739 C 74 759 90 781 106 805 C 121 829 134 853 146 879 C 158 904 168 929 176 955 C 184 980 189 1004 193 1028 C 179 1030 165 1037 149 1048 C 133 1059 119 1072 105 1086 C 91 1100 80 1115 71 1131 C 61 1146 57 1159 57 1171 C 57 1185 63 1202 76 1222 C 88 1242 104 1260 122 1277 C 140 1294 158 1309 178 1321 C 197 1333 213 1339 227 1339 C 239 1339 254 1333 273 1321 C 292 1309 311 1295 329 1278 C 347 1261 363 1243 377 1224 C 390 1204 397 1187 397 1171 Z" unicode="" />
<glyph horiz-adv-x="455" d="M 397 141 C 397 109 389 72 375 32 C 361 -8 342 -49 319 -90 C 296 -131 270 -171 241 -209 C 211 -247 182 -279 152 -307 L 57 -291 C 74 -271 90 -249 106 -225 C 121 -201 134 -176 146 -151 C 158 -125 168 -100 176 -75 C 184 -49 189 -25 193 -2 C 179 0 165 7 149 18 C 133 29 119 42 105 56 C 91 70 80 85 71 101 C 61 116 57 129 57 141 C 57 155 63 172 76 192 C 88 212 104 230 122 247 C 140 264 158 279 178 291 C 197 303 213 309 227 309 C 239 309 254 303 273 291 C 292 279 311 265 329 248 C 347 231 363 213 377 194 C 390 174 397 157 397 141 Z" unicode="" />
<glyph horiz-adv-x="874" d="M 817 887 C 817 871 810 854 798 835 C 785 815 770 797 752 780 C 734 763 715 749 696 737 C 676 725 660 719 647 719 C 635 719 619 724 600 736 C 581 747 562 761 544 778 C 526 795 510 813 497 833 C 483 853 477 871 477 887 C 477 919 484 955 498 996 C 512 1036 531 1077 554 1118 C 577 1159 603 1199 633 1237 C 663 1275 693 1307 723 1335 L 817 1319 C 799 1299 783 1277 768 1253 C 753 1229 740 1204 728 1179 C 716 1153 706 1128 698 1102 C 690 1076 684 1052 682 1030 C 694 1027 708 1020 724 1009 C 740 998 754 985 768 971 C 782 957 793 942 803 927 C 812 911 817 898 817 887 Z M 397 887 C 397 871 390 854 378 835 C 365 815 350 797 332 780 C 314 763 295 749 276 737 C 256 725 240 719 227 719 C 215 719 199 724 180 736 C 161 747 142 761 124 778 C 106 795 90 813 77 833 C 63 853 57 871 57 887 C 57 919 64 955 78 996 C 92 1036 111 1077 134 1118 C 157 1159 183 1199 213 1237 C 243 1275 273 1307 303 1335 L 397 1319 C 379 1299 363 1277 348 1253 C 332 1229 319 1204 307 1179 C 295 1153 284 1128 276 1102 C 268 1076 262 1052 260 1030 C 272 1027 287 1020 303 1009 C 319 998 334 985 348 971 C 362 957 373 942 383 927 C 392 911 397 898 397 887 Z" unicode="" />
<glyph horiz-adv-x="874" d="M 817 1171 C 817 1139 809 1102 795 1062 C 781 1022 762 981 739 940 C 716 899 690 860 660 822 C 630 784 601 751 571 723 L 477 739 C 494 759 510 781 526 805 C 541 829 555 853 567 879 C 579 904 589 929 597 955 C 605 980 610 1004 614 1028 C 601 1030 587 1037 571 1048 C 555 1059 540 1072 526 1086 C 512 1100 500 1115 491 1131 C 481 1146 477 1159 477 1171 C 477 1185 483 1202 496 1222 C 508 1242 524 1260 542 1277 C 560 1294 578 1309 598 1321 C 617 1333 633 1339 647 1339 C 659 1339 674 1333 693 1321 C 712 1309 731 1295 749 1278 C 767 1261 783 1243 797 1224 C 810 1204 817 1187 817 1171 Z M 397 1171 C 397 1139 389 1102 375 1062 C 361 1022 342 981 319 940 C 296 899 270 860 241 822 C 211 784 182 751 152 723 L 57 739 C 74 759 90 781 106 805 C 121 829 134 853 146 879 C 158 904 168 929 176 955 C 184 980 189 1004 193 1028 C 179 1030 165 1037 149 1048 C 133 1059 119 1072 105 1086 C 91 1100 80 1115 71 1131 C 61 1146 57 1159 57 1171 C 57 1185 63 1202 76 1222 C 88 1242 104 1260 122 1277 C 140 1294 158 1309 178 1321 C 197 1333 213 1339 227 1339 C 239 1339 254 1333 273 1321 C 292 1309 311 1295 329 1278 C 347 1261 363 1243 377 1224 C 390 1204 397 1187 397 1171 Z" unicode="" />
<glyph horiz-adv-x="874" d="M 817 141 C 817 109 809 72 795 32 C 781 -8 762 -49 739 -90 C 716 -131 690 -171 660 -209 C 630 -247 601 -279 571 -307 L 477 -291 C 494 -271 510 -249 526 -225 C 541 -201 555 -176 567 -151 C 579 -125 589 -100 597 -75 C 605 -49 610 -25 614 -2 C 601 0 587 7 571 18 C 555 29 540 42 526 56 C 512 70 500 85 491 101 C 481 116 477 129 477 141 C 477 155 483 172 496 192 C 508 212 524 230 542 247 C 560 264 578 279 598 291 C 617 303 633 309 647 309 C 659 309 674 303 693 291 C 712 279 731 265 749 248 C 767 231 783 213 797 194 C 810 174 817 157 817 141 Z M 397 141 C 397 109 389 72 375 32 C 361 -8 342 -49 319 -90 C 296 -131 270 -171 241 -209 C 211 -247 182 -279 152 -307 L 57 -291 C 74 -271 90 -249 106 -225 C 121 -201 134 -176 146 -151 C 158 -125 168 -100 176 -75 C 184 -49 189 -25 193 -2 C 179 0 165 7 149 18 C 133 29 119 42 105 56 C 91 70 80 85 71 101 C 61 116 57 129 57 141 C 57 155 63 172 76 192 C 88 212 104 230 122 247 C 140 264 158 279 178 291 C 197 303 213 309 227 309 C 239 309 254 303 273 291 C 292 279 311 265 329 248 C 347 231 363 213 377 194 C 390 174 397 157 397 141 Z" unicode="" />
<glyph horiz-adv-x="889" d="M 821 666 L 580 702 L 539 -473 L 352 -473 L 311 702 L 68 666 L 68 946 L 303 909 L 295 1141 L 596 1141 L 588 909 L 821 946 L 821 666 Z" unicode="" />
<glyph horiz-adv-x="889" d="M 821 -276 L 588 -240 L 594 -473 L 295 -473 L 303 -240 L 68 -276 L 68 4 L 311 -35 L 324 334 L 311 702 L 68 666 L 68 946 L 303 909 L 295 1141 L 594 1141 L 588 909 L 821 946 L 821 666 L 578 702 L 567 334 L 578 -35 L 821 4 L 821 -276 Z" unicode="" />
<glyph horiz-adv-x="842" d="M 774 567 C 774 516 764 470 746 428 C 728 386 703 349 671 319 C 639 289 601 265 559 248 C 516 231 470 223 422 223 C 372 223 326 231 283 248 C 240 264 203 288 171 318 C 139 348 113 384 95 426 C 77 468 68 515 68 567 C 68 617 77 664 95 706 C 113 748 139 785 171 816 C 203 846 240 870 283 887 C 326 904 372 913 422 913 C 470 913 516 904 559 888 C 601 871 639 847 671 817 C 703 786 728 749 746 707 C 764 665 774 618 774 567 Z" unicode="" />
<glyph horiz-adv-x="1350" d="M 1292 141 C 1292 127 1285 110 1273 91 C 1261 71 1246 53 1228 35 C 1210 17 1192 2 1173 -10 C 1153 -22 1136 -29 1122 -29 C 1108 -29 1091 -22 1072 -10 C 1052 2 1034 17 1016 35 C 998 53 983 71 971 91 C 958 110 952 127 952 141 C 952 154 958 170 971 190 C 983 209 998 227 1016 245 C 1034 263 1052 278 1072 290 C 1091 302 1108 309 1122 309 C 1136 309 1152 302 1172 290 C 1191 278 1210 263 1228 245 C 1246 227 1261 209 1273 190 C 1285 170 1292 154 1292 141 Z M 844 141 C 844 127 837 110 825 91 C 812 71 797 53 779 35 C 761 17 743 2 724 -10 C 704 -22 688 -29 674 -29 C 660 -29 643 -22 624 -10 C 604 2 586 17 568 35 C 550 53 534 71 522 91 C 510 110 504 127 504 141 C 504 154 510 170 522 190 C 534 209 549 227 567 245 C 585 263 603 278 623 290 C 642 302 659 309 674 309 C 688 309 704 302 724 290 C 743 278 761 263 779 245 C 797 227 812 209 825 190 C 837 170 844 154 844 141 Z M 397 141 C 397 127 390 110 378 91 C 366 71 351 53 333 35 C 315 17 296 2 277 -10 C 257 -22 241 -29 227 -29 C 213 -29 196 -22 177 -10 C 157 2 139 17 121 35 C 103 53 88 71 76 91 C 63 110 57 127 57 141 C 57 154 63 170 76 190 C 88 209 103 227 121 245 C 139 263 157 278 177 290 C 196 302 213 309 227 309 C 241 309 257 302 277 290 C 296 278 315 263 333 245 C 351 227 366 209 378 190 C 390 170 397 154 397 141 Z" unicode="" />
<glyph horiz-adv-x="2191" d="M 2134 276 C 2134 230 2126 189 2110 151 C 2094 113 2072 81 2044 54 C 2016 27 1983 6 1945 -8 C 1907 -23 1866 -31 1823 -31 C 1779 -31 1739 -23 1701 -8 C 1663 6 1631 27 1603 54 C 1575 81 1553 113 1537 151 C 1521 189 1513 230 1513 276 C 1513 320 1521 361 1537 399 C 1553 437 1575 469 1603 496 C 1631 523 1663 544 1701 559 C 1739 574 1779 582 1823 582 C 1865 582 1906 574 1944 559 C 1982 544 2015 523 2043 496 C 2071 469 2093 437 2109 399 C 2125 361 2134 320 2134 276 Z M 1933 276 C 1933 294 1930 310 1924 325 C 1918 339 1910 352 1900 362 C 1890 372 1878 380 1865 386 C 1851 392 1837 395 1823 395 C 1793 395 1767 384 1746 362 C 1724 340 1714 312 1714 276 C 1714 258 1716 241 1722 227 C 1728 212 1736 199 1746 188 C 1756 177 1767 169 1780 163 C 1793 157 1807 154 1823 154 C 1837 154 1850 157 1864 163 C 1877 169 1889 177 1899 188 C 1909 199 1918 212 1924 227 C 1930 241 1933 258 1933 276 Z M 1399 276 C 1399 230 1391 189 1375 151 C 1359 113 1337 81 1309 54 C 1281 27 1248 6 1210 -8 C 1172 -23 1132 -31 1090 -31 C 1046 -31 1005 -23 967 -8 C 929 6 896 27 868 54 C 840 81 818 113 802 151 C 786 189 778 230 778 276 C 778 320 786 361 802 399 C 818 437 840 469 868 496 C 896 523 929 544 967 559 C 1005 574 1046 582 1090 582 C 1132 582 1172 574 1210 559 C 1248 544 1281 523 1309 496 C 1337 469 1359 437 1375 399 C 1391 361 1399 320 1399 276 Z M 1198 276 C 1198 294 1195 310 1189 325 C 1183 339 1176 352 1166 362 C 1156 372 1144 380 1131 386 C 1118 392 1104 395 1090 395 C 1074 395 1060 392 1047 386 C 1033 380 1022 372 1012 362 C 1002 352 994 339 988 325 C 982 310 979 294 979 276 C 979 258 982 241 988 227 C 994 212 1002 199 1012 188 C 1022 177 1033 169 1047 163 C 1060 157 1074 154 1090 154 C 1104 154 1117 157 1130 163 C 1143 169 1155 177 1165 188 C 1175 199 1183 212 1189 227 C 1195 241 1198 258 1198 276 Z M 1307 1245 L 272 -37 L 145 63 L 1182 1346 L 1307 1245 Z M 676 1034 C 676 988 668 947 652 909 C 636 871 614 839 586 812 C 558 785 525 764 487 749 C 449 734 408 727 365 727 C 321 727 281 734 243 749 C 205 764 173 785 145 812 C 117 839 95 871 79 909 C 63 947 55 988 55 1034 C 55 1078 63 1119 79 1157 C 95 1194 116 1226 144 1253 C 172 1280 204 1301 242 1316 C 280 1331 321 1339 365 1339 C 407 1339 448 1331 486 1316 C 524 1301 557 1280 585 1254 C 613 1227 635 1195 651 1157 C 667 1119 676 1078 676 1034 Z M 475 1034 C 475 1052 472 1068 466 1083 C 460 1098 452 1111 442 1121 C 432 1131 420 1140 407 1146 C 393 1152 379 1155 365 1155 C 349 1155 335 1152 322 1146 C 309 1140 298 1131 288 1121 C 278 1111 270 1098 264 1083 C 258 1068 256 1052 256 1034 C 256 1016 258 999 264 985 C 270 970 278 957 288 947 C 298 936 309 928 322 922 C 335 916 349 913 365 913 C 379 913 392 916 406 922 C 419 928 431 936 441 947 C 451 957 460 970 466 985 C 472 999 475 1016 475 1034 Z" unicode="" />
<glyph horiz-adv-x="449" d="M 391 199 L 354 113 C 336 135 317 159 295 184 C 273 209 250 234 225 259 C 200 283 174 307 147 331 C 120 354 93 375 66 395 C 52 404 41 415 33 427 C 24 439 20 451 20 463 C 20 474 24 486 33 499 C 42 511 53 522 66 532 C 93 552 120 573 147 596 C 174 619 200 643 225 668 C 249 692 272 717 294 742 C 316 767 336 791 354 815 L 391 727 C 372 679 353 633 335 590 C 316 546 294 504 270 463 C 293 421 314 379 334 336 C 353 292 372 247 391 199 Z" unicode="" />
<glyph horiz-adv-x="449" d="M 428 463 C 428 451 423 439 415 427 C 407 415 396 404 383 395 C 355 375 327 354 300 331 C 273 308 247 284 223 260 C 198 235 175 210 153 185 C 131 160 111 136 94 113 L 57 199 C 74 247 92 292 112 336 C 131 379 153 421 178 463 C 153 504 131 546 113 590 C 94 633 75 679 57 727 L 94 815 C 111 791 131 767 153 743 C 175 718 198 693 223 669 C 247 644 273 620 300 597 C 327 573 355 552 383 532 C 395 522 406 511 415 499 C 423 486 428 474 428 463 Z" unicode="" />
<glyph horiz-adv-x="1294" d="M 1229 1245 L 193 -37 L 68 63 L 1104 1346 L 1229 1245 Z" unicode="" />
<glyph horiz-adv-x="1034" d="M 758 608 L 725 451 L 469 451 C 481 410 496 375 515 346 C 533 316 555 292 580 273 C 604 254 631 240 661 231 C 690 221 721 217 754 217 C 790 217 823 221 853 230 C 883 239 908 250 930 264 L 903 14 C 877 0 846 -10 808 -17 C 770 -23 731 -27 690 -27 C 632 -27 575 -17 520 3 C 464 23 414 53 368 93 C 322 133 282 182 248 242 C 214 302 188 371 172 451 L 16 451 L 16 608 L 154 608 L 154 653 L 154 707 L 16 707 L 16 864 L 174 864 C 190 940 215 1008 249 1067 C 283 1125 322 1174 368 1214 C 414 1254 464 1284 519 1304 C 574 1324 631 1335 690 1335 C 750 1335 802 1328 847 1315 C 891 1302 931 1285 967 1264 L 918 1036 C 894 1052 865 1065 833 1075 C 800 1085 767 1090 733 1090 C 671 1090 618 1071 572 1035 C 526 999 491 942 469 864 L 778 864 L 745 707 L 444 707 L 444 653 L 444 608 L 758 608 Z" unicode="" />
<glyph horiz-adv-x="891" d="M 827 928 L 723 928 L 709 1100 L 623 928 L 582 928 L 498 1096 L 485 928 L 381 928 L 412 1307 L 496 1307 L 604 1094 L 711 1307 L 799 1307 L 827 928 Z M 350 1210 L 248 1210 L 248 928 L 141 928 L 141 1212 L 41 1212 L 41 1307 L 350 1307 L 350 1210 Z" unicode="" />
<glyph horiz-adv-x="1664" d="M 832 1376 C 706 1376 599 1328 510 1234 C 420 1139 376 1006 376 836 C 376 673 405 538 464 432 C 522 325 609 241 724 180 L 724 0 L 88 0 L 88 196 L 536 196 C 456 225 378 295 304 406 C 229 516 192 664 192 848 C 192 1024 247 1184 358 1330 C 468 1475 626 1548 832 1548 C 1037 1548 1195 1478 1306 1338 C 1416 1198 1472 1034 1472 848 C 1472 664 1434 516 1360 406 C 1285 295 1208 225 1128 196 L 1576 196 L 1576 0 L 940 0 L 940 180 C 1054 241 1141 325 1200 432 C 1258 538 1288 673 1288 836 C 1288 974 1246 1099 1162 1210 C 1078 1320 968 1376 832 1376 Z" unicode="" />
<glyph horiz-adv-x="1280" d="M 476 -32 C 342 -32 239 5 166 80 C 92 154 56 248 56 360 C 56 506 108 636 214 750 C 319 863 449 920 604 920 C 668 920 734 908 802 886 C 870 863 924 840 964 816 C 972 872 976 928 976 984 C 976 1109 953 1207 908 1278 C 862 1348 800 1384 720 1384 C 634 1384 567 1374 518 1356 C 468 1337 418 1312 368 1280 L 324 1444 C 374 1473 430 1498 492 1518 C 553 1538 629 1548 720 1548 C 877 1548 992 1496 1064 1394 C 1136 1291 1172 1149 1172 968 C 1172 690 1104 454 968 260 C 832 65 668 -32 476 -32 Z M 488 128 C 602 128 698 174 774 268 C 850 361 906 500 944 684 C 922 705 882 726 824 748 C 765 769 706 780 648 780 C 520 780 424 738 360 654 C 296 570 264 476 264 372 C 264 300 282 241 318 196 C 354 150 410 128 488 128 Z" unicode="" />
<glyph horiz-adv-x="1536" d="M 76 0 L 652 1536 L 884 1536 L 1456 0 L 76 0 Z M 352 148 L 1164 148 L 752 1256 L 352 148 Z" unicode="" />
<glyph horiz-adv-x="944" d="M 891 924 C 891 864 880 808 859 757 C 837 706 808 662 770 625 C 732 588 688 559 637 539 C 586 518 531 508 473 508 C 413 508 358 518 307 539 C 256 559 212 588 174 625 C 136 662 107 706 85 757 C 63 808 53 864 53 924 C 53 984 63 1039 85 1090 C 107 1140 136 1184 174 1221 C 212 1258 256 1287 307 1308 C 358 1328 413 1339 473 1339 C 531 1339 586 1328 637 1308 C 688 1287 732 1258 770 1221 C 808 1184 837 1140 859 1090 C 880 1039 891 984 891 924 Z M 793 924 C 793 970 784 1013 768 1053 C 752 1093 729 1127 701 1156 C 672 1184 638 1207 599 1223 C 560 1239 518 1247 473 1247 C 427 1247 384 1239 345 1223 C 305 1207 271 1184 242 1156 C 213 1127 190 1093 174 1053 C 158 1013 150 970 150 924 C 150 877 158 834 174 794 C 190 754 213 720 242 692 C 271 663 305 640 345 624 C 384 608 427 600 473 600 C 518 600 560 608 599 624 C 638 640 672 663 701 692 C 729 720 752 754 768 794 C 784 834 793 877 793 924 Z M 666 1008 C 666 983 661 961 652 943 C 643 924 631 908 616 896 C 601 883 584 873 564 867 C 544 861 523 858 502 858 L 457 858 L 457 684 L 342 684 L 342 1163 L 496 1163 C 516 1163 537 1159 557 1152 C 577 1145 596 1135 612 1122 C 628 1108 641 1092 651 1073 C 661 1054 666 1032 666 1008 Z M 547 1008 C 547 1027 541 1041 529 1051 C 517 1060 502 1065 485 1065 L 457 1065 L 457 954 L 485 954 C 502 954 517 958 529 967 C 541 975 547 989 547 1008 Z" unicode="" />
<glyph horiz-adv-x="1152" d="M 1084 1524 L 1084 1344 L 332 1344 L 796 784 L 304 188 L 1080 188 L 1080 0 L 40 0 L 40 172 L 560 788 L 68 1380 L 68 1524 L 1084 1524 Z" unicode="" />
<glyph horiz-adv-x="870" d="M 786 453 L 84 453 L 84 670 L 786 670 L 786 453 Z" unicode="" />
<glyph horiz-adv-x="1294" d="M 1229 1245 L 193 -37 L 68 63 L 1104 1346 L 1229 1245 Z" unicode="" />
<glyph horiz-adv-x="455" d="M 397 555 C 397 541 390 524 378 505 C 366 485 351 467 333 449 C 315 431 296 416 277 404 C 257 391 241 385 227 385 C 213 385 196 391 177 404 C 157 416 139 431 121 449 C 103 467 88 485 76 505 C 63 524 57 541 57 555 C 57 568 63 584 76 603 C 88 622 103 640 121 658 C 139 676 157 691 177 704 C 196 716 213 723 227 723 C 241 723 257 716 277 704 C 296 691 315 676 333 658 C 351 640 366 622 378 603 C 390 584 397 568 397 555 Z" unicode="" />
<glyph horiz-adv-x="1245" d="M 1227 1229 L 1034 1229 L 559 -8 L 342 -8 L 164 449 L 16 449 L 63 688 L 340 688 L 418 461 C 424 443 429 425 435 407 C 441 389 446 369 451 348 L 453 348 C 460 376 469 405 479 437 C 489 469 499 501 510 534 C 521 566 532 599 544 631 C 556 663 567 693 578 721 L 858 1458 L 1227 1458 L 1227 1229 Z" unicode="" />
<glyph horiz-adv-x="1536" d="M 468 1216 C 566 1216 646 1188 706 1134 C 766 1079 813 981 848 840 C 853 720 877 642 920 608 C 962 573 1013 556 1072 556 C 1128 556 1176 579 1218 626 C 1259 672 1280 736 1280 816 C 1280 882 1264 940 1234 988 C 1203 1036 1152 1060 1080 1060 C 1008 1060 954 1029 920 968 C 885 906 857 834 836 752 C 809 648 760 562 688 496 C 616 429 533 396 440 396 C 336 396 252 433 190 508 C 127 582 96 682 96 808 C 96 925 133 1022 208 1100 C 282 1177 369 1216 468 1216 Z M 1072 396 C 973 396 896 424 840 482 C 784 539 741 633 712 764 C 685 870 652 944 614 986 C 575 1027 528 1048 472 1048 C 408 1048 356 1026 316 982 C 276 938 256 874 256 792 C 256 709 271 648 302 610 C 332 571 381 552 448 552 C 509 552 562 576 608 624 C 653 672 689 752 716 864 C 748 984 796 1072 860 1130 C 924 1187 1004 1216 1100 1216 C 1198 1216 1280 1181 1346 1112 C 1411 1042 1444 945 1444 820 C 1444 700 1409 599 1340 518 C 1270 436 1181 396 1072 396 Z" unicode="" />
<glyph horiz-adv-x="1152" d="M -8 -392 L 56 -260 C 72 -265 88 -270 104 -274 C 120 -278 140 -280 164 -280 C 196 -280 222 -268 242 -246 C 262 -223 277 -178 288 -112 L 516 1224 C 534 1330 574 1410 636 1464 C 697 1517 778 1544 880 1544 C 941 1544 995 1536 1042 1522 C 1088 1507 1125 1492 1152 1476 L 1088 1304 C 1058 1322 1025 1340 988 1356 C 950 1372 910 1380 868 1380 C 806 1380 760 1360 730 1322 C 699 1283 680 1238 672 1188 L 448 -224 C 434 -296 402 -348 350 -382 C 298 -415 240 -432 176 -432 C 136 -432 99 -428 66 -420 C 32 -412 8 -402 -8 -392 Z" unicode="" />
<glyph horiz-adv-x="1536" d="M 236 400 C 230 429 228 456 228 480 C 228 546 248 604 288 652 C 328 700 390 724 476 724 C 542 724 600 714 650 696 C 699 677 745 659 788 642 C 830 624 872 610 912 598 C 952 586 988 580 1020 580 C 1070 580 1106 590 1128 610 C 1149 630 1160 654 1160 684 C 1160 694 1158 705 1156 716 L 1300 716 C 1305 686 1308 660 1308 636 C 1308 569 1288 512 1248 464 C 1208 416 1145 392 1060 392 C 993 392 935 400 886 418 C 836 435 790 452 748 470 C 705 487 664 501 624 512 C 584 522 548 528 516 528 C 465 528 429 518 408 500 C 386 481 376 458 376 432 C 376 421 377 410 380 400 L 236 400 Z M 236 860 C 230 889 228 916 228 940 C 228 1006 248 1064 288 1112 C 328 1160 390 1184 476 1184 C 542 1184 600 1174 650 1156 C 699 1137 745 1119 788 1102 C 830 1084 872 1070 912 1058 C 952 1046 988 1040 1020 1040 C 1070 1040 1106 1050 1128 1070 C 1149 1090 1160 1114 1160 1144 C 1160 1154 1158 1165 1156 1176 L 1300 1176 C 1305 1146 1308 1120 1308 1096 C 1308 1029 1288 972 1248 924 C 1208 876 1145 852 1060 852 C 993 852 935 860 886 878 C 836 895 790 912 748 930 C 705 947 664 961 624 972 C 584 982 548 988 516 988 C 465 988 429 978 408 960 C 386 941 376 918 376 892 C 376 881 377 870 380 860 L 236 860 Z" unicode="" />
<glyph horiz-adv-x="1536" d="M 212 404 L 212 604 L 1328 604 L 1328 404 L 212 404 Z M 212 976 L 212 1176 L 1328 1176 L 1328 976 L 212 976 Z M 548 188 L 372 188 L 996 1356 L 1168 1356 L 548 188 Z" unicode="" />
<glyph horiz-adv-x="926" d="M 858 145 L 68 406 L 68 727 L 858 997 L 858 760 L 260 567 L 858 383 L 858 145 Z M 858 -100 L 68 -100 L 68 80 L 858 80 L 858 -100 Z" unicode="" />
<glyph horiz-adv-x="926" d="M 858 406 L 68 145 L 68 383 L 666 567 L 68 760 L 68 997 L 858 727 L 858 406 Z M 858 -100 L 68 -100 L 68 80 L 858 80 L 858 -100 Z" unicode="" />
<glyph horiz-adv-x="1090" d="M 995 567 L 539 113 L 84 567 L 539 1022 L 995 567 Z M 760 567 L 539 786 L 319 567 L 539 346 L 760 567 Z" unicode="" />
<glyph horiz-adv-x="1190" d="M 1139 313 C 1139 294 1135 277 1128 263 C 1121 249 1112 237 1101 228 C 1090 218 1078 211 1064 206 C 1050 201 1037 199 1024 199 L 1024 0 L 57 0 L 57 928 L 1024 928 L 1024 428 L 1139 313 Z M 965 483 L 965 786 L 662 786 L 965 483 Z M 434 786 L 117 786 C 117 764 121 743 129 724 C 137 705 148 688 162 674 C 176 660 193 649 212 641 C 231 633 252 629 274 629 C 296 629 316 633 336 641 C 355 649 372 660 387 674 C 401 688 413 705 421 724 C 429 743 434 764 434 786 Z M 965 59 L 965 223 L 186 590 C 160 601 137 619 117 645 L 117 59 L 965 59 Z" unicode="" />
<glyph horiz-adv-x="1292" d="M 1354 1427 L 1298 1190 C 1280 1197 1260 1203 1238 1207 C 1216 1211 1196 1214 1178 1214 C 1066 1214 1010 1148 1010 1016 L 1010 928 L 1260 928 L 1204 682 L 1010 682 L 1010 0 L 719 0 L 719 682 L 449 682 L 449 0 L 158 0 L 158 682 L 16 682 L 16 928 L 158 928 L 158 1036 C 158 1106 168 1168 190 1221 C 211 1274 240 1318 278 1353 C 315 1388 359 1414 410 1432 C 460 1449 515 1458 573 1458 C 635 1458 691 1450 742 1436 C 793 1422 837 1403 874 1380 C 909 1407 949 1427 993 1439 C 1037 1451 1084 1458 1135 1458 C 1156 1458 1177 1457 1199 1456 C 1220 1454 1240 1452 1259 1450 C 1278 1448 1296 1445 1312 1441 C 1328 1437 1342 1432 1354 1427 Z M 737 1176 C 716 1191 694 1202 671 1210 C 647 1217 625 1221 604 1221 C 500 1221 449 1152 449 1016 L 449 928 L 719 928 L 719 1036 C 719 1088 725 1134 737 1176 Z" unicode="" />
<glyph horiz-adv-x="1118" d="M 1028 0 L 727 0 L 727 682 L 449 682 L 449 0 L 158 0 L 158 682 L 16 682 L 16 928 L 158 928 L 158 1036 C 158 1106 168 1168 190 1221 C 211 1274 240 1318 278 1353 C 315 1388 359 1414 410 1432 C 460 1449 515 1458 573 1458 C 616 1458 657 1455 697 1450 C 737 1445 769 1437 793 1427 L 737 1190 C 719 1197 699 1203 677 1207 C 655 1211 634 1214 616 1214 C 504 1214 449 1148 449 1016 L 449 928 L 1028 928 L 1028 0 Z" unicode="" />
<glyph horiz-adv-x="1174" d="M 1143 207 L 1038 -37 C 990 -35 947 -27 908 -13 C 868 0 835 20 807 47 C 779 74 757 108 742 148 C 726 188 719 237 719 293 L 719 1184 C 703 1195 685 1204 664 1211 C 643 1217 623 1221 604 1221 C 500 1221 449 1152 449 1016 L 449 928 L 586 928 L 586 682 L 449 682 L 449 0 L 158 0 L 158 682 L 16 682 L 16 928 L 158 928 L 158 1036 C 158 1106 168 1168 190 1221 C 211 1274 240 1318 278 1353 C 315 1388 359 1414 410 1432 C 460 1449 515 1458 573 1458 C 627 1458 677 1453 721 1444 C 765 1435 804 1423 840 1408 C 876 1393 908 1376 937 1356 C 965 1336 992 1315 1016 1294 L 1016 330 C 1016 292 1026 262 1048 242 C 1070 222 1101 210 1143 207 Z" unicode="" />
<glyph horiz-adv-x="1679" d="M 1589 0 L 1288 0 L 1288 682 L 1010 682 L 1010 0 L 719 0 L 719 682 L 449 682 L 449 0 L 158 0 L 158 682 L 16 682 L 16 928 L 158 928 L 158 1036 C 158 1106 168 1168 190 1221 C 211 1274 240 1318 278 1353 C 315 1388 359 1414 410 1432 C 460 1449 515 1458 573 1458 C 635 1458 691 1450 742 1436 C 793 1422 837 1403 874 1380 C 909 1407 949 1427 993 1439 C 1037 1451 1084 1458 1135 1458 C 1156 1458 1177 1457 1199 1456 C 1220 1454 1240 1452 1259 1450 C 1278 1448 1296 1445 1312 1441 C 1328 1437 1342 1432 1354 1427 L 1298 1190 C 1280 1197 1260 1203 1238 1207 C 1216 1211 1196 1214 1178 1214 C 1066 1214 1010 1148 1010 1016 L 1010 928 L 1589 928 L 1589 0 Z M 737 1176 C 716 1191 694 1202 671 1210 C 647 1217 625 1221 604 1221 C 500 1221 449 1152 449 1016 L 449 928 L 719 928 L 719 1036 C 719 1088 725 1134 737 1176 Z" unicode="" />
<glyph horiz-adv-x="1735" d="M 1704 207 L 1599 -37 C 1551 -35 1508 -27 1469 -13 C 1429 0 1396 20 1368 47 C 1340 74 1318 108 1303 148 C 1287 188 1280 237 1280 293 L 1280 1184 C 1264 1195 1246 1204 1225 1211 C 1204 1217 1184 1221 1165 1221 C 1061 1221 1010 1152 1010 1016 L 1010 928 L 1147 928 L 1147 682 L 1010 682 L 1010 0 L 719 0 L 719 682 L 449 682 L 449 0 L 158 0 L 158 682 L 16 682 L 16 928 L 158 928 L 158 1036 C 158 1106 168 1168 190 1221 C 211 1274 240 1318 278 1353 C 315 1388 359 1414 410 1432 C 460 1449 515 1458 573 1458 C 635 1458 691 1450 742 1436 C 793 1422 837 1403 874 1380 C 909 1407 949 1427 993 1439 C 1037 1451 1084 1458 1135 1458 C 1189 1458 1238 1453 1282 1444 C 1326 1435 1365 1423 1401 1408 C 1437 1393 1469 1376 1498 1356 C 1526 1336 1553 1315 1577 1294 L 1577 330 C 1577 292 1587 262 1609 242 C 1631 222 1662 210 1704 207 Z M 737 1176 C 716 1191 694 1202 671 1210 C 647 1217 625 1221 604 1221 C 500 1221 449 1152 449 1016 L 449 928 L 719 928 L 719 1036 C 719 1088 725 1134 737 1176 Z" unicode="" />
</font>
</defs>
</svg>
