<?xml version="1.0" encoding="utf-8" ?><svg version="1.1" xmlns = 'http://www.w3.org/2000/svg'><defs><font id='web' horiz-adv-x="1000">
<font-face font-family="web" descent="-473" cap-height="1307" units-per-em="2048" bbox="-166,-483,2089,1905" x-height="928" ascent="1458" />
<missing-glyph horiz-adv-x="471" d="" /><glyph horiz-adv-x="471" d="" unicode=" " />
<glyph horiz-adv-x="547" d="M 383 1307 L 350 373 L 197 408 L 164 1307 L 383 1307 Z M 406 102 C 406 92 401 79 392 65 C 382 51 371 37 358 24 C 345 11 331 0 317 -9 C 303 -18 291 -23 281 -23 C 271 -23 258 -18 244 -9 C 230 0 216 11 203 24 C 190 37 179 51 170 65 C 160 79 156 92 156 102 C 156 112 160 124 170 138 C 179 152 190 165 203 178 C 216 191 230 202 244 211 C 258 220 271 225 281 225 C 291 225 303 220 317 211 C 331 202 345 191 358 178 C 371 165 382 152 392 138 C 401 124 406 112 406 102 Z" unicode="!" />
<glyph horiz-adv-x="641" d="M 561 1307 L 526 838 L 428 838 L 395 1307 L 561 1307 Z M 246 1307 L 209 838 L 111 838 L 80 1307 L 246 1307 Z" unicode="&#x22;" />
<glyph horiz-adv-x="791" d="M 780 776 L 655 776 L 598 530 L 729 530 L 729 412 L 569 412 L 475 0 L 342 0 L 436 412 L 242 412 L 147 0 L 14 0 L 109 412 L 10 412 L 10 530 L 137 530 L 195 776 L 61 776 L 61 895 L 223 895 L 317 1307 L 451 1307 L 356 895 L 551 895 L 645 1307 L 778 1307 L 684 895 L 780 895 L 780 776 Z M 522 776 L 328 776 L 270 530 L 465 530 L 522 776 Z" unicode="#" />
<glyph horiz-adv-x="952" d="M 870 365 C 870 307 860 255 842 211 C 824 166 799 128 767 96 C 735 64 698 39 656 20 C 613 1 568 -11 520 -18 L 520 -199 L 403 -199 L 403 -25 C 342 -21 285 -12 232 4 C 179 20 129 44 82 76 L 123 246 C 141 232 161 219 183 207 C 205 194 228 183 254 173 C 280 163 307 154 337 148 C 366 142 397 139 430 139 C 470 139 506 144 538 156 C 570 167 597 182 619 201 C 641 220 657 242 669 268 C 680 293 686 320 686 348 C 686 400 665 446 625 488 C 585 529 527 563 451 590 C 395 609 345 632 301 658 C 256 684 218 713 187 745 C 155 777 131 813 114 851 C 96 889 88 929 88 973 C 88 1022 96 1067 112 1107 C 128 1147 151 1183 179 1213 C 207 1243 241 1267 279 1286 C 317 1305 359 1319 403 1327 L 403 1509 L 520 1509 L 520 1333 C 567 1331 613 1324 657 1314 C 701 1304 744 1286 786 1262 L 750 1102 C 712 1122 672 1139 629 1152 C 586 1164 539 1171 489 1171 C 455 1171 424 1166 397 1156 C 370 1146 347 1132 328 1116 C 309 1099 295 1080 285 1058 C 275 1036 270 1013 270 989 C 270 943 288 904 326 871 C 363 837 417 807 487 780 C 543 758 595 734 642 706 C 689 678 729 647 763 613 C 797 579 823 541 842 500 C 860 458 870 413 870 365 Z" unicode="$" />
<glyph horiz-adv-x="1425" d="M 1350 270 C 1350 226 1342 185 1328 149 C 1313 113 1293 82 1267 56 C 1241 30 1210 10 1174 -3 C 1138 -17 1100 -25 1059 -25 C 1017 -25 978 -17 942 -3 C 906 10 875 30 849 56 C 823 82 802 113 788 149 C 773 185 766 226 766 270 C 766 312 773 351 788 387 C 802 423 823 454 849 480 C 875 506 906 526 942 541 C 978 555 1017 563 1059 563 C 1100 563 1138 555 1174 541 C 1210 526 1241 506 1267 480 C 1293 454 1313 423 1328 387 C 1342 351 1350 312 1350 270 Z M 1198 270 C 1198 292 1194 313 1187 331 C 1179 349 1169 365 1157 378 C 1144 391 1129 401 1112 408 C 1095 414 1077 418 1059 418 C 1039 418 1021 414 1004 408 C 986 401 971 391 959 378 C 946 365 936 349 929 331 C 921 313 918 292 918 270 C 918 246 921 225 929 206 C 936 186 946 170 959 157 C 971 143 986 133 1004 126 C 1021 118 1039 115 1059 115 C 1077 115 1095 118 1112 126 C 1129 133 1144 143 1157 157 C 1169 170 1179 186 1187 206 C 1194 225 1198 246 1198 270 Z M 1292 1282 L 217 -49 L 127 27 L 1202 1358 L 1292 1282 Z M 655 1040 C 655 996 647 955 633 919 C 618 883 598 852 572 826 C 546 800 515 780 480 766 C 444 752 406 745 365 745 C 323 745 284 752 248 766 C 212 780 181 800 155 826 C 129 852 108 883 94 919 C 79 955 72 996 72 1040 C 72 1082 79 1121 94 1157 C 108 1193 129 1224 155 1250 C 181 1276 212 1296 248 1311 C 284 1325 323 1333 365 1333 C 406 1333 444 1325 480 1311 C 515 1296 546 1276 572 1250 C 598 1224 618 1193 633 1157 C 647 1121 655 1082 655 1040 Z M 504 1040 C 504 1063 500 1084 493 1102 C 485 1120 475 1136 463 1149 C 450 1161 435 1171 418 1178 C 401 1184 383 1188 365 1188 C 345 1188 327 1184 310 1178 C 292 1171 277 1161 264 1149 C 251 1136 241 1120 234 1102 C 226 1084 223 1063 223 1040 C 223 1016 226 995 234 976 C 241 956 251 940 264 927 C 277 913 292 903 310 896 C 327 888 345 885 365 885 C 383 885 401 888 418 896 C 435 903 450 913 463 927 C 475 940 485 956 493 976 C 500 995 504 1016 504 1040 Z" unicode="%" />
<glyph horiz-adv-x="1278" d="M 1268 0 L 1016 0 L 899 117 C 845 73 785 38 719 13 C 652 -12 578 -25 498 -25 C 436 -25 380 -15 330 2 C 279 20 235 46 198 78 C 161 110 132 147 112 190 C 92 233 82 279 82 328 C 82 369 87 407 97 441 C 107 475 123 506 143 535 C 163 564 189 591 220 617 C 250 642 286 666 328 690 C 278 742 238 793 208 844 C 178 894 164 948 164 1004 C 164 1054 173 1099 192 1140 C 210 1180 235 1215 267 1243 C 299 1271 335 1293 376 1309 C 417 1325 460 1333 506 1333 C 552 1333 597 1325 640 1309 C 683 1293 721 1271 754 1243 C 787 1215 814 1180 834 1140 C 854 1099 864 1054 864 1004 C 864 933 843 869 801 811 C 759 753 696 701 614 653 L 897 371 C 929 415 956 460 980 508 C 1003 555 1022 601 1036 647 L 1161 520 C 1143 470 1123 423 1100 377 C 1076 331 1050 288 1020 248 L 1268 0 Z M 686 1001 C 686 1023 682 1044 674 1065 C 666 1086 655 1105 640 1121 C 624 1137 605 1149 583 1159 C 561 1169 535 1174 506 1174 C 480 1174 458 1169 438 1160 C 418 1150 400 1138 386 1123 C 372 1108 361 1091 353 1072 C 345 1052 342 1033 342 1014 C 342 992 345 972 352 954 C 359 935 369 916 383 897 C 396 878 412 859 431 839 C 449 819 470 798 494 776 C 622 846 686 921 686 1001 Z M 776 240 L 446 569 C 390 539 346 507 316 471 C 285 435 270 390 270 338 C 270 308 276 281 289 257 C 301 232 318 211 340 193 C 361 175 386 162 415 152 C 444 142 475 137 508 137 C 559 137 607 146 652 165 C 696 183 738 208 776 240 Z" unicode="&#x26;" />
<glyph horiz-adv-x="326" d="M 246 1307 L 209 838 L 111 838 L 80 1307 L 246 1307 Z" unicode="'" />
<glyph horiz-adv-x="510" d="M 500 1415 C 465 1352 433 1285 405 1214 C 376 1142 351 1068 330 990 C 309 912 293 831 281 748 C 269 665 264 581 264 496 C 264 406 268 321 277 239 C 286 157 300 77 319 -1 C 337 -79 361 -156 389 -233 C 417 -309 451 -387 489 -465 L 297 -422 C 265 -359 235 -295 209 -229 C 183 -163 160 -94 141 -20 C 122 53 107 132 97 216 C 87 300 82 393 82 494 C 82 592 87 684 98 772 C 108 859 124 942 144 1021 C 164 1100 188 1175 216 1247 C 244 1319 277 1388 313 1456 L 500 1415 Z" unicode="(" />
<glyph horiz-adv-x="510" d="M 428 494 C 428 396 422 303 412 216 C 401 128 386 45 366 -33 C 346 -112 321 -188 292 -260 C 263 -332 231 -401 195 -469 L 10 -426 C 44 -363 75 -296 104 -225 C 133 -153 158 -79 179 -1 C 200 77 216 157 228 240 C 240 322 246 406 246 492 C 246 581 241 667 232 749 C 222 831 208 911 190 989 C 171 1067 147 1144 119 1221 C 91 1297 58 1375 20 1454 L 213 1409 C 245 1345 274 1281 300 1216 C 326 1150 349 1081 368 1007 C 387 933 402 854 412 770 C 422 686 428 594 428 494 Z" unicode=")" />
<glyph horiz-adv-x="852" d="M 823 1059 L 532 983 L 702 776 L 588 649 L 424 901 L 283 678 L 127 750 L 317 983 L 61 1049 L 80 1217 L 356 1106 L 340 1370 L 510 1409 L 489 1106 L 733 1208 L 823 1059 Z" unicode="*" />
<glyph horiz-adv-x="930" d="M 848 487 L 553 487 L 553 207 L 379 207 L 379 487 L 82 487 L 82 647 L 379 647 L 379 928 L 553 928 L 553 647 L 848 647 L 848 487 Z" unicode="+" />
<glyph horiz-adv-x="406" d="M 328 102 C 328 74 322 42 311 8 C 299 -25 285 -60 267 -94 C 249 -128 230 -160 208 -191 C 186 -221 164 -247 143 -268 L 78 -256 C 93 -237 107 -217 120 -195 C 132 -173 143 -151 153 -129 C 162 -106 169 -84 174 -62 C 179 -40 182 -19 182 0 C 171 2 159 7 147 15 C 135 23 123 32 113 42 C 103 52 94 62 88 73 C 81 84 78 94 78 102 C 78 113 82 126 92 140 C 101 154 112 168 126 180 C 139 192 153 203 167 212 C 181 220 193 225 203 225 C 211 225 223 220 237 212 C 251 204 264 193 278 181 C 292 169 303 155 313 141 C 323 127 328 114 328 102 Z" unicode="," />
<glyph horiz-adv-x="676" d="M 594 487 L 82 487 L 82 647 L 594 647 L 594 487 Z" unicode="-" />
<glyph horiz-adv-x="406" d="M 328 102 C 328 92 323 79 314 65 C 304 51 293 37 280 24 C 267 11 253 0 239 -9 C 225 -18 213 -23 203 -23 C 193 -23 180 -18 166 -9 C 152 0 138 11 125 24 C 112 37 101 51 92 65 C 82 79 78 92 78 102 C 78 112 82 124 92 138 C 101 152 112 165 125 178 C 138 191 152 202 166 211 C 180 220 193 225 203 225 C 213 225 225 220 239 211 C 253 202 267 191 280 178 C 293 165 304 152 314 138 C 323 124 328 112 328 102 Z" unicode="." />
<glyph horiz-adv-x="977" d="M 915 1311 L 76 -332 L -61 -260 L 778 1382 L 915 1311 Z" unicode="/" />
<glyph horiz-adv-x="1057" d="M 975 655 C 975 539 962 439 938 354 C 913 268 880 198 839 142 C 797 86 750 44 696 16 C 642 -11 586 -25 528 -25 C 468 -25 412 -11 358 16 C 304 44 257 86 216 142 C 175 198 142 268 118 354 C 94 439 82 539 82 655 C 82 769 94 869 118 954 C 142 1039 175 1110 216 1166 C 257 1222 304 1263 358 1291 C 412 1319 468 1333 528 1333 C 586 1333 642 1319 696 1291 C 750 1263 797 1222 839 1166 C 880 1110 913 1039 938 954 C 962 869 975 769 975 655 Z M 786 655 C 786 747 778 825 764 890 C 749 955 730 1008 706 1049 C 682 1090 654 1120 623 1139 C 592 1157 560 1167 528 1167 C 494 1167 462 1157 431 1139 C 400 1120 373 1090 349 1049 C 325 1008 305 955 291 890 C 277 825 270 747 270 655 C 270 561 277 482 291 417 C 305 352 325 299 349 258 C 373 217 400 187 431 169 C 462 150 494 141 528 141 C 560 141 592 150 623 169 C 654 187 682 217 706 258 C 730 299 749 352 764 417 C 778 482 786 561 786 655 Z" unicode="0" />
<glyph horiz-adv-x="555" d="M 422 0 L 236 0 L 236 1157 L 10 1135 L 45 1290 L 422 1325 L 422 0 Z" unicode="1" />
<glyph horiz-adv-x="944" d="M 862 0 L 72 0 L 72 37 C 147 125 217 211 282 295 C 346 379 402 459 450 535 C 498 611 535 683 563 749 C 590 815 604 875 604 928 C 604 968 598 1004 587 1034 C 576 1064 561 1090 542 1110 C 523 1130 501 1144 475 1154 C 449 1164 421 1169 391 1169 C 345 1169 300 1162 256 1148 C 211 1134 170 1115 133 1090 L 92 1251 C 133 1278 178 1298 227 1312 C 276 1326 330 1333 389 1333 C 447 1333 501 1324 551 1306 C 600 1288 643 1262 679 1228 C 715 1193 743 1150 763 1099 C 783 1047 793 988 793 922 C 793 858 780 794 755 728 C 729 662 697 597 657 532 C 617 467 572 403 523 340 C 474 277 426 217 379 160 L 862 160 L 862 0 Z" unicode="2" />
<glyph horiz-adv-x="885" d="M 803 387 C 803 328 792 274 771 224 C 750 174 719 130 679 94 C 639 57 589 28 530 8 C 471 -12 404 -23 328 -23 C 294 -23 258 -19 218 -11 C 178 -3 143 6 111 20 L 90 203 C 123 184 160 169 201 158 C 241 146 281 141 319 141 C 355 141 390 146 426 156 C 461 166 492 183 520 205 C 548 227 570 255 588 289 C 605 323 614 363 614 410 C 614 444 606 476 592 507 C 578 537 558 564 534 588 C 509 611 480 629 447 643 C 414 657 379 664 342 664 C 338 664 333 664 326 664 C 319 664 312 663 305 662 L 268 815 C 302 821 333 831 363 845 C 392 858 417 874 439 892 C 461 910 478 930 491 952 C 503 974 510 997 510 1022 C 510 1044 505 1065 497 1084 C 488 1102 476 1118 461 1131 C 446 1143 428 1153 408 1160 C 387 1167 365 1171 342 1171 C 322 1171 304 1170 287 1168 C 269 1166 252 1162 236 1158 C 220 1154 203 1148 186 1140 C 168 1132 150 1123 131 1112 L 98 1270 C 137 1291 177 1307 217 1317 C 257 1327 300 1333 348 1333 C 398 1333 444 1325 487 1311 C 529 1297 566 1277 597 1251 C 628 1225 652 1193 670 1157 C 687 1121 696 1081 696 1038 C 696 1002 690 970 680 942 C 669 913 655 888 638 867 C 621 845 601 827 579 813 C 557 798 534 787 512 780 C 547 772 582 757 617 737 C 651 717 682 690 710 658 C 738 625 760 586 777 541 C 794 496 803 445 803 387 Z" unicode="3" />
<glyph horiz-adv-x="987" d="M 905 350 L 752 350 L 752 0 L 565 0 L 565 350 L 43 350 L 10 498 L 627 1307 L 752 1307 L 752 502 L 905 502 L 905 350 Z M 567 979 L 563 981 C 544 951 525 922 505 895 C 485 868 465 842 446 817 L 205 502 L 565 502 L 565 819 C 565 844 565 870 565 896 C 565 922 565 950 567 979 Z" unicode="4" />
<glyph horiz-adv-x="934" d="M 852 399 C 852 343 842 289 822 238 C 802 187 773 142 735 104 C 697 65 649 34 592 11 C 534 -11 468 -23 393 -23 C 343 -23 296 -18 252 -8 C 208 2 172 14 145 29 L 125 213 C 166 188 208 170 251 158 C 293 146 337 141 383 141 C 421 141 457 146 491 158 C 525 170 554 187 580 209 C 606 231 626 259 641 291 C 656 323 664 360 664 401 C 664 443 656 480 641 514 C 626 547 606 575 581 598 C 555 621 526 639 493 651 C 460 663 425 670 389 670 C 341 670 299 667 263 661 C 227 655 194 646 164 635 L 184 1307 L 756 1307 L 721 1147 L 362 1147 L 354 829 C 362 830 371 831 381 832 C 390 833 399 834 408 834 C 468 834 526 824 580 804 C 634 784 681 755 721 718 C 761 680 793 635 817 581 C 840 527 852 467 852 399 Z" unicode="5" />
<glyph horiz-adv-x="1032" d="M 961 403 C 961 341 950 285 928 233 C 906 181 875 136 837 98 C 798 60 752 30 699 9 C 646 -12 588 -23 526 -23 C 466 -23 410 -12 356 7 C 302 27 255 58 215 98 C 174 138 142 187 118 246 C 94 305 82 373 82 451 C 82 537 97 625 127 713 C 157 801 200 884 254 964 C 308 1043 372 1116 446 1183 C 520 1250 600 1306 688 1352 L 872 1266 C 810 1235 752 1201 698 1164 C 644 1126 594 1086 549 1042 C 503 998 463 951 427 901 C 391 851 362 797 338 741 C 362 766 391 786 425 802 C 458 817 497 825 541 825 C 603 825 660 814 712 792 C 763 770 807 740 844 702 C 881 664 910 619 930 568 C 950 516 961 461 961 403 Z M 772 393 C 772 429 766 464 754 496 C 742 528 725 555 704 578 C 682 601 657 619 627 633 C 597 646 564 653 528 653 C 502 653 476 650 450 644 C 424 638 399 629 376 615 C 353 601 333 583 315 560 C 297 536 283 507 274 471 C 272 459 272 448 272 437 C 272 425 272 414 272 403 C 272 366 279 331 293 299 C 307 266 326 237 350 213 C 374 188 401 168 432 154 C 463 140 496 133 530 133 C 564 133 595 139 625 152 C 654 164 680 182 702 205 C 724 227 741 255 753 287 C 765 319 772 354 772 393 Z" unicode="6" />
<glyph horiz-adv-x="918" d="M 877 1307 L 315 0 L 115 0 L 610 1147 L 10 1147 L 10 1307 L 877 1307 Z" unicode="7" />
<glyph horiz-adv-x="1038" d="M 956 362 C 956 301 944 247 921 199 C 897 151 866 110 826 77 C 786 44 739 19 686 1 C 633 -16 577 -25 518 -25 C 458 -25 402 -16 350 1 C 297 19 251 44 211 77 C 171 110 140 151 117 199 C 93 247 82 301 82 362 C 82 411 90 455 108 495 C 125 534 147 568 173 598 C 199 628 227 652 257 672 C 287 691 314 705 340 715 C 314 725 290 738 266 755 C 242 772 220 793 202 817 C 183 841 168 868 156 899 C 144 929 139 963 139 1001 C 139 1049 148 1094 167 1135 C 186 1175 213 1210 247 1240 C 281 1269 321 1292 367 1308 C 413 1324 464 1333 518 1333 C 572 1333 622 1324 669 1308 C 715 1292 756 1269 790 1240 C 824 1210 850 1175 870 1135 C 889 1094 899 1049 899 1001 C 899 965 893 931 881 901 C 869 871 853 843 834 819 C 815 795 794 774 770 757 C 746 740 722 727 698 719 C 722 711 750 697 780 677 C 810 657 838 632 864 602 C 890 572 911 536 929 496 C 947 456 956 411 956 362 Z M 721 997 C 721 1023 715 1046 705 1068 C 695 1090 681 1109 663 1125 C 645 1141 623 1153 599 1162 C 574 1171 548 1176 520 1176 C 492 1176 467 1171 443 1162 C 419 1153 398 1141 380 1125 C 362 1109 347 1090 337 1068 C 327 1046 322 1023 322 997 C 322 974 327 952 337 931 C 347 909 362 890 380 872 C 398 854 419 838 445 824 C 470 810 498 799 528 791 C 558 799 585 811 609 825 C 633 839 653 856 670 874 C 686 892 699 911 708 932 C 716 953 721 975 721 997 Z M 768 369 C 768 403 759 434 743 462 C 726 490 705 515 679 537 C 653 559 624 577 593 592 C 562 607 532 619 504 627 C 476 619 447 607 418 592 C 389 576 363 558 339 536 C 315 514 296 490 281 462 C 265 434 258 403 258 369 C 258 335 264 305 278 277 C 292 249 310 224 334 204 C 357 183 384 167 415 156 C 445 144 478 139 512 139 C 546 139 579 144 610 156 C 641 167 668 183 692 204 C 715 224 733 249 747 277 C 761 305 768 335 768 369 Z" unicode="8" />
<glyph horiz-adv-x="1032" d="M 950 860 C 950 802 943 743 929 685 C 915 626 896 568 870 512 C 844 455 814 400 778 346 C 742 292 701 242 656 195 C 611 147 562 104 510 64 C 457 24 402 -11 344 -41 L 160 45 C 222 76 281 110 336 147 C 391 184 441 224 487 268 C 533 311 573 358 609 408 C 645 458 674 511 698 569 C 673 544 644 524 610 508 C 576 492 537 485 492 485 C 429 485 372 496 321 518 C 269 540 225 570 188 608 C 151 646 122 690 102 742 C 82 793 72 848 72 907 C 72 968 82 1025 104 1077 C 126 1129 156 1174 195 1212 C 233 1250 279 1279 332 1301 C 385 1322 443 1333 506 1333 C 565 1333 621 1322 675 1302 C 729 1282 776 1252 817 1212 C 857 1172 890 1122 914 1063 C 938 1004 950 936 950 860 Z M 760 895 C 760 931 752 966 738 999 C 724 1031 705 1060 681 1085 C 657 1109 630 1129 599 1143 C 568 1157 536 1165 502 1165 C 468 1165 436 1158 407 1146 C 377 1134 352 1116 330 1093 C 308 1070 291 1043 279 1011 C 266 979 260 943 260 905 C 260 868 266 834 278 802 C 290 770 306 743 328 720 C 349 696 375 678 405 665 C 435 651 468 645 504 645 C 530 645 556 648 582 654 C 608 660 633 670 656 684 C 679 698 699 717 717 741 C 735 765 748 795 758 831 C 759 841 760 852 760 862 C 760 872 760 883 760 895 Z" unicode="9" />
<glyph horiz-adv-x="406" d="M 328 825 C 328 815 323 803 314 789 C 304 775 293 761 280 748 C 267 735 253 724 239 715 C 225 706 213 702 203 702 C 193 702 180 706 166 715 C 152 724 138 735 125 748 C 112 761 101 775 92 789 C 82 803 78 815 78 825 C 78 835 82 847 92 861 C 101 875 112 889 125 902 C 138 915 152 926 166 936 C 180 945 193 950 203 950 C 213 950 225 945 239 936 C 253 926 267 915 280 902 C 293 889 304 875 314 861 C 323 847 328 835 328 825 Z M 328 102 C 328 92 323 79 314 65 C 304 51 293 37 280 24 C 267 11 253 0 239 -9 C 225 -18 213 -23 203 -23 C 193 -23 180 -18 166 -9 C 152 0 138 11 125 24 C 112 37 101 51 92 65 C 82 79 78 92 78 102 C 78 112 82 124 92 138 C 101 152 112 165 125 178 C 138 191 152 202 166 211 C 180 220 193 225 203 225 C 213 225 225 220 239 211 C 253 202 267 191 280 178 C 293 165 304 152 314 138 C 323 124 328 112 328 102 Z" unicode=":" />
<glyph horiz-adv-x="406" d="M 328 825 C 328 815 323 803 314 789 C 304 775 293 761 280 748 C 267 735 253 724 239 715 C 225 706 213 702 203 702 C 193 702 180 706 166 715 C 152 724 138 735 125 748 C 112 761 101 775 92 789 C 82 803 78 815 78 825 C 78 835 82 847 92 861 C 101 875 112 889 125 902 C 138 915 152 926 166 936 C 180 945 193 950 203 950 C 213 950 225 945 239 936 C 253 926 267 915 280 902 C 293 889 304 875 314 861 C 323 847 328 835 328 825 Z M 328 102 C 328 74 322 42 311 8 C 299 -25 285 -60 267 -94 C 249 -128 230 -160 208 -191 C 186 -221 164 -247 143 -268 L 78 -256 C 93 -237 107 -217 120 -195 C 132 -173 143 -151 153 -129 C 162 -106 169 -84 174 -62 C 179 -40 182 -19 182 0 C 171 2 159 7 147 15 C 135 23 123 32 113 42 C 103 52 94 62 88 73 C 81 84 78 94 78 102 C 78 113 82 126 92 140 C 101 154 112 168 126 180 C 139 192 153 203 167 212 C 181 220 193 225 203 225 C 211 225 223 220 237 212 C 251 204 264 193 278 181 C 292 169 303 155 313 141 C 323 127 328 114 328 102 Z" unicode=";" />
<glyph horiz-adv-x="930" d="M 848 205 L 82 459 L 82 678 L 848 932 L 848 764 L 231 567 L 848 373 L 848 205 Z" unicode="&#x3C;" />
<glyph horiz-adv-x="930" d="M 848 664 L 82 664 L 82 823 L 848 823 L 848 664 Z M 848 311 L 82 311 L 82 471 L 848 471 L 848 311 Z" unicode="=" />
<glyph horiz-adv-x="930" d="M 848 459 L 82 205 L 82 373 L 698 567 L 82 764 L 82 932 L 848 678 L 848 459 Z" unicode="&#x3E;" />
<glyph horiz-adv-x="766" d="M 694 1006 C 694 976 690 948 682 923 C 674 897 663 872 649 848 C 635 824 617 799 596 773 C 574 747 550 720 522 690 C 490 655 467 622 455 590 C 442 558 436 526 436 496 C 436 476 436 456 438 434 C 439 412 442 391 446 373 L 279 410 C 273 429 269 446 267 461 C 265 475 264 493 264 514 C 264 568 274 622 295 674 C 316 726 345 771 383 809 C 401 827 418 845 432 862 C 446 878 457 895 467 912 C 476 928 483 946 488 964 C 493 982 496 1002 496 1024 C 496 1039 492 1055 485 1072 C 478 1088 468 1104 454 1118 C 440 1132 422 1143 402 1153 C 382 1162 358 1167 332 1167 C 286 1167 246 1160 210 1147 C 174 1133 141 1116 109 1096 L 72 1262 C 104 1282 142 1299 186 1313 C 230 1326 278 1333 330 1333 C 382 1333 430 1325 475 1311 C 519 1296 558 1275 590 1247 C 622 1219 648 1185 666 1145 C 684 1104 694 1058 694 1006 Z M 494 102 C 494 92 489 79 480 65 C 471 51 460 37 447 24 C 434 11 420 0 406 -9 C 392 -18 379 -23 369 -23 C 359 -23 346 -18 332 -9 C 318 0 304 11 291 24 C 278 37 267 51 258 65 C 248 79 244 92 244 102 C 244 112 248 124 258 138 C 267 152 278 165 291 178 C 304 191 318 202 332 211 C 346 220 359 225 369 225 C 379 225 392 220 406 211 C 420 202 434 191 447 178 C 460 165 471 152 480 138 C 489 124 494 112 494 102 Z" unicode="?" />
<glyph horiz-adv-x="1552" d="M 1470 686 C 1470 634 1462 584 1448 535 C 1433 486 1411 442 1383 404 C 1354 365 1318 334 1276 311 C 1234 287 1185 276 1130 276 C 1114 276 1098 277 1080 281 C 1062 285 1045 291 1029 301 C 1012 311 997 324 985 340 C 972 356 963 376 958 401 C 948 377 936 358 921 342 C 906 326 889 313 871 303 C 853 293 833 286 811 282 C 789 278 767 276 745 276 C 708 276 675 282 645 294 C 615 306 590 323 570 344 C 549 364 533 388 522 415 C 511 442 506 470 506 500 C 506 535 513 566 527 594 C 541 621 559 644 582 664 C 604 684 630 699 660 710 C 689 721 719 728 750 731 L 907 745 L 907 780 C 907 794 904 808 900 821 C 896 833 888 844 878 854 C 868 863 854 870 838 876 C 822 882 802 885 778 885 C 742 885 706 879 671 867 C 636 855 604 840 575 823 L 541 958 C 571 976 608 992 652 1005 C 696 1017 740 1024 786 1024 C 826 1024 864 1018 899 1007 C 934 995 964 979 990 957 C 1015 935 1035 907 1049 875 C 1063 842 1071 804 1071 762 L 1071 483 C 1071 452 1077 431 1090 419 C 1102 407 1118 401 1137 401 C 1161 401 1184 406 1207 417 C 1229 428 1250 445 1268 468 C 1286 491 1300 521 1311 557 C 1321 593 1327 637 1327 688 C 1327 764 1311 833 1279 895 C 1247 957 1205 1011 1153 1056 C 1101 1101 1043 1136 978 1161 C 912 1185 846 1198 780 1198 C 712 1198 645 1186 579 1163 C 513 1139 453 1105 401 1059 C 349 1013 307 957 275 890 C 243 822 227 745 227 657 C 227 598 234 544 249 495 C 264 445 285 401 311 361 C 337 321 367 285 402 255 C 436 225 474 199 514 179 C 554 158 595 142 638 132 C 681 122 724 117 766 117 C 803 117 836 118 864 121 C 892 124 919 129 944 137 L 930 8 C 915 2 892 -2 862 -5 C 832 -8 798 -10 760 -10 C 704 -10 648 -3 593 10 C 538 24 485 44 435 70 C 385 96 338 128 295 167 C 252 205 215 249 183 299 C 151 349 127 404 109 465 C 91 525 82 591 82 662 C 82 732 91 797 109 857 C 127 917 153 972 185 1022 C 217 1072 255 1116 299 1155 C 343 1193 390 1226 442 1252 C 494 1278 548 1298 606 1312 C 663 1326 721 1333 780 1333 C 838 1333 896 1326 953 1312 C 1010 1298 1064 1277 1115 1251 C 1166 1225 1213 1193 1257 1155 C 1300 1117 1337 1075 1369 1027 C 1401 979 1425 926 1443 869 C 1461 811 1470 750 1470 686 Z M 907 561 L 907 610 L 784 598 C 768 596 752 593 738 589 C 723 585 710 579 699 571 C 688 563 679 553 673 541 C 667 529 664 514 664 498 C 664 487 666 477 670 467 C 674 457 680 448 688 440 C 696 432 705 425 717 421 C 729 416 742 414 758 414 C 778 414 797 417 815 424 C 833 431 848 441 862 454 C 876 467 887 483 895 501 C 903 519 907 539 907 561 Z" unicode="@" />
<glyph horiz-adv-x="1268" d="M 1227 0 L 1026 0 L 885 338 L 377 338 L 236 0 L 41 0 L 598 1325 L 670 1325 L 1227 0 Z M 817 496 L 688 815 C 678 836 669 861 659 890 C 649 918 641 947 633 975 L 629 975 C 621 947 612 918 602 890 C 592 861 582 836 573 815 L 444 496 L 817 496 Z" unicode="A" />
<glyph horiz-adv-x="1067" d="M 985 397 C 985 329 972 271 946 221 C 920 171 887 129 847 97 C 806 64 760 40 709 24 C 658 8 607 0 557 0 L 133 0 L 133 1307 L 498 1307 C 541 1307 584 1300 628 1286 C 672 1272 711 1250 746 1222 C 781 1193 809 1157 831 1115 C 853 1072 864 1022 864 965 C 864 941 861 917 856 893 C 850 869 842 846 832 826 C 821 805 808 787 793 771 C 778 755 761 743 743 735 C 773 726 802 711 831 691 C 860 670 886 645 909 616 C 931 586 950 553 964 516 C 978 478 985 439 985 397 Z M 668 965 C 668 996 662 1023 651 1045 C 640 1067 625 1086 607 1101 C 588 1115 566 1126 542 1133 C 517 1139 491 1143 465 1143 L 322 1143 L 322 791 L 465 791 C 491 791 517 794 542 801 C 566 807 588 818 607 832 C 625 846 640 864 651 886 C 662 908 668 934 668 965 Z M 786 397 C 786 436 778 470 763 500 C 748 529 728 553 703 573 C 678 592 649 606 617 616 C 584 626 550 631 516 631 L 322 631 L 322 164 L 516 164 C 550 164 584 168 617 178 C 649 187 678 201 703 220 C 728 239 748 263 763 293 C 778 322 786 357 786 397 Z" unicode="B" />
<glyph horiz-adv-x="1237" d="M 1155 1235 L 1120 1059 C 1104 1069 1084 1079 1061 1089 C 1038 1099 1013 1108 985 1116 C 957 1124 927 1130 895 1135 C 863 1140 830 1143 797 1143 C 734 1143 672 1132 611 1112 C 549 1092 494 1061 446 1020 C 397 979 358 928 328 866 C 298 804 283 731 283 649 C 283 566 297 494 327 433 C 357 371 396 320 444 280 C 492 239 546 208 608 188 C 670 168 733 158 797 158 C 873 158 937 164 990 177 C 1043 190 1090 208 1130 231 L 1112 51 C 1091 40 1069 31 1047 23 C 1025 15 1000 9 973 4 C 946 0 916 -4 884 -6 C 851 -8 814 -10 774 -10 C 720 -10 665 -3 610 8 C 555 20 502 39 451 64 C 399 89 351 120 307 157 C 262 194 223 237 190 286 C 156 335 130 390 111 452 C 91 513 82 580 82 653 C 82 727 91 794 111 856 C 130 918 156 973 190 1023 C 224 1072 263 1115 308 1152 C 353 1189 401 1220 453 1245 C 504 1269 557 1288 612 1300 C 666 1312 720 1319 774 1319 C 862 1319 937 1310 1000 1294 C 1063 1277 1115 1257 1155 1235 Z" unicode="C" />
<glyph horiz-adv-x="1323" d="M 1241 653 C 1241 582 1232 517 1214 458 C 1196 398 1171 344 1139 296 C 1107 248 1068 205 1024 168 C 980 131 931 100 879 75 C 827 50 771 31 713 19 C 655 6 595 0 535 0 L 133 0 L 133 1307 L 535 1307 C 595 1307 655 1300 713 1288 C 771 1275 827 1256 879 1231 C 931 1206 980 1175 1024 1138 C 1068 1101 1107 1058 1139 1010 C 1171 961 1196 907 1214 847 C 1232 787 1241 723 1241 653 Z M 1038 651 C 1038 733 1023 805 995 866 C 967 927 928 978 879 1018 C 830 1058 773 1087 708 1107 C 643 1127 574 1137 500 1137 L 334 1137 L 334 166 L 500 166 C 574 166 643 175 708 195 C 773 214 830 244 879 284 C 928 324 967 374 995 435 C 1023 495 1038 567 1038 651 Z" unicode="D" />
<glyph horiz-adv-x="920" d="M 909 0 L 133 0 L 133 1307 L 838 1307 L 838 1137 L 332 1137 L 332 741 L 756 741 L 756 571 L 332 571 L 332 170 L 909 170 L 909 0 Z" unicode="E" />
<glyph horiz-adv-x="866" d="M 856 1137 L 332 1137 L 332 741 L 774 741 L 774 571 L 332 571 L 332 0 L 133 0 L 133 1307 L 856 1307 L 856 1137 Z" unicode="F" />
<glyph horiz-adv-x="1389" d="M 1276 117 C 1213 66 1142 30 1063 8 C 984 -14 896 -25 799 -25 C 740 -25 681 -18 623 -5 C 565 7 509 26 456 52 C 403 78 354 110 308 148 C 262 186 223 230 189 280 C 155 330 129 387 110 449 C 91 511 82 579 82 653 C 82 728 91 797 111 860 C 131 923 158 980 192 1030 C 226 1080 266 1125 312 1163 C 358 1201 407 1232 459 1257 C 511 1282 565 1301 621 1314 C 677 1326 732 1333 786 1333 C 877 1333 958 1323 1029 1304 C 1100 1284 1160 1259 1208 1229 L 1171 1053 C 1123 1083 1067 1108 1005 1128 C 943 1147 877 1157 809 1157 C 745 1157 681 1146 619 1125 C 556 1104 500 1072 450 1030 C 400 988 359 935 329 871 C 298 807 283 732 283 647 C 283 562 298 488 328 425 C 358 362 397 310 447 268 C 496 226 552 194 616 174 C 679 153 744 143 811 143 C 871 143 925 149 971 161 C 1017 173 1056 189 1087 211 L 1087 500 L 786 500 L 786 659 L 1276 659 L 1276 117 Z" unicode="G" />
<glyph horiz-adv-x="1337" d="M 1204 0 L 1006 0 L 1006 571 L 332 571 L 332 0 L 133 0 L 133 1307 L 332 1307 L 332 741 L 1006 741 L 1006 1307 L 1204 1307 L 1204 0 Z" unicode="H" />
<glyph horiz-adv-x="506" d="M 352 0 L 154 0 L 154 1307 L 352 1307 L 352 0 Z" unicode="I" />
<glyph horiz-adv-x="506" d="M 352 258 C 352 176 340 104 316 42 C 292 -19 261 -71 223 -114 C 185 -157 144 -191 98 -216 C 52 -241 7 -258 -37 -266 L -166 -135 C -64 -116 14 -73 70 -6 C 126 60 154 155 154 279 L 154 1307 L 352 1307 L 352 258 Z" unicode="J" />
<glyph horiz-adv-x="1114" d="M 1090 0 L 834 0 L 334 612 L 332 612 L 332 0 L 133 0 L 133 1307 L 332 1307 L 332 690 L 334 690 L 848 1307 L 1071 1307 L 535 670 L 1090 0 Z" unicode="K" />
<glyph horiz-adv-x="918" d="M 907 0 L 133 0 L 133 1307 L 332 1307 L 332 170 L 907 170 L 907 0 Z" unicode="L" />
<glyph horiz-adv-x="1679" d="M 1587 0 L 1399 0 L 1346 590 C 1341 634 1337 682 1333 735 C 1329 788 1327 839 1325 887 L 1321 887 C 1311 863 1299 838 1287 812 C 1274 786 1261 759 1248 732 C 1235 705 1222 679 1209 653 C 1196 627 1184 604 1174 584 L 870 -10 L 797 -10 L 489 584 C 477 605 465 628 453 653 C 441 677 428 703 416 729 C 404 755 391 781 379 807 C 367 833 355 859 344 883 L 340 883 C 338 857 337 831 336 805 C 334 779 333 753 331 728 C 329 702 327 678 325 654 C 323 630 321 609 319 590 L 268 0 L 92 0 L 205 1307 L 328 1307 L 676 635 C 688 609 702 582 717 554 C 731 525 746 496 761 467 C 775 437 789 408 803 379 C 817 350 829 323 840 299 L 844 299 C 854 323 865 350 878 378 C 890 406 904 434 918 463 C 932 492 946 521 961 550 C 975 579 990 607 1004 635 L 1348 1307 L 1470 1307 L 1587 0 Z" unicode="M" />
<glyph horiz-adv-x="1438" d="M 1305 -29 L 1245 -29 L 633 641 C 608 667 583 695 557 725 C 531 754 505 783 479 813 C 453 843 428 872 403 901 C 378 930 354 958 332 985 L 328 983 C 330 923 331 865 331 811 C 331 757 332 705 332 655 L 332 0 L 133 0 L 133 1307 L 270 1307 L 831 692 C 849 670 870 647 894 621 C 918 595 942 568 967 540 C 991 512 1016 485 1040 457 C 1064 429 1086 403 1106 379 L 1110 381 C 1108 431 1106 482 1106 536 C 1106 590 1106 640 1106 688 L 1106 1307 L 1305 1307 L 1305 -29 Z" unicode="N" />
<glyph horiz-adv-x="1548" d="M 1466 655 C 1466 584 1457 518 1439 457 C 1421 396 1396 340 1364 290 C 1332 240 1294 195 1250 156 C 1206 116 1159 83 1108 57 C 1056 30 1002 10 946 -4 C 889 -18 832 -25 774 -25 C 716 -25 658 -18 602 -4 C 545 10 491 30 440 57 C 388 83 341 116 297 156 C 253 195 216 240 184 290 C 152 340 127 396 109 457 C 91 518 82 584 82 655 C 82 725 91 790 109 851 C 127 911 152 967 184 1017 C 216 1067 253 1112 297 1151 C 341 1190 388 1223 440 1250 C 491 1277 545 1298 602 1312 C 658 1326 716 1333 774 1333 C 832 1333 889 1326 946 1312 C 1002 1298 1056 1277 1108 1250 C 1159 1223 1206 1190 1250 1151 C 1294 1112 1332 1067 1364 1017 C 1396 967 1421 911 1439 851 C 1457 790 1466 725 1466 655 Z M 1266 651 C 1266 731 1251 803 1222 866 C 1193 929 1155 982 1109 1025 C 1062 1068 1009 1101 951 1123 C 892 1145 833 1157 774 1157 C 713 1157 653 1145 595 1123 C 536 1101 483 1068 437 1025 C 391 982 353 929 325 866 C 297 803 283 731 283 651 C 283 570 297 498 325 435 C 353 372 391 319 437 276 C 483 232 536 199 595 177 C 653 154 713 143 774 143 C 833 143 892 154 951 177 C 1009 199 1062 232 1109 276 C 1155 319 1193 372 1222 435 C 1251 498 1266 570 1266 651 Z" unicode="O" />
<glyph horiz-adv-x="1012" d="M 940 940 C 940 878 928 824 904 778 C 880 732 850 693 812 663 C 774 633 732 610 686 595 C 639 580 593 573 547 573 L 330 573 L 330 0 L 133 0 L 133 1307 L 547 1307 C 593 1307 639 1299 686 1284 C 732 1269 774 1246 812 1216 C 850 1186 880 1148 904 1102 C 928 1056 940 1002 940 940 Z M 737 936 C 737 970 730 999 718 1024 C 706 1048 689 1069 668 1086 C 647 1102 623 1115 596 1123 C 569 1131 541 1135 512 1135 L 330 1135 L 330 737 L 512 737 C 541 737 569 741 596 749 C 623 757 647 769 668 785 C 689 801 706 822 718 847 C 730 872 737 902 737 936 Z" unicode="P" />
<glyph horiz-adv-x="1548" d="M 1550 -86 L 1425 -260 C 1409 -264 1390 -266 1370 -266 C 1336 -266 1305 -264 1276 -260 C 1247 -256 1219 -251 1192 -244 C 1164 -236 1137 -227 1110 -216 C 1083 -204 1055 -191 1026 -176 C 962 -142 901 -111 845 -85 C 789 -58 743 -36 707 -20 C 625 -13 547 7 472 41 C 397 75 331 121 273 179 C 215 237 168 306 134 386 C 99 466 82 555 82 655 C 82 725 91 790 109 851 C 127 911 152 967 184 1017 C 216 1067 253 1112 297 1151 C 341 1190 388 1223 440 1250 C 491 1277 545 1298 602 1312 C 658 1326 716 1333 774 1333 C 832 1333 889 1326 946 1312 C 1002 1298 1056 1277 1108 1250 C 1159 1223 1206 1190 1250 1151 C 1294 1112 1332 1067 1364 1017 C 1396 967 1421 911 1439 851 C 1457 790 1466 725 1466 655 C 1466 571 1452 493 1426 421 C 1399 349 1363 286 1318 231 C 1272 176 1219 131 1159 96 C 1098 60 1033 37 965 25 L 965 20 C 995 16 1025 8 1057 -4 C 1089 -16 1125 -31 1167 -51 C 1217 -74 1262 -90 1302 -98 C 1342 -106 1378 -111 1411 -111 C 1433 -111 1456 -109 1478 -106 C 1500 -102 1524 -96 1550 -86 Z M 1266 651 C 1266 731 1251 803 1222 866 C 1193 929 1155 982 1109 1025 C 1062 1068 1009 1101 951 1123 C 892 1145 833 1157 774 1157 C 713 1157 653 1145 595 1123 C 536 1101 483 1068 437 1025 C 391 982 353 929 325 866 C 297 803 283 731 283 651 C 283 570 297 498 325 435 C 353 372 391 319 437 276 C 483 232 536 199 595 177 C 653 154 713 143 774 143 C 833 143 892 154 951 177 C 1009 199 1062 232 1109 276 C 1155 319 1193 372 1222 435 C 1251 498 1266 570 1266 651 Z" unicode="Q" />
<glyph horiz-adv-x="1069" d="M 1137 0 L 891 0 L 479 573 L 330 573 L 330 0 L 133 0 L 133 1307 L 526 1307 C 572 1307 618 1299 665 1284 C 712 1269 754 1246 792 1216 C 830 1186 860 1148 884 1102 C 908 1056 920 1002 920 940 C 920 896 914 857 902 821 C 890 785 873 754 852 726 C 831 698 807 673 779 653 C 751 633 722 616 690 604 L 1137 0 Z M 717 936 C 717 970 710 999 698 1024 C 685 1048 668 1069 648 1086 C 627 1102 603 1115 576 1123 C 548 1131 520 1135 492 1135 L 330 1135 L 330 737 L 492 737 C 520 737 548 741 576 749 C 603 757 627 769 648 785 C 668 801 685 822 698 847 C 710 872 717 902 717 936 Z" unicode="R" />
<glyph horiz-adv-x="975" d="M 893 375 C 893 317 883 265 864 218 C 845 170 817 130 780 96 C 742 62 696 36 641 18 C 585 0 521 -10 449 -10 C 413 -10 379 -7 347 -3 C 314 1 283 8 255 16 C 227 24 201 33 177 43 C 153 53 133 64 117 76 L 94 283 C 141 247 196 217 260 195 C 324 173 390 162 459 162 C 494 162 526 166 555 176 C 584 185 609 198 629 215 C 649 232 665 252 677 276 C 688 300 694 326 694 356 C 694 415 676 463 641 499 C 605 535 549 565 473 590 C 358 626 271 675 212 736 C 152 796 123 874 123 969 C 123 1013 131 1057 148 1099 C 164 1141 189 1179 223 1211 C 257 1243 299 1269 350 1289 C 401 1309 461 1319 530 1319 C 562 1319 592 1316 621 1312 C 649 1308 676 1302 700 1295 C 724 1288 746 1280 765 1271 C 783 1262 799 1253 811 1245 L 772 1079 C 760 1087 745 1095 727 1104 C 709 1113 690 1121 668 1129 C 646 1137 623 1143 598 1148 C 573 1152 548 1155 522 1155 C 490 1155 461 1150 435 1141 C 409 1131 387 1119 369 1103 C 351 1087 337 1069 327 1048 C 317 1027 313 1005 313 983 C 313 935 330 896 364 866 C 398 835 450 808 518 786 C 574 767 625 746 671 722 C 717 698 756 671 789 639 C 822 607 848 569 866 526 C 884 483 893 433 893 375 Z" unicode="S" />
<glyph horiz-adv-x="1059" d="M 1049 1137 L 629 1137 L 629 0 L 430 0 L 430 1137 L 10 1137 L 10 1307 L 1049 1307 L 1049 1137 Z" unicode="T" />
<glyph horiz-adv-x="1331" d="M 1198 461 C 1198 385 1184 316 1158 256 C 1131 196 1094 145 1046 103 C 998 61 942 30 877 8 C 812 -14 742 -25 666 -25 C 589 -25 518 -14 453 8 C 388 30 332 61 284 103 C 236 145 199 196 173 256 C 146 316 133 385 133 461 L 133 1307 L 332 1307 L 332 481 C 332 432 338 387 352 347 C 366 307 386 272 414 243 C 442 214 477 192 519 176 C 561 160 610 152 668 152 C 724 152 774 160 816 176 C 858 192 894 214 922 243 C 950 272 971 307 985 347 C 999 387 1006 432 1006 481 L 1006 1307 L 1198 1307 L 1198 461 Z" unicode="U" />
<glyph horiz-adv-x="1184" d="M 1143 1307 L 625 -18 L 561 -18 L 41 1307 L 250 1307 L 492 684 C 509 638 527 589 546 536 C 564 482 582 428 600 373 L 604 373 C 621 427 639 480 657 533 C 675 586 694 636 713 684 L 954 1307 L 1143 1307 Z" unicode="V" />
<glyph horiz-adv-x="1862" d="M 1821 1307 L 1356 -18 L 1288 -18 L 1044 680 C 1026 730 1008 783 990 839 C 972 895 952 959 932 1030 L 928 1030 C 907 959 887 895 869 839 C 850 782 832 729 815 680 L 571 -18 L 504 -18 L 41 1307 L 240 1307 L 451 705 C 466 661 482 613 500 562 C 518 511 533 459 547 406 L 551 406 C 565 459 581 511 597 562 C 613 612 629 660 645 705 L 854 1307 L 1024 1307 L 1235 705 C 1249 663 1265 616 1281 564 C 1297 512 1312 459 1327 406 L 1331 406 C 1337 432 1345 458 1353 485 C 1361 511 1370 537 1378 563 C 1386 589 1395 614 1403 638 C 1411 662 1419 684 1427 705 L 1638 1307 L 1821 1307 Z" unicode="W" />
<glyph horiz-adv-x="1237" d="M 1155 0 L 930 0 L 717 344 C 700 370 683 399 665 429 C 647 459 631 488 616 516 L 612 516 C 604 502 596 488 588 473 C 580 458 571 443 562 428 C 553 413 544 398 535 384 C 526 369 518 356 510 344 L 293 0 L 82 0 L 500 662 L 100 1307 L 326 1307 L 528 979 C 535 967 543 954 551 941 C 559 927 568 913 576 899 C 584 885 593 871 601 857 C 609 843 616 829 623 817 L 627 817 C 640 842 655 869 672 898 C 689 927 705 954 721 979 L 926 1307 L 1137 1307 L 739 674 L 1155 0 Z" unicode="X" />
<glyph horiz-adv-x="1278" d="M 1237 1307 L 735 602 L 735 0 L 541 0 L 541 602 L 41 1307 L 258 1307 L 520 938 C 539 910 560 879 582 846 C 604 813 624 782 643 754 L 647 754 C 656 768 666 783 677 799 C 687 815 698 832 709 848 C 720 864 731 880 742 896 C 752 911 762 925 772 938 L 1034 1307 L 1237 1307 Z" unicode="Y" />
<glyph horiz-adv-x="1090" d="M 1008 0 L 82 0 L 82 47 L 498 774 C 514 803 532 833 551 865 C 569 897 588 928 607 960 C 625 992 644 1022 662 1052 C 680 1082 697 1109 713 1135 L 711 1137 L 115 1137 L 115 1307 L 985 1307 L 985 1260 L 565 530 C 548 500 530 470 512 439 C 494 408 475 377 457 346 C 439 315 421 285 403 255 C 385 225 368 198 352 172 L 354 170 L 1008 170 L 1008 0 Z" unicode="Z" />
<glyph horiz-adv-x="578" d="M 567 -446 L 133 -446 L 133 1434 L 567 1434 L 567 1278 L 315 1278 L 315 -291 L 567 -291 L 567 -446 Z" unicode="[" />
<glyph horiz-adv-x="977" d="M 1038 -260 L 901 -332 L 61 1311 L 199 1382 L 1038 -260 Z" unicode="\" />
<glyph horiz-adv-x="578" d="M 444 -446 L 10 -446 L 10 -291 L 262 -291 L 262 1278 L 10 1278 L 10 1434 L 444 1434 L 444 -446 Z" unicode="]" />
<glyph horiz-adv-x="1024" d="M 858 1104 L 731 1049 C 691 1072 652 1097 612 1124 C 572 1151 536 1180 502 1210 C 468 1180 432 1151 396 1124 C 359 1097 321 1072 283 1049 L 166 1100 C 188 1116 211 1135 237 1157 C 262 1179 287 1203 313 1229 C 338 1254 362 1280 386 1307 C 409 1334 430 1360 449 1386 C 457 1398 467 1408 480 1415 C 493 1421 504 1425 512 1425 C 520 1425 530 1421 543 1415 C 556 1408 567 1398 575 1386 C 593 1360 614 1334 638 1308 C 661 1281 685 1255 711 1231 C 736 1206 761 1183 787 1161 C 812 1139 836 1120 858 1104 Z" unicode="^" />
<glyph horiz-adv-x="1024" d="M 1028 -473 L -2 -473 L -2 -313 L 1028 -313 L 1028 -473 Z" unicode="_" />
<glyph horiz-adv-x="1024" d="M 627 1104 L 500 1049 C 446 1081 395 1114 347 1150 C 299 1186 255 1226 213 1272 C 203 1281 195 1291 189 1301 C 183 1311 180 1319 180 1327 C 180 1335 183 1344 191 1355 C 198 1366 207 1377 218 1387 C 228 1397 239 1406 251 1414 C 263 1421 273 1425 281 1425 C 289 1425 299 1421 312 1415 C 325 1408 336 1398 344 1386 C 362 1360 383 1334 407 1308 C 430 1281 454 1255 480 1231 C 505 1206 530 1183 556 1161 C 581 1139 605 1120 627 1104 Z" unicode="`" />
<glyph horiz-adv-x="905" d="M 885 96 L 766 -23 C 750 -19 734 -12 718 -4 C 702 3 687 14 673 26 C 659 38 648 53 638 69 C 628 85 622 103 618 123 C 607 95 593 72 576 54 C 558 35 539 20 518 9 C 496 -2 473 -10 448 -15 C 423 -20 397 -23 371 -23 C 325 -23 283 -15 246 0 C 209 16 178 37 152 63 C 126 89 106 120 92 154 C 78 188 72 224 72 262 C 72 306 80 346 97 382 C 114 417 137 447 165 472 C 193 497 226 517 263 532 C 299 546 337 555 377 559 L 594 580 L 594 639 C 594 659 590 679 584 698 C 578 716 567 732 553 746 C 539 760 520 771 497 779 C 474 787 446 791 414 791 C 368 791 322 784 277 771 C 231 757 192 739 158 717 L 121 870 C 163 898 209 918 261 931 C 313 943 367 950 424 950 C 476 950 523 942 567 928 C 610 914 647 892 679 864 C 711 836 735 801 753 759 C 771 717 780 668 780 614 L 780 240 C 780 198 790 164 810 140 C 830 116 855 101 885 96 Z M 594 344 L 594 426 L 416 410 C 386 407 360 401 339 391 C 318 381 301 370 288 356 C 274 342 265 327 259 310 C 253 293 250 276 250 260 C 250 244 253 228 259 213 C 265 197 275 184 287 173 C 299 161 313 152 330 145 C 346 138 365 135 387 135 C 415 135 441 140 466 150 C 491 160 513 174 532 192 C 551 210 566 232 577 258 C 588 284 594 312 594 344 Z" unicode="a" />
<glyph horiz-adv-x="1102" d="M 1030 471 C 1030 399 1018 332 994 272 C 970 211 937 159 893 115 C 849 71 795 37 732 13 C 669 -10 598 -23 520 -23 C 478 -23 437 -19 397 -12 C 357 -4 319 4 284 16 C 249 27 218 39 190 53 C 162 67 139 80 123 94 L 123 1458 L 309 1458 L 309 872 C 317 881 331 890 349 900 C 367 909 388 917 412 925 C 436 932 461 938 487 943 C 513 947 539 950 565 950 C 632 950 694 938 751 914 C 807 890 856 857 898 815 C 939 772 971 721 995 663 C 1018 605 1030 541 1030 471 Z M 842 467 C 842 513 834 555 819 594 C 803 632 782 665 756 693 C 730 721 699 742 663 758 C 627 774 588 782 547 782 C 515 782 487 778 461 772 C 435 766 412 758 392 748 C 372 738 355 728 341 718 C 327 707 316 698 309 690 L 309 186 C 317 180 328 175 342 169 C 356 163 371 158 389 154 C 406 149 424 145 444 142 C 463 138 482 137 500 137 C 554 137 602 144 644 160 C 686 176 722 198 752 227 C 781 256 803 291 819 331 C 834 371 842 417 842 467 Z" unicode="b" />
<glyph horiz-adv-x="932" d="M 860 872 L 825 702 C 783 729 742 747 704 757 C 665 767 624 772 580 772 C 538 772 498 764 460 750 C 421 736 387 715 357 688 C 327 661 304 628 286 590 C 268 551 260 507 260 459 C 260 411 269 367 287 329 C 305 290 330 257 360 230 C 390 203 424 182 463 168 C 502 154 542 147 584 147 C 628 147 668 151 706 160 C 743 169 783 184 825 205 L 807 33 C 773 17 735 6 695 -1 C 655 -8 612 -12 567 -12 C 504 -12 443 -1 384 20 C 324 42 271 73 225 114 C 179 154 142 204 114 263 C 86 322 72 389 72 463 C 72 537 86 604 114 663 C 142 722 179 772 225 813 C 271 854 324 885 384 907 C 443 929 504 940 567 940 C 627 940 681 934 729 922 C 777 910 820 893 860 872 Z" unicode="c" />
<glyph horiz-adv-x="1102" d="M 979 0 L 803 0 L 803 102 L 801 102 C 791 87 777 72 761 57 C 745 42 725 29 702 17 C 679 5 652 -4 622 -12 C 592 -19 558 -23 520 -23 C 468 -23 416 -12 363 7 C 310 27 262 58 219 99 C 175 139 140 190 113 251 C 85 311 72 382 72 463 C 72 535 84 600 108 660 C 132 720 165 771 207 814 C 249 857 298 890 356 914 C 413 938 475 950 543 950 C 567 950 593 947 619 943 C 645 938 669 932 692 925 C 715 917 735 909 753 900 C 771 890 784 881 793 872 L 793 1458 L 979 1458 L 979 0 Z M 793 256 L 793 690 C 785 698 775 707 762 718 C 748 728 732 738 713 748 C 693 758 671 766 646 772 C 620 778 592 782 561 782 C 519 782 480 774 444 759 C 407 743 375 721 348 693 C 320 665 299 631 283 592 C 267 552 260 509 260 461 C 260 412 267 368 283 328 C 299 288 320 253 348 225 C 375 197 407 175 444 160 C 480 144 519 137 561 137 C 591 137 618 140 642 148 C 666 155 688 164 708 176 C 727 187 744 200 758 214 C 772 228 783 242 793 256 Z" unicode="d" />
<glyph horiz-adv-x="1006" d="M 934 598 C 934 568 932 542 928 522 L 823 418 L 264 418 C 265 389 273 358 287 326 C 301 294 322 264 350 236 C 377 208 411 186 452 168 C 492 150 540 141 594 141 C 654 141 705 148 749 163 C 793 177 831 195 864 217 L 844 37 C 810 19 772 5 728 -6 C 684 -17 631 -23 569 -23 C 503 -23 440 -11 380 12 C 320 36 267 69 221 112 C 175 154 139 205 112 265 C 85 325 72 391 72 463 C 72 515 78 564 91 608 C 103 652 121 693 143 729 C 165 765 191 796 221 824 C 251 852 283 875 317 894 C 351 912 386 926 423 936 C 459 945 496 950 532 950 C 596 950 653 939 703 919 C 753 898 795 871 829 838 C 863 805 889 767 907 725 C 925 683 934 640 934 598 Z M 745 594 C 745 616 740 639 730 663 C 720 687 707 708 690 727 C 672 745 651 761 626 773 C 601 785 573 791 543 791 C 513 791 484 785 455 774 C 426 763 399 748 375 728 C 350 708 329 685 311 658 C 293 630 282 601 276 569 L 743 569 C 744 573 745 578 745 582 C 745 586 745 590 745 594 Z" unicode="e" />
<glyph horiz-adv-x="686" d="M 754 1427 L 717 1272 C 695 1281 673 1288 649 1294 C 625 1300 602 1303 582 1303 C 508 1303 454 1281 418 1238 C 382 1194 365 1131 365 1047 L 365 928 L 666 928 L 629 778 L 365 778 L 365 0 L 178 0 L 178 778 L 20 778 L 20 928 L 178 928 L 178 1057 C 178 1122 187 1180 205 1230 C 223 1280 249 1321 283 1355 C 317 1389 358 1414 406 1432 C 454 1449 509 1458 569 1458 C 605 1458 638 1455 670 1450 C 701 1445 729 1437 754 1427 Z" unicode="f" />
<glyph horiz-adv-x="948" d="M 907 -166 C 907 -210 897 -250 877 -288 C 857 -325 829 -357 793 -385 C 757 -413 713 -434 663 -450 C 612 -465 556 -473 494 -473 C 430 -473 373 -464 321 -448 C 269 -431 224 -408 187 -378 C 150 -348 122 -313 102 -272 C 82 -231 72 -187 72 -139 C 72 -98 78 -62 90 -31 C 102 0 118 26 138 48 C 157 70 179 87 203 101 C 227 114 250 123 274 129 L 170 233 C 170 249 173 266 179 282 C 185 298 194 312 205 325 C 216 338 229 349 243 359 C 257 369 273 376 289 381 C 267 393 247 407 229 424 C 211 440 195 459 181 481 C 167 502 157 526 149 552 C 141 578 137 607 137 637 C 137 682 145 724 162 762 C 179 800 203 833 234 861 C 265 889 302 910 344 926 C 386 942 433 950 485 950 C 510 950 533 948 553 946 C 573 943 591 940 608 936 C 624 932 644 928 666 926 C 688 923 711 922 735 922 C 745 922 757 923 770 925 C 782 927 795 929 807 932 C 819 935 831 939 842 943 C 853 947 862 951 870 956 L 905 803 C 899 799 891 795 882 791 C 872 787 862 784 852 782 C 841 779 830 777 820 776 C 809 774 799 774 791 774 C 801 762 810 743 818 719 C 826 694 831 667 831 637 C 831 595 823 556 807 518 C 791 480 769 446 739 418 C 709 389 673 366 630 349 C 587 332 539 324 485 324 C 448 324 420 320 400 313 C 380 306 371 292 371 272 C 371 268 372 262 376 256 C 380 249 387 244 397 240 L 647 152 C 687 137 724 120 756 101 C 788 82 815 60 837 35 C 859 9 877 -19 889 -52 C 901 -85 907 -123 907 -166 Z M 662 639 C 662 659 657 679 649 699 C 640 718 628 735 612 750 C 596 765 578 777 556 786 C 534 794 511 799 485 799 C 459 799 436 794 414 786 C 392 777 374 765 358 750 C 342 735 329 718 320 699 C 311 679 307 659 307 639 C 307 617 311 596 320 577 C 329 557 342 540 358 526 C 374 511 392 499 414 491 C 436 483 459 479 485 479 C 509 479 531 483 553 491 C 574 499 593 511 609 526 C 625 540 637 557 647 577 C 657 596 662 617 662 639 Z M 731 -162 C 731 -126 719 -95 695 -67 C 671 -39 636 -19 590 -6 L 430 41 C 402 41 376 36 353 27 C 329 17 309 5 293 -11 C 277 -27 264 -45 255 -67 C 246 -89 242 -112 242 -137 C 242 -159 247 -181 257 -203 C 267 -224 283 -243 303 -260 C 323 -277 349 -291 380 -301 C 411 -311 447 -317 489 -317 C 529 -317 565 -312 595 -303 C 625 -293 651 -281 671 -266 C 691 -251 706 -234 716 -216 C 726 -198 731 -180 731 -162 Z" unicode="g" />
<glyph horiz-adv-x="1047" d="M 934 0 L 748 0 L 748 596 C 748 620 744 643 736 667 C 728 690 715 711 698 729 C 681 747 659 762 631 774 C 603 785 570 791 532 791 C 494 791 462 785 434 774 C 406 762 382 747 364 729 C 346 711 332 690 323 667 C 313 643 309 620 309 596 L 309 0 L 123 0 L 123 1458 L 309 1458 L 309 831 L 311 831 C 322 848 336 864 352 879 C 368 893 387 906 409 916 C 431 926 456 935 484 941 C 512 947 545 950 582 950 C 632 950 679 942 722 926 C 765 910 802 888 834 859 C 865 830 889 795 907 754 C 925 712 934 666 934 614 L 934 0 Z" unicode="h" />
<glyph horiz-adv-x="451" d="M 338 1221 C 338 1211 334 1200 326 1187 C 318 1174 308 1162 296 1150 C 284 1138 272 1128 259 1120 C 246 1112 235 1108 225 1108 C 215 1108 204 1112 192 1120 C 179 1128 167 1138 155 1150 C 143 1162 133 1174 125 1187 C 117 1200 113 1211 113 1221 C 113 1231 117 1242 125 1255 C 133 1267 143 1279 155 1291 C 167 1303 179 1313 192 1321 C 204 1329 215 1333 225 1333 C 235 1333 246 1329 259 1321 C 272 1313 284 1303 296 1291 C 308 1279 318 1267 326 1255 C 334 1242 338 1231 338 1221 Z M 319 0 L 131 0 L 131 928 L 319 928 L 319 0 Z" unicode="i" />
<glyph horiz-adv-x="451" d="M 338 1221 C 338 1211 334 1200 326 1187 C 318 1174 308 1162 296 1150 C 284 1138 272 1128 259 1120 C 246 1112 235 1108 225 1108 C 215 1108 204 1112 192 1120 C 179 1128 167 1138 155 1150 C 143 1162 133 1174 125 1187 C 117 1200 113 1211 113 1221 C 113 1231 117 1242 125 1255 C 133 1267 143 1279 155 1291 C 167 1303 179 1313 192 1321 C 204 1329 215 1333 225 1333 C 235 1333 246 1329 259 1321 C 272 1313 284 1303 296 1291 C 308 1279 318 1267 326 1255 C 334 1242 338 1231 338 1221 Z M 319 -100 C 319 -148 311 -194 295 -236 C 279 -278 259 -315 234 -348 C 208 -380 179 -407 147 -429 C 115 -450 82 -465 49 -473 L -70 -356 C -40 -349 -12 -339 12 -325 C 37 -311 58 -293 76 -271 C 93 -249 106 -222 116 -192 C 126 -161 131 -126 131 -86 L 131 928 L 319 928 L 319 -100 Z" unicode="j" />
<glyph horiz-adv-x="940" d="M 938 0 L 696 0 L 311 436 L 309 436 L 309 0 L 123 0 L 123 1458 L 309 1458 L 309 485 L 311 485 L 705 928 L 926 928 L 520 469 L 938 0 Z" unicode="k" />
<glyph horiz-adv-x="475" d="M 434 90 L 307 -37 C 291 -33 273 -25 252 -15 C 231 -4 211 10 192 30 C 172 50 156 75 143 106 C 129 136 123 174 123 219 L 123 1458 L 309 1458 L 309 244 C 309 222 312 203 320 185 C 328 167 338 151 350 138 C 362 125 375 114 390 106 C 405 98 420 92 434 90 Z" unicode="l" />
<glyph horiz-adv-x="1604" d="M 1491 0 L 1305 0 L 1305 596 C 1305 620 1302 643 1297 667 C 1291 690 1281 711 1267 729 C 1253 747 1232 762 1206 774 C 1180 785 1146 791 1104 791 C 1063 791 1029 785 1003 774 C 976 762 955 747 939 729 C 923 711 911 690 905 667 C 898 643 895 620 895 596 L 895 0 L 709 0 L 709 596 C 709 620 706 643 701 667 C 695 690 685 711 671 729 C 657 747 636 762 610 774 C 584 785 550 791 508 791 C 467 791 433 785 407 774 C 380 762 359 747 343 729 C 327 711 315 690 309 667 C 302 643 299 620 299 596 L 299 0 L 113 0 L 113 928 L 285 928 L 285 807 L 287 807 C 297 827 309 846 324 864 C 339 881 358 896 380 909 C 402 921 427 931 457 939 C 487 946 521 950 559 950 C 588 950 616 946 644 940 C 672 934 698 925 722 913 C 746 901 767 887 786 870 C 805 853 821 834 834 813 C 846 831 863 849 883 865 C 903 881 926 896 952 909 C 978 921 1006 931 1037 939 C 1067 946 1100 950 1135 950 C 1189 950 1237 942 1281 926 C 1325 910 1362 888 1393 859 C 1424 830 1448 795 1465 754 C 1482 712 1491 666 1491 614 L 1491 0 Z" unicode="m" />
<glyph horiz-adv-x="1036" d="M 924 0 L 737 0 L 737 596 C 737 620 733 643 725 667 C 717 690 705 711 688 729 C 670 747 648 762 621 774 C 593 785 560 791 522 791 C 484 791 452 785 424 774 C 396 762 372 747 354 729 C 336 711 322 690 313 667 C 303 643 299 620 299 596 L 299 0 L 113 0 L 113 928 L 283 928 L 283 807 L 285 807 C 295 827 308 846 324 864 C 340 881 359 896 383 909 C 406 921 433 931 464 939 C 495 946 531 950 571 950 C 621 950 668 942 711 926 C 754 910 791 888 823 859 C 855 830 879 795 897 754 C 915 712 924 666 924 614 L 924 0 Z" unicode="n" />
<glyph horiz-adv-x="1128" d="M 1057 463 C 1057 391 1044 325 1019 266 C 993 206 959 155 915 112 C 871 69 819 36 759 12 C 699 -11 634 -23 565 -23 C 495 -23 431 -11 371 12 C 311 36 259 69 215 112 C 170 155 135 206 110 266 C 84 325 72 391 72 463 C 72 535 84 601 110 661 C 135 721 170 772 215 815 C 259 857 311 890 371 914 C 431 938 495 950 565 950 C 634 950 699 938 759 914 C 819 890 871 857 915 815 C 959 772 993 721 1019 661 C 1044 601 1057 535 1057 463 Z M 868 459 C 868 507 859 551 843 591 C 827 631 805 665 777 693 C 749 721 717 743 681 759 C 644 774 605 782 565 782 C 523 782 484 774 448 759 C 411 743 379 721 351 693 C 323 665 300 631 284 591 C 268 551 260 507 260 459 C 260 411 268 367 284 327 C 300 287 323 253 351 225 C 379 197 411 175 448 160 C 484 144 523 137 565 137 C 605 137 644 144 681 160 C 717 175 749 197 777 225 C 805 253 827 287 843 327 C 859 367 868 411 868 459 Z" unicode="o" />
<glyph horiz-adv-x="1092" d="M 1020 465 C 1020 393 1008 327 984 267 C 960 207 927 156 885 113 C 843 70 793 37 735 13 C 677 -11 615 -23 549 -23 C 523 -23 498 -20 472 -16 C 446 -11 422 -5 399 2 C 376 9 356 17 338 27 C 320 36 307 45 299 55 L 299 -473 L 113 -473 L 113 928 L 289 928 L 289 825 L 291 825 C 301 839 314 854 330 869 C 346 884 366 898 389 910 C 412 922 439 931 469 939 C 499 946 533 950 571 950 C 622 950 674 939 727 919 C 780 899 828 868 872 828 C 915 787 950 736 978 676 C 1006 615 1020 545 1020 465 Z M 831 459 C 831 507 823 551 807 591 C 791 631 770 665 743 693 C 715 721 683 743 647 759 C 610 774 571 782 530 782 C 500 782 473 778 449 771 C 425 764 403 755 384 744 C 364 732 348 720 334 706 C 320 692 308 678 299 664 L 299 229 C 306 221 316 211 330 201 C 343 190 359 180 379 171 C 398 161 420 153 445 147 C 470 140 498 137 530 137 C 571 137 610 144 647 160 C 683 175 715 197 743 225 C 770 253 791 287 807 327 C 823 367 831 411 831 459 Z" unicode="p" />
<glyph horiz-adv-x="1092" d="M 979 -473 L 793 -473 L 793 55 C 784 45 771 36 754 27 C 736 17 717 9 695 2 C 673 -5 649 -11 624 -16 C 598 -20 573 -23 549 -23 C 481 -23 419 -11 361 13 C 303 37 252 70 210 112 C 167 154 133 205 109 264 C 84 322 72 387 72 457 C 72 529 84 595 108 655 C 132 715 165 767 209 811 C 252 855 304 889 366 913 C 427 937 495 950 569 950 C 603 950 635 947 664 942 C 693 937 719 931 742 923 C 764 915 784 908 801 900 C 817 892 831 885 842 879 L 934 946 L 979 946 L 979 -473 Z M 793 229 L 793 711 C 785 718 773 726 758 734 C 742 742 725 750 706 757 C 687 764 667 770 647 775 C 627 779 608 782 590 782 C 541 782 496 774 456 758 C 415 742 380 720 351 692 C 322 663 300 628 284 588 C 268 547 260 502 260 453 C 260 407 268 364 284 326 C 300 287 323 254 351 226 C 379 198 411 176 449 160 C 486 144 525 137 567 137 C 598 137 626 140 651 147 C 675 153 697 161 716 171 C 734 180 750 190 763 201 C 775 211 785 221 793 229 Z" unicode="q" />
<glyph horiz-adv-x="680" d="M 659 926 L 614 733 C 606 735 596 736 584 738 C 572 740 560 741 547 741 C 517 741 487 736 457 728 C 427 720 401 705 377 685 C 353 665 334 637 320 602 C 306 567 299 523 299 469 L 299 0 L 113 0 L 113 928 L 299 928 L 299 739 L 301 739 C 309 772 322 801 339 826 C 356 851 376 872 400 889 C 423 906 449 919 478 927 C 506 935 537 940 569 940 C 582 940 598 938 616 936 C 634 933 649 930 659 926 Z" unicode="r" />
<glyph horiz-adv-x="764" d="M 692 258 C 692 221 685 186 671 154 C 657 121 636 92 608 68 C 580 43 545 23 503 9 C 461 -4 413 -12 358 -12 C 304 -12 256 -6 213 6 C 169 18 132 34 100 55 L 78 250 C 94 236 113 222 135 210 C 156 197 179 186 204 176 C 228 166 254 159 281 153 C 307 147 334 145 362 145 C 406 145 441 155 467 176 C 493 196 506 222 506 252 C 506 284 495 309 473 329 C 451 348 419 365 377 381 C 331 397 291 414 256 434 C 221 453 192 474 168 498 C 144 522 125 548 113 578 C 100 607 94 640 94 678 C 94 716 101 751 116 783 C 131 815 152 843 179 866 C 206 889 238 907 276 920 C 314 933 355 940 401 940 C 427 940 452 938 477 934 C 502 930 525 925 547 919 C 568 913 587 906 603 899 C 619 892 632 886 641 881 L 604 725 C 582 739 555 753 522 765 C 489 777 448 784 399 784 C 361 784 330 774 308 756 C 285 738 274 714 274 684 C 274 655 284 632 306 616 C 327 600 360 583 406 567 C 451 551 491 533 527 514 C 563 494 593 472 617 448 C 641 423 660 395 673 364 C 685 333 692 298 692 258 Z" unicode="s" />
<glyph horiz-adv-x="735" d="M 715 928 L 682 778 L 387 778 L 387 285 C 387 231 400 194 427 173 C 453 151 491 141 541 141 C 557 141 572 142 586 144 C 600 146 613 149 625 154 L 608 6 C 596 0 580 -4 562 -6 C 543 -8 524 -10 506 -10 C 464 -10 424 -4 388 8 C 351 20 319 37 291 60 C 263 83 242 112 226 146 C 210 180 203 220 203 266 L 203 778 L 20 778 L 20 928 L 203 928 L 203 1116 L 387 1212 L 387 928 L 715 928 Z" unicode="t" />
<glyph horiz-adv-x="1036" d="M 924 0 L 754 0 L 754 121 L 752 121 C 742 100 729 81 713 64 C 697 46 677 31 654 18 C 630 5 603 -4 572 -12 C 541 -19 505 -23 465 -23 C 414 -23 367 -15 324 0 C 281 16 244 38 213 67 C 181 96 157 131 139 173 C 121 214 113 261 113 313 L 113 928 L 299 928 L 299 332 C 299 308 302 284 310 261 C 318 237 330 216 348 198 C 365 180 387 165 414 154 C 441 142 474 137 514 137 C 551 137 584 142 612 154 C 640 165 663 180 681 198 C 699 216 713 237 723 261 C 732 284 737 308 737 332 L 737 928 L 924 928 L 924 0 Z" unicode="u" />
<glyph horiz-adv-x="934" d="M 893 928 L 504 -16 L 428 -16 L 41 928 L 229 928 L 399 514 C 411 484 424 450 437 412 C 449 374 461 338 473 303 L 477 303 C 488 338 500 374 513 412 C 525 450 538 484 551 514 L 719 928 L 893 928 Z" unicode="v" />
<glyph horiz-adv-x="1411" d="M 1370 928 L 1020 -16 L 952 -16 L 782 434 C 768 469 755 507 743 548 C 731 589 719 630 707 672 L 702 672 C 690 630 678 589 666 548 C 653 506 641 470 629 438 L 459 -16 L 391 -16 L 41 928 L 217 928 L 365 530 C 376 499 387 466 398 430 C 408 394 418 360 426 328 L 430 328 C 438 358 447 392 459 429 C 471 465 482 499 494 530 L 641 928 L 776 928 L 926 530 C 938 498 948 465 958 431 C 967 397 977 362 987 328 L 991 328 C 1001 362 1012 397 1022 432 C 1032 467 1043 500 1055 530 L 1202 928 L 1370 928 Z" unicode="w" />
<glyph horiz-adv-x="924" d="M 852 0 L 651 0 L 524 213 C 514 228 504 245 494 265 C 484 284 474 303 465 322 L 461 322 C 451 303 441 284 429 264 C 417 244 407 227 399 213 L 272 0 L 72 0 L 358 469 L 84 928 L 283 928 L 401 725 C 410 708 419 691 429 675 C 438 659 447 642 457 625 L 461 625 C 470 641 479 657 489 674 C 498 690 508 707 518 725 L 637 928 L 838 928 L 565 477 L 852 0 Z" unicode="x" />
<glyph horiz-adv-x="961" d="M 920 928 L 578 90 C 542 4 506 -69 470 -132 C 434 -194 396 -248 357 -294 C 318 -339 278 -377 236 -407 C 194 -437 150 -462 104 -483 L -14 -365 C 26 -347 65 -326 102 -302 C 139 -278 174 -248 207 -214 C 240 -179 271 -138 301 -90 C 331 -42 359 15 387 82 L 41 928 L 233 928 L 403 508 C 414 479 427 446 442 408 C 456 370 469 332 481 295 L 485 295 C 491 312 498 330 506 349 C 514 368 521 387 529 406 C 536 424 543 442 550 459 C 557 476 563 492 569 506 L 741 928 L 920 928 Z" unicode="y" />
<glyph horiz-adv-x="885" d="M 813 0 L 72 0 L 72 37 L 362 528 C 373 546 385 567 398 589 C 411 611 424 633 437 655 C 450 677 463 698 476 719 C 488 739 500 758 512 776 L 510 778 L 100 778 L 100 928 L 776 928 L 776 891 L 483 399 C 459 360 435 320 411 279 C 386 238 360 196 334 152 L 336 150 L 813 150 L 813 0 Z" unicode="z" />
<glyph horiz-adv-x="631" d="M 621 -305 L 588 -449 C 518 -449 458 -435 409 -409 C 359 -383 319 -347 288 -301 C 256 -255 233 -202 219 -141 C 204 -79 197 -13 197 57 C 197 105 193 150 187 194 C 181 237 170 277 156 314 C 141 351 122 385 98 415 C 74 445 44 470 10 492 C 44 514 74 540 98 570 C 122 600 141 633 156 670 C 170 707 181 747 187 791 C 193 834 197 880 197 928 C 197 998 204 1063 219 1125 C 233 1186 256 1239 288 1285 C 319 1330 359 1366 409 1392 C 458 1418 518 1432 588 1432 L 621 1288 C 537 1288 475 1256 437 1193 C 398 1129 379 1038 379 920 C 379 828 366 747 342 678 C 318 609 277 547 221 492 C 277 438 318 376 342 306 C 366 236 379 155 379 63 C 379 -55 398 -146 437 -210 C 475 -273 537 -305 621 -305 Z" unicode="{" />
<glyph horiz-adv-x="426" d="M 293 -473 L 133 -473 L 133 1458 L 293 1458 L 293 -473 Z" unicode="|" />
<glyph horiz-adv-x="631" d="M 621 492 C 585 470 556 445 532 415 C 508 385 489 351 475 314 C 460 277 449 237 443 194 C 437 150 434 105 434 57 C 434 -13 426 -79 412 -141 C 397 -202 374 -255 343 -301 C 311 -347 271 -383 222 -409 C 172 -435 113 -449 43 -449 L 10 -305 C 94 -305 155 -273 194 -210 C 232 -146 252 -55 252 63 C 252 155 264 236 288 306 C 312 376 353 438 410 492 C 353 547 312 609 288 678 C 264 747 252 828 252 920 C 252 1038 232 1129 194 1193 C 155 1256 94 1288 10 1288 L 43 1432 C 113 1432 172 1418 222 1392 C 271 1366 311 1330 343 1285 C 374 1239 397 1186 412 1125 C 426 1063 434 998 434 928 C 434 880 437 834 443 791 C 449 747 460 707 475 670 C 489 633 508 600 532 570 C 556 540 585 514 621 492 Z" unicode="}" />
<glyph horiz-adv-x="772" d="M 690 655 C 678 633 663 610 645 585 C 627 559 608 536 588 515 C 568 493 549 475 531 461 C 512 447 496 440 483 440 C 469 440 453 443 436 451 C 419 459 402 467 386 477 C 370 486 354 494 340 502 C 325 510 313 514 305 514 C 295 514 285 510 275 502 C 264 494 253 484 243 473 C 233 462 223 451 214 439 C 205 427 198 417 193 410 L 82 459 C 94 480 109 503 127 528 C 145 553 164 576 184 598 C 203 620 222 638 241 652 C 259 666 275 674 289 674 C 303 674 318 670 335 662 C 352 654 369 645 386 636 C 402 626 418 618 433 610 C 447 602 459 598 467 598 C 476 598 486 602 497 610 C 507 618 518 628 528 640 C 538 651 548 663 557 675 C 566 687 574 697 580 705 L 690 655 Z" unicode="~" />
<glyph horiz-adv-x="236" d="" unicode="" />
<glyph horiz-adv-x="547" d="M 391 1204 C 391 1194 386 1182 377 1168 C 367 1154 356 1140 343 1127 C 330 1114 316 1103 302 1094 C 288 1085 276 1081 266 1081 C 256 1081 243 1085 229 1094 C 215 1103 201 1114 188 1127 C 175 1140 164 1154 155 1168 C 145 1182 141 1194 141 1204 C 141 1214 145 1226 155 1240 C 164 1254 175 1268 188 1281 C 201 1294 215 1305 229 1315 C 243 1324 256 1329 266 1329 C 276 1329 288 1324 302 1315 C 316 1305 330 1294 343 1281 C 356 1268 367 1254 377 1240 C 386 1226 391 1214 391 1204 Z M 383 0 L 164 0 L 197 934 L 350 899 L 383 0 Z" unicode="" />
<glyph horiz-adv-x="932" d="M 627 0 L 510 0 L 510 172 C 452 178 397 193 345 217 C 292 241 245 274 205 314 C 164 354 132 401 108 457 C 84 512 72 574 72 643 C 72 712 84 774 108 830 C 132 886 164 934 205 974 C 245 1014 292 1047 345 1071 C 397 1095 452 1110 510 1116 L 510 1307 L 627 1307 L 627 1118 C 673 1114 715 1107 753 1096 C 791 1084 827 1070 860 1053 L 825 883 C 783 909 742 927 704 937 C 665 947 624 952 580 952 C 538 952 498 944 460 930 C 421 916 387 895 357 868 C 327 841 304 808 286 770 C 268 731 260 687 260 639 C 260 591 269 547 287 509 C 305 470 330 437 360 411 C 390 384 424 363 463 349 C 502 335 542 328 584 328 C 628 328 668 332 706 341 C 743 349 783 364 825 385 L 807 213 C 755 188 695 174 627 170 L 627 0 Z" unicode="" />
<glyph horiz-adv-x="881" d="M 799 139 L 764 -23 C 726 -7 682 4 632 14 C 582 24 527 29 467 29 C 407 29 352 24 302 14 C 252 4 208 -7 170 -23 L 78 84 C 108 134 133 193 151 263 C 169 333 178 417 178 516 L 178 602 L 20 602 L 20 713 L 178 713 L 178 922 C 178 987 187 1045 205 1095 C 223 1145 249 1186 283 1220 C 317 1254 358 1279 406 1297 C 454 1314 509 1323 569 1323 C 605 1323 638 1320 670 1315 C 701 1310 729 1302 754 1292 L 717 1137 C 695 1146 673 1153 649 1159 C 625 1164 602 1167 582 1167 C 508 1167 454 1145 418 1102 C 382 1059 365 995 365 911 L 365 713 L 616 713 L 592 602 L 365 602 L 365 500 C 365 420 357 350 343 290 C 328 230 310 186 289 158 C 311 165 341 171 378 175 C 415 179 452 182 489 182 C 535 182 586 178 641 172 C 696 165 749 154 799 139 Z" unicode="" />
<glyph horiz-adv-x="1152" d="M 1056 392 L 940 284 L 740 500 C 692 468 636 452 572 452 C 510 452 456 468 408 500 L 208 284 L 92 392 L 300 608 C 281 634 268 660 262 686 C 255 711 252 742 252 780 C 252 812 255 842 262 870 C 268 898 281 925 300 952 L 92 1168 L 208 1276 L 408 1060 C 456 1092 510 1108 572 1108 C 636 1108 692 1092 740 1060 L 944 1276 L 1060 1156 L 852 952 C 870 925 883 898 890 872 C 896 845 900 814 900 780 C 900 716 882 658 848 608 L 1056 392 Z M 748 780 C 748 833 731 876 698 910 C 664 943 622 960 572 960 C 521 960 480 943 448 910 C 416 876 400 833 400 780 C 400 726 416 684 450 652 C 483 620 524 604 572 604 C 625 604 668 620 700 652 C 732 684 748 726 748 780 Z" unicode="" />
<glyph horiz-adv-x="1055" d="M 1014 1307 L 664 618 L 911 618 L 911 508 L 625 508 L 625 0 L 430 0 L 430 508 L 143 508 L 143 618 L 391 618 L 41 1307 L 246 1307 L 444 913 C 451 899 459 883 467 867 C 475 850 483 833 491 815 C 499 797 507 780 515 763 C 523 746 530 730 537 715 L 541 715 C 547 730 554 746 562 764 C 570 781 578 798 586 816 C 594 833 602 850 610 867 C 618 883 625 899 633 913 L 831 1307 L 1014 1307 Z" unicode="" />
<glyph horiz-adv-x="487" d="M 324 614 L 164 614 L 164 1458 L 324 1458 L 324 614 Z M 324 -473 L 164 -473 L 164 371 L 324 371 L 324 -473 Z" unicode="" />
<glyph horiz-adv-x="993" d="M 860 -113 C 860 -157 851 -199 834 -240 C 816 -281 791 -317 757 -349 C 723 -380 682 -405 634 -424 C 586 -443 531 -453 469 -453 C 434 -453 402 -451 374 -448 C 346 -444 320 -439 296 -433 C 272 -427 250 -419 230 -411 C 210 -402 190 -393 172 -383 L 209 -213 C 247 -237 286 -256 326 -268 C 366 -280 413 -287 465 -287 C 499 -287 529 -282 555 -273 C 581 -263 604 -251 622 -235 C 640 -219 653 -200 662 -178 C 671 -156 676 -133 676 -109 C 676 -103 675 -95 673 -85 C 671 -75 668 -66 664 -56 C 660 -46 656 -36 651 -26 C 645 -16 639 -7 633 0 L 135 520 L 197 784 C 175 816 159 850 149 886 C 138 922 133 956 133 989 C 133 1033 141 1075 159 1116 C 176 1157 201 1193 235 1225 C 269 1256 310 1281 358 1300 C 406 1319 462 1329 524 1329 C 558 1329 590 1327 619 1324 C 647 1320 673 1315 697 1309 C 721 1303 743 1295 763 1287 C 783 1279 803 1270 821 1260 L 784 1090 C 746 1114 706 1133 666 1145 C 626 1157 580 1163 528 1163 C 494 1163 463 1158 437 1149 C 411 1139 389 1127 371 1111 C 353 1095 339 1076 330 1054 C 321 1032 317 1009 317 985 C 317 979 318 971 320 962 C 322 952 324 942 328 932 C 332 922 336 912 342 902 C 347 892 353 883 360 877 L 858 356 L 797 92 C 818 60 834 26 844 -9 C 854 -45 860 -79 860 -113 Z M 735 276 L 291 739 L 258 600 L 702 137 L 735 276 Z" unicode="" />
<glyph horiz-adv-x="1024" d="M 776 1159 C 776 1151 772 1140 764 1128 C 756 1116 747 1104 736 1093 C 725 1082 714 1073 702 1065 C 690 1057 679 1053 670 1053 C 660 1053 649 1057 637 1065 C 625 1073 613 1082 602 1093 C 591 1104 582 1116 574 1128 C 566 1140 563 1151 563 1159 C 563 1168 566 1179 574 1191 C 582 1203 591 1215 602 1227 C 613 1238 625 1248 637 1256 C 649 1264 660 1268 670 1268 C 679 1268 690 1264 702 1256 C 714 1248 725 1238 736 1227 C 747 1215 756 1203 764 1191 C 772 1179 776 1168 776 1159 Z M 463 1159 C 463 1151 459 1140 451 1128 C 443 1116 434 1104 423 1093 C 412 1082 400 1073 388 1065 C 376 1057 365 1053 356 1053 C 348 1053 338 1057 326 1065 C 314 1073 302 1082 291 1093 C 279 1104 270 1116 262 1128 C 254 1140 250 1151 250 1159 C 250 1168 254 1179 262 1191 C 270 1203 279 1215 291 1227 C 302 1238 314 1248 326 1256 C 338 1264 348 1268 356 1268 C 365 1268 376 1264 388 1256 C 400 1248 412 1238 423 1227 C 434 1215 443 1203 451 1191 C 459 1179 463 1168 463 1159 Z" unicode="" />
<glyph horiz-adv-x="1249" d="M 1167 512 C 1167 433 1153 361 1125 295 C 1097 229 1058 172 1010 124 C 961 76 904 39 838 13 C 772 -13 701 -27 625 -27 C 549 -27 478 -13 412 13 C 346 39 288 76 239 124 C 190 172 152 229 124 295 C 96 361 82 433 82 512 C 82 591 96 664 124 730 C 152 796 190 852 239 900 C 288 948 346 985 412 1011 C 478 1037 549 1051 625 1051 C 701 1051 772 1037 838 1011 C 904 985 961 948 1010 900 C 1058 852 1097 796 1125 730 C 1153 664 1167 591 1167 512 Z M 1053 512 C 1053 573 1042 630 1021 683 C 1000 736 971 782 933 821 C 895 860 850 891 798 913 C 745 935 687 946 625 946 C 561 946 503 935 451 913 C 398 891 353 860 315 821 C 277 782 248 736 228 683 C 207 630 197 573 197 512 C 197 450 207 393 228 340 C 248 287 277 241 315 202 C 353 163 398 133 451 111 C 503 89 561 78 625 78 C 687 78 745 89 798 111 C 850 133 895 163 933 202 C 971 241 1000 287 1021 340 C 1042 393 1053 450 1053 512 Z M 823 760 L 795 629 C 787 635 777 641 766 647 C 754 652 742 657 730 661 C 717 665 704 668 692 670 C 679 672 667 674 655 674 C 633 674 613 670 594 663 C 575 655 558 645 544 631 C 529 617 517 601 509 582 C 500 562 496 540 496 516 C 496 492 500 470 509 451 C 518 431 530 415 545 402 C 559 388 576 378 596 371 C 615 363 635 360 657 360 C 678 360 700 362 723 368 C 746 373 771 383 799 397 L 784 264 C 742 242 697 231 649 231 C 611 231 575 237 539 250 C 503 263 472 282 444 307 C 416 331 393 361 376 397 C 358 432 350 472 350 518 C 350 563 358 604 376 640 C 393 676 416 706 444 731 C 472 755 503 774 539 787 C 575 800 611 807 649 807 C 685 807 718 802 748 794 C 778 785 803 774 823 760 Z" unicode="" />
<glyph horiz-adv-x="778" d="M 748 662 L 639 555 C 613 560 589 571 566 588 C 543 604 526 626 516 653 C 506 635 494 619 480 607 C 466 594 450 584 433 576 C 415 568 397 563 378 560 C 358 556 339 555 319 555 C 281 555 246 561 216 574 C 186 586 160 603 139 625 C 117 647 101 671 89 699 C 77 727 72 756 72 786 C 72 822 79 855 94 884 C 108 912 127 937 151 957 C 175 977 202 992 232 1004 C 262 1015 294 1022 326 1026 L 489 1042 L 489 1081 C 489 1096 486 1110 482 1124 C 477 1138 469 1150 459 1160 C 449 1170 435 1177 418 1183 C 400 1189 379 1192 354 1192 C 318 1192 281 1186 245 1176 C 209 1166 175 1150 143 1130 L 111 1266 C 147 1289 187 1306 229 1317 C 271 1327 316 1333 362 1333 C 404 1333 443 1327 479 1315 C 515 1303 546 1286 572 1264 C 598 1241 618 1213 633 1179 C 647 1145 655 1107 655 1063 L 655 768 C 655 737 663 713 679 696 C 695 678 718 667 748 662 Z M 489 852 L 489 909 L 338 893 C 302 889 276 876 258 854 C 240 832 231 807 231 780 C 231 754 239 733 257 715 C 275 697 298 688 326 688 C 344 688 362 691 382 699 C 401 707 419 718 435 732 C 451 746 464 763 474 783 C 484 803 489 826 489 852 Z M 494 309 C 494 301 490 290 482 278 C 474 266 465 254 454 243 C 443 232 431 223 419 215 C 407 207 396 203 387 203 C 379 203 368 207 356 215 C 344 223 332 232 321 243 C 310 254 301 266 293 278 C 285 290 281 301 281 309 C 281 318 285 329 293 341 C 301 353 310 365 321 377 C 332 388 344 398 356 406 C 368 414 379 418 387 418 C 396 418 407 414 419 406 C 431 398 443 388 454 377 C 465 365 474 353 482 341 C 490 329 494 318 494 309 Z" unicode="" />
<glyph horiz-adv-x="838" d="M 760 215 L 733 154 C 718 173 701 194 681 216 C 661 238 641 261 619 283 C 597 305 574 327 550 348 C 526 369 503 388 481 406 C 471 414 462 423 456 435 C 449 446 446 455 446 463 C 446 470 449 479 456 491 C 462 502 471 512 481 520 C 503 536 526 555 550 577 C 574 598 597 620 619 642 C 641 664 661 687 681 709 C 701 731 718 752 733 772 L 760 711 C 742 667 724 624 705 583 C 685 542 664 502 641 463 C 664 423 685 383 705 342 C 724 301 742 259 760 215 Z M 354 215 L 328 154 C 312 173 295 194 276 216 C 256 238 236 261 214 283 C 192 305 169 327 145 348 C 121 369 98 388 76 406 C 65 414 56 423 50 435 C 44 446 41 455 41 463 C 41 470 44 479 50 491 C 56 502 65 512 76 520 C 98 536 121 555 145 577 C 169 598 192 620 214 642 C 236 664 256 687 276 709 C 295 731 312 752 328 772 L 354 711 C 336 667 318 624 299 583 C 280 542 259 502 236 463 C 259 423 280 383 299 342 C 318 301 336 259 354 215 Z" unicode="" />
<glyph horiz-adv-x="1024" d="M 901 276 L 737 276 L 737 487 L 82 487 L 82 647 L 901 647 L 901 276 Z" unicode="" />
<glyph horiz-adv-x="676" d="M 594 487 L 82 487 L 82 647 L 594 647 L 594 487 Z" unicode="" />
<glyph horiz-adv-x="983" d="M 911 918 C 911 856 900 800 878 750 C 856 699 827 655 789 618 C 751 581 706 552 655 532 C 604 512 550 502 492 502 C 432 502 377 512 326 532 C 274 552 230 581 192 618 C 154 655 125 699 104 750 C 82 800 72 856 72 918 C 72 978 82 1034 104 1085 C 125 1136 154 1180 192 1217 C 230 1253 274 1282 326 1302 C 377 1322 432 1333 492 1333 C 550 1333 604 1322 655 1302 C 706 1282 751 1253 789 1217 C 827 1180 856 1136 878 1085 C 900 1034 911 978 911 918 Z M 817 918 C 817 966 808 1011 792 1052 C 775 1092 752 1127 723 1157 C 694 1186 660 1209 620 1225 C 580 1241 538 1249 492 1249 C 444 1249 400 1241 360 1225 C 320 1209 285 1186 256 1157 C 226 1127 203 1092 187 1052 C 170 1011 162 966 162 918 C 162 868 170 823 187 783 C 203 742 226 707 256 678 C 285 648 320 626 360 610 C 400 594 444 586 492 586 C 538 586 580 594 620 610 C 660 626 694 648 723 678 C 752 707 775 742 792 783 C 808 823 817 868 817 918 Z M 709 715 L 627 659 L 494 862 L 432 862 L 432 662 L 334 662 L 334 1174 L 494 1174 C 514 1174 535 1170 555 1163 C 575 1155 593 1145 609 1132 C 625 1118 637 1102 647 1083 C 657 1063 662 1042 662 1018 C 662 988 655 962 641 940 C 627 918 609 901 588 889 L 709 715 Z M 563 1018 C 563 1039 555 1056 541 1068 C 526 1080 505 1087 479 1087 L 432 1087 L 432 948 L 479 948 C 505 948 526 954 541 967 C 555 979 563 996 563 1018 Z" unicode="" />
<glyph horiz-adv-x="1024" d="M 700 1075 L 324 1075 L 324 1233 L 700 1233 L 700 1075 Z" unicode="" />
<glyph horiz-adv-x="623" d="M 545 1102 C 545 1070 538 1040 526 1012 C 514 984 497 959 476 938 C 454 917 429 900 401 888 C 373 876 343 870 311 870 C 279 870 249 876 221 888 C 193 900 168 917 147 938 C 125 959 108 984 96 1012 C 84 1040 78 1070 78 1102 C 78 1134 84 1164 96 1192 C 108 1220 125 1244 147 1265 C 168 1286 193 1303 221 1315 C 249 1327 279 1333 311 1333 C 343 1333 373 1327 401 1315 C 429 1303 454 1286 476 1265 C 497 1244 514 1220 526 1192 C 538 1164 545 1134 545 1102 Z M 412 1102 C 412 1134 402 1160 384 1180 C 365 1200 341 1210 311 1210 C 281 1210 256 1200 237 1180 C 218 1160 209 1134 209 1102 C 209 1070 218 1043 237 1023 C 256 1003 281 993 311 993 C 341 993 365 1003 384 1023 C 402 1043 412 1070 412 1102 Z" unicode="" />
<glyph horiz-adv-x="1536" d="M 672 352 L 672 764 L 200 764 L 200 936 L 672 936 L 672 1352 L 864 1352 L 864 936 L 1340 936 L 1340 764 L 864 764 L 864 352 L 672 352 Z M 204 24 L 204 216 L 1336 216 L 1336 24 L 204 24 Z" unicode="" />
<glyph horiz-adv-x="760" d="M 647 510 L 68 510 L 68 543 C 204 657 306 757 373 844 C 439 930 473 1003 473 1061 C 473 1112 457 1152 425 1180 C 393 1208 349 1223 293 1223 C 255 1223 220 1217 189 1207 C 157 1197 127 1183 98 1167 L 74 1278 C 100 1294 133 1308 171 1318 C 209 1328 249 1333 293 1333 C 345 1333 390 1326 429 1313 C 467 1299 500 1281 526 1257 C 552 1233 571 1204 584 1170 C 597 1136 604 1098 604 1057 C 604 1025 597 991 585 956 C 572 920 554 884 531 846 C 508 808 480 771 447 733 C 413 695 376 657 336 621 L 647 621 L 647 510 Z" unicode="" />
<glyph horiz-adv-x="639" d="M 553 752 C 553 714 546 680 532 649 C 518 618 497 591 471 569 C 445 547 412 529 373 517 C 334 504 290 498 240 498 C 217 498 192 500 165 505 C 137 509 113 516 92 526 L 78 651 C 100 639 125 628 153 620 C 181 612 207 608 233 608 C 256 608 279 611 301 617 C 323 623 342 633 360 646 C 377 659 391 675 402 695 C 412 715 418 738 418 766 C 418 785 413 804 404 822 C 395 840 383 855 367 869 C 351 883 333 894 313 902 C 292 910 270 915 248 915 C 246 915 242 915 238 915 C 234 915 227 914 219 913 L 197 1018 C 244 1027 282 1042 310 1063 C 338 1084 352 1109 352 1137 C 352 1149 349 1161 344 1172 C 338 1182 331 1191 321 1199 C 311 1206 300 1212 288 1216 C 275 1220 262 1223 248 1223 C 224 1223 203 1219 183 1213 C 163 1207 138 1196 109 1182 L 84 1292 C 112 1306 140 1317 166 1323 C 192 1329 220 1333 252 1333 C 284 1333 315 1328 343 1319 C 371 1310 396 1297 417 1281 C 438 1265 455 1245 467 1222 C 479 1199 485 1174 485 1147 C 485 1109 474 1077 454 1052 C 434 1027 409 1007 379 993 C 402 985 424 974 445 960 C 466 946 485 929 501 909 C 517 889 529 865 539 839 C 548 813 553 784 553 752 Z" unicode="" />
<glyph horiz-adv-x="1024" d="M 831 1329 C 831 1323 828 1315 822 1306 C 816 1297 808 1288 799 1278 C 755 1232 709 1190 661 1153 C 613 1116 562 1081 508 1049 L 391 1100 C 413 1117 437 1137 463 1159 C 488 1181 513 1205 538 1231 C 563 1256 587 1282 611 1309 C 634 1336 655 1363 674 1389 C 682 1400 692 1409 704 1415 C 716 1421 727 1425 735 1425 C 743 1425 752 1421 763 1414 C 774 1406 785 1398 795 1388 C 805 1378 813 1367 820 1356 C 827 1345 831 1336 831 1329 Z" unicode="" />
<glyph horiz-adv-x="1408" d="M 252 -424 C 214 -424 186 -413 168 -392 C 149 -370 140 -333 140 -280 C 140 -226 141 -168 144 -106 C 146 -43 150 25 156 100 C 161 166 165 218 168 256 C 170 293 172 317 172 328 C 174 341 176 350 176 356 C 176 361 176 365 176 368 L 176 1176 L 368 1176 L 368 320 C 368 258 395 210 450 176 C 504 141 564 124 628 124 C 716 124 792 146 858 190 C 923 234 973 297 1008 380 L 1008 1176 L 1200 1176 L 1200 308 L 1220 0 L 1056 0 L 1020 176 C 974 104 913 50 836 14 C 758 -22 670 -40 572 -40 C 537 -40 494 -31 444 -14 C 393 3 353 28 324 60 C 324 1 333 -56 352 -112 C 370 -168 380 -218 380 -264 C 380 -370 337 -424 252 -424 Z" unicode="" />
<glyph horiz-adv-x="846" d="M 836 1165 L 692 1165 L 692 -100 C 692 -148 684 -194 668 -236 C 652 -278 632 -315 607 -348 C 581 -380 552 -407 520 -429 C 488 -450 455 -465 422 -473 L 303 -356 C 333 -349 360 -339 385 -325 C 410 -311 431 -293 449 -271 C 466 -249 479 -222 489 -192 C 499 -161 504 -126 504 -86 L 504 571 L 485 571 C 431 571 379 578 329 594 C 279 610 236 633 198 664 C 160 695 129 734 106 780 C 83 826 72 880 72 942 C 72 1004 83 1058 106 1105 C 129 1151 160 1190 198 1222 C 236 1254 281 1277 331 1293 C 381 1309 433 1317 487 1317 L 836 1317 L 836 1165 Z" unicode="" />
<glyph horiz-adv-x="406" d="M 328 555 C 328 545 323 532 314 518 C 304 504 293 490 280 477 C 267 464 253 453 239 444 C 225 434 213 430 203 430 C 193 430 180 434 166 444 C 152 453 138 464 125 477 C 112 490 101 504 92 518 C 82 532 78 545 78 555 C 78 565 82 577 92 591 C 101 605 112 618 125 631 C 138 644 152 655 166 664 C 180 673 193 678 203 678 C 213 678 225 673 239 664 C 253 655 267 644 280 631 C 293 618 304 605 314 591 C 323 577 328 565 328 555 Z" unicode="" />
<glyph horiz-adv-x="1024" d="M 705 -262 C 705 -296 698 -327 685 -353 C 671 -379 654 -401 633 -419 C 611 -437 587 -450 560 -459 C 533 -468 506 -473 479 -473 C 447 -473 418 -468 392 -459 C 366 -449 342 -437 319 -422 L 342 -317 C 361 -332 383 -343 407 -351 C 431 -358 455 -362 481 -362 C 493 -362 504 -359 516 -355 C 527 -350 537 -344 546 -336 C 554 -328 561 -318 567 -306 C 572 -294 575 -282 575 -268 C 575 -253 572 -240 566 -228 C 560 -216 552 -207 544 -199 C 536 -191 527 -184 517 -180 C 507 -176 499 -174 492 -174 C 458 -174 435 -166 424 -150 C 413 -134 410 -116 416 -96 L 438 0 L 516 0 L 504 -55 C 527 -55 551 -61 575 -71 C 599 -81 620 -95 640 -113 C 659 -131 675 -152 687 -178 C 699 -203 705 -231 705 -262 Z" unicode="" />
<glyph horiz-adv-x="551" d="M 375 510 L 244 510 L 244 1200 L 76 1184 L 104 1307 L 375 1333 L 375 510 Z" unicode="" />
<glyph horiz-adv-x="940" d="M 868 944 C 868 886 857 834 837 786 C 817 738 789 697 754 663 C 718 629 676 602 628 583 C 579 564 527 555 471 555 C 415 555 362 564 314 583 C 265 602 223 629 187 663 C 151 697 122 738 102 786 C 82 834 72 886 72 944 C 72 1002 82 1054 102 1102 C 122 1150 151 1191 187 1225 C 223 1259 265 1286 314 1305 C 362 1323 415 1333 471 1333 C 527 1333 579 1323 628 1305 C 676 1286 718 1259 754 1225 C 789 1191 817 1150 837 1102 C 857 1054 868 1002 868 944 Z M 705 944 C 705 982 698 1016 686 1047 C 673 1078 656 1105 635 1127 C 613 1149 588 1166 560 1178 C 532 1190 502 1196 471 1196 C 439 1196 408 1190 380 1178 C 352 1166 327 1149 306 1127 C 284 1105 267 1078 255 1047 C 242 1016 236 982 236 944 C 236 906 242 872 255 841 C 267 810 284 784 306 762 C 327 740 352 722 380 710 C 408 698 439 692 471 692 C 502 692 532 698 560 710 C 588 722 613 740 635 762 C 656 784 673 810 686 841 C 698 872 705 906 705 944 Z M 575 309 C 575 301 571 290 563 278 C 555 266 546 254 535 243 C 524 232 513 223 501 215 C 489 207 478 203 469 203 C 461 203 450 207 438 215 C 426 223 414 232 403 243 C 391 254 382 266 374 278 C 366 290 362 301 362 309 C 362 318 366 329 374 341 C 382 353 391 365 403 377 C 414 388 426 398 438 406 C 450 414 461 418 469 418 C 478 418 489 414 501 406 C 513 398 524 388 535 377 C 546 365 555 353 563 341 C 571 329 575 318 575 309 Z" unicode="" />
<glyph horiz-adv-x="838" d="M 797 463 C 797 455 793 446 787 435 C 780 423 772 414 762 406 C 738 388 715 369 691 348 C 667 327 645 305 623 283 C 601 261 580 238 560 216 C 540 194 524 173 510 154 L 483 215 C 499 259 517 301 536 342 C 555 383 577 423 602 463 C 577 502 555 542 536 583 C 517 624 499 667 483 711 L 510 772 C 524 752 540 731 560 709 C 580 687 601 664 623 642 C 645 620 667 598 691 577 C 715 555 738 536 762 520 C 772 512 780 502 787 491 C 793 479 797 470 797 463 Z M 391 463 C 391 455 387 446 381 435 C 375 423 366 414 356 406 C 332 388 309 369 285 348 C 261 327 239 305 217 283 C 195 261 174 238 155 216 C 135 194 118 173 104 154 L 78 215 C 94 259 112 301 131 342 C 149 383 171 423 197 463 C 171 502 149 542 131 583 C 112 624 94 667 78 711 L 104 772 C 118 752 135 731 155 709 C 174 687 195 664 217 642 C 239 620 261 598 285 577 C 309 555 332 536 356 520 C 366 512 375 502 381 491 C 387 479 391 470 391 463 Z" unicode="" />
<glyph horiz-adv-x="1522" d="M 1407 240 L 1298 240 L 1298 0 L 1167 0 L 1167 240 L 823 240 L 795 352 L 1182 813 L 1298 813 L 1298 350 L 1407 350 L 1407 240 Z M 1174 639 L 1169 641 C 1159 623 1148 607 1136 591 C 1124 575 1112 558 1098 541 L 940 350 L 1167 350 L 1167 543 C 1167 560 1167 576 1168 591 C 1169 606 1171 622 1174 639 Z M 1274 1280 L 211 -33 L 137 27 L 1202 1339 L 1274 1280 Z M 375 510 L 244 510 L 244 1200 L 76 1184 L 104 1307 L 375 1333 L 375 510 Z" unicode="" />
<glyph horiz-adv-x="1634" d="M 1538 0 L 958 0 L 958 33 C 1095 147 1197 247 1264 334 C 1330 420 1364 493 1364 551 C 1364 602 1348 642 1316 670 C 1284 698 1240 713 1184 713 C 1146 713 1111 707 1080 697 C 1048 687 1018 673 989 657 L 965 768 C 991 784 1024 798 1062 808 C 1100 818 1140 823 1184 823 C 1236 823 1281 816 1320 803 C 1358 789 1391 771 1417 747 C 1443 723 1462 694 1475 660 C 1488 626 1495 588 1495 547 C 1495 515 1488 481 1476 446 C 1463 410 1445 374 1422 336 C 1399 298 1371 261 1338 223 C 1304 185 1267 147 1227 111 L 1538 111 L 1538 0 Z M 1274 1280 L 211 -33 L 137 27 L 1202 1339 L 1274 1280 Z M 375 510 L 244 510 L 244 1200 L 76 1184 L 104 1307 L 375 1333 L 375 510 Z" unicode="" />
<glyph horiz-adv-x="1577" d="M 1489 240 L 1380 240 L 1380 0 L 1249 0 L 1249 240 L 905 240 L 877 352 L 1264 813 L 1380 813 L 1380 350 L 1489 350 L 1489 240 Z M 1255 639 L 1251 641 C 1241 623 1230 607 1218 591 C 1206 575 1194 558 1180 541 L 1022 350 L 1249 350 L 1249 543 C 1249 560 1249 576 1250 591 C 1251 606 1253 622 1255 639 Z M 1356 1280 L 293 -33 L 219 27 L 1284 1339 L 1356 1280 Z M 553 752 C 553 714 546 680 532 649 C 518 618 497 591 471 569 C 445 547 412 529 373 517 C 334 504 290 498 240 498 C 217 498 192 500 165 505 C 137 509 113 516 92 526 L 78 651 C 100 639 125 628 153 620 C 181 612 207 608 233 608 C 256 608 279 611 301 617 C 323 623 342 633 360 646 C 377 659 391 675 402 695 C 412 715 418 738 418 766 C 418 785 413 804 404 822 C 395 840 383 855 367 869 C 351 883 333 894 313 902 C 292 910 270 915 248 915 C 246 915 242 915 238 915 C 234 915 227 914 219 913 L 197 1018 C 244 1027 282 1042 310 1063 C 338 1084 352 1109 352 1137 C 352 1149 349 1161 344 1172 C 338 1182 331 1191 321 1199 C 311 1206 300 1212 288 1216 C 275 1220 262 1223 248 1223 C 224 1223 203 1219 183 1213 C 163 1207 138 1196 109 1182 L 84 1292 C 112 1306 140 1317 166 1323 C 192 1329 220 1333 252 1333 C 284 1333 315 1328 343 1319 C 371 1310 396 1297 417 1281 C 438 1265 455 1245 467 1222 C 479 1199 485 1174 485 1147 C 485 1109 474 1077 454 1052 C 434 1027 409 1007 379 993 C 402 985 424 974 445 960 C 466 946 485 929 501 909 C 517 889 529 865 539 839 C 548 813 553 784 553 752 Z" unicode="" />
<glyph horiz-adv-x="745" d="M 522 1208 C 522 1198 517 1186 508 1172 C 498 1158 487 1144 474 1131 C 461 1118 447 1107 433 1098 C 419 1089 407 1085 397 1085 C 386 1085 373 1089 359 1098 C 345 1107 331 1118 318 1131 C 305 1144 294 1158 285 1172 C 276 1186 272 1198 272 1208 C 272 1218 276 1230 285 1244 C 294 1258 305 1272 318 1285 C 331 1298 345 1309 359 1319 C 373 1328 386 1333 397 1333 C 407 1333 419 1328 433 1319 C 447 1309 461 1298 474 1285 C 487 1272 498 1258 508 1244 C 517 1230 522 1218 522 1208 Z M 694 49 C 661 28 623 11 579 -2 C 535 -16 488 -23 436 -23 C 384 -23 335 -15 291 -1 C 246 13 207 35 175 63 C 143 91 117 125 99 166 C 81 206 72 253 72 305 C 72 335 76 364 85 391 C 93 418 105 444 121 470 C 136 495 154 520 175 545 C 196 569 219 595 244 621 C 276 655 298 688 311 720 C 323 752 330 784 330 815 C 330 834 329 855 328 877 C 326 899 323 919 319 938 L 487 901 C 492 881 496 864 498 850 C 500 835 502 817 502 797 C 502 742 491 689 470 637 C 449 585 420 540 383 502 C 364 483 348 465 334 449 C 320 432 308 415 298 399 C 288 382 281 364 277 346 C 272 328 270 308 270 287 C 270 271 273 255 280 238 C 287 221 298 206 312 192 C 326 178 343 166 363 157 C 383 147 407 143 434 143 C 479 143 519 149 555 163 C 591 177 625 194 657 215 L 694 49 Z" unicode="" />
<glyph horiz-adv-x="1268" d="M 1227 0 L 1026 0 L 885 338 L 377 338 L 236 0 L 41 0 L 598 1325 L 670 1325 L 1227 0 Z M 817 496 L 688 815 C 678 836 669 861 659 890 C 649 918 641 947 633 975 L 629 975 C 621 947 612 918 602 890 C 592 861 582 836 573 815 L 444 496 L 817 496 Z M 821 1513 L 694 1458 C 640 1490 590 1523 542 1559 C 494 1595 450 1635 408 1681 C 398 1690 390 1700 384 1710 C 378 1720 375 1729 375 1737 C 375 1744 378 1753 386 1765 C 393 1776 402 1787 412 1797 C 422 1807 433 1816 445 1824 C 457 1831 467 1835 475 1835 C 483 1835 494 1831 507 1825 C 519 1818 530 1808 539 1796 C 557 1770 577 1744 601 1718 C 625 1691 649 1665 674 1641 C 699 1616 724 1593 750 1571 C 775 1549 799 1529 821 1513 Z" unicode="" />
<glyph horiz-adv-x="1268" d="M 1227 0 L 1026 0 L 885 338 L 377 338 L 236 0 L 41 0 L 598 1325 L 670 1325 L 1227 0 Z M 817 496 L 688 815 C 678 836 669 861 659 890 C 649 918 641 947 633 975 L 629 975 C 621 947 612 918 602 890 C 592 861 582 836 573 815 L 444 496 L 817 496 Z M 899 1739 C 899 1732 895 1724 889 1716 C 883 1707 875 1698 866 1688 C 822 1641 777 1599 729 1563 C 681 1526 629 1491 575 1458 L 459 1509 C 481 1526 505 1546 531 1569 C 556 1591 581 1615 606 1641 C 631 1666 655 1692 679 1719 C 702 1745 723 1772 741 1798 C 749 1809 760 1818 772 1825 C 784 1831 794 1835 803 1835 C 811 1835 820 1831 831 1824 C 842 1816 853 1807 863 1797 C 873 1787 881 1776 888 1765 C 895 1754 899 1745 899 1739 Z" unicode="" />
<glyph horiz-adv-x="1268" d="M 1227 0 L 1026 0 L 885 338 L 377 338 L 236 0 L 41 0 L 598 1325 L 670 1325 L 1227 0 Z M 817 496 L 688 815 C 678 836 669 861 659 890 C 649 918 641 947 633 975 L 629 975 C 621 947 612 918 602 890 C 592 861 582 836 573 815 L 444 496 L 817 496 Z M 981 1513 L 854 1458 C 814 1481 775 1506 735 1534 C 695 1561 659 1590 625 1620 C 591 1590 555 1561 519 1534 C 482 1506 444 1481 406 1458 L 289 1509 C 311 1525 334 1545 360 1567 C 385 1589 410 1613 435 1639 C 460 1664 484 1690 508 1717 C 532 1744 553 1770 571 1796 C 579 1808 590 1818 603 1825 C 615 1831 626 1835 635 1835 C 643 1835 653 1831 666 1825 C 679 1818 690 1808 698 1796 C 716 1770 737 1744 761 1718 C 784 1691 808 1665 834 1641 C 859 1616 884 1593 910 1571 C 935 1549 959 1529 981 1513 Z" unicode="" />
<glyph horiz-adv-x="1268" d="M 1227 0 L 1026 0 L 885 338 L 377 338 L 236 0 L 41 0 L 598 1325 L 670 1325 L 1227 0 Z M 817 496 L 688 815 C 678 836 669 861 659 890 C 649 918 641 947 633 975 L 629 975 C 621 947 612 918 602 890 C 592 861 582 836 573 815 L 444 496 L 817 496 Z M 1010 1755 C 1000 1738 988 1720 976 1701 C 963 1682 949 1663 935 1645 C 920 1626 905 1608 890 1591 C 874 1574 859 1559 845 1546 C 830 1532 816 1522 803 1514 C 789 1506 778 1503 768 1503 C 752 1503 734 1507 714 1516 C 694 1525 675 1535 655 1546 C 635 1557 617 1567 600 1577 C 582 1586 569 1591 559 1591 C 548 1591 536 1586 524 1576 C 511 1566 499 1555 487 1542 C 475 1529 463 1516 453 1502 C 443 1488 434 1476 428 1468 L 299 1526 C 313 1550 330 1577 352 1607 C 373 1637 395 1664 418 1689 C 440 1714 463 1735 485 1752 C 507 1769 525 1778 541 1778 C 557 1778 575 1773 595 1764 C 615 1754 634 1744 654 1733 C 674 1722 692 1712 709 1703 C 726 1694 740 1690 750 1690 C 760 1690 772 1694 784 1704 C 796 1714 809 1725 821 1738 C 833 1751 844 1764 855 1778 C 865 1792 874 1803 881 1812 L 1010 1755 Z" unicode="" />
<glyph horiz-adv-x="1268" d="M 1227 0 L 1026 0 L 885 338 L 377 338 L 236 0 L 41 0 L 598 1325 L 670 1325 L 1227 0 Z M 817 496 L 688 815 C 678 836 669 861 659 890 C 649 918 641 947 633 975 L 629 975 C 621 947 612 918 602 890 C 592 861 582 836 573 815 L 444 496 L 817 496 Z M 897 1569 C 897 1561 893 1550 885 1538 C 877 1526 868 1514 857 1503 C 846 1491 834 1482 822 1474 C 810 1466 799 1462 791 1462 C 781 1462 770 1466 758 1474 C 746 1482 734 1491 723 1503 C 712 1514 703 1526 695 1538 C 687 1550 684 1561 684 1569 C 684 1578 687 1589 695 1601 C 703 1613 712 1625 723 1637 C 734 1648 746 1657 758 1665 C 770 1673 781 1677 791 1677 C 799 1677 810 1673 822 1665 C 834 1657 846 1648 857 1637 C 868 1625 877 1613 885 1601 C 893 1589 897 1578 897 1569 Z M 584 1569 C 584 1561 580 1550 572 1538 C 564 1526 555 1514 544 1503 C 533 1491 521 1482 509 1474 C 497 1466 486 1462 477 1462 C 469 1462 458 1466 446 1474 C 434 1482 422 1491 411 1503 C 400 1514 391 1526 383 1538 C 375 1550 371 1561 371 1569 C 371 1578 375 1589 383 1601 C 391 1613 400 1625 411 1637 C 422 1648 434 1657 446 1665 C 458 1673 469 1677 477 1677 C 486 1677 497 1673 509 1665 C 521 1657 533 1648 544 1637 C 555 1625 564 1613 572 1601 C 580 1589 584 1578 584 1569 Z" unicode="" />
<glyph horiz-adv-x="1268" d="M 1227 0 L 1026 0 L 885 338 L 377 338 L 236 0 L 41 0 L 598 1325 L 670 1325 L 1227 0 Z M 817 496 L 688 815 C 678 836 669 861 659 890 C 649 918 641 947 633 975 L 629 975 C 621 947 612 918 602 890 C 592 861 582 836 573 815 L 444 496 L 817 496 Z M 868 1673 C 868 1641 861 1611 849 1583 C 837 1555 820 1530 799 1509 C 777 1488 753 1472 725 1460 C 697 1448 667 1442 635 1442 C 603 1442 572 1448 544 1460 C 516 1472 491 1488 470 1509 C 448 1530 431 1555 419 1583 C 407 1611 401 1641 401 1673 C 401 1705 407 1735 419 1763 C 431 1791 448 1815 470 1836 C 491 1857 516 1874 544 1886 C 572 1898 603 1905 635 1905 C 667 1905 697 1898 725 1886 C 753 1874 777 1857 799 1836 C 820 1815 837 1791 849 1763 C 861 1735 868 1705 868 1673 Z M 735 1673 C 735 1705 725 1731 707 1751 C 689 1771 665 1782 635 1782 C 605 1782 580 1771 561 1751 C 541 1731 532 1705 532 1673 C 532 1641 541 1615 561 1595 C 580 1575 605 1565 635 1565 C 665 1565 689 1575 707 1595 C 725 1615 735 1641 735 1673 Z" unicode="" />
<glyph horiz-adv-x="1655" d="M 1645 0 L 870 0 L 870 338 L 436 338 L 240 0 L 41 0 L 799 1307 L 1573 1307 L 1573 1137 L 1067 1137 L 1067 741 L 1491 741 L 1491 571 L 1067 571 L 1067 170 L 1645 170 L 1645 0 Z M 872 1139 L 868 1141 C 852 1103 835 1066 817 1028 C 798 990 779 954 760 920 L 518 496 L 870 496 L 870 924 C 870 946 870 966 870 984 C 870 1001 871 1018 871 1034 C 871 1050 871 1067 871 1083 C 871 1099 872 1118 872 1139 Z" unicode="" />
<glyph horiz-adv-x="1237" d="M 1155 1235 L 1120 1059 C 1104 1069 1084 1079 1061 1089 C 1038 1099 1013 1108 985 1116 C 957 1124 927 1130 895 1135 C 863 1140 830 1143 797 1143 C 734 1143 672 1132 611 1112 C 549 1092 494 1061 446 1020 C 397 979 358 928 328 866 C 298 804 283 731 283 649 C 283 566 297 494 327 433 C 357 371 396 320 444 280 C 492 239 546 208 608 188 C 670 168 733 158 797 158 C 873 158 937 164 990 177 C 1043 190 1090 208 1130 231 L 1112 51 C 1092 41 1071 32 1049 24 C 1027 16 1003 10 977 5 C 951 0 922 -3 890 -6 C 858 -8 823 -10 784 -10 L 774 -55 C 797 -55 821 -61 845 -71 C 869 -81 890 -95 910 -113 C 929 -131 945 -152 957 -178 C 969 -203 975 -231 975 -262 C 975 -296 968 -327 955 -353 C 941 -379 924 -401 903 -419 C 881 -437 857 -450 830 -459 C 803 -468 776 -473 750 -473 C 718 -473 689 -468 663 -459 C 637 -449 612 -437 590 -422 L 612 -317 C 631 -332 653 -343 677 -351 C 701 -358 726 -362 752 -362 C 764 -362 775 -359 787 -355 C 798 -350 808 -344 817 -336 C 825 -328 832 -318 838 -306 C 843 -294 846 -282 846 -268 C 846 -253 843 -240 837 -228 C 831 -216 823 -207 815 -199 C 807 -191 798 -184 788 -180 C 778 -176 770 -174 762 -174 C 728 -174 705 -166 694 -150 C 683 -134 680 -116 686 -96 L 707 -6 C 655 -1 604 8 554 24 C 503 40 455 61 409 87 C 363 113 320 145 280 182 C 240 218 205 260 176 308 C 146 355 123 407 107 465 C 90 522 82 585 82 653 C 82 727 91 794 111 856 C 130 918 156 973 190 1023 C 224 1072 263 1115 308 1152 C 353 1189 401 1220 453 1245 C 504 1269 557 1288 612 1300 C 666 1312 720 1319 774 1319 C 862 1319 937 1310 1000 1294 C 1063 1277 1115 1257 1155 1235 Z" unicode="" />
<glyph horiz-adv-x="920" d="M 909 0 L 133 0 L 133 1307 L 838 1307 L 838 1137 L 332 1137 L 332 741 L 756 741 L 756 571 L 332 571 L 332 170 L 909 170 L 909 0 Z M 682 1513 L 555 1458 C 501 1490 451 1523 403 1559 C 355 1595 310 1635 268 1681 C 258 1690 251 1700 245 1710 C 239 1720 236 1729 236 1737 C 236 1744 239 1753 247 1765 C 254 1776 263 1787 273 1797 C 283 1807 294 1816 306 1824 C 318 1831 328 1835 336 1835 C 344 1835 354 1831 367 1825 C 380 1818 391 1808 399 1796 C 417 1770 438 1744 462 1718 C 485 1691 509 1665 535 1641 C 560 1616 585 1593 611 1571 C 636 1549 660 1529 682 1513 Z" unicode="" />
<glyph horiz-adv-x="920" d="M 909 0 L 133 0 L 133 1307 L 838 1307 L 838 1137 L 332 1137 L 332 741 L 756 741 L 756 571 L 332 571 L 332 170 L 909 170 L 909 0 Z M 784 1739 C 784 1732 781 1724 775 1716 C 769 1707 761 1698 752 1688 C 708 1641 662 1599 614 1563 C 566 1526 515 1491 461 1458 L 344 1509 C 366 1526 390 1546 416 1569 C 441 1591 466 1615 491 1641 C 516 1666 540 1692 564 1719 C 587 1745 608 1772 627 1798 C 635 1809 645 1818 657 1825 C 669 1831 680 1835 688 1835 C 696 1835 705 1831 716 1824 C 727 1816 738 1807 748 1797 C 758 1787 766 1776 773 1765 C 780 1754 784 1745 784 1739 Z" unicode="" />
<glyph horiz-adv-x="920" d="M 909 0 L 133 0 L 133 1307 L 838 1307 L 838 1137 L 332 1137 L 332 741 L 756 741 L 756 571 L 332 571 L 332 170 L 909 170 L 909 0 Z M 854 1513 L 727 1458 C 687 1481 648 1506 608 1534 C 568 1561 532 1590 498 1620 C 464 1590 428 1561 392 1534 C 355 1506 317 1481 279 1458 L 162 1509 C 184 1525 207 1545 233 1567 C 258 1589 283 1613 308 1639 C 333 1664 357 1690 381 1717 C 405 1744 426 1770 444 1796 C 452 1808 463 1818 476 1825 C 489 1831 500 1835 508 1835 C 516 1835 526 1831 539 1825 C 552 1818 563 1808 571 1796 C 589 1770 610 1744 634 1718 C 657 1691 681 1665 707 1641 C 732 1616 757 1593 783 1571 C 808 1549 832 1529 854 1513 Z" unicode="" />
<glyph horiz-adv-x="920" d="M 909 0 L 133 0 L 133 1307 L 838 1307 L 838 1137 L 332 1137 L 332 741 L 756 741 L 756 571 L 332 571 L 332 170 L 909 170 L 909 0 Z M 768 1569 C 768 1561 764 1550 756 1538 C 748 1526 739 1514 728 1503 C 717 1491 705 1482 693 1474 C 681 1466 670 1462 662 1462 C 652 1462 641 1466 629 1474 C 617 1482 605 1491 594 1503 C 583 1514 574 1526 566 1538 C 558 1550 555 1561 555 1569 C 555 1578 558 1589 566 1601 C 574 1613 583 1625 594 1637 C 605 1648 617 1657 629 1665 C 641 1673 652 1677 662 1677 C 670 1677 681 1673 693 1665 C 705 1657 717 1648 728 1637 C 739 1625 748 1613 756 1601 C 764 1589 768 1578 768 1569 Z M 455 1569 C 455 1561 451 1550 443 1538 C 435 1526 426 1514 415 1503 C 404 1491 392 1482 380 1474 C 368 1466 357 1462 348 1462 C 340 1462 329 1466 317 1474 C 305 1482 293 1491 282 1503 C 271 1514 262 1526 254 1538 C 246 1550 242 1561 242 1569 C 242 1578 246 1589 254 1601 C 262 1613 271 1625 282 1637 C 293 1648 305 1657 317 1665 C 329 1673 340 1677 348 1677 C 357 1677 368 1673 380 1665 C 392 1657 404 1648 415 1637 C 426 1625 435 1613 443 1601 C 451 1589 455 1578 455 1569 Z" unicode="" />
<glyph horiz-adv-x="506" d="M 352 0 L 154 0 L 154 1307 L 352 1307 L 352 0 Z M 436 1513 L 309 1458 C 255 1490 205 1523 157 1559 C 109 1595 65 1635 23 1681 C 13 1690 5 1700 0 1710 C -6 1720 -10 1729 -10 1737 C -10 1744 -6 1753 1 1765 C 8 1776 17 1787 27 1797 C 37 1807 48 1816 60 1824 C 72 1831 82 1835 90 1835 C 98 1835 108 1831 121 1825 C 134 1818 145 1808 154 1796 C 172 1770 192 1744 216 1718 C 240 1691 264 1665 289 1641 C 314 1616 339 1593 365 1571 C 390 1549 414 1529 436 1513 Z" unicode="" />
<glyph horiz-adv-x="506" d="M 352 0 L 154 0 L 154 1307 L 352 1307 L 352 0 Z M 516 1739 C 516 1732 512 1724 506 1716 C 500 1707 492 1698 483 1688 C 439 1641 394 1599 346 1563 C 298 1526 247 1491 193 1458 L 76 1509 C 98 1526 122 1546 148 1569 C 173 1591 198 1615 223 1641 C 248 1666 272 1692 296 1719 C 319 1745 340 1772 358 1798 C 366 1809 377 1818 389 1825 C 401 1831 411 1835 420 1835 C 428 1835 437 1831 448 1824 C 459 1816 470 1807 480 1797 C 490 1787 498 1776 505 1765 C 512 1754 516 1745 516 1739 Z" unicode="" />
<glyph horiz-adv-x="506" d="M 352 0 L 154 0 L 154 1307 L 352 1307 L 352 0 Z M 606 1513 L 479 1458 C 439 1481 400 1506 360 1534 C 320 1561 284 1590 250 1620 C 216 1590 180 1561 144 1534 C 108 1506 70 1481 31 1458 L -86 1509 C -64 1525 -40 1545 -15 1567 C 10 1589 35 1613 61 1639 C 86 1664 110 1690 134 1717 C 157 1744 178 1770 197 1796 C 205 1808 215 1818 228 1825 C 241 1831 252 1835 260 1835 C 268 1835 278 1831 291 1825 C 304 1818 315 1808 324 1796 C 342 1770 362 1744 386 1718 C 410 1691 434 1665 459 1641 C 484 1616 509 1593 535 1571 C 560 1549 584 1529 606 1513 Z" unicode="" />
<glyph horiz-adv-x="506" d="M 352 0 L 154 0 L 154 1307 L 352 1307 L 352 0 Z M 518 1569 C 518 1561 514 1550 506 1538 C 498 1526 489 1514 478 1503 C 467 1491 456 1482 444 1474 C 432 1466 421 1462 412 1462 C 402 1462 391 1466 379 1474 C 367 1482 355 1491 344 1503 C 333 1514 324 1526 316 1538 C 308 1550 305 1561 305 1569 C 305 1578 308 1589 316 1601 C 324 1613 333 1625 344 1637 C 355 1648 367 1657 379 1665 C 391 1673 402 1677 412 1677 C 421 1677 432 1673 444 1665 C 456 1657 467 1648 478 1637 C 489 1625 498 1613 506 1601 C 514 1589 518 1578 518 1569 Z M 205 1569 C 205 1561 201 1550 193 1538 C 185 1526 176 1514 165 1503 C 154 1491 142 1482 130 1474 C 118 1466 107 1462 98 1462 C 90 1462 80 1466 68 1474 C 56 1482 44 1491 33 1503 C 21 1514 12 1526 4 1538 C -4 1550 -8 1561 -8 1569 C -8 1578 -4 1589 4 1601 C 12 1613 21 1625 33 1637 C 44 1648 56 1657 68 1665 C 80 1673 90 1677 98 1677 C 107 1677 118 1673 130 1665 C 142 1657 154 1648 165 1637 C 176 1625 185 1613 193 1601 C 201 1589 205 1578 205 1569 Z" unicode="" />
<glyph horiz-adv-x="1370" d="M 1288 653 C 1288 582 1279 517 1261 458 C 1243 398 1218 344 1186 296 C 1154 248 1115 205 1071 168 C 1027 131 978 100 926 75 C 874 50 818 31 760 19 C 702 6 642 0 582 0 L 180 0 L 180 582 L 20 582 L 20 731 L 180 731 L 180 1307 L 582 1307 C 642 1307 702 1300 760 1288 C 818 1275 874 1256 926 1231 C 978 1206 1027 1175 1071 1138 C 1115 1101 1154 1058 1186 1010 C 1218 961 1243 907 1261 847 C 1279 787 1288 723 1288 653 Z M 1085 651 C 1085 733 1070 805 1042 866 C 1014 927 975 978 926 1018 C 877 1058 820 1087 755 1107 C 690 1127 621 1137 547 1137 L 381 1137 L 381 731 L 635 731 L 604 582 L 381 582 L 381 166 L 547 166 C 621 166 690 175 755 195 C 820 214 877 244 926 284 C 975 324 1014 374 1042 435 C 1070 495 1085 567 1085 651 Z" unicode="" />
<glyph horiz-adv-x="1438" d="M 1305 -29 L 1245 -29 L 633 641 C 608 667 583 695 557 725 C 531 754 505 783 479 813 C 453 843 428 872 403 901 C 378 930 354 958 332 985 L 328 983 C 330 923 331 865 331 811 C 331 757 332 705 332 655 L 332 0 L 133 0 L 133 1307 L 270 1307 L 831 692 C 849 670 870 647 894 621 C 918 595 942 568 967 540 C 991 512 1016 485 1040 457 C 1064 429 1086 403 1106 379 L 1110 381 C 1108 431 1106 482 1106 536 C 1106 590 1106 640 1106 688 L 1106 1307 L 1305 1307 L 1305 -29 Z M 1085 1755 C 1071 1729 1053 1702 1032 1673 C 1010 1643 988 1616 966 1591 C 943 1566 921 1545 899 1528 C 877 1511 859 1503 844 1503 C 828 1503 810 1507 790 1516 C 770 1525 750 1535 731 1546 C 711 1557 693 1567 676 1577 C 658 1586 645 1591 635 1591 C 624 1591 612 1586 600 1576 C 587 1566 575 1555 563 1542 C 551 1529 539 1516 529 1502 C 519 1488 510 1476 504 1468 L 375 1526 C 389 1550 406 1577 428 1607 C 449 1637 471 1664 494 1689 C 516 1714 538 1735 560 1752 C 582 1769 600 1778 616 1778 C 632 1778 650 1773 670 1764 C 690 1754 709 1744 729 1733 C 749 1722 767 1712 784 1703 C 801 1694 815 1690 825 1690 C 835 1690 847 1694 860 1704 C 872 1714 885 1725 897 1738 C 909 1751 920 1764 930 1778 C 940 1792 949 1803 956 1812 L 1085 1755 Z" unicode="" />
<glyph horiz-adv-x="1548" d="M 1466 655 C 1466 584 1457 518 1439 457 C 1421 396 1396 340 1364 290 C 1332 240 1294 195 1250 156 C 1206 116 1159 83 1108 57 C 1056 30 1002 10 946 -4 C 889 -18 832 -25 774 -25 C 716 -25 658 -18 602 -4 C 545 10 491 30 440 57 C 388 83 341 116 297 156 C 253 195 216 240 184 290 C 152 340 127 396 109 457 C 91 518 82 584 82 655 C 82 725 91 790 109 851 C 127 911 152 967 184 1017 C 216 1067 253 1112 297 1151 C 341 1190 388 1223 440 1250 C 491 1277 545 1298 602 1312 C 658 1326 716 1333 774 1333 C 832 1333 889 1326 946 1312 C 1002 1298 1056 1277 1108 1250 C 1159 1223 1206 1190 1250 1151 C 1294 1112 1332 1067 1364 1017 C 1396 967 1421 911 1439 851 C 1457 790 1466 725 1466 655 Z M 1266 651 C 1266 731 1251 803 1222 866 C 1193 929 1155 982 1109 1025 C 1062 1068 1009 1101 951 1123 C 892 1145 833 1157 774 1157 C 713 1157 653 1145 595 1123 C 536 1101 483 1068 437 1025 C 391 982 353 929 325 866 C 297 803 283 731 283 651 C 283 570 297 498 325 435 C 353 372 391 319 437 276 C 483 232 536 199 595 177 C 653 154 713 143 774 143 C 833 143 892 154 951 177 C 1009 199 1062 232 1109 276 C 1155 319 1193 372 1222 435 C 1251 498 1266 570 1266 651 Z M 948 1513 L 821 1458 C 767 1490 717 1523 669 1559 C 621 1595 577 1635 535 1681 C 525 1690 517 1700 511 1710 C 505 1720 502 1729 502 1737 C 502 1744 505 1753 513 1765 C 520 1776 529 1787 539 1797 C 549 1807 560 1816 572 1824 C 584 1831 594 1835 602 1835 C 610 1835 620 1831 633 1825 C 646 1818 657 1808 666 1796 C 684 1770 704 1744 728 1718 C 752 1691 776 1665 801 1641 C 826 1616 851 1593 877 1571 C 902 1549 926 1529 948 1513 Z" unicode="" />
<glyph horiz-adv-x="1548" d="M 1466 655 C 1466 584 1457 518 1439 457 C 1421 396 1396 340 1364 290 C 1332 240 1294 195 1250 156 C 1206 116 1159 83 1108 57 C 1056 30 1002 10 946 -4 C 889 -18 832 -25 774 -25 C 716 -25 658 -18 602 -4 C 545 10 491 30 440 57 C 388 83 341 116 297 156 C 253 195 216 240 184 290 C 152 340 127 396 109 457 C 91 518 82 584 82 655 C 82 725 91 790 109 851 C 127 911 152 967 184 1017 C 216 1067 253 1112 297 1151 C 341 1190 388 1223 440 1250 C 491 1277 545 1298 602 1312 C 658 1326 716 1333 774 1333 C 832 1333 889 1326 946 1312 C 1002 1298 1056 1277 1108 1250 C 1159 1223 1206 1190 1250 1151 C 1294 1112 1332 1067 1364 1017 C 1396 967 1421 911 1439 851 C 1457 790 1466 725 1466 655 Z M 1266 651 C 1266 731 1251 803 1222 866 C 1193 929 1155 982 1109 1025 C 1062 1068 1009 1101 951 1123 C 892 1145 833 1157 774 1157 C 713 1157 653 1145 595 1123 C 536 1101 483 1068 437 1025 C 391 982 353 929 325 866 C 297 803 283 731 283 651 C 283 570 297 498 325 435 C 353 372 391 319 437 276 C 483 232 536 199 595 177 C 653 154 713 143 774 143 C 833 143 892 154 951 177 C 1009 199 1062 232 1109 276 C 1155 319 1193 372 1222 435 C 1251 498 1266 570 1266 651 Z M 1034 1739 C 1034 1732 1030 1724 1024 1716 C 1018 1707 1010 1698 1001 1688 C 957 1641 912 1599 864 1563 C 816 1526 765 1491 711 1458 L 594 1509 C 616 1526 640 1546 666 1569 C 691 1591 716 1615 741 1641 C 766 1666 790 1692 814 1719 C 837 1745 858 1772 877 1798 C 885 1809 895 1818 907 1825 C 919 1831 930 1835 938 1835 C 946 1835 955 1831 966 1824 C 977 1816 988 1807 998 1797 C 1008 1787 1016 1776 1023 1765 C 1030 1754 1034 1745 1034 1739 Z" unicode="" />
<glyph horiz-adv-x="1548" d="M 1466 655 C 1466 584 1457 518 1439 457 C 1421 396 1396 340 1364 290 C 1332 240 1294 195 1250 156 C 1206 116 1159 83 1108 57 C 1056 30 1002 10 946 -4 C 889 -18 832 -25 774 -25 C 716 -25 658 -18 602 -4 C 545 10 491 30 440 57 C 388 83 341 116 297 156 C 253 195 216 240 184 290 C 152 340 127 396 109 457 C 91 518 82 584 82 655 C 82 725 91 790 109 851 C 127 911 152 967 184 1017 C 216 1067 253 1112 297 1151 C 341 1190 388 1223 440 1250 C 491 1277 545 1298 602 1312 C 658 1326 716 1333 774 1333 C 832 1333 889 1326 946 1312 C 1002 1298 1056 1277 1108 1250 C 1159 1223 1206 1190 1250 1151 C 1294 1112 1332 1067 1364 1017 C 1396 967 1421 911 1439 851 C 1457 790 1466 725 1466 655 Z M 1266 651 C 1266 731 1251 803 1222 866 C 1193 929 1155 982 1109 1025 C 1062 1068 1009 1101 951 1123 C 892 1145 833 1157 774 1157 C 713 1157 653 1145 595 1123 C 536 1101 483 1068 437 1025 C 391 982 353 929 325 866 C 297 803 283 731 283 651 C 283 570 297 498 325 435 C 353 372 391 319 437 276 C 483 232 536 199 595 177 C 653 154 713 143 774 143 C 833 143 892 154 951 177 C 1009 199 1062 232 1109 276 C 1155 319 1193 372 1222 435 C 1251 498 1266 570 1266 651 Z M 1118 1513 L 991 1458 C 951 1481 912 1506 872 1534 C 832 1561 796 1590 762 1620 C 728 1590 692 1561 656 1534 C 620 1506 582 1481 543 1458 L 426 1509 C 448 1525 471 1545 497 1567 C 522 1589 547 1613 573 1639 C 598 1664 622 1690 646 1717 C 669 1744 690 1770 709 1796 C 717 1808 727 1818 740 1825 C 753 1831 764 1835 772 1835 C 780 1835 790 1831 803 1825 C 816 1818 827 1808 836 1796 C 854 1770 874 1744 898 1718 C 922 1691 946 1665 971 1641 C 996 1616 1021 1593 1047 1571 C 1072 1549 1096 1529 1118 1513 Z" unicode="" />
<glyph horiz-adv-x="1548" d="M 1466 655 C 1466 584 1457 518 1439 457 C 1421 396 1396 340 1364 290 C 1332 240 1294 195 1250 156 C 1206 116 1159 83 1108 57 C 1056 30 1002 10 946 -4 C 889 -18 832 -25 774 -25 C 716 -25 658 -18 602 -4 C 545 10 491 30 440 57 C 388 83 341 116 297 156 C 253 195 216 240 184 290 C 152 340 127 396 109 457 C 91 518 82 584 82 655 C 82 725 91 790 109 851 C 127 911 152 967 184 1017 C 216 1067 253 1112 297 1151 C 341 1190 388 1223 440 1250 C 491 1277 545 1298 602 1312 C 658 1326 716 1333 774 1333 C 832 1333 889 1326 946 1312 C 1002 1298 1056 1277 1108 1250 C 1159 1223 1206 1190 1250 1151 C 1294 1112 1332 1067 1364 1017 C 1396 967 1421 911 1439 851 C 1457 790 1466 725 1466 655 Z M 1266 651 C 1266 731 1251 803 1222 866 C 1193 929 1155 982 1109 1025 C 1062 1068 1009 1101 951 1123 C 892 1145 833 1157 774 1157 C 713 1157 653 1145 595 1123 C 536 1101 483 1068 437 1025 C 391 982 353 929 325 866 C 297 803 283 731 283 651 C 283 570 297 498 325 435 C 353 372 391 319 437 276 C 483 232 536 199 595 177 C 653 154 713 143 774 143 C 833 143 892 154 951 177 C 1009 199 1062 232 1109 276 C 1155 319 1193 372 1222 435 C 1251 498 1266 570 1266 651 Z M 1149 1755 C 1135 1729 1117 1702 1096 1673 C 1074 1643 1052 1616 1030 1591 C 1007 1566 985 1545 963 1528 C 941 1511 922 1503 907 1503 C 891 1503 873 1507 853 1516 C 833 1525 814 1535 794 1546 C 774 1557 756 1567 739 1577 C 721 1586 708 1591 698 1591 C 687 1591 675 1586 663 1576 C 650 1566 638 1555 626 1542 C 614 1529 602 1516 592 1502 C 582 1488 573 1476 567 1468 L 438 1526 C 452 1550 470 1577 491 1607 C 512 1637 534 1664 557 1689 C 580 1714 602 1735 624 1752 C 646 1769 664 1778 680 1778 C 696 1778 714 1773 734 1764 C 754 1754 773 1744 793 1733 C 813 1722 831 1712 848 1703 C 865 1694 879 1690 889 1690 C 899 1690 911 1694 923 1704 C 935 1714 948 1725 960 1738 C 972 1751 983 1764 994 1778 C 1004 1792 1013 1803 1020 1812 L 1149 1755 Z" unicode="" />
<glyph horiz-adv-x="1548" d="M 1466 655 C 1466 584 1457 518 1439 457 C 1421 396 1396 340 1364 290 C 1332 240 1294 195 1250 156 C 1206 116 1159 83 1108 57 C 1056 30 1002 10 946 -4 C 889 -18 832 -25 774 -25 C 716 -25 658 -18 602 -4 C 545 10 491 30 440 57 C 388 83 341 116 297 156 C 253 195 216 240 184 290 C 152 340 127 396 109 457 C 91 518 82 584 82 655 C 82 725 91 790 109 851 C 127 911 152 967 184 1017 C 216 1067 253 1112 297 1151 C 341 1190 388 1223 440 1250 C 491 1277 545 1298 602 1312 C 658 1326 716 1333 774 1333 C 832 1333 889 1326 946 1312 C 1002 1298 1056 1277 1108 1250 C 1159 1223 1206 1190 1250 1151 C 1294 1112 1332 1067 1364 1017 C 1396 967 1421 911 1439 851 C 1457 790 1466 725 1466 655 Z M 1266 651 C 1266 731 1251 803 1222 866 C 1193 929 1155 982 1109 1025 C 1062 1068 1009 1101 951 1123 C 892 1145 833 1157 774 1157 C 713 1157 653 1145 595 1123 C 536 1101 483 1068 437 1025 C 391 982 353 929 325 866 C 297 803 283 731 283 651 C 283 570 297 498 325 435 C 353 372 391 319 437 276 C 483 232 536 199 595 177 C 653 154 713 143 774 143 C 833 143 892 154 951 177 C 1009 199 1062 232 1109 276 C 1155 319 1193 372 1222 435 C 1251 498 1266 570 1266 651 Z M 1036 1569 C 1036 1561 1032 1550 1024 1538 C 1016 1526 1007 1514 996 1503 C 985 1491 974 1482 962 1474 C 950 1466 939 1462 930 1462 C 920 1462 909 1466 897 1474 C 885 1482 873 1491 862 1503 C 851 1514 842 1526 834 1538 C 826 1550 823 1561 823 1569 C 823 1578 826 1589 834 1601 C 842 1613 851 1625 862 1637 C 873 1648 885 1657 897 1665 C 909 1673 920 1677 930 1677 C 939 1677 950 1673 962 1665 C 974 1657 985 1648 996 1637 C 1007 1625 1016 1613 1024 1601 C 1032 1589 1036 1578 1036 1569 Z M 723 1569 C 723 1561 719 1550 711 1538 C 703 1526 694 1514 683 1503 C 672 1491 660 1482 648 1474 C 636 1466 625 1462 616 1462 C 608 1462 598 1466 586 1474 C 574 1482 562 1491 551 1503 C 539 1514 530 1526 522 1538 C 514 1550 510 1561 510 1569 C 510 1578 514 1589 522 1601 C 530 1613 539 1625 551 1637 C 562 1648 574 1657 586 1665 C 598 1673 608 1677 616 1677 C 625 1677 636 1673 648 1665 C 660 1657 672 1648 683 1637 C 694 1625 703 1613 711 1601 C 719 1589 723 1578 723 1569 Z" unicode="" />
<glyph horiz-adv-x="958" d="M 813 313 L 727 227 L 483 471 L 240 225 L 152 313 L 395 557 L 154 799 L 242 887 L 483 643 L 725 885 L 811 799 L 569 557 L 813 313 Z" unicode="" />
<glyph horiz-adv-x="1548" d="M 1466 655 C 1466 584 1457 518 1439 457 C 1421 396 1396 340 1364 290 C 1332 240 1294 195 1250 156 C 1206 116 1159 83 1108 57 C 1056 30 1002 10 946 -4 C 889 -18 832 -25 774 -25 C 706 -25 639 -15 575 3 C 510 22 449 50 391 86 L 270 -66 L 180 10 L 297 156 C 265 184 235 216 209 252 C 182 288 159 327 141 369 C 122 411 107 455 97 503 C 87 551 82 601 82 655 C 82 725 91 790 109 851 C 127 911 152 967 184 1017 C 216 1067 253 1112 297 1151 C 341 1190 388 1223 440 1250 C 491 1277 545 1298 602 1312 C 658 1326 716 1333 774 1333 C 842 1333 908 1323 974 1305 C 1039 1286 1101 1259 1159 1223 L 1280 1372 L 1370 1296 L 1251 1151 C 1283 1121 1312 1089 1339 1053 C 1365 1017 1388 979 1407 937 C 1425 895 1440 851 1450 804 C 1460 756 1466 707 1466 655 Z M 1266 651 C 1266 725 1253 792 1229 850 C 1205 908 1173 959 1133 1001 L 504 223 C 545 196 588 176 634 163 C 680 149 726 143 774 143 C 833 143 892 154 951 177 C 1009 199 1062 232 1109 276 C 1155 319 1193 372 1222 435 C 1251 498 1266 570 1266 651 Z M 1042 1077 C 1001 1103 958 1123 912 1137 C 866 1150 820 1157 774 1157 C 713 1157 653 1145 595 1123 C 536 1101 483 1068 437 1025 C 391 982 353 929 325 866 C 297 803 283 731 283 651 C 283 577 294 510 318 452 C 342 393 374 342 414 299 L 1042 1077 Z" unicode="" />
<glyph horiz-adv-x="1331" d="M 1198 461 C 1198 385 1184 316 1158 256 C 1131 196 1094 145 1046 103 C 998 61 942 30 877 8 C 812 -14 742 -25 666 -25 C 589 -25 518 -14 453 8 C 388 30 332 61 284 103 C 236 145 199 196 173 256 C 146 316 133 385 133 461 L 133 1307 L 332 1307 L 332 481 C 332 432 338 387 352 347 C 366 307 386 272 414 243 C 442 214 477 192 519 176 C 561 160 610 152 668 152 C 724 152 774 160 816 176 C 858 192 894 214 922 243 C 950 272 971 307 985 347 C 999 387 1006 432 1006 481 L 1006 1307 L 1198 1307 L 1198 461 Z M 854 1513 L 727 1458 C 673 1490 623 1523 575 1559 C 527 1595 482 1635 440 1681 C 430 1690 423 1700 417 1710 C 411 1720 408 1729 408 1737 C 408 1744 411 1753 419 1765 C 426 1776 435 1787 445 1797 C 455 1807 466 1816 478 1824 C 490 1831 500 1835 508 1835 C 516 1835 526 1831 539 1825 C 552 1818 563 1808 571 1796 C 589 1770 610 1744 634 1718 C 657 1691 681 1665 707 1641 C 732 1616 757 1593 783 1571 C 808 1549 832 1529 854 1513 Z" unicode="" />
<glyph horiz-adv-x="1331" d="M 1198 461 C 1198 385 1184 316 1158 256 C 1131 196 1094 145 1046 103 C 998 61 942 30 877 8 C 812 -14 742 -25 666 -25 C 589 -25 518 -14 453 8 C 388 30 332 61 284 103 C 236 145 199 196 173 256 C 146 316 133 385 133 461 L 133 1307 L 332 1307 L 332 481 C 332 432 338 387 352 347 C 366 307 386 272 414 243 C 442 214 477 192 519 176 C 561 160 610 152 668 152 C 724 152 774 160 816 176 C 858 192 894 214 922 243 C 950 272 971 307 985 347 C 999 387 1006 432 1006 481 L 1006 1307 L 1198 1307 L 1198 461 Z M 934 1739 C 934 1732 930 1724 924 1716 C 918 1707 910 1698 901 1688 C 857 1641 812 1599 764 1563 C 716 1526 664 1491 610 1458 L 494 1509 C 516 1526 540 1546 565 1569 C 590 1591 615 1615 640 1641 C 665 1666 689 1692 713 1719 C 736 1745 757 1772 776 1798 C 784 1809 795 1818 807 1825 C 819 1831 829 1835 838 1835 C 845 1835 854 1831 865 1824 C 876 1816 887 1807 897 1797 C 907 1787 915 1776 923 1765 C 930 1754 934 1745 934 1739 Z" unicode="" />
<glyph horiz-adv-x="1331" d="M 1198 461 C 1198 385 1184 316 1158 256 C 1131 196 1094 145 1046 103 C 998 61 942 30 877 8 C 812 -14 742 -25 666 -25 C 589 -25 518 -14 453 8 C 388 30 332 61 284 103 C 236 145 199 196 173 256 C 146 316 133 385 133 461 L 133 1307 L 332 1307 L 332 481 C 332 432 338 387 352 347 C 366 307 386 272 414 243 C 442 214 477 192 519 176 C 561 160 610 152 668 152 C 724 152 774 160 816 176 C 858 192 894 214 922 243 C 950 272 971 307 985 347 C 999 387 1006 432 1006 481 L 1006 1307 L 1198 1307 L 1198 461 Z M 1020 1513 L 893 1458 C 853 1481 814 1506 774 1534 C 734 1561 698 1590 664 1620 C 630 1590 594 1561 558 1534 C 521 1506 483 1481 444 1458 L 328 1509 C 350 1525 373 1545 399 1567 C 424 1589 449 1613 474 1639 C 499 1664 523 1690 547 1717 C 571 1744 592 1770 610 1796 C 618 1808 629 1818 642 1825 C 654 1831 665 1835 674 1835 C 682 1835 692 1831 705 1825 C 718 1818 729 1808 737 1796 C 755 1770 776 1744 800 1718 C 823 1691 847 1665 873 1641 C 898 1616 923 1593 949 1571 C 974 1549 998 1529 1020 1513 Z" unicode="" />
<glyph horiz-adv-x="1331" d="M 1198 461 C 1198 385 1184 316 1158 256 C 1131 196 1094 145 1046 103 C 998 61 942 30 877 8 C 812 -14 742 -25 666 -25 C 589 -25 518 -14 453 8 C 388 30 332 61 284 103 C 236 145 199 196 173 256 C 146 316 133 385 133 461 L 133 1307 L 332 1307 L 332 481 C 332 432 338 387 352 347 C 366 307 386 272 414 243 C 442 214 477 192 519 176 C 561 160 610 152 668 152 C 724 152 774 160 816 176 C 858 192 894 214 922 243 C 950 272 971 307 985 347 C 999 387 1006 432 1006 481 L 1006 1307 L 1198 1307 L 1198 461 Z M 944 1569 C 944 1561 940 1550 932 1538 C 924 1526 915 1514 904 1503 C 893 1491 881 1482 869 1474 C 857 1466 846 1462 838 1462 C 828 1462 817 1466 805 1474 C 793 1482 781 1491 770 1503 C 759 1514 750 1526 742 1538 C 734 1550 731 1561 731 1569 C 731 1578 734 1589 742 1601 C 750 1613 759 1625 770 1637 C 781 1648 793 1657 805 1665 C 817 1673 828 1677 838 1677 C 846 1677 857 1673 869 1665 C 881 1657 893 1648 904 1637 C 915 1625 924 1613 932 1601 C 940 1589 944 1578 944 1569 Z M 631 1569 C 631 1561 627 1550 619 1538 C 611 1526 602 1514 591 1503 C 580 1491 568 1482 556 1474 C 544 1466 533 1462 524 1462 C 516 1462 506 1466 494 1474 C 482 1482 470 1491 459 1503 C 447 1514 438 1526 430 1538 C 422 1550 418 1561 418 1569 C 418 1578 422 1589 430 1601 C 438 1613 447 1625 459 1637 C 470 1648 482 1657 494 1665 C 506 1673 516 1677 524 1677 C 533 1677 544 1673 556 1665 C 568 1657 580 1648 591 1637 C 602 1625 611 1613 619 1601 C 627 1589 631 1578 631 1569 Z" unicode="" />
<glyph horiz-adv-x="1278" d="M 1237 1307 L 735 602 L 735 0 L 541 0 L 541 602 L 41 1307 L 258 1307 L 520 938 C 539 910 560 879 582 846 C 604 813 624 782 643 754 L 647 754 C 656 768 666 783 677 799 C 687 815 698 832 709 848 C 720 864 731 880 742 896 C 752 911 762 925 772 938 L 1034 1307 L 1237 1307 Z M 934 1739 C 934 1732 930 1724 924 1716 C 918 1707 910 1698 901 1688 C 857 1641 812 1599 764 1563 C 716 1526 664 1491 610 1458 L 494 1509 C 516 1526 540 1546 565 1569 C 590 1591 615 1615 640 1641 C 665 1666 689 1692 713 1719 C 736 1745 757 1772 776 1798 C 784 1809 795 1818 807 1825 C 819 1831 829 1835 838 1835 C 845 1835 854 1831 865 1824 C 876 1816 887 1807 897 1797 C 907 1787 915 1776 923 1765 C 930 1754 934 1745 934 1739 Z" unicode="" />
<glyph horiz-adv-x="991" d="M 920 788 C 920 726 908 672 884 626 C 860 580 830 542 792 512 C 754 482 712 459 665 444 C 618 429 572 422 526 422 L 330 422 L 330 0 L 133 0 L 133 1307 L 330 1307 L 330 1155 L 526 1155 C 572 1155 618 1147 665 1132 C 712 1117 754 1094 792 1064 C 830 1034 860 996 884 950 C 908 904 920 850 920 788 Z M 717 788 C 717 822 710 851 698 876 C 685 901 668 922 648 938 C 627 954 603 967 576 975 C 548 983 520 987 492 987 L 330 987 L 330 590 L 492 590 C 520 590 548 593 576 601 C 603 609 627 621 648 637 C 668 653 685 674 698 699 C 710 724 717 754 717 788 Z" unicode="" />
<glyph horiz-adv-x="1192" d="M 1120 254 C 1120 216 1113 181 1099 147 C 1085 113 1064 84 1036 59 C 1008 33 972 13 930 -1 C 888 -15 838 -23 782 -23 C 754 -23 728 -21 702 -17 C 676 -13 651 -8 628 -2 C 604 4 583 12 564 20 C 544 28 528 37 514 47 L 514 225 C 548 200 587 179 633 161 C 678 143 729 135 786 135 C 830 135 865 145 893 166 C 920 187 934 214 934 246 C 934 278 922 305 900 326 C 877 347 844 365 801 381 C 755 397 714 416 678 436 C 642 456 612 478 588 502 C 564 526 545 553 533 583 C 520 613 514 646 514 684 C 514 722 521 758 537 791 C 553 823 574 852 601 876 C 627 900 658 919 694 933 C 730 947 768 954 809 956 C 813 973 815 988 817 1001 C 818 1014 819 1028 819 1044 C 819 1076 813 1108 801 1140 C 789 1171 773 1199 751 1223 C 729 1247 703 1266 673 1281 C 642 1295 607 1303 569 1303 C 504 1303 454 1281 418 1238 C 382 1194 365 1131 365 1047 L 365 0 L 178 0 L 178 778 L 20 778 L 20 928 L 178 928 L 178 1057 C 178 1122 187 1180 205 1230 C 223 1280 248 1321 282 1355 C 316 1389 357 1414 405 1432 C 453 1449 507 1458 567 1458 C 629 1458 687 1448 741 1430 C 794 1411 840 1383 878 1346 C 916 1309 946 1263 968 1208 C 990 1152 1001 1088 1001 1016 C 1001 1000 1000 984 999 966 C 997 948 995 931 993 913 C 990 895 987 877 984 861 C 980 844 977 829 973 815 C 885 815 817 805 768 785 C 718 765 694 733 694 690 C 694 660 705 637 727 619 C 749 601 783 583 829 567 C 875 550 917 532 953 512 C 989 492 1020 470 1045 446 C 1069 421 1088 393 1101 362 C 1113 330 1120 294 1120 254 Z" unicode="" />
<glyph horiz-adv-x="905" d="M 885 96 L 766 -23 C 750 -19 734 -12 718 -4 C 702 3 687 14 673 26 C 659 38 648 53 638 69 C 628 85 622 103 618 123 C 607 95 593 72 576 54 C 558 35 539 20 518 9 C 496 -2 473 -10 448 -15 C 423 -20 397 -23 371 -23 C 325 -23 283 -15 246 0 C 209 16 178 37 152 63 C 126 89 106 120 92 154 C 78 188 72 224 72 262 C 72 306 80 346 97 382 C 114 417 137 447 165 472 C 193 497 226 517 263 532 C 299 546 337 555 377 559 L 594 580 L 594 639 C 594 659 590 679 584 698 C 578 716 567 732 553 746 C 539 760 520 771 497 779 C 474 787 446 791 414 791 C 368 791 322 784 277 771 C 231 757 192 739 158 717 L 121 870 C 163 898 209 918 261 931 C 313 943 367 950 424 950 C 476 950 523 942 567 928 C 610 914 647 892 679 864 C 711 836 735 801 753 759 C 771 717 780 668 780 614 L 780 240 C 780 198 790 164 810 140 C 830 116 855 101 885 96 Z M 594 344 L 594 426 L 416 410 C 386 407 360 401 339 391 C 318 381 301 370 288 356 C 274 342 265 327 259 310 C 253 293 250 276 250 260 C 250 244 253 228 259 213 C 265 197 275 184 287 173 C 299 161 313 152 330 145 C 346 138 365 135 387 135 C 415 135 441 140 466 150 C 491 160 513 174 532 192 C 551 210 566 232 577 258 C 588 284 594 312 594 344 Z M 567 1126 L 459 1079 C 413 1106 370 1135 330 1165 C 289 1195 251 1230 215 1270 C 207 1278 200 1286 194 1295 C 188 1303 186 1311 186 1317 C 186 1323 189 1330 195 1340 C 201 1349 209 1358 218 1367 C 227 1375 236 1383 246 1389 C 256 1395 264 1399 272 1399 C 279 1399 288 1396 299 1390 C 309 1384 318 1376 326 1366 C 342 1344 360 1322 380 1300 C 400 1277 420 1255 442 1234 C 463 1213 484 1193 506 1175 C 528 1156 548 1140 567 1126 Z" unicode="" />
<glyph horiz-adv-x="905" d="M 885 96 L 766 -23 C 750 -19 734 -12 718 -4 C 702 3 687 14 673 26 C 659 38 648 53 638 69 C 628 85 622 103 618 123 C 607 95 593 72 576 54 C 558 35 539 20 518 9 C 496 -2 473 -10 448 -15 C 423 -20 397 -23 371 -23 C 325 -23 283 -15 246 0 C 209 16 178 37 152 63 C 126 89 106 120 92 154 C 78 188 72 224 72 262 C 72 306 80 346 97 382 C 114 417 137 447 165 472 C 193 497 226 517 263 532 C 299 546 337 555 377 559 L 594 580 L 594 639 C 594 659 590 679 584 698 C 578 716 567 732 553 746 C 539 760 520 771 497 779 C 474 787 446 791 414 791 C 368 791 322 784 277 771 C 231 757 192 739 158 717 L 121 870 C 163 898 209 918 261 931 C 313 943 367 950 424 950 C 476 950 523 942 567 928 C 610 914 647 892 679 864 C 711 836 735 801 753 759 C 771 717 780 668 780 614 L 780 240 C 780 198 790 164 810 140 C 830 116 855 101 885 96 Z M 594 344 L 594 426 L 416 410 C 386 407 360 401 339 391 C 318 381 301 370 288 356 C 274 342 265 327 259 310 C 253 293 250 276 250 260 C 250 244 253 228 259 213 C 265 197 275 184 287 173 C 299 161 313 152 330 145 C 346 138 365 135 387 135 C 415 135 441 140 466 150 C 491 160 513 174 532 192 C 551 210 566 232 577 258 C 588 284 594 312 594 344 Z M 664 1317 C 664 1311 661 1305 656 1297 C 651 1289 645 1282 637 1274 C 599 1234 560 1199 519 1168 C 478 1136 435 1107 389 1079 L 291 1122 C 309 1136 329 1153 351 1173 C 373 1192 394 1212 415 1234 C 436 1256 456 1278 476 1301 C 496 1323 514 1346 530 1368 C 537 1378 546 1386 557 1391 C 567 1396 576 1399 584 1399 C 590 1399 597 1395 606 1389 C 615 1383 624 1375 633 1367 C 641 1358 649 1349 655 1340 C 661 1330 664 1323 664 1317 Z" unicode="" />
<glyph horiz-adv-x="905" d="M 885 96 L 766 -23 C 750 -19 734 -12 718 -4 C 702 3 687 14 673 26 C 659 38 648 53 638 69 C 628 85 622 103 618 123 C 607 95 593 72 576 54 C 558 35 539 20 518 9 C 496 -2 473 -10 448 -15 C 423 -20 397 -23 371 -23 C 325 -23 283 -15 246 0 C 209 16 178 37 152 63 C 126 89 106 120 92 154 C 78 188 72 224 72 262 C 72 306 80 346 97 382 C 114 417 137 447 165 472 C 193 497 226 517 263 532 C 299 546 337 555 377 559 L 594 580 L 594 639 C 594 659 590 679 584 698 C 578 716 567 732 553 746 C 539 760 520 771 497 779 C 474 787 446 791 414 791 C 368 791 322 784 277 771 C 231 757 192 739 158 717 L 121 870 C 163 898 209 918 261 931 C 313 943 367 950 424 950 C 476 950 523 942 567 928 C 610 914 647 892 679 864 C 711 836 735 801 753 759 C 771 717 780 668 780 614 L 780 240 C 780 198 790 164 810 140 C 830 116 855 101 885 96 Z M 594 344 L 594 426 L 416 410 C 386 407 360 401 339 391 C 318 381 301 370 288 356 C 274 342 265 327 259 310 C 253 293 250 276 250 260 C 250 244 253 228 259 213 C 265 197 275 184 287 173 C 299 161 313 152 330 145 C 346 138 365 135 387 135 C 415 135 441 140 466 150 C 491 160 513 174 532 192 C 551 210 566 232 577 258 C 588 284 594 312 594 344 Z M 725 1126 L 616 1079 C 583 1099 550 1121 516 1144 C 482 1167 450 1191 422 1217 C 393 1191 363 1167 333 1144 C 302 1121 270 1099 236 1079 L 137 1122 C 155 1136 175 1153 197 1172 C 218 1191 239 1211 261 1233 C 283 1255 304 1277 324 1300 C 344 1322 361 1344 377 1366 C 384 1376 393 1384 404 1391 C 415 1397 424 1401 430 1401 C 437 1401 446 1397 457 1391 C 468 1384 477 1376 485 1366 C 500 1344 518 1322 538 1300 C 558 1277 578 1255 600 1234 C 622 1213 643 1193 665 1175 C 686 1156 706 1140 725 1126 Z" unicode="" />
<glyph horiz-adv-x="905" d="M 885 96 L 766 -23 C 750 -19 734 -12 718 -4 C 702 3 687 14 673 26 C 659 38 648 53 638 69 C 628 85 622 103 618 123 C 607 95 593 72 576 54 C 558 35 539 20 518 9 C 496 -2 473 -10 448 -15 C 423 -20 397 -23 371 -23 C 325 -23 283 -15 246 0 C 209 16 178 37 152 63 C 126 89 106 120 92 154 C 78 188 72 224 72 262 C 72 306 80 346 97 382 C 114 417 137 447 165 472 C 193 497 226 517 263 532 C 299 546 337 555 377 559 L 594 580 L 594 639 C 594 659 590 679 584 698 C 578 716 567 732 553 746 C 539 760 520 771 497 779 C 474 787 446 791 414 791 C 368 791 322 784 277 771 C 231 757 192 739 158 717 L 121 870 C 163 898 209 918 261 931 C 313 943 367 950 424 950 C 476 950 523 942 567 928 C 610 914 647 892 679 864 C 711 836 735 801 753 759 C 771 717 780 668 780 614 L 780 240 C 780 198 790 164 810 140 C 830 116 855 101 885 96 Z M 594 344 L 594 426 L 416 410 C 386 407 360 401 339 391 C 318 381 301 370 288 356 C 274 342 265 327 259 310 C 253 293 250 276 250 260 C 250 244 253 228 259 213 C 265 197 275 184 287 173 C 299 161 313 152 330 145 C 346 138 365 135 387 135 C 415 135 441 140 466 150 C 491 160 513 174 532 192 C 551 210 566 232 577 258 C 588 284 594 312 594 344 Z M 745 1331 C 733 1309 718 1286 700 1262 C 682 1237 664 1214 645 1193 C 625 1171 606 1153 588 1139 C 570 1125 554 1118 541 1118 C 527 1118 512 1121 495 1129 C 478 1137 461 1145 444 1155 C 427 1164 411 1172 397 1180 C 382 1188 370 1192 362 1192 C 352 1192 342 1188 332 1180 C 322 1172 312 1162 302 1151 C 292 1139 282 1128 273 1116 C 264 1104 257 1095 252 1087 L 141 1137 C 153 1158 168 1181 186 1206 C 204 1231 223 1254 243 1276 C 262 1298 281 1316 300 1330 C 318 1344 334 1352 348 1352 C 361 1352 376 1348 393 1340 C 410 1332 427 1323 444 1314 C 460 1304 476 1296 490 1288 C 504 1280 516 1276 524 1276 C 533 1276 543 1280 554 1288 C 564 1296 575 1306 585 1317 C 595 1328 605 1339 614 1351 C 623 1363 631 1372 637 1380 L 745 1331 Z" unicode="" />
<glyph horiz-adv-x="905" d="M 885 96 L 766 -23 C 750 -19 734 -12 718 -4 C 702 3 687 14 673 26 C 659 38 648 53 638 69 C 628 85 622 103 618 123 C 607 95 593 72 576 54 C 558 35 539 20 518 9 C 496 -2 473 -10 448 -15 C 423 -20 397 -23 371 -23 C 325 -23 283 -15 246 0 C 209 16 178 37 152 63 C 126 89 106 120 92 154 C 78 188 72 224 72 262 C 72 306 80 346 97 382 C 114 417 137 447 165 472 C 193 497 226 517 263 532 C 299 546 337 555 377 559 L 594 580 L 594 639 C 594 659 590 679 584 698 C 578 716 567 732 553 746 C 539 760 520 771 497 779 C 474 787 446 791 414 791 C 368 791 322 784 277 771 C 231 757 192 739 158 717 L 121 870 C 163 898 209 918 261 931 C 313 943 367 950 424 950 C 476 950 523 942 567 928 C 610 914 647 892 679 864 C 711 836 735 801 753 759 C 771 717 780 668 780 614 L 780 240 C 780 198 790 164 810 140 C 830 116 855 101 885 96 Z M 594 344 L 594 426 L 416 410 C 386 407 360 401 339 391 C 318 381 301 370 288 356 C 274 342 265 327 259 310 C 253 293 250 276 250 260 C 250 244 253 228 259 213 C 265 197 275 184 287 173 C 299 161 313 152 330 145 C 346 138 365 135 387 135 C 415 135 441 140 466 150 C 491 160 513 174 532 192 C 551 210 566 232 577 258 C 588 284 594 312 594 344 Z M 649 1174 C 649 1166 645 1157 639 1147 C 633 1137 625 1127 616 1117 C 606 1107 596 1099 586 1093 C 576 1086 567 1083 559 1083 C 551 1083 541 1086 531 1093 C 521 1099 511 1107 502 1117 C 492 1127 484 1137 478 1147 C 472 1157 469 1166 469 1174 C 469 1181 472 1190 478 1201 C 484 1211 492 1221 502 1231 C 511 1241 521 1249 531 1256 C 541 1262 551 1266 559 1266 C 567 1266 576 1262 586 1256 C 596 1249 606 1241 616 1231 C 625 1221 633 1211 639 1201 C 645 1190 649 1181 649 1174 Z M 383 1174 C 383 1166 379 1157 373 1147 C 367 1137 359 1127 350 1117 C 340 1107 330 1099 320 1093 C 310 1086 301 1083 293 1083 C 285 1083 276 1086 266 1093 C 256 1099 246 1107 237 1117 C 227 1127 219 1137 213 1147 C 206 1157 203 1166 203 1174 C 203 1181 206 1190 213 1201 C 219 1211 227 1221 237 1231 C 246 1241 256 1249 266 1256 C 276 1262 285 1266 293 1266 C 301 1266 310 1262 320 1256 C 330 1249 340 1241 350 1231 C 359 1221 367 1211 373 1201 C 379 1190 383 1181 383 1174 Z" unicode="" />
<glyph horiz-adv-x="905" d="M 885 96 L 766 -23 C 750 -19 734 -12 718 -4 C 702 3 687 14 673 26 C 659 38 648 53 638 69 C 628 85 622 103 618 123 C 607 95 593 72 576 54 C 558 35 539 20 518 9 C 496 -2 473 -10 448 -15 C 423 -20 397 -23 371 -23 C 325 -23 283 -15 246 0 C 209 16 178 37 152 63 C 126 89 106 120 92 154 C 78 188 72 224 72 262 C 72 306 80 346 97 382 C 114 417 137 447 165 472 C 193 497 226 517 263 532 C 299 546 337 555 377 559 L 594 580 L 594 639 C 594 659 590 679 584 698 C 578 716 567 732 553 746 C 539 760 520 771 497 779 C 474 787 446 791 414 791 C 368 791 322 784 277 771 C 231 757 192 739 158 717 L 121 870 C 163 898 209 918 261 931 C 313 943 367 950 424 950 C 476 950 523 942 567 928 C 610 914 647 892 679 864 C 711 836 735 801 753 759 C 771 717 780 668 780 614 L 780 240 C 780 198 790 164 810 140 C 830 116 855 101 885 96 Z M 594 344 L 594 426 L 416 410 C 386 407 360 401 339 391 C 318 381 301 370 288 356 C 274 342 265 327 259 310 C 253 293 250 276 250 260 C 250 244 253 228 259 213 C 265 197 275 184 287 173 C 299 161 313 152 330 145 C 346 138 365 135 387 135 C 415 135 441 140 466 150 C 491 160 513 174 532 192 C 551 210 566 232 577 258 C 588 284 594 312 594 344 Z M 614 1262 C 614 1235 608 1210 598 1186 C 587 1162 573 1141 555 1123 C 537 1105 516 1090 492 1080 C 468 1070 442 1065 416 1065 C 389 1065 364 1070 340 1080 C 316 1090 295 1105 277 1123 C 259 1141 244 1162 234 1186 C 224 1210 219 1235 219 1262 C 219 1288 224 1314 234 1338 C 244 1362 259 1382 277 1400 C 295 1418 316 1432 340 1442 C 364 1452 389 1458 416 1458 C 442 1458 468 1452 492 1442 C 516 1432 537 1418 555 1400 C 573 1382 587 1362 598 1338 C 608 1314 614 1288 614 1262 Z M 502 1262 C 502 1290 494 1312 478 1329 C 462 1345 441 1354 416 1354 C 391 1354 370 1345 354 1329 C 338 1312 330 1290 330 1262 C 330 1234 338 1212 354 1195 C 370 1177 391 1169 416 1169 C 441 1169 462 1177 478 1195 C 494 1212 502 1234 502 1262 Z" unicode="" />
<glyph horiz-adv-x="1489" d="M 1417 598 C 1417 568 1415 542 1411 522 L 1307 418 L 748 418 C 749 389 757 358 771 326 C 785 294 806 264 833 236 C 860 208 894 186 935 168 C 975 150 1023 141 1077 141 C 1137 141 1188 148 1232 163 C 1276 177 1314 195 1348 217 L 1327 37 C 1294 19 1256 5 1212 -6 C 1168 -17 1115 -23 1053 -23 C 1016 -23 980 -19 944 -11 C 908 -3 875 7 843 21 C 811 35 781 53 754 74 C 726 95 703 119 684 147 C 666 116 646 90 623 69 C 599 47 574 30 547 16 C 519 2 491 -7 461 -13 C 431 -19 401 -23 371 -23 C 325 -23 283 -15 246 0 C 209 16 178 37 152 63 C 126 89 106 120 92 154 C 78 188 72 224 72 262 C 72 306 80 346 97 382 C 114 417 137 447 165 472 C 193 497 226 517 263 532 C 299 546 337 555 377 559 L 567 578 C 570 593 574 607 578 621 C 582 635 586 648 592 662 C 588 698 572 729 544 754 C 516 778 472 791 414 791 C 368 791 322 784 277 771 C 231 757 192 739 158 717 L 121 870 C 163 898 209 918 261 931 C 313 943 367 950 424 950 C 486 950 542 939 592 918 C 642 896 683 865 713 823 C 756 867 804 899 856 919 C 908 939 962 950 1016 950 C 1080 950 1136 939 1186 919 C 1236 898 1278 871 1312 838 C 1346 805 1372 767 1390 725 C 1408 683 1417 640 1417 598 Z M 1229 594 C 1229 616 1224 639 1214 663 C 1204 687 1191 708 1173 727 C 1155 745 1134 761 1109 773 C 1084 785 1056 791 1026 791 C 996 791 967 785 938 774 C 909 763 882 748 858 728 C 833 708 812 685 795 658 C 777 630 766 601 760 569 L 1227 569 C 1228 573 1229 578 1229 582 C 1229 586 1229 590 1229 594 Z M 586 287 C 577 307 570 329 566 351 C 562 373 559 397 557 422 L 416 410 C 386 407 361 401 340 391 C 319 381 302 370 289 356 C 275 342 265 327 259 310 C 253 293 250 276 250 260 C 250 244 253 228 259 213 C 265 197 275 184 287 173 C 299 161 313 152 330 145 C 346 138 365 135 387 135 C 409 135 431 138 453 146 C 474 153 493 163 511 176 C 529 189 544 205 557 224 C 570 242 580 263 586 287 Z" unicode="" />
<glyph horiz-adv-x="932" d="M 860 872 L 825 702 C 783 729 742 747 704 757 C 665 767 624 772 580 772 C 538 772 498 764 460 750 C 421 736 387 715 357 688 C 327 661 304 628 286 590 C 268 551 260 507 260 459 C 260 411 269 367 287 329 C 305 290 330 257 360 230 C 390 203 424 182 463 168 C 502 154 542 147 584 147 C 628 147 668 151 706 160 C 743 169 783 184 825 205 L 807 33 C 775 18 741 7 705 0 C 668 -6 629 -10 588 -12 L 580 -47 C 600 -47 620 -52 640 -61 C 660 -69 679 -81 695 -97 C 711 -112 725 -130 736 -152 C 746 -173 752 -197 752 -223 C 752 -253 746 -279 735 -301 C 723 -323 708 -341 690 -356 C 671 -371 650 -382 627 -390 C 604 -397 581 -401 559 -401 C 532 -401 508 -397 486 -389 C 464 -381 443 -371 424 -358 L 442 -270 C 458 -283 477 -292 498 -298 C 518 -304 539 -307 561 -307 C 571 -307 580 -305 590 -301 C 600 -297 608 -291 616 -284 C 624 -277 630 -269 634 -259 C 638 -249 641 -239 641 -227 C 641 -214 638 -203 633 -193 C 628 -183 622 -174 615 -168 C 607 -161 599 -156 591 -152 C 583 -148 575 -147 569 -147 C 540 -147 521 -140 513 -127 C 504 -114 502 -99 506 -82 L 522 -10 C 464 -5 407 9 353 33 C 299 57 251 89 209 129 C 167 169 134 218 109 274 C 84 330 72 393 72 463 C 72 537 86 604 114 663 C 142 722 179 772 225 813 C 271 854 324 885 384 907 C 443 929 504 940 567 940 C 627 940 681 934 729 922 C 777 910 820 893 860 872 Z" unicode="" />
<glyph horiz-adv-x="1006" d="M 934 598 C 934 568 932 542 928 522 L 823 418 L 264 418 C 265 389 273 358 287 326 C 301 294 322 264 350 236 C 377 208 411 186 452 168 C 492 150 540 141 594 141 C 654 141 705 148 749 163 C 793 177 831 195 864 217 L 844 37 C 810 19 772 5 728 -6 C 684 -17 631 -23 569 -23 C 503 -23 440 -11 380 12 C 320 36 267 69 221 112 C 175 154 139 205 112 265 C 85 325 72 391 72 463 C 72 515 78 564 91 608 C 103 652 121 693 143 729 C 165 765 191 796 221 824 C 251 852 283 875 317 894 C 351 912 386 926 423 936 C 459 945 496 950 532 950 C 596 950 653 939 703 919 C 753 898 795 871 829 838 C 863 805 889 767 907 725 C 925 683 934 640 934 598 Z M 745 594 C 745 616 740 639 730 663 C 720 687 707 708 690 727 C 672 745 651 761 626 773 C 601 785 573 791 543 791 C 513 791 484 785 455 774 C 426 763 399 748 375 728 C 350 708 329 685 311 658 C 293 630 282 601 276 569 L 743 569 C 744 573 745 578 745 582 C 745 586 745 590 745 594 Z M 686 1126 L 580 1079 C 533 1106 490 1135 450 1165 C 410 1195 372 1230 336 1270 C 327 1278 320 1286 315 1295 C 309 1303 307 1311 307 1317 C 307 1323 310 1330 316 1340 C 322 1349 330 1358 339 1367 C 348 1375 357 1383 367 1389 C 377 1395 385 1399 393 1399 C 399 1399 408 1396 419 1390 C 429 1384 438 1376 446 1366 C 461 1344 479 1322 499 1300 C 519 1277 539 1255 561 1234 C 583 1213 604 1193 626 1175 C 647 1156 667 1140 686 1126 Z" unicode="" />
<glyph horiz-adv-x="1006" d="M 934 598 C 934 568 932 542 928 522 L 823 418 L 264 418 C 265 389 273 358 287 326 C 301 294 322 264 350 236 C 377 208 411 186 452 168 C 492 150 540 141 594 141 C 654 141 705 148 749 163 C 793 177 831 195 864 217 L 844 37 C 810 19 772 5 728 -6 C 684 -17 631 -23 569 -23 C 503 -23 440 -11 380 12 C 320 36 267 69 221 112 C 175 154 139 205 112 265 C 85 325 72 391 72 463 C 72 515 78 564 91 608 C 103 652 121 693 143 729 C 165 765 191 796 221 824 C 251 852 283 875 317 894 C 351 912 386 926 423 936 C 459 945 496 950 532 950 C 596 950 653 939 703 919 C 753 898 795 871 829 838 C 863 805 889 767 907 725 C 925 683 934 640 934 598 Z M 745 594 C 745 616 740 639 730 663 C 720 687 707 708 690 727 C 672 745 651 761 626 773 C 601 785 573 791 543 791 C 513 791 484 785 455 774 C 426 763 399 748 375 728 C 350 708 329 685 311 658 C 293 630 282 601 276 569 L 743 569 C 744 573 745 578 745 582 C 745 586 745 590 745 594 Z M 770 1317 C 770 1311 767 1305 762 1297 C 756 1289 749 1282 741 1274 C 705 1234 666 1199 626 1168 C 585 1136 542 1107 496 1079 L 395 1122 C 414 1136 434 1153 456 1173 C 478 1192 499 1212 521 1234 C 542 1256 563 1278 583 1301 C 603 1323 621 1346 637 1368 C 644 1378 652 1386 662 1391 C 672 1396 680 1399 688 1399 C 694 1399 702 1395 712 1389 C 721 1383 730 1375 739 1367 C 747 1358 755 1349 761 1340 C 767 1330 770 1323 770 1317 Z" unicode="" />
<glyph horiz-adv-x="1006" d="M 934 598 C 934 568 932 542 928 522 L 823 418 L 264 418 C 265 389 273 358 287 326 C 301 294 322 264 350 236 C 377 208 411 186 452 168 C 492 150 540 141 594 141 C 654 141 705 148 749 163 C 793 177 831 195 864 217 L 844 37 C 810 19 772 5 728 -6 C 684 -17 631 -23 569 -23 C 503 -23 440 -11 380 12 C 320 36 267 69 221 112 C 175 154 139 205 112 265 C 85 325 72 391 72 463 C 72 515 78 564 91 608 C 103 652 121 693 143 729 C 165 765 191 796 221 824 C 251 852 283 875 317 894 C 351 912 386 926 423 936 C 459 945 496 950 532 950 C 596 950 653 939 703 919 C 753 898 795 871 829 838 C 863 805 889 767 907 725 C 925 683 934 640 934 598 Z M 745 594 C 745 616 740 639 730 663 C 720 687 707 708 690 727 C 672 745 651 761 626 773 C 601 785 573 791 543 791 C 513 791 484 785 455 774 C 426 763 399 748 375 728 C 350 708 329 685 311 658 C 293 630 282 601 276 569 L 743 569 C 744 573 745 578 745 582 C 745 586 745 590 745 594 Z M 827 1126 L 719 1079 C 685 1099 652 1121 618 1144 C 584 1167 553 1191 524 1217 C 495 1191 465 1167 435 1144 C 404 1121 372 1099 338 1079 L 240 1122 C 258 1136 277 1153 299 1172 C 321 1191 342 1211 364 1233 C 385 1255 406 1277 426 1300 C 446 1322 463 1344 479 1366 C 486 1376 495 1384 506 1391 C 517 1397 526 1401 532 1401 C 539 1401 548 1397 560 1391 C 571 1384 580 1376 588 1366 C 603 1344 621 1322 641 1300 C 661 1277 681 1255 703 1234 C 724 1213 745 1193 767 1175 C 789 1156 809 1140 827 1126 Z" unicode="" />
<glyph horiz-adv-x="1006" d="M 934 598 C 934 568 932 542 928 522 L 823 418 L 264 418 C 265 389 273 358 287 326 C 301 294 322 264 350 236 C 377 208 411 186 452 168 C 492 150 540 141 594 141 C 654 141 705 148 749 163 C 793 177 831 195 864 217 L 844 37 C 810 19 772 5 728 -6 C 684 -17 631 -23 569 -23 C 503 -23 440 -11 380 12 C 320 36 267 69 221 112 C 175 154 139 205 112 265 C 85 325 72 391 72 463 C 72 515 78 564 91 608 C 103 652 121 693 143 729 C 165 765 191 796 221 824 C 251 852 283 875 317 894 C 351 912 386 926 423 936 C 459 945 496 950 532 950 C 596 950 653 939 703 919 C 753 898 795 871 829 838 C 863 805 889 767 907 725 C 925 683 934 640 934 598 Z M 745 594 C 745 616 740 639 730 663 C 720 687 707 708 690 727 C 672 745 651 761 626 773 C 601 785 573 791 543 791 C 513 791 484 785 455 774 C 426 763 399 748 375 728 C 350 708 329 685 311 658 C 293 630 282 601 276 569 L 743 569 C 744 573 745 578 745 582 C 745 586 745 590 745 594 Z M 745 1174 C 745 1166 741 1157 735 1147 C 729 1137 721 1127 712 1117 C 702 1107 692 1099 682 1093 C 672 1086 663 1083 655 1083 C 647 1083 638 1086 628 1093 C 618 1099 608 1107 599 1117 C 589 1127 581 1137 575 1147 C 568 1157 565 1166 565 1174 C 565 1181 568 1190 575 1201 C 581 1211 589 1221 599 1231 C 608 1241 618 1249 628 1256 C 638 1262 647 1266 655 1266 C 663 1266 672 1262 682 1256 C 692 1249 702 1241 712 1231 C 721 1221 729 1211 735 1201 C 741 1190 745 1181 745 1174 Z M 479 1174 C 479 1166 475 1157 469 1147 C 463 1137 455 1127 446 1117 C 436 1107 426 1099 416 1093 C 406 1086 397 1083 389 1083 C 381 1083 372 1086 362 1093 C 352 1099 342 1107 333 1117 C 323 1127 315 1137 309 1147 C 302 1157 299 1166 299 1174 C 299 1181 302 1190 309 1201 C 315 1211 323 1221 333 1231 C 342 1241 352 1249 362 1256 C 372 1262 381 1266 389 1266 C 397 1266 406 1262 416 1256 C 426 1249 436 1241 446 1231 C 455 1221 463 1211 469 1201 C 475 1190 479 1181 479 1174 Z" unicode="" />
<glyph horiz-adv-x="451" d="M 319 0 L 131 0 L 131 928 L 319 928 L 319 0 Z M 375 1126 L 266 1079 C 220 1106 178 1135 138 1165 C 98 1195 59 1230 23 1270 C 15 1278 9 1286 4 1295 C -1 1303 -4 1311 -4 1317 C -4 1323 0 1330 5 1340 C 11 1349 19 1358 28 1367 C 37 1375 46 1383 56 1389 C 66 1395 74 1399 82 1399 C 88 1399 96 1396 107 1390 C 118 1384 127 1376 135 1366 C 150 1344 168 1322 188 1300 C 208 1277 228 1255 250 1234 C 272 1213 293 1193 315 1175 C 336 1156 356 1140 375 1126 Z" unicode="" />
<glyph horiz-adv-x="451" d="M 319 0 L 131 0 L 131 928 L 319 928 L 319 0 Z M 459 1317 C 459 1311 456 1305 450 1297 C 444 1289 438 1282 430 1274 C 394 1234 355 1199 314 1168 C 273 1136 230 1107 184 1079 L 84 1122 C 103 1136 123 1153 145 1173 C 167 1192 188 1212 210 1234 C 231 1256 252 1278 272 1301 C 292 1323 310 1346 326 1368 C 333 1378 342 1386 352 1391 C 362 1396 371 1399 377 1399 C 383 1399 391 1395 401 1389 C 410 1383 419 1375 428 1367 C 436 1358 444 1349 450 1340 C 456 1330 459 1323 459 1317 Z" unicode="" />
<glyph horiz-adv-x="451" d="M 319 0 L 131 0 L 131 928 L 319 928 L 319 0 Z M 524 1126 L 418 1079 C 384 1099 350 1121 317 1144 C 283 1167 252 1191 223 1217 C 194 1191 164 1167 133 1144 C 101 1121 69 1099 37 1079 L -63 1122 C -44 1136 -24 1153 -2 1172 C 19 1191 40 1211 62 1233 C 83 1255 103 1277 123 1300 C 143 1322 160 1344 176 1366 C 184 1376 194 1384 204 1391 C 214 1397 223 1401 231 1401 C 238 1401 247 1397 258 1391 C 268 1384 277 1376 285 1366 C 300 1344 318 1322 338 1300 C 358 1277 378 1255 400 1234 C 421 1213 442 1193 464 1175 C 486 1156 506 1140 524 1126 Z" unicode="" />
<glyph horiz-adv-x="451" d="M 319 0 L 131 0 L 131 928 L 319 928 L 319 0 Z M 453 1174 C 453 1166 449 1157 443 1147 C 436 1137 428 1127 419 1117 C 409 1107 399 1099 389 1093 C 379 1086 370 1083 362 1083 C 354 1083 344 1086 334 1093 C 323 1099 313 1107 304 1117 C 294 1127 286 1137 280 1147 C 273 1157 270 1166 270 1174 C 270 1181 273 1190 280 1201 C 286 1211 294 1221 304 1231 C 313 1241 323 1249 334 1256 C 344 1262 354 1266 362 1266 C 370 1266 379 1262 389 1256 C 399 1249 409 1241 419 1231 C 428 1221 436 1211 443 1201 C 449 1190 453 1181 453 1174 Z M 186 1174 C 186 1166 182 1157 176 1147 C 170 1137 162 1127 153 1117 C 143 1107 133 1099 123 1093 C 113 1086 104 1083 96 1083 C 88 1083 79 1086 69 1093 C 59 1099 49 1107 39 1117 C 29 1127 21 1137 14 1147 C 7 1157 4 1166 4 1174 C 4 1181 7 1190 14 1201 C 21 1211 29 1221 39 1231 C 49 1241 59 1249 69 1256 C 79 1262 88 1266 96 1266 C 104 1266 113 1262 123 1256 C 133 1249 143 1241 153 1231 C 162 1221 170 1211 176 1201 C 182 1190 186 1181 186 1174 Z" unicode="" />
<glyph horiz-adv-x="1022" d="M 940 428 C 940 356 928 292 905 236 C 882 180 851 133 812 95 C 772 56 726 27 674 7 C 622 -13 566 -23 508 -23 C 445 -23 387 -12 334 9 C 281 31 235 61 196 99 C 157 137 127 181 105 233 C 83 285 72 341 72 401 C 72 451 80 498 96 543 C 112 588 134 629 163 666 C 191 702 225 734 263 761 C 301 788 343 809 389 823 C 422 833 457 843 493 851 C 529 859 564 866 596 872 L 498 1108 L 324 1038 L 268 1178 L 438 1247 L 350 1458 L 545 1458 L 604 1313 L 762 1376 L 817 1237 L 664 1174 L 907 594 C 911 584 915 572 919 558 C 923 544 926 530 929 515 C 932 500 935 485 937 470 C 939 454 940 440 940 428 Z M 754 426 C 754 443 750 464 743 490 C 736 516 727 542 717 570 C 707 597 696 624 685 650 C 673 676 663 699 655 719 C 630 715 601 710 568 704 C 534 697 503 689 475 680 C 405 657 351 622 314 575 C 276 527 258 469 258 401 C 258 363 264 328 277 296 C 289 264 307 237 329 214 C 351 191 377 173 407 160 C 437 147 469 141 504 141 C 538 141 571 147 601 161 C 631 174 658 193 681 218 C 703 242 721 272 734 308 C 747 343 754 382 754 426 Z" unicode="" />
<glyph horiz-adv-x="1036" d="M 924 0 L 737 0 L 737 596 C 737 620 733 643 725 667 C 717 690 705 711 688 729 C 670 747 648 762 621 774 C 593 785 560 791 522 791 C 484 791 452 785 424 774 C 396 762 372 747 354 729 C 336 711 322 690 313 667 C 303 643 299 620 299 596 L 299 0 L 113 0 L 113 928 L 283 928 L 283 807 L 285 807 C 295 827 308 846 324 864 C 340 881 359 896 383 909 C 406 921 433 931 464 939 C 495 946 531 950 571 950 C 621 950 668 942 711 926 C 754 910 791 888 823 859 C 855 830 879 795 897 754 C 915 712 924 666 924 614 L 924 0 Z M 829 1331 C 817 1309 802 1286 784 1262 C 766 1237 747 1214 728 1193 C 708 1171 689 1153 671 1139 C 653 1125 637 1118 625 1118 C 611 1118 595 1121 578 1129 C 561 1137 544 1145 528 1155 C 511 1164 495 1172 481 1180 C 466 1188 454 1192 446 1192 C 436 1192 426 1188 416 1180 C 406 1172 395 1162 385 1151 C 375 1139 365 1128 356 1116 C 347 1104 340 1095 334 1087 L 225 1137 C 237 1158 252 1181 270 1206 C 288 1231 307 1254 327 1276 C 346 1298 365 1316 383 1330 C 401 1344 417 1352 430 1352 C 444 1352 459 1348 476 1340 C 493 1332 510 1323 527 1314 C 543 1304 559 1296 574 1288 C 588 1280 600 1276 608 1276 C 617 1276 627 1280 638 1288 C 648 1296 659 1306 669 1317 C 679 1328 688 1339 697 1351 C 705 1363 713 1372 719 1380 L 829 1331 Z" unicode="" />
<glyph horiz-adv-x="1128" d="M 1057 463 C 1057 391 1044 325 1019 266 C 993 206 959 155 915 112 C 871 69 819 36 759 12 C 699 -11 634 -23 565 -23 C 495 -23 431 -11 371 12 C 311 36 259 69 215 112 C 170 155 135 206 110 266 C 84 325 72 391 72 463 C 72 535 84 601 110 661 C 135 721 170 772 215 815 C 259 857 311 890 371 914 C 431 938 495 950 565 950 C 634 950 699 938 759 914 C 819 890 871 857 915 815 C 959 772 993 721 1019 661 C 1044 601 1057 535 1057 463 Z M 868 459 C 868 507 859 551 843 591 C 827 631 805 665 777 693 C 749 721 717 743 681 759 C 644 774 605 782 565 782 C 523 782 484 774 448 759 C 411 743 379 721 351 693 C 323 665 300 631 284 591 C 268 551 260 507 260 459 C 260 411 268 367 284 327 C 300 287 323 253 351 225 C 379 197 411 175 448 160 C 484 144 523 137 565 137 C 605 137 644 144 681 160 C 717 175 749 197 777 225 C 805 253 827 287 843 327 C 859 367 868 411 868 459 Z M 717 1126 L 608 1079 C 562 1106 519 1135 479 1165 C 439 1195 401 1230 365 1270 C 356 1278 349 1286 344 1295 C 338 1303 336 1311 336 1317 C 336 1323 339 1330 345 1340 C 351 1349 359 1358 368 1367 C 377 1375 386 1383 396 1389 C 406 1395 414 1399 422 1399 C 429 1399 438 1396 448 1390 C 458 1384 467 1376 475 1366 C 491 1344 509 1322 529 1300 C 549 1277 569 1255 591 1234 C 613 1213 634 1193 656 1175 C 677 1156 697 1140 717 1126 Z" unicode="" />
<glyph horiz-adv-x="1128" d="M 1057 463 C 1057 391 1044 325 1019 266 C 993 206 959 155 915 112 C 871 69 819 36 759 12 C 699 -11 634 -23 565 -23 C 495 -23 431 -11 371 12 C 311 36 259 69 215 112 C 170 155 135 206 110 266 C 84 325 72 391 72 463 C 72 535 84 601 110 661 C 135 721 170 772 215 815 C 259 857 311 890 371 914 C 431 938 495 950 565 950 C 634 950 699 938 759 914 C 819 890 871 857 915 815 C 959 772 993 721 1019 661 C 1044 601 1057 535 1057 463 Z M 868 459 C 868 507 859 551 843 591 C 827 631 805 665 777 693 C 749 721 717 743 681 759 C 644 774 605 782 565 782 C 523 782 484 774 448 759 C 411 743 379 721 351 693 C 323 665 300 631 284 591 C 268 551 260 507 260 459 C 260 411 268 367 284 327 C 300 287 323 253 351 225 C 379 197 411 175 448 160 C 484 144 523 137 565 137 C 605 137 644 144 681 160 C 717 175 749 197 777 225 C 805 253 827 287 843 327 C 859 367 868 411 868 459 Z M 793 1317 C 793 1311 790 1305 784 1297 C 778 1289 772 1282 764 1274 C 728 1234 689 1199 648 1168 C 606 1136 563 1107 518 1079 L 418 1122 C 436 1136 456 1153 478 1173 C 500 1192 521 1212 543 1234 C 564 1256 584 1278 604 1301 C 624 1323 641 1346 657 1368 C 664 1378 673 1386 684 1391 C 694 1396 703 1399 711 1399 C 717 1399 724 1395 734 1389 C 743 1383 752 1375 761 1367 C 769 1358 777 1349 783 1340 C 789 1330 793 1323 793 1317 Z" unicode="" />
<glyph horiz-adv-x="1128" d="M 1057 463 C 1057 391 1044 325 1019 266 C 993 206 959 155 915 112 C 871 69 819 36 759 12 C 699 -11 634 -23 565 -23 C 495 -23 431 -11 371 12 C 311 36 259 69 215 112 C 170 155 135 206 110 266 C 84 325 72 391 72 463 C 72 535 84 601 110 661 C 135 721 170 772 215 815 C 259 857 311 890 371 914 C 431 938 495 950 565 950 C 634 950 699 938 759 914 C 819 890 871 857 915 815 C 959 772 993 721 1019 661 C 1044 601 1057 535 1057 463 Z M 868 459 C 868 507 859 551 843 591 C 827 631 805 665 777 693 C 749 721 717 743 681 759 C 644 774 605 782 565 782 C 523 782 484 774 448 759 C 411 743 379 721 351 693 C 323 665 300 631 284 591 C 268 551 260 507 260 459 C 260 411 268 367 284 327 C 300 287 323 253 351 225 C 379 197 411 175 448 160 C 484 144 523 137 565 137 C 605 137 644 144 681 160 C 717 175 749 197 777 225 C 805 253 827 287 843 327 C 859 367 868 411 868 459 Z M 862 1126 L 754 1079 C 720 1099 687 1121 653 1144 C 619 1167 587 1191 559 1217 C 530 1191 500 1167 469 1144 C 437 1121 405 1099 373 1079 L 274 1122 C 292 1136 312 1153 334 1172 C 356 1191 377 1211 399 1233 C 420 1255 441 1277 461 1300 C 481 1322 498 1344 514 1366 C 521 1376 530 1384 540 1391 C 550 1397 559 1401 567 1401 C 574 1401 583 1397 594 1391 C 604 1384 614 1376 623 1366 C 638 1344 655 1322 675 1300 C 695 1277 715 1255 737 1234 C 758 1213 779 1193 801 1175 C 822 1156 842 1140 862 1126 Z" unicode="" />
<glyph horiz-adv-x="1128" d="M 1057 463 C 1057 391 1044 325 1019 266 C 993 206 959 155 915 112 C 871 69 819 36 759 12 C 699 -11 634 -23 565 -23 C 495 -23 431 -11 371 12 C 311 36 259 69 215 112 C 170 155 135 206 110 266 C 84 325 72 391 72 463 C 72 535 84 601 110 661 C 135 721 170 772 215 815 C 259 857 311 890 371 914 C 431 938 495 950 565 950 C 634 950 699 938 759 914 C 819 890 871 857 915 815 C 959 772 993 721 1019 661 C 1044 601 1057 535 1057 463 Z M 868 459 C 868 507 859 551 843 591 C 827 631 805 665 777 693 C 749 721 717 743 681 759 C 644 774 605 782 565 782 C 523 782 484 774 448 759 C 411 743 379 721 351 693 C 323 665 300 631 284 591 C 268 551 260 507 260 459 C 260 411 268 367 284 327 C 300 287 323 253 351 225 C 379 197 411 175 448 160 C 484 144 523 137 565 137 C 605 137 644 144 681 160 C 717 175 749 197 777 225 C 805 253 827 287 843 327 C 859 367 868 411 868 459 Z M 879 1331 C 867 1309 852 1286 834 1262 C 816 1237 797 1214 778 1193 C 758 1171 739 1153 721 1139 C 703 1125 687 1118 674 1118 C 660 1118 645 1121 628 1129 C 611 1137 594 1145 578 1155 C 561 1164 545 1172 531 1180 C 516 1188 504 1192 496 1192 C 487 1192 477 1188 467 1180 C 456 1172 446 1162 436 1151 C 426 1139 416 1128 407 1116 C 398 1104 391 1095 385 1087 L 274 1137 C 286 1158 302 1181 320 1206 C 338 1231 356 1254 376 1276 C 396 1298 415 1316 433 1330 C 451 1344 467 1352 481 1352 C 494 1352 509 1348 526 1340 C 543 1332 560 1323 577 1314 C 593 1304 609 1296 623 1288 C 637 1280 649 1276 657 1276 C 666 1276 676 1280 687 1288 C 697 1296 708 1306 719 1317 C 729 1328 739 1339 748 1351 C 757 1363 764 1372 770 1380 L 879 1331 Z" unicode="" />
<glyph horiz-adv-x="1128" d="M 1057 463 C 1057 391 1044 325 1019 266 C 993 206 959 155 915 112 C 871 69 819 36 759 12 C 699 -11 634 -23 565 -23 C 495 -23 431 -11 371 12 C 311 36 259 69 215 112 C 170 155 135 206 110 266 C 84 325 72 391 72 463 C 72 535 84 601 110 661 C 135 721 170 772 215 815 C 259 857 311 890 371 914 C 431 938 495 950 565 950 C 634 950 699 938 759 914 C 819 890 871 857 915 815 C 959 772 993 721 1019 661 C 1044 601 1057 535 1057 463 Z M 868 459 C 868 507 859 551 843 591 C 827 631 805 665 777 693 C 749 721 717 743 681 759 C 644 774 605 782 565 782 C 523 782 484 774 448 759 C 411 743 379 721 351 693 C 323 665 300 631 284 591 C 268 551 260 507 260 459 C 260 411 268 367 284 327 C 300 287 323 253 351 225 C 379 197 411 175 448 160 C 484 144 523 137 565 137 C 605 137 644 144 681 160 C 717 175 749 197 777 225 C 805 253 827 287 843 327 C 859 367 868 411 868 459 Z M 795 1174 C 795 1166 791 1157 785 1147 C 778 1137 770 1127 761 1117 C 751 1107 741 1099 730 1093 C 719 1086 710 1083 702 1083 C 694 1083 685 1086 675 1093 C 665 1099 655 1107 646 1117 C 636 1127 628 1137 622 1147 C 615 1157 612 1166 612 1174 C 612 1181 615 1190 622 1201 C 628 1211 636 1221 646 1231 C 655 1241 665 1249 675 1256 C 685 1262 694 1266 702 1266 C 710 1266 719 1262 730 1256 C 741 1249 751 1241 761 1231 C 770 1221 778 1211 785 1201 C 791 1190 795 1181 795 1174 Z M 528 1174 C 528 1166 524 1157 518 1147 C 512 1137 504 1127 494 1117 C 484 1107 474 1099 464 1093 C 453 1086 444 1083 436 1083 C 429 1083 421 1086 411 1093 C 401 1099 391 1107 381 1117 C 371 1127 363 1137 356 1147 C 349 1157 346 1166 346 1174 C 346 1181 349 1190 356 1201 C 363 1211 371 1221 381 1231 C 391 1241 401 1249 411 1256 C 421 1262 429 1266 436 1266 C 444 1266 453 1262 464 1256 C 474 1249 484 1241 494 1231 C 504 1221 512 1211 518 1201 C 524 1190 528 1181 528 1174 Z" unicode="" />
<glyph horiz-adv-x="930" d="M 573 825 C 573 815 569 804 561 792 C 553 780 544 768 533 757 C 521 745 509 736 497 728 C 485 720 474 717 465 717 C 455 717 444 720 432 728 C 420 736 408 745 397 757 C 385 768 376 780 368 792 C 360 804 356 815 356 825 C 356 833 360 844 368 856 C 376 868 385 880 397 891 C 408 902 420 912 432 920 C 444 928 455 932 465 932 C 474 932 485 928 497 920 C 509 912 521 902 533 891 C 544 880 553 868 561 856 C 569 844 573 833 573 825 Z M 848 487 L 82 487 L 82 647 L 848 647 L 848 487 Z M 573 311 C 573 301 569 290 561 278 C 553 266 544 254 533 243 C 521 231 509 222 497 214 C 485 206 474 203 465 203 C 455 203 444 206 432 214 C 420 222 408 231 397 243 C 385 254 376 266 368 278 C 360 290 356 301 356 311 C 356 319 360 330 368 342 C 376 354 385 366 397 377 C 408 388 420 398 432 406 C 444 414 455 418 465 418 C 474 418 485 414 497 406 C 509 398 521 388 533 377 C 544 366 553 354 561 342 C 569 330 573 319 573 311 Z" unicode="" />
<glyph horiz-adv-x="1128" d="M 1057 463 C 1057 391 1044 325 1019 266 C 993 206 959 155 915 112 C 871 69 819 36 759 12 C 699 -11 634 -23 565 -23 C 515 -23 468 -17 423 -5 C 378 7 337 24 299 47 L 209 -66 L 123 6 L 211 117 C 167 160 133 211 109 269 C 84 327 72 392 72 463 C 72 535 84 601 110 661 C 135 721 170 772 215 815 C 259 857 311 890 371 914 C 431 938 495 950 565 950 C 613 950 659 944 703 932 C 746 920 787 904 825 883 L 913 993 L 999 922 L 913 815 C 957 771 992 720 1018 661 C 1044 601 1057 535 1057 463 Z M 868 459 C 868 501 861 539 849 575 C 837 610 820 642 799 670 L 408 182 C 431 168 456 157 482 149 C 508 141 536 137 565 137 C 605 137 644 144 681 160 C 717 175 749 197 777 225 C 805 253 827 287 843 327 C 859 367 868 411 868 459 Z M 713 743 C 690 755 666 765 642 772 C 617 778 591 782 565 782 C 523 782 484 774 448 759 C 411 743 379 721 351 693 C 323 665 300 631 284 591 C 268 551 260 507 260 459 C 260 419 265 382 277 348 C 289 314 304 284 324 258 L 713 743 Z" unicode="" />
<glyph horiz-adv-x="1036" d="M 924 0 L 754 0 L 754 121 L 752 121 C 742 100 729 81 713 64 C 697 46 677 31 654 18 C 630 5 603 -4 572 -12 C 541 -19 505 -23 465 -23 C 414 -23 367 -15 324 0 C 281 16 244 38 213 67 C 181 96 157 131 139 173 C 121 214 113 261 113 313 L 113 928 L 299 928 L 299 332 C 299 308 302 284 310 261 C 318 237 330 216 348 198 C 365 180 387 165 414 154 C 441 142 474 137 514 137 C 551 137 584 142 612 154 C 640 165 663 180 681 198 C 699 216 713 237 723 261 C 732 284 737 308 737 332 L 737 928 L 924 928 L 924 0 Z M 659 1126 L 551 1079 C 505 1106 462 1135 422 1165 C 381 1195 343 1230 307 1270 C 299 1278 293 1286 288 1295 C 283 1303 281 1311 281 1317 C 281 1323 284 1330 290 1340 C 296 1349 304 1358 313 1367 C 321 1375 330 1383 340 1389 C 350 1395 358 1399 365 1399 C 372 1399 381 1396 392 1390 C 403 1384 412 1376 420 1366 C 435 1344 452 1322 472 1300 C 492 1277 512 1255 534 1234 C 555 1213 576 1193 598 1175 C 620 1156 640 1140 659 1126 Z" unicode="" />
<glyph horiz-adv-x="1036" d="M 924 0 L 754 0 L 754 121 L 752 121 C 742 100 729 81 713 64 C 697 46 677 31 654 18 C 630 5 603 -4 572 -12 C 541 -19 505 -23 465 -23 C 414 -23 367 -15 324 0 C 281 16 244 38 213 67 C 181 96 157 131 139 173 C 121 214 113 261 113 313 L 113 928 L 299 928 L 299 332 C 299 308 302 284 310 261 C 318 237 330 216 348 198 C 365 180 387 165 414 154 C 441 142 474 137 514 137 C 551 137 584 142 612 154 C 640 165 663 180 681 198 C 699 216 713 237 723 261 C 732 284 737 308 737 332 L 737 928 L 924 928 L 924 0 Z M 760 1317 C 760 1311 757 1305 752 1297 C 746 1289 739 1282 731 1274 C 695 1234 656 1199 615 1168 C 573 1136 530 1107 485 1079 L 385 1122 C 403 1136 423 1153 445 1173 C 467 1192 488 1212 509 1234 C 530 1256 551 1278 571 1301 C 591 1323 609 1346 625 1368 C 632 1378 641 1386 651 1391 C 661 1396 670 1399 678 1399 C 684 1399 691 1395 701 1389 C 710 1383 719 1375 728 1367 C 736 1358 744 1349 750 1340 C 756 1330 760 1323 760 1317 Z" unicode="" />
<glyph horiz-adv-x="1036" d="M 924 0 L 754 0 L 754 121 L 752 121 C 742 100 729 81 713 64 C 697 46 677 31 654 18 C 630 5 603 -4 572 -12 C 541 -19 505 -23 465 -23 C 414 -23 367 -15 324 0 C 281 16 244 38 213 67 C 181 96 157 131 139 173 C 121 214 113 261 113 313 L 113 928 L 299 928 L 299 332 C 299 308 302 284 310 261 C 318 237 330 216 348 198 C 365 180 387 165 414 154 C 441 142 474 137 514 137 C 551 137 584 142 612 154 C 640 165 663 180 681 198 C 699 216 713 237 723 261 C 732 284 737 308 737 332 L 737 928 L 924 928 L 924 0 Z M 815 1126 L 707 1079 C 673 1099 640 1121 606 1144 C 572 1167 540 1191 512 1217 C 483 1191 453 1167 423 1144 C 392 1121 360 1099 326 1079 L 227 1122 C 245 1136 265 1153 287 1172 C 309 1191 330 1211 352 1233 C 373 1255 394 1277 414 1300 C 434 1322 451 1344 467 1366 C 474 1376 483 1384 494 1391 C 505 1397 514 1401 522 1401 C 528 1401 537 1397 548 1391 C 558 1384 567 1376 575 1366 C 590 1344 608 1322 628 1300 C 648 1277 668 1255 690 1234 C 712 1213 733 1193 755 1175 C 776 1156 796 1140 815 1126 Z" unicode="" />
<glyph horiz-adv-x="1036" d="M 924 0 L 754 0 L 754 121 L 752 121 C 742 100 729 81 713 64 C 697 46 677 31 654 18 C 630 5 603 -4 572 -12 C 541 -19 505 -23 465 -23 C 414 -23 367 -15 324 0 C 281 16 244 38 213 67 C 181 96 157 131 139 173 C 121 214 113 261 113 313 L 113 928 L 299 928 L 299 332 C 299 308 302 284 310 261 C 318 237 330 216 348 198 C 365 180 387 165 414 154 C 441 142 474 137 514 137 C 551 137 584 142 612 154 C 640 165 663 180 681 198 C 699 216 713 237 723 261 C 732 284 737 308 737 332 L 737 928 L 924 928 L 924 0 Z M 750 1174 C 750 1166 746 1157 740 1147 C 733 1137 725 1127 716 1117 C 706 1107 696 1099 686 1093 C 676 1086 667 1083 659 1083 C 651 1083 641 1086 631 1093 C 620 1099 610 1107 601 1117 C 591 1127 583 1137 577 1147 C 570 1157 567 1166 567 1174 C 567 1181 570 1190 577 1201 C 583 1211 591 1221 601 1231 C 610 1241 620 1249 631 1256 C 641 1262 651 1266 659 1266 C 667 1266 676 1262 686 1256 C 696 1249 706 1241 716 1231 C 725 1221 733 1211 740 1201 C 746 1190 750 1181 750 1174 Z M 483 1174 C 483 1166 479 1157 473 1147 C 467 1137 459 1127 450 1117 C 440 1107 430 1099 420 1093 C 410 1086 401 1083 393 1083 C 385 1083 376 1086 366 1093 C 356 1099 346 1107 336 1117 C 326 1127 318 1137 311 1147 C 304 1157 301 1166 301 1174 C 301 1181 304 1190 311 1201 C 318 1211 326 1221 336 1231 C 346 1241 356 1249 366 1256 C 376 1262 385 1266 393 1266 C 401 1266 410 1262 420 1256 C 430 1249 440 1241 450 1231 C 459 1221 467 1211 473 1201 C 479 1190 483 1181 483 1174 Z" unicode="" />
<glyph horiz-adv-x="961" d="M 920 928 L 578 90 C 542 4 506 -69 470 -132 C 434 -194 396 -248 357 -294 C 318 -339 278 -377 236 -407 C 194 -437 150 -462 104 -483 L -14 -365 C 26 -347 65 -326 102 -302 C 139 -278 174 -248 207 -214 C 240 -179 271 -138 301 -90 C 331 -42 359 15 387 82 L 41 928 L 233 928 L 403 508 C 414 479 427 446 442 408 C 456 370 469 332 481 295 L 485 295 C 491 312 498 330 506 349 C 514 368 521 387 529 406 C 536 424 543 442 550 459 C 557 476 563 492 569 506 L 741 928 L 920 928 Z M 737 1317 C 737 1311 734 1305 729 1297 C 723 1289 717 1282 709 1274 C 671 1234 632 1199 591 1168 C 550 1136 507 1107 461 1079 L 362 1122 C 380 1136 400 1153 422 1173 C 444 1192 465 1212 487 1234 C 508 1256 528 1278 548 1301 C 568 1323 586 1346 602 1368 C 609 1378 618 1386 628 1391 C 638 1396 647 1399 655 1399 C 661 1399 668 1395 678 1389 C 687 1383 696 1375 705 1367 C 713 1358 721 1349 727 1340 C 733 1330 737 1323 737 1317 Z" unicode="" />
<glyph horiz-adv-x="1102" d="M 1030 465 C 1030 393 1018 327 994 267 C 970 207 937 156 895 113 C 853 70 803 37 745 13 C 687 -11 625 -23 559 -23 C 533 -23 508 -20 482 -16 C 456 -11 432 -5 409 2 C 386 9 366 17 348 27 C 330 36 317 45 309 55 L 309 -473 L 123 -473 L 123 1458 L 309 1458 L 309 840 C 320 854 334 867 351 880 C 367 893 387 905 410 915 C 432 925 458 934 486 940 C 514 946 546 950 582 950 C 632 950 684 939 738 919 C 791 899 839 868 882 828 C 925 787 960 736 988 676 C 1016 615 1030 545 1030 465 Z M 842 459 C 842 507 834 551 818 591 C 802 631 781 665 754 693 C 726 721 694 743 658 759 C 621 774 582 782 541 782 C 511 782 483 778 459 771 C 435 764 413 755 394 744 C 374 732 358 720 344 706 C 330 692 318 678 309 664 L 309 229 C 316 221 326 211 340 201 C 353 190 369 180 389 171 C 408 161 430 153 456 147 C 481 140 509 137 541 137 C 582 137 621 144 658 160 C 694 175 726 197 754 225 C 781 253 802 287 818 327 C 834 367 842 411 842 459 Z" unicode="" />
<glyph horiz-adv-x="961" d="M 920 928 L 578 90 C 542 4 506 -69 470 -132 C 434 -194 396 -248 357 -294 C 318 -339 278 -377 236 -407 C 194 -437 150 -462 104 -483 L -14 -365 C 26 -347 65 -326 102 -302 C 139 -278 174 -248 207 -214 C 240 -179 271 -138 301 -90 C 331 -42 359 15 387 82 L 41 928 L 233 928 L 403 508 C 414 479 427 446 442 408 C 456 370 469 332 481 295 L 485 295 C 491 312 498 330 506 349 C 514 368 521 387 529 406 C 536 424 543 442 550 459 C 557 476 563 492 569 506 L 741 928 L 920 928 Z M 725 1167 C 725 1159 721 1151 715 1141 C 709 1131 701 1121 692 1111 C 682 1101 672 1093 662 1087 C 652 1080 643 1077 635 1077 C 627 1077 617 1080 607 1087 C 597 1093 587 1101 578 1111 C 568 1121 560 1131 554 1141 C 548 1151 545 1159 545 1167 C 545 1175 548 1184 554 1195 C 560 1205 568 1215 578 1225 C 587 1235 597 1243 607 1250 C 617 1256 627 1260 635 1260 C 643 1260 652 1256 662 1250 C 672 1243 682 1235 692 1225 C 701 1215 709 1205 715 1195 C 721 1184 725 1175 725 1167 Z M 459 1167 C 459 1159 455 1151 449 1141 C 442 1131 434 1121 425 1111 C 415 1101 405 1093 395 1087 C 385 1080 376 1077 369 1077 C 361 1077 352 1080 342 1087 C 332 1093 322 1101 313 1111 C 303 1121 295 1131 289 1141 C 282 1151 279 1159 279 1167 C 279 1175 282 1184 289 1195 C 295 1205 303 1215 313 1225 C 322 1235 332 1243 342 1250 C 352 1256 361 1260 369 1260 C 376 1260 385 1256 395 1250 C 405 1243 415 1235 425 1225 C 434 1215 442 1205 449 1195 C 455 1184 459 1175 459 1167 Z" unicode="" />
<glyph horiz-adv-x="451" d="M 319 0 L 131 0 L 131 928 L 319 928 L 319 0 Z" unicode="" />
<glyph horiz-adv-x="909" d="M 899 0 L 125 0 L 125 496 L 20 436 L 20 608 L 125 670 L 125 1307 L 324 1307 L 324 782 L 631 961 L 631 786 L 324 608 L 324 170 L 899 170 L 899 0 Z" unicode="" />
<glyph horiz-adv-x="485" d="M 444 786 L 311 709 L 311 244 C 311 222 314 203 322 185 C 330 167 340 151 352 138 C 364 125 377 114 392 106 C 407 98 422 92 436 90 L 309 -37 C 293 -33 275 -25 254 -15 C 233 -4 213 10 194 30 C 174 50 158 75 145 106 C 131 136 125 174 125 219 L 125 600 L 20 541 L 20 713 L 125 774 L 125 1458 L 311 1458 L 311 883 L 444 961 L 444 786 Z" unicode="" />
<glyph horiz-adv-x="1714" d="M 1704 0 L 948 0 C 924 -3 898 -5 870 -7 C 841 -9 809 -10 774 -10 C 720 -10 665 -3 610 8 C 555 20 502 39 451 64 C 399 89 351 120 307 157 C 262 194 223 237 190 286 C 156 335 130 390 111 452 C 91 513 82 580 82 653 C 82 727 91 794 111 856 C 130 918 156 973 190 1023 C 224 1072 263 1115 308 1152 C 353 1189 401 1220 453 1245 C 504 1269 557 1288 612 1300 C 666 1312 720 1319 774 1319 C 834 1319 888 1315 938 1307 L 1632 1307 L 1632 1137 L 1126 1137 L 1126 741 L 1550 741 L 1550 571 L 1126 571 L 1126 170 L 1704 170 L 1704 0 Z M 928 166 L 928 1130 C 907 1134 886 1138 864 1140 C 842 1142 819 1143 797 1143 C 734 1143 672 1132 611 1112 C 549 1092 494 1061 446 1020 C 397 979 358 928 328 866 C 298 804 283 731 283 649 C 283 566 297 494 327 433 C 357 371 396 320 444 280 C 492 239 546 208 608 188 C 670 168 733 158 797 158 C 820 158 842 158 864 159 C 886 160 907 162 928 166 Z" unicode="" />
<glyph horiz-adv-x="1800" d="M 1729 598 C 1729 583 1728 569 1727 557 C 1725 544 1724 532 1722 522 L 1618 418 L 1059 418 C 1060 389 1068 358 1082 326 C 1096 294 1117 264 1144 236 C 1171 208 1205 186 1246 168 C 1286 150 1334 141 1389 141 C 1448 141 1499 148 1543 163 C 1587 177 1625 195 1659 217 L 1638 37 C 1605 19 1567 5 1523 -6 C 1479 -17 1426 -23 1364 -23 C 1323 -23 1282 -18 1242 -8 C 1201 1 1163 15 1127 33 C 1091 51 1058 74 1030 101 C 1002 127 980 158 965 193 C 945 156 921 124 893 97 C 864 70 832 48 798 30 C 763 12 726 -1 686 -10 C 646 -18 606 -23 565 -23 C 495 -23 431 -11 371 12 C 311 36 259 69 215 112 C 170 155 135 206 110 266 C 84 325 72 391 72 463 C 72 535 84 601 110 661 C 135 721 170 772 215 815 C 259 857 311 890 371 914 C 431 938 495 950 565 950 C 605 950 646 945 687 936 C 728 926 766 913 802 895 C 837 877 868 856 896 830 C 924 804 945 774 961 741 C 974 774 994 804 1022 830 C 1049 856 1080 877 1114 895 C 1148 913 1184 926 1222 936 C 1259 945 1294 950 1327 950 C 1391 950 1448 939 1498 919 C 1548 898 1590 871 1624 838 C 1658 805 1684 767 1702 725 C 1720 683 1729 640 1729 598 Z M 1540 594 C 1540 616 1535 639 1525 663 C 1515 687 1502 708 1484 727 C 1466 745 1445 761 1420 773 C 1395 785 1367 791 1337 791 C 1307 791 1278 785 1250 774 C 1221 763 1194 748 1170 728 C 1145 708 1124 685 1106 658 C 1088 630 1077 601 1071 569 L 1538 569 C 1539 573 1540 578 1540 582 C 1540 586 1540 590 1540 594 Z M 868 459 C 868 507 859 551 843 591 C 827 631 805 665 777 693 C 749 721 717 743 681 759 C 644 774 605 782 565 782 C 523 782 484 774 448 759 C 411 743 379 721 351 693 C 323 665 300 631 284 591 C 268 551 260 507 260 459 C 260 411 268 367 284 327 C 300 287 323 253 351 225 C 379 197 411 175 448 160 C 484 144 523 137 565 137 C 605 137 644 144 681 160 C 717 175 749 197 777 225 C 805 253 827 287 843 327 C 859 367 868 411 868 459 Z" unicode="" />
<glyph horiz-adv-x="975" d="M 893 375 C 893 317 883 265 864 218 C 845 170 817 130 780 96 C 742 62 696 36 641 18 C 585 0 521 -10 449 -10 C 413 -10 379 -7 347 -3 C 314 1 283 8 255 16 C 227 24 201 33 177 43 C 153 53 133 64 117 76 L 94 283 C 141 247 196 217 260 195 C 324 173 390 162 459 162 C 494 162 526 166 555 176 C 584 185 609 198 629 215 C 649 232 665 252 677 276 C 688 300 694 326 694 356 C 694 415 676 463 641 499 C 605 535 549 565 473 590 C 358 626 271 675 212 736 C 152 796 123 874 123 969 C 123 1013 131 1057 148 1099 C 164 1141 189 1179 223 1211 C 257 1243 299 1269 350 1289 C 401 1309 461 1319 530 1319 C 562 1319 592 1316 621 1312 C 649 1308 676 1302 700 1295 C 724 1288 746 1280 765 1271 C 783 1262 799 1253 811 1245 L 772 1079 C 760 1087 745 1095 727 1104 C 709 1113 690 1121 668 1129 C 646 1137 623 1143 598 1148 C 573 1152 548 1155 522 1155 C 490 1155 461 1150 435 1141 C 409 1131 387 1119 369 1103 C 351 1087 337 1069 327 1048 C 317 1027 313 1005 313 983 C 313 935 330 896 364 866 C 398 835 450 808 518 786 C 574 767 625 746 671 722 C 717 698 756 671 789 639 C 822 607 848 569 866 526 C 884 483 893 433 893 375 Z M 786 1761 C 762 1743 738 1724 714 1702 C 689 1680 665 1656 641 1631 C 617 1606 594 1580 572 1552 C 550 1524 531 1495 514 1466 C 510 1462 506 1458 502 1456 C 497 1453 492 1452 487 1452 C 481 1452 476 1453 471 1455 C 466 1457 462 1460 459 1466 C 441 1495 422 1524 400 1552 C 378 1580 356 1606 332 1631 C 308 1656 283 1680 259 1702 C 234 1724 210 1743 186 1761 L 317 1819 C 351 1795 381 1772 409 1748 C 437 1724 462 1699 485 1671 C 508 1699 534 1724 562 1748 C 590 1772 620 1795 653 1819 L 786 1761 Z" unicode="" />
<glyph horiz-adv-x="764" d="M 692 258 C 692 221 685 186 671 154 C 657 121 636 92 608 68 C 580 43 545 23 503 9 C 461 -4 413 -12 358 -12 C 304 -12 256 -6 213 6 C 169 18 132 34 100 55 L 78 250 C 94 236 113 222 135 210 C 156 197 179 186 204 176 C 228 166 254 159 281 153 C 307 147 334 145 362 145 C 406 145 441 155 467 176 C 493 196 506 222 506 252 C 506 284 495 309 473 329 C 451 348 419 365 377 381 C 331 397 291 414 256 434 C 221 453 192 474 168 498 C 144 522 125 548 113 578 C 100 607 94 640 94 678 C 94 716 101 751 116 783 C 131 815 152 843 179 866 C 206 889 238 907 276 920 C 314 933 355 940 401 940 C 427 940 452 938 477 934 C 502 930 525 925 547 919 C 568 913 587 906 603 899 C 619 892 632 886 641 881 L 604 725 C 582 739 555 753 522 765 C 489 777 448 784 399 784 C 361 784 330 774 308 756 C 285 738 274 714 274 684 C 274 655 284 632 306 616 C 327 600 360 583 406 567 C 451 551 491 533 527 514 C 563 494 593 472 617 448 C 641 423 660 395 673 364 C 685 333 692 298 692 258 Z M 627 1337 C 607 1322 586 1305 565 1287 C 544 1268 523 1248 503 1227 C 483 1205 463 1183 445 1159 C 426 1135 409 1111 395 1087 C 391 1079 383 1075 373 1075 C 369 1075 364 1075 360 1077 C 355 1078 351 1081 348 1087 C 334 1111 317 1135 299 1159 C 281 1183 261 1205 241 1227 C 221 1248 200 1268 179 1287 C 157 1305 137 1322 117 1337 L 229 1386 C 258 1366 284 1346 308 1326 C 331 1306 352 1285 371 1262 C 391 1285 413 1306 437 1326 C 460 1346 486 1366 514 1386 L 627 1337 Z" unicode="" />
<glyph horiz-adv-x="1278" d="M 1237 1307 L 735 602 L 735 0 L 541 0 L 541 602 L 41 1307 L 258 1307 L 520 938 C 539 910 560 879 582 846 C 604 813 624 782 643 754 L 647 754 C 656 768 666 783 677 799 C 687 815 698 832 709 848 C 720 864 731 880 742 896 C 752 911 762 925 772 938 L 1034 1307 L 1237 1307 Z M 889 1569 C 889 1561 885 1550 877 1538 C 869 1526 860 1514 849 1503 C 838 1491 826 1482 814 1474 C 802 1466 791 1462 782 1462 C 772 1462 762 1466 750 1474 C 738 1482 726 1491 715 1503 C 704 1514 695 1526 687 1538 C 679 1550 676 1561 676 1569 C 676 1578 679 1589 687 1601 C 695 1613 704 1625 715 1637 C 726 1648 738 1657 750 1665 C 762 1673 772 1677 782 1677 C 791 1677 802 1673 814 1665 C 826 1657 838 1648 849 1637 C 860 1625 869 1613 877 1601 C 885 1589 889 1578 889 1569 Z M 575 1569 C 575 1561 571 1550 563 1538 C 555 1526 546 1514 535 1503 C 524 1491 513 1482 501 1474 C 489 1466 478 1462 469 1462 C 461 1462 450 1466 438 1474 C 426 1482 414 1491 403 1503 C 391 1514 382 1526 374 1538 C 366 1550 362 1561 362 1569 C 362 1578 366 1589 374 1601 C 382 1613 391 1625 403 1637 C 414 1648 426 1657 438 1665 C 450 1673 461 1677 469 1677 C 478 1677 489 1673 501 1665 C 513 1657 524 1648 535 1637 C 546 1625 555 1613 563 1601 C 571 1589 575 1578 575 1569 Z" unicode="" />
<glyph horiz-adv-x="1090" d="M 1008 0 L 82 0 L 82 47 L 498 774 C 514 803 532 833 551 865 C 569 897 588 928 607 960 C 625 992 644 1022 662 1052 C 680 1082 697 1109 713 1135 L 711 1137 L 115 1137 L 115 1307 L 985 1307 L 985 1260 L 565 530 C 548 500 530 470 512 439 C 494 408 475 377 457 346 C 439 315 421 285 403 255 C 385 225 368 198 352 172 L 354 170 L 1008 170 L 1008 0 Z M 850 1761 C 826 1743 802 1724 777 1702 C 752 1680 728 1656 704 1631 C 680 1606 658 1580 636 1552 C 614 1524 595 1495 578 1466 C 570 1456 561 1452 551 1452 C 545 1452 540 1453 535 1455 C 529 1457 525 1460 522 1466 C 504 1495 485 1524 463 1552 C 441 1580 419 1606 395 1631 C 371 1656 347 1680 322 1702 C 297 1724 273 1743 250 1761 L 381 1819 C 415 1795 445 1772 473 1748 C 501 1724 526 1699 549 1671 C 572 1699 597 1724 625 1748 C 653 1772 683 1795 717 1819 L 850 1761 Z" unicode="" />
<glyph horiz-adv-x="885" d="M 813 0 L 72 0 L 72 37 L 362 528 C 373 546 385 567 398 589 C 411 611 424 633 437 655 C 450 677 463 698 476 719 C 488 739 500 758 512 776 L 510 778 L 100 778 L 100 928 L 776 928 L 776 891 L 483 399 C 459 360 435 320 411 279 C 386 238 360 196 334 152 L 336 150 L 813 150 L 813 0 Z M 694 1337 C 674 1322 653 1305 632 1287 C 611 1268 590 1248 570 1227 C 550 1205 530 1183 512 1159 C 494 1135 477 1111 463 1087 C 461 1083 457 1080 453 1078 C 449 1076 444 1075 440 1075 C 436 1075 431 1075 427 1077 C 423 1078 419 1081 416 1087 C 400 1111 383 1135 365 1159 C 347 1183 327 1205 307 1227 C 287 1248 266 1268 245 1287 C 224 1305 204 1322 184 1337 L 297 1386 C 325 1366 351 1346 375 1326 C 398 1306 419 1285 438 1262 C 458 1285 480 1306 504 1326 C 528 1346 554 1366 582 1386 L 694 1337 Z" unicode="" />
<glyph horiz-adv-x="885" d="M 905 1325 L 870 1169 C 856 1172 842 1174 828 1176 C 813 1177 799 1178 786 1178 C 713 1178 654 1156 610 1113 C 566 1070 536 1006 522 922 L 469 618 L 702 618 L 678 508 L 451 508 L 342 -100 C 333 -150 317 -196 294 -238 C 271 -280 244 -317 214 -349 C 183 -381 150 -408 114 -429 C 78 -450 42 -465 8 -473 L -111 -356 C -80 -349 -50 -338 -20 -324 C 9 -309 36 -291 60 -269 C 84 -247 105 -220 123 -190 C 141 -160 153 -125 160 -86 L 264 508 L 104 508 L 104 618 L 283 618 L 338 932 C 350 997 369 1055 396 1105 C 423 1155 456 1196 496 1230 C 536 1264 581 1289 633 1307 C 684 1324 740 1333 801 1333 C 820 1333 838 1332 856 1331 C 873 1330 889 1328 905 1325 Z" unicode="" />
<glyph horiz-adv-x="1024" d="M 858 1104 L 731 1049 C 691 1072 652 1097 612 1124 C 572 1151 536 1180 502 1210 C 468 1180 432 1151 396 1124 C 359 1097 321 1072 283 1049 L 166 1100 C 188 1116 211 1135 237 1157 C 262 1179 287 1203 313 1229 C 338 1254 362 1280 386 1307 C 409 1334 430 1360 449 1386 C 457 1398 467 1408 480 1415 C 493 1421 504 1425 512 1425 C 520 1425 530 1421 543 1415 C 556 1408 567 1398 575 1386 C 593 1360 614 1334 638 1308 C 661 1281 685 1255 711 1231 C 736 1206 761 1183 787 1161 C 812 1139 836 1120 858 1104 Z" unicode="" />
<glyph horiz-adv-x="1024" d="M 813 1352 C 789 1334 765 1315 740 1293 C 715 1271 691 1247 667 1222 C 643 1196 621 1170 599 1142 C 577 1114 558 1086 541 1057 C 537 1053 533 1049 529 1046 C 524 1043 519 1042 514 1042 C 508 1042 503 1043 498 1045 C 492 1047 488 1051 485 1057 C 467 1086 448 1114 426 1142 C 404 1170 382 1196 358 1222 C 334 1247 310 1271 285 1293 C 260 1315 236 1334 213 1352 L 344 1409 C 378 1385 408 1362 436 1339 C 464 1315 489 1290 512 1262 C 535 1290 560 1315 588 1339 C 616 1362 646 1385 680 1409 L 813 1352 Z" unicode="" />
<glyph horiz-adv-x="1024" d="M 766 1149 C 744 1131 719 1115 693 1101 C 670 1089 643 1078 613 1068 C 582 1058 549 1053 514 1053 C 478 1053 444 1058 414 1068 C 383 1078 356 1089 333 1101 C 306 1115 282 1131 260 1149 L 365 1257 C 378 1248 393 1240 410 1234 C 423 1228 439 1223 457 1219 C 475 1214 494 1212 514 1212 C 534 1212 553 1214 571 1219 C 589 1223 604 1228 618 1234 C 634 1240 648 1248 662 1257 L 766 1149 Z" unicode="" />
<glyph horiz-adv-x="1024" d="M 618 1159 C 618 1151 614 1140 606 1128 C 598 1116 589 1104 578 1093 C 567 1082 556 1073 544 1065 C 532 1057 521 1053 512 1053 C 504 1053 493 1057 481 1065 C 469 1073 457 1082 446 1093 C 435 1104 426 1116 418 1128 C 410 1140 406 1151 406 1159 C 406 1168 410 1179 418 1191 C 426 1203 435 1215 446 1227 C 457 1238 469 1248 481 1256 C 493 1264 504 1268 512 1268 C 521 1268 532 1264 544 1256 C 556 1248 567 1238 578 1227 C 589 1215 598 1203 606 1191 C 614 1179 618 1168 618 1159 Z" unicode="" />
<glyph horiz-adv-x="1024" d="M 745 1264 C 745 1232 738 1202 726 1174 C 714 1146 697 1121 676 1100 C 654 1079 630 1062 602 1050 C 574 1038 544 1032 512 1032 C 480 1032 450 1038 422 1050 C 394 1062 369 1079 348 1100 C 326 1121 309 1146 297 1174 C 285 1202 279 1232 279 1264 C 279 1296 285 1326 297 1354 C 309 1382 326 1406 348 1427 C 369 1448 394 1465 422 1477 C 450 1489 480 1495 512 1495 C 544 1495 574 1489 602 1477 C 630 1465 654 1448 676 1427 C 697 1406 714 1382 726 1354 C 738 1326 745 1296 745 1264 Z M 612 1264 C 612 1296 602 1322 584 1342 C 566 1362 542 1372 512 1372 C 482 1372 457 1362 438 1342 C 419 1322 410 1296 410 1264 C 410 1232 419 1205 438 1185 C 457 1165 482 1155 512 1155 C 542 1155 566 1165 584 1185 C 602 1205 612 1232 612 1264 Z" unicode="" />
<glyph horiz-adv-x="1024" d="M 698 -330 L 674 -444 C 658 -453 640 -460 620 -465 C 600 -470 575 -473 545 -473 C 515 -473 486 -468 460 -460 C 434 -452 411 -440 391 -424 C 371 -408 355 -388 343 -364 C 331 -340 326 -313 326 -283 C 326 -253 331 -224 343 -196 C 354 -168 369 -141 388 -117 C 407 -93 429 -71 455 -51 C 481 -31 508 -14 537 0 L 696 0 C 665 -15 635 -32 606 -51 C 577 -70 551 -91 529 -113 C 507 -135 489 -160 475 -186 C 461 -212 455 -239 455 -268 C 455 -298 465 -321 487 -337 C 508 -353 537 -362 573 -362 C 600 -362 623 -359 643 -354 C 662 -349 680 -341 698 -330 Z" unicode="" />
<glyph horiz-adv-x="1024" d="M 883 1346 C 868 1320 850 1293 829 1264 C 807 1234 785 1207 763 1182 C 740 1156 718 1135 696 1119 C 674 1102 656 1094 641 1094 C 625 1094 607 1098 587 1107 C 567 1116 548 1126 528 1137 C 508 1148 490 1158 473 1168 C 455 1177 442 1182 432 1182 C 421 1182 409 1177 397 1167 C 384 1157 372 1146 360 1133 C 348 1120 336 1107 326 1093 C 316 1079 307 1067 301 1059 L 172 1116 C 186 1141 203 1168 225 1198 C 246 1227 268 1254 291 1280 C 313 1305 336 1326 358 1343 C 380 1359 398 1368 414 1368 C 430 1368 448 1363 468 1354 C 488 1344 507 1334 527 1323 C 547 1312 565 1302 582 1293 C 599 1284 613 1280 623 1280 C 633 1280 645 1284 657 1294 C 669 1304 682 1315 694 1328 C 706 1341 717 1355 728 1369 C 738 1383 747 1394 754 1403 L 883 1346 Z" unicode="" />
<glyph horiz-adv-x="1024" d="M 930 1331 C 930 1323 926 1315 920 1305 C 914 1295 906 1285 897 1276 C 855 1230 810 1190 762 1154 C 714 1118 664 1085 610 1053 L 483 1108 C 505 1124 528 1143 554 1165 C 579 1187 604 1210 630 1235 C 655 1260 679 1286 703 1312 C 726 1338 747 1365 766 1391 C 774 1403 784 1412 797 1419 C 810 1426 821 1430 829 1430 C 837 1430 846 1426 858 1419 C 870 1411 881 1402 892 1392 C 902 1381 911 1370 919 1359 C 926 1348 930 1339 930 1331 Z M 600 1331 C 600 1323 596 1315 590 1305 C 584 1295 576 1285 567 1276 C 525 1230 480 1190 432 1154 C 384 1118 334 1085 281 1053 L 154 1108 C 176 1124 199 1143 225 1165 C 250 1187 275 1210 300 1235 C 325 1260 349 1286 373 1312 C 396 1338 417 1365 436 1391 C 444 1403 455 1412 468 1419 C 480 1426 491 1430 500 1430 C 508 1430 517 1426 529 1419 C 540 1411 551 1402 562 1392 C 572 1381 581 1370 589 1359 C 596 1348 600 1339 600 1331 Z" unicode="" />
<glyph horiz-adv-x="1024" d="M 700 1075 L 324 1075 L 324 1233 L 700 1233 L 700 1075 Z" unicode="" />
<glyph horiz-adv-x="1536" d="M 76 0 L 652 1536 L 884 1536 L 1456 0 L 76 0 Z M 352 148 L 1164 148 L 752 1256 L 352 148 Z" unicode="" />
<glyph horiz-adv-x="1664" d="M 832 1376 C 706 1376 599 1328 510 1234 C 420 1139 376 1006 376 836 C 376 673 405 538 464 432 C 522 325 609 241 724 180 L 724 0 L 88 0 L 88 196 L 536 196 C 456 225 378 295 304 406 C 229 516 192 664 192 848 C 192 1024 247 1184 358 1330 C 468 1475 626 1548 832 1548 C 1037 1548 1195 1478 1306 1338 C 1416 1198 1472 1034 1472 848 C 1472 664 1434 516 1360 406 C 1285 295 1208 225 1128 196 L 1576 196 L 1576 0 L 940 0 L 940 180 C 1054 241 1141 325 1200 432 C 1258 538 1288 673 1288 836 C 1288 974 1246 1099 1162 1210 C 1078 1320 968 1376 832 1376 Z" unicode="" />
<glyph horiz-adv-x="1408" d="M 252 -424 C 214 -424 186 -413 168 -392 C 149 -370 140 -333 140 -280 C 140 -226 141 -168 144 -106 C 146 -43 150 25 156 100 C 161 166 165 218 168 256 C 170 293 172 317 172 328 C 174 341 176 350 176 356 C 176 361 176 365 176 368 L 176 1176 L 368 1176 L 368 320 C 368 258 395 210 450 176 C 504 141 564 124 628 124 C 716 124 792 146 858 190 C 923 234 973 297 1008 380 L 1008 1176 L 1200 1176 L 1200 308 L 1220 0 L 1056 0 L 1020 176 C 974 104 913 50 836 14 C 758 -22 670 -40 572 -40 C 537 -40 494 -31 444 -14 C 393 3 353 28 324 60 C 324 1 333 -56 352 -112 C 370 -168 380 -218 380 -264 C 380 -370 337 -424 252 -424 Z" unicode="" />
<glyph horiz-adv-x="1408" d="M 296 0 L 296 1028 L 12 1028 L 12 1176 L 1316 1176 L 1316 1028 L 996 1028 L 996 344 C 996 266 1011 213 1042 184 C 1072 154 1109 140 1152 140 C 1184 140 1210 140 1232 142 C 1253 143 1274 148 1296 156 L 1296 28 C 1264 12 1234 0 1206 -6 C 1178 -12 1138 -16 1088 -16 C 1002 -16 935 10 886 64 C 836 117 812 208 812 336 L 812 1028 L 484 1028 L 484 0 L 296 0 Z" unicode="" />
<glyph horiz-adv-x="1024" d="M 1028 399 L 0 399 L 0 526 L 1028 526 L 1028 399 Z" unicode="" />
<glyph horiz-adv-x="2048" d="M 2052 399 L 0 399 L 0 526 L 2052 526 L 2052 399 Z" unicode="" />
<glyph horiz-adv-x="406" d="M 328 961 C 328 949 323 936 314 922 C 304 908 293 894 280 882 C 266 869 253 858 239 850 C 225 842 213 838 203 838 C 194 838 183 842 169 850 C 155 858 141 869 127 881 C 113 893 102 907 92 921 C 82 935 78 949 78 961 C 78 989 83 1020 94 1054 C 105 1088 119 1123 137 1157 C 155 1191 175 1223 197 1254 C 219 1284 240 1310 262 1331 L 328 1319 C 312 1300 298 1280 285 1258 C 272 1236 261 1214 252 1192 C 242 1169 235 1146 230 1124 C 225 1102 223 1081 223 1063 C 233 1061 245 1056 257 1048 C 269 1040 281 1031 291 1021 C 301 1011 310 1000 317 989 C 324 978 328 969 328 961 Z" unicode="" />
<glyph horiz-adv-x="406" d="M 328 1210 C 328 1182 322 1150 311 1116 C 299 1082 285 1048 267 1014 C 249 980 230 947 208 917 C 186 886 164 860 143 840 L 78 852 C 93 870 107 890 120 912 C 132 934 143 956 153 979 C 162 1001 169 1024 174 1046 C 179 1068 182 1088 182 1108 C 171 1110 159 1115 147 1123 C 135 1131 123 1140 113 1150 C 103 1160 94 1170 88 1181 C 81 1192 78 1202 78 1210 C 78 1221 82 1234 92 1248 C 101 1262 112 1276 126 1288 C 139 1300 153 1311 167 1320 C 181 1328 193 1333 203 1333 C 211 1333 223 1328 237 1320 C 251 1312 264 1301 278 1289 C 292 1276 303 1263 313 1249 C 323 1235 328 1222 328 1210 Z" unicode="" />
<glyph horiz-adv-x="406" d="M 328 102 C 328 74 322 42 311 8 C 299 -25 285 -60 267 -94 C 249 -128 230 -160 208 -191 C 186 -221 164 -247 143 -268 L 78 -256 C 93 -237 107 -217 120 -195 C 132 -173 143 -151 153 -129 C 162 -106 169 -84 174 -62 C 179 -40 182 -19 182 0 C 171 2 159 7 147 15 C 135 23 123 32 113 42 C 103 52 94 62 88 73 C 81 84 78 94 78 102 C 78 113 82 126 92 140 C 101 154 112 168 126 180 C 139 192 153 203 167 212 C 181 220 193 225 203 225 C 211 225 223 220 237 212 C 251 204 264 193 278 181 C 292 169 303 155 313 141 C 323 127 328 114 328 102 Z" unicode="" />
<glyph horiz-adv-x="758" d="M 680 961 C 680 949 675 936 666 922 C 656 908 645 894 632 882 C 618 869 605 858 591 850 C 577 842 565 838 555 838 C 546 838 535 842 521 850 C 507 858 493 869 479 881 C 465 893 454 907 444 921 C 434 935 430 949 430 961 C 430 989 435 1020 446 1054 C 457 1088 471 1123 489 1157 C 507 1191 527 1223 549 1254 C 571 1284 592 1310 614 1331 L 680 1319 C 664 1300 650 1280 637 1258 C 624 1236 613 1214 604 1192 C 594 1169 587 1146 582 1124 C 577 1102 575 1081 575 1063 C 585 1061 597 1056 609 1048 C 621 1040 633 1031 643 1021 C 653 1011 662 1000 669 989 C 676 978 680 969 680 961 Z M 328 961 C 328 949 323 936 314 922 C 304 908 293 894 280 882 C 266 869 253 858 239 850 C 225 842 213 838 203 838 C 194 838 183 842 169 850 C 155 858 141 869 127 881 C 113 893 102 907 92 921 C 82 935 78 949 78 961 C 78 989 83 1020 94 1054 C 105 1088 119 1123 137 1157 C 155 1191 175 1223 197 1254 C 219 1284 240 1310 262 1331 L 328 1319 C 312 1300 298 1280 285 1258 C 272 1236 261 1214 252 1192 C 242 1169 235 1146 230 1124 C 225 1102 223 1081 223 1063 C 233 1061 245 1056 257 1048 C 269 1040 281 1031 291 1021 C 301 1011 310 1000 317 989 C 324 978 328 969 328 961 Z" unicode="" />
<glyph horiz-adv-x="758" d="M 680 1210 C 680 1182 674 1150 663 1116 C 652 1082 638 1048 620 1014 C 602 980 583 947 561 917 C 539 886 517 860 496 840 L 430 852 C 445 870 459 890 472 912 C 485 934 496 956 506 979 C 515 1001 522 1024 527 1046 C 532 1068 535 1088 535 1108 C 524 1110 512 1115 500 1123 C 488 1131 476 1140 466 1150 C 456 1160 447 1170 440 1181 C 433 1192 430 1202 430 1210 C 430 1221 434 1234 444 1248 C 453 1262 464 1276 478 1288 C 491 1300 505 1311 519 1320 C 533 1328 545 1333 555 1333 C 563 1333 575 1328 589 1320 C 603 1312 616 1301 630 1289 C 644 1276 655 1263 665 1249 C 675 1235 680 1222 680 1210 Z M 328 1210 C 328 1182 322 1150 311 1116 C 299 1082 285 1048 267 1014 C 249 980 230 947 208 917 C 186 886 164 860 143 840 L 78 852 C 93 870 107 890 120 912 C 132 934 143 956 153 979 C 162 1001 169 1024 174 1046 C 179 1068 182 1088 182 1108 C 171 1110 159 1115 147 1123 C 135 1131 123 1140 113 1150 C 103 1160 94 1170 88 1181 C 81 1192 78 1202 78 1210 C 78 1221 82 1234 92 1248 C 101 1262 112 1276 126 1288 C 139 1300 153 1311 167 1320 C 181 1328 193 1333 203 1333 C 211 1333 223 1328 237 1320 C 251 1312 264 1301 278 1289 C 292 1276 303 1263 313 1249 C 323 1235 328 1222 328 1210 Z" unicode="" />
<glyph horiz-adv-x="758" d="M 680 102 C 680 74 674 42 663 8 C 652 -25 638 -60 620 -94 C 602 -128 583 -160 561 -191 C 539 -221 517 -247 496 -268 L 430 -256 C 445 -237 459 -217 472 -195 C 485 -173 496 -151 506 -129 C 515 -106 522 -84 527 -62 C 532 -40 535 -19 535 0 C 524 2 512 7 500 15 C 488 23 476 32 466 42 C 456 52 447 62 440 73 C 433 84 430 94 430 102 C 430 113 434 126 444 140 C 453 154 464 168 478 180 C 491 192 505 203 519 212 C 533 220 545 225 555 225 C 563 225 575 220 589 212 C 603 204 616 193 630 181 C 644 169 655 155 665 141 C 675 127 680 114 680 102 Z M 328 102 C 328 74 322 42 311 8 C 299 -25 285 -60 267 -94 C 249 -128 230 -160 208 -191 C 186 -221 164 -247 143 -268 L 78 -256 C 93 -237 107 -217 120 -195 C 132 -173 143 -151 153 -129 C 162 -106 169 -84 174 -62 C 179 -40 182 -19 182 0 C 171 2 159 7 147 15 C 135 23 123 32 113 42 C 103 52 94 62 88 73 C 81 84 78 94 78 102 C 78 113 82 126 92 140 C 101 154 112 168 126 180 C 139 192 153 203 167 212 C 181 220 193 225 203 225 C 211 225 223 220 237 212 C 251 204 264 193 278 181 C 292 169 303 155 313 141 C 323 127 328 114 328 102 Z" unicode="" />
<glyph horiz-adv-x="809" d="M 727 760 L 492 797 L 461 -473 L 348 -473 L 319 797 L 82 760 L 82 946 L 315 909 L 311 1141 L 500 1141 L 496 909 L 727 946 L 727 760 Z" unicode="" />
<glyph horiz-adv-x="809" d="M 727 -279 L 496 -242 L 500 -473 L 311 -473 L 315 -242 L 82 -279 L 82 -92 L 319 -129 L 330 334 L 319 797 L 82 760 L 82 946 L 315 909 L 311 1141 L 500 1141 L 496 909 L 727 946 L 727 760 L 492 797 L 481 334 L 492 -129 L 727 -92 L 727 -279 Z" unicode="" />
<glyph horiz-adv-x="768" d="M 686 567 C 686 523 678 482 663 446 C 647 410 626 378 599 352 C 572 326 540 305 504 291 C 467 277 427 270 385 270 C 342 270 302 277 266 291 C 229 305 197 326 170 352 C 142 378 121 410 105 446 C 89 482 82 523 82 567 C 82 611 89 652 105 689 C 121 725 142 757 170 783 C 197 809 229 830 266 844 C 302 858 342 866 385 866 C 427 866 467 858 504 844 C 540 830 572 809 599 783 C 626 757 647 725 663 689 C 678 652 686 611 686 567 Z" unicode="" />
<glyph horiz-adv-x="1219" d="M 1141 102 C 1141 92 1136 79 1127 65 C 1117 51 1106 37 1093 24 C 1080 11 1066 0 1052 -9 C 1037 -18 1024 -23 1014 -23 C 1004 -23 991 -18 977 -9 C 963 0 949 11 936 24 C 923 37 912 51 903 65 C 893 79 889 92 889 102 C 889 112 893 124 903 138 C 912 152 923 165 936 178 C 949 191 963 202 977 211 C 991 220 1004 225 1014 225 C 1024 225 1037 220 1052 211 C 1066 202 1080 191 1093 178 C 1106 165 1117 152 1127 138 C 1136 124 1141 112 1141 102 Z M 733 102 C 733 92 728 79 719 65 C 709 51 698 37 685 24 C 672 11 658 0 644 -9 C 630 -18 618 -23 608 -23 C 597 -23 584 -18 570 -9 C 556 0 542 11 529 24 C 516 37 505 51 496 65 C 487 79 483 92 483 102 C 483 112 487 124 496 138 C 505 152 516 165 529 178 C 542 191 556 202 570 211 C 584 220 597 225 608 225 C 618 225 630 220 644 211 C 658 202 672 191 685 178 C 698 165 709 152 719 138 C 728 124 733 112 733 102 Z M 328 102 C 328 92 323 79 314 65 C 304 51 293 37 280 24 C 267 11 253 0 239 -9 C 225 -18 213 -23 203 -23 C 193 -23 180 -18 166 -9 C 152 0 138 11 125 24 C 112 37 101 51 92 65 C 82 79 78 92 78 102 C 78 112 82 124 92 138 C 101 152 112 165 125 178 C 138 191 152 202 166 211 C 180 220 193 225 203 225 C 213 225 225 220 239 211 C 253 202 267 191 280 178 C 293 165 304 152 314 138 C 323 124 328 112 328 102 Z" unicode="" />
<glyph horiz-adv-x="2165" d="M 2089 270 C 2089 226 2081 185 2067 149 C 2052 113 2031 82 2005 56 C 1979 30 1948 10 1912 -3 C 1876 -17 1838 -25 1796 -25 C 1754 -25 1716 -17 1680 -3 C 1644 10 1614 30 1588 56 C 1562 82 1541 113 1527 149 C 1512 185 1505 226 1505 270 C 1505 312 1512 351 1527 387 C 1541 423 1562 454 1588 480 C 1614 506 1644 526 1680 541 C 1716 555 1754 563 1796 563 C 1838 563 1876 555 1912 541 C 1948 526 1979 506 2005 480 C 2031 454 2052 423 2067 387 C 2081 351 2089 312 2089 270 Z M 1937 270 C 1937 292 1933 313 1925 331 C 1917 349 1907 365 1895 378 C 1882 391 1867 401 1850 408 C 1832 414 1814 418 1796 418 C 1776 418 1758 414 1741 408 C 1724 401 1709 391 1697 378 C 1684 365 1674 349 1667 331 C 1660 313 1657 292 1657 270 C 1657 246 1660 225 1667 206 C 1674 186 1684 170 1697 157 C 1709 143 1724 133 1741 126 C 1758 118 1776 115 1796 115 C 1814 115 1832 118 1850 126 C 1867 133 1882 143 1895 157 C 1907 170 1917 186 1925 206 C 1933 225 1937 246 1937 270 Z M 1350 270 C 1350 226 1342 185 1328 149 C 1313 113 1293 82 1267 56 C 1241 30 1210 10 1174 -3 C 1138 -17 1100 -25 1059 -25 C 1017 -25 978 -17 942 -3 C 906 10 875 30 849 56 C 823 82 802 113 788 149 C 773 185 766 226 766 270 C 766 312 773 351 788 387 C 802 423 823 454 849 480 C 875 506 906 526 942 541 C 978 555 1017 563 1059 563 C 1100 563 1138 555 1174 541 C 1210 526 1241 506 1267 480 C 1293 454 1313 423 1328 387 C 1342 351 1350 312 1350 270 Z M 1198 270 C 1198 292 1194 313 1187 331 C 1179 349 1169 365 1157 378 C 1144 391 1129 401 1112 408 C 1095 414 1077 418 1059 418 C 1039 418 1021 414 1004 408 C 986 401 971 391 959 378 C 946 365 936 349 929 331 C 921 313 918 292 918 270 C 918 246 921 225 929 206 C 936 186 946 170 959 157 C 971 143 986 133 1004 126 C 1021 118 1039 115 1059 115 C 1077 115 1095 118 1112 126 C 1129 133 1144 143 1157 157 C 1169 170 1179 186 1187 206 C 1194 225 1198 246 1198 270 Z M 1292 1282 L 217 -49 L 127 27 L 1202 1358 L 1292 1282 Z M 655 1040 C 655 996 647 955 633 919 C 618 883 597 852 571 826 C 545 800 514 780 478 766 C 442 752 404 745 362 745 C 320 745 282 752 247 766 C 211 780 181 800 155 826 C 129 852 108 883 94 919 C 79 955 72 996 72 1040 C 72 1082 79 1122 94 1158 C 108 1194 129 1225 155 1251 C 181 1277 211 1297 247 1311 C 282 1325 320 1333 362 1333 C 404 1333 442 1325 478 1311 C 514 1297 545 1277 571 1251 C 597 1225 618 1194 633 1158 C 647 1122 655 1082 655 1040 Z M 504 1040 C 504 1063 500 1084 492 1102 C 484 1120 474 1136 461 1149 C 448 1162 433 1172 416 1179 C 398 1186 380 1190 362 1190 C 342 1190 324 1186 307 1179 C 290 1172 275 1162 263 1149 C 251 1136 241 1120 234 1102 C 226 1084 223 1063 223 1040 C 223 1016 226 995 234 976 C 241 957 251 941 263 928 C 275 914 290 904 307 897 C 324 890 342 887 362 887 C 380 887 398 890 416 897 C 433 904 448 914 461 928 C 474 941 484 957 492 976 C 500 995 504 1016 504 1040 Z" unicode="" />
<glyph horiz-adv-x="432" d="M 354 215 L 328 154 C 312 173 295 194 276 216 C 256 238 236 261 214 283 C 192 305 169 327 145 348 C 121 369 98 388 76 406 C 65 414 56 423 50 435 C 44 446 41 455 41 463 C 41 470 44 479 50 491 C 56 502 65 512 76 520 C 98 536 121 555 145 577 C 169 598 192 620 214 642 C 236 664 256 687 276 709 C 295 731 312 752 328 772 L 354 711 C 336 667 318 624 299 583 C 280 542 259 502 236 463 C 259 423 280 383 299 342 C 318 301 336 259 354 215 Z" unicode="" />
<glyph horiz-adv-x="432" d="M 391 463 C 391 455 387 446 381 435 C 375 423 366 414 356 406 C 332 388 309 369 285 348 C 261 327 239 305 217 283 C 195 261 174 238 155 216 C 135 194 118 173 104 154 L 78 215 C 94 259 112 301 131 342 C 149 383 171 423 197 463 C 171 502 149 542 131 583 C 112 624 94 667 78 711 L 104 772 C 118 752 135 731 155 709 C 174 687 195 664 217 642 C 239 620 261 598 285 577 C 309 555 332 536 356 520 C 366 512 375 502 381 491 C 387 479 391 470 391 463 Z" unicode="" />
<glyph horiz-adv-x="1288" d="M 1227 1282 L 152 -49 L 61 27 L 1137 1358 L 1227 1282 Z" unicode="" />
<glyph horiz-adv-x="1001" d="M 715 596 L 694 485 L 375 485 C 386 425 403 373 425 330 C 447 287 472 252 501 224 C 530 196 561 176 595 164 C 628 151 662 145 696 145 C 738 145 775 149 807 157 C 839 165 868 176 895 190 L 877 20 C 866 13 853 7 838 3 C 823 -1 807 -5 790 -8 C 772 -11 754 -13 736 -15 C 717 -17 698 -18 680 -18 C 622 -18 567 -7 513 12 C 459 32 410 63 366 105 C 322 146 284 198 252 262 C 220 325 197 399 184 485 L 20 485 L 20 596 L 174 596 C 174 605 173 614 173 624 C 172 633 172 643 172 653 C 172 664 172 675 172 686 C 172 697 172 708 174 719 L 20 719 L 20 829 L 186 829 C 200 911 223 984 255 1046 C 287 1108 325 1160 369 1201 C 413 1242 462 1273 516 1294 C 569 1314 624 1325 680 1325 C 710 1325 736 1323 760 1320 C 784 1317 805 1313 824 1308 C 843 1302 860 1296 876 1290 C 892 1283 906 1276 920 1270 L 887 1108 C 862 1124 833 1137 801 1146 C 769 1154 733 1159 694 1159 C 658 1159 624 1152 591 1140 C 557 1127 527 1107 499 1081 C 471 1054 446 1020 425 978 C 404 936 388 887 377 829 L 733 829 L 713 719 L 362 719 C 360 707 360 696 360 685 C 360 673 360 662 360 651 C 360 641 360 632 361 623 C 361 614 362 605 362 596 L 715 596 Z" unicode="" />
<glyph horiz-adv-x="852" d="M 782 928 L 711 928 L 692 1145 L 578 928 L 551 928 L 440 1141 L 424 928 L 354 928 L 385 1307 L 434 1307 L 569 1044 L 700 1307 L 752 1307 L 782 928 Z M 330 1241 L 221 1241 L 221 928 L 150 928 L 150 1241 L 41 1241 L 41 1307 L 330 1307 L 330 1241 Z" unicode="" />
<glyph horiz-adv-x="1664" d="M 832 1376 C 706 1376 599 1328 510 1234 C 420 1139 376 1006 376 836 C 376 673 405 538 464 432 C 522 325 609 241 724 180 L 724 0 L 88 0 L 88 196 L 536 196 C 456 225 378 295 304 406 C 229 516 192 664 192 848 C 192 1024 247 1184 358 1330 C 468 1475 626 1548 832 1548 C 1037 1548 1195 1478 1306 1338 C 1416 1198 1472 1034 1472 848 C 1472 664 1434 516 1360 406 C 1285 295 1208 225 1128 196 L 1576 196 L 1576 0 L 940 0 L 940 180 C 1054 241 1141 325 1200 432 C 1258 538 1288 673 1288 836 C 1288 974 1246 1099 1162 1210 C 1078 1320 968 1376 832 1376 Z" unicode="" />
<glyph horiz-adv-x="1280" d="M 476 -32 C 342 -32 239 5 166 80 C 92 154 56 248 56 360 C 56 506 108 636 214 750 C 319 863 449 920 604 920 C 668 920 734 908 802 886 C 870 863 924 840 964 816 C 972 872 976 928 976 984 C 976 1109 953 1207 908 1278 C 862 1348 800 1384 720 1384 C 634 1384 567 1374 518 1356 C 468 1337 418 1312 368 1280 L 324 1444 C 374 1473 430 1498 492 1518 C 553 1538 629 1548 720 1548 C 877 1548 992 1496 1064 1394 C 1136 1291 1172 1149 1172 968 C 1172 690 1104 454 968 260 C 832 65 668 -32 476 -32 Z M 488 128 C 602 128 698 174 774 268 C 850 361 906 500 944 684 C 922 705 882 726 824 748 C 765 769 706 780 648 780 C 520 780 424 738 360 654 C 296 570 264 476 264 372 C 264 300 282 241 318 196 C 354 150 410 128 488 128 Z" unicode="" />
<glyph horiz-adv-x="1536" d="M 76 0 L 652 1536 L 884 1536 L 1456 0 L 76 0 Z M 352 148 L 1164 148 L 752 1256 L 352 148 Z" unicode="" />
<glyph horiz-adv-x="983" d="M 911 918 C 911 856 900 800 878 750 C 856 699 827 655 789 618 C 751 581 706 552 655 532 C 604 512 550 502 492 502 C 432 502 377 512 326 532 C 274 552 230 581 192 618 C 154 655 125 699 104 750 C 82 800 72 856 72 918 C 72 978 82 1034 104 1085 C 125 1136 154 1180 192 1217 C 230 1253 274 1282 326 1302 C 377 1322 432 1333 492 1333 C 550 1333 604 1322 655 1302 C 706 1282 751 1253 789 1217 C 827 1180 856 1136 878 1085 C 900 1034 911 978 911 918 Z M 817 918 C 817 966 808 1011 792 1052 C 775 1092 752 1127 723 1157 C 694 1186 660 1209 620 1225 C 580 1241 538 1249 492 1249 C 444 1249 400 1241 360 1225 C 320 1209 285 1186 256 1157 C 226 1127 203 1092 187 1052 C 170 1011 162 966 162 918 C 162 868 170 823 187 783 C 203 742 226 707 256 678 C 285 648 320 626 360 610 C 400 594 444 586 492 586 C 538 586 580 594 620 610 C 660 626 694 648 723 678 C 752 707 775 742 792 783 C 808 823 817 868 817 918 Z M 690 1018 C 690 993 685 971 675 952 C 665 932 653 916 637 903 C 621 889 603 879 583 872 C 563 865 542 862 522 862 L 463 862 L 463 662 L 365 662 L 365 1174 L 522 1174 C 542 1174 563 1170 583 1163 C 603 1155 621 1145 637 1132 C 653 1118 665 1102 675 1083 C 685 1063 690 1042 690 1018 Z M 594 1018 C 594 1039 586 1056 571 1068 C 555 1080 535 1087 510 1087 L 463 1087 L 463 948 L 510 948 C 535 948 555 954 571 967 C 586 979 594 996 594 1018 Z" unicode="" />
<glyph horiz-adv-x="1152" d="M 1084 1524 L 1084 1344 L 332 1344 L 796 784 L 304 188 L 1080 188 L 1080 0 L 40 0 L 40 172 L 560 788 L 68 1380 L 68 1524 L 1084 1524 Z" unicode="" />
<glyph horiz-adv-x="821" d="M 705 492 L 117 492 L 117 627 L 705 627 L 705 492 Z" unicode="" />
<glyph horiz-adv-x="1288" d="M 1227 1282 L 152 -49 L 61 27 L 1137 1358 L 1227 1282 Z" unicode="" />
<glyph horiz-adv-x="406" d="M 328 555 C 328 545 323 532 314 518 C 304 504 293 490 280 477 C 267 464 253 453 239 444 C 225 434 213 430 203 430 C 193 430 180 434 166 444 C 152 453 138 464 125 477 C 112 490 101 504 92 518 C 82 532 78 545 78 555 C 78 565 82 577 92 591 C 101 605 112 618 125 631 C 138 644 152 655 166 664 C 180 673 193 678 203 678 C 213 678 225 673 239 664 C 253 655 267 644 280 631 C 293 618 304 605 314 591 C 323 577 328 565 328 555 Z" unicode="" />
<glyph horiz-adv-x="1145" d="M 1120 1296 L 956 1296 L 412 -16 L 336 -16 L 147 442 L 33 442 L 57 621 L 262 621 L 344 420 C 350 403 356 387 362 371 C 368 355 375 338 381 319 L 385 319 C 395 345 406 373 418 405 C 430 437 442 469 456 503 C 469 537 482 570 496 604 C 509 637 522 668 535 698 L 848 1458 L 1120 1458 L 1120 1296 Z" unicode="" />
<glyph horiz-adv-x="1536" d="M 468 1216 C 566 1216 646 1188 706 1134 C 766 1079 813 981 848 840 C 853 720 877 642 920 608 C 962 573 1013 556 1072 556 C 1128 556 1176 579 1218 626 C 1259 672 1280 736 1280 816 C 1280 882 1264 940 1234 988 C 1203 1036 1152 1060 1080 1060 C 1008 1060 954 1029 920 968 C 885 906 857 834 836 752 C 809 648 760 562 688 496 C 616 429 533 396 440 396 C 336 396 252 433 190 508 C 127 582 96 682 96 808 C 96 925 133 1022 208 1100 C 282 1177 369 1216 468 1216 Z M 1072 396 C 973 396 896 424 840 482 C 784 539 741 633 712 764 C 685 870 652 944 614 986 C 575 1027 528 1048 472 1048 C 408 1048 356 1026 316 982 C 276 938 256 874 256 792 C 256 709 271 648 302 610 C 332 571 381 552 448 552 C 509 552 562 576 608 624 C 653 672 689 752 716 864 C 748 984 796 1072 860 1130 C 924 1187 1004 1216 1100 1216 C 1198 1216 1280 1181 1346 1112 C 1411 1042 1444 945 1444 820 C 1444 700 1409 599 1340 518 C 1270 436 1181 396 1072 396 Z" unicode="" />
<glyph horiz-adv-x="1152" d="M -8 -392 L 56 -260 C 72 -265 88 -270 104 -274 C 120 -278 140 -280 164 -280 C 196 -280 222 -268 242 -246 C 262 -223 277 -178 288 -112 L 516 1224 C 534 1330 574 1410 636 1464 C 697 1517 778 1544 880 1544 C 941 1544 995 1536 1042 1522 C 1088 1507 1125 1492 1152 1476 L 1088 1304 C 1058 1322 1025 1340 988 1356 C 950 1372 910 1380 868 1380 C 806 1380 760 1360 730 1322 C 699 1283 680 1238 672 1188 L 448 -224 C 434 -296 402 -348 350 -382 C 298 -415 240 -432 176 -432 C 136 -432 99 -428 66 -420 C 32 -412 8 -402 -8 -392 Z" unicode="" />
<glyph horiz-adv-x="1536" d="M 236 400 C 230 429 228 456 228 480 C 228 546 248 604 288 652 C 328 700 390 724 476 724 C 542 724 600 714 650 696 C 699 677 745 659 788 642 C 830 624 872 610 912 598 C 952 586 988 580 1020 580 C 1070 580 1106 590 1128 610 C 1149 630 1160 654 1160 684 C 1160 694 1158 705 1156 716 L 1300 716 C 1305 686 1308 660 1308 636 C 1308 569 1288 512 1248 464 C 1208 416 1145 392 1060 392 C 993 392 935 400 886 418 C 836 435 790 452 748 470 C 705 487 664 501 624 512 C 584 522 548 528 516 528 C 465 528 429 518 408 500 C 386 481 376 458 376 432 C 376 421 377 410 380 400 L 236 400 Z M 236 860 C 230 889 228 916 228 940 C 228 1006 248 1064 288 1112 C 328 1160 390 1184 476 1184 C 542 1184 600 1174 650 1156 C 699 1137 745 1119 788 1102 C 830 1084 872 1070 912 1058 C 952 1046 988 1040 1020 1040 C 1070 1040 1106 1050 1128 1070 C 1149 1090 1160 1114 1160 1144 C 1160 1154 1158 1165 1156 1176 L 1300 1176 C 1305 1146 1308 1120 1308 1096 C 1308 1029 1288 972 1248 924 C 1208 876 1145 852 1060 852 C 993 852 935 860 886 878 C 836 895 790 912 748 930 C 705 947 664 961 624 972 C 584 982 548 988 516 988 C 465 988 429 978 408 960 C 386 941 376 918 376 892 C 376 881 377 870 380 860 L 236 860 Z" unicode="" />
<glyph horiz-adv-x="1536" d="M 212 404 L 212 604 L 1328 604 L 1328 404 L 212 404 Z M 212 976 L 212 1176 L 1328 1176 L 1328 976 L 212 976 Z M 548 188 L 372 188 L 996 1356 L 1168 1356 L 548 188 Z" unicode="" />
<glyph horiz-adv-x="930" d="M 848 205 L 82 459 L 82 678 L 848 932 L 848 764 L 231 567 L 848 373 L 848 205 Z M 848 0 L 82 0 L 82 160 L 848 160 L 848 0 Z" unicode="" />
<glyph horiz-adv-x="930" d="M 848 459 L 82 205 L 82 373 L 698 567 L 82 764 L 82 932 L 848 678 L 848 459 Z M 848 0 L 82 0 L 82 160 L 848 160 L 848 0 Z" unicode="" />
<glyph horiz-adv-x="1198" d="M 1044 567 L 588 113 L 133 567 L 588 1022 L 1044 567 Z M 872 567 L 588 850 L 305 567 L 588 283 L 872 567 Z" unicode="" />
<glyph horiz-adv-x="1229" d="M 1161 313 C 1161 294 1157 277 1150 263 C 1143 249 1134 237 1123 228 C 1112 218 1100 211 1087 206 C 1073 201 1060 199 1047 199 L 1047 0 L 80 0 L 80 928 L 1047 928 L 1047 428 L 1161 313 Z M 987 483 L 987 786 L 684 786 L 987 483 Z M 457 786 L 139 786 C 139 764 143 743 151 724 C 159 705 171 688 185 674 C 199 660 215 649 235 641 C 254 633 275 629 297 629 C 319 629 339 633 359 641 C 378 649 395 660 410 674 C 424 688 436 705 444 724 C 452 743 457 764 457 786 Z M 987 59 L 987 223 L 209 590 C 195 596 183 603 172 613 C 160 622 149 633 139 645 L 139 59 L 987 59 Z" unicode="" />
<glyph horiz-adv-x="1282" d="M 1350 1427 L 1313 1272 C 1291 1281 1269 1288 1245 1294 C 1221 1300 1198 1303 1178 1303 C 1104 1303 1050 1281 1014 1238 C 978 1194 961 1131 961 1047 L 961 928 L 1229 928 L 1198 778 L 961 778 L 961 0 L 774 0 L 774 778 L 365 778 L 365 0 L 178 0 L 178 778 L 20 778 L 20 928 L 178 928 L 178 1057 C 178 1122 187 1180 205 1230 C 223 1280 249 1321 283 1355 C 317 1389 358 1414 406 1432 C 454 1449 509 1458 569 1458 C 633 1458 692 1448 745 1430 C 798 1411 845 1388 885 1362 C 919 1394 959 1418 1006 1434 C 1053 1450 1106 1458 1165 1458 C 1201 1458 1234 1455 1265 1450 C 1296 1445 1324 1437 1350 1427 Z M 799 1221 C 765 1249 729 1269 691 1283 C 652 1296 616 1303 582 1303 C 508 1303 454 1281 418 1238 C 382 1194 365 1131 365 1047 L 365 928 L 774 928 L 774 1057 C 774 1087 776 1116 780 1144 C 784 1172 790 1197 799 1221 Z" unicode="" />
<glyph horiz-adv-x="1073" d="M 961 0 L 774 0 L 774 778 L 365 778 L 365 0 L 178 0 L 178 778 L 20 778 L 20 928 L 178 928 L 178 1057 C 178 1122 187 1180 205 1230 C 223 1280 249 1321 283 1355 C 317 1389 358 1414 406 1432 C 454 1449 509 1458 569 1458 C 605 1458 638 1455 670 1450 C 701 1445 729 1437 754 1427 L 717 1272 C 695 1281 673 1288 649 1294 C 625 1300 602 1303 582 1303 C 508 1303 454 1281 418 1238 C 382 1194 365 1131 365 1047 L 365 928 L 961 928 L 961 0 Z" unicode="" />
<glyph horiz-adv-x="1126" d="M 1085 90 L 958 -37 C 942 -33 924 -25 903 -15 C 882 -4 862 10 843 30 C 823 50 807 75 794 106 C 780 136 774 174 774 219 L 774 1235 C 749 1255 719 1272 684 1284 C 648 1296 614 1303 582 1303 C 508 1303 454 1281 418 1238 C 382 1194 365 1131 365 1047 L 365 928 L 571 928 L 571 778 L 365 778 L 365 0 L 178 0 L 178 778 L 20 778 L 20 928 L 178 928 L 178 1057 C 178 1122 187 1180 205 1230 C 223 1280 249 1321 283 1355 C 317 1389 358 1414 406 1432 C 454 1449 509 1458 569 1458 C 613 1458 654 1453 693 1444 C 731 1435 767 1423 800 1409 C 833 1394 863 1377 890 1359 C 917 1340 941 1321 961 1303 L 961 244 C 961 222 964 203 972 185 C 980 167 990 151 1002 138 C 1014 125 1027 114 1042 106 C 1056 98 1071 92 1085 90 Z" unicode="" />
<glyph horiz-adv-x="1669" d="M 1556 0 L 1370 0 L 1370 778 L 961 778 L 961 0 L 774 0 L 774 778 L 365 778 L 365 0 L 178 0 L 178 778 L 20 778 L 20 928 L 178 928 L 178 1057 C 178 1122 187 1180 205 1230 C 223 1280 249 1321 283 1355 C 317 1389 358 1414 406 1432 C 454 1449 509 1458 569 1458 C 633 1458 692 1448 745 1430 C 798 1411 845 1388 885 1362 C 919 1394 959 1418 1006 1434 C 1053 1450 1106 1458 1165 1458 C 1201 1458 1234 1455 1265 1450 C 1296 1445 1324 1437 1350 1427 L 1313 1272 C 1291 1281 1269 1288 1245 1294 C 1221 1300 1198 1303 1178 1303 C 1104 1303 1050 1281 1014 1238 C 978 1194 961 1131 961 1047 L 961 928 L 1556 928 L 1556 0 Z M 799 1221 C 765 1249 729 1269 691 1283 C 652 1296 616 1303 582 1303 C 508 1303 454 1281 418 1238 C 382 1194 365 1131 365 1047 L 365 928 L 774 928 L 774 1057 C 774 1087 776 1116 780 1144 C 784 1172 790 1197 799 1221 Z" unicode="" />
</font>
</defs>
</svg>
