<?xml version="1.0" encoding="utf-8" ?><svg version="1.1" xmlns = 'http://www.w3.org/2000/svg'><defs><font id='web' horiz-adv-x="1000">
<font-face font-family="web" descent="-473" cap-height="1307" units-per-em="2048" bbox="-307,-483,2054,1905" x-height="928" ascent="1458" />
<missing-glyph horiz-adv-x="471" d="" /><glyph horiz-adv-x="471" d="" unicode=" " />
<glyph horiz-adv-x="547" d="M 520 1307 L 324 373 L 176 408 L 301 1307 L 520 1307 Z M 328 98 C 328 88 322 76 311 62 C 300 48 287 34 272 22 C 257 9 242 -1 226 -10 C 210 -18 198 -23 188 -23 C 178 -23 166 -18 153 -9 C 140 0 128 11 117 25 C 106 38 97 52 89 66 C 81 80 78 92 78 102 C 78 112 83 124 93 138 C 103 152 116 166 131 179 C 145 191 160 202 176 211 C 192 220 205 225 215 225 C 225 225 236 220 250 211 C 263 201 275 190 287 177 C 298 163 308 149 316 135 C 324 120 328 108 328 98 Z" unicode="!" />
<glyph horiz-adv-x="641" d="M 698 1307 L 582 838 L 483 838 L 532 1307 L 698 1307 Z M 383 1307 L 264 838 L 166 838 L 217 1307 L 383 1307 Z" unicode="&#x22;" />
<glyph horiz-adv-x="770" d="M 850 1307 L 719 895 L 811 895 L 811 776 L 680 776 L 600 530 L 727 530 L 727 412 L 561 412 L 430 0 L 297 0 L 428 412 L 233 412 L 102 0 L -31 0 L 100 412 L 8 412 L 8 530 L 139 530 L 219 776 L 92 776 L 92 895 L 258 895 L 389 1307 L 522 1307 L 391 895 L 586 895 L 717 1307 L 850 1307 Z M 547 776 L 352 776 L 272 530 L 467 530 L 547 776 Z" unicode="#" />
<glyph horiz-adv-x="952" d="M 911 1247 L 846 1096 C 812 1115 777 1130 740 1141 C 703 1151 660 1157 610 1157 C 580 1157 551 1152 521 1144 C 491 1135 463 1122 438 1105 C 413 1088 393 1067 377 1042 C 361 1017 354 988 354 956 C 354 918 368 884 396 854 C 424 824 469 797 532 772 C 578 752 620 730 658 706 C 696 681 728 653 755 623 C 782 593 803 560 818 524 C 832 488 840 450 840 410 C 840 350 829 295 807 247 C 785 198 755 156 718 121 C 680 85 636 57 586 35 C 536 13 482 0 426 -6 L 393 -199 L 276 -199 L 309 -10 C 250 -6 196 3 146 19 C 96 35 51 59 10 90 L 80 252 C 111 225 149 202 194 183 C 238 163 292 154 356 154 C 388 154 422 158 457 168 C 492 177 524 191 553 210 C 581 229 605 253 623 281 C 641 309 651 343 651 381 C 651 425 635 466 603 505 C 571 543 523 574 461 598 C 365 634 293 679 243 734 C 193 788 168 853 168 928 C 168 982 177 1031 197 1076 C 217 1120 244 1159 278 1192 C 312 1225 351 1252 397 1273 C 442 1294 491 1308 543 1315 L 578 1509 L 694 1509 L 659 1319 C 705 1317 749 1310 792 1299 C 834 1287 874 1270 911 1247 Z" unicode="$" />
<glyph horiz-adv-x="1425" d="M 756 1087 C 756 1040 746 996 726 955 C 706 913 680 877 648 846 C 615 815 577 790 535 772 C 493 754 449 745 403 745 C 367 745 333 751 303 763 C 272 775 245 791 223 813 C 201 834 183 860 171 890 C 158 920 152 954 152 991 C 152 1037 161 1081 181 1123 C 201 1165 227 1201 260 1232 C 292 1263 330 1288 372 1306 C 414 1324 458 1333 504 1333 C 540 1333 573 1327 604 1315 C 635 1303 662 1287 684 1265 C 706 1243 724 1217 737 1187 C 749 1157 756 1123 756 1087 Z M 1430 1278 L 121 -53 L 37 31 L 1346 1362 L 1430 1278 Z M 1315 317 C 1315 270 1305 226 1285 185 C 1265 143 1239 107 1207 76 C 1174 45 1136 20 1094 2 C 1052 -15 1008 -25 963 -25 C 926 -25 892 -19 862 -7 C 831 5 804 21 782 43 C 760 64 742 90 730 120 C 717 150 711 184 711 221 C 711 267 720 311 740 353 C 760 395 786 431 819 462 C 851 493 889 518 931 536 C 973 554 1017 563 1063 563 C 1099 563 1132 557 1163 545 C 1194 533 1221 517 1243 495 C 1265 473 1283 447 1296 417 C 1308 387 1315 353 1315 317 Z M 604 1083 C 604 1116 594 1143 574 1164 C 554 1185 528 1196 496 1196 C 470 1196 445 1190 422 1179 C 398 1167 378 1152 360 1133 C 342 1114 328 1093 318 1069 C 308 1045 303 1020 303 995 C 303 962 312 935 332 914 C 352 893 378 883 412 883 C 437 883 461 888 485 900 C 508 911 528 926 546 945 C 564 964 578 985 588 1009 C 598 1033 604 1057 604 1083 Z M 1163 313 C 1163 346 1153 373 1133 394 C 1113 415 1087 426 1055 426 C 1029 426 1004 420 981 409 C 957 397 937 382 919 363 C 901 344 887 323 877 299 C 867 275 862 250 862 225 C 862 192 871 165 891 144 C 911 123 937 113 971 113 C 996 113 1020 118 1044 130 C 1067 141 1087 156 1105 175 C 1123 194 1137 215 1147 239 C 1157 263 1163 287 1163 313 Z" unicode="%" />
<glyph horiz-adv-x="1303" d="M 1360 741 L 1294 578 L 1090 578 L 1008 117 C 980 95 949 76 913 59 C 877 41 838 26 796 14 C 754 2 709 -7 663 -14 C 616 -21 568 -25 520 -25 C 444 -25 377 -15 319 4 C 261 24 212 51 174 85 C 135 119 106 159 86 205 C 66 251 57 300 57 352 C 57 365 57 378 58 391 C 59 403 61 416 63 430 C 71 473 84 511 103 545 C 122 578 144 606 168 630 C 192 653 218 672 245 686 C 272 700 298 711 322 717 C 304 729 288 744 274 762 C 259 780 246 799 236 821 C 225 842 216 865 210 889 C 204 913 201 938 201 963 C 201 970 201 977 202 984 C 202 991 203 998 205 1006 C 213 1050 227 1092 249 1130 C 271 1168 300 1202 337 1230 C 373 1258 418 1279 470 1295 C 522 1311 582 1319 651 1319 C 683 1319 713 1316 743 1312 C 772 1307 799 1301 824 1294 C 848 1286 870 1278 889 1269 C 907 1260 922 1251 932 1243 L 872 1085 C 862 1093 849 1101 833 1109 C 817 1117 799 1124 779 1131 C 759 1138 737 1144 713 1148 C 689 1152 665 1155 639 1155 C 607 1155 576 1150 548 1141 C 520 1131 495 1119 473 1103 C 451 1087 432 1069 418 1048 C 404 1027 395 1005 391 983 C 389 979 389 975 389 971 C 389 967 389 962 389 958 C 389 936 393 915 402 895 C 410 874 423 855 439 838 C 455 821 474 807 496 795 C 518 783 543 776 571 774 L 514 623 C 486 623 458 618 428 609 C 398 600 371 587 345 570 C 319 552 296 531 277 505 C 258 479 246 450 240 416 C 238 408 237 401 237 394 C 236 387 236 380 236 373 C 236 343 241 314 253 286 C 264 258 282 233 306 211 C 330 189 360 172 398 159 C 435 145 480 139 532 139 C 562 139 591 141 621 145 C 650 149 678 155 704 163 C 730 170 754 178 776 188 C 798 197 818 207 836 217 L 899 578 L 694 578 L 723 741 L 1360 741 Z" unicode="&#x26;" />
<glyph horiz-adv-x="326" d="M 383 1307 L 264 838 L 166 838 L 217 1307 L 383 1307 Z" unicode="'" />
<glyph horiz-adv-x="510" d="M 653 1415 C 584 1321 523 1221 470 1117 C 416 1013 371 905 335 795 C 298 684 270 571 251 456 C 232 340 223 225 223 109 C 223 9 230 -87 246 -182 C 262 -277 285 -371 315 -465 L 139 -426 C 107 -333 83 -241 67 -151 C 51 -60 43 34 43 133 C 43 251 52 368 71 484 C 89 600 117 715 153 827 C 189 939 233 1047 285 1153 C 337 1259 397 1360 465 1456 L 653 1415 Z" unicode="(" />
<glyph horiz-adv-x="510" d="M 453 856 C 453 738 443 620 424 504 C 405 388 378 274 342 162 C 306 50 261 -58 209 -164 C 157 -270 97 -371 31 -467 L -158 -426 C -89 -332 -28 -232 25 -128 C 78 -24 123 83 160 194 C 196 305 224 418 243 534 C 262 649 272 765 272 881 C 272 979 264 1076 248 1171 C 232 1266 210 1360 180 1454 L 356 1415 C 388 1323 412 1231 428 1140 C 444 1049 453 954 453 856 Z" unicode=")" />
<glyph horiz-adv-x="852" d="M 918 1059 L 614 983 L 748 776 L 618 655 L 500 907 L 319 684 L 176 756 L 408 989 L 164 1055 L 203 1217 L 459 1106 L 489 1370 L 666 1409 L 592 1106 L 854 1208 L 918 1059 Z" unicode="*" />
<glyph horiz-adv-x="930" d="M 870 647 L 842 487 L 547 487 L 498 207 L 324 207 L 373 487 L 76 487 L 104 647 L 401 647 L 451 928 L 625 928 L 575 647 L 870 647 Z" unicode="+" />
<glyph horiz-adv-x="406" d="M 254 100 C 254 67 246 33 231 -1 C 215 -36 196 -70 173 -103 C 150 -136 125 -167 97 -196 C 69 -224 44 -248 20 -268 L -51 -256 C -35 -240 -19 -221 -3 -201 C 13 -181 27 -159 41 -137 C 55 -115 67 -92 77 -68 C 87 -44 94 -22 98 0 C 88 2 78 6 67 14 C 56 22 46 31 37 41 C 27 51 19 62 13 74 C 7 86 4 96 4 106 C 4 116 9 129 19 143 C 29 157 42 170 57 182 C 71 194 86 204 102 212 C 118 220 131 225 141 225 C 151 225 163 220 176 211 C 189 201 201 190 213 177 C 225 164 234 150 242 136 C 250 122 254 110 254 100 Z" unicode="," />
<glyph horiz-adv-x="676" d="M 616 647 L 588 487 L 76 487 L 104 647 L 616 647 Z" unicode="-" />
<glyph horiz-adv-x="406" d="M 254 98 C 254 88 248 76 238 62 C 227 48 214 34 199 22 C 184 9 169 -1 153 -10 C 137 -18 125 -23 115 -23 C 105 -23 93 -18 80 -9 C 67 0 55 11 44 25 C 32 38 23 52 15 66 C 7 80 4 92 4 102 C 4 112 9 124 19 138 C 29 152 42 166 57 179 C 71 191 86 202 102 211 C 118 220 131 225 141 225 C 151 225 162 220 176 211 C 189 201 201 190 213 177 C 224 163 234 149 242 135 C 250 120 254 108 254 98 Z" unicode="." />
<glyph horiz-adv-x="977" d="M 1055 1311 L -66 -332 L -199 -260 L 920 1382 L 1055 1311 Z" unicode="/" />
<glyph horiz-adv-x="1057" d="M 809 655 C 816 697 821 736 825 773 C 829 809 831 843 831 874 C 831 926 826 970 817 1007 C 808 1044 796 1074 780 1098 C 764 1122 745 1139 723 1150 C 701 1161 678 1167 653 1167 C 619 1167 585 1157 549 1139 C 513 1120 479 1090 447 1049 C 415 1008 385 955 358 890 C 330 825 309 747 293 655 C 285 611 280 572 276 536 C 272 500 270 466 270 434 C 270 382 274 337 284 300 C 293 262 306 232 322 209 C 338 185 357 168 379 157 C 401 146 425 141 451 141 C 483 141 517 150 553 169 C 588 187 622 217 654 258 C 686 299 716 352 743 417 C 770 482 792 561 809 655 Z M 995 635 C 974 519 944 419 905 336 C 865 253 820 185 770 131 C 720 77 665 38 607 13 C 549 -12 490 -25 432 -25 C 382 -25 337 -14 295 5 C 253 25 216 56 185 96 C 154 136 130 186 112 246 C 94 306 86 375 86 455 C 86 489 87 524 90 561 C 93 597 98 636 106 676 C 126 790 156 889 195 972 C 234 1054 279 1122 330 1176 C 381 1230 436 1269 495 1295 C 553 1320 612 1333 672 1333 C 720 1333 764 1322 806 1302 C 848 1282 884 1251 915 1211 C 946 1171 971 1121 989 1061 C 1007 1001 1016 931 1016 852 C 1016 818 1014 784 1011 748 C 1007 712 1002 674 995 635 Z" unicode="0" />
<glyph horiz-adv-x="555" d="M 563 1325 L 330 0 L 143 0 L 348 1157 L 119 1135 L 180 1290 L 563 1325 Z" unicode="1" />
<glyph horiz-adv-x="944" d="M 864 987 C 864 934 855 882 838 831 C 821 779 799 729 771 679 C 743 629 710 581 673 534 C 636 486 598 441 558 397 C 518 353 478 312 438 273 C 398 233 360 196 326 162 L 795 162 L 766 0 L -20 0 L -12 39 C 20 70 59 107 103 151 C 147 195 192 242 240 292 C 288 342 335 395 383 450 C 430 505 473 560 513 614 C 553 668 587 722 615 774 C 643 826 661 874 670 918 C 674 940 676 962 676 985 C 676 1039 662 1080 634 1109 C 606 1138 565 1153 512 1153 C 464 1153 417 1145 371 1131 C 325 1117 282 1097 242 1073 L 219 1237 C 266 1265 316 1285 368 1299 C 420 1312 474 1319 528 1319 C 578 1319 624 1311 666 1296 C 707 1280 742 1258 772 1230 C 801 1201 824 1166 840 1125 C 856 1084 864 1038 864 987 Z" unicode="2" />
<glyph horiz-adv-x="885" d="M 782 1061 C 782 1027 776 994 765 962 C 754 930 739 900 719 873 C 699 846 675 823 648 803 C 620 783 591 768 559 758 C 594 748 625 734 653 715 C 680 695 703 672 721 646 C 739 620 753 590 763 558 C 773 526 778 492 778 457 C 778 442 777 428 775 414 C 773 400 772 386 770 373 C 758 305 736 247 705 199 C 673 151 635 111 589 80 C 543 49 492 26 435 12 C 377 -2 316 -10 252 -10 C 216 -10 180 -6 142 1 C 104 9 69 19 37 33 L 47 205 C 79 187 112 174 148 166 C 184 158 220 154 256 154 C 298 154 340 161 381 176 C 421 190 457 211 488 238 C 519 264 544 296 563 334 C 582 371 592 413 592 459 C 592 489 586 517 576 542 C 565 567 550 588 531 606 C 512 624 490 637 464 647 C 438 657 411 662 381 662 C 375 662 369 661 363 661 C 357 661 352 660 346 659 L 319 813 C 347 819 378 828 410 840 C 442 852 472 867 499 887 C 526 906 549 929 567 955 C 585 981 594 1012 594 1047 C 594 1085 582 1112 559 1130 C 536 1148 507 1157 471 1157 C 429 1157 391 1152 358 1142 C 325 1132 290 1117 254 1098 L 231 1257 C 272 1277 314 1293 356 1303 C 398 1313 443 1319 489 1319 C 527 1319 564 1313 600 1302 C 635 1290 666 1274 693 1252 C 720 1230 742 1203 758 1171 C 774 1139 782 1102 782 1061 Z" unicode="3" />
<glyph horiz-adv-x="1004" d="M 918 502 L 891 350 L 737 350 L 676 0 L 489 0 L 551 350 L 29 350 L 6 498 L 764 1307 L 905 1307 L 764 502 L 918 502 Z M 664 979 L 659 981 C 635 951 611 922 586 895 C 561 868 537 842 514 817 L 217 502 L 578 502 L 635 819 C 640 844 644 870 648 896 C 652 922 657 950 664 979 Z" unicode="4" />
<glyph horiz-adv-x="934" d="M 891 1307 L 829 1145 L 475 1145 L 412 836 C 420 837 428 838 437 839 C 445 839 454 840 463 840 C 517 840 566 831 612 814 C 657 796 696 772 729 741 C 762 709 788 671 806 627 C 824 582 834 533 834 479 C 834 403 820 335 793 275 C 765 215 728 164 681 122 C 634 80 579 47 515 25 C 451 3 383 -8 311 -8 C 271 -8 230 -4 186 4 C 142 12 102 25 68 45 L 78 219 C 114 198 152 183 194 173 C 235 163 276 158 317 158 C 361 158 402 165 442 180 C 481 195 515 216 545 243 C 575 269 598 301 616 339 C 634 376 643 417 643 463 C 643 496 637 526 625 552 C 613 578 597 600 577 618 C 556 636 532 649 505 659 C 477 669 448 674 416 674 C 376 674 337 671 298 666 C 259 661 221 652 184 639 L 322 1307 L 891 1307 Z" unicode="5" />
<glyph horiz-adv-x="1032" d="M 752 397 C 756 417 758 437 758 455 C 758 484 753 511 744 536 C 735 560 722 582 705 600 C 687 618 666 632 640 642 C 614 652 585 657 551 657 C 529 657 505 654 479 648 C 453 642 427 632 401 618 C 375 604 350 585 326 561 C 302 537 282 508 266 473 C 262 461 260 450 258 438 C 256 426 254 414 252 403 C 250 395 249 387 249 379 C 248 371 248 362 248 354 C 248 322 253 293 263 267 C 273 241 288 218 306 199 C 324 179 345 164 370 153 C 395 142 423 137 453 137 C 487 137 521 143 554 156 C 587 168 617 186 644 209 C 671 231 694 259 713 291 C 732 323 745 358 752 397 Z M 1004 1260 C 937 1229 873 1195 812 1159 C 751 1122 694 1082 641 1040 C 588 997 540 951 496 902 C 452 852 413 799 379 743 C 407 768 440 788 477 803 C 513 817 554 825 600 825 C 652 825 700 815 743 797 C 785 779 822 754 852 722 C 882 690 905 652 921 609 C 937 565 946 519 946 469 C 946 455 945 442 943 429 C 941 415 940 401 938 387 C 927 325 906 269 875 219 C 844 169 806 126 761 90 C 716 54 665 26 609 6 C 552 -13 492 -23 430 -23 C 378 -23 329 -14 284 3 C 239 21 200 46 167 79 C 134 112 108 152 89 200 C 70 248 61 302 61 362 C 61 379 62 397 64 415 C 66 433 68 451 72 471 C 87 557 117 644 163 730 C 208 816 264 897 332 974 C 399 1051 475 1122 561 1187 C 647 1251 738 1306 834 1352 L 1004 1260 Z" unicode="6" />
<glyph horiz-adv-x="918" d="M 1014 1307 L 223 0 L 12 0 L 711 1147 L 121 1147 L 147 1307 L 1014 1307 Z" unicode="7" />
<glyph horiz-adv-x="1038" d="M 741 367 C 742 373 743 378 743 383 C 743 388 743 393 743 399 C 743 429 736 456 724 481 C 711 505 695 527 675 547 C 655 566 632 582 607 596 C 582 609 557 619 532 627 C 502 619 471 606 439 590 C 407 574 376 554 347 531 C 318 508 293 482 272 453 C 250 423 237 392 231 358 C 229 350 228 343 228 337 C 227 331 227 324 227 317 C 227 289 232 265 242 243 C 252 221 267 203 285 187 C 303 171 325 159 351 151 C 377 143 405 139 436 139 C 472 139 508 144 542 156 C 576 167 607 183 635 203 C 662 223 685 247 704 275 C 723 303 735 333 741 367 Z M 805 1008 C 806 1013 807 1018 807 1023 C 807 1027 807 1032 807 1038 C 807 1080 791 1113 760 1138 C 729 1163 689 1176 639 1176 C 609 1176 581 1171 555 1161 C 529 1151 505 1137 485 1120 C 464 1102 447 1082 433 1060 C 419 1037 410 1013 406 987 C 404 981 403 976 403 972 C 403 968 403 963 403 958 C 403 919 417 885 445 855 C 473 825 513 802 565 788 C 597 796 626 808 654 824 C 681 840 705 858 726 878 C 747 898 764 919 778 941 C 792 963 801 986 805 1008 Z M 983 991 C 977 955 965 921 948 891 C 930 860 910 833 887 809 C 863 785 838 764 812 747 C 785 730 759 717 733 709 C 753 701 775 689 799 673 C 822 656 844 635 864 610 C 884 585 900 556 914 523 C 927 490 934 454 934 414 C 934 393 932 372 928 352 C 917 291 896 237 864 190 C 832 143 793 104 747 72 C 701 40 651 15 595 0 C 539 -16 481 -25 422 -25 C 368 -25 319 -17 273 -2 C 227 12 188 34 154 62 C 120 90 94 124 75 164 C 56 204 47 250 47 301 C 47 323 49 347 53 373 C 61 421 78 465 103 505 C 127 544 155 578 187 608 C 218 638 250 662 284 682 C 318 701 348 715 375 725 C 355 733 336 744 318 758 C 299 772 282 790 268 810 C 253 830 241 852 232 878 C 223 903 219 931 219 961 C 219 969 219 977 219 985 C 219 993 221 1002 223 1012 C 231 1060 249 1104 275 1144 C 301 1183 334 1217 373 1245 C 412 1273 456 1294 506 1310 C 555 1325 607 1333 662 1333 C 710 1333 755 1326 795 1312 C 835 1298 869 1278 898 1253 C 926 1227 949 1197 965 1163 C 981 1128 989 1090 989 1049 C 989 1031 987 1011 983 991 Z" unicode="8" />
<glyph horiz-adv-x="1032" d="M 829 899 C 830 907 831 915 832 923 C 833 931 834 940 834 948 C 834 979 828 1008 818 1034 C 808 1060 794 1083 776 1103 C 758 1122 736 1137 711 1148 C 686 1159 659 1165 629 1165 C 593 1165 559 1158 526 1146 C 493 1134 463 1116 436 1093 C 409 1070 386 1043 368 1011 C 349 979 336 943 330 905 C 326 885 324 866 324 848 C 324 818 328 790 337 766 C 345 741 358 720 376 702 C 393 684 414 670 440 660 C 466 650 496 645 530 645 C 552 645 577 648 605 656 C 632 663 659 675 686 691 C 713 707 738 729 762 757 C 786 784 805 818 821 858 C 822 865 823 872 825 878 C 826 884 827 891 829 899 Z M 1008 840 C 992 752 962 666 917 580 C 871 494 815 413 747 336 C 679 259 603 188 518 123 C 432 58 342 3 246 -41 L 76 51 C 144 82 209 116 271 153 C 333 190 390 230 444 274 C 498 317 547 364 592 414 C 637 464 677 517 711 575 C 681 548 646 526 608 510 C 570 493 527 485 479 485 C 426 485 378 494 336 513 C 293 531 257 557 227 589 C 197 621 173 658 157 702 C 141 745 133 792 133 842 C 133 855 133 868 135 882 C 137 895 139 909 141 924 C 151 985 172 1041 203 1091 C 234 1141 272 1184 317 1220 C 362 1256 413 1283 470 1303 C 526 1323 586 1333 649 1333 C 701 1333 749 1324 794 1307 C 839 1289 878 1264 911 1231 C 944 1198 970 1158 989 1110 C 1008 1062 1018 1008 1018 948 C 1018 930 1017 913 1015 895 C 1013 877 1011 859 1008 840 Z" unicode="9" />
<glyph horiz-adv-x="406" d="M 381 823 C 381 813 375 801 365 787 C 354 773 341 759 326 747 C 311 734 296 723 280 715 C 264 706 252 702 242 702 C 232 702 220 706 207 716 C 194 725 182 736 171 750 C 159 763 150 777 142 791 C 134 805 131 817 131 827 C 131 837 136 850 147 864 C 157 878 170 892 185 905 C 199 917 215 928 231 937 C 247 945 260 950 270 950 C 280 950 291 945 304 936 C 317 926 329 915 341 902 C 352 888 361 874 369 860 C 377 845 381 833 381 823 Z M 254 98 C 254 88 248 76 238 62 C 227 48 214 34 199 22 C 184 9 169 -1 153 -10 C 137 -18 125 -23 115 -23 C 105 -23 93 -18 80 -9 C 67 0 55 11 44 25 C 32 38 23 52 15 66 C 7 80 4 92 4 102 C 4 112 9 124 19 138 C 29 152 42 166 57 179 C 71 191 86 202 102 211 C 118 220 131 225 141 225 C 151 225 162 220 176 211 C 189 201 201 190 213 177 C 224 163 234 149 242 135 C 250 120 254 108 254 98 Z" unicode=":" />
<glyph horiz-adv-x="406" d="M 381 823 C 381 813 375 801 365 787 C 354 773 341 759 326 747 C 311 734 296 723 280 715 C 264 706 252 702 242 702 C 232 702 220 706 207 716 C 194 725 182 736 171 750 C 159 763 150 777 142 791 C 134 805 131 817 131 827 C 131 837 136 850 147 864 C 157 878 170 892 185 905 C 199 917 215 928 231 937 C 247 945 260 950 270 950 C 280 950 291 945 304 936 C 317 926 329 915 341 902 C 352 888 361 874 369 860 C 377 845 381 833 381 823 Z M 254 100 C 254 67 246 33 231 -1 C 215 -36 196 -70 173 -103 C 150 -136 125 -167 97 -196 C 69 -224 44 -248 20 -268 L -51 -256 C -35 -240 -19 -221 -3 -201 C 13 -181 27 -159 41 -137 C 55 -115 67 -92 77 -68 C 87 -44 94 -22 98 0 C 88 2 78 6 67 14 C 56 22 46 31 37 41 C 27 51 19 62 13 74 C 7 86 4 96 4 106 C 4 116 9 129 19 143 C 29 157 42 170 57 182 C 71 194 86 204 102 212 C 118 220 131 225 141 225 C 151 225 163 220 176 211 C 189 201 201 190 213 177 C 225 164 234 150 242 136 C 250 122 254 110 254 100 Z" unicode=";" />
<glyph horiz-adv-x="930" d="M 920 932 L 889 758 L 238 561 L 819 367 L 793 205 L 70 459 L 109 678 L 920 932 Z" unicode="&#x3C;" />
<glyph horiz-adv-x="930" d="M 901 823 L 872 664 L 106 664 L 135 823 L 901 823 Z M 840 471 L 811 311 L 45 311 L 74 471 L 840 471 Z" unicode="=" />
<glyph horiz-adv-x="930" d="M 874 678 L 836 459 L 27 205 L 57 379 L 709 575 L 127 770 L 154 932 L 874 678 Z" unicode="&#x3E;" />
<glyph horiz-adv-x="766" d="M 786 1063 C 786 1022 779 984 766 949 C 753 913 736 880 714 848 C 692 816 668 787 641 760 C 613 732 585 706 557 682 C 533 662 513 642 496 623 C 478 603 464 583 453 562 C 441 540 433 517 427 493 C 421 469 418 442 418 412 C 418 405 418 398 418 392 C 418 385 418 379 420 373 L 260 410 C 258 417 258 424 258 431 C 258 438 258 445 258 453 C 258 529 272 596 300 654 C 328 711 371 765 430 815 C 446 829 464 844 483 861 C 501 877 518 895 533 914 C 548 933 561 953 571 975 C 581 996 586 1019 586 1044 C 586 1058 583 1073 578 1088 C 572 1103 564 1116 552 1128 C 540 1139 526 1148 508 1156 C 490 1163 470 1167 446 1167 C 400 1167 358 1160 320 1147 C 282 1133 245 1116 209 1096 L 186 1262 C 222 1282 261 1299 305 1313 C 349 1326 397 1333 449 1333 C 495 1333 539 1327 580 1315 C 621 1303 657 1285 688 1262 C 718 1239 742 1211 760 1177 C 777 1143 786 1105 786 1063 Z M 416 92 C 416 82 410 71 399 58 C 388 45 375 33 360 21 C 344 9 329 -1 313 -10 C 297 -18 285 -23 276 -23 C 264 -23 252 -18 240 -8 C 227 1 215 13 204 27 C 193 41 184 55 177 70 C 169 85 166 98 166 109 C 166 117 171 128 182 142 C 192 155 205 168 220 180 C 235 192 250 203 266 212 C 281 220 293 225 303 225 C 314 225 326 220 339 210 C 352 200 364 189 376 175 C 387 161 396 147 404 132 C 412 116 416 103 416 92 Z" unicode="?" />
<glyph horiz-adv-x="1569" d="M 993 870 C 985 873 976 876 966 879 C 955 881 943 883 930 883 C 895 883 861 876 828 862 C 795 848 765 829 739 805 C 712 781 689 752 671 718 C 652 684 639 648 633 608 C 631 598 629 589 628 579 C 627 569 627 560 627 551 C 627 533 628 517 632 501 C 636 485 642 470 651 458 C 659 446 671 436 686 429 C 700 421 719 418 741 418 C 763 418 786 424 809 437 C 831 450 853 469 873 493 C 893 517 911 546 927 581 C 943 616 955 656 963 700 L 993 870 Z M 1501 694 C 1491 642 1476 592 1455 542 C 1433 492 1406 447 1372 408 C 1338 368 1299 336 1254 312 C 1208 288 1157 276 1100 276 C 1078 276 1059 279 1041 286 C 1023 293 1008 303 996 315 C 983 327 973 342 966 358 C 959 374 956 392 956 412 C 956 416 956 419 956 423 C 956 426 956 430 958 434 L 954 434 C 929 380 894 340 850 314 C 805 288 754 276 698 276 C 656 276 621 283 591 299 C 561 315 537 336 518 362 C 499 388 485 417 476 450 C 467 483 463 517 463 551 C 463 575 465 599 469 625 C 480 685 501 739 533 789 C 564 838 601 880 645 915 C 689 949 737 976 789 995 C 841 1014 893 1024 946 1024 C 973 1024 998 1021 1022 1016 C 1045 1011 1066 1005 1085 997 C 1104 989 1121 981 1135 972 C 1149 962 1161 953 1171 944 L 1090 485 L 1090 473 C 1090 463 1092 452 1097 441 C 1101 429 1112 424 1128 424 C 1147 424 1168 431 1192 445 C 1215 459 1237 480 1259 506 C 1281 532 1300 562 1318 598 C 1335 634 1348 673 1356 717 C 1358 731 1359 745 1361 759 C 1363 773 1364 787 1364 801 C 1364 860 1352 914 1330 963 C 1308 1011 1277 1053 1237 1088 C 1197 1123 1149 1150 1094 1169 C 1039 1188 979 1198 915 1198 C 836 1198 760 1184 688 1158 C 616 1132 551 1094 493 1046 C 435 998 386 940 346 872 C 306 804 278 729 264 647 C 260 627 258 608 256 590 C 254 571 254 553 254 535 C 254 477 262 424 279 375 C 295 325 320 282 354 246 C 388 210 430 181 481 160 C 531 139 591 129 659 129 C 681 129 703 130 726 134 C 749 138 771 143 793 149 C 815 155 835 163 855 172 C 875 181 893 191 909 201 L 881 39 C 869 32 854 25 837 19 C 819 13 800 7 778 3 C 756 -1 732 -5 707 -8 C 681 -10 655 -12 629 -12 C 543 -12 468 2 402 32 C 336 61 281 101 237 151 C 192 201 158 260 135 327 C 111 393 100 464 100 539 C 100 583 104 626 113 670 C 129 765 162 853 212 934 C 262 1015 323 1085 396 1145 C 469 1204 551 1250 643 1284 C 734 1318 830 1335 932 1335 C 1015 1335 1092 1321 1163 1295 C 1233 1269 1294 1232 1346 1185 C 1398 1138 1438 1082 1467 1017 C 1496 952 1511 881 1511 803 C 1511 785 1510 767 1508 749 C 1506 731 1504 712 1501 694 Z" unicode="@" />
<glyph horiz-adv-x="1268" d="M 1135 0 L 934 0 L 852 338 L 344 338 L 143 0 L -51 0 L 739 1325 L 811 1325 L 1135 0 Z M 813 496 L 739 815 C 733 836 728 861 724 890 C 720 918 716 947 713 975 L 709 975 C 696 947 682 918 666 890 C 650 861 637 836 625 815 L 440 496 L 813 496 Z" unicode="A" />
<glyph horiz-adv-x="1067" d="M 969 449 C 969 429 967 409 963 389 C 952 328 931 274 900 226 C 869 178 831 137 787 103 C 742 69 692 44 637 26 C 581 8 524 0 465 0 L 41 0 L 270 1307 L 635 1307 C 677 1307 717 1300 755 1287 C 793 1274 826 1255 854 1231 C 882 1206 905 1176 922 1141 C 939 1106 948 1066 948 1022 C 948 994 944 964 937 934 C 929 904 918 875 904 847 C 890 819 872 794 851 772 C 830 750 806 733 780 723 C 809 714 835 700 859 682 C 882 663 902 641 918 617 C 934 592 947 565 956 536 C 964 507 969 478 969 449 Z M 750 1010 C 750 1034 745 1055 736 1072 C 727 1089 715 1103 700 1114 C 684 1124 667 1132 647 1136 C 627 1140 606 1143 584 1143 L 430 1143 L 369 791 L 502 791 C 534 791 566 795 596 805 C 626 814 652 828 675 847 C 697 865 715 888 729 916 C 743 943 750 974 750 1010 Z M 768 449 C 768 481 761 509 749 532 C 736 555 719 574 699 589 C 678 603 654 614 628 621 C 601 627 573 631 545 631 L 340 631 L 258 164 L 442 164 C 483 164 523 170 563 183 C 602 195 637 214 667 238 C 697 262 722 292 740 328 C 758 363 768 403 768 449 Z" unicode="B" />
<glyph horiz-adv-x="1237" d="M 1280 1235 L 1217 1065 C 1173 1091 1124 1111 1071 1124 C 1017 1136 965 1143 915 1143 C 831 1143 751 1128 676 1099 C 601 1069 535 1028 479 976 C 423 923 378 860 345 788 C 311 716 295 637 295 551 C 295 488 305 432 327 383 C 348 334 378 293 416 259 C 454 225 498 200 550 182 C 601 164 657 156 717 156 C 779 156 842 162 904 176 C 966 190 1026 210 1083 238 L 1051 59 C 991 29 930 10 867 1 C 803 -7 739 -12 674 -12 C 592 -12 516 2 446 30 C 376 58 314 96 262 146 C 210 196 169 255 139 324 C 109 393 94 469 94 551 C 94 625 104 696 124 764 C 144 831 173 893 210 950 C 246 1006 290 1057 341 1103 C 392 1149 448 1188 509 1220 C 569 1252 634 1276 703 1293 C 772 1310 843 1319 915 1319 C 945 1319 977 1317 1009 1315 C 1041 1312 1072 1307 1104 1301 C 1135 1295 1165 1286 1195 1275 C 1225 1264 1253 1251 1280 1235 Z" unicode="C" />
<glyph horiz-adv-x="1323" d="M 1274 764 C 1274 687 1263 615 1243 548 C 1222 480 1193 418 1156 362 C 1118 305 1074 254 1022 210 C 970 165 914 127 852 96 C 790 64 725 40 656 24 C 586 8 515 0 442 0 L 41 0 L 270 1307 L 672 1307 C 753 1307 830 1295 903 1271 C 975 1247 1039 1211 1094 1165 C 1149 1119 1193 1062 1225 995 C 1257 927 1274 850 1274 764 Z M 1071 764 C 1071 832 1058 889 1033 937 C 1008 984 975 1022 933 1052 C 891 1082 842 1103 787 1117 C 732 1130 674 1137 614 1137 L 442 1137 L 270 166 L 430 166 C 518 166 600 180 678 208 C 756 236 824 275 882 327 C 940 379 986 441 1020 515 C 1054 589 1071 672 1071 764 Z" unicode="D" />
<glyph horiz-adv-x="920" d="M 975 1307 L 946 1137 L 440 1137 L 371 741 L 795 741 L 764 571 L 340 571 L 270 170 L 848 170 L 817 0 L 41 0 L 270 1307 L 975 1307 Z" unicode="E" />
<glyph horiz-adv-x="866" d="M 993 1307 L 965 1137 L 440 1137 L 371 741 L 813 741 L 782 571 L 340 571 L 240 0 L 41 0 L 270 1307 L 993 1307 Z" unicode="F" />
<glyph horiz-adv-x="1389" d="M 1333 1225 L 1268 1055 C 1246 1069 1221 1082 1193 1095 C 1165 1107 1134 1118 1102 1128 C 1070 1138 1036 1145 1002 1151 C 967 1156 933 1159 899 1159 C 857 1159 816 1154 774 1145 C 732 1136 690 1122 650 1104 C 609 1086 570 1063 534 1035 C 497 1007 464 975 434 938 C 404 900 378 858 356 811 C 334 763 319 711 309 655 C 305 636 303 618 301 601 C 299 584 299 567 299 551 C 299 483 311 424 335 374 C 359 323 390 280 430 246 C 470 212 515 186 566 169 C 616 151 669 143 723 143 C 753 143 782 145 812 149 C 842 153 870 159 897 167 C 924 174 949 182 973 192 C 996 202 1016 212 1034 223 L 1083 500 L 782 500 L 811 659 L 1300 659 L 1204 117 C 1132 66 1054 30 972 8 C 890 -14 800 -25 702 -25 C 623 -25 547 -12 475 13 C 402 39 338 76 282 126 C 226 175 181 235 148 307 C 114 378 98 459 98 551 C 98 571 99 593 101 615 C 103 637 106 659 111 682 C 124 757 145 825 175 887 C 205 949 240 1004 282 1052 C 323 1100 369 1141 420 1177 C 471 1212 524 1241 579 1264 C 634 1287 690 1304 747 1316 C 803 1327 859 1333 913 1333 C 958 1333 1001 1330 1043 1324 C 1084 1318 1122 1311 1158 1301 C 1194 1291 1226 1279 1256 1266 C 1286 1253 1311 1239 1333 1225 Z" unicode="G" />
<glyph horiz-adv-x="1337" d="M 1341 1307 L 1112 0 L 913 0 L 1014 571 L 340 571 L 240 0 L 41 0 L 270 1307 L 469 1307 L 371 741 L 1044 741 L 1143 1307 L 1341 1307 Z" unicode="H" />
<glyph horiz-adv-x="506" d="M 489 1307 L 260 0 L 61 0 L 291 1307 L 489 1307 Z" unicode="I" />
<glyph horiz-adv-x="506" d="M 489 1307 L 305 258 C 291 176 266 104 231 42 C 196 -19 156 -71 111 -114 C 66 -157 18 -191 -32 -216 C -82 -241 -130 -258 -176 -266 L -307 -135 C -255 -125 -206 -110 -160 -89 C -114 -67 -72 -40 -36 -6 C 0 28 31 68 57 116 C 82 163 100 217 111 279 L 291 1307 L 489 1307 Z" unicode="J" />
<glyph horiz-adv-x="1098" d="M 1233 1307 L 557 643 L 979 0 L 741 0 L 350 612 L 348 612 L 240 0 L 41 0 L 270 1307 L 469 1307 L 360 690 L 362 690 L 985 1307 L 1233 1307 Z" unicode="K" />
<glyph horiz-adv-x="918" d="M 846 170 L 815 0 L 41 0 L 270 1307 L 469 1307 L 270 170 L 846 170 Z" unicode="L" />
<glyph horiz-adv-x="1720" d="M 1647 1307 L 1534 0 L 1337 0 L 1389 590 C 1393 634 1397 682 1402 735 C 1407 788 1413 839 1419 887 L 1415 887 C 1401 863 1385 838 1368 812 C 1350 786 1333 759 1315 732 C 1297 705 1279 679 1262 653 C 1244 627 1228 604 1214 584 L 807 -10 L 721 -10 L 518 584 C 510 605 503 628 495 653 C 487 677 480 703 472 729 C 464 755 456 781 448 807 C 440 833 433 859 426 883 L 422 883 C 416 857 410 831 404 805 C 398 779 391 753 385 728 C 379 702 373 678 367 654 C 361 630 355 609 350 590 L 195 0 L 0 0 L 342 1307 L 481 1307 L 713 635 C 721 609 730 582 740 554 C 750 525 759 496 769 467 C 778 437 787 408 795 379 C 803 350 811 323 817 299 L 821 299 C 835 323 852 350 870 378 C 888 406 906 434 925 463 C 944 492 963 521 983 550 C 1003 579 1022 607 1040 635 L 1501 1307 L 1647 1307 Z" unicode="M" />
<glyph horiz-adv-x="1438" d="M 1442 1307 L 1208 -29 L 1149 -29 L 653 649 C 633 676 612 704 592 734 C 571 763 550 793 530 823 C 509 853 489 882 470 912 C 450 941 432 969 414 997 L 410 995 C 401 934 392 876 382 821 C 372 766 362 714 354 664 L 240 0 L 41 0 L 270 1307 L 408 1307 L 862 684 C 877 662 894 639 913 613 C 932 587 951 560 971 532 C 990 504 1009 476 1028 448 C 1047 420 1065 393 1081 369 L 1085 371 C 1092 422 1100 474 1109 528 C 1117 582 1126 632 1135 680 L 1243 1307 L 1442 1307 Z" unicode="N" />
<glyph horiz-adv-x="1548" d="M 1487 618 C 1475 552 1455 491 1429 434 C 1402 377 1369 325 1331 277 C 1292 229 1249 187 1201 150 C 1153 112 1101 81 1047 55 C 993 29 936 9 877 -4 C 818 -18 759 -25 700 -25 C 596 -25 504 -6 424 31 C 343 69 276 120 224 185 C 172 249 135 325 115 412 C 95 499 93 592 111 690 C 128 788 162 876 213 955 C 263 1034 324 1102 396 1158 C 468 1214 547 1257 633 1287 C 719 1317 807 1333 897 1333 C 1000 1333 1092 1314 1173 1276 C 1254 1238 1321 1187 1373 1123 C 1425 1058 1461 982 1482 896 C 1502 809 1504 716 1487 618 Z M 1288 647 C 1300 715 1299 780 1287 842 C 1274 904 1250 958 1215 1006 C 1180 1053 1134 1091 1077 1119 C 1020 1147 953 1161 877 1161 C 816 1161 755 1149 693 1125 C 631 1101 574 1067 522 1023 C 469 979 424 926 386 864 C 348 802 322 733 309 657 C 297 589 297 525 310 463 C 322 401 346 346 382 299 C 417 251 463 213 520 185 C 577 157 644 143 721 143 C 781 143 842 155 904 179 C 966 203 1023 237 1075 281 C 1127 325 1173 378 1211 440 C 1249 502 1274 571 1288 647 Z" unicode="O" />
<glyph horiz-adv-x="1010" d="M 1016 999 C 1016 935 1003 877 977 825 C 951 773 917 728 874 691 C 831 653 782 624 726 604 C 670 583 611 573 551 573 L 338 573 L 238 0 L 41 0 L 270 1307 L 676 1307 C 720 1307 763 1299 805 1285 C 846 1271 882 1250 913 1224 C 944 1198 969 1166 988 1128 C 1006 1090 1016 1047 1016 999 Z M 815 983 C 815 1011 809 1034 799 1054 C 788 1073 774 1089 756 1101 C 738 1113 718 1121 696 1127 C 673 1132 649 1135 625 1135 L 438 1135 L 367 737 L 543 737 C 578 737 612 742 645 754 C 677 766 706 782 732 804 C 757 825 777 851 792 881 C 807 911 815 945 815 983 Z" unicode="P" />
<glyph horiz-adv-x="1548" d="M 1288 647 C 1291 663 1293 680 1294 696 C 1295 712 1296 727 1296 743 C 1296 800 1286 854 1268 905 C 1250 955 1223 1000 1187 1038 C 1151 1076 1108 1106 1056 1128 C 1004 1150 944 1161 877 1161 C 816 1161 755 1149 693 1125 C 631 1101 574 1067 522 1023 C 469 979 424 926 386 864 C 348 802 322 733 309 657 C 305 641 303 624 302 608 C 301 592 301 576 301 561 C 301 503 310 449 328 399 C 346 348 373 304 409 266 C 445 228 489 198 541 176 C 593 154 653 143 721 143 C 781 143 842 155 904 179 C 966 203 1023 237 1075 281 C 1127 325 1173 378 1211 440 C 1249 502 1274 571 1288 647 Z M 1487 618 C 1473 537 1446 463 1408 395 C 1369 327 1322 267 1268 215 C 1213 163 1152 120 1086 86 C 1020 52 952 28 883 16 L 883 12 C 907 6 933 -1 960 -11 C 987 -21 1017 -34 1049 -51 C 1094 -74 1135 -90 1173 -98 C 1211 -106 1246 -111 1280 -111 C 1302 -111 1325 -109 1348 -106 C 1371 -102 1397 -96 1425 -86 L 1288 -260 C 1280 -262 1270 -263 1260 -264 C 1250 -265 1240 -266 1231 -266 C 1197 -266 1166 -264 1138 -261 C 1110 -257 1082 -252 1056 -245 C 1030 -237 1004 -228 979 -217 C 954 -205 929 -192 903 -176 C 835 -134 772 -99 716 -69 C 659 -39 605 -18 553 -8 C 487 4 426 27 370 60 C 314 92 266 133 226 182 C 186 231 154 287 132 351 C 109 414 98 483 98 557 C 98 578 99 600 101 622 C 103 644 106 667 111 690 C 128 788 162 876 213 955 C 263 1034 324 1102 396 1158 C 468 1214 547 1257 633 1287 C 719 1317 807 1333 897 1333 C 989 1333 1072 1318 1146 1288 C 1220 1258 1283 1216 1335 1164 C 1387 1112 1428 1050 1456 979 C 1484 908 1499 832 1499 750 C 1499 708 1495 664 1487 618 Z" unicode="Q" />
<glyph horiz-adv-x="1069" d="M 1044 0 L 813 0 L 502 573 L 338 573 L 238 0 L 41 0 L 270 1307 L 659 1307 C 704 1307 747 1299 788 1285 C 828 1271 864 1250 895 1224 C 926 1198 951 1166 969 1128 C 987 1090 997 1047 997 999 C 997 952 989 908 975 867 C 961 826 941 789 915 755 C 889 721 859 691 823 665 C 787 639 747 619 705 604 L 1044 0 Z M 797 983 C 797 1011 791 1034 781 1054 C 770 1073 756 1089 738 1101 C 720 1113 700 1121 677 1127 C 654 1132 630 1135 606 1135 L 438 1135 L 367 737 L 526 737 C 561 737 595 742 628 754 C 660 766 689 782 714 804 C 739 825 759 851 774 881 C 789 911 797 945 797 983 Z" unicode="R" />
<glyph horiz-adv-x="975" d="M 936 1243 L 877 1085 C 867 1093 854 1101 838 1109 C 822 1117 804 1124 784 1131 C 764 1138 742 1144 718 1148 C 694 1152 669 1155 643 1155 C 614 1155 585 1150 555 1141 C 525 1132 499 1119 475 1102 C 451 1084 431 1063 416 1038 C 400 1012 393 984 393 952 C 393 912 407 878 436 850 C 465 821 508 796 565 776 C 611 759 653 740 691 719 C 729 698 761 674 788 646 C 814 618 835 587 850 553 C 864 518 872 478 872 434 C 872 359 858 294 832 238 C 806 182 770 136 724 100 C 678 63 625 35 563 17 C 501 0 435 -10 365 -10 C 329 -10 295 -7 262 -2 C 229 3 198 10 169 19 C 140 28 114 38 91 50 C 68 62 49 74 35 86 L 47 281 C 73 260 100 242 126 227 C 152 212 178 200 206 190 C 233 180 261 173 291 169 C 320 164 351 162 385 162 C 421 162 456 167 490 177 C 524 187 555 203 582 223 C 608 243 630 268 646 298 C 662 328 670 362 670 401 C 670 447 655 487 625 519 C 595 551 549 578 485 600 C 390 633 318 676 270 728 C 221 780 197 845 197 922 C 197 986 209 1043 235 1093 C 261 1143 295 1184 338 1218 C 380 1251 430 1276 486 1293 C 542 1310 600 1319 662 1319 C 693 1319 723 1316 752 1312 C 780 1307 807 1301 831 1294 C 855 1286 876 1278 894 1269 C 912 1260 926 1251 936 1243 Z" unicode="S" />
<glyph horiz-adv-x="1059" d="M 1186 1307 L 1157 1137 L 737 1137 L 537 0 L 338 0 L 539 1137 L 119 1137 L 147 1307 L 1186 1307 Z" unicode="T" />
<glyph horiz-adv-x="1331" d="M 1335 1307 C 1310 1162 1286 1018 1262 876 C 1238 734 1212 591 1186 449 C 1170 371 1144 303 1108 244 C 1072 185 1027 136 974 96 C 921 56 861 25 794 5 C 727 -14 656 -25 580 -25 C 518 -25 459 -16 403 0 C 347 17 297 42 255 76 C 213 110 179 152 154 202 C 129 252 117 311 117 379 C 117 394 117 410 118 426 C 119 442 121 457 125 473 L 270 1307 L 469 1307 L 322 465 C 317 441 315 417 315 391 C 315 347 322 311 336 281 C 350 251 369 226 394 207 C 418 187 448 173 482 165 C 516 156 552 152 592 152 C 645 152 694 160 740 176 C 786 192 826 214 862 244 C 897 274 926 310 950 352 C 973 394 989 442 999 494 C 1024 630 1048 765 1072 900 C 1096 1035 1119 1171 1143 1307 L 1335 1307 Z" unicode="U" />
<glyph horiz-adv-x="1184" d="M 1280 1307 L 528 -18 L 465 -18 L 178 1307 L 375 1307 L 508 684 C 517 638 526 589 536 536 C 545 482 553 428 561 373 L 565 373 C 591 427 619 480 647 533 C 675 586 702 636 729 684 L 1079 1307 L 1280 1307 Z" unicode="V" />
<glyph horiz-adv-x="1862" d="M 1958 1307 L 1260 -18 L 1192 -18 L 1073 680 C 1065 730 1056 783 1047 839 C 1038 895 1030 959 1022 1030 L 1018 1030 C 984 959 953 895 925 839 C 896 782 869 729 844 680 L 475 -18 L 408 -18 L 178 1307 L 371 1307 L 477 705 C 484 661 492 613 501 562 C 509 511 516 459 520 406 L 524 406 C 547 459 572 511 598 562 C 624 612 649 660 672 705 L 985 1307 L 1155 1307 L 1262 705 C 1269 663 1276 616 1282 564 C 1288 512 1294 459 1300 406 L 1305 406 C 1316 432 1328 458 1341 485 C 1354 511 1367 537 1380 563 C 1393 589 1406 614 1419 638 C 1431 662 1443 684 1454 705 L 1769 1307 L 1958 1307 Z" unicode="W" />
<glyph horiz-adv-x="1237" d="M 1274 1307 L 760 668 L 1063 0 L 844 0 L 692 340 C 686 352 680 366 673 381 C 666 396 659 411 652 427 C 645 443 638 458 632 473 C 626 488 620 502 616 514 L 612 514 C 592 487 571 458 548 427 C 525 396 504 368 485 344 L 207 0 L -10 0 L 530 666 L 238 1307 L 457 1307 L 604 981 C 609 969 615 956 621 942 C 627 928 633 914 639 900 C 645 886 652 871 658 857 C 664 843 669 829 674 817 L 678 817 C 686 829 694 842 704 856 C 713 870 723 884 733 898 C 743 912 754 926 764 940 C 774 954 785 967 795 979 L 1057 1307 L 1274 1307 Z" unicode="X" />
<glyph horiz-adv-x="1278" d="M 1374 1307 L 750 602 L 643 0 L 449 0 L 555 602 L 178 1307 L 389 1307 L 586 938 C 600 910 615 879 633 846 C 651 813 666 782 680 754 L 684 754 C 696 768 708 783 722 799 C 735 815 748 832 762 848 C 776 864 789 880 803 896 C 816 911 828 925 840 938 L 1161 1307 L 1374 1307 Z" unicode="Y" />
<glyph horiz-adv-x="1090" d="M 1122 1307 L 1114 1260 L 575 530 C 553 500 531 470 507 439 C 483 408 460 377 436 346 C 412 315 389 285 367 255 C 344 225 323 198 303 172 L 305 170 L 946 170 L 915 0 L -10 0 L -2 47 L 532 774 C 553 803 576 833 600 865 C 624 897 648 928 672 960 C 696 992 719 1022 742 1052 C 765 1082 787 1109 807 1135 L 805 1137 L 223 1137 L 252 1307 L 1122 1307 Z" unicode="Z" />
<glyph horiz-adv-x="578" d="M 727 1434 L 700 1278 L 449 1278 L 172 -291 L 424 -291 L 397 -446 L -37 -446 L 293 1434 L 727 1434 Z" unicode="[" />
<glyph horiz-adv-x="977" d="M 901 -260 L 760 -332 L 201 1311 L 340 1382 L 901 -260 Z" unicode="\" />
<glyph horiz-adv-x="578" d="M 604 1434 L 274 -446 L -160 -446 L -133 -291 L 119 -291 L 395 1278 L 143 1278 L 170 1434 L 604 1434 Z" unicode="]" />
<glyph horiz-adv-x="1024" d="M 961 1104 L 836 1049 C 800 1073 765 1099 731 1125 C 697 1151 665 1179 635 1210 C 595 1180 555 1151 514 1124 C 472 1097 430 1072 387 1049 L 268 1100 C 330 1141 388 1186 441 1235 C 493 1283 546 1334 600 1386 C 609 1394 620 1403 633 1412 C 645 1420 658 1425 672 1425 C 684 1425 694 1420 704 1412 C 713 1404 721 1395 727 1386 C 733 1376 738 1367 743 1358 C 748 1349 754 1340 760 1331 C 788 1289 819 1248 853 1210 C 887 1172 923 1136 961 1104 Z" unicode="^" />
<glyph horiz-adv-x="1024" d="M 881 -313 L 852 -473 L -178 -473 L -150 -313 L 881 -313 Z" unicode="_" />
<glyph horiz-adv-x="1024" d="M 782 1104 L 662 1049 C 613 1079 565 1113 519 1149 C 472 1185 431 1226 395 1272 C 389 1279 383 1287 377 1297 C 370 1306 367 1315 367 1325 C 367 1333 370 1342 378 1354 C 385 1365 394 1376 404 1386 C 414 1396 425 1405 436 1413 C 447 1421 457 1425 465 1425 C 477 1425 488 1420 498 1412 C 508 1404 516 1395 524 1386 C 544 1359 564 1333 584 1309 C 603 1284 623 1260 644 1237 C 664 1214 686 1191 708 1169 C 730 1147 755 1125 782 1104 Z" unicode="`" />
<glyph horiz-adv-x="1090" d="M 834 776 C 817 783 794 789 766 793 C 738 797 710 799 682 799 C 628 799 577 789 528 769 C 478 749 434 721 394 687 C 354 653 321 613 294 567 C 266 521 248 472 240 420 C 238 407 236 395 235 384 C 233 372 233 360 233 348 C 233 320 236 294 243 268 C 250 242 261 220 277 200 C 293 180 313 165 339 153 C 364 141 395 135 432 135 C 466 135 501 145 539 165 C 577 185 612 213 646 250 C 680 287 710 332 736 385 C 762 438 782 498 795 565 L 834 776 Z M 1038 874 L 885 0 L 698 0 L 731 180 L 725 182 C 705 145 681 114 655 88 C 629 62 601 40 572 24 C 542 8 512 -3 480 -11 C 448 -19 417 -23 387 -23 C 329 -23 278 -12 235 9 C 192 30 156 58 128 93 C 100 127 79 167 65 211 C 51 255 45 301 45 348 C 45 362 45 377 46 392 C 47 407 49 422 53 438 C 69 522 99 596 142 660 C 184 724 235 777 294 820 C 352 863 417 895 487 917 C 557 939 628 950 700 950 C 762 950 823 943 883 931 C 942 918 994 899 1038 874 Z" unicode="a" />
<glyph horiz-adv-x="1098" d="M 842 551 C 843 559 844 566 845 574 C 845 582 846 590 846 598 C 846 626 841 651 832 675 C 823 698 810 718 794 736 C 777 753 757 766 735 776 C 712 786 687 791 659 791 C 619 791 580 781 540 761 C 500 741 463 712 429 675 C 395 638 364 593 338 540 C 312 486 293 426 281 360 L 242 145 C 258 139 276 134 297 131 C 317 128 338 127 360 127 C 424 127 484 139 539 164 C 593 188 642 221 684 261 C 726 301 760 346 787 397 C 814 447 832 499 842 551 Z M 1028 532 C 1012 448 984 371 944 303 C 904 234 854 175 795 127 C 736 78 668 40 592 14 C 515 -11 432 -25 342 -25 C 318 -25 292 -23 264 -20 C 236 -16 209 -12 181 -6 C 153 0 127 7 102 15 C 76 23 54 33 35 43 L 285 1458 L 471 1458 L 344 745 L 350 743 C 372 780 396 812 423 838 C 450 864 479 885 510 901 C 540 917 573 929 607 937 C 641 944 675 948 711 948 C 763 948 809 939 849 921 C 889 903 923 878 951 848 C 979 817 1000 781 1014 741 C 1028 701 1036 658 1036 614 C 1036 600 1035 587 1034 573 C 1033 559 1031 545 1028 532 Z" unicode="b" />
<glyph horiz-adv-x="932" d="M 922 872 L 860 713 C 822 733 784 748 748 758 C 712 767 672 772 629 772 C 578 772 529 761 483 740 C 437 719 396 691 361 656 C 326 621 298 580 277 534 C 256 488 246 439 246 389 C 246 352 252 319 264 289 C 276 259 292 233 314 212 C 336 191 362 175 392 164 C 422 152 455 147 492 147 C 545 147 595 155 643 172 C 690 189 736 212 780 240 L 748 61 C 701 34 655 15 609 4 C 563 -6 514 -12 461 -12 C 403 -12 349 -2 300 16 C 250 34 208 61 172 95 C 136 129 107 171 87 219 C 67 267 57 320 57 379 C 57 432 64 483 78 531 C 92 579 112 624 138 666 C 164 708 194 745 230 779 C 266 813 305 841 349 865 C 392 889 438 907 487 920 C 536 933 587 940 639 940 C 688 940 737 935 786 925 C 834 915 880 898 922 872 Z" unicode="c" />
<glyph horiz-adv-x="1102" d="M 831 768 C 815 773 798 777 778 780 C 758 782 736 784 713 784 C 648 784 589 772 535 750 C 481 728 433 698 392 662 C 351 625 317 583 291 536 C 264 489 246 441 238 391 C 233 370 231 349 231 328 C 231 301 234 276 241 253 C 248 229 259 209 274 191 C 288 173 307 160 330 150 C 352 140 379 135 410 135 C 452 135 493 145 534 165 C 574 185 612 213 646 250 C 680 287 711 332 737 385 C 763 438 782 498 795 565 L 831 768 Z M 1143 1458 L 885 0 L 698 0 L 731 180 L 725 182 C 703 144 678 113 651 87 C 624 61 595 39 564 23 C 533 7 500 -4 466 -12 C 431 -19 395 -23 358 -23 C 303 -23 256 -13 216 4 C 176 22 143 47 117 78 C 91 109 71 145 59 185 C 47 225 41 268 41 313 C 41 328 41 344 43 360 C 45 376 47 393 51 410 C 67 491 94 564 134 629 C 173 694 222 749 281 795 C 340 840 407 875 483 899 C 559 923 641 936 731 936 C 751 936 772 934 794 932 C 815 929 837 926 860 922 L 956 1458 L 1143 1458 Z" unicode="d" />
<glyph horiz-adv-x="975" d="M 926 700 C 926 678 924 657 920 635 C 908 580 885 533 849 494 C 813 454 768 422 714 396 C 659 370 596 352 524 340 C 452 328 375 322 293 322 L 246 322 C 254 270 276 229 312 198 C 348 167 401 152 471 152 C 521 152 571 160 623 176 C 675 192 722 214 764 242 L 731 53 C 687 30 642 13 594 3 C 546 -6 500 -12 457 -12 C 393 -12 335 -2 285 15 C 235 33 192 59 158 93 C 123 127 96 167 78 213 C 60 259 51 311 51 367 C 51 383 51 399 53 416 C 55 432 57 449 61 467 C 73 532 97 594 132 653 C 167 711 210 763 260 807 C 310 851 367 885 430 911 C 493 937 559 950 627 950 C 671 950 711 944 748 933 C 784 921 816 905 842 883 C 868 861 889 835 904 804 C 918 773 926 738 926 700 Z M 739 676 C 739 710 727 736 704 756 C 681 776 650 786 610 786 C 574 786 537 778 500 763 C 462 747 427 726 395 699 C 363 671 334 638 310 600 C 285 562 267 519 256 473 L 297 473 C 361 473 420 477 472 485 C 524 493 569 505 607 520 C 644 535 674 553 696 575 C 718 596 731 620 737 647 C 738 652 739 657 739 661 C 739 665 739 670 739 676 Z" unicode="e" />
<glyph horiz-adv-x="686" d="M 913 1425 L 852 1276 C 832 1284 811 1290 788 1295 C 765 1300 743 1303 723 1303 C 650 1303 591 1281 546 1238 C 500 1194 471 1131 457 1047 L 436 928 L 737 928 L 674 778 L 410 778 L 272 0 L 86 0 L 223 778 L 66 778 L 92 928 L 250 928 L 272 1057 C 294 1187 345 1287 424 1355 C 502 1423 603 1458 727 1458 C 763 1458 797 1455 830 1449 C 862 1443 890 1435 913 1425 Z" unicode="f" />
<glyph horiz-adv-x="907" d="M 569 -162 C 570 -156 571 -151 571 -147 C 571 -143 571 -138 571 -133 C 571 -103 562 -76 544 -52 C 526 -28 499 -10 461 2 L 311 49 C 283 49 256 44 231 34 C 205 24 182 10 162 -6 C 142 -23 125 -43 111 -66 C 97 -88 88 -112 84 -137 C 82 -141 82 -145 82 -149 C 82 -153 82 -158 82 -164 C 82 -184 86 -203 95 -221 C 104 -239 118 -256 136 -270 C 154 -284 176 -296 204 -304 C 231 -312 263 -317 301 -317 C 341 -317 377 -312 409 -303 C 441 -293 468 -281 491 -266 C 513 -251 531 -234 544 -216 C 557 -198 565 -180 569 -162 Z M 641 635 C 642 639 643 643 643 647 C 643 651 643 655 643 659 C 643 677 639 695 632 711 C 625 727 615 742 603 754 C 590 766 574 776 556 784 C 537 791 516 795 494 795 C 468 795 443 790 420 782 C 396 773 375 761 357 746 C 338 731 322 714 310 695 C 298 675 290 655 287 635 C 285 631 285 626 285 621 C 285 616 285 612 285 608 C 285 588 288 571 295 555 C 302 539 312 525 326 513 C 339 501 355 491 373 485 C 391 478 412 475 436 475 C 459 475 482 479 505 487 C 528 495 549 507 568 522 C 586 536 602 553 615 573 C 628 592 637 613 641 635 Z M 913 803 C 906 799 897 795 886 791 C 875 787 863 784 851 782 C 839 779 827 777 815 776 C 803 774 792 774 784 774 C 792 762 799 746 805 726 C 810 706 813 684 813 662 C 813 654 812 647 812 640 C 811 632 810 625 809 618 C 801 576 787 538 765 502 C 743 466 714 435 680 409 C 645 382 605 361 559 346 C 513 331 464 324 410 324 C 372 324 343 320 322 313 C 301 306 289 292 285 272 L 285 268 C 285 264 286 259 290 253 C 293 247 299 243 307 240 L 541 152 C 607 126 658 92 695 48 C 731 4 750 -51 750 -117 C 750 -128 749 -139 748 -150 C 747 -161 745 -172 743 -184 C 735 -228 718 -267 692 -303 C 666 -339 632 -369 591 -394 C 550 -419 503 -438 449 -452 C 395 -466 338 -473 276 -473 C 218 -473 167 -465 122 -450 C 77 -434 39 -413 8 -387 C -23 -361 -47 -329 -63 -293 C -79 -257 -88 -218 -88 -176 C -88 -166 -87 -157 -87 -148 C -87 -139 -86 -130 -84 -121 C -76 -80 -64 -44 -46 -13 C -28 17 -8 44 14 66 C 37 88 62 105 88 119 C 114 132 139 141 164 147 L 78 233 C 80 249 86 266 96 282 C 105 298 116 312 130 325 C 143 338 158 349 174 359 C 190 369 206 376 223 381 C 191 400 165 429 145 468 C 125 506 115 550 115 600 C 115 609 115 618 115 627 C 115 636 117 645 119 655 C 127 701 142 742 166 778 C 190 814 219 845 255 871 C 290 896 330 915 375 929 C 420 943 468 950 520 950 C 538 950 558 948 579 945 C 600 941 618 938 633 934 C 647 930 664 926 683 924 C 701 921 722 920 745 920 C 755 920 766 921 779 923 C 792 925 805 927 819 931 C 832 934 845 938 857 942 C 869 946 879 951 887 956 L 913 803 Z" unicode="g" />
<glyph horiz-adv-x="1092" d="M 1001 688 C 1001 667 999 647 995 627 L 887 0 L 700 0 L 813 639 C 814 645 815 650 816 656 C 816 662 817 668 817 674 C 817 712 805 742 783 764 C 760 786 730 797 692 797 C 646 797 605 789 569 773 C 532 757 499 735 469 708 C 439 681 413 650 391 615 C 368 579 348 542 332 503 C 315 463 301 423 290 383 C 279 342 270 303 264 266 L 217 0 L 31 0 L 289 1458 L 475 1458 L 344 731 L 348 729 C 386 801 436 855 500 893 C 563 931 635 950 717 950 C 757 950 794 944 829 932 C 863 920 893 903 919 881 C 944 859 964 831 979 799 C 993 766 1001 729 1001 688 Z" unicode="h" />
<glyph horiz-adv-x="451" d="M 463 1219 C 463 1209 458 1198 448 1186 C 438 1173 427 1161 413 1149 C 399 1137 385 1128 371 1120 C 357 1112 345 1108 336 1108 C 326 1108 316 1112 304 1121 C 292 1129 282 1140 272 1152 C 262 1164 253 1177 246 1190 C 239 1203 236 1214 236 1223 C 236 1233 240 1244 250 1257 C 260 1269 271 1281 285 1293 C 299 1304 313 1313 327 1321 C 341 1329 352 1333 362 1333 C 372 1333 382 1328 394 1320 C 406 1311 417 1301 427 1289 C 437 1277 445 1264 452 1251 C 459 1238 463 1227 463 1219 Z M 391 928 L 227 0 L 39 0 L 203 928 L 391 928 Z" unicode="i" />
<glyph horiz-adv-x="451" d="M 463 1219 C 463 1209 458 1198 448 1186 C 438 1173 427 1161 413 1149 C 399 1137 385 1128 371 1120 C 357 1112 345 1108 336 1108 C 326 1108 316 1112 304 1121 C 292 1129 282 1140 272 1152 C 262 1164 253 1177 246 1190 C 239 1203 236 1214 236 1223 C 236 1233 240 1244 250 1257 C 260 1269 271 1281 285 1293 C 299 1304 313 1313 327 1321 C 341 1329 352 1333 362 1333 C 372 1333 382 1328 394 1320 C 406 1311 417 1301 427 1289 C 437 1277 445 1264 452 1251 C 459 1238 463 1227 463 1219 Z M 391 928 L 209 -100 C 201 -142 187 -184 167 -224 C 147 -264 123 -301 94 -335 C 64 -369 31 -398 -6 -422 C -44 -446 -84 -463 -127 -473 L -244 -356 C -172 -342 -113 -311 -65 -264 C -17 -217 12 -158 25 -86 L 203 928 L 391 928 Z" unicode="j" />
<glyph horiz-adv-x="940" d="M 1001 928 L 514 467 L 846 0 L 618 0 L 299 453 L 297 453 L 217 0 L 31 0 L 289 1458 L 475 1458 L 305 502 L 307 502 L 760 928 L 1001 928 Z" unicode="k" />
<glyph horiz-adv-x="475" d="M 475 1458 L 256 223 C 254 217 254 212 254 208 C 254 203 254 199 254 195 C 254 177 257 162 263 150 C 269 137 276 126 286 118 C 296 109 307 102 319 98 C 331 93 344 90 356 88 L 231 -37 C 218 -35 202 -30 183 -22 C 164 -14 146 -2 128 13 C 110 29 94 49 82 73 C 69 97 63 127 63 162 C 63 170 63 178 63 186 C 63 194 65 203 68 213 L 289 1458 L 475 1458 Z" unicode="l" />
<glyph horiz-adv-x="1640" d="M 1554 709 C 1554 699 1553 690 1553 680 C 1553 670 1552 660 1550 651 L 1436 0 L 1247 0 L 1364 655 C 1365 660 1366 665 1366 670 C 1366 675 1366 680 1366 686 C 1366 720 1356 747 1337 767 C 1317 787 1291 797 1257 797 C 1217 797 1180 789 1148 775 C 1116 761 1086 742 1060 718 C 1034 694 1011 666 991 635 C 971 603 953 570 939 535 C 924 500 912 465 902 429 C 892 393 884 358 879 326 L 821 0 L 633 0 L 750 655 C 751 660 752 665 752 670 C 752 675 752 680 752 686 C 752 720 742 747 723 767 C 703 787 677 797 643 797 C 603 797 566 789 534 775 C 501 761 472 742 446 718 C 420 694 397 666 377 635 C 357 603 339 570 324 535 C 309 500 297 465 287 429 C 277 393 270 358 264 326 L 207 0 L 20 0 L 184 928 L 371 928 L 336 748 L 340 745 C 375 811 422 862 480 896 C 538 930 604 948 680 948 C 714 948 746 943 776 934 C 806 924 833 910 857 892 C 880 873 899 850 914 823 C 928 796 937 765 940 729 L 946 727 C 981 799 1028 853 1086 891 C 1144 929 1214 948 1294 948 C 1330 948 1364 942 1396 932 C 1428 921 1455 905 1479 885 C 1502 865 1520 840 1534 810 C 1547 780 1554 747 1554 709 Z" unicode="m" />
<glyph horiz-adv-x="1081" d="M 991 688 C 991 667 989 647 985 627 L 877 0 L 690 0 L 803 639 C 804 645 805 650 806 656 C 806 662 807 668 807 674 C 807 712 795 742 773 764 C 750 786 720 797 682 797 C 636 797 595 789 559 773 C 522 757 489 735 459 708 C 429 681 403 650 381 615 C 358 579 338 542 322 503 C 305 463 291 423 280 383 C 269 342 260 303 254 266 L 207 0 L 20 0 L 184 928 L 371 928 L 334 731 L 338 729 C 376 801 426 855 490 893 C 553 931 625 950 707 950 C 747 950 784 944 818 932 C 852 920 882 903 908 881 C 934 859 954 831 969 799 C 983 766 991 729 991 688 Z" unicode="n" />
<glyph horiz-adv-x="1128" d="M 1051 545 C 1051 493 1043 444 1029 396 C 1014 348 994 302 968 260 C 942 218 911 179 875 145 C 839 110 799 80 756 55 C 713 30 667 11 619 -2 C 571 -16 521 -23 471 -23 C 411 -23 355 -13 304 6 C 253 25 209 52 172 88 C 135 124 106 166 86 216 C 65 266 55 321 55 383 C 55 434 62 484 77 532 C 91 580 112 625 138 667 C 164 709 195 747 231 782 C 267 816 306 846 349 871 C 392 896 438 915 486 929 C 534 943 584 950 635 950 C 695 950 750 940 801 921 C 851 901 895 874 932 838 C 969 802 998 760 1019 710 C 1040 660 1051 605 1051 545 Z M 862 543 C 862 579 856 613 845 643 C 834 673 818 698 798 719 C 778 740 753 756 723 768 C 693 780 660 786 623 786 C 571 786 522 774 476 752 C 430 729 389 699 355 661 C 321 623 294 581 274 533 C 254 485 244 435 244 385 C 244 348 249 315 260 285 C 271 255 287 229 307 208 C 327 186 352 170 382 158 C 412 146 445 141 483 141 C 535 141 584 152 630 175 C 676 198 716 228 750 266 C 784 303 812 346 832 394 C 852 442 862 492 862 543 Z" unicode="o" />
<glyph horiz-adv-x="1092" d="M 836 553 C 837 561 838 569 839 577 C 839 585 840 594 840 602 C 840 628 836 652 828 676 C 820 699 808 719 792 737 C 776 754 757 768 734 778 C 710 788 683 793 653 793 C 599 793 551 779 508 751 C 465 723 428 688 396 646 C 364 603 337 556 317 506 C 296 456 282 408 274 362 L 238 160 C 257 153 276 148 296 146 C 315 144 335 143 356 143 C 415 143 471 153 525 174 C 579 195 627 224 670 261 C 712 298 748 341 777 391 C 806 441 826 495 836 553 Z M 1022 535 C 1005 448 976 371 936 304 C 895 236 845 179 785 133 C 725 87 657 52 581 28 C 505 4 424 -8 338 -8 C 316 -8 295 -6 273 -4 C 251 -1 230 2 209 6 L 123 -473 L -63 -473 L 184 928 L 371 928 L 338 748 L 344 745 C 384 813 434 865 495 899 C 555 933 625 950 705 950 C 755 950 801 941 841 923 C 881 905 916 880 944 850 C 972 820 993 784 1008 744 C 1022 703 1030 660 1030 614 C 1030 600 1029 587 1027 574 C 1025 561 1024 548 1022 535 Z" unicode="p" />
<glyph horiz-adv-x="1090" d="M 834 776 C 817 783 794 789 766 793 C 738 797 710 799 682 799 C 628 799 577 789 528 769 C 478 749 434 721 394 687 C 354 653 321 613 294 567 C 266 521 248 472 240 420 C 238 407 236 395 235 384 C 233 372 233 360 233 348 C 233 320 236 294 243 268 C 250 242 261 220 277 200 C 293 180 313 165 339 153 C 364 141 395 135 432 135 C 466 135 501 145 539 165 C 577 185 612 213 646 250 C 680 287 710 332 736 385 C 762 438 782 498 795 565 L 834 776 Z M 1051 946 L 803 -473 L 616 -473 L 731 180 L 725 182 C 705 145 681 114 655 88 C 629 62 601 40 572 24 C 542 8 512 -3 480 -11 C 448 -19 417 -23 387 -23 C 329 -23 278 -12 235 9 C 192 30 156 58 128 93 C 100 127 79 167 65 211 C 51 255 45 301 45 348 C 45 362 45 377 46 392 C 47 407 49 422 53 438 C 69 522 99 596 142 660 C 184 724 235 777 294 820 C 352 863 417 895 487 917 C 557 939 628 950 700 950 C 742 950 784 947 827 941 C 870 935 912 926 954 915 L 985 946 L 1051 946 Z" unicode="q" />
<glyph horiz-adv-x="717" d="M 731 928 L 653 735 C 645 737 637 738 628 739 C 618 740 609 741 600 741 C 572 741 540 732 506 714 C 472 696 438 667 406 629 C 373 590 343 541 316 481 C 288 421 268 350 254 268 L 207 0 L 20 0 L 184 928 L 371 928 L 326 692 L 330 692 C 356 770 396 831 449 875 C 502 918 569 940 651 940 C 667 940 683 938 697 936 C 711 934 723 931 731 928 Z" unicode="r" />
<glyph horiz-adv-x="764" d="M 698 872 L 643 727 C 633 733 622 740 608 747 C 594 753 578 759 561 765 C 544 771 526 775 508 779 C 489 782 471 784 453 784 C 435 784 418 781 400 776 C 382 770 365 763 351 753 C 337 743 325 730 316 715 C 307 700 303 683 303 664 C 303 640 312 619 330 603 C 348 587 376 571 414 557 C 451 543 484 527 514 511 C 543 494 568 475 588 455 C 608 435 624 412 635 387 C 645 362 651 334 651 303 C 651 250 641 204 621 165 C 601 125 575 92 542 66 C 508 40 469 20 425 7 C 381 -5 334 -12 285 -12 C 258 -12 231 -10 205 -6 C 178 -2 153 3 129 10 C 105 17 83 25 63 35 C 43 45 26 55 14 66 L 27 244 C 61 214 99 190 143 172 C 186 154 234 145 287 145 C 307 145 327 147 348 153 C 368 158 387 166 404 177 C 420 188 434 202 445 219 C 455 236 461 256 461 279 C 461 307 451 329 432 347 C 412 364 385 379 350 393 C 275 422 217 456 177 495 C 137 533 117 582 117 641 C 117 689 126 731 144 769 C 162 806 187 837 218 863 C 249 888 285 907 326 920 C 366 933 409 940 455 940 C 481 940 506 937 532 932 C 558 927 582 921 604 914 C 626 907 645 900 662 892 C 678 884 690 878 698 872 Z" unicode="s" />
<glyph horiz-adv-x="735" d="M 786 928 L 727 778 L 432 778 L 346 285 C 344 277 343 270 343 262 C 342 254 342 247 342 240 C 342 202 352 176 373 162 C 393 148 421 141 455 141 C 471 141 488 142 508 145 C 528 148 545 153 561 160 L 535 10 C 527 6 517 3 507 1 C 496 0 485 -2 474 -4 C 462 -6 451 -7 440 -8 C 429 -9 420 -10 412 -10 C 376 -10 342 -4 311 6 C 280 16 253 32 231 52 C 208 72 190 96 177 125 C 164 154 158 187 158 225 C 158 234 158 244 158 254 C 158 264 160 273 162 283 L 248 778 L 66 778 L 92 928 L 274 928 L 307 1116 L 508 1212 L 459 928 L 786 928 Z" unicode="t" />
<glyph horiz-adv-x="1081" d="M 1040 928 L 877 0 L 690 0 L 727 197 L 723 199 C 685 126 634 71 571 33 C 507 -4 435 -23 354 -23 C 314 -23 276 -17 242 -5 C 208 6 178 23 152 46 C 126 68 106 96 92 129 C 77 161 70 198 70 240 C 70 260 72 281 76 301 L 184 928 L 371 928 L 258 289 C 256 283 256 278 256 272 C 256 266 256 261 256 256 C 256 214 268 183 293 162 C 318 141 351 131 391 131 C 417 131 443 135 469 143 C 494 151 518 162 541 176 C 581 200 615 229 644 265 C 673 301 698 340 719 382 C 739 424 757 468 771 516 C 785 563 797 610 807 658 C 817 705 825 752 832 798 C 839 844 846 888 854 928 L 1040 928 Z" unicode="u" />
<glyph horiz-adv-x="934" d="M 965 928 L 410 -16 L 334 -16 L 113 928 L 293 928 L 389 514 C 396 484 403 450 409 412 C 415 374 420 338 426 303 L 430 303 C 447 338 465 374 485 412 C 505 450 523 484 541 514 L 782 928 L 965 928 Z" unicode="v" />
<glyph horiz-adv-x="1411" d="M 1442 928 L 926 -16 L 858 -16 L 766 434 C 758 469 752 507 748 548 C 743 589 738 630 733 672 L 729 672 C 710 630 690 589 670 548 C 650 506 631 470 614 438 L 365 -16 L 297 -16 L 113 928 L 285 928 L 362 530 C 368 499 373 466 377 430 C 380 394 383 360 387 328 L 391 328 C 397 343 405 359 413 377 C 421 394 430 411 439 429 C 448 446 457 463 466 481 C 475 498 484 514 492 530 L 709 928 L 844 928 L 924 530 C 930 498 934 465 937 431 C 940 397 944 362 948 328 L 952 328 C 968 362 985 397 1002 432 C 1019 467 1036 500 1053 530 L 1270 928 L 1442 928 Z" unicode="w" />
<glyph horiz-adv-x="924" d="M 909 928 L 551 471 L 760 0 L 565 0 L 475 213 C 469 228 462 245 454 265 C 446 284 440 303 434 322 L 430 322 C 418 303 404 284 389 264 C 374 244 361 227 350 213 L 186 0 L -20 0 L 352 477 L 156 928 L 348 928 L 430 725 C 436 708 442 691 449 675 C 456 659 463 642 469 625 L 473 625 C 485 641 497 657 509 674 C 521 690 533 707 547 725 L 702 928 L 909 928 Z" unicode="x" />
<glyph horiz-adv-x="961" d="M 991 928 L 502 90 C 452 4 403 -69 355 -132 C 307 -194 259 -248 212 -294 C 165 -339 118 -377 71 -407 C 23 -437 -24 -462 -74 -483 L -193 -365 C -149 -347 -105 -325 -62 -301 C -18 -277 23 -247 65 -211 C 107 -175 148 -133 188 -85 C 228 -36 268 21 307 88 L 113 928 L 299 928 L 395 508 C 401 479 409 445 417 407 C 425 368 432 330 438 293 L 442 293 C 452 310 462 328 472 347 C 482 366 493 385 503 404 C 513 423 524 441 534 459 C 544 476 553 492 561 506 L 803 928 L 991 928 Z" unicode="y" />
<glyph horiz-adv-x="885" d="M 848 928 L 842 891 L 467 399 C 437 360 406 320 376 279 C 345 238 313 196 279 152 L 279 150 L 748 150 L 721 0 L -20 0 L -14 37 L 352 528 C 366 546 382 567 398 589 C 414 611 431 633 448 655 C 464 677 481 698 497 719 C 513 739 529 758 543 776 L 541 778 L 145 778 L 172 928 L 848 928 Z" unicode="z" />
<glyph horiz-adv-x="631" d="M 756 1288 C 704 1288 660 1275 624 1250 C 588 1225 559 1193 535 1155 C 511 1117 493 1075 479 1029 C 465 983 454 940 446 899 C 437 854 427 812 415 773 C 403 734 387 697 369 662 C 351 627 329 594 304 563 C 278 531 248 501 213 471 C 248 431 273 387 287 340 C 301 292 309 242 309 190 C 309 166 307 142 304 119 C 301 95 298 72 295 49 C 291 25 288 2 285 -21 C 282 -44 281 -68 281 -92 C 281 -124 284 -154 291 -181 C 298 -207 309 -230 325 -248 C 340 -266 360 -281 385 -291 C 409 -301 439 -305 475 -305 L 416 -449 C 360 -449 313 -440 273 -423 C 233 -405 201 -381 175 -350 C 149 -318 130 -281 118 -238 C 106 -195 100 -148 100 -96 C 100 -70 101 -45 104 -20 C 107 5 110 30 114 56 C 118 81 121 106 124 132 C 127 157 129 183 129 209 C 129 236 127 263 123 290 C 119 316 112 342 102 367 C 92 391 80 414 64 435 C 48 456 28 475 4 492 C 46 516 81 543 111 575 C 140 607 165 641 185 678 C 205 715 221 755 234 797 C 247 839 258 882 268 928 C 280 992 298 1055 322 1115 C 346 1175 377 1229 415 1276 C 453 1323 499 1361 554 1389 C 608 1417 673 1432 748 1432 L 756 1288 Z" unicode="{" />
<glyph horiz-adv-x="426" d="M 459 1458 L 117 -473 L -43 -473 L 299 1458 L 459 1458 Z" unicode="|" />
<glyph horiz-adv-x="631" d="M 614 492 C 572 468 536 440 507 408 C 478 376 454 342 434 305 C 414 267 397 228 385 186 C 372 144 361 100 352 55 C 339 -10 321 -73 297 -133 C 273 -193 242 -247 204 -294 C 166 -341 119 -379 65 -407 C 10 -435 -54 -449 -129 -449 L -135 -305 C -83 -305 -39 -292 -4 -267 C 31 -242 60 -210 84 -172 C 108 -134 127 -92 141 -46 C 155 0 166 42 174 84 C 182 128 193 170 205 209 C 217 248 233 285 251 320 C 269 355 290 388 316 420 C 342 451 372 482 408 512 C 372 552 347 596 332 644 C 316 692 309 742 309 795 C 309 818 310 841 313 865 C 316 889 319 912 323 936 C 327 959 330 982 333 1006 C 336 1030 338 1053 338 1077 C 338 1109 334 1139 327 1165 C 320 1191 309 1214 294 1232 C 278 1250 258 1264 234 1274 C 209 1284 179 1288 145 1288 L 203 1432 C 259 1432 307 1423 347 1406 C 387 1388 419 1364 445 1333 C 471 1302 490 1265 502 1222 C 514 1178 520 1131 520 1079 C 520 1053 518 1028 515 1002 C 512 976 509 951 506 925 C 502 899 499 874 496 848 C 493 822 492 797 492 772 C 492 744 494 717 498 691 C 502 664 508 639 518 615 C 527 591 539 568 555 547 C 571 526 590 508 614 492 Z" unicode="}" />
<glyph horiz-adv-x="772" d="M 719 645 C 712 636 703 625 691 611 C 679 597 666 582 652 566 C 638 550 622 534 606 518 C 590 502 574 487 558 474 C 542 461 526 450 512 442 C 498 434 485 430 475 430 C 461 430 446 434 431 443 C 415 452 400 462 385 473 C 370 483 356 493 343 502 C 329 511 318 516 309 516 C 299 516 288 511 276 503 C 264 495 251 485 239 473 C 226 461 214 450 203 438 C 191 426 182 416 176 410 L 66 459 C 72 467 80 478 92 492 C 104 506 117 521 131 537 C 145 553 161 569 177 585 C 193 601 209 615 225 628 C 241 641 256 652 270 660 C 284 668 296 672 307 672 C 321 672 335 667 351 658 C 367 649 382 639 397 629 C 412 618 426 608 440 599 C 453 590 464 586 473 586 C 482 586 493 590 506 599 C 518 607 531 617 544 629 C 557 641 569 653 581 665 C 592 677 601 686 608 694 L 719 645 Z" unicode="~" />
<glyph horiz-adv-x="236" d="" unicode="" />
<glyph horiz-adv-x="547" d="M 516 1202 C 516 1192 510 1180 500 1166 C 489 1152 476 1138 461 1126 C 446 1113 431 1102 415 1094 C 399 1085 387 1081 377 1081 C 367 1081 355 1085 342 1095 C 329 1104 317 1115 306 1129 C 294 1142 285 1156 277 1170 C 269 1184 266 1196 266 1206 C 266 1216 271 1228 281 1242 C 291 1256 304 1270 319 1283 C 333 1295 348 1306 364 1315 C 380 1324 393 1329 403 1329 C 413 1329 424 1324 438 1315 C 451 1305 463 1294 475 1281 C 486 1267 496 1253 504 1239 C 512 1224 516 1212 516 1202 Z M 416 899 L 291 0 L 72 0 L 268 934 L 416 899 Z" unicode="" />
<glyph horiz-adv-x="938" d="M 950 1053 L 889 893 C 851 913 813 928 777 938 C 740 947 700 952 657 952 C 606 952 558 941 512 920 C 466 899 425 871 390 836 C 354 801 326 760 305 714 C 284 668 274 619 274 569 C 274 532 280 499 292 469 C 304 439 320 414 342 393 C 364 372 390 356 420 345 C 450 333 484 328 520 328 C 572 328 623 336 671 353 C 719 369 765 392 809 420 L 776 242 C 743 222 709 207 674 195 C 638 183 602 176 565 172 L 535 0 L 418 0 L 449 170 C 395 174 346 187 302 208 C 258 228 220 256 188 290 C 156 324 131 363 113 409 C 95 455 86 505 86 559 C 86 633 99 703 127 769 C 155 834 192 891 240 941 C 288 990 344 1030 408 1061 C 472 1092 540 1111 614 1118 L 647 1307 L 766 1307 L 731 1118 C 769 1114 806 1108 844 1098 C 882 1088 917 1073 950 1053 Z" unicode="" />
<glyph horiz-adv-x="881" d="M 889 1290 L 827 1141 C 807 1149 786 1155 764 1160 C 742 1164 720 1167 700 1167 C 627 1167 568 1145 522 1102 C 476 1059 446 995 432 911 L 397 713 L 649 713 L 606 602 L 379 602 L 360 500 C 346 419 326 349 302 290 C 278 230 252 186 225 158 C 237 161 250 164 266 167 C 282 170 299 173 317 175 C 335 177 353 178 373 180 C 392 181 411 182 430 182 C 452 182 476 181 502 179 C 528 177 554 175 580 172 C 606 168 632 164 658 159 C 683 153 707 147 731 139 L 668 -23 C 632 -7 590 4 542 14 C 493 24 439 29 379 29 C 319 29 263 24 212 14 C 161 4 115 -7 74 -23 L 0 84 C 40 134 74 193 104 263 C 133 333 157 417 176 516 L 193 602 L 35 602 L 53 713 L 211 713 L 248 922 C 260 987 278 1045 304 1095 C 330 1145 362 1186 400 1220 C 438 1254 483 1279 534 1297 C 584 1314 640 1323 702 1323 C 738 1323 772 1320 805 1314 C 838 1308 866 1300 889 1290 Z" unicode="" />
<glyph horiz-adv-x="1152" d="M 1056 392 L 940 284 L 740 500 C 692 468 636 452 572 452 C 510 452 456 468 408 500 L 208 284 L 92 392 L 300 608 C 281 634 268 660 262 686 C 255 711 252 742 252 780 C 252 812 255 842 262 870 C 268 898 281 925 300 952 L 92 1168 L 208 1276 L 408 1060 C 456 1092 510 1108 572 1108 C 636 1108 692 1092 740 1060 L 944 1276 L 1060 1156 L 852 952 C 870 925 883 898 890 872 C 896 845 900 814 900 780 C 900 716 882 658 848 608 L 1056 392 Z M 748 780 C 748 833 731 876 698 910 C 664 943 622 960 572 960 C 521 960 480 943 448 910 C 416 876 400 833 400 780 C 400 726 416 684 450 652 C 483 620 524 604 572 604 C 625 604 668 620 700 652 C 732 684 748 726 748 780 Z" unicode="" />
<glyph horiz-adv-x="1055" d="M 1151 1307 L 680 618 L 928 618 L 909 508 L 623 508 L 532 0 L 338 0 L 428 508 L 141 508 L 160 618 L 408 618 L 178 1307 L 373 1307 L 504 913 C 513 884 523 851 533 815 C 543 779 553 745 561 715 L 565 715 C 574 730 584 746 595 764 C 606 781 617 798 628 816 C 639 833 650 850 661 867 C 672 883 682 899 692 913 L 958 1307 L 1151 1307 Z" unicode="" />
<glyph horiz-adv-x="487" d="M 489 1458 L 340 614 L 180 614 L 330 1458 L 489 1458 Z M 297 371 L 147 -473 L -12 -473 L 137 371 L 297 371 Z" unicode="" />
<glyph horiz-adv-x="993" d="M 948 1253 L 889 1096 C 879 1103 866 1111 850 1119 C 834 1127 816 1135 796 1142 C 776 1148 754 1154 730 1158 C 706 1162 681 1165 655 1165 C 623 1165 592 1159 564 1149 C 536 1139 511 1125 489 1108 C 467 1091 449 1072 435 1050 C 421 1028 412 1005 408 983 C 406 977 405 971 404 965 C 403 958 403 951 403 944 C 403 932 404 919 407 907 C 409 895 414 885 422 877 L 829 356 L 721 92 C 743 48 754 1 754 -49 C 754 -71 752 -92 748 -113 C 740 -158 724 -201 701 -242 C 678 -283 647 -319 609 -350 C 571 -381 525 -406 472 -425 C 418 -443 357 -453 289 -453 C 257 -453 226 -450 198 -446 C 169 -441 143 -435 119 -428 C 95 -420 74 -412 56 -403 C 38 -394 24 -385 14 -377 L 74 -219 C 84 -227 97 -235 113 -243 C 129 -251 147 -258 167 -265 C 187 -272 208 -278 232 -282 C 256 -286 281 -289 307 -289 C 339 -289 369 -283 397 -273 C 425 -263 451 -249 473 -232 C 495 -215 513 -196 527 -174 C 541 -152 551 -129 555 -106 C 556 -100 557 -94 558 -88 C 558 -82 559 -75 559 -68 C 559 -55 557 -43 555 -31 C 553 -19 548 -9 541 0 L 135 520 L 244 786 C 232 808 224 832 219 857 C 213 882 211 907 211 932 C 211 942 211 951 211 961 C 211 970 213 979 215 989 C 223 1033 238 1076 261 1118 C 284 1159 315 1195 353 1226 C 391 1257 436 1282 490 1301 C 544 1319 605 1329 674 1329 C 706 1329 736 1326 765 1322 C 793 1317 819 1311 843 1304 C 867 1296 888 1288 906 1279 C 924 1270 938 1261 948 1253 Z M 694 295 L 336 748 L 270 582 L 627 129 L 694 295 Z" unicode="" />
<glyph horiz-adv-x="1024" d="M 895 1157 C 895 1147 890 1137 881 1125 C 871 1113 860 1101 847 1091 C 834 1080 821 1071 807 1064 C 793 1056 782 1053 774 1053 C 765 1053 755 1057 744 1065 C 733 1073 723 1082 713 1094 C 703 1105 694 1117 688 1129 C 681 1141 678 1152 678 1161 C 678 1170 682 1181 692 1193 C 701 1205 712 1217 725 1228 C 738 1239 751 1248 765 1256 C 779 1264 790 1268 799 1268 C 808 1268 818 1263 829 1255 C 840 1247 850 1237 860 1225 C 870 1213 878 1201 885 1189 C 891 1176 895 1165 895 1157 Z M 573 1157 C 573 1147 568 1137 559 1125 C 549 1113 538 1101 525 1091 C 512 1080 499 1071 486 1064 C 472 1056 461 1053 453 1053 C 444 1053 434 1057 423 1065 C 411 1073 401 1082 391 1094 C 381 1105 372 1117 366 1129 C 359 1141 356 1152 356 1161 C 356 1170 360 1181 370 1193 C 379 1205 390 1217 403 1228 C 416 1239 429 1248 443 1256 C 457 1264 468 1268 477 1268 C 486 1268 496 1263 507 1255 C 518 1247 528 1237 538 1225 C 548 1213 556 1201 563 1189 C 569 1176 573 1165 573 1157 Z" unicode="" />
<glyph horiz-adv-x="1249" d="M 1169 569 C 1169 511 1161 457 1147 405 C 1133 353 1112 305 1086 261 C 1059 217 1027 177 990 142 C 953 106 912 76 867 51 C 821 26 772 7 720 -6 C 668 -20 613 -27 557 -27 C 486 -27 421 -15 363 9 C 304 33 253 66 211 109 C 169 152 136 203 113 263 C 89 322 78 387 78 457 C 78 514 85 568 99 620 C 113 672 134 720 161 764 C 187 808 219 848 256 884 C 293 919 334 949 380 974 C 425 999 474 1018 526 1032 C 578 1046 633 1053 690 1053 C 760 1053 825 1041 884 1017 C 942 993 993 959 1035 916 C 1077 873 1110 822 1134 763 C 1157 703 1169 639 1169 569 Z M 1055 573 C 1055 629 1045 680 1027 726 C 1008 771 982 810 948 842 C 914 874 874 898 828 916 C 782 933 731 942 676 942 C 606 942 542 929 483 904 C 423 878 372 843 329 799 C 285 755 251 703 227 643 C 202 583 190 519 190 451 C 190 394 199 343 218 298 C 236 252 262 214 296 182 C 330 150 370 125 416 108 C 462 90 513 82 569 82 C 638 82 702 94 762 120 C 821 145 872 180 916 224 C 959 268 993 320 1018 380 C 1042 440 1055 504 1055 573 Z M 881 750 L 831 629 C 807 642 785 652 765 658 C 744 664 720 668 692 668 C 666 668 641 662 617 651 C 593 640 572 625 554 607 C 536 589 521 568 510 544 C 499 520 494 495 494 469 C 494 431 505 401 529 379 C 553 357 583 346 621 346 C 655 346 687 353 717 367 C 747 381 776 398 803 418 L 776 268 C 747 249 719 236 691 229 C 663 222 632 219 598 219 C 562 219 529 224 499 236 C 469 248 443 264 421 286 C 399 307 381 332 369 362 C 356 392 350 425 350 461 C 350 508 359 552 378 594 C 396 635 421 671 453 701 C 485 731 522 755 564 773 C 606 790 650 799 698 799 C 731 799 762 795 792 787 C 822 779 851 767 881 750 Z" unicode="" />
<glyph horiz-adv-x="936" d="M 948 1272 L 825 578 L 659 578 L 682 694 L 678 694 C 648 650 610 617 566 594 C 522 570 474 559 422 559 C 378 559 339 566 305 581 C 270 596 240 617 216 643 C 192 669 173 701 160 737 C 147 773 141 813 141 856 C 141 868 141 880 142 892 C 143 903 145 915 147 928 C 159 990 182 1047 215 1097 C 248 1147 288 1190 335 1225 C 382 1259 434 1286 492 1305 C 550 1323 610 1333 672 1333 C 719 1333 766 1328 814 1319 C 861 1310 906 1294 948 1272 Z M 575 307 C 575 297 570 287 561 275 C 551 263 540 251 527 241 C 514 230 501 221 488 214 C 474 206 463 203 455 203 C 446 203 436 207 425 215 C 413 223 403 232 393 244 C 383 255 374 267 368 279 C 361 291 358 302 358 311 C 358 320 362 331 372 343 C 381 355 392 367 405 378 C 418 389 431 398 445 406 C 459 414 470 418 479 418 C 488 418 498 413 509 405 C 520 397 530 387 540 375 C 550 363 558 351 565 339 C 571 326 575 315 575 307 Z M 768 1184 C 750 1190 732 1193 713 1195 C 694 1197 675 1198 657 1198 C 611 1198 567 1188 525 1170 C 483 1151 445 1126 413 1095 C 381 1063 355 1027 336 985 C 316 943 307 900 307 854 C 307 806 320 768 346 740 C 372 712 410 698 459 698 C 497 698 531 709 563 731 C 595 753 623 780 647 813 C 671 845 690 881 706 919 C 722 957 733 993 739 1026 L 768 1184 Z" unicode="" />
<glyph horiz-adv-x="838" d="M 793 700 C 767 656 741 614 715 573 C 688 531 659 491 629 453 C 646 413 661 372 673 330 C 685 288 695 247 705 205 L 668 154 C 645 192 620 228 593 264 C 565 300 536 333 504 365 C 496 372 489 379 482 385 C 475 391 468 398 461 406 C 453 413 447 421 443 429 C 438 437 436 446 436 457 C 436 469 441 481 451 493 C 461 505 471 514 481 520 C 533 559 584 599 634 639 C 683 679 730 724 776 772 L 793 700 Z M 387 700 C 362 656 336 614 310 573 C 283 531 254 491 223 453 C 240 413 255 372 267 330 C 279 288 289 247 299 205 L 262 154 C 239 192 214 228 187 264 C 159 300 130 333 98 365 C 90 372 83 379 76 385 C 69 391 62 398 55 406 C 47 413 41 421 37 429 C 33 437 31 446 31 457 C 31 469 36 480 46 492 C 56 503 66 512 76 520 C 128 559 178 599 228 639 C 278 679 325 724 371 772 L 387 700 Z" unicode="" />
<glyph horiz-adv-x="1024" d="M 924 647 L 858 276 L 694 276 L 731 487 L 76 487 L 104 647 L 924 647 Z" unicode="" />
<glyph horiz-adv-x="676" d="M 616 647 L 588 487 L 76 487 L 104 647 L 616 647 Z" unicode="" />
<glyph horiz-adv-x="983" d="M 981 963 C 981 896 968 834 944 778 C 919 722 885 673 843 633 C 801 592 751 560 694 538 C 636 515 575 504 510 504 C 456 504 406 513 361 531 C 315 549 276 575 244 608 C 211 640 186 679 168 725 C 150 770 141 820 141 874 C 141 940 153 1002 177 1058 C 201 1114 235 1163 278 1204 C 320 1244 370 1276 428 1299 C 485 1321 546 1333 612 1333 C 666 1333 715 1323 761 1305 C 806 1287 845 1261 878 1229 C 910 1196 936 1157 954 1112 C 972 1066 981 1017 981 963 Z M 893 967 C 893 1009 885 1048 871 1083 C 857 1118 837 1148 811 1172 C 785 1196 755 1215 719 1229 C 683 1242 644 1249 602 1249 C 548 1249 499 1239 454 1219 C 408 1199 369 1172 336 1138 C 302 1104 276 1064 257 1018 C 238 972 229 922 229 870 C 229 826 236 787 250 753 C 264 718 284 688 310 664 C 336 640 366 621 402 608 C 438 594 477 588 520 588 C 573 588 622 597 668 617 C 713 637 752 664 786 698 C 819 732 845 773 864 819 C 883 865 893 914 893 967 Z M 758 1036 C 758 1019 755 1002 749 986 C 743 970 735 955 725 941 C 715 927 703 915 689 905 C 675 895 661 887 645 883 L 733 715 L 645 662 L 547 868 L 502 868 L 465 662 L 365 662 L 457 1174 L 602 1174 C 622 1174 641 1170 660 1164 C 678 1158 695 1149 710 1137 C 724 1125 736 1110 745 1093 C 753 1076 758 1057 758 1036 Z M 657 1032 C 657 1051 650 1065 637 1074 C 624 1082 609 1087 592 1087 L 539 1087 L 514 948 L 565 948 C 589 948 611 955 629 971 C 647 986 657 1006 657 1032 Z" unicode="" />
<glyph horiz-adv-x="1024" d="M 825 1233 L 799 1075 L 422 1075 L 449 1233 L 825 1233 Z" unicode="" />
<glyph horiz-adv-x="623" d="M 649 1128 C 649 1092 641 1058 626 1027 C 611 995 591 968 566 945 C 541 921 512 903 480 890 C 447 876 413 870 379 870 C 351 870 324 875 300 886 C 275 897 254 912 236 931 C 218 949 203 971 193 996 C 183 1021 178 1047 178 1075 C 178 1111 185 1144 200 1176 C 215 1207 235 1234 261 1258 C 286 1281 315 1299 347 1313 C 379 1326 413 1333 449 1333 C 477 1333 503 1327 527 1316 C 551 1305 573 1290 591 1272 C 609 1253 623 1231 633 1207 C 643 1182 649 1156 649 1128 Z M 518 1124 C 518 1149 509 1170 493 1186 C 477 1202 456 1210 432 1210 C 414 1210 398 1206 383 1199 C 367 1191 354 1182 343 1170 C 331 1158 322 1144 316 1128 C 310 1112 307 1095 307 1079 C 307 1054 315 1033 332 1017 C 349 1001 370 993 395 993 C 412 993 428 996 443 1004 C 458 1011 471 1021 482 1033 C 493 1045 502 1059 508 1075 C 514 1091 518 1107 518 1124 Z" unicode="" />
<glyph horiz-adv-x="1536" d="M 672 352 L 672 764 L 200 764 L 200 936 L 672 936 L 672 1352 L 864 1352 L 864 936 L 1340 936 L 1340 764 L 864 764 L 864 352 L 672 352 Z M 204 24 L 204 216 L 1336 216 L 1336 24 L 204 24 Z" unicode="" />
<glyph horiz-adv-x="760" d="M 666 1120 C 666 1071 654 1023 630 977 C 606 930 577 885 542 843 C 507 800 469 760 429 722 C 389 684 352 651 319 621 L 618 621 L 598 510 L 66 510 L 72 543 C 93 561 119 585 150 613 C 181 641 213 671 247 704 C 281 737 314 772 348 808 C 382 844 412 881 438 917 C 464 953 486 989 503 1024 C 519 1058 528 1090 528 1120 C 528 1153 519 1178 501 1194 C 483 1210 458 1219 426 1219 C 392 1219 360 1214 330 1204 C 299 1194 270 1181 242 1165 L 225 1278 C 291 1313 362 1331 436 1331 C 468 1331 498 1326 526 1317 C 554 1308 578 1295 599 1277 C 619 1259 636 1236 648 1210 C 660 1184 666 1154 666 1120 Z" unicode="" />
<glyph horiz-adv-x="639" d="M 600 1165 C 600 1143 596 1123 589 1104 C 582 1085 572 1068 560 1052 C 547 1036 532 1021 516 1009 C 499 997 481 987 463 979 C 505 964 537 940 561 908 C 584 875 596 837 596 793 C 596 742 586 698 566 661 C 546 623 519 592 486 568 C 453 544 415 526 372 514 C 329 502 285 496 240 496 C 188 496 140 506 96 526 L 104 643 C 146 621 192 610 242 610 C 268 610 294 614 320 622 C 346 630 369 642 389 658 C 409 674 426 693 439 716 C 452 738 459 764 459 793 C 459 815 454 835 445 851 C 435 867 423 879 408 889 C 392 898 375 904 356 908 C 336 911 317 911 297 909 L 276 1018 C 293 1020 312 1025 334 1032 C 356 1039 376 1048 395 1060 C 413 1071 429 1085 442 1101 C 454 1117 461 1135 461 1157 C 461 1179 453 1195 438 1205 C 423 1214 405 1219 385 1219 C 356 1219 330 1215 308 1208 C 285 1201 261 1192 236 1180 L 219 1290 C 247 1303 276 1313 305 1320 C 334 1327 365 1331 397 1331 C 422 1331 447 1327 471 1320 C 495 1313 517 1303 536 1289 C 555 1275 570 1258 582 1238 C 594 1217 600 1193 600 1165 Z" unicode="" />
<glyph horiz-adv-x="1024" d="M 895 1331 C 895 1327 893 1322 890 1317 C 887 1312 883 1307 879 1302 C 875 1297 870 1292 866 1288 C 862 1284 858 1280 856 1278 C 810 1232 761 1191 709 1153 C 657 1115 603 1081 547 1049 L 424 1100 C 470 1132 514 1167 556 1205 C 598 1243 638 1283 676 1325 C 685 1335 694 1346 703 1357 C 712 1367 721 1378 731 1389 C 739 1397 749 1405 761 1413 C 772 1421 784 1425 797 1425 C 803 1425 812 1421 824 1414 C 835 1407 846 1399 856 1389 C 866 1379 875 1368 883 1358 C 891 1347 895 1338 895 1331 Z" unicode="" />
<glyph horiz-adv-x="1408" d="M 252 -424 C 214 -424 186 -413 168 -392 C 149 -370 140 -333 140 -280 C 140 -226 141 -168 144 -106 C 146 -43 150 25 156 100 C 161 166 165 218 168 256 C 170 293 172 317 172 328 C 174 341 176 350 176 356 C 176 361 176 365 176 368 L 176 1176 L 368 1176 L 368 320 C 368 258 395 210 450 176 C 504 141 564 124 628 124 C 716 124 792 146 858 190 C 923 234 973 297 1008 380 L 1008 1176 L 1200 1176 L 1200 308 L 1220 0 L 1056 0 L 1020 176 C 974 104 913 50 836 14 C 758 -22 670 -40 572 -40 C 537 -40 494 -31 444 -14 C 393 3 353 28 324 60 C 324 1 333 -56 352 -112 C 370 -168 380 -218 380 -264 C 380 -370 337 -424 252 -424 Z" unicode="" />
<glyph horiz-adv-x="846" d="M 975 1317 L 948 1165 L 805 1165 L 584 -100 C 576 -142 562 -184 542 -224 C 522 -264 498 -301 469 -335 C 439 -369 406 -398 368 -422 C 330 -446 290 -463 248 -473 L 131 -356 C 166 -349 199 -338 229 -322 C 259 -306 285 -287 309 -264 C 332 -241 351 -215 367 -185 C 382 -155 393 -122 399 -86 L 512 571 C 463 571 416 576 372 588 C 327 599 287 617 253 642 C 219 666 191 698 171 737 C 151 775 141 822 141 877 C 141 945 154 1006 181 1060 C 207 1114 243 1161 288 1199 C 332 1237 384 1266 443 1286 C 501 1306 563 1317 627 1317 L 975 1317 Z" unicode="" />
<glyph horiz-adv-x="406" d="M 330 551 C 330 541 324 529 313 515 C 302 501 289 487 274 475 C 259 462 244 451 228 443 C 212 434 200 430 190 430 C 180 430 168 434 156 444 C 143 453 131 464 120 478 C 108 491 99 505 91 519 C 83 533 80 545 80 555 C 80 565 85 577 95 591 C 105 605 118 619 133 632 C 147 644 162 655 178 664 C 194 673 207 678 217 678 C 227 678 238 673 252 664 C 265 654 277 643 289 630 C 300 616 310 602 318 588 C 326 573 330 561 330 551 Z" unicode="" />
<glyph horiz-adv-x="1024" d="M 567 -233 C 567 -268 560 -300 546 -330 C 532 -359 514 -384 491 -405 C 468 -426 441 -443 411 -455 C 381 -467 349 -473 315 -473 C 286 -473 258 -468 230 -460 C 202 -452 176 -439 154 -422 L 193 -322 C 210 -336 230 -346 252 -352 C 274 -358 296 -362 319 -362 C 333 -362 348 -358 362 -352 C 376 -346 389 -337 401 -327 C 412 -316 421 -304 428 -290 C 434 -276 438 -262 438 -248 C 438 -238 436 -229 432 -220 C 428 -210 424 -202 418 -195 C 412 -187 404 -181 396 -177 C 388 -172 379 -170 369 -170 C 361 -170 354 -169 346 -168 C 338 -167 330 -165 324 -162 C 317 -159 311 -155 307 -149 C 303 -143 301 -136 301 -127 C 301 -119 302 -110 306 -99 C 310 -87 314 -75 319 -63 C 323 -51 328 -39 333 -28 C 338 -16 342 -7 346 0 L 424 0 L 401 -55 C 425 -55 447 -61 467 -71 C 487 -81 504 -94 519 -110 C 534 -126 546 -145 554 -167 C 562 -188 567 -210 567 -233 Z" unicode="" />
<glyph horiz-adv-x="551" d="M 518 1333 L 373 510 L 242 510 L 362 1200 L 193 1184 L 242 1307 L 518 1333 Z" unicode="" />
<glyph horiz-adv-x="940" d="M 948 1008 C 948 945 935 886 909 831 C 883 776 848 728 804 687 C 760 646 710 614 654 590 C 597 566 538 555 477 555 C 429 555 384 562 343 578 C 301 593 265 615 235 643 C 204 671 180 706 163 746 C 145 786 137 831 137 881 C 137 943 150 1001 176 1056 C 202 1111 236 1159 280 1200 C 323 1241 373 1273 430 1297 C 487 1321 546 1333 608 1333 C 656 1333 700 1325 742 1310 C 784 1294 820 1272 850 1244 C 880 1216 904 1182 922 1142 C 939 1102 948 1057 948 1008 Z M 539 307 C 539 297 534 287 525 275 C 515 263 504 251 491 241 C 478 230 465 221 451 214 C 437 206 426 203 418 203 C 409 203 399 207 388 215 C 377 223 367 232 357 244 C 347 255 338 267 332 279 C 325 291 322 302 322 311 C 322 320 326 331 336 343 C 345 355 356 367 369 378 C 382 389 395 398 409 406 C 422 414 433 418 442 418 C 451 418 461 413 473 405 C 484 397 494 387 504 375 C 514 363 522 351 529 339 C 535 326 539 315 539 307 Z M 780 1006 C 780 1062 763 1107 731 1139 C 698 1171 654 1188 598 1188 C 558 1188 520 1179 484 1162 C 448 1144 417 1121 391 1093 C 365 1065 344 1032 328 996 C 312 959 305 921 305 883 C 305 826 321 781 354 749 C 387 716 431 700 487 700 C 527 700 564 708 600 726 C 636 743 667 766 693 794 C 719 822 740 855 756 892 C 772 928 780 966 780 1006 Z" unicode="" />
<glyph horiz-adv-x="838" d="M 786 469 C 786 456 780 444 770 432 C 760 420 750 412 741 406 C 689 366 638 326 588 286 C 538 246 490 202 444 154 L 430 225 C 454 268 480 310 506 352 C 532 393 560 433 592 473 C 574 513 560 553 549 595 C 537 637 527 679 518 721 L 553 772 C 575 734 601 697 629 661 C 657 625 687 592 719 561 C 726 553 733 546 740 540 C 747 534 754 527 762 520 C 769 512 775 504 779 496 C 783 488 786 479 786 469 Z M 381 469 C 381 456 375 444 365 432 C 355 420 345 412 336 406 C 283 366 232 326 182 286 C 132 246 84 202 39 154 L 25 225 C 49 268 75 310 101 352 C 127 393 155 433 186 473 C 168 513 154 553 143 595 C 132 637 122 679 113 721 L 147 772 C 170 734 195 697 223 661 C 251 625 281 592 313 561 C 320 553 327 546 334 540 C 341 534 348 527 356 520 C 363 512 369 504 374 496 C 378 488 381 479 381 469 Z" unicode="" />
<glyph horiz-adv-x="1522" d="M 1368 317 L 1348 211 L 1247 211 L 1206 0 L 1071 0 L 1110 211 L 770 211 L 754 311 L 1255 805 L 1360 805 L 1268 317 L 1368 317 Z M 1427 1278 L 119 -53 L 35 31 L 1343 1362 L 1427 1278 Z M 518 1333 L 373 510 L 242 510 L 362 1200 L 193 1184 L 242 1307 L 518 1333 Z M 1184 580 L 1183 579 C 1182 579 1182 579 1182 580 C 1168 565 1155 551 1141 538 C 1127 524 1113 511 1100 498 L 918 317 L 1130 317 L 1167 504 C 1169 515 1171 528 1174 542 C 1177 556 1180 568 1184 580 Z" unicode="" />
<glyph horiz-adv-x="1634" d="M 1511 610 C 1511 561 1499 513 1475 467 C 1451 420 1422 375 1387 333 C 1352 290 1315 250 1275 212 C 1235 174 1198 141 1165 111 L 1464 111 L 1444 0 L 911 0 L 918 33 C 939 51 965 75 996 103 C 1027 131 1059 161 1093 194 C 1127 227 1160 262 1194 298 C 1228 334 1258 371 1284 407 C 1310 443 1332 479 1349 514 C 1365 548 1374 580 1374 610 C 1374 643 1365 668 1347 684 C 1329 700 1304 709 1272 709 C 1238 709 1206 704 1175 694 C 1144 684 1115 671 1087 655 L 1071 768 C 1137 803 1208 821 1282 821 C 1314 821 1344 816 1372 807 C 1400 798 1424 785 1445 767 C 1465 749 1481 727 1493 701 C 1505 675 1511 644 1511 610 Z M 1427 1278 L 119 -53 L 35 31 L 1343 1362 L 1427 1278 Z M 518 1333 L 373 510 L 242 510 L 362 1200 L 193 1184 L 242 1307 L 518 1333 Z" unicode="" />
<glyph horiz-adv-x="1577" d="M 1450 317 L 1430 211 L 1329 211 L 1288 0 L 1153 0 L 1192 211 L 852 211 L 836 311 L 1337 805 L 1442 805 L 1350 317 L 1450 317 Z M 1509 1278 L 201 -53 L 117 31 L 1425 1362 L 1509 1278 Z M 600 1165 C 600 1143 596 1123 589 1104 C 582 1085 572 1068 560 1052 C 547 1036 532 1021 516 1009 C 499 997 481 987 463 979 C 505 964 537 940 561 908 C 584 875 596 837 596 793 C 596 742 586 698 566 661 C 546 623 519 592 486 568 C 453 544 415 526 372 514 C 329 502 285 496 240 496 C 188 496 140 506 96 526 L 104 643 C 146 621 192 610 242 610 C 268 610 294 614 320 622 C 346 630 369 642 389 658 C 409 674 426 693 439 716 C 452 738 459 764 459 793 C 459 815 454 835 445 851 C 435 867 423 879 408 889 C 392 898 375 904 356 908 C 336 911 317 911 297 909 L 276 1018 C 293 1020 312 1025 334 1032 C 356 1039 376 1048 395 1060 C 413 1071 429 1085 442 1101 C 454 1117 461 1135 461 1157 C 461 1179 453 1195 438 1205 C 423 1214 405 1219 385 1219 C 356 1219 330 1215 308 1208 C 285 1201 261 1192 236 1180 L 219 1290 C 247 1303 276 1313 305 1320 C 334 1327 365 1331 397 1331 C 422 1331 447 1327 471 1320 C 495 1313 517 1303 536 1289 C 555 1275 570 1258 582 1238 C 594 1217 600 1193 600 1165 Z M 1264 580 C 1250 565 1237 551 1223 538 C 1209 524 1195 511 1182 498 L 999 317 L 1212 317 C 1220 361 1229 405 1237 449 C 1245 493 1254 536 1266 580 C 1264 579 1264 579 1264 579 L 1264 580 Z" unicode="" />
<glyph horiz-adv-x="766" d="M 647 1202 C 647 1192 641 1181 630 1168 C 619 1154 606 1141 591 1129 C 576 1117 561 1106 545 1098 C 529 1089 517 1085 508 1085 C 496 1085 483 1090 470 1100 C 457 1110 445 1122 434 1136 C 423 1150 414 1164 407 1180 C 400 1195 397 1208 397 1219 C 397 1227 402 1238 413 1251 C 424 1264 437 1277 453 1289 C 468 1301 483 1311 499 1320 C 515 1328 527 1333 537 1333 C 548 1333 560 1328 573 1318 C 585 1308 597 1297 608 1283 C 619 1269 628 1255 636 1240 C 643 1225 647 1212 647 1202 Z M 627 49 C 591 28 550 11 506 -2 C 462 -16 414 -23 362 -23 C 314 -23 270 -17 230 -5 C 189 7 154 24 124 47 C 94 69 70 97 53 131 C 35 164 27 202 27 246 C 27 286 33 324 46 360 C 59 396 76 429 98 461 C 119 492 143 521 171 549 C 198 577 226 603 256 629 C 278 649 298 668 316 688 C 334 707 348 727 360 748 C 371 769 380 792 386 817 C 392 841 395 869 395 899 C 395 905 395 911 395 918 C 395 925 394 932 393 938 L 553 901 C 554 893 555 886 555 879 C 555 872 555 865 555 858 C 555 781 541 714 513 657 C 485 599 441 546 383 496 C 365 481 347 465 329 449 C 311 433 294 415 279 396 C 264 377 252 357 242 335 C 232 313 227 290 227 266 C 227 251 229 236 235 222 C 240 207 248 194 260 182 C 272 170 286 161 304 154 C 322 146 343 143 367 143 C 412 143 454 149 492 163 C 530 177 568 194 604 215 L 627 49 Z" unicode="" />
<glyph horiz-adv-x="1268" d="M 1135 0 L 934 0 L 852 338 L 344 338 L 143 0 L -51 0 L 739 1325 L 811 1325 L 1135 0 Z M 813 496 L 739 815 C 733 836 728 861 724 890 C 720 918 716 947 713 975 L 709 975 C 696 947 682 918 666 890 C 650 861 637 836 625 815 L 440 496 L 813 496 Z M 983 1513 L 862 1458 C 814 1489 767 1523 721 1559 C 675 1595 633 1635 596 1681 C 590 1688 584 1696 577 1706 C 570 1716 567 1725 567 1735 C 567 1742 570 1751 578 1763 C 585 1774 594 1785 605 1796 C 615 1806 626 1815 637 1823 C 648 1831 658 1835 666 1835 C 678 1835 689 1830 699 1822 C 709 1814 717 1805 725 1796 C 745 1769 765 1743 785 1719 C 804 1694 824 1670 845 1647 C 865 1623 887 1600 909 1578 C 931 1556 956 1534 983 1513 Z" unicode="" />
<glyph horiz-adv-x="1268" d="M 1135 0 L 934 0 L 852 338 L 344 338 L 143 0 L -51 0 L 739 1325 L 811 1325 L 1135 0 Z M 813 496 L 739 815 C 733 836 728 861 724 890 C 720 918 716 947 713 975 L 709 975 C 696 947 682 918 666 890 C 650 861 637 836 625 815 L 440 496 L 813 496 Z M 1083 1741 C 1083 1737 1081 1732 1078 1727 C 1075 1721 1072 1716 1068 1711 C 1064 1706 1059 1702 1055 1698 C 1051 1694 1047 1690 1044 1688 C 998 1642 949 1600 897 1562 C 845 1524 791 1490 735 1458 L 612 1509 C 658 1542 702 1577 744 1615 C 786 1653 826 1693 864 1735 C 873 1745 882 1755 892 1766 C 901 1777 910 1788 920 1798 C 928 1806 937 1815 949 1823 C 961 1831 973 1835 985 1835 C 992 1835 1001 1831 1012 1824 C 1023 1816 1034 1808 1045 1798 C 1055 1788 1064 1777 1072 1767 C 1079 1756 1083 1747 1083 1741 Z" unicode="" />
<glyph horiz-adv-x="1268" d="M 1135 0 L 934 0 L 852 338 L 344 338 L 143 0 L -51 0 L 739 1325 L 811 1325 L 1135 0 Z M 813 496 L 739 815 C 733 836 728 861 724 890 C 720 918 716 947 713 975 L 709 975 C 696 947 682 918 666 890 C 650 861 637 836 625 815 L 440 496 L 813 496 Z M 1155 1513 L 1030 1458 C 994 1482 959 1508 925 1534 C 891 1560 859 1589 829 1620 C 790 1590 750 1561 709 1534 C 667 1506 625 1481 582 1458 L 463 1509 C 494 1529 524 1551 552 1574 C 580 1596 608 1620 635 1644 C 662 1668 689 1693 715 1719 C 741 1744 768 1770 795 1796 C 804 1804 815 1812 827 1821 C 839 1830 852 1835 866 1835 C 878 1835 889 1830 898 1822 C 907 1814 915 1805 922 1796 C 928 1786 933 1777 938 1768 C 942 1759 948 1750 954 1741 C 981 1699 1012 1658 1046 1620 C 1080 1582 1117 1546 1155 1513 Z" unicode="" />
<glyph horiz-adv-x="1268" d="M 1135 0 L 934 0 L 852 338 L 344 338 L 143 0 L -51 0 L 739 1325 L 811 1325 L 1135 0 Z M 813 496 L 739 815 C 733 836 728 861 724 890 C 720 918 716 947 713 975 L 709 975 C 696 947 682 918 666 890 C 650 861 637 836 625 815 L 440 496 L 813 496 Z M 1241 1747 C 1233 1737 1223 1724 1209 1708 C 1195 1692 1180 1674 1163 1656 C 1146 1637 1128 1618 1109 1600 C 1090 1581 1071 1564 1053 1549 C 1034 1533 1016 1521 1000 1511 C 983 1501 968 1497 956 1497 C 940 1497 923 1502 905 1512 C 887 1522 869 1534 852 1547 C 834 1559 818 1571 803 1581 C 787 1591 774 1597 764 1597 C 753 1597 740 1592 725 1582 C 710 1572 695 1560 680 1547 C 665 1533 651 1520 638 1506 C 625 1492 615 1481 608 1473 L 479 1530 C 486 1540 496 1553 510 1569 C 524 1585 539 1602 556 1621 C 572 1639 590 1658 609 1677 C 628 1695 647 1712 665 1728 C 683 1743 701 1755 718 1765 C 734 1775 749 1780 762 1780 C 778 1780 795 1774 813 1764 C 831 1753 849 1741 867 1729 C 884 1717 900 1705 916 1695 C 931 1684 944 1679 954 1679 C 964 1679 977 1684 992 1694 C 1007 1704 1022 1715 1037 1729 C 1052 1743 1066 1757 1080 1771 C 1093 1785 1104 1796 1112 1804 L 1241 1747 Z" unicode="" />
<glyph horiz-adv-x="1268" d="M 1135 0 L 934 0 L 852 338 L 344 338 L 143 0 L -51 0 L 739 1325 L 811 1325 L 1135 0 Z M 813 496 L 739 815 C 733 836 728 861 724 890 C 720 918 716 947 713 975 L 709 975 C 696 947 682 918 666 890 C 650 861 637 836 625 815 L 440 496 L 813 496 Z M 1087 1567 C 1087 1557 1082 1547 1073 1535 C 1063 1523 1052 1511 1039 1500 C 1026 1489 1013 1480 1000 1473 C 986 1465 975 1462 967 1462 C 958 1462 948 1466 937 1474 C 925 1482 915 1491 905 1503 C 895 1515 886 1527 880 1539 C 873 1551 870 1562 870 1571 C 870 1580 874 1591 884 1603 C 893 1615 904 1626 917 1637 C 930 1648 943 1657 957 1665 C 971 1673 982 1677 991 1677 C 1000 1677 1010 1672 1021 1664 C 1032 1656 1042 1646 1052 1635 C 1062 1623 1070 1611 1077 1599 C 1083 1586 1087 1575 1087 1567 Z M 766 1567 C 766 1557 761 1547 752 1535 C 742 1523 731 1511 718 1500 C 705 1489 692 1480 678 1473 C 664 1465 653 1462 645 1462 C 636 1462 626 1466 615 1474 C 604 1482 594 1491 584 1503 C 574 1515 565 1527 559 1539 C 552 1551 549 1562 549 1571 C 549 1580 553 1591 563 1603 C 572 1615 583 1626 596 1637 C 609 1648 622 1657 636 1665 C 650 1673 661 1677 670 1677 C 679 1677 689 1672 700 1664 C 711 1656 721 1646 731 1635 C 741 1623 749 1611 756 1599 C 762 1586 766 1575 766 1567 Z" unicode="" />
<glyph horiz-adv-x="1268" d="M 1079 1700 C 1079 1664 1071 1630 1056 1599 C 1041 1567 1021 1540 996 1517 C 971 1493 942 1475 910 1462 C 877 1448 843 1442 809 1442 C 781 1442 754 1447 730 1458 C 705 1469 684 1484 666 1503 C 648 1521 633 1543 623 1568 C 613 1592 608 1619 608 1647 C 608 1683 615 1716 630 1748 C 645 1779 665 1806 691 1830 C 716 1853 745 1871 777 1885 C 809 1898 843 1905 879 1905 C 907 1905 934 1899 958 1888 C 982 1877 1004 1862 1022 1844 C 1040 1825 1054 1803 1064 1778 C 1074 1753 1079 1727 1079 1700 Z M 948 1696 C 948 1720 939 1741 923 1757 C 907 1773 886 1782 862 1782 C 845 1782 829 1778 814 1771 C 799 1763 786 1753 774 1741 C 762 1729 753 1715 747 1699 C 740 1683 737 1667 737 1651 C 737 1626 745 1605 762 1589 C 779 1573 800 1565 825 1565 C 842 1565 858 1568 873 1576 C 888 1583 901 1593 912 1605 C 923 1617 932 1630 938 1646 C 944 1662 948 1678 948 1696 Z M 1135 0 L 934 0 L 852 338 L 344 338 L 143 0 L -51 0 L 739 1325 L 811 1325 L 1135 0 Z M 813 496 L 739 815 C 733 836 728 861 724 890 C 720 918 716 947 713 975 L 709 975 C 696 947 682 918 666 890 C 650 861 637 836 625 815 L 440 496 L 813 496 Z" unicode="" />
<glyph horiz-adv-x="1675" d="M 1731 1307 L 1702 1137 L 1196 1137 L 1126 741 L 1550 741 L 1520 571 L 1096 571 L 1026 170 L 1604 170 L 1573 0 L 799 0 L 858 338 L 424 338 L 168 0 L -51 0 L 936 1307 L 1731 1307 Z M 1001 1139 L 997 1141 C 975 1103 952 1066 926 1028 C 900 990 875 954 850 920 L 535 496 L 887 496 L 963 924 C 967 946 970 966 973 984 C 976 1001 979 1018 982 1034 C 985 1050 988 1067 991 1083 C 994 1099 997 1118 1001 1139 Z" unicode="" />
<glyph horiz-adv-x="1237" d="M 1280 1235 L 1217 1065 C 1195 1078 1172 1089 1148 1099 C 1123 1109 1097 1117 1071 1124 C 1045 1130 1018 1135 992 1138 C 965 1141 939 1143 915 1143 C 831 1143 751 1128 676 1099 C 601 1069 535 1028 479 976 C 423 923 378 860 345 788 C 311 716 295 637 295 551 C 295 488 305 432 327 383 C 348 334 378 293 416 259 C 454 225 498 200 550 182 C 601 164 657 156 717 156 C 779 156 842 162 904 176 C 966 190 1026 210 1083 238 L 1051 59 C 999 33 946 16 893 6 C 840 -4 785 -10 729 -12 L 711 -55 C 734 -55 756 -61 776 -71 C 796 -81 814 -94 829 -110 C 844 -126 856 -145 864 -167 C 872 -188 877 -210 877 -233 C 877 -268 870 -300 856 -330 C 842 -359 824 -384 801 -405 C 778 -426 751 -443 721 -455 C 691 -467 659 -473 625 -473 C 595 -473 567 -468 539 -460 C 511 -452 485 -439 463 -422 L 502 -322 C 520 -336 540 -346 562 -352 C 584 -358 606 -362 629 -362 C 643 -362 658 -358 672 -352 C 686 -346 699 -337 710 -327 C 721 -316 730 -304 737 -290 C 744 -276 748 -262 748 -248 C 748 -238 746 -229 742 -220 C 738 -210 733 -202 727 -195 C 721 -187 713 -181 705 -177 C 697 -172 688 -170 678 -170 C 670 -170 663 -169 655 -168 C 647 -167 639 -165 633 -162 C 626 -159 620 -155 616 -149 C 612 -143 610 -136 610 -127 C 610 -120 611 -111 614 -101 C 617 -91 621 -80 625 -69 C 629 -58 634 -47 638 -37 C 642 -27 646 -18 649 -12 C 570 -9 497 6 429 36 C 361 65 303 104 253 154 C 203 203 164 261 136 329 C 108 397 94 471 94 551 C 94 625 104 696 124 764 C 144 831 173 893 210 950 C 246 1006 290 1057 341 1103 C 392 1149 448 1188 509 1220 C 569 1252 634 1276 703 1293 C 772 1310 843 1319 915 1319 C 945 1319 977 1317 1009 1315 C 1041 1312 1072 1307 1104 1301 C 1135 1295 1165 1286 1195 1275 C 1225 1264 1253 1251 1280 1235 Z" unicode="" />
<glyph horiz-adv-x="920" d="M 975 1307 L 946 1137 L 440 1137 L 371 741 L 795 741 L 764 571 L 340 571 L 270 170 L 848 170 L 817 0 L 41 0 L 270 1307 L 975 1307 Z M 842 1513 L 721 1458 C 673 1489 625 1523 579 1559 C 532 1595 491 1635 455 1681 C 448 1688 441 1696 435 1706 C 429 1716 426 1725 426 1735 C 426 1742 429 1751 437 1763 C 444 1774 453 1785 463 1796 C 473 1806 483 1815 495 1823 C 506 1831 516 1835 524 1835 C 536 1835 548 1830 558 1822 C 568 1814 576 1805 584 1796 C 604 1769 624 1743 644 1719 C 663 1694 683 1670 703 1647 C 723 1623 745 1600 768 1578 C 790 1556 815 1534 842 1513 Z" unicode="" />
<glyph horiz-adv-x="920" d="M 975 1307 L 946 1137 L 440 1137 L 371 741 L 795 741 L 764 571 L 340 571 L 270 170 L 848 170 L 817 0 L 41 0 L 270 1307 L 975 1307 Z M 926 1741 C 926 1737 924 1732 921 1727 C 918 1721 915 1716 911 1711 C 907 1706 902 1702 898 1698 C 893 1694 889 1690 887 1688 C 841 1642 793 1600 741 1562 C 689 1524 634 1490 578 1458 L 455 1509 C 501 1542 545 1577 587 1615 C 629 1653 669 1693 707 1735 C 717 1745 726 1755 735 1766 C 743 1777 752 1788 762 1798 C 770 1806 779 1815 791 1823 C 803 1831 815 1835 827 1835 C 835 1835 844 1831 855 1824 C 866 1816 877 1808 888 1798 C 898 1788 907 1777 915 1767 C 922 1756 926 1747 926 1741 Z" unicode="" />
<glyph horiz-adv-x="920" d="M 975 1307 L 946 1137 L 440 1137 L 371 741 L 795 741 L 764 571 L 340 571 L 270 170 L 848 170 L 817 0 L 41 0 L 270 1307 L 975 1307 Z M 1024 1513 L 899 1458 C 863 1482 828 1508 794 1534 C 760 1560 728 1589 698 1620 C 659 1590 619 1561 578 1534 C 536 1506 494 1481 451 1458 L 332 1509 C 363 1529 393 1551 421 1574 C 449 1596 477 1620 504 1644 C 531 1668 558 1693 584 1719 C 610 1744 637 1770 664 1796 C 673 1804 684 1812 696 1821 C 708 1830 721 1835 735 1835 C 747 1835 758 1830 767 1822 C 776 1814 784 1805 791 1796 C 797 1786 802 1777 807 1768 C 811 1759 817 1750 823 1741 C 850 1699 881 1658 915 1620 C 949 1582 986 1546 1024 1513 Z" unicode="" />
<glyph horiz-adv-x="920" d="M 975 1307 L 946 1137 L 440 1137 L 371 741 L 795 741 L 764 571 L 340 571 L 270 170 L 848 170 L 817 0 L 41 0 L 270 1307 L 975 1307 Z M 958 1567 C 958 1557 953 1547 944 1535 C 934 1523 923 1511 910 1500 C 897 1489 884 1480 871 1473 C 857 1465 846 1462 838 1462 C 829 1462 819 1466 808 1474 C 796 1482 786 1491 776 1503 C 766 1515 757 1527 751 1539 C 744 1551 741 1562 741 1571 C 741 1580 745 1591 755 1603 C 764 1615 775 1626 788 1637 C 801 1648 814 1657 828 1665 C 842 1673 853 1677 862 1677 C 871 1677 881 1672 892 1664 C 903 1656 913 1646 923 1635 C 933 1623 941 1611 948 1599 C 954 1586 958 1575 958 1567 Z M 637 1567 C 637 1557 632 1547 623 1535 C 613 1523 602 1511 589 1500 C 576 1489 563 1480 549 1473 C 535 1465 524 1462 516 1462 C 507 1462 497 1466 486 1474 C 475 1482 465 1491 455 1503 C 445 1515 436 1527 430 1539 C 423 1551 420 1562 420 1571 C 420 1580 424 1591 434 1603 C 443 1615 454 1626 467 1637 C 480 1648 493 1657 507 1665 C 521 1673 532 1677 541 1677 C 550 1677 560 1672 571 1664 C 582 1656 592 1646 602 1635 C 612 1623 620 1611 627 1599 C 633 1586 637 1575 637 1567 Z" unicode="" />
<glyph horiz-adv-x="506" d="M 489 1307 L 260 0 L 61 0 L 291 1307 L 489 1307 Z M 598 1513 L 477 1458 C 429 1489 382 1523 336 1559 C 290 1595 248 1635 211 1681 C 205 1688 199 1696 192 1706 C 185 1716 182 1725 182 1735 C 182 1742 185 1751 193 1763 C 200 1774 209 1785 220 1796 C 230 1806 241 1815 252 1823 C 263 1831 273 1835 281 1835 C 294 1835 305 1830 315 1822 C 324 1814 332 1805 340 1796 C 360 1769 379 1743 399 1719 C 418 1694 438 1670 459 1647 C 479 1623 501 1600 524 1578 C 546 1556 571 1534 598 1513 Z" unicode="" />
<glyph horiz-adv-x="506" d="M 489 1307 L 260 0 L 61 0 L 291 1307 L 489 1307 Z M 702 1741 C 702 1737 700 1732 697 1727 C 694 1721 691 1716 687 1711 C 683 1706 678 1702 674 1698 C 670 1694 666 1690 664 1688 C 617 1642 568 1600 516 1562 C 464 1524 410 1490 354 1458 L 231 1509 C 277 1542 321 1577 363 1615 C 405 1653 445 1693 483 1735 C 493 1745 503 1755 512 1766 C 520 1777 529 1788 539 1798 C 547 1806 556 1815 568 1823 C 580 1831 592 1835 604 1835 C 612 1835 621 1831 632 1824 C 643 1816 654 1808 664 1798 C 674 1788 683 1777 691 1767 C 698 1756 702 1747 702 1741 Z" unicode="" />
<glyph horiz-adv-x="506" d="M 489 1307 L 260 0 L 61 0 L 291 1307 L 489 1307 Z M 776 1513 L 651 1458 C 615 1482 580 1508 546 1534 C 512 1560 481 1589 451 1620 C 411 1590 370 1561 329 1534 C 288 1506 246 1481 203 1458 L 84 1509 C 146 1550 203 1595 256 1644 C 308 1693 362 1744 416 1796 C 424 1804 434 1812 447 1821 C 460 1830 473 1835 487 1835 C 499 1835 510 1830 519 1822 C 528 1814 536 1805 543 1796 C 548 1786 553 1777 558 1768 C 563 1759 569 1750 575 1741 C 629 1656 696 1580 776 1513 Z" unicode="" />
<glyph horiz-adv-x="506" d="M 489 1307 L 260 0 L 61 0 L 291 1307 L 489 1307 Z M 709 1567 C 709 1557 704 1547 695 1535 C 685 1523 674 1511 661 1500 C 648 1489 635 1480 621 1473 C 607 1465 596 1462 588 1462 C 578 1462 568 1466 557 1474 C 546 1482 536 1491 526 1503 C 516 1515 508 1527 502 1539 C 495 1551 492 1562 492 1571 C 492 1580 496 1591 505 1603 C 514 1615 525 1626 538 1637 C 550 1648 563 1657 577 1665 C 591 1673 602 1677 612 1677 C 620 1677 630 1672 642 1664 C 653 1656 664 1646 674 1635 C 684 1623 692 1611 699 1599 C 705 1586 709 1575 709 1567 Z M 387 1567 C 387 1557 382 1547 373 1535 C 363 1523 352 1511 339 1500 C 326 1489 313 1480 299 1473 C 285 1465 274 1462 266 1462 C 256 1462 246 1466 235 1474 C 224 1482 214 1491 204 1503 C 194 1515 186 1527 180 1539 C 173 1551 170 1562 170 1571 C 170 1580 174 1591 183 1603 C 192 1615 203 1626 216 1637 C 229 1648 242 1657 256 1665 C 270 1673 281 1677 291 1677 C 299 1677 309 1672 320 1664 C 331 1656 342 1646 352 1635 C 362 1623 370 1611 377 1599 C 383 1586 387 1575 387 1567 Z" unicode="" />
<glyph horiz-adv-x="1370" d="M 1321 764 C 1321 687 1310 615 1290 548 C 1269 480 1240 418 1203 362 C 1165 305 1121 254 1069 210 C 1017 165 961 127 899 96 C 837 64 772 40 703 24 C 633 8 562 0 489 0 L 88 0 L 190 582 L 31 582 L 57 731 L 217 731 L 317 1307 L 719 1307 C 800 1307 877 1295 950 1271 C 1022 1247 1086 1211 1141 1165 C 1196 1119 1240 1062 1272 995 C 1304 927 1321 850 1321 764 Z M 1118 764 C 1118 832 1105 889 1080 937 C 1055 984 1022 1022 980 1052 C 938 1082 889 1103 834 1117 C 779 1130 722 1137 662 1137 L 489 1137 L 418 731 L 672 731 L 614 582 L 391 582 L 317 166 L 477 166 C 565 166 647 180 725 208 C 803 236 871 275 929 327 C 987 379 1033 441 1067 515 C 1101 589 1118 672 1118 764 Z" unicode="" />
<glyph horiz-adv-x="1438" d="M 1442 1307 L 1208 -29 L 1149 -29 L 653 649 C 633 676 612 704 592 734 C 571 763 550 793 530 823 C 509 853 489 882 470 912 C 450 941 432 969 414 997 L 410 995 C 401 934 392 876 382 821 C 372 766 362 714 354 664 L 240 0 L 41 0 L 270 1307 L 408 1307 L 862 684 C 877 662 894 639 913 613 C 932 587 951 560 971 532 C 990 504 1009 476 1028 448 C 1047 420 1065 393 1081 369 L 1085 371 C 1092 422 1100 474 1109 528 C 1117 582 1126 632 1135 680 L 1243 1307 L 1442 1307 Z M 1317 1747 C 1309 1737 1299 1724 1285 1708 C 1271 1692 1256 1674 1239 1656 C 1222 1637 1204 1618 1185 1600 C 1166 1581 1147 1564 1129 1549 C 1110 1533 1092 1521 1076 1511 C 1059 1501 1044 1497 1032 1497 C 1016 1497 999 1502 981 1512 C 963 1522 945 1534 928 1547 C 910 1559 894 1571 879 1581 C 863 1591 850 1597 840 1597 C 829 1597 816 1592 802 1582 C 787 1572 772 1560 757 1547 C 742 1533 728 1520 715 1506 C 702 1492 692 1481 684 1473 L 555 1530 C 562 1540 572 1553 586 1569 C 600 1585 615 1602 632 1621 C 649 1639 667 1658 686 1677 C 705 1695 724 1712 742 1728 C 760 1743 778 1755 795 1765 C 811 1775 826 1780 838 1780 C 854 1780 871 1774 889 1764 C 907 1753 925 1741 943 1729 C 960 1717 976 1705 992 1695 C 1007 1684 1020 1679 1030 1679 C 1041 1679 1054 1684 1069 1694 C 1084 1704 1099 1715 1115 1729 C 1130 1743 1144 1757 1157 1771 C 1170 1785 1180 1796 1188 1804 L 1317 1747 Z" unicode="" />
<glyph horiz-adv-x="1548" d="M 1487 618 C 1475 552 1455 491 1429 434 C 1402 377 1369 325 1331 277 C 1292 229 1249 187 1201 150 C 1153 112 1101 81 1047 55 C 993 29 936 9 877 -4 C 818 -18 759 -25 700 -25 C 596 -25 504 -6 424 31 C 343 69 276 120 224 185 C 172 249 135 325 115 412 C 95 499 93 592 111 690 C 128 788 162 876 213 955 C 263 1034 324 1102 396 1158 C 468 1214 547 1257 633 1287 C 719 1317 807 1333 897 1333 C 1000 1333 1092 1314 1173 1276 C 1254 1238 1321 1187 1373 1123 C 1425 1058 1461 982 1482 896 C 1502 809 1504 716 1487 618 Z M 1288 647 C 1300 715 1299 780 1287 842 C 1274 904 1250 958 1215 1006 C 1180 1053 1134 1091 1077 1119 C 1020 1147 953 1161 877 1161 C 816 1161 755 1149 693 1125 C 631 1101 574 1067 522 1023 C 469 979 424 926 386 864 C 348 802 322 733 309 657 C 297 589 297 525 310 463 C 322 401 346 346 382 299 C 417 251 463 213 520 185 C 577 157 644 143 721 143 C 781 143 842 155 904 179 C 966 203 1023 237 1075 281 C 1127 325 1173 378 1211 440 C 1249 502 1274 571 1288 647 Z M 1108 1513 L 987 1458 C 937 1489 890 1523 844 1559 C 798 1595 757 1635 721 1681 C 715 1688 708 1696 702 1706 C 695 1716 692 1725 692 1735 C 692 1742 695 1751 703 1763 C 710 1774 719 1785 729 1796 C 739 1806 750 1815 762 1823 C 773 1831 783 1835 791 1835 C 803 1835 814 1830 824 1822 C 834 1814 842 1805 850 1796 C 870 1769 890 1743 909 1719 C 928 1694 948 1670 968 1647 C 988 1623 1010 1600 1033 1578 C 1055 1556 1080 1534 1108 1513 Z" unicode="" />
<glyph horiz-adv-x="1548" d="M 1487 618 C 1475 552 1455 491 1429 434 C 1402 377 1369 325 1331 277 C 1292 229 1249 187 1201 150 C 1153 112 1101 81 1047 55 C 993 29 936 9 877 -4 C 818 -18 759 -25 700 -25 C 596 -25 504 -6 424 31 C 343 69 276 120 224 185 C 172 249 135 325 115 412 C 95 499 93 592 111 690 C 128 788 162 876 213 955 C 263 1034 324 1102 396 1158 C 468 1214 547 1257 633 1287 C 719 1317 807 1333 897 1333 C 1000 1333 1092 1314 1173 1276 C 1254 1238 1321 1187 1373 1123 C 1425 1058 1461 982 1482 896 C 1502 809 1504 716 1487 618 Z M 1288 647 C 1300 715 1299 780 1287 842 C 1274 904 1250 958 1215 1006 C 1180 1053 1134 1091 1077 1119 C 1020 1147 953 1161 877 1161 C 816 1161 755 1149 693 1125 C 631 1101 574 1067 522 1023 C 469 979 424 926 386 864 C 348 802 322 733 309 657 C 297 589 297 525 310 463 C 322 401 346 346 382 299 C 417 251 463 213 520 185 C 577 157 644 143 721 143 C 781 143 842 155 904 179 C 966 203 1023 237 1075 281 C 1127 325 1173 378 1211 440 C 1249 502 1274 571 1288 647 Z M 1225 1741 C 1225 1737 1223 1732 1220 1727 C 1217 1721 1213 1716 1209 1711 C 1205 1706 1200 1702 1196 1698 C 1192 1694 1188 1690 1186 1688 C 1140 1642 1090 1600 1038 1562 C 986 1524 932 1490 877 1458 L 754 1509 C 799 1542 842 1577 884 1615 C 926 1653 966 1693 1006 1735 C 1015 1745 1024 1755 1032 1766 C 1040 1777 1050 1788 1061 1798 C 1069 1806 1078 1815 1089 1823 C 1100 1831 1112 1835 1126 1835 C 1133 1835 1142 1831 1154 1824 C 1165 1816 1176 1808 1186 1798 C 1196 1788 1205 1777 1213 1767 C 1221 1756 1225 1747 1225 1741 Z" unicode="" />
<glyph horiz-adv-x="1548" d="M 1487 618 C 1475 552 1455 491 1429 434 C 1402 377 1369 325 1331 277 C 1292 229 1249 187 1201 150 C 1153 112 1101 81 1047 55 C 993 29 936 9 877 -4 C 818 -18 759 -25 700 -25 C 596 -25 504 -6 424 31 C 343 69 276 120 224 185 C 172 249 135 325 115 412 C 95 499 93 592 111 690 C 128 788 162 876 213 955 C 263 1034 324 1102 396 1158 C 468 1214 547 1257 633 1287 C 719 1317 807 1333 897 1333 C 1000 1333 1092 1314 1173 1276 C 1254 1238 1321 1187 1373 1123 C 1425 1058 1461 982 1482 896 C 1502 809 1504 716 1487 618 Z M 1288 647 C 1300 715 1299 780 1287 842 C 1274 904 1250 958 1215 1006 C 1180 1053 1134 1091 1077 1119 C 1020 1147 953 1161 877 1161 C 816 1161 755 1149 693 1125 C 631 1101 574 1067 522 1023 C 469 979 424 926 386 864 C 348 802 322 733 309 657 C 297 589 297 525 310 463 C 322 401 346 346 382 299 C 417 251 463 213 520 185 C 577 157 644 143 721 143 C 781 143 842 155 904 179 C 966 203 1023 237 1075 281 C 1127 325 1173 378 1211 440 C 1249 502 1274 571 1288 647 Z M 1292 1513 L 1167 1458 C 1132 1482 1098 1508 1064 1534 C 1030 1560 997 1589 967 1620 C 927 1590 887 1561 846 1534 C 805 1506 763 1481 719 1458 L 600 1509 C 662 1550 720 1595 773 1644 C 826 1693 879 1744 932 1796 C 941 1804 952 1812 965 1821 C 978 1830 991 1835 1004 1835 C 1016 1835 1026 1830 1036 1822 C 1045 1814 1053 1805 1059 1796 C 1065 1786 1070 1777 1075 1768 C 1079 1759 1085 1750 1092 1741 C 1118 1699 1149 1658 1183 1620 C 1217 1582 1254 1546 1292 1513 Z" unicode="" />
<glyph horiz-adv-x="1548" d="M 1487 618 C 1475 552 1455 491 1429 434 C 1402 377 1369 325 1331 277 C 1292 229 1249 187 1201 150 C 1153 112 1101 81 1047 55 C 993 29 936 9 877 -4 C 818 -18 759 -25 700 -25 C 596 -25 504 -6 424 31 C 343 69 276 120 224 185 C 172 249 135 325 115 412 C 95 499 93 592 111 690 C 128 788 162 876 213 955 C 263 1034 324 1102 396 1158 C 468 1214 547 1257 633 1287 C 719 1317 807 1333 897 1333 C 1000 1333 1092 1314 1173 1276 C 1254 1238 1321 1187 1373 1123 C 1425 1058 1461 982 1482 896 C 1502 809 1504 716 1487 618 Z M 1288 647 C 1300 715 1299 780 1287 842 C 1274 904 1250 958 1215 1006 C 1180 1053 1134 1091 1077 1119 C 1020 1147 953 1161 877 1161 C 816 1161 755 1149 693 1125 C 631 1101 574 1067 522 1023 C 469 979 424 926 386 864 C 348 802 322 733 309 657 C 297 589 297 525 310 463 C 322 401 346 346 382 299 C 417 251 463 213 520 185 C 577 157 644 143 721 143 C 781 143 842 155 904 179 C 966 203 1023 237 1075 281 C 1127 325 1173 378 1211 440 C 1249 502 1274 571 1288 647 Z M 1335 1747 C 1327 1737 1317 1724 1303 1708 C 1289 1692 1274 1674 1257 1656 C 1240 1637 1222 1618 1203 1600 C 1184 1581 1165 1564 1147 1549 C 1128 1533 1110 1521 1094 1511 C 1077 1501 1063 1497 1051 1497 C 1035 1497 1018 1502 1000 1512 C 982 1522 964 1534 946 1547 C 928 1559 912 1571 897 1581 C 881 1591 868 1597 858 1597 C 847 1597 834 1592 820 1582 C 805 1572 790 1560 775 1547 C 760 1533 746 1520 733 1506 C 720 1492 710 1481 702 1473 L 573 1530 C 581 1540 591 1553 605 1569 C 619 1585 634 1602 651 1621 C 668 1639 686 1658 705 1677 C 724 1695 743 1712 761 1728 C 779 1743 797 1755 813 1765 C 829 1775 844 1780 856 1780 C 872 1780 890 1774 908 1764 C 926 1753 944 1741 962 1729 C 979 1717 995 1705 1011 1695 C 1026 1684 1039 1679 1049 1679 C 1060 1679 1073 1684 1088 1694 C 1103 1704 1118 1715 1133 1729 C 1148 1743 1162 1757 1175 1771 C 1188 1785 1198 1796 1206 1804 L 1335 1747 Z" unicode="" />
<glyph horiz-adv-x="1548" d="M 1487 618 C 1475 552 1455 491 1429 434 C 1402 377 1369 325 1331 277 C 1292 229 1249 187 1201 150 C 1153 112 1101 81 1047 55 C 993 29 936 9 877 -4 C 818 -18 759 -25 700 -25 C 596 -25 504 -6 424 31 C 343 69 276 120 224 185 C 172 249 135 325 115 412 C 95 499 93 592 111 690 C 128 788 162 876 213 955 C 263 1034 324 1102 396 1158 C 468 1214 547 1257 633 1287 C 719 1317 807 1333 897 1333 C 1000 1333 1092 1314 1173 1276 C 1254 1238 1321 1187 1373 1123 C 1425 1058 1461 982 1482 896 C 1502 809 1504 716 1487 618 Z M 1288 647 C 1300 715 1299 780 1287 842 C 1274 904 1250 958 1215 1006 C 1180 1053 1134 1091 1077 1119 C 1020 1147 953 1161 877 1161 C 816 1161 755 1149 693 1125 C 631 1101 574 1067 522 1023 C 469 979 424 926 386 864 C 348 802 322 733 309 657 C 297 589 297 525 310 463 C 322 401 346 346 382 299 C 417 251 463 213 520 185 C 577 157 644 143 721 143 C 781 143 842 155 904 179 C 966 203 1023 237 1075 281 C 1127 325 1173 378 1211 440 C 1249 502 1274 571 1288 647 Z M 1227 1567 C 1227 1557 1222 1547 1213 1535 C 1203 1523 1192 1511 1179 1500 C 1166 1489 1153 1480 1139 1473 C 1125 1465 1114 1462 1106 1462 C 1097 1462 1087 1466 1076 1474 C 1065 1482 1055 1491 1045 1503 C 1035 1515 1026 1527 1020 1539 C 1013 1551 1010 1562 1010 1571 C 1010 1580 1014 1591 1024 1603 C 1033 1615 1044 1626 1057 1637 C 1070 1648 1083 1657 1097 1665 C 1110 1673 1121 1677 1130 1677 C 1139 1677 1149 1672 1161 1664 C 1172 1656 1182 1646 1192 1635 C 1202 1623 1210 1611 1217 1599 C 1223 1586 1227 1575 1227 1567 Z M 905 1567 C 905 1557 900 1547 891 1535 C 881 1523 870 1511 857 1500 C 844 1489 831 1480 817 1473 C 803 1465 792 1462 784 1462 C 775 1462 765 1466 754 1474 C 743 1482 733 1491 723 1503 C 713 1515 704 1527 698 1539 C 691 1551 688 1562 688 1571 C 688 1580 692 1591 702 1603 C 711 1615 722 1626 735 1637 C 748 1648 761 1657 775 1665 C 789 1673 800 1677 809 1677 C 818 1677 828 1672 839 1664 C 850 1656 860 1646 870 1635 C 880 1623 888 1611 895 1599 C 901 1586 905 1575 905 1567 Z" unicode="" />
<glyph horiz-adv-x="958" d="M 864 795 L 575 549 L 772 309 L 680 231 L 483 469 L 190 221 L 111 317 L 403 565 L 207 803 L 301 883 L 496 645 L 784 889 L 864 795 Z" unicode="" />
<glyph horiz-adv-x="1548" d="M 1511 1292 L 1366 1145 C 1411 1094 1445 1037 1467 975 C 1489 913 1501 848 1501 780 C 1501 706 1490 636 1470 568 C 1449 500 1420 436 1383 376 C 1346 316 1302 262 1251 213 C 1200 163 1144 121 1083 86 C 1022 50 957 23 889 4 C 820 -15 750 -25 678 -25 C 614 -25 551 -16 490 1 C 428 19 371 46 319 82 L 170 -70 L 88 12 L 231 158 C 183 209 148 266 126 330 C 103 393 92 459 92 528 C 92 601 102 672 123 740 C 143 808 172 871 210 931 C 247 991 291 1045 343 1095 C 394 1144 450 1186 511 1222 C 572 1257 637 1284 706 1304 C 775 1323 846 1333 918 1333 C 982 1333 1046 1323 1108 1305 C 1170 1287 1228 1259 1280 1223 L 1427 1374 L 1511 1292 Z M 1296 752 C 1296 796 1290 838 1278 880 C 1266 922 1247 961 1221 997 L 457 221 C 493 195 532 176 575 163 C 618 149 662 143 707 143 C 760 143 812 150 862 166 C 912 181 958 202 1002 230 C 1046 258 1086 291 1122 329 C 1158 367 1188 408 1214 453 C 1240 498 1260 546 1274 597 C 1288 647 1296 699 1296 752 Z M 1137 1079 C 1101 1104 1061 1123 1018 1137 C 974 1150 931 1157 887 1157 C 833 1157 780 1149 730 1134 C 680 1118 633 1097 589 1070 C 545 1042 505 1010 469 972 C 433 934 402 893 376 848 C 350 803 330 755 316 705 C 302 654 295 602 295 549 C 295 505 301 461 313 419 C 325 376 345 337 373 301 L 1137 1079 Z" unicode="" />
<glyph horiz-adv-x="1331" d="M 1335 1307 C 1310 1162 1286 1018 1262 876 C 1238 734 1212 591 1186 449 C 1170 371 1144 303 1108 244 C 1072 185 1027 136 974 96 C 921 56 861 25 794 5 C 727 -14 656 -25 580 -25 C 518 -25 459 -16 403 0 C 347 17 297 42 255 76 C 213 110 179 152 154 202 C 129 252 117 311 117 379 C 117 394 117 410 118 426 C 119 442 121 457 125 473 L 270 1307 L 469 1307 L 322 465 C 317 441 315 417 315 391 C 315 347 322 311 336 281 C 350 251 369 226 394 207 C 418 187 448 173 482 165 C 516 156 552 152 592 152 C 645 152 694 160 740 176 C 786 192 826 214 862 244 C 897 274 926 310 950 352 C 973 394 989 442 999 494 C 1024 630 1048 765 1072 900 C 1096 1035 1119 1171 1143 1307 L 1335 1307 Z M 1012 1513 L 891 1458 C 843 1489 795 1523 749 1559 C 703 1595 661 1635 625 1681 C 619 1688 613 1696 606 1706 C 599 1716 596 1725 596 1735 C 596 1742 599 1751 607 1763 C 614 1774 623 1785 633 1796 C 643 1806 654 1815 666 1823 C 677 1831 686 1835 694 1835 C 706 1835 718 1830 728 1822 C 738 1814 746 1805 754 1796 C 774 1769 794 1743 814 1719 C 833 1694 853 1670 873 1647 C 893 1623 915 1600 938 1578 C 960 1556 985 1534 1012 1513 Z" unicode="" />
<glyph horiz-adv-x="1331" d="M 1335 1307 C 1310 1162 1286 1018 1262 876 C 1238 734 1212 591 1186 449 C 1170 371 1144 303 1108 244 C 1072 185 1027 136 974 96 C 921 56 861 25 794 5 C 727 -14 656 -25 580 -25 C 518 -25 459 -16 403 0 C 347 17 297 42 255 76 C 213 110 179 152 154 202 C 129 252 117 311 117 379 C 117 394 117 410 118 426 C 119 442 121 457 125 473 L 270 1307 L 469 1307 L 322 465 C 317 441 315 417 315 391 C 315 347 322 311 336 281 C 350 251 369 226 394 207 C 418 187 448 173 482 165 C 516 156 552 152 592 152 C 645 152 694 160 740 176 C 786 192 826 214 862 244 C 897 274 926 310 950 352 C 973 394 989 442 999 494 C 1024 630 1048 765 1072 900 C 1096 1035 1119 1171 1143 1307 L 1335 1307 Z M 1126 1741 C 1126 1737 1124 1732 1121 1727 C 1118 1721 1114 1716 1110 1711 C 1106 1706 1101 1702 1097 1698 C 1093 1694 1089 1690 1087 1688 C 1041 1642 992 1600 940 1562 C 888 1524 834 1490 778 1458 L 655 1509 C 701 1542 745 1577 787 1615 C 829 1653 869 1693 907 1735 C 916 1745 925 1755 935 1766 C 944 1777 953 1788 963 1798 C 971 1806 980 1815 992 1823 C 1004 1831 1016 1835 1028 1835 C 1035 1835 1044 1831 1055 1824 C 1066 1816 1077 1808 1088 1798 C 1098 1788 1107 1777 1115 1767 C 1122 1756 1126 1747 1126 1741 Z" unicode="" />
<glyph horiz-adv-x="1331" d="M 1335 1307 C 1310 1162 1286 1018 1262 876 C 1238 734 1212 591 1186 449 C 1170 371 1144 303 1108 244 C 1072 185 1027 136 974 96 C 921 56 861 25 794 5 C 727 -14 656 -25 580 -25 C 518 -25 459 -16 403 0 C 347 17 297 42 255 76 C 213 110 179 152 154 202 C 129 252 117 311 117 379 C 117 394 117 410 118 426 C 119 442 121 457 125 473 L 270 1307 L 469 1307 L 322 465 C 317 441 315 417 315 391 C 315 347 322 311 336 281 C 350 251 369 226 394 207 C 418 187 448 173 482 165 C 516 156 552 152 592 152 C 645 152 694 160 740 176 C 786 192 826 214 862 244 C 897 274 926 310 950 352 C 973 394 989 442 999 494 C 1024 630 1048 765 1072 900 C 1096 1035 1119 1171 1143 1307 L 1335 1307 Z M 1194 1513 L 1069 1458 C 1033 1482 998 1508 964 1534 C 930 1560 898 1589 868 1620 C 829 1590 789 1561 748 1534 C 707 1506 665 1481 621 1458 L 502 1509 C 533 1529 563 1551 591 1574 C 619 1596 647 1620 674 1644 C 701 1668 728 1693 754 1719 C 780 1744 807 1770 834 1796 C 843 1804 854 1812 866 1821 C 878 1830 891 1835 905 1835 C 917 1835 928 1830 937 1822 C 946 1814 954 1805 961 1796 C 967 1786 972 1777 977 1768 C 981 1759 987 1750 993 1741 C 1020 1699 1051 1658 1085 1620 C 1119 1582 1156 1546 1194 1513 Z" unicode="" />
<glyph horiz-adv-x="1331" d="M 1335 1307 C 1310 1162 1286 1018 1262 876 C 1238 734 1212 591 1186 449 C 1170 371 1144 303 1108 244 C 1072 185 1027 136 974 96 C 921 56 861 25 794 5 C 727 -14 656 -25 580 -25 C 518 -25 459 -16 403 0 C 347 17 297 42 255 76 C 213 110 179 152 154 202 C 129 252 117 311 117 379 C 117 394 117 410 118 426 C 119 442 121 457 125 473 L 270 1307 L 469 1307 L 322 465 C 317 441 315 417 315 391 C 315 347 322 311 336 281 C 350 251 369 226 394 207 C 418 187 448 173 482 165 C 516 156 552 152 592 152 C 645 152 694 160 740 176 C 786 192 826 214 862 244 C 897 274 926 310 950 352 C 973 394 989 442 999 494 C 1024 630 1048 765 1072 900 C 1096 1035 1119 1171 1143 1307 L 1335 1307 Z M 1110 1567 C 1110 1557 1105 1547 1096 1535 C 1086 1523 1075 1511 1062 1500 C 1049 1489 1036 1480 1022 1473 C 1008 1465 997 1462 989 1462 C 979 1462 969 1466 958 1474 C 947 1482 937 1491 927 1503 C 917 1515 909 1527 903 1539 C 896 1551 893 1562 893 1571 C 893 1580 897 1591 907 1603 C 916 1615 927 1626 940 1637 C 953 1648 966 1657 980 1665 C 994 1673 1005 1677 1014 1677 C 1023 1677 1033 1672 1044 1664 C 1055 1656 1065 1646 1075 1635 C 1085 1623 1093 1611 1100 1599 C 1106 1586 1110 1575 1110 1567 Z M 788 1567 C 788 1557 783 1547 774 1535 C 764 1523 753 1511 740 1500 C 727 1489 714 1480 701 1473 C 687 1465 676 1462 668 1462 C 658 1462 648 1466 637 1474 C 625 1482 615 1491 605 1503 C 595 1515 587 1527 581 1539 C 574 1551 571 1562 571 1571 C 571 1580 575 1591 585 1603 C 594 1615 605 1626 618 1637 C 631 1648 644 1657 658 1665 C 672 1673 683 1677 692 1677 C 701 1677 711 1672 722 1664 C 733 1656 743 1646 753 1635 C 763 1623 771 1611 778 1599 C 784 1586 788 1575 788 1567 Z" unicode="" />
<glyph horiz-adv-x="1278" d="M 1374 1307 L 750 602 L 643 0 L 449 0 L 555 602 L 178 1307 L 389 1307 L 586 938 C 600 910 615 879 633 846 C 651 813 666 782 680 754 L 684 754 C 696 768 708 783 722 799 C 735 815 748 832 762 848 C 776 864 789 880 803 896 C 816 911 828 925 840 938 L 1161 1307 L 1374 1307 Z M 1092 1741 C 1092 1737 1090 1732 1087 1727 C 1084 1721 1081 1716 1077 1711 C 1073 1706 1068 1702 1064 1698 C 1059 1694 1055 1690 1053 1688 C 1007 1642 958 1600 906 1562 C 854 1524 799 1490 743 1458 L 621 1509 C 712 1574 796 1649 872 1735 C 881 1745 890 1755 900 1766 C 909 1777 918 1788 928 1798 C 936 1806 945 1815 957 1823 C 969 1831 981 1835 993 1835 C 1000 1835 1009 1831 1021 1824 C 1032 1816 1043 1808 1053 1798 C 1063 1788 1072 1777 1080 1767 C 1088 1756 1092 1747 1092 1741 Z" unicode="" />
<glyph horiz-adv-x="1010" d="M 989 848 C 989 784 976 726 950 674 C 924 622 890 577 847 540 C 804 502 755 473 699 453 C 643 432 584 422 524 422 L 311 422 L 238 0 L 41 0 L 270 1307 L 467 1307 L 440 1155 L 649 1155 C 693 1155 736 1147 778 1133 C 819 1119 855 1098 886 1072 C 917 1046 942 1014 961 976 C 979 938 989 895 989 848 Z M 788 831 C 788 859 782 882 772 902 C 761 921 747 937 729 949 C 711 961 691 969 669 975 C 646 980 622 983 598 983 L 412 983 L 340 586 L 516 586 C 551 586 585 591 618 603 C 650 615 679 631 705 653 C 730 674 750 700 765 730 C 780 760 788 793 788 831 Z" unicode="" />
<glyph horiz-adv-x="1192" d="M 1087 999 C 1081 968 1073 937 1061 905 C 1049 873 1037 843 1024 815 C 936 815 867 802 816 777 C 765 751 736 717 729 674 C 727 670 727 667 727 665 C 727 662 727 659 727 657 C 727 634 736 615 755 601 C 773 586 802 571 840 557 C 877 543 910 527 940 511 C 969 494 994 475 1014 455 C 1034 435 1050 412 1061 387 C 1071 362 1077 334 1077 303 C 1077 286 1075 268 1071 248 C 1064 210 1052 176 1034 144 C 1016 112 993 85 963 62 C 933 39 898 21 856 8 C 814 -5 766 -12 711 -12 C 684 -12 657 -9 630 -5 C 602 -1 576 4 551 12 C 526 19 503 27 483 37 C 463 47 446 57 434 68 L 463 233 C 497 206 536 185 580 169 C 624 153 671 145 721 145 C 742 145 762 148 781 155 C 799 161 816 170 830 181 C 844 192 855 205 865 219 C 874 233 880 248 883 264 C 884 267 885 270 885 274 C 885 278 885 281 885 285 C 885 310 875 331 857 348 C 838 364 811 379 776 393 C 701 422 643 456 603 495 C 563 533 543 582 543 641 C 543 648 543 656 544 665 C 544 673 545 682 547 690 C 553 728 567 764 588 796 C 608 828 634 856 664 879 C 694 902 728 920 766 934 C 804 947 843 954 885 956 C 892 973 898 991 903 1009 C 907 1027 911 1043 915 1059 C 917 1068 919 1077 919 1085 C 919 1093 920 1102 920 1110 C 920 1137 916 1162 908 1186 C 900 1209 887 1229 871 1247 C 855 1264 834 1278 810 1288 C 785 1298 756 1303 723 1303 C 651 1303 592 1281 546 1238 C 500 1194 471 1131 457 1047 L 272 0 L 86 0 L 223 778 L 66 778 L 92 928 L 250 928 L 272 1057 C 294 1187 345 1287 424 1355 C 502 1423 603 1458 727 1458 C 782 1458 832 1450 878 1434 C 924 1418 963 1395 995 1365 C 1027 1335 1053 1298 1071 1254 C 1089 1210 1098 1160 1098 1104 C 1098 1072 1094 1037 1087 999 Z" unicode="" />
<glyph horiz-adv-x="1090" d="M 834 776 C 817 783 794 789 766 793 C 738 797 710 799 682 799 C 628 799 577 789 528 769 C 478 749 434 721 394 687 C 354 653 321 613 294 567 C 266 521 248 472 240 420 C 238 407 236 395 235 384 C 233 372 233 360 233 348 C 233 320 236 294 243 268 C 250 242 261 220 277 200 C 293 180 313 165 339 153 C 364 141 395 135 432 135 C 466 135 501 145 539 165 C 577 185 612 213 646 250 C 680 287 710 332 736 385 C 762 438 782 498 795 565 L 834 776 Z M 1038 874 L 885 0 L 698 0 L 731 180 L 725 182 C 705 145 681 114 655 88 C 629 62 601 40 572 24 C 542 8 512 -3 480 -11 C 448 -19 417 -23 387 -23 C 329 -23 278 -12 235 9 C 192 30 156 58 128 93 C 100 127 79 167 65 211 C 51 255 45 301 45 348 C 45 362 45 377 46 392 C 47 407 49 422 53 438 C 69 522 99 596 142 660 C 184 724 235 777 294 820 C 352 863 417 895 487 917 C 557 939 628 950 700 950 C 762 950 823 943 883 931 C 942 918 994 899 1038 874 Z M 813 1126 L 711 1079 C 669 1104 629 1133 590 1165 C 550 1197 515 1232 483 1270 C 479 1275 474 1282 469 1290 C 463 1298 461 1306 461 1315 C 461 1321 464 1329 470 1339 C 476 1348 483 1357 492 1366 C 500 1375 509 1383 519 1389 C 528 1395 536 1399 543 1399 C 554 1399 564 1395 572 1388 C 580 1381 588 1374 594 1366 C 611 1343 628 1321 645 1300 C 661 1279 678 1259 696 1239 C 713 1219 731 1199 750 1181 C 769 1162 790 1144 813 1126 Z" unicode="" />
<glyph horiz-adv-x="1090" d="M 834 776 C 817 783 794 789 766 793 C 738 797 710 799 682 799 C 628 799 577 789 528 769 C 478 749 434 721 394 687 C 354 653 321 613 294 567 C 266 521 248 472 240 420 C 238 407 236 395 235 384 C 233 372 233 360 233 348 C 233 320 236 294 243 268 C 250 242 261 220 277 200 C 293 180 313 165 339 153 C 364 141 395 135 432 135 C 466 135 501 145 539 165 C 577 185 612 213 646 250 C 680 287 710 332 736 385 C 762 438 782 498 795 565 L 834 776 Z M 1038 874 L 885 0 L 698 0 L 731 180 L 725 182 C 705 145 681 114 655 88 C 629 62 601 40 572 24 C 542 8 512 -3 480 -11 C 448 -19 417 -23 387 -23 C 329 -23 278 -12 235 9 C 192 30 156 58 128 93 C 100 127 79 167 65 211 C 51 255 45 301 45 348 C 45 362 45 377 46 392 C 47 407 49 422 53 438 C 69 522 99 596 142 660 C 184 724 235 777 294 820 C 352 863 417 895 487 917 C 557 939 628 950 700 950 C 762 950 823 943 883 931 C 942 918 994 899 1038 874 Z M 956 1319 C 956 1315 954 1312 952 1308 C 950 1304 947 1299 944 1295 C 940 1291 937 1287 933 1283 C 929 1279 926 1276 924 1274 C 884 1236 843 1200 799 1168 C 755 1136 709 1106 662 1079 L 557 1122 C 636 1178 707 1243 770 1315 C 778 1323 785 1331 793 1341 C 801 1351 809 1360 817 1368 C 824 1375 832 1382 842 1389 C 852 1395 862 1399 874 1399 C 880 1399 887 1396 897 1390 C 906 1384 915 1377 924 1369 C 932 1361 940 1352 946 1343 C 952 1333 956 1325 956 1319 Z" unicode="" />
<glyph horiz-adv-x="1090" d="M 834 776 C 817 783 794 789 766 793 C 738 797 710 799 682 799 C 628 799 577 789 528 769 C 478 749 434 721 394 687 C 354 653 321 613 294 567 C 266 521 248 472 240 420 C 238 407 236 395 235 384 C 233 372 233 360 233 348 C 233 320 236 294 243 268 C 250 242 261 220 277 200 C 293 180 313 165 339 153 C 364 141 395 135 432 135 C 466 135 501 145 539 165 C 577 185 612 213 646 250 C 680 287 710 332 736 385 C 762 438 782 498 795 565 L 834 776 Z M 1038 874 L 885 0 L 698 0 L 731 180 L 725 182 C 705 145 681 114 655 88 C 629 62 601 40 572 24 C 542 8 512 -3 480 -11 C 448 -19 417 -23 387 -23 C 329 -23 278 -12 235 9 C 192 30 156 58 128 93 C 100 127 79 167 65 211 C 51 255 45 301 45 348 C 45 362 45 377 46 392 C 47 407 49 422 53 438 C 69 522 99 596 142 660 C 184 724 235 777 294 820 C 352 863 417 895 487 917 C 557 939 628 950 700 950 C 762 950 823 943 883 931 C 942 918 994 899 1038 874 Z M 991 1126 L 885 1079 C 855 1099 825 1121 796 1144 C 767 1166 740 1191 715 1217 C 681 1191 646 1167 612 1144 C 577 1121 541 1099 504 1079 L 403 1122 C 457 1157 506 1195 551 1236 C 595 1277 640 1320 686 1366 C 694 1374 703 1381 713 1389 C 723 1397 733 1401 745 1401 C 755 1401 765 1397 773 1389 C 781 1381 787 1374 793 1366 C 798 1358 803 1351 807 1343 C 811 1335 815 1327 821 1319 C 843 1283 869 1248 898 1216 C 927 1184 958 1154 991 1126 Z" unicode="" />
<glyph horiz-adv-x="1090" d="M 834 776 C 817 783 794 789 766 793 C 738 797 710 799 682 799 C 628 799 577 789 528 769 C 478 749 434 721 394 687 C 354 653 321 613 294 567 C 266 521 248 472 240 420 C 238 407 236 395 235 384 C 233 372 233 360 233 348 C 233 320 236 294 243 268 C 250 242 261 220 277 200 C 293 180 313 165 339 153 C 364 141 395 135 432 135 C 466 135 501 145 539 165 C 577 185 612 213 646 250 C 680 287 710 332 736 385 C 762 438 782 498 795 565 L 834 776 Z M 1038 874 L 885 0 L 698 0 L 731 180 L 725 182 C 705 145 681 114 655 88 C 629 62 601 40 572 24 C 542 8 512 -3 480 -11 C 448 -19 417 -23 387 -23 C 329 -23 278 -12 235 9 C 192 30 156 58 128 93 C 100 127 79 167 65 211 C 51 255 45 301 45 348 C 45 362 45 377 46 392 C 47 407 49 422 53 438 C 69 522 99 596 142 660 C 184 724 235 777 294 820 C 352 863 417 895 487 917 C 557 939 628 950 700 950 C 762 950 823 943 883 931 C 942 918 994 899 1038 874 Z M 1012 1325 C 1002 1312 986 1294 966 1270 C 945 1246 923 1223 899 1199 C 875 1175 851 1155 828 1138 C 804 1120 785 1112 770 1112 C 756 1112 741 1116 726 1125 C 710 1134 695 1144 681 1155 C 666 1165 652 1175 639 1184 C 626 1193 615 1198 606 1198 C 596 1198 585 1193 573 1185 C 561 1176 548 1166 536 1154 C 523 1142 511 1131 500 1119 C 488 1107 479 1098 473 1092 L 365 1141 C 371 1149 379 1160 391 1174 C 403 1188 416 1203 430 1219 C 444 1235 460 1251 476 1267 C 492 1283 507 1297 523 1310 C 539 1323 554 1334 568 1342 C 582 1350 594 1354 604 1354 C 618 1354 632 1349 648 1340 C 663 1331 678 1321 693 1311 C 708 1300 722 1290 735 1281 C 748 1272 759 1268 768 1268 C 777 1268 788 1272 801 1280 C 813 1288 826 1298 839 1310 C 852 1322 864 1333 876 1345 C 887 1357 896 1366 903 1374 L 1012 1325 Z" unicode="" />
<glyph horiz-adv-x="1090" d="M 834 776 C 817 783 794 789 766 793 C 738 797 710 799 682 799 C 628 799 577 789 528 769 C 478 749 434 721 394 687 C 354 653 321 613 294 567 C 266 521 248 472 240 420 C 238 407 236 395 235 384 C 233 372 233 360 233 348 C 233 320 236 294 243 268 C 250 242 261 220 277 200 C 293 180 313 165 339 153 C 364 141 395 135 432 135 C 466 135 501 145 539 165 C 577 185 612 213 646 250 C 680 287 710 332 736 385 C 762 438 782 498 795 565 L 834 776 Z M 1038 874 L 885 0 L 698 0 L 731 180 L 725 182 C 705 145 681 114 655 88 C 629 62 601 40 572 24 C 542 8 512 -3 480 -11 C 448 -19 417 -23 387 -23 C 329 -23 278 -12 235 9 C 192 30 156 58 128 93 C 100 127 79 167 65 211 C 51 255 45 301 45 348 C 45 362 45 377 46 392 C 47 407 49 422 53 438 C 69 522 99 596 142 660 C 184 724 235 777 294 820 C 352 863 417 895 487 917 C 557 939 628 950 700 950 C 762 950 823 943 883 931 C 942 918 994 899 1038 874 Z M 936 1171 C 936 1163 932 1154 924 1144 C 916 1134 906 1124 895 1115 C 884 1106 873 1098 861 1092 C 849 1086 840 1083 834 1083 C 826 1083 817 1086 808 1093 C 798 1100 789 1108 781 1118 C 773 1128 766 1138 760 1149 C 754 1159 752 1168 752 1176 C 752 1183 755 1192 763 1202 C 771 1212 780 1222 791 1232 C 802 1241 813 1249 825 1256 C 836 1262 846 1266 854 1266 C 862 1266 870 1262 880 1255 C 889 1248 898 1240 906 1230 C 914 1220 921 1209 927 1199 C 933 1188 936 1179 936 1171 Z M 662 1171 C 662 1163 658 1154 650 1144 C 642 1134 633 1124 622 1115 C 611 1106 600 1098 588 1092 C 576 1086 567 1083 559 1083 C 551 1083 542 1086 533 1093 C 523 1100 514 1108 506 1118 C 498 1128 491 1138 485 1149 C 479 1159 477 1168 477 1176 C 477 1183 481 1192 489 1202 C 497 1212 506 1222 518 1232 C 529 1241 540 1249 552 1256 C 564 1262 574 1266 582 1266 C 589 1266 597 1262 607 1255 C 616 1248 625 1240 633 1230 C 641 1220 647 1209 653 1199 C 659 1188 662 1179 662 1171 Z" unicode="" />
<glyph horiz-adv-x="1090" d="M 834 776 C 817 783 794 789 766 793 C 738 797 710 799 682 799 C 628 799 577 789 528 769 C 478 749 434 721 394 687 C 354 653 321 613 294 567 C 266 521 248 472 240 420 C 238 407 236 395 235 384 C 233 372 233 360 233 348 C 233 320 236 294 243 268 C 250 242 261 220 277 200 C 293 180 313 165 339 153 C 364 141 395 135 432 135 C 466 135 501 145 539 165 C 577 185 612 213 646 250 C 680 287 710 332 736 385 C 762 438 782 498 795 565 L 834 776 Z M 1038 874 L 885 0 L 698 0 L 731 180 L 725 182 C 705 145 681 114 655 88 C 629 62 601 40 572 24 C 542 8 512 -3 480 -11 C 448 -19 417 -23 387 -23 C 329 -23 278 -12 235 9 C 192 30 156 58 128 93 C 100 127 79 167 65 211 C 51 255 45 301 45 348 C 45 362 45 377 46 392 C 47 407 49 422 53 438 C 69 522 99 596 142 660 C 184 724 235 777 294 820 C 352 863 417 895 487 917 C 557 939 628 950 700 950 C 762 950 823 943 883 931 C 942 918 994 899 1038 874 Z M 901 1284 C 901 1254 894 1225 881 1199 C 868 1172 851 1149 829 1129 C 807 1109 783 1093 755 1082 C 727 1070 699 1065 670 1065 C 646 1065 623 1069 603 1079 C 582 1088 564 1101 549 1117 C 533 1133 521 1151 513 1172 C 504 1193 500 1215 500 1239 C 500 1269 506 1298 519 1325 C 532 1351 549 1374 571 1394 C 592 1414 616 1429 644 1441 C 671 1452 699 1458 729 1458 C 753 1458 775 1453 796 1444 C 817 1435 835 1423 851 1407 C 866 1391 878 1372 887 1351 C 896 1330 901 1308 901 1284 Z M 788 1282 C 788 1302 781 1319 768 1333 C 754 1347 737 1354 717 1354 C 701 1354 687 1350 674 1344 C 661 1338 650 1329 641 1319 C 631 1309 624 1297 618 1284 C 612 1270 610 1257 610 1243 C 610 1221 617 1204 631 1190 C 645 1176 663 1169 684 1169 C 698 1169 712 1172 725 1178 C 737 1184 748 1193 758 1204 C 767 1214 774 1226 780 1240 C 785 1254 788 1268 788 1282 Z" unicode="" />
<glyph horiz-adv-x="1460" d="M 545 283 C 543 296 541 309 539 323 C 537 336 537 350 537 365 C 537 375 537 384 538 394 C 538 403 539 413 541 424 L 395 410 C 365 406 338 400 316 390 C 293 380 274 369 258 355 C 242 341 230 326 221 310 C 211 293 205 276 203 260 C 201 256 201 253 201 250 C 201 246 201 243 201 240 C 201 210 211 185 231 165 C 251 145 281 135 319 135 C 361 135 402 147 443 171 C 484 195 518 233 545 283 Z M 1223 647 C 1224 652 1225 657 1225 662 C 1225 667 1225 672 1225 676 C 1225 710 1213 736 1190 756 C 1167 776 1136 786 1096 786 C 1059 786 1022 778 985 763 C 947 747 912 726 880 699 C 848 671 819 638 795 600 C 770 562 752 519 741 473 L 782 473 C 912 473 1016 488 1092 520 C 1168 551 1212 593 1223 647 Z M 1405 635 C 1393 580 1370 533 1334 494 C 1298 454 1253 422 1199 396 C 1144 370 1081 352 1009 340 C 937 328 860 322 778 322 L 731 322 C 739 270 762 229 798 198 C 834 167 886 152 956 152 C 1006 152 1057 160 1109 176 C 1160 192 1207 214 1249 242 L 1217 53 C 1173 30 1127 13 1079 3 C 1031 -6 985 -12 942 -12 C 866 -12 799 0 743 26 C 687 52 642 87 608 133 C 578 100 548 73 520 53 C 491 33 463 17 435 6 C 407 -5 379 -13 353 -17 C 326 -21 300 -23 274 -23 C 233 -23 197 -16 166 -4 C 134 7 108 24 87 46 C 66 67 50 92 39 120 C 28 148 23 179 23 211 C 23 219 23 227 24 236 C 24 245 25 254 27 262 C 35 306 50 346 73 382 C 96 417 124 447 157 472 C 189 496 225 516 264 531 C 303 545 343 555 383 559 L 580 580 C 592 608 606 636 623 662 C 621 700 608 731 582 755 C 556 779 516 791 461 791 C 415 791 368 784 321 771 C 273 757 231 739 193 717 L 182 870 C 229 898 280 918 334 931 C 388 943 443 950 500 950 C 525 950 551 947 578 943 C 605 938 631 930 655 920 C 679 909 700 895 720 879 C 739 863 754 843 764 821 C 813 861 867 892 926 915 C 985 938 1047 950 1112 950 C 1156 950 1196 944 1233 932 C 1269 920 1301 904 1327 882 C 1353 860 1374 834 1389 804 C 1403 773 1411 738 1411 700 C 1411 678 1409 657 1405 635 Z" unicode="" />
<glyph horiz-adv-x="932" d="M 922 872 L 860 713 C 822 733 784 748 748 758 C 712 767 672 772 629 772 C 578 772 529 761 483 740 C 437 719 396 691 361 656 C 326 621 298 580 277 534 C 256 488 246 439 246 389 C 246 352 252 319 264 289 C 276 259 292 233 314 212 C 336 191 362 175 392 164 C 422 152 455 147 492 147 C 545 147 595 155 643 172 C 690 189 736 212 780 240 L 748 61 C 710 38 670 21 630 10 C 590 -1 548 -8 504 -10 L 489 -47 C 509 -47 527 -52 545 -60 C 562 -68 577 -80 590 -94 C 602 -108 612 -124 620 -142 C 627 -160 631 -179 631 -199 C 631 -228 625 -255 613 -280 C 601 -304 586 -326 567 -344 C 547 -362 525 -376 499 -386 C 473 -396 446 -401 418 -401 C 393 -401 369 -397 345 -391 C 321 -384 300 -373 281 -358 L 313 -272 C 328 -284 345 -293 363 -299 C 381 -304 400 -307 420 -307 C 432 -307 444 -304 456 -299 C 468 -293 479 -286 489 -278 C 499 -269 507 -259 513 -247 C 519 -235 522 -223 522 -211 C 522 -195 519 -182 513 -174 C 507 -165 499 -158 491 -154 C 482 -150 472 -147 462 -145 C 452 -143 442 -141 434 -139 C 425 -137 418 -133 412 -129 C 406 -124 403 -116 403 -106 C 403 -100 404 -93 407 -85 C 409 -77 412 -68 416 -59 C 420 -50 424 -41 428 -33 C 432 -25 435 -18 438 -12 C 382 -9 331 2 285 22 C 238 42 198 69 164 103 C 130 137 104 177 85 224 C 66 271 57 323 57 379 C 57 432 64 483 78 531 C 92 579 112 624 138 666 C 164 708 194 745 230 779 C 266 813 305 841 349 865 C 392 889 438 907 487 920 C 536 933 587 940 639 940 C 688 940 737 935 786 925 C 834 915 880 898 922 872 Z" unicode="" />
<glyph horiz-adv-x="975" d="M 926 700 C 926 678 924 657 920 635 C 908 580 885 533 849 494 C 813 454 768 422 714 396 C 659 370 596 352 524 340 C 452 328 375 322 293 322 L 246 322 C 254 270 276 229 312 198 C 348 167 401 152 471 152 C 521 152 571 160 623 176 C 675 192 722 214 764 242 L 731 53 C 687 30 642 13 594 3 C 546 -6 500 -12 457 -12 C 393 -12 335 -2 285 15 C 235 33 192 59 158 93 C 123 127 96 167 78 213 C 60 259 51 311 51 367 C 51 383 51 399 53 416 C 55 432 57 449 61 467 C 73 532 97 594 132 653 C 167 711 210 763 260 807 C 310 851 367 885 430 911 C 493 937 559 950 627 950 C 671 950 711 944 748 933 C 784 921 816 905 842 883 C 868 861 889 835 904 804 C 918 773 926 738 926 700 Z M 739 676 C 739 710 727 736 704 756 C 681 776 650 786 610 786 C 574 786 537 778 500 763 C 462 747 427 726 395 699 C 363 671 334 638 310 600 C 285 562 267 519 256 473 L 297 473 C 361 473 420 477 472 485 C 524 493 569 505 607 520 C 644 535 674 553 696 575 C 718 596 731 620 737 647 C 738 652 739 657 739 661 C 739 665 739 670 739 676 Z M 770 1126 L 666 1079 C 624 1104 584 1133 545 1165 C 506 1197 471 1232 440 1270 C 434 1275 429 1282 424 1290 C 418 1298 416 1306 416 1315 C 416 1321 419 1329 425 1339 C 431 1348 439 1357 448 1366 C 456 1375 465 1383 475 1389 C 485 1395 493 1399 500 1399 C 510 1399 519 1395 528 1388 C 537 1381 545 1374 551 1366 C 584 1320 617 1278 651 1239 C 684 1199 724 1162 770 1126 Z" unicode="" />
<glyph horiz-adv-x="975" d="M 926 700 C 926 678 924 657 920 635 C 908 580 885 533 849 494 C 813 454 768 422 714 396 C 659 370 596 352 524 340 C 452 328 375 322 293 322 L 246 322 C 254 270 276 229 312 198 C 348 167 401 152 471 152 C 521 152 571 160 623 176 C 675 192 722 214 764 242 L 731 53 C 687 30 642 13 594 3 C 546 -6 500 -12 457 -12 C 393 -12 335 -2 285 15 C 235 33 192 59 158 93 C 123 127 96 167 78 213 C 60 259 51 311 51 367 C 51 383 51 399 53 416 C 55 432 57 449 61 467 C 73 532 97 594 132 653 C 167 711 210 763 260 807 C 310 851 367 885 430 911 C 493 937 559 950 627 950 C 671 950 711 944 748 933 C 784 921 816 905 842 883 C 868 861 889 835 904 804 C 918 773 926 738 926 700 Z M 739 676 C 739 710 727 736 704 756 C 681 776 650 786 610 786 C 574 786 537 778 500 763 C 462 747 427 726 395 699 C 363 671 334 638 310 600 C 285 562 267 519 256 473 L 297 473 C 361 473 420 477 472 485 C 524 493 569 505 607 520 C 644 535 674 553 696 575 C 718 596 731 620 737 647 C 738 652 739 657 739 661 C 739 665 739 670 739 676 Z M 877 1319 C 877 1315 875 1312 873 1308 C 870 1304 867 1299 864 1295 C 860 1291 857 1287 853 1283 C 849 1279 846 1276 844 1274 C 804 1236 763 1200 719 1168 C 675 1136 629 1106 582 1079 L 477 1122 C 556 1178 627 1243 690 1315 C 698 1323 706 1331 714 1341 C 721 1351 729 1360 737 1368 C 744 1375 752 1382 762 1389 C 772 1395 782 1399 793 1399 C 799 1399 806 1396 816 1390 C 825 1384 834 1377 843 1369 C 852 1361 860 1352 867 1343 C 873 1333 877 1325 877 1319 Z" unicode="" />
<glyph horiz-adv-x="975" d="M 926 700 C 926 678 924 657 920 635 C 908 580 885 533 849 494 C 813 454 768 422 714 396 C 659 370 596 352 524 340 C 452 328 375 322 293 322 L 246 322 C 254 270 276 229 312 198 C 348 167 401 152 471 152 C 521 152 571 160 623 176 C 675 192 722 214 764 242 L 731 53 C 687 30 642 13 594 3 C 546 -6 500 -12 457 -12 C 393 -12 335 -2 285 15 C 235 33 192 59 158 93 C 123 127 96 167 78 213 C 60 259 51 311 51 367 C 51 383 51 399 53 416 C 55 432 57 449 61 467 C 73 532 97 594 132 653 C 167 711 210 763 260 807 C 310 851 367 885 430 911 C 493 937 559 950 627 950 C 671 950 711 944 748 933 C 784 921 816 905 842 883 C 868 861 889 835 904 804 C 918 773 926 738 926 700 Z M 739 676 C 739 710 727 736 704 756 C 681 776 650 786 610 786 C 574 786 537 778 500 763 C 462 747 427 726 395 699 C 363 671 334 638 310 600 C 285 562 267 519 256 473 L 297 473 C 361 473 420 477 472 485 C 524 493 569 505 607 520 C 644 535 674 553 696 575 C 718 596 731 620 737 647 C 738 652 739 657 739 661 C 739 665 739 670 739 676 Z M 926 1126 L 819 1079 C 789 1099 759 1121 730 1144 C 701 1166 674 1191 649 1217 C 615 1191 580 1167 546 1144 C 511 1121 475 1099 438 1079 L 338 1122 C 391 1157 440 1195 485 1236 C 529 1277 575 1320 621 1366 C 629 1374 638 1381 648 1389 C 658 1397 668 1401 680 1401 C 690 1401 699 1397 707 1389 C 715 1381 721 1374 727 1366 C 732 1358 737 1351 741 1343 C 745 1335 750 1327 756 1319 C 778 1283 804 1248 833 1216 C 861 1184 892 1154 926 1126 Z" unicode="" />
<glyph horiz-adv-x="975" d="M 926 700 C 926 678 924 657 920 635 C 908 580 885 533 849 494 C 813 454 768 422 714 396 C 659 370 596 352 524 340 C 452 328 375 322 293 322 L 246 322 C 254 270 276 229 312 198 C 348 167 401 152 471 152 C 521 152 571 160 623 176 C 675 192 722 214 764 242 L 731 53 C 687 30 642 13 594 3 C 546 -6 500 -12 457 -12 C 393 -12 335 -2 285 15 C 235 33 192 59 158 93 C 123 127 96 167 78 213 C 60 259 51 311 51 367 C 51 383 51 399 53 416 C 55 432 57 449 61 467 C 73 532 97 594 132 653 C 167 711 210 763 260 807 C 310 851 367 885 430 911 C 493 937 559 950 627 950 C 671 950 711 944 748 933 C 784 921 816 905 842 883 C 868 861 889 835 904 804 C 918 773 926 738 926 700 Z M 739 676 C 739 710 727 736 704 756 C 681 776 650 786 610 786 C 574 786 537 778 500 763 C 462 747 427 726 395 699 C 363 671 334 638 310 600 C 285 562 267 519 256 473 L 297 473 C 361 473 420 477 472 485 C 524 493 569 505 607 520 C 644 535 674 553 696 575 C 718 596 731 620 737 647 C 738 652 739 657 739 661 C 739 665 739 670 739 676 Z M 866 1171 C 866 1163 862 1154 854 1144 C 846 1134 836 1124 825 1115 C 814 1106 803 1098 792 1092 C 780 1086 771 1083 764 1083 C 756 1083 747 1086 738 1093 C 728 1100 719 1108 711 1118 C 703 1128 696 1138 690 1149 C 684 1159 682 1168 682 1176 C 682 1183 685 1192 693 1202 C 701 1212 710 1222 721 1232 C 732 1241 743 1249 755 1256 C 767 1262 776 1266 784 1266 C 792 1266 800 1262 810 1255 C 819 1248 828 1240 836 1230 C 844 1220 851 1209 857 1199 C 863 1188 866 1179 866 1171 Z M 592 1171 C 592 1163 588 1154 580 1144 C 572 1134 563 1124 552 1115 C 541 1106 530 1098 518 1092 C 506 1086 497 1083 489 1083 C 481 1083 473 1086 464 1093 C 454 1100 445 1108 437 1118 C 429 1128 422 1138 416 1149 C 410 1159 408 1168 408 1176 C 408 1183 412 1192 420 1202 C 428 1212 437 1222 448 1232 C 459 1241 470 1249 482 1256 C 494 1262 504 1266 512 1266 C 520 1266 528 1262 538 1255 C 547 1248 556 1240 564 1230 C 572 1220 578 1209 584 1199 C 589 1188 592 1179 592 1171 Z" unicode="" />
<glyph horiz-adv-x="451" d="M 391 928 L 227 0 L 39 0 L 203 928 L 391 928 Z M 440 1126 L 338 1079 C 296 1104 256 1133 217 1165 C 178 1197 143 1232 113 1270 C 107 1275 102 1282 96 1290 C 90 1298 88 1306 88 1315 C 88 1321 91 1329 97 1339 C 103 1348 110 1357 119 1366 C 127 1375 136 1383 146 1389 C 155 1395 163 1399 170 1399 C 181 1399 191 1395 199 1388 C 207 1381 215 1374 221 1366 C 238 1343 255 1321 272 1300 C 288 1279 305 1259 323 1239 C 340 1219 358 1199 377 1181 C 396 1162 417 1144 440 1126 Z" unicode="" />
<glyph horiz-adv-x="451" d="M 391 928 L 227 0 L 39 0 L 203 928 L 391 928 Z M 571 1319 C 571 1315 569 1312 567 1308 C 564 1304 561 1299 558 1295 C 554 1291 551 1287 547 1283 C 543 1279 541 1276 539 1274 C 499 1236 457 1200 413 1168 C 369 1136 322 1106 274 1079 L 170 1122 C 209 1150 246 1180 282 1212 C 317 1244 351 1279 385 1315 C 393 1323 400 1331 408 1341 C 416 1351 424 1360 432 1368 C 439 1375 447 1382 457 1389 C 467 1395 477 1399 487 1399 C 493 1399 500 1396 510 1390 C 520 1384 529 1377 538 1369 C 547 1361 555 1352 561 1343 C 567 1333 571 1325 571 1319 Z" unicode="" />
<glyph horiz-adv-x="451" d="M 391 928 L 227 0 L 39 0 L 203 928 L 391 928 Z M 629 1126 L 524 1079 C 493 1099 463 1121 434 1144 C 404 1166 377 1191 352 1217 C 286 1167 216 1121 141 1079 L 41 1122 C 94 1157 143 1195 188 1236 C 232 1277 278 1320 324 1366 C 332 1374 341 1381 352 1389 C 362 1397 373 1401 385 1401 C 395 1401 404 1397 412 1389 C 419 1381 426 1374 432 1366 C 436 1358 440 1351 444 1343 C 448 1335 453 1327 459 1319 C 482 1283 508 1248 537 1216 C 566 1184 597 1154 629 1126 Z" unicode="" />
<glyph horiz-adv-x="451" d="M 391 928 L 227 0 L 39 0 L 203 928 L 391 928 Z M 575 1171 C 575 1163 571 1154 563 1144 C 555 1134 545 1124 534 1115 C 523 1106 512 1098 500 1092 C 488 1086 479 1083 471 1083 C 463 1083 455 1086 446 1093 C 436 1100 428 1108 420 1118 C 412 1128 405 1138 399 1149 C 393 1159 391 1168 391 1176 C 391 1183 394 1192 402 1202 C 410 1212 419 1222 430 1232 C 441 1241 452 1249 464 1256 C 476 1262 486 1266 494 1266 C 501 1266 509 1262 519 1255 C 528 1248 537 1240 545 1230 C 553 1220 560 1209 566 1199 C 572 1188 575 1179 575 1171 Z M 301 1171 C 301 1163 297 1154 289 1144 C 281 1134 271 1124 260 1115 C 249 1106 238 1098 226 1092 C 214 1086 205 1083 199 1083 C 191 1083 182 1086 173 1093 C 163 1100 154 1108 146 1118 C 138 1128 131 1138 125 1149 C 119 1159 117 1168 117 1176 C 117 1183 121 1192 129 1202 C 137 1212 146 1222 157 1232 C 168 1241 179 1249 191 1256 C 202 1262 211 1266 219 1266 C 227 1266 235 1262 245 1255 C 254 1248 263 1240 271 1230 C 279 1220 286 1209 292 1199 C 298 1188 301 1179 301 1171 Z" unicode="" />
<glyph horiz-adv-x="1022" d="M 930 508 C 930 432 918 361 894 296 C 870 231 837 175 793 128 C 749 80 695 43 633 17 C 570 -9 500 -23 422 -23 C 368 -23 318 -14 272 4 C 226 22 186 47 153 80 C 119 112 93 151 75 197 C 56 243 47 293 47 348 C 47 404 55 455 71 501 C 87 547 110 589 139 626 C 168 663 202 696 241 724 C 280 752 322 775 368 795 C 413 815 460 830 510 841 C 560 852 609 859 659 862 C 645 904 629 944 611 984 C 593 1023 573 1062 553 1102 L 393 1020 L 326 1153 L 477 1231 C 452 1270 426 1308 399 1346 C 372 1383 344 1420 315 1458 L 526 1458 C 545 1434 564 1410 582 1386 C 600 1361 617 1336 635 1311 L 799 1395 L 866 1262 L 715 1184 C 743 1135 770 1083 796 1028 C 822 972 844 916 864 858 C 884 800 900 741 912 682 C 924 622 930 564 930 508 Z M 745 508 C 745 540 742 573 736 605 C 730 637 720 669 707 700 C 672 698 636 694 599 688 C 562 682 526 673 492 661 C 457 649 424 633 393 615 C 362 597 335 575 312 550 C 288 524 270 495 256 462 C 242 428 236 391 236 350 C 236 320 240 292 249 267 C 258 241 271 219 288 201 C 304 182 325 167 349 157 C 373 146 401 141 432 141 C 482 141 526 151 565 172 C 603 193 636 221 663 256 C 689 290 710 330 724 374 C 738 418 745 462 745 508 Z" unicode="" />
<glyph horiz-adv-x="1081" d="M 991 688 C 991 667 989 647 985 627 L 877 0 L 690 0 L 803 639 C 804 645 805 650 806 656 C 806 662 807 668 807 674 C 807 712 795 742 773 764 C 750 786 720 797 682 797 C 636 797 595 789 559 773 C 522 757 489 735 459 708 C 429 681 403 650 381 615 C 358 579 338 542 322 503 C 305 463 291 423 280 383 C 269 342 260 303 254 266 L 207 0 L 20 0 L 184 928 L 371 928 L 334 731 L 338 729 C 376 801 426 855 490 893 C 553 931 625 950 707 950 C 747 950 784 944 818 932 C 852 920 882 903 908 881 C 934 859 954 831 969 799 C 983 766 991 729 991 688 Z M 995 1325 C 985 1312 969 1294 949 1270 C 928 1246 906 1223 882 1199 C 858 1175 834 1155 811 1138 C 787 1120 768 1112 752 1112 C 738 1112 723 1116 708 1125 C 692 1134 677 1144 663 1155 C 648 1165 634 1175 622 1184 C 609 1193 598 1198 590 1198 C 580 1198 569 1193 557 1185 C 544 1176 531 1166 518 1154 C 505 1142 493 1131 482 1119 C 471 1107 463 1098 457 1092 L 346 1141 C 356 1153 371 1171 391 1195 C 411 1219 433 1242 457 1266 C 481 1290 504 1310 528 1328 C 552 1345 572 1354 588 1354 C 602 1354 616 1349 632 1340 C 647 1331 662 1321 677 1311 C 692 1300 706 1290 719 1281 C 732 1272 743 1268 752 1268 C 760 1268 771 1272 784 1280 C 796 1288 809 1298 822 1310 C 835 1322 847 1333 859 1345 C 870 1357 879 1366 885 1374 L 995 1325 Z" unicode="" />
<glyph horiz-adv-x="1128" d="M 1051 545 C 1051 493 1043 444 1029 396 C 1014 348 994 302 968 260 C 942 218 911 179 875 145 C 839 110 799 80 756 55 C 713 30 667 11 619 -2 C 571 -16 521 -23 471 -23 C 411 -23 355 -13 304 6 C 253 25 209 52 172 88 C 135 124 106 166 86 216 C 65 266 55 321 55 383 C 55 434 62 484 77 532 C 91 580 112 625 138 667 C 164 709 195 747 231 782 C 267 816 306 846 349 871 C 392 896 438 915 486 929 C 534 943 584 950 635 950 C 695 950 750 940 801 921 C 851 901 895 874 932 838 C 969 802 998 760 1019 710 C 1040 660 1051 605 1051 545 Z M 862 543 C 862 579 856 613 845 643 C 834 673 818 698 798 719 C 778 740 753 756 723 768 C 693 780 660 786 623 786 C 571 786 522 774 476 752 C 430 729 389 699 355 661 C 321 623 294 581 274 533 C 254 485 244 435 244 385 C 244 348 249 315 260 285 C 271 255 287 229 307 208 C 327 186 352 170 382 158 C 412 146 445 141 483 141 C 535 141 584 152 630 175 C 676 198 716 228 750 266 C 784 303 812 346 832 394 C 852 442 862 492 862 543 Z M 797 1126 L 692 1079 C 650 1104 610 1133 571 1165 C 532 1197 497 1232 467 1270 C 461 1275 456 1282 450 1290 C 444 1298 442 1306 442 1315 C 442 1321 445 1329 451 1339 C 457 1348 465 1357 474 1366 C 483 1375 492 1383 502 1389 C 511 1395 519 1399 526 1399 C 536 1399 546 1395 554 1388 C 562 1381 569 1374 575 1366 C 592 1343 609 1321 626 1300 C 642 1279 659 1259 677 1239 C 695 1219 713 1199 733 1181 C 752 1162 773 1144 797 1126 Z" unicode="" />
<glyph horiz-adv-x="1128" d="M 1051 545 C 1051 493 1043 444 1029 396 C 1014 348 994 302 968 260 C 942 218 911 179 875 145 C 839 110 799 80 756 55 C 713 30 667 11 619 -2 C 571 -16 521 -23 471 -23 C 411 -23 355 -13 304 6 C 253 25 209 52 172 88 C 135 124 106 166 86 216 C 65 266 55 321 55 383 C 55 434 62 484 77 532 C 91 580 112 625 138 667 C 164 709 195 747 231 782 C 267 816 306 846 349 871 C 392 896 438 915 486 929 C 534 943 584 950 635 950 C 695 950 750 940 801 921 C 851 901 895 874 932 838 C 969 802 998 760 1019 710 C 1040 660 1051 605 1051 545 Z M 862 543 C 862 579 856 613 845 643 C 834 673 818 698 798 719 C 778 740 753 756 723 768 C 693 780 660 786 623 786 C 571 786 522 774 476 752 C 430 729 389 699 355 661 C 321 623 294 581 274 533 C 254 485 244 435 244 385 C 244 348 249 315 260 285 C 271 255 287 229 307 208 C 327 186 352 170 382 158 C 412 146 445 141 483 141 C 535 141 584 152 630 175 C 676 198 716 228 750 266 C 784 303 812 346 832 394 C 852 442 862 492 862 543 Z M 918 1319 C 918 1315 916 1312 914 1308 C 911 1304 908 1299 904 1295 C 900 1291 897 1287 893 1283 C 889 1279 885 1276 883 1274 C 805 1198 718 1133 621 1079 L 516 1122 C 593 1177 665 1241 731 1315 C 738 1323 746 1331 754 1341 C 762 1351 770 1360 778 1368 C 784 1375 792 1382 802 1389 C 812 1395 822 1399 834 1399 C 840 1399 847 1396 857 1390 C 866 1384 875 1377 884 1369 C 893 1361 901 1352 908 1343 C 914 1333 918 1325 918 1319 Z" unicode="" />
<glyph horiz-adv-x="1128" d="M 1051 545 C 1051 493 1043 444 1029 396 C 1014 348 994 302 968 260 C 942 218 911 179 875 145 C 839 110 799 80 756 55 C 713 30 667 11 619 -2 C 571 -16 521 -23 471 -23 C 411 -23 355 -13 304 6 C 253 25 209 52 172 88 C 135 124 106 166 86 216 C 65 266 55 321 55 383 C 55 434 62 484 77 532 C 91 580 112 625 138 667 C 164 709 195 747 231 782 C 267 816 306 846 349 871 C 392 896 438 915 486 929 C 534 943 584 950 635 950 C 695 950 750 940 801 921 C 851 901 895 874 932 838 C 969 802 998 760 1019 710 C 1040 660 1051 605 1051 545 Z M 862 543 C 862 579 856 613 845 643 C 834 673 818 698 798 719 C 778 740 753 756 723 768 C 693 780 660 786 623 786 C 571 786 522 774 476 752 C 430 729 389 699 355 661 C 321 623 294 581 274 533 C 254 485 244 435 244 385 C 244 348 249 315 260 285 C 271 255 287 229 307 208 C 327 186 352 170 382 158 C 412 146 445 141 483 141 C 535 141 584 152 630 175 C 676 198 716 228 750 266 C 784 303 812 346 832 394 C 852 442 862 492 862 543 Z M 969 1126 L 862 1079 C 831 1099 801 1121 772 1144 C 743 1166 716 1191 692 1217 C 658 1191 623 1167 589 1144 C 554 1121 518 1099 481 1079 L 379 1122 C 432 1157 481 1195 526 1237 C 570 1279 616 1322 662 1366 C 670 1374 679 1381 690 1389 C 700 1397 711 1401 723 1401 C 733 1401 742 1397 750 1389 C 758 1381 764 1374 770 1366 C 775 1358 780 1351 784 1343 C 788 1335 792 1327 797 1319 C 820 1283 846 1248 875 1216 C 904 1184 935 1154 969 1126 Z" unicode="" />
<glyph horiz-adv-x="1128" d="M 1051 545 C 1051 493 1043 444 1029 396 C 1014 348 994 302 968 260 C 942 218 911 179 875 145 C 839 110 799 80 756 55 C 713 30 667 11 619 -2 C 571 -16 521 -23 471 -23 C 411 -23 355 -13 304 6 C 253 25 209 52 172 88 C 135 124 106 166 86 216 C 65 266 55 321 55 383 C 55 434 62 484 77 532 C 91 580 112 625 138 667 C 164 709 195 747 231 782 C 267 816 306 846 349 871 C 392 896 438 915 486 929 C 534 943 584 950 635 950 C 695 950 750 940 801 921 C 851 901 895 874 932 838 C 969 802 998 760 1019 710 C 1040 660 1051 605 1051 545 Z M 862 543 C 862 579 856 613 845 643 C 834 673 818 698 798 719 C 778 740 753 756 723 768 C 693 780 660 786 623 786 C 571 786 522 774 476 752 C 430 729 389 699 355 661 C 321 623 294 581 274 533 C 254 485 244 435 244 385 C 244 348 249 315 260 285 C 271 255 287 229 307 208 C 327 186 352 170 382 158 C 412 146 445 141 483 141 C 535 141 584 152 630 175 C 676 198 716 228 750 266 C 784 303 812 346 832 394 C 852 442 862 492 862 543 Z M 1034 1325 C 1024 1312 1008 1294 988 1270 C 968 1246 946 1223 922 1199 C 898 1175 874 1155 851 1138 C 827 1120 808 1112 793 1112 C 779 1112 764 1116 749 1125 C 733 1134 718 1144 704 1155 C 689 1165 675 1175 662 1184 C 649 1193 638 1198 629 1198 C 619 1198 608 1193 596 1185 C 583 1176 570 1166 558 1154 C 545 1142 533 1131 522 1119 C 511 1107 502 1098 496 1092 L 387 1141 C 393 1149 402 1160 414 1174 C 425 1188 438 1203 452 1219 C 466 1235 482 1251 498 1267 C 514 1283 529 1297 545 1310 C 561 1323 576 1334 590 1342 C 604 1350 616 1354 627 1354 C 641 1354 655 1349 671 1340 C 686 1331 701 1321 716 1311 C 731 1300 745 1290 758 1281 C 771 1272 782 1268 791 1268 C 799 1268 810 1272 823 1280 C 835 1288 848 1298 861 1310 C 874 1322 886 1333 898 1345 C 910 1357 919 1366 926 1374 L 1034 1325 Z" unicode="" />
<glyph horiz-adv-x="1128" d="M 1051 545 C 1051 493 1043 444 1029 396 C 1014 348 994 302 968 260 C 942 218 911 179 875 145 C 839 110 799 80 756 55 C 713 30 667 11 619 -2 C 571 -16 521 -23 471 -23 C 411 -23 355 -13 304 6 C 253 25 209 52 172 88 C 135 124 106 166 86 216 C 65 266 55 321 55 383 C 55 434 62 484 77 532 C 91 580 112 625 138 667 C 164 709 195 747 231 782 C 267 816 306 846 349 871 C 392 896 438 915 486 929 C 534 943 584 950 635 950 C 695 950 750 940 801 921 C 851 901 895 874 932 838 C 969 802 998 760 1019 710 C 1040 660 1051 605 1051 545 Z M 862 543 C 862 579 856 613 845 643 C 834 673 818 698 798 719 C 778 740 753 756 723 768 C 693 780 660 786 623 786 C 571 786 522 774 476 752 C 430 729 389 699 355 661 C 321 623 294 581 274 533 C 254 485 244 435 244 385 C 244 348 249 315 260 285 C 271 255 287 229 307 208 C 327 186 352 170 382 158 C 412 146 445 141 483 141 C 535 141 584 152 630 175 C 676 198 716 228 750 266 C 784 303 812 346 832 394 C 852 442 862 492 862 543 Z M 913 1171 C 913 1163 909 1154 901 1144 C 893 1134 884 1124 873 1115 C 862 1106 851 1098 840 1092 C 828 1086 819 1083 811 1083 C 803 1083 794 1086 785 1093 C 775 1100 766 1108 758 1118 C 750 1128 743 1138 737 1149 C 731 1159 729 1168 729 1176 C 729 1183 733 1192 741 1202 C 749 1212 758 1222 770 1232 C 781 1241 792 1249 804 1256 C 816 1262 826 1266 834 1266 C 841 1266 849 1262 859 1255 C 868 1248 877 1240 885 1230 C 893 1220 899 1209 905 1199 C 910 1188 913 1179 913 1171 Z M 641 1171 C 641 1163 637 1154 629 1144 C 621 1134 611 1124 600 1115 C 589 1106 578 1098 566 1092 C 554 1086 545 1083 539 1083 C 531 1083 522 1086 513 1093 C 503 1100 494 1108 486 1118 C 478 1128 471 1138 465 1149 C 459 1159 457 1168 457 1176 C 457 1183 460 1192 468 1202 C 476 1212 485 1222 496 1232 C 507 1241 518 1249 530 1256 C 541 1262 551 1266 559 1266 C 567 1266 575 1262 585 1255 C 594 1248 603 1240 611 1230 C 619 1220 626 1209 632 1199 C 638 1188 641 1179 641 1171 Z" unicode="" />
<glyph horiz-adv-x="930" d="M 627 831 C 627 821 622 810 612 797 C 602 784 591 772 577 760 C 563 748 549 737 535 729 C 521 721 509 717 500 717 C 490 717 480 720 470 728 C 460 735 450 744 441 755 C 432 765 425 776 419 788 C 413 800 410 810 410 819 C 410 828 414 839 424 852 C 434 865 445 877 459 889 C 473 901 487 911 501 919 C 515 927 527 932 537 932 C 545 932 555 928 566 921 C 576 913 586 904 595 894 C 604 884 612 873 618 861 C 624 849 627 839 627 831 Z M 870 647 L 842 487 L 76 487 L 104 647 L 870 647 Z M 537 317 C 537 307 532 296 522 283 C 512 270 500 258 486 246 C 472 234 457 223 443 215 C 428 207 416 203 408 203 C 398 203 388 206 378 214 C 368 221 358 230 349 241 C 340 251 333 262 327 274 C 321 286 319 296 319 305 C 319 314 324 325 334 338 C 344 351 355 363 369 375 C 382 387 396 397 410 405 C 424 413 436 418 446 418 C 455 418 465 414 476 407 C 486 399 496 390 505 380 C 514 370 522 359 528 347 C 534 335 537 325 537 317 Z" unicode="" />
<glyph horiz-adv-x="1128" d="M 1073 918 L 965 807 C 995 769 1016 728 1030 684 C 1044 640 1051 594 1051 547 C 1051 469 1035 396 1003 327 C 971 258 929 198 876 146 C 822 94 761 52 691 22 C 621 -7 547 -23 471 -23 C 427 -23 384 -17 342 -6 C 300 4 260 22 223 47 L 109 -70 L 31 8 L 141 123 C 111 160 89 201 75 245 C 61 289 55 335 55 381 C 55 432 62 482 76 530 C 90 578 111 624 137 666 C 163 708 194 746 230 781 C 266 816 305 846 348 871 C 391 896 437 915 485 929 C 533 943 583 950 635 950 C 678 950 721 944 763 934 C 805 923 845 905 883 881 L 995 995 L 1073 918 Z M 758 752 C 737 764 715 772 692 778 C 669 783 646 786 623 786 C 571 786 522 774 476 752 C 430 729 390 699 356 662 C 321 624 294 582 274 534 C 254 486 244 437 244 387 C 244 340 254 296 274 256 L 758 752 Z M 862 541 C 862 587 851 631 831 672 L 348 176 C 368 164 390 155 413 149 C 436 143 459 141 483 141 C 535 141 583 152 629 175 C 675 197 715 227 750 265 C 784 303 812 346 832 394 C 852 442 862 491 862 541 Z" unicode="" />
<glyph horiz-adv-x="1081" d="M 1040 928 L 877 0 L 690 0 L 727 197 L 723 199 C 685 126 634 71 571 33 C 507 -4 435 -23 354 -23 C 314 -23 276 -17 242 -5 C 208 6 178 23 152 46 C 126 68 106 96 92 129 C 77 161 70 198 70 240 C 70 260 72 281 76 301 L 184 928 L 371 928 L 258 289 C 256 283 256 278 256 272 C 256 266 256 261 256 256 C 256 214 268 183 293 162 C 318 141 351 131 391 131 C 417 131 443 135 469 143 C 494 151 518 162 541 176 C 581 200 615 229 644 265 C 673 301 698 340 719 382 C 739 424 757 468 771 516 C 785 563 797 610 807 658 C 817 705 825 752 832 798 C 839 844 846 888 854 928 L 1040 928 Z M 778 1126 L 676 1079 C 634 1104 594 1133 554 1165 C 514 1197 479 1232 449 1270 C 444 1275 439 1282 433 1290 C 427 1298 424 1306 424 1315 C 424 1321 427 1329 433 1339 C 439 1348 447 1357 456 1366 C 464 1375 473 1383 483 1389 C 493 1395 501 1399 508 1399 C 519 1399 529 1395 537 1388 C 545 1381 553 1374 559 1366 C 576 1343 593 1321 610 1300 C 626 1279 643 1259 661 1239 C 678 1219 696 1199 715 1181 C 734 1162 755 1144 778 1126 Z" unicode="" />
<glyph horiz-adv-x="1081" d="M 1040 928 L 877 0 L 690 0 L 727 197 L 723 199 C 685 126 634 71 571 33 C 507 -4 435 -23 354 -23 C 314 -23 276 -17 242 -5 C 208 6 178 23 152 46 C 126 68 106 96 92 129 C 77 161 70 198 70 240 C 70 260 72 281 76 301 L 184 928 L 371 928 L 258 289 C 256 283 256 278 256 272 C 256 266 256 261 256 256 C 256 214 268 183 293 162 C 318 141 351 131 391 131 C 417 131 443 135 469 143 C 494 151 518 162 541 176 C 581 200 615 229 644 265 C 673 301 698 340 719 382 C 739 424 757 468 771 516 C 785 563 797 610 807 658 C 817 705 825 752 832 798 C 839 844 846 888 854 928 L 1040 928 Z M 885 1319 C 885 1315 883 1312 881 1308 C 878 1304 875 1299 871 1295 C 867 1291 864 1287 860 1283 C 856 1279 852 1276 850 1274 C 772 1198 685 1133 588 1079 L 483 1122 C 560 1177 632 1241 698 1315 C 705 1323 713 1331 721 1341 C 729 1351 737 1360 745 1368 C 751 1375 759 1382 769 1389 C 779 1395 789 1399 801 1399 C 807 1399 814 1396 824 1390 C 833 1384 842 1377 851 1369 C 860 1361 868 1352 875 1343 C 881 1333 885 1325 885 1319 Z" unicode="" />
<glyph horiz-adv-x="1081" d="M 1040 928 L 877 0 L 690 0 L 727 197 L 723 199 C 685 126 634 71 571 33 C 507 -4 435 -23 354 -23 C 314 -23 276 -17 242 -5 C 208 6 178 23 152 46 C 126 68 106 96 92 129 C 77 161 70 198 70 240 C 70 260 72 281 76 301 L 184 928 L 371 928 L 258 289 C 256 283 256 278 256 272 C 256 266 256 261 256 256 C 256 214 268 183 293 162 C 318 141 351 131 391 131 C 417 131 443 135 469 143 C 494 151 518 162 541 176 C 581 200 615 229 644 265 C 673 301 698 340 719 382 C 739 424 757 468 771 516 C 785 563 797 610 807 658 C 817 705 825 752 832 798 C 839 844 846 888 854 928 L 1040 928 Z M 936 1126 L 829 1079 C 799 1099 769 1121 741 1144 C 712 1166 685 1191 659 1217 C 625 1191 590 1167 556 1144 C 521 1121 485 1099 449 1079 L 348 1122 C 402 1157 451 1195 496 1236 C 540 1277 585 1320 631 1366 C 639 1374 648 1381 658 1389 C 668 1397 678 1401 690 1401 C 700 1401 709 1397 717 1389 C 725 1381 731 1374 737 1366 C 742 1358 747 1351 751 1343 C 755 1335 760 1327 766 1319 C 788 1283 814 1248 843 1216 C 871 1184 902 1154 936 1126 Z" unicode="" />
<glyph horiz-adv-x="1081" d="M 1040 928 L 877 0 L 690 0 L 727 197 L 723 199 C 685 126 634 71 571 33 C 507 -4 435 -23 354 -23 C 314 -23 276 -17 242 -5 C 208 6 178 23 152 46 C 126 68 106 96 92 129 C 77 161 70 198 70 240 C 70 260 72 281 76 301 L 184 928 L 371 928 L 258 289 C 256 283 256 278 256 272 C 256 266 256 261 256 256 C 256 214 268 183 293 162 C 318 141 351 131 391 131 C 417 131 443 135 469 143 C 494 151 518 162 541 176 C 581 200 615 229 644 265 C 673 301 698 340 719 382 C 739 424 757 468 771 516 C 785 563 797 610 807 658 C 817 705 825 752 832 798 C 839 844 846 888 854 928 L 1040 928 Z M 879 1171 C 879 1163 875 1154 867 1144 C 859 1134 849 1124 838 1115 C 827 1106 816 1098 804 1092 C 792 1086 783 1083 776 1083 C 768 1083 759 1086 750 1093 C 740 1100 731 1108 723 1118 C 715 1128 708 1138 702 1149 C 696 1159 694 1168 694 1176 C 694 1183 697 1192 705 1202 C 713 1212 722 1222 733 1232 C 744 1241 755 1249 767 1256 C 779 1262 789 1266 797 1266 C 804 1266 812 1262 822 1255 C 832 1248 841 1240 849 1230 C 857 1220 864 1209 870 1199 C 876 1188 879 1179 879 1171 Z M 604 1171 C 604 1163 600 1154 592 1144 C 584 1134 574 1124 563 1115 C 552 1106 541 1098 529 1092 C 517 1086 508 1083 502 1083 C 494 1083 485 1086 476 1093 C 466 1100 457 1108 449 1118 C 441 1128 434 1138 428 1149 C 422 1159 420 1168 420 1176 C 420 1183 424 1192 432 1202 C 440 1212 449 1222 460 1232 C 471 1241 482 1249 494 1256 C 505 1262 514 1266 522 1266 C 530 1266 538 1262 548 1255 C 557 1248 566 1240 574 1230 C 582 1220 589 1209 595 1199 C 601 1188 604 1179 604 1171 Z" unicode="" />
<glyph horiz-adv-x="961" d="M 991 928 L 502 90 C 452 4 403 -69 355 -132 C 307 -194 259 -248 212 -294 C 165 -339 118 -377 71 -407 C 23 -437 -24 -462 -74 -483 L -193 -365 C -149 -347 -105 -325 -62 -301 C -18 -277 23 -247 65 -211 C 107 -175 148 -133 188 -85 C 228 -36 268 21 307 88 L 113 928 L 299 928 L 395 508 C 401 479 409 445 417 407 C 425 368 432 330 438 293 L 442 293 C 452 310 462 328 472 347 C 482 366 493 385 503 404 C 513 423 524 441 534 459 C 544 476 553 492 561 506 L 803 928 L 991 928 Z M 856 1319 C 856 1315 854 1312 852 1308 C 849 1304 846 1299 842 1295 C 838 1291 835 1287 831 1283 C 827 1279 823 1276 821 1274 C 743 1198 656 1133 559 1079 L 455 1122 C 493 1150 530 1180 566 1212 C 602 1244 636 1279 670 1315 C 678 1323 685 1331 693 1341 C 700 1351 708 1360 717 1368 C 723 1375 730 1382 740 1389 C 750 1395 760 1399 772 1399 C 778 1399 785 1396 795 1390 C 805 1384 814 1377 823 1369 C 832 1361 840 1352 846 1343 C 852 1333 856 1325 856 1319 Z" unicode="" />
<glyph horiz-adv-x="1102" d="M 846 553 C 847 561 848 569 849 577 C 849 585 850 594 850 602 C 850 628 846 652 838 676 C 830 699 818 719 802 737 C 786 754 767 768 744 778 C 721 788 694 793 664 793 C 610 793 562 779 519 751 C 476 723 439 688 407 646 C 375 603 348 556 328 506 C 307 456 293 408 285 362 L 248 160 C 267 153 286 148 306 146 C 326 144 346 143 367 143 C 426 143 482 153 536 174 C 589 195 637 224 680 261 C 722 298 758 341 787 391 C 816 441 836 495 846 553 Z M 1032 535 C 1016 448 987 371 946 304 C 905 236 855 179 795 133 C 735 87 668 52 592 28 C 516 4 434 -8 348 -8 C 326 -8 305 -6 283 -4 C 261 -1 240 2 219 6 L 133 -473 L -53 -473 L 289 1458 L 475 1458 L 348 748 L 354 745 C 394 813 444 865 505 899 C 565 933 635 950 715 950 C 766 950 812 941 852 923 C 892 905 926 880 954 850 C 982 820 1003 784 1018 744 C 1032 703 1040 660 1040 614 C 1040 600 1039 587 1037 574 C 1035 561 1034 548 1032 535 Z" unicode="" />
<glyph horiz-adv-x="961" d="M 991 928 L 502 90 C 452 4 403 -69 355 -132 C 307 -194 259 -248 212 -294 C 165 -339 118 -377 71 -407 C 23 -437 -24 -462 -74 -483 L -193 -365 C -149 -347 -105 -325 -62 -301 C -18 -277 23 -247 65 -211 C 107 -175 148 -133 188 -85 C 228 -36 268 21 307 88 L 113 928 L 299 928 L 395 508 C 401 479 409 445 417 407 C 425 368 432 330 438 293 L 442 293 C 452 310 462 328 472 347 C 482 366 493 385 503 404 C 513 423 524 441 534 459 C 544 476 553 492 561 506 L 803 928 L 991 928 Z M 844 1165 C 844 1157 840 1148 832 1138 C 824 1128 815 1118 804 1109 C 793 1100 782 1092 770 1086 C 758 1080 749 1077 741 1077 C 733 1077 725 1080 715 1087 C 705 1093 696 1101 688 1111 C 680 1121 673 1131 667 1142 C 661 1152 659 1161 659 1169 C 659 1177 663 1186 671 1196 C 679 1206 688 1216 699 1226 C 710 1235 721 1243 733 1250 C 745 1256 754 1260 762 1260 C 770 1260 778 1256 788 1249 C 798 1241 807 1233 815 1223 C 823 1213 830 1202 836 1192 C 841 1181 844 1172 844 1165 Z M 571 1165 C 571 1157 567 1148 559 1138 C 551 1128 541 1118 530 1109 C 519 1100 508 1092 497 1086 C 485 1080 476 1077 469 1077 C 461 1077 452 1080 443 1087 C 433 1093 424 1101 416 1111 C 408 1121 401 1131 395 1142 C 389 1152 387 1161 387 1169 C 387 1177 390 1186 398 1196 C 406 1206 415 1216 426 1226 C 437 1235 448 1243 460 1250 C 472 1256 481 1260 489 1260 C 497 1260 505 1256 515 1249 C 524 1241 533 1233 541 1223 C 549 1213 556 1202 562 1192 C 568 1181 571 1172 571 1165 Z" unicode="" />
<glyph horiz-adv-x="451" d="M 391 928 L 227 0 L 39 0 L 203 928 L 391 928 Z" unicode="" />
<glyph horiz-adv-x="909" d="M 838 170 L 807 0 L 33 0 L 121 496 L 6 436 L 35 608 L 152 670 L 262 1307 L 461 1307 L 369 782 L 709 961 L 678 786 L 338 608 L 262 170 L 838 170 Z" unicode="" />
<glyph horiz-adv-x="485" d="M 520 961 L 489 786 L 342 709 L 256 223 C 254 217 254 212 254 208 C 254 203 254 199 254 195 C 254 177 257 162 263 150 C 269 137 276 126 286 118 C 296 109 307 102 319 98 C 331 93 344 90 356 88 L 231 -37 C 218 -35 202 -30 183 -22 C 164 -14 146 -2 128 13 C 110 29 94 49 82 73 C 69 97 63 127 63 162 C 63 170 63 178 63 186 C 63 194 65 203 68 213 L 137 602 L 23 541 L 51 713 L 168 774 L 289 1458 L 475 1458 L 373 883 L 520 961 Z" unicode="" />
<glyph horiz-adv-x="1724" d="M 1780 1307 L 1749 1137 L 1243 1137 L 1174 741 L 1597 741 L 1567 571 L 1143 571 L 1073 170 L 1651 170 L 1620 0 L 860 0 C 848 0 837 -1 825 -3 C 813 -5 802 -6 791 -8 C 771 -10 752 -11 732 -11 C 712 -11 693 -12 674 -12 C 592 -12 516 2 446 30 C 376 58 314 96 262 146 C 210 196 169 255 139 324 C 109 393 94 469 94 551 C 94 625 104 696 124 764 C 144 831 173 893 210 950 C 246 1006 290 1057 341 1103 C 392 1149 448 1188 509 1220 C 569 1252 634 1276 703 1293 C 772 1310 843 1319 915 1319 C 955 1319 996 1317 1038 1313 C 1044 1311 1051 1310 1057 1309 C 1063 1307 1069 1307 1075 1307 L 1780 1307 Z M 1042 1130 C 1021 1134 1000 1138 979 1140 C 957 1142 936 1143 915 1143 C 831 1143 751 1128 676 1099 C 601 1069 535 1028 479 976 C 423 923 378 860 345 788 C 311 716 295 637 295 551 C 295 488 305 432 327 383 C 348 334 378 293 416 259 C 454 225 498 200 550 182 C 601 164 657 156 717 156 C 743 156 770 157 796 159 C 822 161 848 164 874 170 L 1042 1130 Z" unicode="" />
<glyph horiz-adv-x="1772" d="M 1722 700 C 1722 678 1720 657 1716 635 C 1704 580 1681 533 1645 494 C 1609 454 1564 422 1510 396 C 1455 370 1392 352 1321 340 C 1249 328 1172 322 1090 322 L 1042 322 C 1050 270 1073 229 1109 198 C 1145 167 1198 152 1268 152 C 1318 152 1368 160 1420 176 C 1472 192 1519 214 1561 242 L 1528 53 C 1484 30 1438 13 1390 3 C 1342 -6 1296 -12 1253 -12 C 1209 -12 1169 -7 1131 2 C 1093 11 1059 25 1029 43 C 998 61 971 83 949 109 C 927 135 909 164 897 197 C 841 122 776 67 703 31 C 629 -5 552 -23 471 -23 C 407 -23 350 -12 299 8 C 247 28 204 57 168 93 C 132 129 104 172 84 222 C 64 271 55 325 55 383 C 55 398 55 413 56 428 C 57 442 59 458 63 475 C 75 543 100 606 136 664 C 172 722 215 772 267 814 C 319 856 376 890 439 914 C 502 938 567 950 635 950 C 679 950 721 944 761 934 C 801 923 836 908 868 889 C 900 870 927 847 950 821 C 972 794 989 765 1001 733 C 1023 765 1051 795 1083 822 C 1115 848 1150 871 1188 890 C 1225 909 1264 924 1304 934 C 1344 944 1384 950 1423 950 C 1467 950 1507 944 1544 933 C 1580 921 1612 905 1638 883 C 1664 861 1685 835 1700 804 C 1714 773 1722 738 1722 700 Z M 1536 676 C 1536 710 1524 736 1501 756 C 1478 776 1447 786 1407 786 C 1371 786 1334 778 1297 763 C 1259 747 1224 726 1192 699 C 1160 671 1131 638 1107 600 C 1082 562 1064 519 1053 473 L 1094 473 C 1224 473 1328 488 1404 520 C 1480 551 1523 593 1534 647 C 1535 652 1536 657 1536 661 C 1536 665 1536 670 1536 676 Z M 862 543 C 862 577 856 608 846 638 C 836 668 821 694 801 716 C 781 738 756 755 726 767 C 696 779 662 786 623 786 C 579 786 536 777 495 760 C 453 742 416 718 382 688 C 348 658 320 622 297 582 C 273 541 258 497 250 451 C 246 427 244 405 244 385 C 244 351 249 319 259 289 C 269 259 285 234 305 212 C 325 190 349 172 379 160 C 409 147 443 141 483 141 C 527 141 569 149 611 167 C 652 185 689 209 723 239 C 756 269 784 305 808 346 C 832 386 848 430 856 477 C 860 499 862 521 862 543 Z" unicode="" />
<glyph horiz-adv-x="975" d="M 936 1243 L 877 1085 C 867 1093 854 1101 838 1109 C 822 1117 804 1124 784 1131 C 764 1138 742 1144 718 1148 C 694 1152 669 1155 643 1155 C 614 1155 585 1150 555 1141 C 525 1132 499 1119 475 1102 C 451 1084 431 1063 416 1038 C 400 1012 393 984 393 952 C 393 912 407 878 436 850 C 465 821 508 796 565 776 C 611 759 653 740 691 719 C 729 698 761 674 788 646 C 814 618 835 587 850 553 C 864 518 872 478 872 434 C 872 359 858 294 832 238 C 806 182 770 136 724 100 C 678 63 625 35 563 17 C 501 0 435 -10 365 -10 C 329 -10 295 -7 262 -2 C 229 3 198 10 169 19 C 140 28 114 38 91 50 C 68 62 49 74 35 86 L 47 281 C 73 260 100 242 126 227 C 152 212 178 200 206 190 C 233 180 261 173 291 169 C 320 164 351 162 385 162 C 421 162 456 167 490 177 C 524 187 555 203 582 223 C 608 243 630 268 646 298 C 662 328 670 362 670 401 C 670 447 655 487 625 519 C 595 551 549 578 485 600 C 390 633 318 676 270 728 C 221 780 197 845 197 922 C 197 986 209 1043 235 1093 C 261 1143 295 1184 338 1218 C 380 1251 430 1276 486 1293 C 542 1310 600 1319 662 1319 C 693 1319 723 1316 752 1312 C 780 1307 807 1301 831 1294 C 855 1286 876 1278 894 1269 C 912 1260 926 1251 936 1243 Z M 1004 1761 C 912 1701 829 1632 756 1554 C 742 1540 730 1525 719 1509 C 707 1493 694 1479 680 1466 C 676 1462 672 1458 668 1456 C 663 1453 657 1452 651 1452 C 645 1452 640 1453 636 1455 C 632 1457 629 1460 625 1466 C 617 1477 611 1489 605 1503 C 599 1517 593 1530 586 1542 C 563 1583 536 1622 504 1659 C 472 1696 439 1730 403 1761 L 545 1819 C 573 1797 599 1775 623 1751 C 647 1727 669 1700 688 1671 C 718 1700 749 1727 781 1751 C 813 1775 847 1797 881 1819 L 1004 1761 Z" unicode="" />
<glyph horiz-adv-x="764" d="M 698 872 L 643 727 C 633 733 622 740 608 747 C 594 753 578 759 561 765 C 544 771 526 775 508 779 C 489 782 471 784 453 784 C 435 784 418 781 400 776 C 382 770 365 763 351 753 C 337 743 325 730 316 715 C 307 700 303 683 303 664 C 303 640 312 619 330 603 C 348 587 376 571 414 557 C 451 543 484 527 514 511 C 543 494 568 475 588 455 C 608 435 624 412 635 387 C 645 362 651 334 651 303 C 651 250 641 204 621 165 C 601 125 575 92 542 66 C 508 40 469 20 425 7 C 381 -5 334 -12 285 -12 C 258 -12 231 -10 205 -6 C 178 -2 153 3 129 10 C 105 17 83 25 63 35 C 43 45 26 55 14 66 L 27 244 C 61 214 99 190 143 172 C 186 154 234 145 287 145 C 307 145 327 147 348 153 C 368 158 387 166 404 177 C 420 188 434 202 445 219 C 455 236 461 256 461 279 C 461 307 451 329 432 347 C 412 364 385 379 350 393 C 275 422 217 456 177 495 C 137 533 117 582 117 641 C 117 689 126 731 144 769 C 162 806 187 837 218 863 C 249 888 285 907 326 920 C 366 933 409 940 455 940 C 481 940 506 937 532 932 C 558 927 582 921 604 914 C 626 907 645 900 662 892 C 678 884 690 878 698 872 Z M 770 1337 C 693 1287 623 1229 559 1161 C 547 1149 537 1136 527 1123 C 517 1110 507 1098 496 1087 C 488 1079 480 1075 471 1075 C 465 1075 461 1075 458 1077 C 455 1078 452 1081 449 1087 C 442 1096 436 1106 432 1118 C 427 1129 422 1140 416 1151 C 396 1186 373 1219 347 1251 C 320 1283 291 1311 260 1337 L 381 1386 C 403 1368 425 1349 447 1329 C 468 1309 486 1286 502 1262 C 526 1285 552 1307 580 1328 C 608 1348 636 1368 666 1386 L 770 1337 Z" unicode="" />
<glyph horiz-adv-x="1278" d="M 1374 1307 L 750 602 L 643 0 L 449 0 L 555 602 L 178 1307 L 389 1307 L 586 938 C 600 910 615 879 633 846 C 651 813 666 782 680 754 L 684 754 C 696 768 708 783 722 799 C 735 815 748 832 762 848 C 776 864 789 880 803 896 C 816 911 828 925 840 938 L 1161 1307 L 1374 1307 Z M 1079 1567 C 1079 1557 1074 1547 1065 1535 C 1055 1523 1044 1511 1031 1500 C 1018 1489 1005 1480 991 1473 C 977 1465 966 1462 958 1462 C 949 1462 939 1466 928 1474 C 917 1482 907 1491 897 1503 C 887 1515 878 1527 872 1539 C 865 1551 862 1562 862 1571 C 862 1580 866 1591 876 1603 C 885 1615 896 1626 909 1637 C 922 1648 935 1657 949 1665 C 963 1673 974 1677 983 1677 C 992 1677 1002 1672 1013 1664 C 1024 1656 1034 1646 1044 1635 C 1054 1623 1062 1611 1069 1599 C 1075 1586 1079 1575 1079 1567 Z M 758 1567 C 758 1557 753 1547 744 1535 C 734 1523 723 1511 710 1500 C 697 1489 684 1480 670 1473 C 656 1465 645 1462 637 1462 C 628 1462 618 1466 607 1474 C 596 1482 586 1491 576 1503 C 566 1515 557 1527 551 1539 C 544 1551 541 1562 541 1571 C 541 1580 545 1591 555 1603 C 564 1615 575 1626 588 1637 C 601 1648 614 1657 628 1665 C 642 1673 653 1677 662 1677 C 670 1677 680 1672 692 1664 C 703 1656 713 1646 723 1635 C 733 1623 741 1611 748 1599 C 754 1586 758 1575 758 1567 Z" unicode="" />
<glyph horiz-adv-x="1090" d="M 1122 1307 L 1114 1260 L 575 530 C 553 500 531 470 507 439 C 483 408 460 377 436 346 C 412 315 389 285 367 255 C 344 225 323 198 303 172 L 305 170 L 946 170 L 915 0 L -10 0 L -2 47 L 532 774 C 553 803 576 833 600 865 C 624 897 648 928 672 960 C 696 992 719 1022 742 1052 C 765 1082 787 1109 807 1135 L 805 1137 L 223 1137 L 252 1307 L 1122 1307 Z M 1047 1761 C 955 1701 872 1632 799 1554 C 785 1540 773 1525 762 1509 C 750 1493 737 1479 723 1466 C 719 1462 714 1458 710 1456 C 706 1453 700 1452 694 1452 C 688 1452 683 1453 679 1455 C 675 1457 672 1460 668 1466 C 660 1477 654 1489 648 1503 C 642 1517 636 1530 629 1542 C 606 1583 579 1622 547 1659 C 515 1696 482 1730 446 1761 L 588 1819 C 616 1797 642 1775 666 1751 C 690 1727 712 1700 731 1671 C 761 1700 792 1727 824 1751 C 856 1775 890 1797 924 1819 L 1047 1761 Z" unicode="" />
<glyph horiz-adv-x="885" d="M 848 928 L 842 891 L 467 399 C 437 360 406 320 376 279 C 345 238 313 196 279 152 L 279 150 L 748 150 L 721 0 L -20 0 L -14 37 L 352 528 C 366 546 382 567 398 589 C 414 611 431 633 448 655 C 464 677 481 698 497 719 C 513 739 529 758 543 776 L 541 778 L 145 778 L 172 928 L 848 928 Z M 831 1337 C 793 1312 756 1285 721 1256 C 686 1226 653 1195 621 1161 C 609 1149 599 1136 589 1123 C 579 1110 568 1098 557 1087 C 551 1079 542 1075 532 1075 C 526 1075 522 1075 519 1077 C 516 1078 513 1081 510 1087 C 502 1096 496 1106 492 1118 C 488 1129 483 1140 477 1151 C 457 1186 434 1219 408 1251 C 381 1283 352 1311 322 1337 L 442 1386 C 464 1368 486 1349 508 1329 C 529 1309 547 1286 563 1262 C 587 1285 614 1307 642 1328 C 670 1348 698 1368 727 1386 L 831 1337 Z" unicode="" />
<glyph horiz-adv-x="770" d="M 926 1305 L 868 1155 C 854 1158 841 1160 828 1161 C 814 1162 801 1163 788 1163 C 715 1163 656 1141 610 1098 C 564 1055 531 991 512 907 L 446 618 L 680 618 L 649 508 L 422 508 L 281 -100 C 269 -150 250 -196 225 -238 C 200 -280 171 -317 139 -349 C 107 -381 72 -408 36 -429 C 0 -450 -36 -465 -72 -473 L -184 -356 C -152 -349 -121 -338 -91 -324 C -61 -309 -33 -291 -8 -269 C 17 -247 39 -220 58 -190 C 77 -160 91 -125 100 -86 L 236 508 L 78 508 L 102 618 L 260 618 L 328 918 C 342 983 364 1041 394 1091 C 424 1141 459 1182 501 1216 C 542 1250 589 1275 641 1293 C 693 1310 750 1319 811 1319 C 830 1319 850 1317 872 1315 C 893 1312 911 1309 926 1305 Z" unicode="" />
<glyph horiz-adv-x="1024" d="M 961 1104 L 836 1049 C 800 1073 765 1099 731 1125 C 697 1151 665 1179 635 1210 C 595 1180 555 1151 514 1124 C 472 1097 430 1072 387 1049 L 268 1100 C 330 1141 388 1186 441 1235 C 493 1283 546 1334 600 1386 C 609 1394 620 1403 633 1412 C 645 1420 658 1425 672 1425 C 684 1425 694 1420 704 1412 C 713 1404 721 1395 727 1386 C 733 1376 738 1367 743 1358 C 748 1349 754 1340 760 1331 C 788 1289 819 1248 853 1210 C 887 1172 923 1136 961 1104 Z" unicode="" />
<glyph horiz-adv-x="1024" d="M 958 1352 C 912 1322 869 1289 828 1255 C 786 1221 747 1184 711 1145 C 697 1130 685 1115 673 1100 C 661 1084 648 1070 635 1057 C 631 1053 626 1049 622 1046 C 617 1043 612 1042 606 1042 C 594 1042 586 1047 580 1057 C 571 1068 564 1080 559 1094 C 554 1107 548 1120 541 1133 C 517 1173 490 1212 459 1249 C 427 1286 394 1320 358 1352 L 500 1409 C 526 1387 552 1365 577 1341 C 602 1317 624 1290 643 1262 C 671 1290 702 1317 735 1341 C 768 1365 802 1387 836 1409 L 958 1352 Z" unicode="" />
<glyph horiz-adv-x="1024" d="M 877 1149 C 859 1135 839 1123 817 1111 C 795 1099 772 1089 749 1081 C 725 1072 702 1065 678 1060 C 654 1055 630 1053 608 1053 C 587 1053 566 1055 544 1059 C 522 1063 501 1070 480 1078 C 459 1086 439 1097 420 1109 C 401 1121 385 1134 371 1149 L 487 1257 C 506 1243 529 1232 555 1224 C 581 1216 605 1212 629 1212 C 654 1212 681 1216 709 1224 C 737 1232 762 1243 784 1257 L 877 1149 Z" unicode="" />
<glyph horiz-adv-x="1024" d="M 733 1157 C 733 1147 728 1137 719 1125 C 709 1113 698 1101 685 1091 C 672 1080 659 1071 645 1064 C 631 1056 620 1053 612 1053 C 603 1053 593 1057 582 1065 C 571 1073 561 1082 551 1094 C 541 1105 532 1117 526 1129 C 519 1141 516 1152 516 1161 C 516 1170 520 1181 530 1193 C 539 1205 550 1217 563 1228 C 576 1239 589 1248 603 1256 C 617 1264 628 1268 637 1268 C 646 1268 656 1263 667 1255 C 678 1247 688 1237 698 1225 C 708 1213 716 1201 723 1189 C 729 1176 733 1165 733 1157 Z" unicode="" />
<glyph horiz-adv-x="1024" d="M 885 1290 C 885 1254 877 1220 862 1189 C 847 1157 827 1130 802 1107 C 776 1083 747 1065 715 1052 C 682 1038 648 1032 614 1032 C 586 1032 559 1037 535 1048 C 511 1059 490 1074 472 1093 C 454 1111 439 1133 429 1158 C 419 1182 414 1209 414 1237 C 414 1273 421 1306 436 1338 C 451 1369 471 1396 496 1420 C 521 1443 550 1461 583 1475 C 615 1488 649 1495 684 1495 C 712 1495 738 1489 763 1478 C 787 1467 809 1452 827 1434 C 845 1415 859 1393 869 1369 C 879 1344 885 1318 885 1290 Z M 754 1286 C 754 1310 745 1331 729 1347 C 713 1363 692 1372 668 1372 C 650 1372 634 1368 619 1361 C 603 1353 590 1344 579 1332 C 567 1320 558 1306 552 1290 C 546 1274 543 1257 543 1241 C 543 1216 551 1195 568 1179 C 585 1163 606 1155 631 1155 C 648 1155 664 1158 679 1166 C 694 1173 707 1183 718 1195 C 729 1207 738 1221 744 1237 C 750 1253 754 1269 754 1286 Z" unicode="" />
<glyph horiz-adv-x="1024" d="M 618 0 C 592 -12 561 -27 526 -47 C 491 -66 458 -88 426 -113 C 394 -138 368 -165 346 -195 C 324 -225 313 -256 313 -289 C 313 -303 316 -314 322 -324 C 328 -334 335 -341 345 -347 C 355 -352 366 -356 378 -358 C 390 -360 402 -362 414 -362 C 461 -362 505 -351 545 -330 L 504 -444 C 484 -454 464 -462 442 -466 C 420 -470 397 -473 375 -473 C 349 -473 325 -469 302 -462 C 278 -455 258 -445 240 -431 C 222 -417 207 -399 196 -379 C 185 -358 180 -334 180 -307 C 180 -271 188 -237 204 -206 C 220 -174 241 -146 267 -120 C 293 -94 321 -71 353 -51 C 384 -31 414 -14 444 0 L 618 0 Z" unicode="" />
<glyph horiz-adv-x="1024" d="M 1042 1337 C 1034 1327 1024 1314 1010 1298 C 996 1282 981 1264 964 1246 C 947 1227 929 1208 910 1190 C 891 1171 872 1154 854 1139 C 835 1123 817 1111 801 1101 C 784 1091 770 1087 758 1087 C 741 1087 724 1092 706 1103 C 688 1113 670 1125 653 1137 C 635 1149 619 1161 604 1172 C 588 1182 575 1188 565 1188 C 554 1188 541 1183 527 1173 C 512 1163 497 1151 482 1138 C 467 1124 453 1110 440 1096 C 427 1082 417 1071 410 1063 L 281 1120 C 288 1130 298 1143 312 1159 C 325 1175 340 1193 357 1211 C 374 1229 392 1248 411 1267 C 429 1286 448 1303 467 1318 C 485 1333 503 1345 519 1355 C 535 1365 550 1370 563 1370 C 579 1370 597 1364 615 1354 C 633 1344 651 1332 669 1320 C 686 1307 702 1295 718 1285 C 733 1275 746 1270 756 1270 C 766 1270 779 1275 794 1285 C 809 1295 824 1306 839 1320 C 854 1333 868 1347 882 1361 C 895 1375 905 1387 913 1395 L 1042 1337 Z" unicode="" />
<glyph horiz-adv-x="1024" d="M 1071 1331 C 1071 1323 1066 1313 1057 1303 C 1048 1292 1040 1284 1034 1278 C 988 1232 938 1190 886 1153 C 834 1115 779 1081 723 1049 L 600 1100 C 646 1132 690 1167 732 1205 C 774 1243 814 1283 852 1325 C 861 1335 870 1346 879 1357 C 888 1367 897 1378 907 1389 C 915 1397 925 1405 937 1413 C 948 1421 960 1425 973 1425 C 979 1425 988 1421 1000 1414 C 1011 1407 1022 1399 1032 1389 C 1042 1379 1051 1368 1059 1358 C 1067 1347 1071 1338 1071 1331 Z M 741 1331 C 741 1323 736 1313 727 1303 C 718 1292 711 1284 705 1278 C 658 1232 608 1190 556 1153 C 504 1115 449 1081 393 1049 L 270 1100 C 316 1132 360 1167 402 1205 C 444 1243 484 1283 522 1325 C 531 1335 540 1346 550 1357 C 559 1367 568 1378 578 1389 C 586 1397 595 1405 607 1413 C 618 1421 630 1425 643 1425 C 650 1425 659 1421 670 1414 C 681 1407 692 1399 703 1389 C 713 1379 722 1368 730 1358 C 737 1347 741 1338 741 1331 Z" unicode="" />
<glyph horiz-adv-x="1024" d="M 825 1233 L 799 1075 L 422 1075 L 449 1233 L 825 1233 Z" unicode="" />
<glyph horiz-adv-x="1536" d="M 76 0 L 652 1536 L 884 1536 L 1456 0 L 76 0 Z M 352 148 L 1164 148 L 752 1256 L 352 148 Z" unicode="" />
<glyph horiz-adv-x="1664" d="M 832 1376 C 706 1376 599 1328 510 1234 C 420 1139 376 1006 376 836 C 376 673 405 538 464 432 C 522 325 609 241 724 180 L 724 0 L 88 0 L 88 196 L 536 196 C 456 225 378 295 304 406 C 229 516 192 664 192 848 C 192 1024 247 1184 358 1330 C 468 1475 626 1548 832 1548 C 1037 1548 1195 1478 1306 1338 C 1416 1198 1472 1034 1472 848 C 1472 664 1434 516 1360 406 C 1285 295 1208 225 1128 196 L 1576 196 L 1576 0 L 940 0 L 940 180 C 1054 241 1141 325 1200 432 C 1258 538 1288 673 1288 836 C 1288 974 1246 1099 1162 1210 C 1078 1320 968 1376 832 1376 Z" unicode="" />
<glyph horiz-adv-x="1408" d="M 252 -424 C 214 -424 186 -413 168 -392 C 149 -370 140 -333 140 -280 C 140 -226 141 -168 144 -106 C 146 -43 150 25 156 100 C 161 166 165 218 168 256 C 170 293 172 317 172 328 C 174 341 176 350 176 356 C 176 361 176 365 176 368 L 176 1176 L 368 1176 L 368 320 C 368 258 395 210 450 176 C 504 141 564 124 628 124 C 716 124 792 146 858 190 C 923 234 973 297 1008 380 L 1008 1176 L 1200 1176 L 1200 308 L 1220 0 L 1056 0 L 1020 176 C 974 104 913 50 836 14 C 758 -22 670 -40 572 -40 C 537 -40 494 -31 444 -14 C 393 3 353 28 324 60 C 324 1 333 -56 352 -112 C 370 -168 380 -218 380 -264 C 380 -370 337 -424 252 -424 Z" unicode="" />
<glyph horiz-adv-x="1408" d="M 296 0 L 296 1028 L 12 1028 L 12 1176 L 1316 1176 L 1316 1028 L 996 1028 L 996 344 C 996 266 1011 213 1042 184 C 1072 154 1109 140 1152 140 C 1184 140 1210 140 1232 142 C 1253 143 1274 148 1296 156 L 1296 28 C 1264 12 1234 0 1206 -6 C 1178 -12 1138 -16 1088 -16 C 1002 -16 935 10 886 64 C 836 117 812 208 812 336 L 812 1028 L 484 1028 L 484 0 L 296 0 Z" unicode="" />
<glyph horiz-adv-x="1024" d="M 1028 526 L 1006 399 L -23 399 L 0 526 L 1028 526 Z" unicode="" />
<glyph horiz-adv-x="2048" d="M 2052 526 L 2030 399 L -23 399 L 0 526 L 2052 526 Z" unicode="" />
<glyph horiz-adv-x="406" d="M 461 1319 C 445 1303 429 1284 413 1264 C 397 1244 382 1222 368 1200 C 354 1177 342 1154 332 1131 C 322 1107 315 1085 311 1063 C 320 1061 330 1056 341 1048 C 352 1040 362 1031 372 1021 C 382 1010 390 999 396 988 C 402 976 406 966 406 956 C 406 945 400 933 390 919 C 379 905 366 893 351 881 C 336 869 321 858 305 850 C 289 842 276 838 266 838 C 255 838 243 842 230 852 C 217 861 205 872 194 885 C 183 898 174 912 167 926 C 159 940 156 953 156 963 C 156 995 163 1029 179 1064 C 194 1099 213 1133 236 1166 C 259 1199 284 1230 312 1259 C 339 1287 365 1311 389 1331 L 461 1319 Z" unicode="" />
<glyph horiz-adv-x="406" d="M 449 1208 C 449 1175 441 1141 426 1106 C 410 1071 391 1037 368 1004 C 344 971 319 940 292 912 C 264 883 239 859 215 840 L 143 852 C 159 868 175 886 191 906 C 207 926 221 948 235 970 C 249 992 261 1015 271 1039 C 281 1063 289 1086 293 1108 C 283 1110 273 1114 262 1122 C 251 1130 241 1139 232 1149 C 222 1159 214 1170 208 1182 C 202 1194 199 1204 199 1214 C 199 1224 204 1236 215 1250 C 225 1264 238 1277 253 1289 C 267 1301 283 1312 299 1320 C 315 1328 328 1333 338 1333 C 348 1333 360 1328 373 1319 C 386 1309 398 1298 409 1285 C 420 1272 429 1258 437 1244 C 445 1230 449 1218 449 1208 Z" unicode="" />
<glyph horiz-adv-x="406" d="M 254 100 C 254 67 246 33 231 -1 C 215 -36 196 -70 173 -103 C 150 -136 125 -167 97 -196 C 69 -224 44 -248 20 -268 L -51 -256 C -35 -240 -19 -221 -3 -201 C 13 -181 27 -159 41 -137 C 55 -115 67 -92 77 -68 C 87 -44 94 -22 98 0 C 88 2 78 6 67 14 C 56 22 46 31 37 41 C 27 51 19 62 13 74 C 7 86 4 96 4 106 C 4 116 9 129 19 143 C 29 157 42 170 57 182 C 71 194 86 204 102 212 C 118 220 131 225 141 225 C 151 225 163 220 176 211 C 189 201 201 190 213 177 C 225 164 234 150 242 136 C 250 122 254 110 254 100 Z" unicode="" />
<glyph horiz-adv-x="758" d="M 813 1319 C 797 1303 781 1284 765 1264 C 749 1244 734 1222 720 1200 C 706 1177 695 1154 685 1131 C 675 1107 668 1085 664 1063 C 672 1061 682 1056 693 1048 C 704 1040 714 1031 724 1021 C 734 1010 742 999 748 988 C 754 976 758 966 758 956 C 758 945 752 933 742 919 C 731 905 718 893 703 881 C 688 869 673 858 657 850 C 641 842 628 838 618 838 C 607 838 595 842 582 852 C 569 861 557 872 546 885 C 535 898 526 912 519 926 C 511 940 508 953 508 963 C 508 995 515 1029 531 1064 C 546 1099 565 1133 588 1166 C 611 1199 636 1230 664 1259 C 691 1287 717 1311 741 1331 L 813 1319 Z M 461 1319 C 445 1303 429 1284 413 1264 C 397 1244 382 1222 368 1200 C 354 1177 342 1154 332 1131 C 322 1107 315 1085 311 1063 C 320 1061 330 1056 341 1048 C 352 1040 362 1031 372 1021 C 382 1010 390 999 396 988 C 402 976 406 966 406 956 C 406 945 400 933 390 919 C 379 905 366 893 351 881 C 336 869 321 858 305 850 C 289 842 276 838 266 838 C 255 838 243 842 230 852 C 217 861 205 872 194 885 C 183 898 174 912 167 926 C 159 940 156 953 156 963 C 156 995 163 1029 179 1064 C 194 1099 213 1133 236 1166 C 259 1199 284 1230 312 1259 C 339 1287 365 1311 389 1331 L 461 1319 Z" unicode="" />
<glyph horiz-adv-x="758" d="M 801 1208 C 801 1175 793 1141 778 1106 C 762 1071 743 1037 720 1004 C 697 971 672 940 644 912 C 616 883 591 859 567 840 L 496 852 C 512 868 528 886 544 906 C 560 926 574 948 588 970 C 602 992 614 1015 624 1039 C 634 1063 641 1086 645 1108 C 635 1110 625 1114 614 1122 C 603 1130 593 1139 584 1149 C 574 1159 566 1170 560 1182 C 554 1194 551 1204 551 1214 C 551 1224 556 1236 567 1250 C 577 1264 590 1277 605 1289 C 619 1301 635 1312 651 1320 C 667 1328 680 1333 690 1333 C 700 1333 712 1328 725 1319 C 738 1309 750 1298 761 1285 C 772 1272 781 1258 789 1244 C 797 1230 801 1218 801 1208 Z M 449 1208 C 449 1175 441 1141 426 1106 C 410 1071 391 1037 368 1004 C 344 971 319 940 292 912 C 264 883 239 859 215 840 L 143 852 C 159 868 175 886 191 906 C 207 926 221 948 235 970 C 249 992 261 1015 271 1039 C 281 1063 289 1086 293 1108 C 283 1110 273 1114 262 1122 C 251 1130 241 1139 232 1149 C 222 1159 214 1170 208 1182 C 202 1194 199 1204 199 1214 C 199 1224 204 1236 215 1250 C 225 1264 238 1277 253 1289 C 267 1301 283 1312 299 1320 C 315 1328 328 1333 338 1333 C 348 1333 360 1328 373 1319 C 386 1309 398 1298 409 1285 C 420 1272 429 1258 437 1244 C 445 1230 449 1218 449 1208 Z" unicode="" />
<glyph horiz-adv-x="758" d="M 606 100 C 606 67 598 33 583 -1 C 567 -36 548 -70 525 -103 C 502 -136 477 -167 450 -196 C 422 -224 397 -248 373 -268 L 301 -256 C 317 -240 333 -221 349 -201 C 365 -181 379 -159 393 -137 C 407 -115 419 -92 429 -68 C 439 -44 447 -22 451 0 C 441 2 431 6 420 14 C 409 22 399 31 389 41 C 379 51 371 62 365 74 C 359 86 356 96 356 106 C 356 116 361 129 372 143 C 382 157 395 170 410 182 C 424 194 439 204 455 212 C 471 220 484 225 494 225 C 504 225 516 220 529 211 C 542 201 554 190 566 177 C 577 164 586 150 594 136 C 602 122 606 110 606 100 Z M 254 100 C 254 67 246 33 231 -1 C 215 -36 196 -70 173 -103 C 150 -136 125 -167 97 -196 C 69 -224 44 -248 20 -268 L -51 -256 C -35 -240 -19 -221 -3 -201 C 13 -181 27 -159 41 -137 C 55 -115 67 -92 77 -68 C 87 -44 94 -22 98 0 C 88 2 78 6 67 14 C 56 22 46 31 37 41 C 27 51 19 62 13 74 C 7 86 4 96 4 106 C 4 116 9 129 19 143 C 29 157 42 170 57 182 C 71 194 86 204 102 212 C 118 220 131 225 141 225 C 151 225 163 220 176 211 C 189 201 201 190 213 177 C 225 164 234 150 242 136 C 250 122 254 110 254 100 Z" unicode="" />
<glyph horiz-adv-x="809" d="M 801 946 L 768 760 L 541 797 L 285 -473 L 172 -473 L 369 797 L 123 760 L 156 946 L 383 909 L 420 1141 L 608 1141 L 563 909 L 801 946 Z" unicode="" />
<glyph horiz-adv-x="809" d="M 801 946 L 768 760 L 541 797 L 449 334 L 377 -129 L 618 -92 L 586 -279 L 360 -242 L 324 -473 L 135 -473 L 180 -242 L -59 -279 L -27 -92 L 205 -129 L 297 334 L 369 797 L 123 760 L 156 946 L 383 909 L 420 1141 L 608 1141 L 563 909 L 801 946 Z" unicode="" />
<glyph horiz-adv-x="768" d="M 694 567 C 694 523 686 483 671 447 C 655 411 634 379 608 353 C 581 327 549 306 512 292 C 475 277 435 270 393 270 C 349 270 309 277 273 292 C 236 306 204 327 177 353 C 149 379 128 411 113 447 C 97 483 90 523 90 567 C 90 610 97 650 113 687 C 128 723 149 755 176 781 C 203 807 235 828 272 843 C 309 858 349 866 393 866 C 436 866 476 858 513 843 C 550 828 582 807 609 781 C 635 755 656 723 671 687 C 686 650 694 610 694 567 Z" unicode="" />
<glyph horiz-adv-x="1219" d="M 1067 109 C 1067 98 1061 85 1049 70 C 1037 55 1023 41 1007 27 C 991 13 974 1 958 -8 C 941 -18 928 -23 918 -23 C 908 -23 897 -18 885 -10 C 873 -1 861 9 851 22 C 841 34 832 47 825 61 C 818 74 815 86 815 96 C 815 106 820 118 832 133 C 843 148 856 162 872 176 C 888 189 904 200 921 210 C 937 220 951 225 961 225 C 971 225 982 220 994 212 C 1006 204 1018 194 1029 182 C 1039 170 1048 157 1056 144 C 1063 130 1067 119 1067 109 Z M 659 109 C 659 98 653 85 642 70 C 630 55 617 41 601 27 C 585 13 568 1 552 -8 C 535 -18 522 -23 512 -23 C 501 -23 490 -18 478 -10 C 466 -1 455 9 445 21 C 435 33 426 46 420 60 C 413 74 410 86 410 96 C 410 106 415 119 427 134 C 438 148 451 162 467 176 C 482 190 498 201 515 211 C 531 220 545 225 555 225 C 565 225 576 220 588 212 C 600 203 612 193 622 181 C 632 169 641 156 648 143 C 655 129 659 118 659 109 Z M 254 109 C 254 98 248 85 236 70 C 224 55 211 41 195 27 C 179 13 162 1 146 -8 C 129 -18 116 -23 106 -23 C 96 -23 85 -18 73 -10 C 61 -1 50 9 40 22 C 30 34 21 47 14 61 C 7 74 4 86 4 96 C 4 106 9 118 21 133 C 32 148 45 162 61 176 C 77 189 93 200 110 210 C 126 220 140 225 150 225 C 160 225 171 220 183 212 C 195 203 206 193 217 181 C 227 169 236 156 243 143 C 250 129 254 118 254 109 Z" unicode="" />
<glyph horiz-adv-x="2165" d="M 2054 317 C 2054 270 2044 226 2024 185 C 2004 143 1978 107 1946 76 C 1913 45 1875 20 1833 2 C 1791 -15 1747 -25 1702 -25 C 1665 -25 1631 -19 1601 -7 C 1570 5 1543 21 1521 43 C 1499 64 1481 90 1469 120 C 1456 150 1450 184 1450 221 C 1450 267 1459 311 1479 353 C 1499 395 1525 431 1558 462 C 1590 493 1628 518 1670 536 C 1712 554 1756 563 1802 563 C 1838 563 1872 557 1903 545 C 1933 533 1960 517 1982 495 C 2004 473 2022 447 2035 417 C 2047 387 2054 353 2054 317 Z M 756 1087 C 756 1040 746 996 726 955 C 706 913 680 877 648 846 C 615 815 577 790 535 772 C 493 754 449 745 403 745 C 367 745 333 751 303 763 C 272 775 245 791 223 813 C 201 834 183 860 171 890 C 158 920 152 954 152 991 C 152 1037 161 1081 181 1123 C 201 1165 227 1201 260 1232 C 292 1263 330 1288 372 1306 C 414 1324 458 1333 504 1333 C 540 1333 573 1327 604 1315 C 635 1303 662 1287 684 1265 C 706 1243 724 1217 737 1187 C 749 1157 756 1123 756 1087 Z M 1430 1278 L 121 -53 L 37 31 L 1346 1362 L 1430 1278 Z M 1315 317 C 1315 270 1305 226 1285 185 C 1265 143 1239 107 1207 76 C 1174 45 1136 20 1094 2 C 1052 -15 1008 -25 963 -25 C 926 -25 892 -19 862 -7 C 831 5 804 21 782 43 C 760 64 742 90 730 120 C 717 150 711 184 711 221 C 711 267 720 311 740 353 C 760 395 786 431 819 462 C 851 493 889 518 931 536 C 973 554 1017 563 1063 563 C 1099 563 1132 557 1163 545 C 1194 533 1221 517 1243 495 C 1265 473 1283 447 1296 417 C 1308 387 1315 353 1315 317 Z M 1903 313 C 1903 346 1893 373 1873 394 C 1853 415 1827 426 1794 426 C 1768 426 1744 420 1721 409 C 1697 397 1677 382 1659 363 C 1641 344 1627 323 1617 299 C 1607 275 1602 250 1602 225 C 1602 192 1611 165 1631 144 C 1651 123 1677 113 1710 113 C 1735 113 1759 118 1783 130 C 1806 141 1826 156 1844 175 C 1862 194 1876 215 1887 239 C 1897 263 1903 287 1903 313 Z M 604 1083 C 604 1116 594 1143 574 1164 C 554 1185 528 1196 496 1196 C 470 1196 445 1190 422 1179 C 398 1167 378 1152 360 1133 C 342 1114 328 1093 318 1069 C 308 1045 303 1020 303 995 C 303 962 312 935 332 914 C 352 893 378 883 412 883 C 437 883 461 888 485 900 C 508 911 528 926 546 945 C 564 964 578 985 588 1009 C 598 1033 604 1057 604 1083 Z M 1163 313 C 1163 346 1153 373 1133 394 C 1113 415 1087 426 1055 426 C 1029 426 1004 420 981 409 C 957 397 937 382 919 363 C 901 344 887 323 877 299 C 867 275 862 250 862 225 C 862 192 871 165 891 144 C 911 123 937 113 971 113 C 996 113 1020 118 1044 130 C 1067 141 1087 156 1105 175 C 1123 194 1137 215 1147 239 C 1157 263 1163 287 1163 313 Z" unicode="" />
<glyph horiz-adv-x="432" d="M 387 700 C 362 656 336 614 310 573 C 283 531 254 491 223 453 C 240 413 255 372 267 330 C 279 288 289 247 299 205 L 262 154 C 239 192 214 228 187 264 C 159 300 130 333 98 365 C 90 372 83 379 76 385 C 69 391 62 398 55 406 C 47 413 41 421 37 429 C 33 437 31 446 31 457 C 31 469 36 480 46 492 C 56 503 66 512 76 520 C 128 559 178 599 228 639 C 278 679 325 724 371 772 L 387 700 Z" unicode="" />
<glyph horiz-adv-x="432" d="M 381 469 C 381 456 375 444 365 432 C 355 420 345 412 336 406 C 283 366 232 326 182 286 C 132 246 84 202 39 154 L 25 225 C 49 268 75 310 101 352 C 127 393 155 433 186 473 C 168 513 154 553 143 595 C 132 637 122 679 113 721 L 147 772 C 170 734 195 697 223 661 C 251 625 281 592 313 561 C 320 553 327 546 334 540 C 341 534 348 527 356 520 C 363 512 369 504 374 496 C 378 488 381 479 381 469 Z" unicode="" />
<glyph horiz-adv-x="1288" d="M 1364 1278 L 55 -53 L -29 31 L 1280 1362 L 1364 1278 Z" unicode="" />
<glyph horiz-adv-x="1001" d="M 1051 1270 L 993 1120 C 964 1133 934 1143 904 1149 C 874 1155 843 1159 813 1159 C 766 1159 723 1149 684 1129 C 644 1109 609 1084 577 1053 C 545 1021 517 986 493 947 C 469 907 449 868 434 829 L 786 829 L 748 719 L 399 719 C 389 677 381 636 375 596 L 727 596 L 688 485 L 367 485 L 367 479 C 367 436 371 395 381 355 C 390 315 405 279 426 248 C 446 217 473 192 507 173 C 541 154 582 145 631 145 C 665 145 699 149 733 159 C 766 169 798 181 829 197 L 801 23 C 765 6 730 -4 698 -10 C 665 -15 629 -18 590 -18 C 518 -18 456 -3 405 25 C 353 53 311 91 278 138 C 245 185 221 239 205 299 C 189 359 182 421 182 485 L 14 485 L 33 596 L 188 596 C 190 616 193 637 197 657 C 201 677 205 698 209 719 L 55 719 L 74 829 L 238 829 C 258 895 286 958 322 1018 C 358 1078 400 1130 449 1176 C 498 1222 554 1258 616 1285 C 678 1311 747 1325 821 1325 C 862 1325 902 1321 940 1313 C 978 1305 1015 1291 1051 1270 Z" unicode="" />
<glyph horiz-adv-x="852" d="M 889 1307 L 854 928 L 782 928 L 803 1145 L 649 928 L 623 928 L 549 1141 L 496 928 L 426 928 L 522 1307 L 567 1307 L 657 1044 L 834 1307 L 889 1307 Z M 467 1307 L 457 1241 L 348 1241 L 293 928 L 221 928 L 276 1241 L 168 1241 L 178 1307 L 467 1307 Z" unicode="" />
<glyph horiz-adv-x="1664" d="M 832 1376 C 706 1376 599 1328 510 1234 C 420 1139 376 1006 376 836 C 376 673 405 538 464 432 C 522 325 609 241 724 180 L 724 0 L 88 0 L 88 196 L 536 196 C 456 225 378 295 304 406 C 229 516 192 664 192 848 C 192 1024 247 1184 358 1330 C 468 1475 626 1548 832 1548 C 1037 1548 1195 1478 1306 1338 C 1416 1198 1472 1034 1472 848 C 1472 664 1434 516 1360 406 C 1285 295 1208 225 1128 196 L 1576 196 L 1576 0 L 940 0 L 940 180 C 1054 241 1141 325 1200 432 C 1258 538 1288 673 1288 836 C 1288 974 1246 1099 1162 1210 C 1078 1320 968 1376 832 1376 Z" unicode="" />
<glyph horiz-adv-x="1280" d="M 476 -32 C 342 -32 239 5 166 80 C 92 154 56 248 56 360 C 56 506 108 636 214 750 C 319 863 449 920 604 920 C 668 920 734 908 802 886 C 870 863 924 840 964 816 C 972 872 976 928 976 984 C 976 1109 953 1207 908 1278 C 862 1348 800 1384 720 1384 C 634 1384 567 1374 518 1356 C 468 1337 418 1312 368 1280 L 324 1444 C 374 1473 430 1498 492 1518 C 553 1538 629 1548 720 1548 C 877 1548 992 1496 1064 1394 C 1136 1291 1172 1149 1172 968 C 1172 690 1104 454 968 260 C 832 65 668 -32 476 -32 Z M 488 128 C 602 128 698 174 774 268 C 850 361 906 500 944 684 C 922 705 882 726 824 748 C 765 769 706 780 648 780 C 520 780 424 738 360 654 C 296 570 264 476 264 372 C 264 300 282 241 318 196 C 354 150 410 128 488 128 Z" unicode="" />
<glyph horiz-adv-x="1536" d="M 76 0 L 652 1536 L 884 1536 L 1456 0 L 76 0 Z M 352 148 L 1164 148 L 752 1256 L 352 148 Z" unicode="" />
<glyph horiz-adv-x="983" d="M 981 963 C 981 896 968 834 944 778 C 919 722 885 673 843 633 C 801 592 751 560 694 538 C 636 515 575 504 510 504 C 456 504 406 513 361 531 C 315 549 276 575 244 608 C 211 640 186 679 168 725 C 150 770 141 820 141 874 C 141 940 153 1002 177 1058 C 201 1114 235 1163 278 1204 C 320 1244 370 1276 428 1299 C 485 1321 546 1333 612 1333 C 666 1333 715 1323 761 1305 C 806 1287 845 1261 878 1229 C 910 1196 936 1157 954 1112 C 972 1066 981 1017 981 963 Z M 893 967 C 893 1009 885 1048 871 1083 C 857 1118 837 1148 811 1172 C 785 1196 755 1215 719 1229 C 683 1242 644 1249 602 1249 C 548 1249 499 1239 454 1219 C 408 1199 369 1172 336 1138 C 302 1104 276 1064 257 1018 C 238 972 229 922 229 870 C 229 826 236 787 250 753 C 264 718 284 688 310 664 C 336 640 366 621 402 608 C 438 594 477 588 520 588 C 573 588 622 597 668 617 C 713 637 752 664 786 698 C 819 732 845 773 864 819 C 883 865 893 914 893 967 Z M 778 1038 C 778 1011 772 987 761 965 C 750 943 735 925 717 910 C 699 894 678 882 654 874 C 630 866 606 862 582 862 L 524 862 L 489 662 L 389 662 L 481 1174 L 637 1174 C 656 1174 674 1170 692 1164 C 709 1157 724 1148 737 1136 C 749 1124 759 1109 767 1093 C 774 1076 778 1058 778 1038 Z M 682 1034 C 682 1044 679 1052 675 1059 C 671 1066 665 1072 658 1076 C 651 1080 643 1082 634 1084 C 625 1086 616 1087 608 1087 L 563 1087 L 539 948 L 584 948 C 596 948 608 950 620 954 C 632 958 642 963 651 971 C 660 978 667 987 673 998 C 679 1008 682 1020 682 1034 Z" unicode="" />
<glyph horiz-adv-x="1152" d="M 1084 1524 L 1084 1344 L 332 1344 L 796 784 L 304 188 L 1080 188 L 1080 0 L 40 0 L 40 172 L 560 788 L 68 1380 L 68 1524 L 1084 1524 Z" unicode="" />
<glyph horiz-adv-x="821" d="M 723 627 L 698 492 L 111 492 L 135 627 L 723 627 Z" unicode="" />
<glyph horiz-adv-x="1288" d="M 1364 1278 L 55 -53 L -29 31 L 1280 1362 L 1364 1278 Z" unicode="" />
<glyph horiz-adv-x="406" d="M 330 551 C 330 541 324 529 313 515 C 302 501 289 487 274 475 C 259 462 244 451 228 443 C 212 434 200 430 190 430 C 180 430 168 434 156 444 C 143 453 131 464 120 478 C 108 491 99 505 91 519 C 83 533 80 545 80 555 C 80 565 85 577 95 591 C 105 605 118 619 133 632 C 147 644 162 655 178 664 C 194 673 207 678 217 678 C 227 678 238 673 252 664 C 265 654 277 643 289 630 C 300 616 310 602 318 588 C 326 573 330 561 330 551 Z" unicode="" />
<glyph horiz-adv-x="1145" d="M 1286 1458 L 1257 1296 L 1094 1296 L 317 -16 L 242 -16 L 133 442 L 18 442 L 74 621 L 270 621 L 317 420 C 321 403 325 387 328 371 C 331 355 334 338 338 319 L 342 319 C 356 345 371 373 389 405 C 407 437 425 469 444 503 C 463 537 482 570 502 604 C 521 637 539 668 557 698 L 1006 1458 L 1286 1458 Z" unicode="" />
<glyph horiz-adv-x="1536" d="M 468 1216 C 566 1216 646 1188 706 1134 C 766 1079 813 981 848 840 C 853 720 877 642 920 608 C 962 573 1013 556 1072 556 C 1128 556 1176 579 1218 626 C 1259 672 1280 736 1280 816 C 1280 882 1264 940 1234 988 C 1203 1036 1152 1060 1080 1060 C 1008 1060 954 1029 920 968 C 885 906 857 834 836 752 C 809 648 760 562 688 496 C 616 429 533 396 440 396 C 336 396 252 433 190 508 C 127 582 96 682 96 808 C 96 925 133 1022 208 1100 C 282 1177 369 1216 468 1216 Z M 1072 396 C 973 396 896 424 840 482 C 784 539 741 633 712 764 C 685 870 652 944 614 986 C 575 1027 528 1048 472 1048 C 408 1048 356 1026 316 982 C 276 938 256 874 256 792 C 256 709 271 648 302 610 C 332 571 381 552 448 552 C 509 552 562 576 608 624 C 653 672 689 752 716 864 C 748 984 796 1072 860 1130 C 924 1187 1004 1216 1100 1216 C 1198 1216 1280 1181 1346 1112 C 1411 1042 1444 945 1444 820 C 1444 700 1409 599 1340 518 C 1270 436 1181 396 1072 396 Z" unicode="" />
<glyph horiz-adv-x="1152" d="M -8 -392 L 56 -260 C 72 -265 88 -270 104 -274 C 120 -278 140 -280 164 -280 C 196 -280 222 -268 242 -246 C 262 -223 277 -178 288 -112 L 516 1224 C 534 1330 574 1410 636 1464 C 697 1517 778 1544 880 1544 C 941 1544 995 1536 1042 1522 C 1088 1507 1125 1492 1152 1476 L 1088 1304 C 1058 1322 1025 1340 988 1356 C 950 1372 910 1380 868 1380 C 806 1380 760 1360 730 1322 C 699 1283 680 1238 672 1188 L 448 -224 C 434 -296 402 -348 350 -382 C 298 -415 240 -432 176 -432 C 136 -432 99 -428 66 -420 C 32 -412 8 -402 -8 -392 Z" unicode="" />
<glyph horiz-adv-x="1536" d="M 236 400 C 230 429 228 456 228 480 C 228 546 248 604 288 652 C 328 700 390 724 476 724 C 542 724 600 714 650 696 C 699 677 745 659 788 642 C 830 624 872 610 912 598 C 952 586 988 580 1020 580 C 1070 580 1106 590 1128 610 C 1149 630 1160 654 1160 684 C 1160 694 1158 705 1156 716 L 1300 716 C 1305 686 1308 660 1308 636 C 1308 569 1288 512 1248 464 C 1208 416 1145 392 1060 392 C 993 392 935 400 886 418 C 836 435 790 452 748 470 C 705 487 664 501 624 512 C 584 522 548 528 516 528 C 465 528 429 518 408 500 C 386 481 376 458 376 432 C 376 421 377 410 380 400 L 236 400 Z M 236 860 C 230 889 228 916 228 940 C 228 1006 248 1064 288 1112 C 328 1160 390 1184 476 1184 C 542 1184 600 1174 650 1156 C 699 1137 745 1119 788 1102 C 830 1084 872 1070 912 1058 C 952 1046 988 1040 1020 1040 C 1070 1040 1106 1050 1128 1070 C 1149 1090 1160 1114 1160 1144 C 1160 1154 1158 1165 1156 1176 L 1300 1176 C 1305 1146 1308 1120 1308 1096 C 1308 1029 1288 972 1248 924 C 1208 876 1145 852 1060 852 C 993 852 935 860 886 878 C 836 895 790 912 748 930 C 705 947 664 961 624 972 C 584 982 548 988 516 988 C 465 988 429 978 408 960 C 386 941 376 918 376 892 C 376 881 377 870 380 860 L 236 860 Z" unicode="" />
<glyph horiz-adv-x="1536" d="M 212 404 L 212 604 L 1328 604 L 1328 404 L 212 404 Z M 212 976 L 212 1176 L 1328 1176 L 1328 976 L 212 976 Z M 548 188 L 372 188 L 996 1356 L 1168 1356 L 548 188 Z" unicode="" />
<glyph horiz-adv-x="930" d="M 920 932 L 889 758 L 238 561 L 819 367 L 793 205 L 70 459 L 109 678 L 920 932 Z M 784 160 L 756 0 L -10 0 L 18 160 L 784 160 Z" unicode="" />
<glyph horiz-adv-x="930" d="M 874 678 L 836 459 L 27 205 L 57 379 L 709 575 L 127 770 L 154 932 L 874 678 Z M 784 160 L 756 0 L -10 0 L 18 160 L 784 160 Z" unicode="" />
<glyph horiz-adv-x="1198" d="M 1053 567 L 516 113 L 141 567 L 676 1022 L 1053 567 Z M 881 567 L 645 850 L 313 567 L 545 283 L 881 567 Z" unicode="" />
<glyph horiz-adv-x="1247" d="M 967 223 L 254 590 C 241 596 230 603 221 613 C 211 622 203 633 195 645 L 90 59 L 938 59 L 967 223 Z M 537 786 L 219 786 C 217 780 217 776 217 772 C 217 768 217 763 217 758 C 217 720 229 689 253 665 C 277 641 308 629 348 629 C 370 629 391 633 412 641 C 433 649 452 660 469 674 C 486 688 501 705 513 724 C 525 743 533 764 537 786 Z M 1067 786 L 764 786 L 1014 483 L 1067 786 Z M 1157 313 C 1153 294 1147 277 1137 263 C 1127 249 1116 237 1104 228 C 1091 218 1077 211 1063 206 C 1049 201 1035 199 1022 199 L 987 0 L 20 0 L 184 928 L 1151 928 L 1063 428 L 1157 313 Z" unicode="" />
</font>
</defs>
</svg>
