<svg version="1.1" xmlns="http://www.w3.org/2000/svg" xmlns:xlink="http://www.w3.org/1999/xlink" x="0px" y="0px"
	 width="20px" height="20px" viewBox="0 0 20 20" enable-background="new 0 0 20 20" xml:space="preserve">
<g>
	<path fill="#FFFFFF" d="M11.493,20c1.339,0,2.551-0.555,3.424-1.439l3.694-3.697C19.464,14,19.994,12.816,20,11.512V0H8.506
		c-1.338,0-2.55,0.554-3.422,1.442L1.389,5.139C0.536,6.002,0.007,7.186,0,8.489V20H11.493z"/>
	<path d="M9.846,1.015c-2.085,0-3.777,1.687-3.786,3.77v1.282h7.876v7.873H15.2c2.091,0,3.786-1.694,3.786-3.784v-9.14H9.846z"/>
	<path d="M15.2,14.954H5.046l-4.032,4.034h10.478c1.02,0,1.978-0.405,2.701-1.141l3.394-3.395L17.5,14.366
		C16.815,14.741,16.032,14.954,15.2,14.954"/>
	<path d="M2.153,5.808c-0.733,0.722-1.138,1.68-1.138,2.7v10.479l4.032-4.033V4.8c0-0.831,0.214-1.616,0.59-2.299l-0.09-0.087
		L2.153,5.808z"/>
</g>
</svg>
