<svg version="1.1" xmlns="http://www.w3.org/2000/svg" xmlns:xlink="http://www.w3.org/1999/xlink" x="0px" y="0px"
	 width="50px" height="20px" viewBox="0 0 50 20" enable-background="new 0 0 50 20" xml:space="preserve">
<g>
	<path d="M43.752,12.595l-1.598-3.889l-1.604,3.889H43.752z M29.131,12.595l-1.594-3.889l-1.607,3.889H29.131z M49.496,18.988
		h-3.105l-1.604-3.842h-5.29l-1.586,3.842h-3.034l6.648-15.822h1.316L49.496,18.988z M34.877,18.988h-3.104l-1.605-3.842h-5.289
		l-1.586,3.842h-3.037l6.651-15.822h1.319L34.877,18.988z M16.264,18.988h3.019v-7.807V3.376h-3.019v7.804V18.988z M14.98,3.376
		v2.691h-4.771v12.919H7.193V6.067H2.42V3.376H14.98z"/>
</g>
</svg>