<?xml version="1.0" encoding="utf-8"?>
<!-- Generator: Adobe Illustrator 18.1.0, SVG Export Plug-In . SVG Version: 6.00 Build 0)  -->
<svg version="1.1" id="Layer_1" xmlns="http://www.w3.org/2000/svg" xmlns:xlink="http://www.w3.org/1999/xlink" x="0px" y="0px"
	 viewBox="0 0 139.2 40.1" enable-background="new 0 0 139.2 40.1" xml:space="preserve">
<g>
	<path fill="#FFFFFF" d="M70.1,6.8v5.4h-9.6V38h-6V12.2h-9.6V6.8H70.1z M72.6,38h6V22.4V6.8h-6v15.6V38z M109.9,38h-6.2l-3.2-7.7
		H89.9L86.7,38h-6.1L94,6.3h2.6L109.9,38z M139.2,38H133l-3.2-7.7h-10.6L116,38h-6.1l13.3-31.7h2.6L139.2,38z M98.4,25.2l-3.2-7.8
		L92,25.2H98.4z M127.7,25.2l-3.2-7.8l-3.2,7.8H127.7z"/>
	<g>
		<path fill="#FFFFFF" d="M23,40.1c2.7,0,5.1-1.1,6.9-2.9l7.4-7.4c1.7-1.7,2.8-4.1,2.8-6.7V0H17c-2.7,0-5.1,1.1-6.9,2.9l-7.4,7.4
			C1.1,12,0,14.4,0,17v23.1H23z"/>
		<linearGradient id="SVGID_1_" gradientUnits="userSpaceOnUse" x1="20.0241" y1="20.0373" x2="38.03" y2="2.0315">
			<stop  offset="0.1" style="stop-color:#9CDCF8"/>
			<stop  offset="0.9" style="stop-color:#009EDB"/>
		</linearGradient>
		<path fill="url(#SVGID_1_)" d="M19.7,2c-4.2,0-7.6,3.4-7.6,7.6v2.6h15.8v15.8h2.5c4.2,0,7.6-3.4,7.6-7.6V2H19.7z"/>
		<linearGradient id="SVGID_2_" gradientUnits="userSpaceOnUse" x1="2.0312" y1="33.4034" x2="35.228" y2="33.4034">
			<stop  offset="0" style="stop-color:#14B1E7"/>
			<stop  offset="0.16" style="stop-color:#13ABE2"/>
			<stop  offset="0.3694" style="stop-color:#0F9BD3"/>
			<stop  offset="0.6062" style="stop-color:#0980BC"/>
			<stop  offset="0.8614" style="stop-color:#015A9B"/>
			<stop  offset="0.9" style="stop-color:#005495"/>
		</linearGradient>
		<path fill="url(#SVGID_2_)" d="M35.1,28.8c-1.4,0.8-2.9,1.2-4.6,1.2H10.1L2,38h21c2,0,4-0.8,5.4-2.3l6.8-6.8L35.1,28.8z"/>
		<linearGradient id="SVGID_3_" gradientUnits="userSpaceOnUse" x1="6.6589" y1="38.0313" x2="6.6589" y2="4.834">
			<stop  offset="0" style="stop-color:#0082BE"/>
			<stop  offset="0.386" style="stop-color:#0070AE"/>
			<stop  offset="0.85" style="stop-color:#005495"/>
		</linearGradient>
		<path fill="url(#SVGID_3_)" d="M11.3,5c-0.8,1.4-1.2,2.9-1.2,4.6V30L2,38V17c0-2,0.8-4,2.3-5.4l6.8-6.8L11.3,5z"/>
	</g>
</g>
</svg>
